<?xml version="1.0" encoding="UTF-8" standalone="no"?>
<!-- Created with Inkscape (http://www.inkscape.org/) -->

<svg
   width="44.317707mm"
   height="44.317703mm"
   viewBox="0 0 44.317707 44.317703"
   version="1.1"
   id="svg6511"
   inkscape:version="1.2.1 (9c6d41e410, 2022-07-14)"
   sodipodi:docname="clock-face-7-symbolic.svg"
   xmlns:inkscape="http://www.inkscape.org/namespaces/inkscape"
   xmlns:sodipodi="http://sodipodi.sourceforge.net/DTD/sodipodi-0.dtd"
   xmlns="http://www.w3.org/2000/svg"
   xmlns:svg="http://www.w3.org/2000/svg">
  <sodipodi:namedview
     id="namedview6513"
     pagecolor="#ffffff"
     bordercolor="#000000"
     borderopacity="0.25"
     inkscape:showpageshadow="2"
     inkscape:pageopacity="0.0"
     inkscape:pagecheckerboard="0"
     inkscape:deskcolor="#d1d1d1"
     inkscape:document-units="mm"
     showgrid="false"
     inkscape:zoom="4"
     inkscape:cx="53"
     inkscape:cy="131.75"
     inkscape:window-width="2560"
     inkscape:window-height="1363"
     inkscape:window-x="0"
     inkscape:window-y="40"
     inkscape:window-maximized="1"
     inkscape:current-layer="layer1"
     showguides="true" />
  <defs
     id="defs6508">
    <clipPath
       clipPathUnits="userSpaceOnUse"
       id="clipPath2426">
      <path
         d="m 8060.68,5204.7 c -93.72,0 -175.9,82.2 -175.9,175.9 0,93.7 82.18,175.9 175.9,175.9 93.72,0 175.91,-82.2 175.91,-175.9 0,-93.7 -82.19,-175.9 -175.91,-175.9 z"
         id="path2424" />
    </clipPath>
    <linearGradient
       x1="0"
       y1="0"
       x2="1"
       y2="0"
       gradientUnits="userSpaceOnUse"
       gradientTransform="matrix(174.538,-302.309,-302.309,-174.538,7973.41,5531.8)"
       spreadMethod="pad"
       id="linearGradient2434">
      <stop
         style="stop-opacity:1;stop-color:#ededed"
         offset="0"
         id="stop2428" />
      <stop
         style="stop-opacity:1;stop-color:#ededed"
         offset="0.48211215"
         id="stop2430" />
      <stop
         style="stop-opacity:1;stop-color:#d0d0d0"
         offset="1"
         id="stop2432" />
    </linearGradient>
    <clipPath
       clipPathUnits="userSpaceOnUse"
       id="clipPath2444">
      <path
         d="m 8060.68,5224.3 c -83.29,0 -156.36,73 -156.36,156.3 0,83.3 73.07,156.4 156.36,156.4 83.3,0 156.37,-73.1 156.37,-156.4 0,-83.3 -73.07,-156.3 -156.37,-156.3 z"
         id="path2442" />
    </clipPath>
    <linearGradient
       x1="0"
       y1="0"
       x2="1"
       y2="0"
       gradientUnits="userSpaceOnUse"
       gradientTransform="matrix(155.141,-268.712,-268.712,-155.141,7983.11,5515)"
       spreadMethod="pad"
       id="linearGradient2452">
      <stop
         style="stop-opacity:1;stop-color:#d0d0d0"
         offset="0"
         id="stop2446" />
      <stop
         style="stop-opacity:1;stop-color:#ededed"
         offset="0.51788785"
         id="stop2448" />
      <stop
         style="stop-opacity:1;stop-color:#ededed"
         offset="1"
         id="stop2450" />
    </linearGradient>
  </defs>
  <g
     inkscape:label="Layer 1"
     inkscape:groupmode="layer"
     id="layer1"
     transform="translate(0.09317171,-98.332576)">
    <path
       d="m 22.06577,98.553074 c -12.0969967,0 -21.93836758,9.841796 -21.93836758,21.938616 0,12.09668 9.84137088,21.93808 21.93836758,21.93808 12.09675,0 21.938191,-9.8414 21.938191,-21.93808 0,-12.09682 -9.841441,-21.938616 -21.938191,-21.938616 z m 0,44.097186 c -12.2185286,0 -22.15885368,-9.94022 -22.15885368,-22.15857 0,-12.21853 9.94032508,-22.159102 22.15885368,-22.159102 12.218458,0 22.158677,9.940572 22.158677,22.159102 0,12.21835 -9.940219,22.15857 -22.158677,22.15857"
       style="fill:#191a1b;fill-opacity:1;fill-rule:nonzero;stroke:none;stroke-width:0.0352778"
       id="path250" />
    <path
       d="m 15.15256,141.42161 0.209868,0.068 0.542396,-1.66907 c -0.07027,-0.0225 -0.139171,-0.0476 -0.208915,-0.0704 z m -2.150427,-0.8376 0.201612,0.0897 0.714622,-1.60553 c -0.06738,-0.0292 -0.133773,-0.0604 -0.200907,-0.0907 z m 6.653847,1.81931 0.219393,0.023 0.183973,-1.74943 c -0.07345,-0.007 -0.146226,-0.0166 -0.21911,-0.0248 z m -2.277357,-0.37388 0.215689,0.0458 0.364631,-1.71553 c -0.07207,-0.0147 -0.142769,-0.0342 -0.214701,-0.0497 z m 4.577433,-1.25592 v 1.76745 h 0.220486 v -1.76745 c -0.0368,0 -0.07317,0.003 -0.110243,0.003 -0.03694,0 -0.07331,-0.003 -0.110243,-0.003 z m -12.9331504,-2.51354 0.1784702,0.1295 1.0350152,-1.42459 c -0.05951,-0.043 -0.12058,-0.0844 -0.179529,-0.12763 z m -1.7855142,-1.46089 0.16383,0.14746 1.1779603,-1.30803 c -0.054998,-0.0488 -0.11176,-0.0956 -0.1660525,-0.14496 z M 1.8813429,122.501 l -1.74762576,0.18384 0.0230364,0.21907 1.74928386,-0.18422 c -0.00815,-0.0729 -0.017392,-0.14524 -0.024695,-0.21869 z m 22.1957891,18.1755 0.184539,1.75507 0.21911,-0.0226 -0.18482,-1.75715 c -0.07302,0.008 -0.145627,0.0172 -0.218829,0.0247 z m -21.878536,-16.07537 -1.71524081,0.36434 0.0458611,0.21594 1.71898021,-0.36544 c -0.015593,-0.0719 -0.034713,-0.14291 -0.0496,-0.21484 z m 1.2921897,4.0411 -1.6044686,0.71438 0.08957,0.20104 1.6055622,-0.71479 c -0.030339,-0.067 -0.061207,-0.13325 -0.090664,-0.20063 z m 2.1225933,6.51782 0.1472847,0.16414 1.3064066,-1.17658 c -0.049354,-0.0543 -0.096203,-0.11105 -0.1451328,-0.16577 z m -1.1669536,-4.62234 -1.5229769,0.87905 0.110243,0.19127 1.52273,-0.87947 c -0.037218,-0.0632 -0.073448,-0.12704 -0.1099961,-0.19085 z m 1.148468,1.7865 -1.4250105,1.03505 0.1293989,0.17843 1.4232113,-1.03367 c -0.043392,-0.0592 -0.084737,-0.1203 -0.1275997,-0.17981 z m -2.8566533,-5.66858 -1.6680038,0.54226 0.068227,0.2092 1.6703322,-0.54254 c -0.023036,-0.0698 -0.048401,-0.13836 -0.070555,-0.20892 z m 37.8137909,2.1849 1.617133,0.72002 0.08961,-0.20147 -1.616428,-0.71974 c -0.02928,0.0678 -0.06032,0.13405 -0.09031,0.20119 z m 0.771877,-1.97778 1.684162,0.54723 0.06809,-0.20959 -1.681692,-0.54613 c -0.02222,0.0699 -0.04727,0.13864 -0.07056,0.20849 z m 1.023762,-6.48229 c 0,0.0375 0.0028,0.0742 0.0028,0.1119 0,0.0362 -0.0028,0.0724 -0.0028,0.10858 h 1.774119 v -0.22048 z m -2.770717,10.34591 1.533878,0.88551 0.110419,-0.19085 -1.53423,-0.88579 c -0.03669,0.0638 -0.07302,0.12802 -0.110067,0.19113 z m -13.399805,9.63263 0.366148,1.72336 0.215653,-0.0463 -0.3671,-1.72642 c -0.07193,0.0152 -0.142629,0.0346 -0.214701,0.0494 z m 16.048813,-17.6385 1.763889,0.18549 0.02293,-0.21939 -1.762125,-0.18521 c -0.0071,0.0733 -0.01658,0.14609 -0.0247,0.21911 z m -0.341841,2.09409 1.732491,0.3682 0.04586,-0.2158 -1.728611,-0.36766 c -0.01482,0.0724 -0.03422,0.14333 -0.04974,0.21526 z m -3.472745,7.68668 1.432278,1.04069 0.129469,-0.17857 -1.434041,-1.04208 c -0.04304,0.0599 -0.08431,0.12073 -0.127706,0.17996 z m -8.194322,6.56554 0.718256,1.61283 0.201436,-0.0896 -0.718609,-1.61434 c -0.06703,0.0303 -0.133702,0.0615 -0.201083,0.0911 z m -1.985821,0.7528 0.544724,1.6764 0.20955,-0.0685 -0.545394,-1.67887 c -0.06985,0.023 -0.138713,0.0484 -0.20888,0.071 z m 3.881649,-1.70889 0.884414,1.53211 0.190853,-0.11038 -0.884062,-1.53141 c -0.0635,0.037 -0.127352,0.0735 -0.191205,0.10968 z m 4.954764,-3.96558 1.314802,1.18361 0.147462,-0.16373 -1.317273,-1.18607 c -0.04868,0.0547 -0.0956,0.1119 -0.144991,0.16619 z m -1.5113,1.49049 1.184627,1.31589 0.164042,-0.14746 -1.182864,-1.31381 c -0.05433,0.0497 -0.111125,0.0967 -0.165805,0.14538 z m -1.65735,1.32676 1.040694,1.43277 0.178506,-0.12954 -1.039284,-1.43083 c -0.05927,0.0437 -0.120297,0.085 -0.179916,0.1276 z m -22.946854,2.56399 0.190888,0.1101 0.879722,-1.52354 c -0.06378,-0.0368 -0.127599,-0.0728 -0.191135,-0.11014 z m 19.266676,-37.60886 c 0.06738,0.0296 0.134056,0.0607 0.200731,0.091 l 0.722136,-1.62136 -0.201436,-0.0893 z m 1.895122,0.95602 c 0.06385,0.0367 0.127706,0.0727 0.191206,0.11007 l 0.887941,-1.53811 -0.190852,-0.11007 z M 1.7815774,120.49236 c 0,-0.0378 0.00265,-0.0744 0.00275,-0.1119 H 0.02389742 v 0.22048 H 1.7843291 c -1.059e-4,-0.0362 -0.00275,-0.0724 -0.00275,-0.10858 z M 28.234125,101.16539 c 0.07017,0.0222 0.138959,0.0473 0.208809,0.0709 l 0.548216,-1.686982 -0.209902,-0.06844 z m -4.152442,-0.8576 c 0.07345,0.007 0.145944,0.0169 0.219111,0.0247 l 0.185631,-1.765295 -0.219392,-0.02258 z m 11.474309,5.04014 c 0.05503,0.049 0.11183,0.0956 0.166158,0.14534 l 1.187097,-1.31833 -0.164041,-0.14746 z m -9.37581,-4.72264 c 0.07232,0.0152 0.142875,0.0342 0.214947,0.0497 l 0.368653,-1.734253 -0.215688,-0.04621 z m 14.461807,11.71751 1.619603,-0.72107 -0.08961,-0.20109 -1.620661,0.72179 c 0.02999,0.0667 0.06103,0.13335 0.09066,0.20037 z m -2.109258,-6.52744 -0.147461,-0.16404 -1.318331,1.18709 c 0.04939,0.0543 0.09631,0.11113 0.144992,0.16581 z m 3.717572,12.66507 1.762478,-0.18563 -0.02293,-0.21897 -1.764242,0.18549 c 0.0081,0.073 0.01764,0.1458 0.0247,0.21911 z m -0.856545,-4.15216 1.683809,-0.54723 -0.06809,-0.20919 -1.686278,0.54751 c 0.02328,0.0703 0.04833,0.1386 0.07055,0.20891 z m 0.539398,2.05243 1.730022,-0.36767 -0.04586,-0.21551 -1.733903,0.36862 c 0.01552,0.0721 0.03457,0.14263 0.04974,0.21456 z m -3.394428,-7.71878 1.437922,-1.04493 -0.129469,-0.1785 -1.436511,1.04351 c 0.04374,0.0593 0.08502,0.1203 0.128058,0.17992 z m 1.147586,1.78541 1.538111,-0.88794 -0.110067,-0.19121 -1.538111,0.88794 c 0.03704,0.0635 0.07373,0.12736 0.110067,0.19121 z M 21.956056,100.21042 c 0.03694,0 0.07331,-0.003 0.110243,-0.003 0.03708,0 0.07345,0.003 0.110243,0.003 v -1.766707 h -0.220486 z m 11.943292,3.81106 c 0.05997,0.043 0.12065,0.0843 0.179563,0.12806 l 1.04387,-1.43686 -0.178153,-0.12947 z M 5.6112976,105.821 6.922502,107.00175 c 0.04893,-0.055 0.095779,-0.11183 0.1450975,-0.16616 l -1.3088408,-1.17863 z m 0.1123244,2.65783 -1.4257513,-1.03576 -0.1293989,0.17851 1.4272683,1.03717 c 0.042827,-0.0596 0.084173,-0.12065 0.1278819,-0.17992 z m -2.141361,3.66042 -1.6084197,-0.71578 -0.089606,0.20108 1.6072203,0.71543 c 0.029633,-0.067 0.060501,-0.1337 0.090805,-0.20073 z m 16.473205,-11.83181 -0.184221,-1.754013 -0.21911,0.02293 0.184362,1.755423 c 0.0732,-0.008 0.145803,-0.0173 0.218969,-0.0243 z m -18.1491817,17.95318 -1.75023632,-0.18408 -0.0230011,0.21911 1.74871942,0.18408 c 0.00716,-0.0735 0.016686,-0.14605 0.024518,-0.21911 z m 0.3427236,-2.09614 -1.72046188,-0.36558 -0.0458964,0.21565 1.71675778,0.36505 c 0.015028,-0.0726 0.033902,-0.14319 0.0496,-0.21512 z m 0.5607403,-2.04787 -1.6733661,-0.54367 -0.068192,0.20948 1.6708613,0.54296 c 0.022472,-0.0702 0.047554,-0.13864 0.070697,-0.20877 z m 1.7476258,-3.86331 -1.5257639,-0.88088 -0.110243,0.19085 1.5261872,0.88124 c 0.036512,-0.0635 0.072602,-0.12771 0.1098197,-0.19121 z m 11.346074,-9.08967 -0.543772,-1.673578 -0.209867,0.06809 0.544724,1.676398 c 0.06974,-0.0233 0.138642,-0.0487 0.208915,-0.0709 z m -1.985186,0.75212 -0.716598,-1.60972 -0.201612,0.0896 0.717126,1.61079 c 0.06699,-0.0303 0.133668,-0.061 0.201084,-0.0907 z m 4.038458,-1.29152 -0.365865,-1.721553 -0.215654,0.04621 0.366678,1.725083 c 0.07179,-0.0155 0.142628,-0.0346 0.214841,-0.0497 z m -8.9365661,2.0955 1.0368141,1.42699 c 0.05898,-0.0434 0.12005,-0.0847 0.179564,-0.12806 l -1.0379431,-1.4284 z m 3.0023151,0.1517 -0.882227,-1.52859 -0.190852,0.11042 0.881944,1.52788 c 0.06339,-0.037 0.127353,-0.0734 0.191135,-0.10971 z m -4.7878292,1.30951 1.1786305,1.30916 c 0.054292,-0.0494 0.1113367,-0.096 0.1660525,-0.145 l -1.1807119,-1.31162 -0.1639711,0.14746"
       style="fill:#191a1b;fill-opacity:1;fill-rule:nonzero;stroke:none;stroke-width:0.0352778"
       id="path252" />
    <path
       d="m 31.256689,137.06935 1.549753,2.68358 0.572911,-0.33059 -1.549047,-2.68319 c -0.188736,0.11398 -0.380647,0.22296 -0.573617,0.3302 z m -9.521119,2.37557 v 3.09605 h 0.661458 v -3.09605 c -0.110384,0.002 -0.219639,0.009 -0.330729,0.009 -0.110772,0 -0.220204,-0.007 -0.330729,-0.009 z m 19.283538,-19.28495 c 0.0018,0.11123 0.0085,0.22091 0.0085,0.33239 0,0.11038 -0.0067,0.21939 -0.0085,0.32907 h 3.102681 v -0.66146 z M 2.8132054,131.2259 3.1439346,131.79889 5.817849,130.25506 C 5.7043251,130.06601 5.5954579,129.87445 5.4881076,129.6818 Z m 35.5022146,-0.97331 2.685344,1.55014 0.330553,-0.57256 -2.68605,-1.55042 c -0.107245,0.19265 -0.2159,0.38446 -0.329847,0.57284 z m -27.554273,9.1634 0.572876,0.33087 1.544779,-2.67546 c -0.192934,-0.10749 -0.384634,-0.21622 -0.573405,-0.33017 z M 31.2581,103.91494 c 0.192617,0.1076 0.384528,0.21661 0.573264,0.3302 l 1.552575,-2.68922 -0.572911,-0.33091 z m -9.52253,-2.37631 c 0.110525,-0.002 0.219957,-0.008 0.330729,-0.008 0.11109,0 0.220345,0.006 0.330729,0.008 V 98.443713 H 21.73557 Z m 19.599275,8.21161 -0.330906,-0.57291 -2.689225,1.55293 c 0.113947,0.18838 0.222603,0.38029 0.329847,0.57291 z m -38.523721,0.004 2.6779361,1.54623 c 0.1073503,-0.19262 0.2162175,-0.38453 0.3299178,-0.57292 l -2.6771247,-1.54587 z m 10.067396,-5.84129 -1.547248,-2.68006 -0.572876,0.33056 1.546578,2.67934 c 0.188947,-0.11359 0.380611,-0.22295 0.573546,-0.32984 z m -9.774026,16.57953 c 0,-0.11148 0.00663,-0.22116 0.00857,-0.33239 H 0.02389742 v 0.66146 H 3.1129254 c -0.0018,-0.10968 -0.00843,-0.21869 -0.00843,-0.32907"
       style="fill:#191a1b;fill-opacity:1;fill-rule:nonzero;stroke:none;stroke-width:0.0352778"
       id="path254" />
    <path
       d="m 22.06577,100.31696 c -11.124212,0 -20.1744787,9.05052 -20.1744787,20.17473 0,11.12407 9.0502667,20.17419 20.1744787,20.17419 11.124141,0 20.174302,-9.05012 20.174302,-20.17419 0,-11.12421 -9.050161,-20.17473 -20.174302,-20.17473 z m 0,40.56941 c -11.24592,0 -20.3949648,-9.14894 -20.3949648,-20.39468 0,-11.24592 9.1490448,-20.39521 20.3949648,-20.39521 11.24585,0 20.394788,9.14929 20.394788,20.39521 0,11.24574 -9.148938,20.39468 -20.394788,20.39468"
       style="fill:#191a1b;fill-opacity:1;fill-rule:nonzero;stroke:none;stroke-width:0.0352778"
       id="path256" />
    <path
       d="m 37.235214,118.09238 c 0.01764,0.1542 0.0441,0.29559 0.12312,0.42788 h 2.380544 c 0.07514,-0.13229 0.106186,-0.29986 0.123825,-0.45392 l 0.176389,0.0218 v 1.30499 l -0.176389,-0.0265 c -0.01764,-0.15419 -0.0441,-0.29531 -0.123825,-0.4276 h -2.380544 c -0.07479,0.13229 -0.105481,0.29986 -0.12312,0.45406 l -0.176389,-0.0219 v -1.30486 l 0.176389,0.026"
       style="fill:#191a1b;fill-opacity:1;fill-rule:nonzero;stroke:none;stroke-width:0.0352778"
       id="path266" />
    <path
       d="m 37.235214,119.86082 c 0.01764,0.1542 0.0441,0.29531 0.12312,0.4276 h 2.380544 c 0.07514,-0.13229 0.106186,-0.29986 0.123825,-0.45434 l 0.176389,0.0222 v 1.30485 l -0.176389,-0.0265 c -0.01764,-0.15406 -0.0441,-0.29517 -0.123825,-0.42746 h -2.380544 c -0.07479,0.13229 -0.105481,0.29986 -0.12312,0.45392 l -0.176389,-0.0218 v -1.30527 l 0.176389,0.0267"
       style="fill:#191a1b;fill-opacity:1;fill-rule:nonzero;stroke:none;stroke-width:0.0352778"
       id="path268" />
    <path
       d="m 37.235214,121.62897 c 0.01764,0.15448 0.0441,0.29531 0.12312,0.42761 h 2.380544 c 0.07514,-0.1323 0.106186,-0.29958 0.123825,-0.45406 l 0.176389,0.0222 v 1.305 l -0.176389,-0.0265 c -0.01764,-0.15462 -0.0441,-0.29531 -0.123825,-0.4276 h -2.380544 c -0.07479,0.13229 -0.105481,0.29944 -0.12312,0.45406 l -0.176389,-0.0223 v -1.30485 l 0.176389,0.0264"
       style="fill:#191a1b;fill-opacity:1;fill-rule:nonzero;stroke:none;stroke-width:0.0352778"
       id="path270" />
    <path
       d="m 24.126204,138.16928 c 0.08819,0.0575 0.220486,0.0974 0.357328,0.1192 l -0.02205,0.17639 h -1.256489 l 0.0266,-0.17639 c 0.15434,-0.0176 0.295169,-0.0441 0.427461,-0.12375 l -0.762741,-2.10288 -0.762635,2.10743 c 0.132186,0.0706 0.295451,0.10156 0.445382,0.1192 l -0.02205,0.17639 h -1.155206 l 0.02646,-0.17639 c 0.136702,-0.0176 0.273262,-0.0441 0.392324,-0.12375 l 1.00958,-2.67999 h 0.282222 l 1.013813,2.68454"
       style="fill:#191a1b;fill-opacity:1;fill-rule:nonzero;stroke:none;stroke-width:0.0352778"
       id="path278" />
    <path
       d="m 21.154333,135.66113 c -0.15434,0.0176 -0.295451,0.0441 -0.427743,0.12305 v 2.38055 c 0.132292,0.0751 0.299861,0.10611 0.454061,0.12375 l -0.02205,0.17639 h -1.304854 l 0.02646,-0.17639 c 0.15434,-0.0176 0.29531,-0.0441 0.427602,-0.12375 v -2.38055 c -0.132292,-0.0748 -0.299861,-0.10541 -0.45406,-0.12305 l 0.02205,-0.17639 h 1.304855 l -0.02632,0.17639"
       style="fill:#191a1b;fill-opacity:1;fill-rule:nonzero;stroke:none;stroke-width:0.0352778"
       id="path280" />
    <path
       d="m 6.8966081,122.68096 c -0.017639,-0.15448 -0.044097,-0.29531 -0.1233664,-0.42761 H 4.3925562 c -0.074965,0.1323 -0.1058333,0.29987 -0.1236133,0.45407 l -0.1761067,-0.0219 v -1.30528 l 0.1761067,0.0265 c 0.01778,0.15448 0.044097,0.29531 0.1236133,0.4276 h 2.3806855 c 0.074965,-0.13229 0.1057275,-0.29944 0.1233664,-0.45406 l 0.1763889,0.0223 v 1.30486 l -0.1763889,-0.0265"
       style="fill:#191a1b;fill-opacity:1;fill-rule:nonzero;stroke:none;stroke-width:0.0352778"
       id="path296" />
    <path
       d="m 6.8966081,121.1421 c -0.017639,-0.25576 -0.079269,-0.39687 -0.238125,-0.51607 l -1.0711744,-0.80684 -1.1594747,0.83785 c -0.1014236,0.0748 -0.1368425,0.16728 -0.1588911,0.42333 l -0.1761067,-0.0222 v -1.32719 l 0.1761067,0.0269 c 0.01778,0.18478 0.061877,0.30868 0.128023,0.37454 l 0.8465256,-0.60812 -0.8509353,-0.63955 c -0.070414,0.11038 -0.1058333,0.22049 -0.1236133,0.37497 l -0.1761067,-0.0222 v -1.07142 l 0.1761067,0.026 c 0.01778,0.21636 0.061877,0.32674 0.1763889,0.41039 l 1.0140949,0.76232 1.2078759,-0.87242 c 0.1234722,-0.0882 0.202953,-0.24268 0.2293055,-0.4498 l 0.1763889,0.0222 v 1.34028 l -0.1763889,-0.0269 c 0,-0.2067 -0.030868,-0.33017 -0.1322917,-0.40997 l -0.9565216,0.69219 0.9697508,0.73201 c 0.083891,-0.0575 0.1190625,-0.1936 0.1190625,-0.4451 l 0.1763889,0.0218 v 1.19944 l -0.1763889,-0.0265"
       style="fill:#191a1b;fill-opacity:1;fill-rule:nonzero;stroke:none;stroke-width:0.0352778"
       id="path298" />
    <path
       d="m 18.774318,105.32217 c 0.255764,-0.0176 0.396875,-0.0794 0.515796,-0.23812 l 0.806697,-1.07103 -0.837423,-1.15959 c -0.07497,-0.10124 -0.167711,-0.13687 -0.423334,-0.15875 l 0.02205,-0.17603 h 1.326903 l -0.02632,0.17603 c -0.185209,0.0173 -0.308681,0.0614 -0.374827,0.12771 l 0.608401,0.84667 0.639127,-0.8509 c -0.109961,-0.0706 -0.220204,-0.10619 -0.374544,-0.12348 l 0.02205,-0.17603 h 1.071139 l -0.02632,0.17603 c -0.216218,0.0173 -0.326179,0.0614 -0.410104,0.17639 l -0.7626,1.01389 0.872843,1.20756 c 0.08819,0.12382 0.242534,0.20355 0.449791,0.22965 l -0.02205,0.17639 h -1.340415 l 0.0266,-0.17639 c 0.207257,0 0.330588,-0.031 0.409963,-0.13229 l -0.692186,-0.95638 -0.731872,0.96943 c 0.05733,0.084 0.194027,0.11924 0.44524,0.11924 l -0.02205,0.17639 H 18.74786 l 0.02646,-0.17639"
       style="fill:#191a1b;fill-opacity:1;fill-rule:nonzero;stroke:none;stroke-width:0.0352778"
       id="path306" />
    <path
       d="m 22.107927,105.32217 c 0.15434,-0.0176 0.29531,-0.0441 0.427602,-0.12347 v -2.38054 c -0.132292,-0.0751 -0.299861,-0.10619 -0.453919,-0.12348 l 0.02205,-0.17603 h 1.304855 l -0.02646,0.17603 c -0.15434,0.0173 -0.29531,0.0441 -0.427602,0.12348 v 2.38054 c 0.132292,0.0751 0.29972,0.10583 0.454061,0.12347 l -0.02205,0.17639 H 22.08161 l 0.02632,-0.17639"
       style="fill:#191a1b;fill-opacity:1;fill-rule:nonzero;stroke:none;stroke-width:0.0352778"
       id="path308" />
    <path
       d="m 23.876508,105.32217 c 0.15434,-0.0176 0.295169,-0.0441 0.427461,-0.12347 v -2.38054 c -0.132292,-0.0751 -0.29972,-0.10619 -0.454061,-0.12348 l 0.02205,-0.17603 h 1.304995 l -0.0266,0.17603 c -0.15434,0.0173 -0.295169,0.0441 -0.427461,0.12348 v 2.38054 c 0.132292,0.0751 0.29972,0.10583 0.45406,0.12347 l -0.02205,0.17639 h -1.304996 l 0.0266,-0.17639"
       style="fill:#191a1b;fill-opacity:1;fill-rule:nonzero;stroke:none;stroke-width:0.0352778"
       id="path310" />
  </g>
</svg>
