<?xml version="1.0" encoding="UTF-8" standalone="no"?>
<!-- Created with Inkscape (http://www.inkscape.org/) -->

<svg
   width="44.317707mm"
   height="44.317703mm"
   viewBox="0 0 44.317707 44.317703"
   version="1.1"
   id="svg6511"
   inkscape:version="1.4.2 (ebf0e940d0, 2025-05-08)"
   sodipodi:docname="bg.svg"
   xmlns:inkscape="http://www.inkscape.org/namespaces/inkscape"
   xmlns:sodipodi="http://sodipodi.sourceforge.net/DTD/sodipodi-0.dtd"
   xmlns="http://www.w3.org/2000/svg"
   xmlns:svg="http://www.w3.org/2000/svg">
  <sodipodi:namedview
     id="namedview6513"
     pagecolor="#ffffff"
     bordercolor="#000000"
     borderopacity="0.25"
     inkscape:showpageshadow="2"
     inkscape:pageopacity="0.0"
     inkscape:pagecheckerboard="0"
     inkscape:deskcolor="#d1d1d1"
     inkscape:document-units="mm"
     showgrid="false"
     inkscape:zoom="2.8284271"
     inkscape:cx="66.468038"
     inkscape:cy="56.922096"
     inkscape:window-width="1025"
     inkscape:window-height="991"
     inkscape:window-x="26"
     inkscape:window-y="23"
     inkscape:window-maximized="0"
     inkscape:current-layer="layer1"
     showguides="true" />
  <defs
     id="defs6508">
    <clipPath
       clipPathUnits="userSpaceOnUse"
       id="clipPath2426">
      <path
         d="m 8060.68,5204.7 c -93.72,0 -175.9,82.2 -175.9,175.9 0,93.7 82.18,175.9 175.9,175.9 93.72,0 175.91,-82.2 175.91,-175.9 0,-93.7 -82.19,-175.9 -175.91,-175.9 z"
         id="path2424" />
    </clipPath>
    <linearGradient
       x1="0"
       y1="0"
       x2="1"
       y2="0"
       gradientUnits="userSpaceOnUse"
       gradientTransform="matrix(174.538,-302.309,-302.309,-174.538,7973.41,5531.8)"
       spreadMethod="pad"
       id="linearGradient2434">
      <stop
         style="stop-opacity:1;stop-color:#ededed"
         offset="0"
         id="stop2428" />
      <stop
         style="stop-opacity:1;stop-color:#ededed"
         offset="0.48211215"
         id="stop2430" />
      <stop
         style="stop-opacity:1;stop-color:#d0d0d0"
         offset="1"
         id="stop2432" />
    </linearGradient>
    <clipPath
       clipPathUnits="userSpaceOnUse"
       id="clipPath2444">
      <path
         d="m 8060.68,5224.3 c -83.29,0 -156.36,73 -156.36,156.3 0,83.3 73.07,156.4 156.36,156.4 83.3,0 156.37,-73.1 156.37,-156.4 0,-83.3 -73.07,-156.3 -156.37,-156.3 z"
         id="path2442" />
    </clipPath>
    <linearGradient
       x1="0"
       y1="0"
       x2="1"
       y2="0"
       gradientUnits="userSpaceOnUse"
       gradientTransform="matrix(155.141,-268.712,-268.712,-155.141,7983.11,5515)"
       spreadMethod="pad"
       id="linearGradient2452">
      <stop
         style="stop-opacity:1;stop-color:#d0d0d0"
         offset="0"
         id="stop2446" />
      <stop
         style="stop-opacity:1;stop-color:#ededed"
         offset="0.51788785"
         id="stop2448" />
      <stop
         style="stop-opacity:1;stop-color:#ededed"
         offset="1"
         id="stop2450" />
    </linearGradient>
  </defs>
  <g
     inkscape:label="Layer 1"
     inkscape:groupmode="layer"
     id="layer1"
     transform="translate(0.09317171,-98.332576)">
    <path
       d="m 22.065506,98.553062 c -12.0967502,0 -21.93819161,9.841438 -21.93819161,21.938548 0,12.09675 9.84144141,21.93819 21.93819161,21.93819 12.096749,0 21.938544,-9.84144 21.938544,-21.93819 0,-12.09711 -9.841795,-21.938548 -21.938544,-21.938548 z m 0,44.097218 c -12.2181057,0 -22.15867771,-9.94022 -22.15867771,-22.15867 0,-12.21846 9.94057201,-22.159034 22.15867771,-22.159034 12.218458,0 22.15903,9.940574 22.15903,22.159034 0,12.21845 -9.940572,22.15867 -22.15903,22.15867"
       style="fill:#171717;fill-opacity:1;fill-rule:nonzero;stroke:none;stroke-width:0.0352778"
       id="path188" />
    <path
       d="m 10.951947,139.52644 0.190853,0.11006 0.879828,-1.52329 c -0.06385,-0.0367 -0.127706,-0.0727 -0.191206,-0.11007 z m -1.9289884,-1.26648 0.1785056,0.12947 1.0346968,-1.42416 c -0.05962,-0.043 -0.12065,-0.0843 -0.179916,-0.12771 z m 6.1295134,3.1616 0.209903,0.0681 0.54222,-1.66828 c -0.0702,-0.0226 -0.139348,-0.048 -0.208845,-0.0709 z m 2.226028,0.60854 0.2159,0.0459 0.36442,-1.71556 c -0.07197,-0.0148 -0.142875,-0.0342 -0.214842,-0.0497 z m 4.577644,-1.25589 v 1.76671 h 0.220487 v -1.76671 c -0.03704,0 -0.07338,0.003 -0.11042,0.003 -0.03669,0 -0.07338,-0.003 -0.110067,-0.003 z m -2.300111,1.62772 0.219075,0.0229 0.183798,-1.74731 c -0.07338,-0.007 -0.14605,-0.0166 -0.219075,-0.0247 z m -14.0620743,-10.07886 -1.4241638,1.03469 0.1294694,0.17851 1.4227527,-1.03329 c -0.043744,-0.0593 -0.085019,-0.11994 -0.1280583,-0.17991 z m -2.1036138,-3.68159 -1.6040805,0.71437 0.089606,0.20109 1.6051389,-0.71438 c -0.030339,-0.0674 -0.061031,-0.1337 -0.090664,-0.20108 z m -0.7521222,-1.98508 -1.6679333,0.54222 0.068086,0.20919 1.6704027,-0.54292 c -0.02293,-0.0695 -0.047978,-0.13829 -0.070555,-0.20849 z m -0.5393972,-2.05458 -1.71555834,0.36442 0.0458611,0.2159 1.71943884,-0.36548 c -0.015875,-0.0723 -0.034925,-0.14287 -0.049742,-0.21484 z m 3.414536,10.55687 0.1474611,0.16405 1.3056305,-1.17546 c -0.049742,-0.0543 -0.096308,-0.11148 -0.1453444,-0.16616 z m 1.6238361,1.64042 0.1640416,0.14746 1.1775722,-1.3081 c -0.05468,-0.0487 -0.1118305,-0.0953 -0.1658055,-0.14499 z m 16.8401994,3.87809 0.18415,1.75436 0.219075,-0.0226 -0.184503,-1.75648 c -0.07303,0.008 -0.145697,0.0173 -0.218722,0.0247 z m -19.6306716,-10.13919 -1.5232944,0.87948 0.1100667,0.1912 1.5232944,-0.87947 c -0.037395,-0.0632 -0.073378,-0.12736 -0.1100667,-0.19121 z m 35.1303156,0.18874 1.533878,0.88512 0.110067,-0.19086 -1.533878,-0.88547 c -0.03669,0.0635 -0.07303,0.12771 -0.110067,0.19121 z m 0.974725,-1.88631 1.617486,0.72002 0.08961,-0.20108 -1.616075,-0.72002 c -0.02963,0.0674 -0.06068,0.13406 -0.09102,0.20108 z m -14.374636,11.5189 0.366184,1.72297 0.215547,-0.0462 -0.366889,-1.72614 c -0.07197,0.0155 -0.142522,0.0346 -0.214842,0.0494 z m 16.170628,-19.97886 c 0,0.0374 0.0025,0.0737 0.0025,0.11113 0,0.0367 -0.0021,0.073 -0.0025,0.10936 h 1.774119 v -0.22049 z m -40.4660798,2.12125 -1.74801381,0.1838 0.0229306,0.21908 1.74942491,-0.18415 c -0.00811,-0.073 -0.017286,-0.14535 -0.024342,-0.21873 z m 40.3443718,0.21731 1.763888,0.18557 0.02258,-0.21908 -1.762125,-0.18556 c -0.0071,0.0734 -0.01623,0.14605 -0.02434,0.21907 z m -0.342195,2.09621 1.732492,0.3683 0.04621,-0.2159 -1.728964,-0.36759 c -0.01482,0.0723 -0.03422,0.14322 -0.04974,0.21519 z m -0.560211,2.04752 1.684514,0.54716 0.06809,-0.20955 -1.682044,-0.5461 c -0.02222,0.0699 -0.04727,0.13864 -0.07056,0.20849 z m -11.106502,12.2047 0.718255,1.6129 0.201083,-0.0896 -0.718608,-1.61431 c -0.06668,0.0303 -0.13335,0.0614 -0.20073,0.091 z m -1.985787,0.75248 0.544689,1.67675 0.20955,-0.0684 -0.545394,-1.67887 c -0.0702,0.0229 -0.138995,0.048 -0.208845,0.0706 z m 10.179756,-7.31873 1.43263,1.04069 0.12947,-0.1785 -1.434042,-1.04211 c -0.04269,0.06 -0.08431,0.12065 -0.128058,0.17992 z m -6.298142,5.60987 0.884414,1.53176 0.190853,-0.11042 -0.884061,-1.53105 c -0.0635,0.037 -0.127353,0.0734 -0.191206,0.10971 z m 4.95547,-3.96663 1.313744,1.18321 0.147461,-0.16404 -1.316214,-1.18533 c -0.04904,0.055 -0.09596,0.11183 -0.144991,0.16616 z m -3.169709,2.81869 1.041048,1.43263 0.178152,-0.12947 -1.039636,-1.43086 c -0.05891,0.0434 -0.119944,0.0847 -0.179564,0.1277 z m 1.657703,-1.32715 1.184628,1.31551 0.164041,-0.14746 -1.182863,-1.31374 c -0.05433,0.0497 -0.110773,0.0967 -0.165806,0.14569 z m -22.554494,4.94806 0.201789,0.0896 0.714375,-1.60479 c -0.06738,-0.0296 -0.134056,-0.0607 -0.201083,-0.091 z M 32.11438,102.87318 c 0.0635,0.0363 0.127706,0.0727 0.191206,0.10971 l 0.887236,-1.53705 -0.190853,-0.11042 z m 1.785056,1.14794 c 0.05962,0.043 0.12065,0.0843 0.179917,0.12806 l 1.043516,-1.43652 -0.178505,-0.12947 z m -3.680178,-2.10397 c 0.06703,0.0296 0.133703,0.0603 0.200378,0.0907 l 0.721783,-1.6203 -0.201083,-0.0896 z m -8.263114,-1.70744 c 0.03669,-3.6e-4 0.07338,-0.003 0.110067,-0.003 0.03704,0 0.07338,0.002 0.11042,0.003 v -1.766009 h -0.220487 z m 13.600289,5.1382 c 0.05468,0.0487 0.111478,0.0956 0.165806,0.145 l 1.187097,-1.31798 -0.164042,-0.14746 z m -9.37648,-4.72298 c 0.07267,0.0148 0.143227,0.0339 0.215194,0.0494 l 0.368653,-1.733898 -0.2159,-0.04551 z m 2.054577,0.5401 c 0.06985,0.0222 0.138642,0.0473 0.208492,0.0705 l 0.547864,-1.686274 -0.20955,-0.06844 z m -4.152899,-0.85796 c 0.07338,0.007 0.145697,0.0169 0.219075,0.0247 l 0.185561,-1.764244 -0.219075,-0.02328 z m 14.450835,5.50827 -0.147461,-0.16404 -1.317625,1.18675 c 0.04904,0.0543 0.09596,0.11112 0.144992,0.16616 z m 3.400778,10.5657 1.730022,-0.36795 -0.04621,-0.21555 -1.73355,0.36866 c 0.01552,0.072 0.03493,0.14252 0.04974,0.21484 z m 0.317147,2.09903 1.762125,-0.18521 -0.02258,-0.21908 -1.764241,0.18556 c 0.0081,0.073 0.01764,0.1457 0.02469,0.21873 z m -0.856544,-4.15149 1.683808,-0.54716 -0.06809,-0.2099 -1.686278,0.54786 c 0.02328,0.0698 0.04833,0.13864 0.07056,0.2092 z m -2.855031,-5.66702 1.437923,-1.04458 -0.12947,-0.1785 -1.436511,1.04316 c 0.04339,0.0593 0.08502,0.1203 0.128058,0.17992 z m 2.103261,3.68088 1.61925,-0.72108 -0.0896,-0.20179 -1.620661,0.72179 c 0.03034,0.067 0.06138,0.1337 0.09102,0.20108 z m -0.955675,-1.89512 1.538111,-0.88794 -0.110419,-0.19086 -1.537758,0.88759 c 0.03739,0.0635 0.07338,0.12735 0.110066,0.19121 z m -30.6662656,-7.7276 1.0364616,1.42663 c 0.05927,-0.0437 0.119944,-0.085 0.179563,-0.1277 l -1.037519,-1.4284 z m -5.4380693,9.41952 -1.6083139,-0.71614 -0.089606,0.20179 1.6069027,0.71508 c 0.029633,-0.0674 0.060678,-0.1337 0.091017,-0.20073 z m 0.9754305,-1.8863 -1.5261166,-0.88124 -0.1100667,0.19085 1.5261167,0.88124 c 0.036336,-0.0635 0.072672,-0.12771 0.1100666,-0.19085 z m 1.1655778,-1.77412 -1.4252222,-1.03541 -0.1294695,0.17816 1.4269861,1.03681 c 0.043039,-0.0596 0.084314,-0.1203 0.1277056,-0.17956 z m -2.9135916,5.63774 -1.673225,-0.54363 -0.068086,0.2099 1.6707555,0.54257 c 0.022225,-0.0699 0.047272,-0.13899 0.070556,-0.20884 z m 17.2458942,-13.80984 -0.18415,-1.753306 -0.219075,0.02293 0.184503,1.755066 c 0.07302,-0.008 0.145344,-0.0173 0.218722,-0.0247 z m -14.4441332,5.51427 1.3109222,1.18039 c 0.049036,-0.055 0.095956,-0.11147 0.1453445,-0.16615 l -1.3088056,-1.17828 z m -3.3623249,10.3438 -1.72049718,-0.36583 -0.0458611,0.21554 1.71661658,0.36513 c 0.014817,-0.0723 0.034219,-0.14288 0.049742,-0.21484 z m -0.3425472,2.09585 -1.75048331,-0.18415 -0.0229305,0.21943 1.74871941,0.18379 c 0.00706,-0.0734 0.016581,-0.14605 0.024694,-0.21907 z m 13.9968103,-17.09773 -0.54363,-1.672871 -0.209903,0.06809 0.544689,1.675691 c 0.06985,-0.0229 0.138642,-0.0483 0.208844,-0.0709 z m -1.98508,0.75212 -0.716492,-1.60902 -0.201436,0.0896 0.716845,1.61008 c 0.06703,-0.0303 0.13335,-0.061 0.201083,-0.0907 z m 4.0386,-1.29116 -0.365831,-1.720853 -0.2159,0.04586 0.366889,1.724733 c 0.07197,-0.0159 0.142522,-0.0349 0.214842,-0.0497 z m -10.7223277,3.55635 1.1789834,1.30951 c 0.054328,-0.0497 0.111125,-0.0963 0.1661583,-0.14534 l -1.1811,-1.31128 z m -5.4528859,16.31139 c 0,-0.0374 0.00282,-0.0737 0.00282,-0.11113 H 0.02395051 v 0.22049 H 1.7843116 c 0,-0.0363 -0.00282,-0.0727 -0.00282,-0.10936 z m 10.2407856,-17.6209 -0.881944,-1.52753 -0.190853,0.11007 0.881592,1.52753 c 0.0635,-0.0374 0.127352,-0.0734 0.191205,-0.11007"
       style="fill:#171717;fill-opacity:1;fill-rule:nonzero;stroke:none;stroke-width:0.0352778"
       id="path190" />
    <path
       d="m 10.761095,139.41602 0.572911,0.3309 1.544461,-2.67511 c -0.19297,-0.10725 -0.384528,-0.21625 -0.573264,-0.3302 z m 10.974563,0.0296 v 3.09527 h 0.661459 v -3.09527 c -0.110773,0.002 -0.219781,0.008 -0.330906,0.008 -0.110772,0 -0.220133,-0.007 -0.330553,-0.008 z m -18.9226464,-8.21902 0.3309055,0.57291 2.6744083,-1.5441 c -0.1139472,-0.18874 -0.2229556,-0.38065 -0.3302,-0.57292 z m 28.4441184,5.84306 1.5494,2.68323 0.572559,-0.33055 -1.548695,-2.68288 c -0.188736,0.1143 -0.380294,0.22296 -0.573264,0.3302 z m 9.762067,-16.9097 c 0.0018,0.11078 0.0081,0.22014 0.0081,0.33162 0,0.11042 -0.0063,0.21978 -0.0081,0.32984 h 3.10268 v -0.66146 z m -2.703689,10.09262 2.684992,1.55011 0.330905,-0.57256 -2.68605,-1.55046 c -0.107244,0.19262 -0.216253,0.38453 -0.329847,0.57291 z m 3.019072,-20.50238 -0.330553,-0.57291 -2.689225,1.55257 c 0.113595,0.18874 0.222956,0.38065 0.329848,0.57327 z m -19.598922,-8.21196 c 0.11042,-0.002 0.219781,-0.008 0.330553,-0.008 0.111125,0 0.220133,0.006 0.330906,0.008 v -3.094569 h -0.661459 z m 9.522883,2.37666 c 0.192617,0.10725 0.384528,0.2159 0.572912,0.32985 l 1.552222,-2.68887 -0.572559,-0.33056 z M 3.104406,120.49161 c 0,-0.11148 0.0067,-0.22084 0.00847,-0.33162 H 0.02395051 v 0.66146 H 3.1128727 c -0.00176,-0.11006 -0.00847,-0.21942 -0.00847,-0.32984 z m 9.773708,-16.5795 -1.54693,-2.67935 -0.572912,0.33091 1.546578,2.67864 c 0.188736,-0.1136 0.380647,-0.22296 0.573264,-0.3302 z m -10.0672191,5.84165 2.6782888,1.54622 c 0.1072445,-0.19297 0.2159,-0.38488 0.3298472,-0.57326 l -2.6772305,-1.54588 -0.3309055,0.57292"
       style="fill:#171717;fill-opacity:1;fill-rule:nonzero;stroke:none;stroke-width:0.0352778"
       id="path192" />
    <path
       d="m 5.006231,119.19409 c -0.20955,0 -0.3721806,0.0649 -0.4864806,0.19579 -0.1143,0.13018 -0.17145,0.31221 -0.17145,0.54575 0,0.20461 0.052211,0.36512 0.1583972,0.48295 0.1054806,0.11642 0.2659945,0.17568 0.4822472,0.17568 0.1337028,0 0.257175,-0.0268 0.3693584,-0.0787 0.1128889,-0.0522 0.2010833,-0.12453 0.2652888,-0.21554 0.065264,-0.0903 0.097014,-0.18592 0.097014,-0.28611 0,-0.14957 -0.030339,-0.28575 -0.089606,-0.41345 -0.061031,-0.12594 -0.1446389,-0.22578 -0.2525889,-0.2981 -0.1083028,-0.0723 -0.231775,-0.1083 -0.3721805,-0.1083 z m 1.0851444,1.07139 c 0,1.21955 -0.4878917,1.8295 -1.4640278,1.8295 -0.1703916,0 -0.3055055,-0.0138 -0.4060472,-0.042 v -0.30551 c 0.1185333,0.0367 0.2515306,0.0554 0.4011083,0.0554 0.3527778,0 0.6194778,-0.10477 0.8008056,-0.31715 0.1788583,-0.21025 0.2776361,-0.53445 0.2928055,-0.97014 h -0.026458 c -0.079728,0.11783 -0.187325,0.20744 -0.3217333,0.26953 -0.1337028,0.0614 -0.2836334,0.0931 -0.4512028,0.0931 -0.2861028,0 -0.511175,-0.0829 -0.6787444,-0.24765 -0.1679223,-0.1651 -0.2515306,-0.39546 -0.2515306,-0.69039 0,-0.32455 0.093133,-0.57996 0.2811639,-0.76799 0.1866194,-0.18768 0.4342694,-0.28117 0.7387167,-0.28117 0.2197805,0 0.4113388,0.0536 0.5753805,0.16263 0.1626305,0.10866 0.2892778,0.26706 0.3767667,0.4752 0.088194,0.20884 0.1329972,0.45473 0.1329972,0.7366"
       style="fill:#040606;fill-opacity:1;fill-rule:nonzero;stroke:none;stroke-width:0.0352778"
       id="path194" />
    <path
       d="m 22.133239,138.27161 c 0.208139,0 0.370769,-0.0646 0.485775,-0.19156 0.115711,-0.12665 0.172861,-0.3108 0.172861,-0.54963 0,-0.20673 -0.05362,-0.36936 -0.160514,-0.48719 -0.107597,-0.11782 -0.268111,-0.17709 -0.48013,-0.17709 -0.132998,0 -0.254353,0.0261 -0.364773,0.0797 -0.110066,0.0518 -0.197555,0.12417 -0.262466,0.21731 -0.06597,0.0914 -0.09913,0.18803 -0.09913,0.28716 0,0.14675 0.03034,0.28257 0.08819,0.40852 0.05927,0.1277 0.143227,0.22754 0.250825,0.30127 0.108302,0.0744 0.230716,0.11148 0.369358,0.11148 z m -1.083381,-1.07421 c 0,-0.61313 0.124178,-1.07139 0.369359,-1.37443 0.246239,-0.30338 0.610658,-0.45473 1.092905,-0.45473 0.166159,0 0.296334,0.0138 0.392642,0.0399 v 0.30445 c -0.1143,-0.0349 -0.242358,-0.0536 -0.388408,-0.0536 -0.34537,0 -0.609248,0.10478 -0.790928,0.31221 -0.182034,0.2092 -0.282575,0.53517 -0.300567,0.98249 h 0.02681 c 0.161925,-0.24448 0.417689,-0.36583 0.766939,-0.36583 0.289983,0 0.517525,0.084 0.684742,0.25364 0.166864,0.16793 0.250119,0.39794 0.250119,0.68898 0,0.32385 -0.09031,0.57714 -0.274108,0.7627 -0.182739,0.18592 -0.430742,0.27905 -0.742245,0.27905 -0.33408,0 -0.597958,-0.12135 -0.79375,-0.36371 -0.195438,-0.24271 -0.293511,-0.58032 -0.293511,-1.01106"
       style="fill:#040606;fill-opacity:1;fill-rule:nonzero;stroke:none;stroke-width:0.0352778"
       id="path208" />
    <path
       d="m 40.047647,119.6654 c 0,0.19897 -0.05927,0.3616 -0.173567,0.4886 -0.115005,0.12594 -0.279753,0.21061 -0.490714,0.25364 v 0.0169 c 0.259292,0.0317 0.45085,0.11042 0.576086,0.23848 0.124178,0.12805 0.185914,0.29633 0.185914,0.50306 0,0.29774 -0.106539,0.52493 -0.318205,0.68615 -0.213431,0.1591 -0.516114,0.23918 -0.90805,0.23918 -0.172156,0 -0.327378,-0.0116 -0.468489,-0.0367 -0.14217,-0.0261 -0.281164,-0.0688 -0.413456,-0.13088 v -0.3369 c 0.138995,0.0663 0.287867,0.11783 0.446264,0.1517 0.157339,0.0353 0.307622,0.0522 0.448028,0.0522 0.555978,0 0.835025,-0.21061 0.835025,-0.63324 0,-0.37747 -0.306564,-0.56691 -0.921808,-0.56691 h -0.317148 v -0.30445 h 0.322439 c 0.251531,0 0.449439,-0.054 0.598311,-0.16122 0.14605,-0.1076 0.220487,-0.25576 0.220487,-0.44662 0,-0.1524 -0.05468,-0.27128 -0.163337,-0.35807 -0.107597,-0.0864 -0.254352,-0.12982 -0.440266,-0.12982 -0.140759,0 -0.273756,0.018 -0.397581,0.0554 -0.126294,0.0363 -0.268816,0.10442 -0.427919,0.20461 l -0.185209,-0.23848 c 0.132998,-0.10195 0.284339,-0.18133 0.457906,-0.23848 0.171803,-0.0579 0.354189,-0.0861 0.544336,-0.0861 0.31362,0 0.557036,0.0688 0.730603,0.20743 0.172155,0.13899 0.26035,0.32914 0.26035,0.57044"
       style="fill:#040606;fill-opacity:1;fill-rule:nonzero;stroke:none;stroke-width:0.0352778"
       id="path214" />
    <path
       d="m 21.077022,105.57369 h -0.357716 v -2.22215 c 0,-0.18415 0.0056,-0.35912 0.01799,-0.52422 -0.03034,0.03 -0.06491,0.061 -0.104069,0.0935 -0.0381,0.0332 -0.213078,0.17181 -0.524933,0.41628 l -0.193675,-0.24342 0.853722,-0.63711 h 0.30868 v 3.11714"
       style="fill:#040606;fill-opacity:1;fill-rule:nonzero;stroke:none;stroke-width:0.0352778"
       id="path220" />
    <path
       d="m 24.42065,105.57369 h -2.118078 v -0.3048 l 0.848431,-0.82515 c 0.258939,-0.25294 0.428978,-0.43356 0.51188,-0.54186 0.08255,-0.10725 0.144639,-0.21343 0.183798,-0.31539 0.04127,-0.10265 0.06209,-0.21237 0.06209,-0.3309 0,-0.16581 -0.05186,-0.2981 -0.155575,-0.39476 -0.10548,-0.0977 -0.249061,-0.14605 -0.434975,-0.14605 -0.132997,0 -0.26035,0.0215 -0.380294,0.0642 -0.119944,0.0427 -0.252942,0.11994 -0.400403,0.23142 l -0.193675,-0.2406 c 0.297039,-0.23883 0.620889,-0.35807 0.969434,-0.35807 0.304094,0 0.541161,0.0752 0.712611,0.22472 0.172155,0.14923 0.258233,0.35208 0.258233,0.60396 0,0.19791 -0.05786,0.3937 -0.172156,0.58702 -0.115711,0.19297 -0.329141,0.4378 -0.644172,0.73343 l -0.70485,0.66675 v 0.0173 h 1.657703 v 0.32879"
       style="fill:#040606;fill-opacity:1;fill-rule:nonzero;stroke:none;stroke-width:0.0352778"
       id="path222" />
    <path
       style="fill:#00ff00;stroke-width:1.8855"
       d="m 77.312192,166.26264 -1.706991,-0.13354 0.18965,-1.30533 c 0.680887,-4.68641 0.680212,-5.09017 -0.0083,-4.95809 -0.544231,0.10439 -0.704062,0.60596 -0.934897,2.93381 -0.153138,1.54434 -0.349,2.87846 -0.435242,2.9647 -0.199853,0.19985 -6.345403,-0.67314 -6.824917,-0.9695 -0.237963,-0.14706 -0.179902,-1.09364 0.171989,-2.80388 0.519017,-2.52251 0.465595,-3.59889 -0.178622,-3.59889 -0.175765,0 -0.603374,1.35234 -0.950238,3.0052 -0.346861,1.65287 -0.807866,3.00521 -1.024449,3.00521 -0.329601,0 -4.173292,-0.99313 -6.272409,-1.62065 -0.533317,-0.15944 -0.504726,-0.42847 0.299856,-2.8215 0.828764,-2.46493 0.894108,-3.68958 0.196865,-3.68958 -0.160474,0 -0.73071,1.34782 -1.267184,2.99515 l -0.975412,2.99514 -2.367832,-0.90728 c -1.302307,-0.49901 -2.805354,-1.06689 -3.340103,-1.26196 -0.53475,-0.19508 -0.972272,-0.50172 -0.972272,-0.68142 0,-0.1797 0.481942,-1.38963 1.070984,-2.68873 1.009207,-2.22577 1.13614,-3.27933 0.395085,-3.27933 -0.178138,0 -0.848281,1.19325 -1.489202,2.65165 -0.640922,1.45841 -1.379184,2.65165 -1.640576,2.65165 -0.261397,0 -1.598606,-0.5657 -2.971581,-1.25712 -1.651989,-0.83193 -2.434424,-1.41843 -2.313321,-1.73402 0.100649,-0.26228 1.307514,-2.40895 2.681921,-4.77035 1.374407,-2.36141 2.498923,-4.41935 2.498923,-4.5732 0,-0.15385 -0.437523,-0.49903 -0.972272,-0.76708 -0.53475,-0.26804 -1.075213,-0.54002 -1.201025,-0.6044 -0.125815,-0.0644 -1.356153,1.8397 -2.734084,4.2313 -1.377932,2.39159 -2.6475,4.56466 -2.821261,4.82903 -0.251235,0.38226 -0.741133,0.2111 -2.392439,-0.83587 -3.610339,-2.28905 -3.523877,-2.01866 -1.524523,-4.76753 0.960361,-1.32037 1.746109,-2.48076 1.746109,-2.57863 0,-0.0979 -0.231507,-0.26679 -0.514463,-0.37537 -0.344004,-0.13201 -1.109832,0.62114 -2.311352,2.27308 l -1.796888,2.4705 -1.666125,-1.31957 c -0.916368,-0.72577 -2.17566,-1.78958 -2.798428,-2.36403 l -1.132303,-1.04447 1.983847,-2.25963 c 1.572122,-1.79067 1.892393,-2.34831 1.543184,-2.68691 -0.347668,-0.33711 -0.879672,0.0577 -2.520903,1.87082 l -2.080239,2.29809 -2.573282,-2.58789 -2.573281,-2.58789 2.240508,-2.08062 c 1.999608,-1.85691 2.486127,-2.81987 1.42469,-2.81987 -0.197414,0 -1.273303,0.87216 -2.390865,1.93814 l -2.031931,1.93813 -1.064637,-1.14264 c -0.58555,-0.62845 -1.671486,-1.9035 -2.413191,-2.83344 -1.531208,-1.91981 -1.711485,-1.52394 1.822327,-4.00161 1.144977,-0.80278 1.759201,-1.46606 1.641552,-1.77264 -0.282503,-0.7362 -0.52324,-0.63895 -3.139111,1.26812 l -2.411427,1.75802 -1.69942,-2.55351 c -0.934681,-1.40443 -1.699824,-2.6624 -1.700317,-2.79547 -4.93e-4,-0.13307 2.131196,-1.47326 4.737086,-2.97819 l 4.737984,-2.73624 -0.560825,-1.17606 c -0.308454,-0.64684 -0.718489,-1.17606 -0.911189,-1.17606 -0.192701,0 -2.403816,1.19324 -4.913589,2.65165 -2.509774,1.45841 -4.627803,2.65165 -4.706732,2.65165 -0.133575,0 -2.9798256,-5.50016 -2.9798256,-5.75829 0,-0.0644 1.2727923,-0.65517 2.8284276,-1.31278 1.555635,-0.65761 2.828427,-1.32937 2.828427,-1.49281 0,-0.7358 -1.157587,-0.58239 -3.496342,0.46335 -1.3915456,0.62221 -2.625122,1.03626 -2.7412809,0.9201 -0.3450225,-0.34503 -2.5555161,-6.39606 -2.4178845,-6.61875 0.069603,-0.11262 1.3296206,-0.58207 2.8000389,-1.04322 2.1164285,-0.66374 2.6734875,-0.98069 2.6734875,-1.52113 0,-0.39731 -0.18474,-0.6146 -0.441942,-0.51982 -2.8922282,1.06588 -5.3350679,1.70182 -5.5833773,1.45351 -0.168086,-0.16809 -0.6947855,-1.75983 -1.1704433,-3.53721 l -0.8648323,-3.2316 2.9696373,-0.6232 c 2.4704904,-0.51844 2.9696374,-0.73676 2.9696374,-1.298866 0,-0.480871 -0.1783804,-0.620369 -0.6187184,-0.483848 C 6.6091461,99.638584 2.8033455,100.30042 2.6838176,100.1019 2.6099461,99.979215 2.3632016,98.606041 2.1354963,97.050407 1.9077909,95.494772 1.6696727,93.95284 1.6063447,93.623891 c -0.093557,-0.48597 0.2587375,-0.637878 1.8792955,-0.810359 3.7090352,-0.394756 4.2925345,-0.546777 4.2925345,-1.118328 0,-0.469183 -0.3774137,-0.515148 -2.5632621,-0.31217 C 3.8051184,91.513948 2.3953592,91.692888 2.0821144,91.780686 1.449692,91.95794 1.0606602,90.10852 1.0606602,86.924789 V 85.206368 H 6.7175145 12.374369 V 83.792154 82.377941 H 6.7175145 1.0606602 l 0.00389,-2.032932 c 0.00214,-1.118113 0.1041598,-2.639743 0.2267104,-3.381399 0.2177168,-1.317584 0.2520375,-1.344235 1.4987109,-1.163788 4.6677374,0.67563 5.0605568,0.674573 4.9296837,-0.01327 C 7.6149069,75.236017 7.0945184,75.080263 4.4945199,74.821257 1.8892075,74.56172 1.419061,74.420617 1.5494769,73.937373 c 0.085355,-0.316275 0.3483896,-1.890521 0.5845217,-3.498329 0.2361322,-1.607806 0.5333145,-2.987548 0.6604052,-3.066093 0.1270907,-0.07855 1.260656,0.07787 2.5190342,0.347599 2.9292333,0.627869 3.5253968,0.63011 3.5253968,0.01326 0,-0.457063 -3.9016423,-1.619327 -5.4359809,-1.619327 -0.4375635,0 -0.3815011,-0.536458 0.3417707,-3.270369 0.4758568,-1.798703 0.9340443,-3.462363 1.0181943,-3.69702 0.111113,-0.309843 0.8521432,-0.188854 2.7067638,0.441942 2.9462003,1.002069 3.4905723,1.059349 3.4905723,0.367296 0,-0.312767 -1.0726168,-0.858509 -2.8520878,-1.451128 C 5.8104326,57.740024 5.2975394,57.442269 5.4697644,56.97357 5.5873461,56.65358 6.188838,55.098708 6.8064127,53.518307 l 1.1228633,-2.873459 2.645122,1.205419 c 2.466914,1.124208 3.567738,1.290028 3.567738,0.537412 0,-0.172683 -1.276718,-0.889346 -2.83715,-1.592585 L 8.4678371,49.516475 9.8947185,46.678548 c 0.7847845,-1.560861 1.5108935,-2.837927 1.6135755,-2.837927 0.102681,0 2.263612,1.193441 4.802069,2.652092 2.538456,1.458652 4.760736,2.562258 4.938399,2.452455 0.177663,-0.109799 0.559863,-0.657637 0.849334,-1.217411 l 0.52631,-1.017771 -4.771465,-2.712791 c -2.624306,-1.492034 -4.771465,-2.792997 -4.771465,-2.891034 0,-0.224793 2.298291,-3.936025 2.986258,-4.822146 0.495435,-0.638134 0.563253,-0.624356 1.857567,0.377393 3.015657,2.333993 3.533949,2.608234 3.959748,2.095175 0.315748,-0.380452 -0.119878,-0.857088 -2.111347,-2.310114 -2.223101,-1.622028 -2.45635,-1.899444 -2.045824,-2.433215 0.980978,-1.275478 2.205156,-2.771087 3.206236,-3.917138 l 1.042404,-1.193359 1.297721,1.200934 c 3.0272,2.801421 3.226442,2.934481 3.68889,2.463551 0.349131,-0.355536 -0.02591,-0.863861 -1.860838,-2.522134 l -2.298097,-2.076852 2.587384,-2.582031 2.587385,-2.582031 2.047733,2.261145 c 1.214827,1.341434 2.211659,2.159834 2.450752,2.012066 0.651471,-0.402631 0.504151,-0.682198 -1.563503,-2.967029 L 28.947424,21.9373 30.226018,20.814679 c 1.80693,-1.586506 4.454436,-3.582895 4.557796,-3.43687 2.623864,3.706948 3.566706,4.809872 3.977125,4.65238 0.712276,-0.273325 0.646044,-0.432376 -1.280397,-3.074822 l -1.763889,-2.419472 0.791617,-0.596132 c 1.125251,-0.847381 4.351475,-2.858287 4.585725,-2.858287 0.108174,0 1.423894,2.143089 2.923827,4.762419 l 2.727148,4.76242 1.00028,-0.517265 c 0.550154,-0.284495 1.097996,-0.675373 1.217426,-0.868618 0.119434,-0.193245 -0.984172,-2.41004 -2.452451,-4.926211 -1.468283,-2.516172 -2.669604,-4.664354 -2.669604,-4.773739 0,-0.109385 1.281472,-0.843192 2.847713,-1.6306835 l 2.847714,-1.4318018 1.278155,2.8420693 c 0.702985,1.563138 1.415246,2.84207 1.582799,2.84207 0.750184,0 0.580457,-1.143383 -0.532133,-3.584804 L 50.663816,7.9218001 53.527793,6.8026745 c 1.575186,-0.6155187 3.125787,-1.2153284 3.445777,-1.3329101 0.468699,-0.172225 0.766454,0.3406682 1.531636,2.6383028 0.592619,1.779471 1.138361,2.8520878 1.451128,2.8520878 0.692053,0 0.634773,-0.544372 -0.367296,-3.4905723 -0.630796,-1.8546206 -0.751785,-2.5956508 -0.441942,-2.7067638 0.234657,-0.08415 1.898317,-0.5423375 3.69702,-1.0181943 2.48385,-0.6571163 3.270369,-0.7542138 3.270369,-0.4037345 0,1.4743912 1.192404,5.4979447 1.62935,5.4979447 0.606603,0 0.602604,-0.6054 -0.02329,-3.5253968 -0.269725,-1.2583782 -0.426148,-2.3919435 -0.347599,-2.5190342 0.07855,-0.1270907 1.458287,-0.424273 3.066093,-0.6604052 1.607808,-0.2361321 3.182054,-0.4991669 3.498329,-0.5845217 0.483244,-0.1304159 0.624347,0.3397306 0.883884,2.945043 0.259006,2.5999985 0.41476,3.120387 0.965299,3.2251364 C 76.474395,7.8505294 76.475452,7.45771 75.799822,2.7899726 75.619375,1.5432992 75.646026,1.5089785 76.96361,1.2912617 77.705266,1.1687111 79.226896,1.0666914 80.345009,1.0645513 l 2.032932,-0.00389 V 6.7175156 12.37437 h 1.414213 1.414214 V 6.7175145 1.0606602 h 1.718421 c 0.94513,0 2.454255,0.1008573 3.35361,0.2241274 1.428299,0.1957702 1.61576,0.3187849 1.481643,0.9722718 -0.08445,0.4114794 -0.253894,1.8220629 -0.376545,3.1346299 -0.18547,1.9848187 -0.133735,2.3864854 0.307376,2.3864854 0.576455,0 0.777089,-0.7368972 1.13444,-4.1666047 0.190678,-1.830028 0.334306,-2.1942596 0.814095,-2.0644817 0.320415,0.086669 1.898048,0.3507782 3.505857,0.5869103 1.607805,0.2361322 2.983715,0.5287529 3.057585,0.6502682 0.0739,0.1215154 -0.15132,1.533504 -0.500397,3.1377525 -0.606397,2.7867786 -0.6068,2.9168155 -0.0091,2.9168155 0.499317,0 0.751357,-0.5990873 1.248287,-2.9670568 l 0.62266,-2.9670567 3.22195,0.8622518 c 1.77208,0.4742384 3.35948,0.9997766 3.52757,1.1678626 0.24831,0.2483094 -0.38763,2.6911491 -1.45351,5.5833773 -0.0948,0.257202 0.12251,0.441942 0.51982,0.441942 0.54044,0 0.85739,-0.557059 1.52113,-2.6734875 0.46115,-1.4704183 0.9306,-2.7304359 1.04322,-2.8000389 0.22269,-0.1376316 6.27372,2.072862 6.61875,2.4178845 0.11616,0.1161589 -0.29789,1.3497353 -0.9201,2.7412809 -1.04748,2.342646 -1.19918,3.496342 -0.45974,3.496342 0.16541,0 0.83419,-1.233018 1.48617,-2.740039 0.65199,-1.5070214 1.22112,-2.7898669 1.26475,-2.8507675 0.10127,-0.1413627 5.80935,2.7216225 5.80935,2.9137775 0,0.07893 -1.19324,2.196958 -2.65165,4.706732 -1.45841,2.509773 -2.65165,4.720888 -2.65165,4.913589 0,0.1927 0.52922,0.602735 1.17606,0.911189 l 1.17606,0.560825 2.73624,-4.737984 c 1.50493,-2.60589 2.84512,-4.737579 2.97819,-4.737086 0.13307,4.93e-4 1.39104,0.765636 2.79547,1.700317 l 2.55351,1.69942 -1.75802,2.411427 c -1.90707,2.615871 -2.00432,2.856608 -1.26812,3.139111 0.30658,0.117649 0.96986,-0.496575 1.77264,-1.641552 2.47767,-3.533812 2.0818,-3.353535 4.00161,-1.822327 0.92994,0.741705 2.20168,1.82443 2.82608,2.406056 l 1.13527,1.057502 -1.93076,2.085465 c -1.06193,1.147006 -1.93078,2.226106 -1.93078,2.398 0,1.014608 0.99227,0.49695 2.81987,-1.471089 l 2.08062,-2.240508 2.58789,2.573281 2.58788,2.573282 -2.29809,2.080239 c -1.81312,1.641231 -2.20793,2.173235 -1.87082,2.520903 0.33861,0.349209 0.89624,0.02894 2.68691,-1.543184 l 2.25963,-1.983847 1.04447,1.132303 c 0.57445,0.622768 1.63826,1.88206 2.36403,2.798428 l 1.31957,1.666125 -2.47049,1.796888 c -1.65194,1.20152 -2.40509,1.967348 -2.27308,2.311352 0.10857,0.282956 0.2775,0.514463 0.37537,0.514463 0.0979,0 1.25826,-0.785748 2.57863,-1.746109 2.74887,-1.999354 2.47848,-2.085816 4.76753,1.524523 1.04326,1.645462 1.21677,2.140359 0.83587,2.384088 -0.26438,0.169165 -2.43708,1.439814 -4.82823,2.823665 -2.39116,1.38385 -4.29524,2.617946 -4.2313,2.742436 0.0639,0.124493 0.33556,0.66387 0.6036,1.19862 0.26805,0.534749 0.61105,0.972272 0.76224,0.972272 0.15119,0 2.1831,-1.114528 4.51536,-2.47673 2.33226,-1.362203 4.48131,-2.569142 4.77564,-2.682092 0.3939,-0.151154 0.91583,0.551745 1.97734,2.663007 l 1.44219,2.868368 -2.83715,1.278619 c -1.56043,0.703239 -2.83716,1.419902 -2.83716,1.592585 0,0.731028 1.06354,0.599676 3.27933,-0.405006 1.2991,-0.589042 2.50903,-1.070984 2.68873,-1.070984 0.1797,0 0.48634,0.437522 0.68142,0.972272 0.19507,0.534749 0.76295,2.037796 1.26196,3.340103 l 0.90728,2.367832 -2.99514,0.975412 c -1.64733,0.536474 -2.99515,1.10671 -2.99515,1.267184 0,0.697243 1.22465,0.631899 3.68958,-0.196865 2.39303,-0.804582 2.66206,-0.833173 2.8215,-0.299856 0.62752,2.099117 1.62065,5.942808 1.62065,6.272409 0,0.216583 -1.35234,0.677588 -3.00521,1.024449 -1.65286,0.346864 -3.0052,0.774473 -3.0052,0.950238 0,0.660247 1.14009,0.709723 3.59247,0.155907 1.39153,-0.314249 2.60763,-0.493791 2.70244,-0.398982 0.23001,0.230011 1.08759,5.062708 1.11111,6.261406 0.0183,0.931624 -0.0307,0.952271 -2.83943,1.197284 -1.94962,0.170066 -2.91869,0.407385 -3.04888,0.746652 -0.10497,0.273537 -0.1217,0.566491 -0.0372,0.651005 0.0845,0.08452 1.48657,0.0016 3.11567,-0.184159 1.62911,-0.185803 2.99705,-0.301588 3.03988,-0.257302 0.0428,0.04429 0.19239,1.552191 0.33237,3.350894 l 0.25449,3.270369 h -5.70245 -5.70246 v 1.414213 1.414214 h 5.70798 5.70798 l -0.22539,2.386485 c -0.12396,1.312567 -0.22652,2.792492 -0.2279,3.288719 l -0.003,0.902236 -2.38649,-0.265363 c -3.50216,-0.389414 -3.97748,-0.364004 -3.97748,0.212641 0,0.516927 0.56592,0.66537 4.03793,1.059168 0.9569,0.108531 1.81956,0.277073 1.91703,0.374534 0.16982,0.169825 -0.50975,5.394906 -0.85545,6.577404 -0.15287,0.522898 -0.41507,0.519728 -3.14495,-0.03809 -2.62824,-0.537051 -3.00209,-0.546205 -3.18179,-0.07792 -0.2565,0.668428 -0.48952,0.562958 2.80253,1.268418 1.547,0.33152 2.8818,0.67183 2.96622,0.75625 0.27015,0.27015 -1.49836,6.61195 -1.88526,6.76042 -0.20472,0.0786 -1.55248,-0.25859 -2.99501,-0.74923 -2.03161,-0.69099 -2.68625,-0.79209 -2.90436,-0.44855 -0.46083,0.72582 -0.40388,0.76261 2.55123,1.64811 1.56207,0.46806 2.89512,0.94536 2.96234,1.06066 0.1177,0.20188 -2.14843,6.39263 -2.45066,6.69486 -0.0815,0.0815 -1.34916,-0.37971 -2.81712,-1.02483 -2.03779,-0.89554 -2.76683,-1.07512 -3.08264,-0.7593 -0.53617,0.53617 -0.56742,0.5133 2.62025,1.9177 l 2.72746,1.20164 -1.43935,2.80729 c -0.79165,1.54401 -1.48153,2.85318 -1.53308,2.90927 -0.0516,0.0561 -2.16133,-1.09738 -4.68838,-2.56326 -2.52705,-1.46588 -4.74053,-2.66524 -4.91885,-2.66524 -0.17832,0 -0.6169,0.49548 -0.97463,1.10107 -0.53932,0.91299 -0.56744,1.15416 -0.16462,1.41182 0.26719,0.1709 2.43477,1.43869 4.81683,2.8173 2.38207,1.37861 4.33103,2.57484 4.33103,2.65829 0,0.3851 -3.3213,5.09299 -3.59298,5.09299 -0.16898,0 -1.29367,-0.71776 -2.49928,-1.59502 -1.20562,-0.87727 -2.35658,-1.54018 -2.55769,-1.47314 -0.81663,0.27221 -0.24594,1.01904 2.0317,2.6588 l 2.39736,1.72596 -2.33094,2.88702 -2.33094,2.88702 -2.1596,-1.95433 c -2.26103,-2.04611 -2.55208,-2.20091 -2.9445,-1.56597 -0.13571,0.21959 0.73874,1.28383 2.01207,2.4488 l 2.25208,2.06043 -2.58738,2.58934 -2.58739,2.58934 -2.08024,-2.29737 c -1.60804,-1.7759 -2.17572,-2.20189 -2.50089,-1.87673 -0.32517,0.32517 -0.0907,0.81471 1.03282,2.15667 0.7994,0.9548 1.69526,1.93668 1.99079,2.18194 0.70865,0.58813 0.57293,0.76136 -2.5256,3.22365 l -2.64549,2.10227 -1.74361,-2.39166 c -1.68696,-2.31394 -2.6605,-3.00206 -2.57524,-1.82024 0.0227,0.31428 0.69884,1.44243 1.5026,2.507 0.80376,1.06457 1.46138,2.09666 1.46138,2.29352 0,0.3099 -4.66711,3.64367 -5.10096,3.64367 -0.0878,0 -1.38083,-2.14783 -2.87334,-4.77297 -1.4925,-2.62513 -2.79011,-4.77297 -2.88358,-4.77297 -0.40636,0 -2.22359,1.24156 -2.22359,1.51918 0,0.16834 1.20395,2.37722 2.67546,4.90864 1.4715,2.53142 2.62497,4.64935 2.56326,4.70652 -0.0617,0.0572 -1.37548,0.75165 -2.91949,1.5433 l -2.80729,1.43935 -1.20164,-2.72746 c -1.40115,-3.18029 -1.38288,-3.15507 -1.90644,-2.63151 -0.3008,0.3008 -0.1079,1.07777 0.76413,3.07781 0.64158,1.47149 1.09769,2.74426 1.01358,2.82838 -0.3141,0.31409 -6.49876,2.57263 -6.70873,2.44991 -0.12025,-0.0703 -0.58745,-1.40413 -1.03821,-2.9641 -0.45076,-1.55997 -0.90921,-2.83387 -1.01879,-2.8309 -0.93283,0.0253 -0.96759,0.67844 -0.16907,3.17685 0.46607,1.45825 0.78753,2.81571 0.71434,3.01657 -0.13894,0.38131 -6.48258,2.14629 -6.75065,1.87822 -0.0844,-0.0844 -0.42473,-1.41922 -0.75625,-2.96622 -0.33151,-1.547 -0.63313,-2.85625 -0.67026,-2.90944 -0.0371,-0.0532 -0.310404,-0.004 -0.607269,0.11041 -0.479733,0.18409 -0.469582,0.52898 0.0913,3.10191 0.347079,1.59214 0.570459,2.95782 0.496409,3.03484 -0.19669,0.20461 -5.113349,1.05701 -6.222517,1.07879 -0.893917,0.0176 -0.959364,-0.095 -1.171078,-2.01433 -0.364461,-3.30405 -0.55545,-3.97748 -1.128048,-3.97748 -0.454196,0 -0.500999,0.39976 -0.300096,2.56327 0.130914,1.40979 0.309479,2.81836 0.396814,3.13016 0.130366,0.46541 -0.269782,0.60738 -2.235072,0.79298 -1.316626,0.12435 -2.831387,0.22721 -3.366136,0.22859 l -0.972272,0.003 v -5.65686 -5.65685 h -1.414214 -1.414213 v 5.65685 5.65686 l -1.679379,-0.0637 c -0.923658,-0.0351 -2.447526,-0.12382 -3.38637,-0.19728 z m 9.2173,-14.78864 c 1.995342,-1.3074 2.009629,-5.23691 0.02355,-6.47724 -0.916035,-0.57207 -3.69068,-0.58861 -4.368541,-0.026 -0.70758,0.58724 -0.69633,-0.40282 0.02032,-1.78867 0.678653,-1.31237 1.527036,-1.76069 3.331856,-1.76069 1.174292,0 1.437456,-0.12244 1.437456,-0.66878 0,-1.19979 -2.7122,-1.23583 -4.899734,-0.0651 -1.932046,1.034 -2.909101,6.67368 -1.625006,9.37971 1.034271,2.17957 3.891683,2.84071 6.080097,1.40681 z M 20.873739,89.264945 c 1.590051,-0.822245 2.532504,-3.011854 2.577824,-5.989074 0.04745,-3.116831 -0.73898,-4.700146 -2.706489,-5.448983 -2.95554,-1.124886 -5.744704,0.998732 -5.425827,4.131127 0.231146,2.270594 1.310772,3.248353 3.586778,3.248353 0.996712,0 2.024162,-0.198874 2.283221,-0.441942 0.388812,-0.36481 0.432071,-0.225977 0.247865,0.795495 -0.320099,1.77504 -1.661727,2.828427 -3.60238,2.828427 -1.335573,0 -1.571275,0.10607 -1.571275,0.707107 0,0.613755 0.235702,0.707107 1.785325,0.707107 0.981928,0 2.253159,-0.241926 2.824958,-0.537617 z m 129.728121,0.01344 c 1.93342,-0.999813 2.22736,-4.237811 0.48814,-5.377391 -0.82529,-0.540753 -0.83056,-0.572064 -0.17375,-1.032111 0.96351,-0.674866 1.20747,-2.052218 0.61477,-3.470763 -0.68958,-1.650398 -2.69036,-2.304277 -5.08831,-1.662924 -2.13261,0.570384 -2.74703,1.058185 -2.12118,1.684035 0.37868,0.37868 0.74409,0.377124 2.05067,-0.0087 2.91209,-0.859983 4.78561,0.687757 2.99727,2.47609 -0.61236,0.612369 -1.23855,0.844908 -2.27519,0.844908 -1.19458,0 -1.43028,0.116528 -1.43028,0.707107 0,0.497008 0.23636,0.707694 0.79549,0.70908 1.47326,0.0037 3.43614,0.731045 3.79817,1.407506 0.49676,0.928216 -0.23687,2.437486 -1.31656,2.70847 -0.91954,0.230789 -3.4381,6.75e-4 -4.42615,-0.404405 -0.49282,-0.202048 -0.61872,-0.07211 -0.61872,0.638585 0,0.490735 0.19888,0.972494 0.44194,1.070574 1.01556,0.409786 5.29344,0.211704 6.26369,-0.290031 z M 80.25662,21.566757 v -6.010408 h -0.905093 c -0.497803,0 -1.605422,0.534742 -2.461382,1.188314 -1.384632,1.057245 -1.504759,1.258784 -1.089118,1.827209 0.446383,0.610463 0.516581,0.603711 1.577499,-0.151729 l 1.110327,-0.790623 v 4.973822 4.973823 h 0.883884 0.883883 z m 12.727923,5.126524 c 0,-0.870583 -0.04341,-0.883883 -2.884469,-0.883883 h -2.884466 l 2.172586,-2.262524 c 1.194922,-1.244388 2.333834,-2.686637 2.530915,-3.204997 1.437135,-3.779957 -1.798805,-6.251083 -5.843113,-4.462093 -1.56348,0.691602 -1.661312,0.804172 -1.146379,1.319105 0.514933,0.514933 0.701015,0.510259 2.180523,-0.05477 1.50822,-0.575995 1.67777,-0.578289 2.508539,-0.03395 0.63571,0.416533 0.89099,0.898402 0.89099,1.681836 0,0.901358 -0.538289,1.648122 -3.005204,4.169107 -1.917242,1.959264 -3.005204,3.350731 -3.005204,3.84356 0,0.751369 0.116004,0.772491 4.242641,0.772491 h 4.242641 z"
       id="path1"
       transform="matrix(0.26458333,0,0,0.26458333,-0.09317171,98.332576)" />
    <path
       style="fill:#00ff00;stroke-width:1.8855"
       d="m 82.221212,149.82797 c -0.583591,-0.83319 -0.716687,-2.2944 -0.272604,-2.9928 0.804755,-1.26563 3.599467,-1.21913 4.093424,0.0681 0.421098,1.09736 0.226685,2.53869 -0.421562,3.12535 -0.948105,0.85802 -2.731467,0.75276 -3.399258,-0.20065 z"
       id="path2"
       transform="matrix(0.26458333,0,0,0.26458333,-0.09317171,98.332576)" />
    <path
       style="fill:#00ff00;stroke-width:1.8855"
       d="m 17.555689,83.145597 c -0.735334,-0.812536 -0.749944,-2.142777 -0.03475,-3.163862 0.703683,-1.004648 2.620609,-1.067496 3.483326,-0.114204 0.834976,0.922638 0.846055,2.842878 0.01989,3.446987 -0.934767,0.683519 -2.778269,0.593737 -3.468465,-0.168921 z"
       id="path3"
       transform="matrix(0.26458333,0,0,0.26458333,-0.09317171,98.332576)" />
  </g>
</svg>
