<?xml version="1.0" encoding="UTF-8" standalone="no"?>
<!-- Created with Inkscape (http://www.inkscape.org/) -->

<svg
   width="44.317707mm"
   height="44.317703mm"
   viewBox="0 0 44.317707 44.317703"
   version="1.1"
   id="svg6511"
   inkscape:version="1.2.1 (9c6d41e410, 2022-07-14)"
   sodipodi:docname="clock-face-6-symbolic.svg"
   xmlns:inkscape="http://www.inkscape.org/namespaces/inkscape"
   xmlns:sodipodi="http://sodipodi.sourceforge.net/DTD/sodipodi-0.dtd"
   xmlns:xlink="http://www.w3.org/1999/xlink"
   xmlns="http://www.w3.org/2000/svg"
   xmlns:svg="http://www.w3.org/2000/svg">
  <sodipodi:namedview
     id="namedview6513"
     pagecolor="#ffffff"
     bordercolor="#000000"
     borderopacity="0.25"
     inkscape:showpageshadow="2"
     inkscape:pageopacity="0.0"
     inkscape:pagecheckerboard="0"
     inkscape:deskcolor="#d1d1d1"
     inkscape:document-units="mm"
     showgrid="false"
     inkscape:zoom="2.8284271"
     inkscape:cx="33.234019"
     inkscape:cy="153.44217"
     inkscape:window-width="2560"
     inkscape:window-height="1363"
     inkscape:window-x="0"
     inkscape:window-y="40"
     inkscape:window-maximized="1"
     inkscape:current-layer="layer1"
     showguides="true" />
  <defs
     id="defs6508">
    <clipPath
       clipPathUnits="userSpaceOnUse"
       id="clipPath2426">
      <path
         d="m 8060.68,5204.7 c -93.72,0 -175.9,82.2 -175.9,175.9 0,93.7 82.18,175.9 175.9,175.9 93.72,0 175.91,-82.2 175.91,-175.9 0,-93.7 -82.19,-175.9 -175.91,-175.9 z"
         id="path2424" />
    </clipPath>
    <linearGradient
       x1="0"
       y1="0"
       x2="1"
       y2="0"
       gradientUnits="userSpaceOnUse"
       gradientTransform="matrix(174.538,-302.309,-302.309,-174.538,7973.41,5531.8)"
       spreadMethod="pad"
       id="linearGradient2434">
      <stop
         style="stop-opacity:1;stop-color:#ededed"
         offset="0"
         id="stop2428" />
      <stop
         style="stop-opacity:1;stop-color:#ededed"
         offset="0.48211215"
         id="stop2430" />
      <stop
         style="stop-opacity:1;stop-color:#d0d0d0"
         offset="1"
         id="stop2432" />
    </linearGradient>
    <clipPath
       clipPathUnits="userSpaceOnUse"
       id="clipPath2444">
      <path
         d="m 8060.68,5224.3 c -83.29,0 -156.36,73 -156.36,156.3 0,83.3 73.07,156.4 156.36,156.4 83.3,0 156.37,-73.1 156.37,-156.4 0,-83.3 -73.07,-156.3 -156.37,-156.3 z"
         id="path2442" />
    </clipPath>
    <linearGradient
       x1="0"
       y1="0"
       x2="1"
       y2="0"
       gradientUnits="userSpaceOnUse"
       gradientTransform="matrix(155.141,-268.712,-268.712,-155.141,7983.11,5515)"
       spreadMethod="pad"
       id="linearGradient2452">
      <stop
         style="stop-opacity:1;stop-color:#d0d0d0"
         offset="0"
         id="stop2446" />
      <stop
         style="stop-opacity:1;stop-color:#ededed"
         offset="0.51788785"
         id="stop2448" />
      <stop
         style="stop-opacity:1;stop-color:#ededed"
         offset="1"
         id="stop2450" />
    </linearGradient>
  </defs>
  <g
     inkscape:label="Layer 1"
     inkscape:groupmode="layer"
     id="layer1"
     transform="translate(0.09317171,-98.332576)">
    <path
       d="m 22.065503,98.552702 c -12.096997,0 -21.93836788,9.841438 -21.93836788,21.938548 0,12.0971 9.84137088,21.93889 21.93836788,21.93889 12.096855,0 21.938297,-9.84179 21.938297,-21.93889 0,-12.09711 -9.841442,-21.938548 -21.938297,-21.938548 z m 0,44.097928 c -12.2183878,0 -22.15885399,-9.94057 -22.15885399,-22.15938 0,-12.21846 9.94046619,-22.159034 22.15885399,-22.159034 12.218211,0 22.158783,9.940574 22.158783,22.159034 0,12.21881 -9.940572,22.15938 -22.158783,22.15938"
       style="fill:#000000;fill-opacity:1;fill-rule:nonzero;stroke:none;stroke-width:0.0352778"
       id="path16-7-6-5" />
    <rect
       style="fill:#000000;fill-opacity:1;stroke:none;stroke-width:1.92084;stroke-linejoin:round;stroke-dasharray:none;stroke-opacity:1"
       id="rect11965-3-6"
       width="0.21166667"
       height="6.614583"
       x="21.959641"
       y="108.25642"
       inkscape:transform-center-x="-8.1341294e-06"
       inkscape:transform-center-y="-33.742496"
       inkscape:tile-cx="-372.64606"
       inkscape:tile-cy="177.4838"
       inkscape:tile-w="0.80000001"
       inkscape:tile-h="24.999999"
       inkscape:tile-x0="-373.04605"
       inkscape:tile-y0="131.2413" />
    <g
       aria-label="12"
       id="use14656-3-5"
       style="font-weight:bold;font-size:4.23333px;-inkscape-font-specification:'sans-serif Bold';stroke-width:0.198437;stroke-linejoin:round"
       inkscape:label="text14208"
       inkscape:transform-center-x="4.8417816e-06"
       inkscape:transform-center-y="-57.217039">
      <path
         style="color:#000000;-inkscape-font-specification:'Nimbus Sans L Bold';fill:#000000;stroke-linejoin:miter;-inkscape-stroke:none"
         d="m 20.960937,103.80078 a 0.09922842,0.09922842 0 0 0 -0.0957,0.0742 c -0.04246,0.15773 -0.123863,0.2645 -0.255859,0.3418 -0.131996,0.0773 -0.32021,0.12109 -0.566406,0.12109 a 0.09922842,0.09922842 0 0 0 -0.09766,0.0996 v 0.39258 a 0.09922842,0.09922842 0 0 0 0.09766,0.0996 h 0.621093 v 1.9707 A 0.09922842,0.09922842 0 0 0 20.763672,107 h 0.589844 a 0.09922842,0.09922842 0 0 0 0.09961,-0.0996 v -3 a 0.09922842,0.09922842 0 0 0 -0.09961,-0.0996 z M 21.001953,104 h 0.253906 v 2.80273 h -0.392578 v -1.97265 a 0.09922842,0.09922842 0 0 0 -0.09961,-0.0996 h -0.621094 v -0.21484 c 0.217341,-0.0119 0.420332,-0.0403 0.568359,-0.12696 0.146175,-0.0856 0.228296,-0.23126 0.291016,-0.38867 z"
         id="path1585" />
      <path
         style="color:#000000;-inkscape-font-specification:'Nimbus Sans L Bold';fill:#000000;stroke-linejoin:miter;-inkscape-stroke:none"
         d="m 23.0625,103.73828 c -0.330167,0 -0.604391,0.0974 -0.798828,0.29492 -0.194977,0.19498 -0.289063,0.46962 -0.289063,0.80469 0,0.0435 8.12e-4,0.0828 0.0039,0.11719 a 0.09922842,0.09922842 0 0 0 0.09961,0.0898 h 0.566406 a 0.09922842,0.09922842 0 0 0 0.09961,-0.0996 v -0.0996 c 0,-0.15348 0.03245,-0.25646 0.08789,-0.32422 0.05911,-0.0718 0.130088,-0.10546 0.242188,-0.10546 0.107721,0 0.174781,0.0318 0.230468,0.0957 a 0.09922842,0.09922842 0 0 0 0.002,0 c 0.0576,0.0638 0.08984,0.15431 0.08984,0.28906 0,0.14718 -0.03783,0.26011 -0.113281,0.35156 a 0.09922842,0.09922842 0 0 0 -0.002,0 c -0.07182,0.0898 -0.279289,0.26563 -0.607422,0.49805 -0.259957,0.17819 -0.44632,0.35519 -0.556641,0.53906 -0.10808,0.18219 -0.165389,0.4182 -0.179687,0.70703 A 0.09922842,0.09922842 0 0 0 22.037109,107 h 2.03711 a 0.09922842,0.09922842 0 0 0 0.09961,-0.0996 v -0.52734 a 0.09922842,0.09922842 0 0 0 -0.09961,-0.0996 H 23 c 0.013,-0.0141 0.0182,-0.0291 0.0332,-0.043 0.06671,-0.0618 0.218473,-0.1792 0.443359,-0.34375 a 0.09922842,0.09922842 0 0 0 0,-0.002 c 0.26387,-0.1937 0.447075,-0.36105 0.552735,-0.51954 a 0.09922842,0.09922842 0 0 0 0,-0.002 c 0.105503,-0.16136 0.15625,-0.35508 0.15625,-0.57422 0,-0.31049 -0.103444,-0.57383 -0.308594,-0.76367 -0.204991,-0.19204 -0.482691,-0.28711 -0.814453,-0.28711 z m 0,0.19922 c 0.295915,0 0.51549,0.078 0.679687,0.23242 a 0.09922842,0.09922842 0 0 0 0,0.002 c 0.164165,0.15191 0.246094,0.3489 0.246094,0.61718 0,0.18802 -0.04372,0.33985 -0.125,0.46485 -0.08175,0.12262 -0.249635,0.286 -0.503906,0.47265 -0.226508,0.16574 -0.376723,0.28138 -0.458984,0.35742 -0.07974,0.0736 -0.143638,0.15582 -0.185547,0.2461 a 0.09922842,0.09922842 0 0 0 0.08984,0.14062 h 1.169922 v 0.33203 h -1.814453 c 0.02208,-0.20523 0.05638,-0.39274 0.126953,-0.51171 0.08792,-0.14653 0.25358,-0.30977 0.5,-0.47852 a 0.09922842,0.09922842 0 0 0 0.002,0 c 0.332729,-0.23568 0.541721,-0.40453 0.646485,-0.53516 0.106449,-0.12902 0.160156,-0.293 0.160156,-0.47656 0,-0.16749 -0.045,-0.31299 -0.140625,-0.41992 -0.09314,-0.10694 -0.22951,-0.16211 -0.380859,-0.16211 -0.157997,0 -0.299306,0.0601 -0.394532,0.17578 -0.09339,0.11414 -0.134765,0.26841 -0.134765,0.45117 h -0.371094 c -1.6e-5,-0.003 0,-0.005 0,-0.008 0,-0.29883 0.07818,-0.51373 0.230469,-0.66601 0.152827,-0.15526 0.365499,-0.23438 0.658203,-0.23438 z"
         id="path1587" />
    </g>
    <g
       aria-label="3"
       id="use14658-7-2"
       style="font-weight:bold;font-size:4.23333px;-inkscape-font-specification:'sans-serif Bold';stroke-width:0.198437;stroke-linejoin:round"
       inkscape:label="text14208"
       inkscape:transform-center-x="4.8417816e-06"
       inkscape:transform-center-y="-57.217039">
      <path
         style="color:#000000;-inkscape-font-specification:'Nimbus Sans L Bold';fill:#000000;stroke-linejoin:miter;-inkscape-stroke:none"
         d="m 37.173828,118.80273 c -0.378131,0 -0.681212,0.12617 -0.875,0.37696 -3.58e-4,4.4e-4 3.58e-4,0.002 0,0.002 -0.133954,0.16667 -0.195312,0.39487 -0.195312,0.67578 v 0.0508 a 0.09922842,0.09922842 0 0 0 0.09961,0.0977 h 0.548828 a 0.09922842,0.09922842 0 0 0 0.09961,-0.0957 c 0.0026,-0.1344 0.01972,-0.23094 0.03906,-0.2793 0.04416,-0.10935 0.112496,-0.1543 0.271484,-0.1543 0.09852,0 0.154211,0.0255 0.197266,0.0742 a 0.09922842,0.09922842 0 0 0 0.0039,0.004 c 0.04555,0.0474 0.07031,0.11431 0.07031,0.2207 0,0.13094 -0.03301,0.20791 -0.0957,0.26172 -0.0627,0.0538 -0.169261,0.0898 -0.330079,0.0898 h -0.04883 a 0.09922842,0.09922842 0 0 0 -0.09961,0.0996 v 0.39649 h 0.0078 a 0.09922842,0.09922842 0 0 0 -0.0059,0.0195 0.09922842,0.09922842 0 0 0 0.101563,0.0742 l -0.0039,0.006 c 0.13375,0 0.241002,0.0104 0.320313,0.0293 0.08018,0.0223 0.136379,0.0606 0.18164,0.12305 a 0.09922842,0.09922842 0 0 0 0.002,0.002 c 0.04736,0.0624 0.07031,0.13256 0.07031,0.22461 0,0.10772 -0.03106,0.18706 -0.09961,0.25782 -0.06506,0.0672 -0.137697,0.0977 -0.242188,0.0977 -0.123637,0 -0.200379,-0.0299 -0.253906,-0.0859 -0.05353,-0.056 -0.09017,-0.14879 -0.09766,-0.29101 a 0.09922842,0.09922842 0 0 0 -0.09961,-0.0937 h -0.574218 a 0.09922842,0.09922842 0 0 0 -0.09961,0.0996 c 0.0029,0.32026 0.10471,0.5913 0.306641,0.78711 0.201856,0.19574 0.475788,0.29101 0.800781,0.29101 0.337666,0 0.621417,-0.0929 0.832031,-0.28515 a 0.09922842,0.09922842 0 0 0 0,-0.002 c 0.210192,-0.19496 0.316407,-0.46172 0.316407,-0.77539 0,-0.19138 -0.04403,-0.36062 -0.136719,-0.49804 -0.06655,-0.10143 -0.185704,-0.17393 -0.302735,-0.24805 0.09211,-0.0697 0.188818,-0.13852 0.240235,-0.22266 a 0.09922842,0.09922842 0 0 0 0,-0.002 c 0.07087,-0.11919 0.105469,-0.25924 0.105469,-0.41406 0,-0.2712 -0.102072,-0.50214 -0.296875,-0.66602 -0.194158,-0.16576 -0.452128,-0.24805 -0.757813,-0.24805 z m 0,0.19922 c 0.272379,0 0.477907,0.0681 0.630859,0.19922 0.152462,0.12826 0.22461,0.29073 0.22461,0.51563 0,0.12555 -0.02635,0.22803 -0.07617,0.3125 -0.04945,0.0809 -0.136174,0.16426 -0.267578,0.24414 a 0.09922842,0.09922842 0 0 0 0.0059,0.17383 c 0.156669,0.077 0.265129,0.16783 0.330078,0.26757 0.06717,0.0996 0.103516,0.22532 0.103516,0.38672 0,0.27061 -0.08376,0.47304 -0.253906,0.63086 -0.169724,0.15497 -0.395524,0.23438 -0.697266,0.23438 -0.286854,0 -0.500165,-0.0793 -0.662109,-0.23633 -0.136434,-0.1323 -0.185677,-0.32737 -0.208985,-0.54492 h 0.373047 c 0.02066,0.12266 0.04236,0.244 0.117188,0.32226 0.09668,0.10112 0.238196,0.14844 0.398437,0.14844 0.149068,0 0.284461,-0.0546 0.384766,-0.1582 0.102329,-0.10563 0.15625,-0.24514 0.15625,-0.39649 0,-0.12843 -0.03742,-0.24632 -0.111328,-0.34375 -0.07045,-0.0966 -0.171353,-0.16457 -0.289063,-0.19726 a 0.09922842,0.09922842 0 0 0 -0.002,-0.002 c -0.07485,-0.0182 -0.173817,-0.0209 -0.271484,-0.0254 v -0.22461 c 0.161703,-0.008 0.308351,-0.0354 0.408203,-0.12109 0.112312,-0.0964 0.166015,-0.24264 0.166015,-0.41211 0,-0.14073 -0.03943,-0.26524 -0.125,-0.35547 -0.08372,-0.0946 -0.207191,-0.14062 -0.345703,-0.14062 -0.210326,0 -0.385435,0.10005 -0.457031,0.27734 -0.02577,0.0644 -0.02998,0.15931 -0.03711,0.25195 h -0.353516 c 0.0087,-0.21907 0.05043,-0.39465 0.138672,-0.5039 a 0.09922842,0.09922842 0 0 0 0.002,-0.002 c 0.153546,-0.19985 0.381323,-0.30078 0.71875,-0.30078 z"
         id="path1531" />
    </g>
    <g
       aria-label="6"
       id="use14658-8-6-8"
       style="font-weight:bold;font-size:4.23333px;-inkscape-font-specification:'sans-serif Bold';stroke-width:0.198437;stroke-linejoin:round"
       inkscape:label="text14208"
       inkscape:transform-center-x="4.8417816e-06"
       inkscape:transform-center-y="-57.217039">
      <path
         style="color:#000000;-inkscape-font-specification:'Nimbus Sans L Bold';fill:#000000;stroke-linejoin:miter;-inkscape-stroke:none"
         d="m 22.150391,133.93359 c -0.412309,0 -0.74027,0.17527 -0.94336,0.50977 -0.179562,0.29628 -0.263672,0.70596 -0.263672,1.22656 0,0.50211 0.07024,0.87535 0.230469,1.12891 0.09438,0.15528 0.225458,0.27953 0.388672,0.36719 a 0.09922842,0.09922842 0 0 0 0.002,0 c 0.16327,0.0847 0.343718,0.12695 0.537109,0.12695 0.320318,0 0.594416,-0.11428 0.796875,-0.33789 0.202418,-0.22356 0.302735,-0.51864 0.302735,-0.86524 0,-0.30507 -0.08827,-0.56491 -0.265625,-0.76367 -0.17729,-0.20094 -0.419539,-0.30664 -0.701172,-0.30664 -0.186008,0 -0.335561,0.11184 -0.486328,0.21484 0.0072,-0.10342 0.01238,-0.22639 0.02148,-0.27343 0.02454,-0.12027 0.06959,-0.20459 0.132813,-0.26563 0.06501,-0.0601 0.136156,-0.0879 0.232422,-0.0879 0.07912,0 0.130533,0.0159 0.164062,0.041 a 0.09922842,0.09922842 0 0 0 0.002,0.002 c 0.03666,0.0262 0.07533,0.077 0.109375,0.16211 a 0.09922842,0.09922842 0 0 0 0.0918,0.0625 h 0.550781 a 0.09922842,0.09922842 0 0 0 0.09766,-0.084 0.09922842,0.09922842 0 0 0 -0.0039,-0.0312 h 0.0039 c -0.0012,-0.008 -0.0065,-0.0121 -0.0078,-0.0195 a 0.09922842,0.09922842 0 0 0 -0.002,-0.008 c -0.02792,-0.15526 -0.07485,-0.29588 -0.150391,-0.41211 a 0.09922842,0.09922842 0 0 0 -0.002,-0.004 c -0.186813,-0.25419 -0.47915,-0.38282 -0.83789,-0.38282 z m 0,0.19727 c 0.311895,0 0.524529,0.0999 0.673828,0.30078 0.04267,0.066 0.0653,0.15755 0.08984,0.24609 h -0.361328 c -0.0377,-0.0727 -0.07574,-0.14473 -0.134765,-0.1875 -0.07671,-0.0575 -0.174908,-0.082 -0.283203,-0.082 -0.140048,0 -0.269173,0.0493 -0.369141,0.14258 a 0.09922842,0.09922842 0 0 0 -0.002,0.002 c -0.09663,0.0933 -0.158876,0.21931 -0.189453,0.36914 -0.01883,0.0973 -0.03071,0.24746 -0.03906,0.45899 a 0.09922842,0.09922842 0 0 0 0.171875,0.0723 c 0.152427,-0.15992 0.321032,-0.23437 0.527344,-0.23437 0.235849,0 0.410427,0.0763 0.552734,0.23828 a 0.09922842,0.09922842 0 0 0 0.002,0.002 c 0.142351,0.15954 0.212891,0.36268 0.212891,0.63086 0,0.30936 -0.0831,0.5481 -0.25,0.73243 -0.166855,0.18429 -0.375396,0.27343 -0.650391,0.27343 -0.164897,0 -0.310927,-0.0358 -0.445312,-0.10547 v 0.002 c -0.134442,-0.0722 -0.236008,-0.16908 -0.3125,-0.29492 a 0.09922842,0.09922842 0 0 0 -0.002,-0.002 c -0.12583,-0.19842 -0.199219,-0.54166 -0.199219,-1.02539 0,-0.49914 0.08321,-0.87362 0.234375,-1.12305 0.171737,-0.28285 0.414046,-0.41601 0.773438,-0.41601 z m -0.06055,1.35156 c -0.16294,0 -0.310156,0.0684 -0.41211,0.19336 -0.101608,0.12455 -0.15039,0.2863 -0.15039,0.46875 0,0.17753 0.04856,0.3355 0.15039,0.45703 a 0.09922842,0.09922842 0 0 0 0.002,0 c 0.102305,0.11881 0.246904,0.1836 0.40625,0.1836 0.156276,0 0.297475,-0.0696 0.398438,-0.19336 0.103418,-0.12355 0.154297,-0.28157 0.154297,-0.45899 0,-0.1812 -0.04724,-0.3391 -0.146485,-0.45898 -0.097,-0.12283 -0.240707,-0.19141 -0.402343,-0.19141 z m 0,0.19922 c 0.113329,0 0.185199,0.0351 0.248047,0.11523 a 0.09922842,0.09922842 0 0 0 0.002,0.002 c 0.06533,0.0784 0.101562,0.18515 0.101562,0.33398 0,0.14161 -0.0372,0.24633 -0.109375,0.33203 a 0.09922842,0.09922842 0 0 0 -0.002,0.002 c -0.06991,0.0857 -0.141346,0.11914 -0.244141,0.11914 -0.110749,0 -0.187288,-0.0336 -0.255859,-0.11328 -0.06905,-0.0824 -0.105469,-0.18595 -0.105469,-0.32813 0,-0.14828 0.03815,-0.25689 0.107422,-0.3418 0.06892,-0.0845 0.145145,-0.12109 0.257813,-0.12109 z"
         id="path1605" />
    </g>
    <g
       aria-label="9
"
       id="use14658-5-8-7"
       style="font-weight:bold;font-size:4.23333px;-inkscape-font-specification:'sans-serif Bold';stroke-width:0.198437;stroke-linejoin:round"
       inkscape:label="text14208"
       inkscape:transform-center-x="4.8417816e-06"
       inkscape:transform-center-y="-57.217039">
      <path
         style="color:#000000;-inkscape-font-specification:'Nimbus Sans L Bold';fill:#000000;stroke-linejoin:miter;-inkscape-stroke:none"
         d="m 6.9277344,118.81641 c -0.3219553,0 -0.5970045,0.1094 -0.8027344,0.32422 -0.2028493,0.21495 -0.3046875,0.4984 -0.3046875,0.83203 0,0.32639 0.089104,0.60558 0.2714844,0.81836 0.1825581,0.21297 0.4334041,0.32421 0.7246093,0.32421 0.1597693,0 0.3020235,-0.0464 0.4238282,-0.125 -0.019167,0.10996 -0.021763,0.25678 -0.058594,0.32032 -0.068288,0.11779 -0.1502703,0.16406 -0.2871094,0.16406 -0.087384,0 -0.1454089,-0.0207 -0.1914062,-0.0566 -0.047193,-0.0393 -0.068214,-0.0797 -0.072266,-0.14453 A 0.09922842,0.09922842 0 0 0 6.53125,121.18164 H 5.9609375 a 0.09922842,0.09922842 0 0 0 -0.099609,0.0977 0.09922842,0.09922842 0 0 0 0.00391,0.004 h -0.00391 c 0.00609,0.25578 0.1106431,0.47879 0.3027344,0.64649 0.1920494,0.16766 0.4364225,0.25195 0.7148437,0.25195 0.415111,0 0.7439863,-0.17957 0.9414063,-0.51758 0.1785802,-0.30656 0.2617188,-0.72325 0.2617188,-1.25195 0,-0.45669 -0.06778,-0.80975 -0.2207032,-1.06055 -0.2072044,-0.34929 -0.5326157,-0.53515 -0.9335937,-0.53515 z m 0,0.19726 c 0.3431612,0 0.5830732,0.13831 0.7617187,0.43946 a 0.09922842,0.09922842 0 0 0 0.00195,0.002 c 0.1226842,0.2012 0.1914063,0.52076 0.1914063,0.95703 0,0.50759 -0.082227,0.89116 -0.234375,1.15234 -0.1663814,0.28487 -0.4074301,0.41797 -0.7695313,0.41797 -0.23972,0 -0.4287688,-0.0676 -0.5839843,-0.20312 -0.1238415,-0.10812 -0.1607361,-0.2496 -0.1875,-0.40039 h 0.3710937 c 0.023277,0.0698 0.040146,0.14348 0.097656,0.1914 a 0.09922842,0.09922842 0 0 0 0.00195,0.002 c 0.086128,0.0681 0.1951494,0.0996 0.3164062,0.0996 0.1938896,0 0.3619083,-0.0943 0.4589844,-0.26172 0.097076,-0.16746 0.1367188,-0.39852 0.1367188,-0.69336 a 0.09922842,0.09922842 0 0 0 -0.1738282,-0.0645 c -0.086489,0.0973 -0.1517283,0.15868 -0.1679687,0.16993 -0.08954,0.062 -0.1966829,0.0937 -0.3320313,0.0937 -0.2434726,0 -0.4260482,-0.0811 -0.5742187,-0.25391 -0.1483483,-0.17307 -0.2226563,-0.39849 -0.2226563,-0.68945 0,-0.29476 0.083536,-0.51891 0.25,-0.69532 0.1688835,-0.17565 0.3800463,-0.26367 0.6582032,-0.26367 z m -0.015625,0.28125 c -0.1562757,0 -0.2969697,0.072 -0.3925782,0.19727 a 0.09922842,0.09922842 0 0 0 -0.00195,0 c -0.093522,0.12358 -0.1347656,0.28432 -0.1347656,0.47265 0,0.18581 0.041505,0.34551 0.1347656,0.46875 a 0.09922842,0.09922842 0 0 0 0.00195,0.004 c 0.097053,0.12047 0.2410461,0.18555 0.4003907,0.18555 0.1616147,0 0.3062125,-0.0655 0.40625,-0.18555 0.1023918,-0.12222 0.1523437,-0.28044 0.1523437,-0.46289 0,-0.19171 -0.048481,-0.35867 -0.1503906,-0.48438 -0.099958,-0.12661 -0.2485307,-0.19531 -0.4160156,-0.19531 z m 0,0.19922 c 0.1191465,0 0.1943591,0.0363 0.2597656,0.11914 a 0.09922842,0.09922842 0 0 0 0.00195,0.002 c 0.06819,0.0836 0.1054688,0.19901 0.1054688,0.35938 0,0.14827 -0.036984,0.25419 -0.1054688,0.33594 -0.065327,0.0784 -0.1399138,0.11328 -0.2539062,0.11328 -0.1096907,0 -0.181772,-0.033 -0.2441407,-0.10938 v -0.002 c -0.060488,-0.0806 -0.095703,-0.19253 -0.095703,-0.34766 0,-0.15893 0.034885,-0.27315 0.095703,-0.35351 0.064244,-0.0842 0.1335332,-0.11719 0.2363282,-0.11719 z"
         id="path1598" />
    </g>
    <path
       d="m 22.065503,98.552702 c -12.09675,0 -21.93854427,9.841438 -21.93854427,21.938548 0,12.0971 9.84179427,21.93889 21.93854427,21.93889 12.097102,0 21.938896,-9.84179 21.938896,-21.93889 0,-12.09711 -9.841794,-21.938548 -21.938896,-21.938548 z m 0,44.097928 c -12.2184584,0 -22.15903038,-9.94057 -22.15903038,-22.15938 0,-12.21846 9.94057198,-22.159034 22.15903038,-22.159034 12.218458,0 22.159383,9.940574 22.159383,22.159034 0,12.21881 -9.940925,22.15938 -22.159383,22.15938"
       style="fill:#191a1b;fill-opacity:1;fill-rule:nonzero;stroke:none;stroke-width:0.0352778"
       id="path92-1" />
    <g
       id="g1038"
       transform="matrix(0.35277777,0,0,-0.35277777,121.91198,232.51601)">
      <g
         id="g1162"
         inkscape:transform-center-x="8.122641e-06"
         inkscape:transform-center-y="-74.340217"
         inkscape:tile-cx="-372.64606"
         inkscape:tile-cy="177.4838"
         inkscape:tile-w="2.7506836"
         inkscape:tile-h="14.345436"
         inkscape:tile-x0="-374.02141"
         inkscape:tile-y0="95.970865">
        <rect
           style="fill:#000000;fill-opacity:1;stroke:none;stroke-width:2.32256;stroke-linejoin:round;stroke-dasharray:none;stroke-opacity:1"
           id="rect15374-0-3-6-6"
           width="0.60000002"
           height="10.759077"
           x="-284.061"
           y="-378.68472"
           transform="scale(1,-1)" />
        <rect
           style="fill:#000000;fill-opacity:1;stroke:none;stroke-width:2.32256;stroke-linejoin:round;stroke-dasharray:none;stroke-opacity:1"
           id="rect15374-0-3-6-1-3"
           width="0.60000002"
           height="10.759077"
           x="-282.59799"
           y="-378.68472"
           transform="scale(1,-1)" />
      </g>
      <use
         x="0"
         y="0"
         inkscape:tiled-clone-of="#g1162"
         xlink:href="#g1162"
         id="use1166"
         inkscape:transform-center-x="8.122641e-06"
         inkscape:transform-center-y="-74.340217" />
      <use
         x="0"
         y="0"
         inkscape:tiled-clone-of="#g1162"
         xlink:href="#g1162"
         transform="rotate(-30,-283.02949,317.55002)"
         id="use1168"
         inkscape:transform-center-x="-37.170102"
         inkscape:transform-center-y="-64.380522" />
      <use
         x="0"
         y="0"
         inkscape:tiled-clone-of="#g1162"
         xlink:href="#g1162"
         transform="rotate(-60,-283.02949,317.55002)"
         id="use1170"
         inkscape:transform-center-x="-64.380514"
         inkscape:transform-center-y="-37.170118" />
      <use
         x="0"
         y="0"
         inkscape:tiled-clone-of="#g1162"
         xlink:href="#g1162"
         transform="rotate(-90,-283.02949,317.55002)"
         id="use1172"
         inkscape:transform-center-x="-74.34022"
         inkscape:transform-center-y="-1.0744873e-05" />
      <use
         x="0"
         y="0"
         inkscape:tiled-clone-of="#g1162"
         xlink:href="#g1162"
         transform="rotate(-120,-283.02949,317.55002)"
         id="use1174"
         inkscape:transform-center-x="-64.380525"
         inkscape:transform-center-y="37.170099" />
      <use
         x="0"
         y="0"
         inkscape:tiled-clone-of="#g1162"
         xlink:href="#g1162"
         transform="rotate(-150,-283.02949,317.55002)"
         id="use1176"
         inkscape:transform-center-x="-37.170121"
         inkscape:transform-center-y="64.380511" />
      <use
         x="0"
         y="0"
         inkscape:tiled-clone-of="#g1162"
         xlink:href="#g1162"
         transform="rotate(180,-283.02949,317.55002)"
         id="use1178"
         inkscape:transform-center-x="-1.3954944e-05"
         inkscape:transform-center-y="74.340218" />
      <use
         x="0"
         y="0"
         inkscape:tiled-clone-of="#g1162"
         xlink:href="#g1162"
         transform="rotate(150,-283.02949,317.55002)"
         id="use1180"
         inkscape:transform-center-x="37.170096"
         inkscape:transform-center-y="64.380523" />
      <use
         x="0"
         y="0"
         inkscape:tiled-clone-of="#g1162"
         xlink:href="#g1162"
         transform="rotate(120,-283.02949,317.55002)"
         id="use1182"
         inkscape:transform-center-x="64.380508"
         inkscape:transform-center-y="37.170119" />
      <use
         x="0"
         y="0"
         inkscape:tiled-clone-of="#g1162"
         xlink:href="#g1162"
         transform="rotate(90,-283.02949,317.55002)"
         id="use1184"
         inkscape:transform-center-x="74.340214"
         inkscape:transform-center-y="1.1332712e-05" />
      <use
         x="0"
         y="0"
         inkscape:tiled-clone-of="#g1162"
         xlink:href="#g1162"
         transform="rotate(60,-283.02949,317.55002)"
         id="use1186"
         inkscape:transform-center-x="64.380519"
         inkscape:transform-center-y="-37.170099" />
      <use
         x="0"
         y="0"
         inkscape:tiled-clone-of="#g1162"
         xlink:href="#g1162"
         transform="rotate(30,-283.02949,317.55002)"
         id="use1188"
         inkscape:transform-center-x="37.170115"
         inkscape:transform-center-y="-64.380511" />
    </g>
    <use
       x="0"
       y="0"
       inkscape:tiled-clone-of="#rect11965-3-6"
       xlink:href="#rect11965-3-6"
       id="use1539"
       inkscape:transform-center-x="-8.1341294e-06"
       inkscape:transform-center-y="-33.742496" />
    <use
       x="0"
       y="0"
       inkscape:tiled-clone-of="#rect11965-3-6"
       xlink:href="#rect11965-3-6"
       transform="rotate(30.000001,22.065467,120.49141)"
       id="use1541"
       inkscape:transform-center-x="-16.871254"
       inkscape:transform-center-y="-29.221856" />
    <use
       x="0"
       y="0"
       inkscape:tiled-clone-of="#rect11965-3-6"
       xlink:href="#rect11965-3-6"
       transform="rotate(59.999999,22.065467,120.49142)"
       id="use1543"
       inkscape:transform-center-x="-29.221862"
       inkscape:transform-center-y="-16.871244" />
    <use
       x="0"
       y="0"
       inkscape:tiled-clone-of="#rect11965-3-6"
       xlink:href="#rect11965-3-6"
       transform="rotate(90,22.065468,120.49142)"
       id="use1545"
       inkscape:transform-center-x="-33.742496"
       inkscape:transform-center-y="2.9900404e-06" />
    <use
       x="0"
       y="0"
       inkscape:tiled-clone-of="#rect11965-3-6"
       xlink:href="#rect11965-3-6"
       transform="rotate(120,22.065469,120.49142)"
       id="use1547"
       inkscape:transform-center-x="-29.221856"
       inkscape:transform-center-y="16.871249" />
    <use
       x="0"
       y="0"
       inkscape:tiled-clone-of="#rect11965-3-6"
       xlink:href="#rect11965-3-6"
       transform="rotate(150,22.065467,120.49142)"
       id="use1549"
       inkscape:transform-center-x="-16.871245"
       inkscape:transform-center-y="29.221857" />
    <use
       x="0"
       y="0"
       inkscape:tiled-clone-of="#rect11965-3-6"
       xlink:href="#rect11965-3-6"
       transform="rotate(180,22.065467,120.49142)"
       id="use1551"
       inkscape:transform-center-x="2.8351594e-06"
       inkscape:transform-center-y="33.742491" />
    <use
       x="0"
       y="0"
       inkscape:tiled-clone-of="#rect11965-3-6"
       xlink:href="#rect11965-3-6"
       transform="rotate(-150,22.065468,120.49142)"
       id="use1553"
       inkscape:transform-center-x="16.871249"
       inkscape:transform-center-y="29.221851" />
    <use
       x="0"
       y="0"
       inkscape:tiled-clone-of="#rect11965-3-6"
       xlink:href="#rect11965-3-6"
       transform="rotate(-120,22.065466,120.49142)"
       id="use1555"
       inkscape:transform-center-x="29.221857"
       inkscape:transform-center-y="16.87124" />
    <use
       x="0"
       y="0"
       inkscape:tiled-clone-of="#rect11965-3-6"
       xlink:href="#rect11965-3-6"
       transform="rotate(-90,22.065466,120.49142)"
       id="use1557"
       inkscape:transform-center-x="33.742491"
       inkscape:transform-center-y="-7.9792485e-06" />
    <use
       x="0"
       y="0"
       inkscape:tiled-clone-of="#rect11965-3-6"
       xlink:href="#rect11965-3-6"
       transform="rotate(-59.999999,22.065468,120.49142)"
       id="use1559"
       inkscape:transform-center-x="29.221851"
       inkscape:transform-center-y="-16.871254" />
    <use
       x="0"
       y="0"
       inkscape:tiled-clone-of="#rect11965-3-6"
       xlink:href="#rect11965-3-6"
       transform="rotate(-30.000001,22.065469,120.49142)"
       id="use1561"
       inkscape:transform-center-x="16.871239"
       inkscape:transform-center-y="-29.221862" />
  </g>
</svg>
