<?xml version="1.0" encoding="UTF-8" standalone="no"?>
<!-- Created with Inkscape (http://www.inkscape.org/) -->

<svg
   width="44.317707mm"
   height="44.317703mm"
   viewBox="0 0 44.317707 44.317703"
   version="1.1"
   id="svg6511"
   inkscape:version="1.2.1 (9c6d41e410, 2022-07-14)"
   sodipodi:docname="second-hand-6-symbolic.svg"
   xmlns:inkscape="http://www.inkscape.org/namespaces/inkscape"
   xmlns:sodipodi="http://sodipodi.sourceforge.net/DTD/sodipodi-0.dtd"
   xmlns:xlink="http://www.w3.org/1999/xlink"
   xmlns="http://www.w3.org/2000/svg"
   xmlns:svg="http://www.w3.org/2000/svg">
  <sodipodi:namedview
     id="namedview6513"
     pagecolor="#ffffff"
     bordercolor="#000000"
     borderopacity="0.25"
     inkscape:showpageshadow="2"
     inkscape:pageopacity="0.0"
     inkscape:pagecheckerboard="0"
     inkscape:deskcolor="#d1d1d1"
     inkscape:document-units="mm"
     showgrid="false"
     inkscape:zoom="4"
     inkscape:cx="53"
     inkscape:cy="131.75"
     inkscape:window-width="2560"
     inkscape:window-height="1363"
     inkscape:window-x="0"
     inkscape:window-y="40"
     inkscape:window-maximized="1"
     inkscape:current-layer="layer1"
     showguides="true" />
  <defs
     id="defs6508">
    <clipPath
       clipPathUnits="userSpaceOnUse"
       id="clipPath2426">
      <path
         d="m 8060.68,5204.7 c -93.72,0 -175.9,82.2 -175.9,175.9 0,93.7 82.18,175.9 175.9,175.9 93.72,0 175.91,-82.2 175.91,-175.9 0,-93.7 -82.19,-175.9 -175.91,-175.9 z"
         id="path2424" />
    </clipPath>
    <linearGradient
       x1="0"
       y1="0"
       x2="1"
       y2="0"
       gradientUnits="userSpaceOnUse"
       gradientTransform="matrix(174.538,-302.309,-302.309,-174.538,7973.41,5531.8)"
       spreadMethod="pad"
       id="linearGradient2434">
      <stop
         style="stop-opacity:1;stop-color:#ededed"
         offset="0"
         id="stop2428" />
      <stop
         style="stop-opacity:1;stop-color:#ededed"
         offset="0.48211215"
         id="stop2430" />
      <stop
         style="stop-opacity:1;stop-color:#d0d0d0"
         offset="1"
         id="stop2432" />
    </linearGradient>
    <clipPath
       clipPathUnits="userSpaceOnUse"
       id="clipPath2444">
      <path
         d="m 8060.68,5224.3 c -83.29,0 -156.36,73 -156.36,156.3 0,83.3 73.07,156.4 156.36,156.4 83.3,0 156.37,-73.1 156.37,-156.4 0,-83.3 -73.07,-156.3 -156.37,-156.3 z"
         id="path2442" />
    </clipPath>
    <linearGradient
       x1="0"
       y1="0"
       x2="1"
       y2="0"
       gradientUnits="userSpaceOnUse"
       gradientTransform="matrix(155.141,-268.712,-268.712,-155.141,7983.11,5515)"
       spreadMethod="pad"
       id="linearGradient2452">
      <stop
         style="stop-opacity:1;stop-color:#d0d0d0"
         offset="0"
         id="stop2446" />
      <stop
         style="stop-opacity:1;stop-color:#ededed"
         offset="0.51788785"
         id="stop2448" />
      <stop
         style="stop-opacity:1;stop-color:#ededed"
         offset="1"
         id="stop2450" />
    </linearGradient>
  </defs>
  <g
     inkscape:label="Layer 1"
     inkscape:groupmode="layer"
     id="layer1"
     transform="translate(0.09317171,-98.332576)">
    <rect
       style="fill:#000000;fill-opacity:1;stroke:none;stroke-width:1.92084;stroke-linejoin:round;stroke-dasharray:none;stroke-opacity:1"
       id="rect11965-3-6"
       width="0.21166667"
       height="6.614583"
       x="21.959641"
       y="108.25642"
       inkscape:transform-center-x="-8.1341294e-06"
       inkscape:transform-center-y="-33.742496"
       inkscape:tile-cx="-372.64606"
       inkscape:tile-cy="177.4838"
       inkscape:tile-w="0.80000001"
       inkscape:tile-h="24.999999"
       inkscape:tile-x0="-373.04605"
       inkscape:tile-y0="131.2413" />
    <use
       x="0"
       y="0"
       inkscape:tiled-clone-of="#rect11965-3-6"
       xlink:href="#rect11965-3-6"
       id="use1539"
       inkscape:transform-center-x="-8.1341294e-06"
       inkscape:transform-center-y="-33.742496" />
    <path
       d="m 22.080545,126.22355 c 0.242333,-7e-4 0.440827,-0.19753 0.440841,-0.44116 l -7.05e-4,-2.64566 c -3.35e-4,-0.16139 -0.09082,-0.29633 -0.220246,-0.37301 l -0.0011,-1.8998 c 0.165693,-0.0985 0.257613,-0.29229 0.205321,-0.48719 -0.03147,-0.11721 -0.10733,-0.21081 -0.205426,-0.2674 L 22.29273,99.3252 c 2.65e-4,-0.122033 -0.09859,-0.220455 -0.220193,-0.220342 -0.02011,-4.6e-5 -0.03949,0.0028 -0.05721,0.0073 -0.09438,0.02533 -0.163767,0.111146 -0.163474,0.212972 l 0.0066,20.79285 c -0.16535,0.0984 -0.257954,0.29238 -0.205666,0.48728 0.03154,0.11755 0.108194,0.21131 0.206107,0.26722 l 3.53e-4,1.88604 c -0.130983,0.0768 -0.22085,0.21558 -0.220627,0.37842 l 7.05e-4,2.64566 c -3e-6,0.24363 0.197192,0.44092 0.440821,0.44094"
       style="fill:#ec303b;fill-opacity:1;fill-rule:nonzero;stroke:none;stroke-width:0.0352778"
       id="path150"
       inkscape:transform-center-x="-0.027428276"
       inkscape:transform-center-y="-29.586474" />
  </g>
</svg>
