<?xml version="1.0" encoding="UTF-8" standalone="no"?>
<svg
   xmlns:dc="http://purl.org/dc/elements/1.1/"
   xmlns:cc="http://creativecommons.org/ns#"
   xmlns:rdf="http://www.w3.org/1999/02/22-rdf-syntax-ns#"
   xmlns:svg="http://www.w3.org/2000/svg"
   xmlns="http://www.w3.org/2000/svg"
   xmlns:sodipodi="http://sodipodi.sourceforge.net/DTD/sodipodi-0.dtd"
   xmlns:inkscape="http://www.inkscape.org/namespaces/inkscape"
   fill="#FFFFFF"
   height="36"
   viewBox="0 0 24 24"
   width="36"
   id="svg2"
   version="1.1"
   inkscape:version="0.91 r13725"
   sodipodi:docname="plug.svg">
  <metadata
     id="metadata12">
    <rdf:RDF>
      <cc:Work
         rdf:about="">
        <dc:format>image/svg+xml</dc:format>
        <dc:type
           rdf:resource="http://purl.org/dc/dcmitype/StillImage" />
      </cc:Work>
    </rdf:RDF>
  </metadata>
  <defs
     id="defs10">
    <filter
       inkscape:collect="always"
       style="color-interpolation-filters:sRGB"
       id="filter4677"
       x="-0.15"
       width="1.3"
       y="-0.1"
       height="1.2">
      <feGaussianBlur
         inkscape:collect="always"
         stdDeviation="0.75"
         id="feGaussianBlur4679" />
    </filter>
  </defs>
  <sodipodi:namedview
     pagecolor="#ffffff"
     bordercolor="#666666"
     borderopacity="1"
     objecttolerance="10"
     gridtolerance="10"
     guidetolerance="10"
     inkscape:pageopacity="0"
     inkscape:pageshadow="2"
     inkscape:window-width="1067"
     inkscape:window-height="735"
     id="namedview8"
     showgrid="false"
     inkscape:zoom="9.2709556"
     inkscape:cx="20.341976"
     inkscape:cy="11.975479"
     inkscape:window-x="0"
     inkscape:window-y="29"
     inkscape:window-maximized="0"
     inkscape:current-layer="svg2" />
  <path
     inkscape:connector-curvature="0"
     d="M 16.01,7 16,3 14,3 14,7 10,7 10,3 8,3 8,7 7.99,7 C 7,6.99 6,7.99 6,8.99 l 0,5.49 3.5,3.52 0,3 5,0 0,-3 3.5,-3.51 0,-5.5 c 0,-1 -1,-2 -1.99,-1.99 z"
     id="path4-3"
     style="fill:#000000;fill-opacity:1;opacity:0.70031546;filter:url(#filter4677)" />
  <path
     d="M16.01 7L16 3h-2v4h-4V3H8v4h-.01C7 6.99 6 7.99 6 8.99v5.49L9.5 18v3h5v-3l3.5-3.51v-5.5c0-1-1-2-1.99-1.99z"
     id="path4" />
  <path
     d="M0 0h24v24H0z"
     fill="none"
     id="path6" />
</svg>
