<?xml version="1.0" encoding="UTF-8" standalone="no"?>
<!-- Created with Inkscape (http://www.inkscape.org/) -->

<svg
   width="44.317707mm"
   height="44.317703mm"
   viewBox="0 0 44.317707 44.317703"
   version="1.1"
   id="svg6511"
   inkscape:version="1.4.2 (ebf0e940d0, 2025-05-08)"
   sodipodi:docname="bg.svg"
   xmlns:inkscape="http://www.inkscape.org/namespaces/inkscape"
   xmlns:sodipodi="http://sodipodi.sourceforge.net/DTD/sodipodi-0.dtd"
   xmlns="http://www.w3.org/2000/svg"
   xmlns:svg="http://www.w3.org/2000/svg">
  <sodipodi:namedview
     id="namedview6513"
     pagecolor="#ffffff"
     bordercolor="#000000"
     borderopacity="0.25"
     inkscape:showpageshadow="2"
     inkscape:pageopacity="0.0"
     inkscape:pagecheckerboard="0"
     inkscape:deskcolor="#d1d1d1"
     inkscape:document-units="mm"
     showgrid="false"
     inkscape:zoom="4"
     inkscape:cx="90.375"
     inkscape:cy="89"
     inkscape:window-width="1920"
     inkscape:window-height="1007"
     inkscape:window-x="0"
     inkscape:window-y="0"
     inkscape:window-maximized="1"
     inkscape:current-layer="layer1"
     showguides="true" />
  <defs
     id="defs6508">
    <clipPath
       clipPathUnits="userSpaceOnUse"
       id="clipPath2426">
      <path
         d="m 8060.68,5204.7 c -93.72,0 -175.9,82.2 -175.9,175.9 0,93.7 82.18,175.9 175.9,175.9 93.72,0 175.91,-82.2 175.91,-175.9 0,-93.7 -82.19,-175.9 -175.91,-175.9 z"
         id="path2424" />
    </clipPath>
    <linearGradient
       x1="0"
       y1="0"
       x2="1"
       y2="0"
       gradientUnits="userSpaceOnUse"
       gradientTransform="matrix(174.538,-302.309,-302.309,-174.538,7973.41,5531.8)"
       spreadMethod="pad"
       id="linearGradient2434">
      <stop
         style="stop-opacity:1;stop-color:#ededed"
         offset="0"
         id="stop2428" />
      <stop
         style="stop-opacity:1;stop-color:#ededed"
         offset="0.48211215"
         id="stop2430" />
      <stop
         style="stop-opacity:1;stop-color:#d0d0d0"
         offset="1"
         id="stop2432" />
    </linearGradient>
    <clipPath
       clipPathUnits="userSpaceOnUse"
       id="clipPath2444">
      <path
         d="m 8060.68,5224.3 c -83.29,0 -156.36,73 -156.36,156.3 0,83.3 73.07,156.4 156.36,156.4 83.3,0 156.37,-73.1 156.37,-156.4 0,-83.3 -73.07,-156.3 -156.37,-156.3 z"
         id="path2442" />
    </clipPath>
    <linearGradient
       x1="0"
       y1="0"
       x2="1"
       y2="0"
       gradientUnits="userSpaceOnUse"
       gradientTransform="matrix(155.141,-268.712,-268.712,-155.141,7983.11,5515)"
       spreadMethod="pad"
       id="linearGradient2452">
      <stop
         style="stop-opacity:1;stop-color:#d0d0d0"
         offset="0"
         id="stop2446" />
      <stop
         style="stop-opacity:1;stop-color:#ededed"
         offset="0.51788785"
         id="stop2448" />
      <stop
         style="stop-opacity:1;stop-color:#ededed"
         offset="1"
         id="stop2450" />
    </linearGradient>
  </defs>
  <g
     inkscape:label="Layer 1"
     inkscape:groupmode="layer"
     id="layer1"
     transform="translate(0.09317171,-98.332576)">
    <path
       d="m 22.065788,98.553058 c -12.0969972,0 -21.93836807,9.841442 -21.93836807,21.938542 0,12.09675 9.84137087,21.93819 21.93836807,21.93819 12.096714,0 21.938156,-9.84144 21.938156,-21.93819 0,-12.0971 -9.841442,-21.938542 -21.938156,-21.938542 z m 0,44.097222 c -12.2183882,0 -22.15885418,-9.94022 -22.15885418,-22.15868 0,-12.21846 9.94046598,-22.159028 22.15885418,-22.159028 12.218422,0 22.158642,9.940568 22.158642,22.159028 0,12.21846 -9.94022,22.15868 -22.158642,22.15868"
       style="fill:#191a1b;fill-opacity:1;fill-rule:nonzero;stroke:none;stroke-width:0.0352778"
       id="path152" />
    <path
       d="m 10.952159,139.52643 0.190888,0.11007 0.879863,-1.52365 c -0.06396,-0.0367 -0.127741,-0.0727 -0.191135,-0.11007 z m -1.929236,-1.26577 0.178435,0.12947 1.035474,-1.42522 c -0.05966,-0.0427 -0.12058,-0.084 -0.179705,-0.12771 z m 12.933151,2.51284 v 1.76671 h 0.220486 v -1.76671 c -0.03679,3.5e-4 -0.07317,0.003 -0.110243,0.003 -0.03694,0 -0.07331,-0.002 -0.110243,-0.003 z m -6.803496,0.64805 0.209868,0.0681 0.542395,-1.66899 c -0.07027,-0.0226 -0.13917,-0.0476 -0.208915,-0.0706 z m 4.504231,0.98108 0.219111,0.0229 0.183832,-1.74872 c -0.07317,-0.007 -0.145768,-0.0166 -0.218969,-0.0247 z m -2.278168,-0.37254 0.215688,0.0459 0.364737,-1.71626 c -0.07204,-0.0148 -0.142875,-0.0342 -0.214806,-0.0494 z m -4.37582,-1.44603 0.201612,0.0896 0.714658,-1.60514 c -0.06752,-0.0296 -0.134091,-0.0607 -0.201048,-0.091 z m -9.512159,-11.94224 -1.605033,0.71473 0.089606,0.20108 1.6062324,-0.71508 c -0.030445,-0.067 -0.061207,-0.13335 -0.090805,-0.20073 z m -0.7522985,-1.98578 -1.66878,0.54257 0.068192,0.2092 1.6711436,-0.54293 c -0.023001,-0.0699 -0.048225,-0.13829 -0.070556,-0.20884 z m 4.4981987,10.14377 0.1641475,0.14746 1.1784895,-1.30881 c -0.054998,-0.0487 -0.11176,-0.0956 -0.1660525,-0.14534 z m -5.0378429,-12.1987 -1.71538187,0.36442 0.045896,0.2159 1.71912127,-0.36548 c -0.015734,-0.072 -0.03489,-0.14252 -0.049635,-0.21484 z m 2.2478647,5.93654 -1.5238236,0.87983 0.110243,0.19085 1.5235414,-0.87947 c -0.037042,-0.0631 -0.073448,-0.12736 -0.1099608,-0.19121 z m 1.1666713,4.62174 0.1474259,0.16404 1.3062655,-1.17616 c -0.049636,-0.0543 -0.096344,-0.11112 -0.1452739,-0.1658 z m -0.018768,-2.83598 -1.4246225,1.03505 0.1293989,0.17851 1.4231055,-1.03364 c -0.043533,-0.0593 -0.085019,-0.11995 -0.1278819,-0.17992 z m 18.4826627,8.35307 0.184538,1.75507 0.21911,-0.0226 -0.18482,-1.75719 c -0.07288,0.008 -0.145662,0.0173 -0.218828,0.0247 z m 15.500138,-9.95045 1.533525,0.88512 0.11042,-0.19085 -1.533878,-0.88547 c -0.03669,0.0639 -0.07302,0.1277 -0.110067,0.1912 z m 1.746956,-3.86397 1.683808,0.54716 0.06809,-0.20955 -1.681692,-0.5461 c -0.02223,0.0699 -0.04727,0.13864 -0.0702,0.20849 z m -0.772231,1.97802 1.617839,0.72038 0.08961,-0.20109 -1.616781,-0.72037 c -0.02963,0.0677 -0.06068,0.13406 -0.09066,0.20108 z m 1.795639,-8.45961 c 3.53e-4,0.0374 0.0028,0.0737 0.0028,0.11113 0,0.0367 -0.0025,0.0727 -0.0028,0.10936 h 1.774119 v -0.22049 z m -0.121708,2.33927 1.763888,0.18556 0.02293,-0.21942 -1.762125,-0.18521 c -0.0071,0.0734 -0.01658,0.14605 -0.02469,0.21907 z m -0.341842,2.0955 1.732492,0.3683 0.04586,-0.2159 -1.728964,-0.36759 c -0.01482,0.0723 -0.03387,0.14323 -0.04939,0.21519 z m -7.985125,12.1472 1.040695,1.43263 0.178505,-0.12947 -1.039283,-1.43087 c -0.05927,0.0438 -0.120297,0.0847 -0.179917,0.12771 z m 4.512733,-4.46158 1.431925,1.04034 0.129823,-0.1785 -1.434042,-1.04176 c -0.04304,0.0596 -0.08431,0.12065 -0.127706,0.17992 z m -10.180743,7.31873 0.544971,1.6771 0.209903,-0.0684 -0.545818,-1.67957 c -0.06999,0.0233 -0.138888,0.0483 -0.209056,0.0709 z m 3.881544,-1.70851 0.884766,1.53247 0.190853,-0.11042 -0.884414,-1.53176 c -0.0635,0.037 -0.127353,0.0734 -0.191205,0.10971 z m -1.895475,0.95603 0.718255,1.61325 0.201436,-0.0896 -0.718961,-1.61466 c -0.06703,0.0303 -0.13335,0.0614 -0.20073,0.091 z m 6.850591,-4.92231 1.314097,1.18322 0.147461,-0.16369 -1.316566,-1.18568 c -0.04868,0.055 -0.0956,0.11218 -0.144992,0.16615 z m -1.512005,1.4912 1.18498,1.31621 0.163689,-0.14746 -1.182864,-1.31375 c -0.05398,0.0494 -0.111125,0.0963 -0.165805,0.145 z m -33.6741205,-13.13427 -1.74776685,0.18379 0.0230364,0.21908 1.74928385,-0.18415 c -0.00787,-0.073 -0.017251,-0.1457 -0.024553,-0.21872 z m 24.2953815,17.85725 0.366431,1.72403 0.215653,-0.0462 -0.367242,-1.7272 c -0.07193,0.0152 -0.142628,0.0346 -0.214842,0.0494 z m 5.937391,-37.48581 c 0.06385,0.0363 0.127706,0.0727 0.191206,0.10972 l 0.887589,-1.53705 -0.190853,-0.11042 z m 1.785409,1.14794 c 0.05962,0.043 0.12065,0.0843 0.179916,0.12806 l 1.043517,-1.43651 -0.178506,-0.12947 z m -3.680531,-2.10396 c 0.06738,0.0296 0.134056,0.0607 0.201084,0.091 l 0.72143,-1.62066 -0.201436,-0.0896 z m -1.98501,-0.75248 c 0.07027,0.0226 0.139206,0.0476 0.209197,0.0709 l 0.547794,-1.686276 -0.209903,-0.06844 z m 7.322185,4.18324 c 0.05503,0.0487 0.111478,0.0956 0.166158,0.14499 l 1.186745,-1.31797 -0.164042,-0.14747 z M 1.7815949,120.4916 c 0,-0.0374 0.00261,-0.0737 0.00275,-0.11113 H 0.02405604 v 0.22049 H 1.7843465 c -1.411e-4,-0.0367 -0.00275,-0.0727 -0.00275,-0.10936 z M 26.18087,100.62492 c 0.07236,0.0148 0.143051,0.0342 0.214983,0.0497 l 0.368617,-1.734254 -0.215653,-0.04551 z m 12.352549,5.19042 -0.147461,-0.16404 -1.318331,1.1871 c 0.04939,0.0543 0.09596,0.11112 0.144992,0.16615 z m 3.399719,10.5657 1.730728,-0.36795 -0.04586,-0.21555 -1.734256,0.36865 c 0.01552,0.072 0.03457,0.14253 0.04939,0.21485 z m 0.3175,2.09902 1.762125,-0.18521 -0.02293,-0.21907 -1.763888,0.18556 c 0.0078,0.073 0.01729,0.14569 0.02469,0.21872 z m -0.856544,-4.15148 1.683455,-0.54716 -0.06809,-0.20991 -1.685925,0.54787 c 0.02293,0.0698 0.04798,0.13864 0.07056,0.2092 z m -0.752123,-1.98614 1.619603,-0.72108 -0.0896,-0.20179 -1.621014,0.72178 c 0.03034,0.067 0.06138,0.1337 0.09102,0.20109 z m -2.103261,-3.68089 1.437923,-1.04457 -0.12947,-0.17851 -1.436158,1.04352 c 0.04339,0.0589 0.08502,0.11994 0.127705,0.17956 z m 1.147586,1.78576 1.538112,-0.88794 -0.110067,-0.19085 -1.537758,0.88759 c 0.03704,0.0635 0.07338,0.12735 0.109713,0.1912 z M 24.081701,100.30707 c 0.07345,0.007 0.145944,0.0169 0.218969,0.0247 l 0.185632,-1.764242 -0.21911,-0.02328 z m -13.845293,3.71122 -1.0378016,-1.42804 -0.178435,0.12947 1.0364256,1.42663 c 0.05923,-0.0437 0.120156,-0.085 0.179811,-0.12806 z m -5.6788754,6.23429 -1.525905,-0.88089 -0.110243,0.19086 1.526293,0.88124 c 0.036548,-0.0635 0.072637,-0.12771 0.109855,-0.19121 z m -0.9755364,1.88666 -1.6081727,-0.71614 -0.08957,0.20179 1.6070791,0.71508 c 0.029633,-0.0674 0.060501,-0.13371 0.090664,-0.20073 z m 2.0293189,-6.31825 1.3109221,1.18039 c 0.04893,-0.055 0.095779,-0.11148 0.1452387,-0.1658 l -1.3086997,-1.17864 z m 0.1120422,2.65782 -1.4254692,-1.03575 -0.1295047,0.1785 1.427233,1.03682 c 0.042827,-0.0596 0.084173,-0.1203 0.1277409,-0.17957 z m -3.8170555,9.78182 -1.75023632,-0.18415 -0.0230011,0.21908 1.74871932,0.18379 c 0.00716,-0.073 0.016545,-0.14569 0.024518,-0.21872 z m 0.9034639,-4.14407 -1.6733661,-0.54363 -0.068192,0.2099 1.6707202,0.54257 c 0.022331,-0.0699 0.047554,-0.13899 0.070838,-0.20884 z m -0.5610225,2.04822 -1.72017967,-0.36583 -0.045896,0.21555 1.71647547,0.36513 c 0.015028,-0.0723 0.034184,-0.14288 0.0496,-0.21485 z m 11.6693948,-14.24975 -0.716456,-1.60902 -0.201613,0.0896 0.716986,1.61008 c 0.06699,-0.0303 0.133561,-0.061 0.201083,-0.0907 z m 4.038459,-1.29117 -0.365725,-1.720846 -0.215653,0.04586 0.366536,1.724736 c 0.07193,-0.0159 0.142628,-0.0349 0.214842,-0.0497 z m 2.098887,-0.31714 -0.184221,-1.753309 -0.21911,0.02293 0.184361,1.755069 c 0.07306,-0.008 0.145521,-0.0173 0.21897,-0.0247 z m -4.15216,0.85619 -0.54363,-1.672874 -0.209868,0.06809 0.544442,1.675694 c 0.06989,-0.0233 0.138783,-0.0483 0.209056,-0.0709 z m 6.05275,-0.95321 c 0.03694,-3.5e-4 0.07331,-0.003 0.110243,-0.003 0.03708,0 0.07345,0.002 0.110243,0.003 v -1.766003 h -0.220486 z m -14.721452,3.97052 1.1786658,1.30951 c 0.054434,-0.0494 0.1113366,-0.0963 0.1662994,-0.14535 l -1.1809589,-1.31162 z m 4.787583,-1.30951 -0.881945,-1.52788 -0.190853,0.11042 0.881804,1.52752 c 0.06339,-0.0374 0.127352,-0.0734 0.190994,-0.11006"
       style="fill:#191a1b;fill-opacity:1;fill-rule:nonzero;stroke:none;stroke-width:0.0352778"
       id="path154" />
    <path
       d="m 2.8125173,131.22663 0.3307292,0.57291 3.0505752,-1.76142 c -0.1137003,-0.18874 -0.2225675,-0.3803 -0.3294944,-0.57327 z m 18.9230707,7.77733 v 3.53625 h 0.661458 v -3.53625 c -0.110384,0.002 -0.219639,0.008 -0.330729,0.008 -0.110772,0 -0.220204,-0.007 -0.330729,-0.008 z m -10.974423,0.41205 0.572876,0.3309 1.761807,-3.05188 c -0.192934,-0.10653 -0.384739,-0.2159 -0.573405,-0.32949 z m 29.816954,-19.25602 c 0.0021,0.11077 0.0085,0.22013 0.0085,0.33161 0,0.11042 -0.0063,0.21978 -0.0085,0.32985 h 3.543652 v -0.66146 z m -9.538758,16.53363 1.767063,3.06 0.572911,-0.33056 -1.766358,-3.05928 c -0.188383,0.11359 -0.380294,0.2226 -0.573616,0.32984 z m 6.900685,-6.65832 3.0607,1.76671 0.330553,-0.57256 -3.061758,-1.76742 c -0.106892,0.19262 -0.2159,0.38418 -0.329495,0.57327 z m -6.898922,-25.74466 c 0.19297,0.10724 0.384881,0.2159 0.573617,0.32984 l 1.769181,-3.06458 -0.572912,-0.33055 z m -9.305536,-2.31176 c 0.110525,-0.002 0.219957,-0.008 0.330729,-0.008 0.11109,0 0.220345,0.006 0.330729,0.008 v -3.535183 h -0.661458 z m 19.599239,7.77135 -0.330906,-0.57292 -3.064933,1.76954 c 0.113947,0.18873 0.222956,0.38029 0.329847,0.57361 z m -38.5236855,0.004 3.0539972,1.76318 c 0.107068,-0.19297 0.2159352,-0.38488 0.3297766,-0.57362 l -3.0530446,-1.76245 z m 10.2841425,-5.46559 -1.76403,-3.05541 -0.572841,0.33055 1.76336,3.05471 c 0.188772,-0.11395 0.380471,-0.22261 0.573511,-0.32985 z M 3.5454837,120.4916 c 0,-0.11148 0.00649,-0.22084 0.00854,-0.33161 H 0.02405604 v 0.66146 H 3.5539151 c -0.00194,-0.11007 -0.00843,-0.21943 -0.00843,-0.32985"
       style="fill:#191a1b;fill-opacity:1;fill-rule:nonzero;stroke:none;stroke-width:0.0352778"
       id="path156" />
    <path
       d="m 7.9367556,119.74159 c 0,-0.91052 -0.2683228,-1.41887 -0.9034639,-1.41887 -0.5363281,0 -0.8396111,0.40922 -0.8396111,1.11513 0,0.62089 0.2892425,0.98778 0.8043333,0.98778 0.3880556,0 0.6846358,-0.16228 0.9315803,-0.43004 0,-0.0776 0.00716,-0.16227 0.00716,-0.254 z m -1.9408422,2.6603 c 0.9738783,-0.39511 1.6372416,-0.93169 1.8560697,-1.88454 -0.2541059,0.15522 -0.5716059,0.26106 -0.9245247,0.26106 -0.8539692,0 -1.4394745,-0.52917 -1.4394745,-1.3335 0,-0.86784 0.6209242,-1.47497 1.5453078,-1.47497 1.0798527,0 1.6091605,0.65652 1.6091605,1.77165 0,1.57339 -1.0657769,2.51213 -2.5264885,2.92841 l -0.1200503,-0.26811"
       style="fill:#191a1b;fill-opacity:1;fill-rule:nonzero;stroke:none;stroke-width:0.0352778"
       id="path158" />
    <path
       d="m 21.242122,135.86177 c 0,0.91052 0.268182,1.41888 0.903288,1.41888 0.536363,0 0.839787,-0.40958 0.839787,-1.11549 0,-0.62053 -0.289384,-0.98778 -0.80451,-0.98778 -0.395075,0 -0.691479,0.16228 -0.931545,0.43039 -0.007,0.085 -0.007,0.16969 -0.007,0.254 z m 1.940842,-2.66029 c -0.981039,0.40216 -1.637277,0.93168 -1.863125,1.89124 0.261126,-0.16228 0.578626,-0.26811 0.931545,-0.26811 0.853969,0 1.439792,0.52916 1.439792,1.33385 0,0.86783 -0.621242,1.47496 -1.545766,1.47496 -1.079677,0 -1.608985,-0.65652 -1.608985,-1.77165 0,-1.57374 1.065777,-2.51213 2.52663,-2.92876 l 0.119909,0.26847"
       style="fill:#191a1b;fill-opacity:1;fill-rule:nonzero;stroke:none;stroke-width:0.0352778"
       id="path160" />
    <path
       d="m 36.605135,120.02699 c 0.747889,-0.0208 1.185334,-0.33161 1.185334,-0.94544 0,-0.48684 -0.261056,-0.74789 -0.705909,-0.74789 -0.472722,0 -0.712258,0.29633 -0.712258,0.64205 0,0.11289 0.02787,0.20461 0.07726,0.28928 -0.119944,0.0917 -0.246944,0.13406 -0.381,0.13406 -0.218722,0 -0.359833,-0.1905 -0.359833,-0.48684 0,-0.508 0.578556,-0.93168 1.389945,-0.93168 0.832908,0 1.390649,0.45155 1.390649,1.10102 0,0.39511 -0.162277,0.83996 -0.974019,1.10102 0.762,0.18309 1.030464,0.61383 1.030464,1.16451 0,0.73378 -0.585611,1.29117 -1.517297,1.29117 -0.938742,0 -1.503539,-0.39511 -1.503539,-1.03011 0,-0.28257 0.212019,-0.41663 0.437444,-0.41663 0.127353,0 0.261409,0.0494 0.360186,0.12735 -0.04233,0.11289 -0.0635,0.22543 -0.0635,0.32421 0,0.38135 0.296334,0.6424 0.804687,0.6424 0.522111,0 0.818444,-0.36689 0.818444,-0.93839 0,-0.59301 -0.423333,-0.98813 -1.277056,-0.98813 v -0.33196"
       style="fill:#191a1b;fill-opacity:1;fill-rule:nonzero;stroke:none;stroke-width:0.0352778"
       id="path162" />
    <path
       d="m 19.018387,107.32911 c 0.416314,-0.0423 0.769091,-0.11289 1.016177,-0.21872 v -3.36621 h -1.002136 v -0.32455 c 0.578661,-0.0564 1.037414,-0.21872 1.411252,-0.41628 l 0.254106,0.0988 v 4.00826 c 0.218828,0.11289 0.762353,0.19756 0.938742,0.21872 l -0.02826,0.26106 h -2.61112 l 0.02124,-0.26106"
       style="fill:#191a1b;fill-opacity:1;fill-rule:nonzero;stroke:none;stroke-width:0.0352778"
       id="path164" />
    <path
       d="m 22.087272,107.15978 c 1.700636,-1.46085 2.216009,-2.17347 2.216009,-2.94993 0,-0.57856 -0.261126,-0.86783 -0.769197,-0.86783 -0.458611,0 -0.747995,0.3175 -0.747995,0.6985 0,0.14816 0.04918,0.29633 0.155011,0.43779 -0.09165,0.0984 -0.239783,0.16228 -0.387915,0.16228 -0.233009,0 -0.458893,-0.14817 -0.458893,-0.55739 0,-0.56479 0.642161,-1.09396 1.439792,-1.09396 0.910202,0 1.474752,0.48683 1.474752,1.29152 0,0.75494 -0.557389,1.54552 -2.124216,2.75202 h 2.307802 v 0.55739 h -3.10515 v -0.43039"
       style="fill:#191a1b;fill-opacity:1;fill-rule:nonzero;stroke:none;stroke-width:0.0352778"
       id="path166" />
    <path
       d="m 14.131569,108.06642 c -0.473358,0 -0.912954,-0.25365 -1.147904,-0.66146 -0.365019,-0.63183 -0.148131,-1.44216 0.483694,-1.80658 0.20066,-0.11571 0.428731,-0.17709 0.658706,-0.17709 0.472793,0 0.912284,0.25365 1.147904,0.66075 0.176389,0.30586 0.223238,0.66217 0.131762,1.00401 -0.09109,0.34184 -0.310056,0.62688 -0.615456,0.80327 -0.201189,0.11571 -0.428413,0.1771 -0.658706,0.1771"
       style="fill:#191a1b;fill-opacity:1;fill-rule:nonzero;stroke:none;stroke-width:0.0352778"
       id="path168" />
    <path
       d="m 8.3155683,113.87702 c -0.2299758,0 -0.4580466,-0.0614 -0.6587066,-0.17709 -0.3050822,-0.17639 -0.5241925,-0.46179 -0.6159853,-0.80363 -0.091475,-0.34149 -0.044626,-0.6978 0.1317625,-1.00295 0.2354792,-0.40816 0.6750755,-0.66146 1.1479036,-0.66146 0.2308225,0 0.4580467,0.0614 0.65786,0.1771 0.3067403,0.17709 0.5251803,0.46213 0.6168323,0.80327 0.09148,0.34184 0.04547,0.69815 -0.130916,1.0033 -0.2356558,0.40781 -0.6752521,0.66146 -1.1487505,0.66146"
       style="fill:#191a1b;fill-opacity:1;fill-rule:nonzero;stroke:none;stroke-width:0.0352778"
       id="path170" />
    <path
       d="m 8.3205425,129.75201 c -0.4728281,0 -0.9124244,-0.25294 -1.1473744,-0.66145 -0.1769181,-0.30516 -0.223767,-0.66146 -0.1322917,-1.0033 0.091793,-0.34185 0.3100564,-0.62548 0.6154561,-0.80257 0.2017183,-0.11642 0.4297892,-0.17851 0.6606117,-0.17851 0.472828,0 0.9117188,0.25365 1.1465276,0.66146 0.177236,0.30515 0.223238,0.66146 0.132292,1.0033 -0.09162,0.34149 -0.3100566,0.62689 -0.6159855,0.80398 -0.2003425,0.11501 -0.4284133,0.17709 -0.6592358,0.17709"
       style="fill:#191a1b;fill-opacity:1;fill-rule:nonzero;stroke:none;stroke-width:0.0352778"
       id="path172" />
    <path
       d="m 14.126065,135.56226 c -0.229975,0 -0.457517,-0.061 -0.65733,-0.17674 -0.306459,-0.17639 -0.525004,-0.46108 -0.615986,-0.80362 -0.09148,-0.34044 -0.04547,-0.69709 0.130916,-1.00189 0.236361,-0.40923 0.675922,-0.66358 1.14875,-0.66358 0.229447,0 0.456671,0.0621 0.657331,0.1771 0.305929,0.17709 0.524898,0.46178 0.616515,0.80362 0.09179,0.34185 0.04494,0.6978 -0.131445,1.00366 -0.235656,0.40887 -0.675958,0.66145 -1.148751,0.66145"
       style="fill:#191a1b;fill-opacity:1;fill-rule:nonzero;stroke:none;stroke-width:0.0352778"
       id="path174" />
    <path
       d="m 30.007486,135.56226 c -0.472723,0 -0.912989,-0.25258 -1.147939,-0.66145 -0.177271,-0.30657 -0.22412,-0.66323 -0.133174,-1.00577 0.09225,-0.34043 0.310268,-0.62513 0.615421,-0.80151 0.201789,-0.11501 0.42933,-0.1771 0.659342,-0.1771 0.472722,0 0.912283,0.25294 1.147938,0.66146 0.176389,0.30621 0.223309,0.66216 0.132292,1.00401 -0.09102,0.34184 -0.310092,0.62653 -0.614539,0.80362 -0.202141,0.11501 -0.42933,0.17674 -0.659341,0.17674"
       style="fill:#191a1b;fill-opacity:1;fill-rule:nonzero;stroke:none;stroke-width:0.0352778"
       id="path176" />
    <path
       d="m 35.813855,129.7506 c -0.231775,0 -0.458964,-0.0607 -0.659695,-0.17639 -0.307269,-0.17638 -0.525638,-0.46319 -0.617361,-0.80468 -0.09137,-0.34114 -0.0448,-0.69674 0.131234,-1.00189 0.236008,-0.40781 0.675216,-0.66146 1.147586,-0.66146 0.231069,0 0.459669,0.0614 0.659694,0.1778 0.631825,0.36442 0.848783,1.17475 0.48507,1.80517 -0.23495,0.40781 -0.675217,0.66145 -1.146528,0.66145"
       style="fill:#191a1b;fill-opacity:1;fill-rule:nonzero;stroke:none;stroke-width:0.0352778"
       id="path178" />
    <path
       d="m 35.814913,113.87631 c -0.471664,0 -0.910872,-0.25294 -1.146528,-0.66004 -0.176388,-0.30586 -0.222955,-0.66217 -0.131586,-1.0033 0.09172,-0.34184 0.310092,-0.62759 0.616303,-0.80328 0.200378,-0.11641 0.428272,-0.17709 0.658636,-0.17709 0.472722,0 0.912989,0.25259 1.148645,0.66004 0.176389,0.30445 0.22225,0.66146 0.13088,1.0033 -0.09102,0.34149 -0.310091,0.62689 -0.614891,0.80187 -0.201084,0.11712 -0.430389,0.1785 -0.661459,0.1785"
       style="fill:#191a1b;fill-opacity:1;fill-rule:nonzero;stroke:none;stroke-width:0.0352778"
       id="path180" />
    <path
       d="m 29.999724,108.06642 c -0.230011,0 -0.457552,-0.0607 -0.657225,-0.1771 -0.305858,-0.17639 -0.52458,-0.46143 -0.616655,-0.80257 -0.09095,-0.34184 -0.04357,-0.69814 0.131586,-1.0033 0.236361,-0.40851 0.677333,-0.66216 1.14935,-0.66216 0.230011,0 0.457553,0.0607 0.657931,0.17639 0.305152,0.17568 0.523522,0.46178 0.61595,0.80327 0.09102,0.34255 0.0448,0.69815 -0.131587,1.00189 -0.236361,0.40993 -0.675216,0.66358 -1.14935,0.66358"
       style="fill:#191a1b;fill-opacity:1;fill-rule:nonzero;stroke:none;stroke-width:0.0352778"
       id="path182" />
    <path
       style="fill:#ff0066;stroke-width:1.33325"
       d="m 78.555485,166.3719 c -1.481982,-0.0977 -2.738263,-0.22135 -2.791733,-0.27482 -0.09336,-0.0934 0.202573,-3.33415 0.482573,-5.28458 0.123033,-0.85703 0.08383,-0.9375 -0.45675,-0.9375 -0.570018,0 -0.601663,0.1019 -0.877953,2.82715 -0.157642,1.55493 -0.286622,2.9438 -0.286622,3.08638 0,0.17384 -0.803017,0.14903 -2.4375,-0.0753 -2.645628,-0.36309 -5.0625,-0.82186 -5.0625,-0.96097 0,-0.048 0.28125,-1.38811 0.625,-2.97802 0.34375,-1.58992 0.625,-2.95674 0.625,-3.03739 0,-0.0807 -0.253125,-0.11069 -0.5625,-0.0668 -0.504567,0.0717 -0.625703,0.38159 -1.176175,3.00931 -0.606145,2.89347 -0.621485,2.92772 -1.25,2.79122 -2.40421,-0.52213 -6.322005,-1.71288 -6.412615,-1.949 -0.06011,-0.15664 0.28145,-1.51603 0.759013,-3.02087 0.645782,-2.03493 0.791285,-2.78497 0.567785,-2.92686 -0.578398,-0.3672 -0.793166,-0.0155 -1.72148,2.81952 -0.616556,1.88289 -1.045081,2.82842 -1.257208,2.77398 -0.42734,-0.10966 -4.59523,-1.67102 -5.762145,-2.15859 -1.053345,-0.44011 -1.096045,-0.13536 0.525227,-3.74859 0.552748,-1.23188 0.950003,-2.32875 0.882793,-2.4375 -0.06721,-0.10875 -0.31244,-0.1952 -0.54495,-0.19211 -0.295598,0.004 -0.75465,0.77465 -1.526285,2.5625 -0.606945,1.40629 -1.177353,2.64354 -1.267573,2.74945 -0.146544,0.17204 -5.346932,-2.30528 -5.7917,-2.75901 -0.09897,-0.10096 1.219825,-2.60001 2.930645,-5.55344 1.710821,-2.95343 3.072946,-5.48468 3.02694,-5.625 -0.04601,-0.14032 -0.524897,-0.50407 -1.064207,-0.80834 -0.761895,-0.42984 -1.04328,-0.48559 -1.261787,-0.25 -0.154676,0.16677 -1.603603,2.60947 -3.219843,5.42822 -1.61624,2.81875 -2.976992,5.16855 -3.023895,5.22178 -0.10048,0.11404 -3.915258,-2.26646 -4.91532,-3.06726 l -0.69028,-0.55274 1.78493,-2.44731 c 1.665053,-2.28295 1.756977,-2.47526 1.368738,-2.86339 -0.276606,-0.27654 -0.476043,-0.32654 -0.594648,-0.1491 -1.219693,1.82468 -3.396833,4.60802 -3.60442,4.60802 -0.146795,0 -1.335582,-0.87188 -2.64175,-1.9375 -1.30617,-1.06563 -2.546468,-2.07561 -2.756218,-2.24442 -0.32785,-0.26384 -0.09139,-0.62418 1.684995,-2.5678 1.7179,-1.87961 2.01462,-2.32322 1.759535,-2.63058 -0.168752,-0.20333 -0.386872,-0.3697 -0.484712,-0.3697 -0.09784,0 -1.068437,1.00993 -2.156888,2.24429 L 28,144.86359 l -2.666659,-2.65676 -2.66666,-2.65675 1.410587,-1.27504 c 3.499877,-3.16357 3.217559,-2.82607 2.755489,-3.29407 -0.39108,-0.3961 -0.50864,-0.33875 -1.874999,0.91466 -0.801767,0.7355 -1.823141,1.67232 -2.269719,2.08183 -0.718194,0.65859 -0.848112,0.69957 -1.125,0.35484 -0.172172,-0.21436 -1.184914,-1.45842 -2.250539,-2.76459 -1.065625,-1.30617 -1.9375,-2.49309 -1.9375,-2.6376 0,-0.14451 1.06875,-1.02768 2.375,-1.96261 1.30625,-0.93492 2.375,-1.77443 2.375,-1.86557 0,-0.0911 -0.16037,-0.2988 -0.356377,-0.46148 -0.287643,-0.23872 -0.82683,0.0465 -2.79562,1.47878 l -2.439244,1.77455 -0.558013,-0.69689 c -0.792588,-0.98985 -3.18843,-4.82142 -3.072531,-4.91378 0.05323,-0.0424 2.515535,-1.46357 5.471785,-3.15811 2.95625,-1.69454 5.410973,-3.10811 5.45494,-3.14127 0.132943,-0.10025 -0.928397,-2.06282 -1.209505,-2.23655 -0.143941,-0.089 -2.648673,1.21226 -5.566073,2.8916 -2.917399,1.67934 -5.380129,3.09581 -5.472732,3.14772 -0.189214,0.10604 -1.9068677,-2.91816 -2.6716355,-4.70384 l -0.499946,-1.16735 2.7324755,-1.20684 c 1.926555,-0.85089 2.732476,-1.33176 2.732476,-1.6304 0,-0.23296 -0.09255,-0.48076 -0.205671,-0.55067 -0.11312,-0.0699 -1.428964,0.4301 -2.924099,1.11114 -1.4951348,0.68105 -2.7943888,1.15348 -2.887231,1.04986 -0.092842,-0.10362 -0.6380085,-1.4259 -1.2114808,-2.9384 -0.573472,-1.5125 -1.1446137,-2.99568 -1.2692037,-3.29596 -0.214365,-0.51666 -0.070347,-0.59803 2.6824543,-1.51563 1.5999397,-0.53331 2.9423092,-1.07513 2.9830422,-1.20403 0.04073,-0.12891 -0.01489,-0.37462 -0.123606,-0.54603 -0.15054,-0.23735 -0.894001,-0.0777 -3.1183675,0.66957 l -2.9207008,0.98123 -0.619692,-2.04458 C 3.638709,104.74326 2.8495127,101.55222 2.9475965,101.4862 2.9764185,101.4668 4.321875,101.18383 5.9375,100.85737 8.7009123,100.29899 8.875,100.22847 8.875,99.667305 8.875,99.15096 8.7883355,99.092547 8.2301132,99.232652 7.55661,99.40169 2.879069,100.375 2.7402047,100.375 c -0.1317415,0 -0.5976072,-2.469702 -0.9493008,-5.032548 L 1.4605213,92.934903 4.5427607,92.62064 C 7.553976,92.31362 7.625,92.292377 7.625,91.698842 7.625,91.240522 7.517546,91.12121 7.1875,91.213055 6.946875,91.280017 5.9625,91.403585 5,91.48765 4.0375,91.571715 2.8372627,91.701603 2.332806,91.77629 L 1.4156119,91.912087 1.2808947,90.581045 C 1.2068003,89.84897 1.088684,88.321875 1.0184142,87.1875 L 0.89065087,85.125 H 7.3828255 13.875 V 83.75 82.375 H 7.3828255 0.89065087 L 1.0184142,80.3125 C 1.216332,77.117487 1.3953299,75.624935 1.5804891,75.625705 1.893475,75.627005 6.2423367,76.132165 6.9375,76.24797 7.5331645,76.3472 7.625,76.27985 7.625,75.74375 7.625,75.403437 7.4909672,75.125 7.3271495,75.125 c -0.1638178,0 -1.5506823,-0.127015 -3.0819208,-0.282255 l -2.78407,-0.282253 0.3300639,-2.405247 C 2.2303716,68.955075 2.6173361,67.125 2.8548553,67.125 2.961779,67.125 4.320844,67.40625 5.875,67.75 7.429156,68.09375 8.739947,68.375 8.787869,68.375 8.835791,68.375 8.875,68.118768 8.875,67.805593 8.875,67.279032 8.653954,67.19152 5.9375,66.642628 4.321875,66.31617 2.96557,66.02235 2.9234892,65.98969 2.8237838,65.91231 3.490313,63.289115 4.2661702,60.705425 l 0.6139665,-2.044573 2.9207008,0.981228 c 2.2243665,0.747287 2.9678275,0.906922 3.1183675,0.669572 0.108717,-0.171407 0.16434,-0.417122 0.123606,-0.546027 C 11.002078,59.636718 9.6597085,59.094903 8.0597688,58.56159 5.306967,57.64399 5.1629495,57.562618 5.3773145,57.045965 5.5019045,56.745685 6.0730462,55.2625 6.6465182,53.75 c 0.5734723,-1.5125 1.1188703,-2.835012 1.211996,-2.938918 0.093126,-0.103902 1.4005568,0.36649 2.9054028,1.045321 2.469602,1.114029 2.76661,1.194609 3.04952,0.827354 0.17239,-0.223787 0.22864,-0.48324 0.125,-0.576565 -0.10364,-0.09332 -1.389259,-0.700624 -2.85693,-1.349552 L 8.413014,49.57777 8.911477,48.413885 c 0.7627843,-1.78106 2.480981,-4.806288 2.670153,-4.701335 0.0926,0.05138 2.556834,1.46692 5.476067,3.145652 2.919233,1.678735 5.423965,2.980386 5.566072,2.892558 0.278753,-0.172278 1.338191,-2.134943 1.206171,-2.234493 -0.04397,-0.03315 -2.49869,-1.446725 -5.45494,-3.141267 -2.95625,-1.694542 -5.418553,-3.115695 -5.471785,-3.158113 -0.115899,-0.09235 2.279943,-3.92393 3.072531,-4.913779 l 0.558013,-0.696891 2.439244,1.774548 c 1.96879,1.432292 2.507977,1.717502 2.79562,1.47878 C 21.96463,38.696872 22.125,38.48921 22.125,38.39807 c 0,-0.09114 -1.06875,-0.93065 -2.375,-1.865575 -1.30625,-0.934925 -2.375,-1.8181 -2.375,-1.96261 0,-0.14451 0.871875,-1.331427 1.9375,-2.637595 1.065625,-1.30617 2.078367,-2.550235 2.250539,-2.76459 0.276888,-0.34473 0.406806,-0.303753 1.125,0.354835 0.446578,0.409515 1.467952,1.346337 2.269719,2.081832 1.366359,1.253413 1.483919,1.310763 1.874999,0.914663 0.46207,-0.468 0.744388,-0.130503 -2.755489,-3.29407 L 22.666681,27.94992 25.333341,25.293165 28,22.636409 l 1.979002,2.244295 c 1.088451,1.234363 2.05905,2.244296 2.156888,2.244296 0.09784,0 0.31596,-0.166365 0.484712,-0.369703 0.255085,-0.307357 -0.04163,-0.750965 -1.759535,-2.630583 -1.776389,-1.943614 -2.012845,-2.30395 -1.684995,-2.567798 0.20975,-0.168804 1.450048,-1.178791 2.756218,-2.244416 1.306168,-1.065625 2.494955,-1.9375 2.64175,-1.9375 0.207587,0 2.384727,2.783335 3.60442,4.608021 0.118605,0.177439 0.318042,0.127433 0.594648,-0.149099 0.388239,-0.388133 0.296315,-0.580438 -1.368738,-2.863392 l -1.78493,-2.447315 0.69028,-0.552741 c 0.996815,-0.798197 4.814892,-3.181598 4.91358,-3.067259 0.04595,0.05323 1.46898,2.515535 3.162295,5.471785 1.693315,2.95625 3.103997,5.410973 3.134853,5.45494 0.09523,0.135709 2.060657,-0.931663 2.235017,-1.213781 0.13339,-0.215832 -2.300292,-4.673745 -5.612198,-10.280167 l -0.539935,-0.914009 1.823335,-1.006021 C 46.4295,9.86265 47.774917,9.18513 48.416485,8.9103623 l 1.166487,-0.4995781 1.208513,2.7246538 c 0.842325,1.899063 1.33661,2.726913 1.63126,2.732108 0.23251,0.0041 0.477448,-0.08105 0.544302,-0.189229 0.06686,-0.108176 -0.426672,-1.430051 -1.096732,-2.9375 C 51.200255,9.2333675 50.730317,7.9300687 50.826012,7.8445975 50.969795,7.7161725 53.459507,6.719544 56.92084,5.404845 l 0.67084,-0.2548017 0.969785,2.9093535 c 0.533382,1.6001442 1.075253,2.9426812 1.20416,2.9834142 0.128905,0.04073 0.370992,-0.01265 0.537973,-0.118627 0.227404,-0.144331 0.08284,-0.873456 -0.576036,-2.9053662 -0.483797,-1.4919733 -0.826742,-2.8505056 -0.7621,-3.0189606 0.09629,-0.2509352 3.56954,-1.3348457 6.425733,-2.0053041 0.638107,-0.1497887 0.64408,-0.136001 1.24106,2.8649669 0.556907,2.7995143 0.640795,3.01548 1.171307,3.01548 0.31429,0 0.571438,-0.04725 0.571438,-0.1049995 0,-0.057749 -0.28125,-1.405839 -0.625,-2.995754 -0.34375,-1.589915 -0.625,-2.9409392 -0.625,-3.002276 0,-0.1606915 2.248395,-0.5990033 5.032548,-0.9810666 L 74.565097,1.4605213 74.87936,4.5427607 C 75.18638,7.553976 75.207622,7.625 75.801158,7.625 c 0.45832,0 0.577632,-0.107454 0.485787,-0.4375 C 76.219982,6.946875 76.096415,5.9625 76.01235,5 75.928285,4.0375 75.798397,2.8372627 75.72371,2.332806 L 75.587913,1.4156119 76.918955,1.2808947 C 77.65103,1.2068003 79.178125,1.088684 80.3125,1.0184142 L 82.375,0.89065087 V 7.3828255 13.875 h 1.375 1.375 V 7.3828255 0.89065087 l 2.0625,0.12776333 c 1.134375,0.07027 2.665953,0.1889462 3.403505,0.2637252 L 91.932012,1.4181013 91.78405,2.3434079 C 91.70267,2.8523265 91.560745,4.2488787 91.468662,5.4468572 91.309595,7.5162585 91.326278,7.625 91.80282,7.625 c 0.44984,0 0.531015,-0.2588245 0.786883,-2.5089605 C 92.746615,3.7361113 92.875,2.3472381 92.875,2.0296548 V 1.4522306 l 2.4375,0.334528 c 3.17676,0.4359858 5.0625,0.8290281 5.0625,1.0551708 0,0.1569064 -0.758245,3.8210816 -1.132053,5.4705706 -0.103979,0.4588353 -0.02014,0.5625 0.4549,0.5625 0.543483,0 0.621573,-0.196151 1.169343,-2.9375 0.32284,-1.615625 0.61297,-2.9719299 0.64474,-3.0140108 0.0754,-0.099851 2.70232,0.5678356 5.28264,1.342681 l 2.04458,0.6139665 -0.98123,2.9207008 c -0.74729,2.2243665 -0.90692,2.9678275 -0.66957,3.1183675 0.17141,0.108717 0.41712,0.16434 0.54603,0.123606 0.1289,-0.04073 0.67072,-1.3831025 1.20403,-2.9830422 0.9176,-2.7528018 0.99897,-2.8968193 1.51563,-2.6824543 0.30028,0.12459 1.78346,0.6957317 3.29596,1.2692037 1.5125,0.5734723 2.83501,1.1188703 2.93892,1.211996 0.1039,0.093126 -0.36649,1.4005568 -1.04532,2.9054028 -1.11403,2.469602 -1.19461,2.76661 -0.82736,3.04952 0.22379,0.17239 0.48392,0.22864 0.57806,0.125 0.0941,-0.10364 0.70579,-1.389773 1.35921,-2.858073 l 1.18802,-2.6696362 1.40424,0.620806 c 2.02562,0.8955212 4.55589,2.3452052 4.4441,2.5461912 -0.0527,0.09475 -1.46934,2.560739 -3.14807,5.479972 -1.67874,2.919233 -2.98039,5.423965 -2.89256,5.566072 0.17209,0.278452 2.13518,1.33842 2.23386,1.206171 0.0328,-0.04397 1.44825,-2.49869 3.14543,-5.45494 1.69719,-2.95625 3.11862,-5.418553 3.15875,-5.471785 0.088,-0.116689 3.92767,2.286275 4.90961,3.072531 l 0.69689,0.558013 -1.77455,2.439244 c -1.43229,1.96879 -1.7175,2.507977 -1.47878,2.79562 0.16268,0.196007 0.37034,0.356377 0.46148,0.356377 0.0911,0 0.93065,-1.06875 1.86557,-2.375 0.93493,-1.30625 1.8181,-2.375 1.96261,-2.375 0.14451,0 1.33143,0.871875 2.6376,1.9375 1.30617,1.065625 2.55023,2.078367 2.76459,2.250539 0.34473,0.276888 0.30375,0.406806 -0.35484,1.125 -0.40951,0.446578 -1.34633,1.467952 -2.08183,2.269719 -1.25341,1.366359 -1.31076,1.483919 -0.91466,1.874999 0.468,0.46207 0.1305,0.744388 3.29407,-2.755489 l 1.27504,-1.410587 2.65675,2.66666 2.65676,2.666659 -2.2443,1.979002 c -1.23436,1.088451 -2.24429,2.05905 -2.24429,2.156888 0,0.09784 0.16637,0.31596 0.3697,0.484713 0.30736,0.255084 0.75097,-0.04163 2.63058,-1.759536 1.94362,-1.776389 2.30396,-2.012845 2.5678,-1.684995 0.16881,0.20975 1.17879,1.450048 2.24442,2.756218 1.06562,1.306168 1.9375,2.494955 1.9375,2.64175 0,0.207587 -2.78334,2.384727 -4.60802,3.60442 -0.17744,0.118605 -0.12744,0.318042 0.1491,0.594648 0.38813,0.388239 0.58044,0.296315 2.86339,-1.368738 l 2.44731,-1.78493 0.55274,0.69028 c 0.7982,0.996815 3.1816,4.814892 3.06726,4.91358 -0.0532,0.04595 -2.51553,1.46898 -5.47178,3.162295 -2.95625,1.693315 -5.41097,3.103997 -5.45494,3.134853 -0.13571,0.09523 0.93166,2.060657 1.21378,2.235017 0.21583,0.13339 4.67374,-2.300292 10.28017,-5.612198 l 0.91401,-0.539935 1.00602,1.823335 c 0.55331,1.002833 1.23099,2.348638 1.50596,2.990678 l 0.49995,1.167342 -2.73248,1.206843 c -1.92655,0.850893 -2.73247,1.331765 -2.73247,1.6304 0,0.23296 0.0885,0.478263 0.19668,0.545117 0.10818,0.06686 1.43005,-0.426672 2.9375,-1.096732 1.50745,-0.67006 2.81075,-1.139998 2.89622,-1.044303 0.0855,0.09569 0.62461,1.411488 1.19808,2.923988 0.57347,1.5125 1.14461,2.995685 1.2692,3.295965 0.21437,0.516653 0.0703,0.598025 -2.68245,1.515625 -1.59994,0.533313 -2.94231,1.075128 -2.98304,1.204035 -0.0407,0.128905 0.0127,0.370992 0.11862,0.537973 0.14434,0.227404 0.87346,0.08284 2.90537,-0.576036 1.49197,-0.483797 2.85051,-0.826742 3.01896,-0.7621 0.25343,0.09725 1.42697,3.922216 1.97279,6.429965 0.13975,0.642098 0.12504,0.648498 -2.85373,1.24106 -2.77858,0.552746 -2.9942,0.636788 -2.9942,1.167075 0,0.31429 0.0472,0.571438 0.105,0.571438 0.0577,0 1.40584,-0.28125 2.99575,-0.625 1.58992,-0.34375 2.94094,-0.625 3.00228,-0.625 0.16069,0 0.599,2.248395 0.98106,5.032548 l 0.33039,2.407549 -3.08224,0.314263 c -3.01122,0.30702 -3.08224,0.328262 -3.08224,0.921798 0,0.45832 0.10745,0.577632 0.4375,0.485787 0.24062,-0.06696 1.225,-0.19053 2.1875,-0.274595 0.9625,-0.08406 2.16274,-0.213953 2.66719,-0.28864 l 0.9172,-0.135797 0.13563,1.331042 c 0.0746,0.732075 0.1856,2.25917 0.24667,3.393545 l 0.11103,2.0625 h -6.47636 -6.47636 v 1.375 1.375 h 6.47636 6.47636 l -0.11103,2.0625 c -0.0611,1.134375 -0.17237,2.663875 -0.24733,3.398887 l -0.13631,1.336388 -0.79152,-0.13524 c -0.43534,-0.07439 -1.57903,-0.203388 -2.54153,-0.286678 -0.9625,-0.08329 -2.00313,-0.204072 -2.3125,-0.268407 -0.45863,-0.09538 -0.5625,-0.007 -0.5625,0.478475 0,0.578077 0.0899,0.604622 3.08224,0.909715 l 3.08224,0.314263 -0.33039,2.407549 c -0.38206,2.784153 -0.82037,5.032548 -0.98106,5.032548 -0.0613,0 -1.41236,-0.28125 -3.00228,-0.625 -1.58991,-0.34375 -2.94583,-0.625 -3.01314,-0.625 -0.0673,0 -0.0864,0.253125 -0.0425,0.5625 0.0717,0.50457 0.38159,0.6257 3.00931,1.17618 2.89347,0.60614 2.92772,0.62148 2.79122,1.25 -0.54051,2.48884 -1.7174,6.32374 -1.9705,6.42086 -0.16845,0.0646 -1.52699,-0.2783 -3.01896,-0.7621 -2.03191,-0.65888 -2.76103,-0.80344 -2.90537,-0.57604 -0.10597,0.16698 -0.15935,0.40907 -0.11862,0.53798 0.0407,0.1289 1.3831,0.67072 2.98304,1.20403 2.7528,0.9176 2.89682,0.99897 2.68245,1.51563 -0.12459,0.30028 -0.69573,1.78346 -1.2692,3.29596 -0.57347,1.5125 -1.11261,2.82829 -1.19808,2.92399 -0.0855,0.0957 -1.38877,-0.37424 -2.89622,-1.04431 -1.50745,-0.67005 -2.82932,-1.16359 -2.9375,-1.09673 -0.10817,0.0669 -0.19415,0.3118 -0.19106,0.5443 0.004,0.2956 0.77465,0.75466 2.5625,1.52629 1.40629,0.60695 2.64354,1.17735 2.74945,1.26757 0.17204,0.14655 -2.30528,5.34694 -2.75901,5.7917 -0.10096,0.099 -2.60001,-1.21982 -5.55344,-2.93064 -2.95343,-1.71082 -5.48468,-3.07295 -5.625,-3.02694 -0.14032,0.046 -0.50407,0.5249 -0.80834,1.06421 -0.42984,0.76189 -0.48559,1.04327 -0.25,1.26178 0.16677,0.15468 2.60947,1.60361 5.42822,3.21984 2.81875,1.61625 5.16655,2.97499 5.21732,3.01944 0.0978,0.0856 -2.40513,4.08703 -3.15477,5.04356 l -0.44205,0.56405 -2.45397,-1.78641 c -2.2955,-1.67105 -2.48101,-1.75936 -2.87275,-1.36751 -0.27811,0.27819 -0.3291,0.47883 -0.1518,0.59735 1.8037,1.20566 4.60802,3.39547 4.60802,3.59825 0,0.299 -3.15664,4.30623 -4.03808,5.12619 l -0.58692,0.54598 -2.19158,-2.01071 c -1.82529,-1.67464 -2.25358,-1.95925 -2.5625,-1.70286 -0.20401,0.16931 -0.37092,0.38788 -0.37092,0.48572 0,0.0978 1.00993,1.06844 2.24429,2.15689 l 2.2443,1.979 -2.65676,2.66666 -2.65675,2.66666 -1.27504,-1.41059 c -3.15348,-3.48871 -2.82861,-3.21504 -3.28348,-2.76608 -0.38186,0.3769 -0.26522,0.56901 1.59378,2.625 l 2.00581,2.21835 -0.54558,0.58692 c -0.81248,0.87405 -4.82551,4.03808 -5.12162,4.03808 -0.14112,0 -1.02152,-1.06875 -1.95645,-2.375 -0.93492,-1.30625 -1.77443,-2.375 -1.86557,-2.375 -0.0911,0 -0.2988,0.16037 -0.46148,0.35638 -0.23872,0.28764 0.0473,0.82787 1.48288,2.80125 l 1.77864,2.44487 -0.57598,0.45105 c -0.95016,0.74407 -4.96908,3.26321 -5.04734,3.16377 -0.04,-0.0508 -1.45911,-2.51107 -3.15365,-5.46732 -1.69454,-2.95625 -3.10811,-5.41097 -3.14127,-5.45494 -0.10025,-0.13294 -2.06282,0.9284 -2.23655,1.20951 -0.089,0.14393 1.21226,2.64867 2.8916,5.56607 1.67934,2.9174 3.09581,5.38013 3.14772,5.47273 0.10604,0.18921 -2.91816,1.90687 -4.70384,2.67163 l -1.16735,0.49995 -1.20684,-2.73248 c -0.85089,-1.92655 -1.33176,-2.73247 -1.6304,-2.73247 -0.23296,0 -0.47513,0.0844 -0.53815,0.1875 -0.063,0.10312 0.43722,1.41874 1.11166,2.92358 0.67444,1.50485 1.14124,2.81228 1.03734,2.9054 -0.10391,0.0931 -1.42642,0.63853 -2.93892,1.212 -1.5125,0.57347 -2.99568,1.14461 -3.29596,1.2692 -0.51666,0.21437 -0.59803,0.0703 -1.51563,-2.68245 -0.53331,-1.59994 -1.07513,-2.94231 -1.20403,-2.98304 -0.12891,-0.0407 -0.37462,0.0149 -0.54603,0.1236 -0.23735,0.15054 -0.0777,0.89401 0.66957,3.11837 l 0.98123,2.9207 -2.04458,0.61969 c -2.05131,0.62174 -5.24235,1.41094 -5.30837,1.31285 -0.0194,-0.0288 -0.30237,-1.37428 -0.62883,-2.9899 -0.55838,-2.76341 -0.6289,-2.9375 -1.190065,-2.9375 -0.516345,0 -0.574758,0.0867 -0.434653,0.64489 0.169038,0.6735 1.142348,5.35104 1.142348,5.4899 0,0.13175 -2.469702,0.59761 -5.032548,0.9493 l -2.407549,0.33039 -0.314263,-3.08224 c -0.30702,-3.01122 -0.328263,-3.08224 -0.921798,-3.08224 -0.45832,0 -0.577632,0.10745 -0.485787,0.4375 0.06696,0.24062 0.19053,1.225 0.274595,2.1875 0.08406,0.9625 0.213953,2.16274 0.28864,2.66719 l 0.135797,0.9172 -1.331042,0.13472 c -0.732075,0.0741 -2.25917,0.1922 -3.393545,0.26247 l -2.0625,0.12777 V 160.11717 153.625 H 83.75 82.375 v 6.5 6.5 l -0.5625,-0.0377 c -0.309375,-0.0208 -1.775032,-0.11767 -3.257015,-0.21535 z m 7.64971,-18.01493 c 1.176262,-0.32663 2.723255,-1.68783 3.300357,-2.90398 0.979408,-2.06395 0.311601,-5.38277 -1.312392,-6.52224 -1.477845,-1.03692 -4.19742,-1.33095 -6.25566,-0.67634 -0.795315,0.25295 -0.728557,-0.24954 0.25,-1.8818 0.883332,-1.47343 2.501295,-2.83048 4.599735,-3.85798 1.436267,-0.70327 1.509165,-0.80966 1.016488,-1.48344 -0.304778,-0.41681 -0.394761,-0.41188 -1.751966,0.0959 -3.55209,1.329 -5.729672,3.14869 -7.110287,5.94169 C 78.024502,138.92383 78,139.04531 78,141.7367 c 0,2.58658 0.04673,2.84764 0.73065,4.08208 0.721507,1.30228 1.750888,2.15547 3.08536,2.55729 0.990677,0.2983 3.282075,0.28833 4.389185,-0.0191 z m -31,-7.75 c 0.525358,-0.14589 1.390657,-0.65866 1.922892,-1.1395 2.650333,-2.39442 2.14083,-6.60023 -1.003087,-8.28026 -1.60177,-0.85594 -3.805797,-0.7207 -5.285092,0.32431 -2.615208,1.84744 -2.912211,5.61261 -0.618125,7.83613 1.387352,1.34467 3.109139,1.77977 4.983412,1.25932 z m 59.896035,0.0249 c 1.4449,-0.41439 2.50211,-1.31063 3.18949,-2.70384 0.55368,-1.12219 0.6302,-1.53579 0.50629,-2.73636 -0.61605,-5.96897 -9.38126,-6.08127 -10.0862,-0.12923 -0.42902,3.62245 2.9403,6.55891 6.39042,5.56943 z M 34.706952,117.9577 c 1.344915,-0.94738 2.168048,-2.5449 2.168048,-4.2077 0,-4.67408 -5.703208,-6.85287 -8.84247,-3.37809 -1.793418,1.9851 -1.827253,4.68819 -0.08354,6.67417 1.740516,1.98233 4.675853,2.3783 6.75796,0.91162 z m 103.045198,0.45106 c 1.74963,-0.79485 3.12006,-2.84111 3.12006,-4.65876 0,-1.08167 -0.57134,-2.45561 -1.40474,-3.37809 -3.12279,-3.45655 -8.84247,-1.29708 -8.84247,3.33848 0,3.7368 3.77127,6.22291 7.12715,4.69837 z M 24.992587,91.606302 c 3.505545,-1.311592 5.69173,-3.144907 7.065943,-5.925432 0.917928,-1.857303 0.941388,-1.97403 0.938215,-4.667905 C 32.993972,78.65864 32.912957,78.0986 32.448973,77.22633 31.337752,75.137275 29.562507,74.127787 27,74.127787 c -2.007638,0 -3.13494,0.438278 -4.405899,1.712943 -0.920309,0.922995 -1.214274,1.433857 -1.442311,2.50651 -0.503795,2.36977 0.265909,4.552595 2.01302,5.70878 1.183684,0.783325 3.662605,1.062705 5.334145,0.601172 0.535112,-0.147752 1.027545,-0.214027 1.094295,-0.147277 0.18783,0.18783 -0.679705,1.869465 -1.49639,2.900615 -0.663175,0.837325 -3.653872,2.96447 -4.16795,2.96447 -0.11459,0 -0.412841,0.14953 -0.66278,0.332292 -0.376585,0.275366 -0.404678,0.425263 -0.163987,0.875 0.351466,0.65672 0.204369,0.654853 1.890444,0.02401 z M 143.37003,91.3125 c 0.60554,-0.309375 1.44501,-0.994817 1.86548,-1.523205 C 145.93134,88.914873 146,88.66392 146,86.995127 c 0,-2.14233 -0.40884,-2.890152 -2.09503,-3.832084 l -1.05073,-0.586958 1.12159,-0.71129 c 1.35252,-0.857743 1.89917,-1.827412 1.89917,-3.368815 0,-1.960773 -1.12692,-3.416572 -3.09778,-4.001857 -2.53052,-0.751486 -5.19671,-0.245833 -6.65904,1.262912 -0.71684,0.739595 -0.86818,1.082723 -0.86818,1.968428 0,1.465179 0.44687,1.943339 1.72838,1.849414 L 138,79.5 l 0.012,-1.163495 c 0.0136,-1.31742 0.38495,-1.891365 1.53498,-2.37209 2.24825,-0.939788 4.23494,1.354485 3.23833,3.739697 -0.4485,1.073425 -1.59979,1.843691 -3.08964,2.067108 -0.96244,0.144328 -1.07064,0.230045 -1.07064,0.848185 0,0.62585 0.10147,0.70154 1.12931,0.842422 2.28001,0.312511 3.61791,1.606298 3.61975,3.50039 0.002,2.209503 -1.39743,3.5738 -3.43106,3.344581 -1.58025,-0.178118 -2.27509,-0.919333 -2.36856,-2.526658 L 137.5,86.5 l -1,-0.0736 c -1.5556,-0.114492 -1.98177,0.392488 -1.90379,2.264772 0.0385,0.924 1.40026,2.365056 2.65379,2.808291 0.55,0.194475 1.90429,0.358529 3.00953,0.364565 1.6058,0.0088 2.23072,-0.102038 3.1105,-0.551528 z M 34.706952,57.957703 C 36.051867,57.010317 36.875,55.4128 36.875,53.75 c 0,-4.67408 -5.703208,-6.852875 -8.84247,-3.378088 -1.793418,1.985101 -1.827253,4.688185 -0.08354,6.674166 1.740516,1.982337 4.675853,2.378302 6.75796,0.911625 z m 103.045198,0.451052 c 1.74963,-0.794845 3.12006,-2.84111 3.12006,-4.658755 0,-1.081668 -0.57134,-2.455613 -1.40474,-3.378088 -3.12279,-3.45655 -8.84247,-1.29708 -8.84247,3.338478 0,3.756407 3.75366,6.230903 7.12715,4.698365 z M 56.14818,36.293307 c 3.119108,-1.646697 3.620678,-5.875 0.979907,-8.260777 -1.9851,-1.793418 -4.688184,-1.827253 -6.674165,-0.08354 -3.595755,3.157115 -1.450815,8.925073 3.319258,8.92581 0.850725,1.33e-4 1.638772,-0.192815 2.375,-0.581495 z m 60,0 c 1.5292,-0.807322 2.46639,-2.217245 2.64883,-3.984925 0.47829,-4.634157 -4.96636,-7.40061 -8.42157,-4.279037 -3.47813,3.142282 -1.30233,8.845655 3.37456,8.845655 0.87469,0 1.65475,-0.18921 2.39818,-0.581693 z M 82.125,34.519865 c 0,-0.482123 -0.165167,-0.638763 -0.8125,-0.770545 -0.446875,-0.09097 -1.234375,-0.272997 -1.75,-0.4045 L 78.625,33.105727 v -7.623209 c 0,-6.737963 -0.04617,-7.640927 -0.397577,-7.775775 -0.218668,-0.08391 -1.259293,0.140564 -2.3125,0.498833 -1.053208,0.358269 -2.336798,0.724224 -2.852423,0.813234 -0.829625,0.143213 -0.9375,0.244934 -0.9375,0.884013 V 20.625 H 74 75.875 v 6.230612 6.230613 l -0.8125,0.251913 c -0.446875,0.138552 -1.290625,0.325914 -1.875,0.416362 -0.91089,0.140982 -1.0625,0.250495 -1.0625,0.767475 V 35.125 h 5 5 z M 95.625,34 V 32.875 L 91.4375,32.8689 87.25,32.8628 88.625,31.702 c 2.504937,-2.11471 4.715073,-4.585205 5.49086,-6.137695 1.244687,-2.490836 1.02997,-5.155523 -0.533018,-6.614878 -1.52744,-1.426162 -4.816657,-1.852635 -6.963677,-0.902895 -1.273855,0.563494 -2.72586,2.076983 -2.781865,2.899662 -0.141365,2.076616 0.381162,2.928801 1.795835,2.928801 1.131993,0 1.645243,-0.496283 1.259212,-1.217584 -1.313677,-2.45463 2.149395,-4.716633 4.291208,-2.802923 0.761008,0.67996 0.816012,0.836979 0.810085,2.3125 -0.0053,1.322558 -0.148872,1.847866 -0.87255,3.192822 -0.827925,1.538697 -3.494743,4.48743 -6.30859,6.975478 -0.987953,0.873562 -1.1875,1.196174 -1.1875,1.919857 V 35.125 h 6 6 z"
       id="path1"
       transform="matrix(0.26458333,0,0,0.26458333,-0.09317171,98.332576)" />
    <path
       style="fill:#ff0066;stroke-width:1.33325"
       d="m 82.737165,146.73714 c -1.145026,-0.56511 -1.675272,-1.67537 -1.811126,-3.79227 -0.107191,-1.67026 -0.06421,-1.89862 0.462928,-2.45974 1.285449,-1.3683 3.723994,-1.41583 4.836015,-0.0943 1.537167,1.82682 0.960537,5.56654 -0.983557,6.37883 -1.068606,0.4465 -1.546172,0.44029 -2.50426,-0.0325 z"
       id="path2"
       transform="matrix(0.26458333,0,0,0.26458333,-0.09317171,98.332576)" />
    <path
       style="fill:#ff0066;stroke-width:1.33325"
       d="m 25.160869,82.741818 c -0.957428,-0.805622 -1.386868,-2.102083 -1.204986,-3.637794 0.201143,-1.698342 0.791668,-2.701286 1.851135,-3.143959 1.170847,-0.489212 2.301709,-0.265354 3.154116,0.624367 0.823878,0.859944 1.163866,1.972288 1.163866,3.807839 0,1.124467 -0.109272,1.497933 -0.5625,1.922497 -1.296503,1.214508 -3.241525,1.403216 -4.401631,0.42705 z"
       id="path3"
       transform="matrix(0.26458333,0,0,0.26458333,-0.09317171,98.332576)" />
    <path
       style="fill:#ffff00;stroke-width:1.33325"
       d="m 77.278297,166.18923 -1.471705,-0.0912 0.147338,-1.42401 c 0.08103,-0.7832 0.224462,-2.18338 0.318727,-3.1115 l 0.17139,-1.6875 h -0.644205 c -0.712975,0 -0.755347,0.15082 -1.123792,4 l -0.179475,1.875 -1.123287,-0.074 c -1.27712,-0.0842 -5.822228,-0.80449 -5.971943,-0.94641 -0.05426,-0.0514 0.1427,-1.30537 0.437695,-2.78653 0.667372,-3.35087 0.667205,-3.37143 -0.02654,-3.2729 -0.493737,0.0701 -0.644233,0.41121 -1.23109,2.79015 -0.367725,1.49064 -0.721995,2.76366 -0.787265,2.82893 -0.244,0.244 -6.669145,-1.63559 -6.669145,-1.95097 0,-0.11438 0.335808,-1.40387 0.746237,-2.86555 0.751745,-2.6772 0.768093,-3.09767 0.120428,-3.09767 -0.448758,0 -0.87414,0.84618 -1.728065,3.4375 -0.41554,1.261 -0.813973,2.0625 -1.025283,2.0625 -0.377535,0 -5.53222,-1.88724 -6.072012,-2.22309 -0.262965,-0.16361 -0.09075,-0.76555 0.8125,-2.83994 0.630407,-1.44778 1.146195,-2.76495 1.146195,-2.92704 0,-0.16263 -0.2521,-0.2589 -0.5625,-0.21482 -0.43823,0.0622 -0.840365,0.64685 -1.820243,2.6462 l -1.257745,2.56631 -2.679755,-1.30067 c -1.473867,-0.71537 -2.677877,-1.42021 -2.67558,-1.56631 0.0042,-0.2642 0.555733,-1.31021 3.962206,-7.51385 0.980989,-1.78652 1.783617,-3.36893 1.783617,-3.51647 0,-0.14754 -0.4687,-0.53168 -1.041558,-0.85364 l -1.041554,-0.58539 -0.520946,0.60922 c -0.286517,0.33506 -1.750319,2.7434 -3.252894,5.35185 -1.502573,2.60845 -2.766135,4.78745 -2.807916,4.84222 -0.09719,0.12741 -3.735267,-2.07784 -4.66555,-2.82806 l -0.705417,-0.56888 1.642917,-2.32118 c 1.722223,-2.43322 1.910068,-2.91964 1.228523,-3.18117 -0.44524,-0.17086 -0.599877,-0.013 -2.710605,2.76695 -0.6875,0.90548 -1.345332,1.6489 -1.46185,1.65204 -0.116518,0.003 -1.37367,-0.91751 -2.793673,-2.0459 -2.004527,-1.59287 -2.533714,-2.1379 -2.366672,-2.4375 0.118332,-0.21223 0.95361,-1.21894 1.856173,-2.23713 1.706272,-1.92485 1.932409,-2.42763 1.215602,-2.70269 -0.315038,-0.12089 -0.950368,0.39834 -2.44862,2.00117 l -2.023203,2.16442 -2.543336,-2.55583 -2.543337,-2.55582 2.119464,-1.875 c 1.496442,-1.32384 2.100355,-2.02122 2.054457,-2.37245 -0.123715,-0.94671 -0.860068,-0.63894 -2.957987,1.23635 -1.15886,1.03587 -2.163268,1.88337 -2.232018,1.88332 -0.194708,-1.3e-4 -4.250853,-5.17201 -4.243185,-5.41037 0.0037,-0.11652 1.022463,-0.98179 2.263811,-1.92282 1.488357,-1.12829 2.23003,-1.85099 2.177814,-2.12213 -0.154118,-0.80027 -0.894887,-0.54413 -3.187763,1.10228 l -2.319369,1.66542 -0.578355,-0.7173 c -0.75982,-0.94236 -2.965394,-4.57941 -2.837536,-4.67917 0.05477,-0.0427 2.318812,-1.3482 5.031203,-2.90105 6.494351,-3.71802 5.932576,-3.22482 5.256995,-4.61537 -0.306414,-0.63069 -0.674287,-1.14671 -0.817495,-1.14671 -0.399395,0 -2.726764,1.22403 -7.090651,3.72919 -3.663794,2.10325 -3.994455,2.24476 -4.293142,1.83729 -0.670172,-0.91427 -2.6644022,-5.17417 -2.4553952,-5.24501 0.1199375,-0.0406 1.2868182,-0.60773 2.5930682,-1.26019 1.826033,-0.91208 2.393466,-1.3163 2.454888,-1.74878 0.104297,-0.73437 -0.13473,-0.71215 -2.281091,0.21201 -0.989338,0.42599 -2.214063,0.92492 -2.7216105,1.10874 l -0.9228133,0.33421 -1.1274657,-2.92123 c -0.620106,-1.60668 -1.16109,-3.08037 -1.2021865,-3.27488 -0.051503,-0.24377 0.7797697,-0.67227 2.675279,-1.37906 2.231244,-0.83197 2.75,-1.11895 2.75,-1.52134 0,-0.64883 -0.754419,-0.57051 -3.733917,0.38765 -1.2342798,0.39692 -2.2705392,0.69528 -2.302799,0.66302 -0.093539,-0.0935 -1.529559,-5.21494 -1.7090055,-6.09497 -0.1835324,-0.90007 -0.3197956,-0.83735 3.6832215,-1.69543 1.7716488,-0.37977 1.9375,-0.46737 1.9375,-1.023273 0,-0.737637 -0.055364,-0.73955 -3.125,-0.107947 -1.3365218,0.275 -2.5716857,0.5 -2.7448091,0.5 -0.3269501,0 -0.3844573,-0.2471 -1.0137752,-4.35605 C 1.7150978,93.964812 1.6875063,93.240877 1.890286,93.115553 2.0436605,93.020763 3.0576701,92.869107 4.1436407,92.77854 7.2834795,92.516688 7.625,92.409563 7.625,91.686543 7.625,91.0855 7.577733,91.066528 6.4375,91.20987 5.784375,91.291978 4.3959577,91.432873 3.3521285,91.52297 L 1.4542569,91.686783 1.2896284,89.367485 C 1.1990828,88.091872 1.125,86.61547 1.125,86.086595 V 85.125 H 7.5 13.875 V 83.75 82.375 H 7.461899 1.0487979 L 1.2118217,79.520647 C 1.3014848,77.950755 1.4487378,76.473735 1.5390505,76.238385 1.7098482,75.793293 2.321358,75.79954 6.3326967,76.28736 L 7.6653932,76.44943 7.5826967,75.724715 7.5,75 4.708285,74.75 C 3.1728418,74.6125 1.8465225,74.42993 1.7609089,74.34429 c -0.1522908,-0.152338 0.079275,-2.009755 0.6454146,-5.17696 0.1555968,-0.870467 0.4273622,-1.638102 0.603923,-1.705855 0.1765608,-0.06775 1.3976472,0.110072 2.7135252,0.39517 C 8.7653133,68.51562 8.875,68.5125 8.875,67.767053 8.875,67.211145 8.7091488,67.123553 6.9375,66.743782 3.6592265,66.041053 3.125,65.86822 3.125,65.510357 c 0,-0.334945 1.7021717,-6.420862 1.8322285,-6.55092 0.03559,-0.03559 1.0745747,0.260045 2.3088545,0.656968 C 10.245581,60.57456 11,60.652882 11,60.004055 11,59.601665 10.481244,59.31468 8.25,58.482707 6.3544907,57.775922 5.5232175,57.347417 5.574721,57.103653 5.6158175,56.909145 6.1582765,55.431655 6.7801855,53.820345 l 1.1307437,-2.929655 1.2945353,0.51199 c 3.2712995,1.293803 4.1007335,1.552215 4.4956965,1.400655 0.944214,-0.36233 0.338919,-0.899553 -2.326161,-2.064562 -1.5125,-0.661173 -2.75,-1.251826 -2.75,-1.312561 0,-0.200154 2.278584,-4.666685 2.61077,-5.117689 0.30028,-0.407688 0.629,-0.26706 4.294699,1.837289 4.363887,2.505155 6.691256,3.729188 7.090651,3.729188 0.143208,0 0.511081,-0.51602 0.817495,-1.146713 0.678276,-1.396097 1.218447,-0.92242 -5.295635,-4.643754 -2.691139,-1.537383 -4.937792,-2.830146 -4.992563,-2.872803 -0.127888,-0.09961 2.077893,-3.73689 2.837536,-4.679033 l 0.578355,-0.717299 2.319369,1.665425 c 2.292876,1.646402 3.033645,1.902547 3.187763,1.102277 0.05222,-0.271135 -0.689457,-0.993842 -2.177814,-2.12213 -1.241348,-0.941033 -2.260063,-1.806302 -2.263811,-1.92282 -0.0077,-0.238357 4.048477,-5.410238 4.243185,-5.410373 0.06875,-4.7e-5 1.073158,0.847448 2.232018,1.883325 2.100412,1.87751 2.828564,2.18083 2.964849,1.235045 0.05148,-0.357274 -0.532127,-1.030217 -2.057505,-2.372445 L 22.884988,28 l 2.546385,-2.555824 2.546384,-2.555823 2.023203,2.164419 c 1.498252,1.60283 2.133582,2.12206 2.44862,2.001168 0.72218,-0.277125 0.491978,-0.75284 -1.468837,-3.035372 -1.041843,-1.212778 -1.801218,-2.286808 -1.6875,-2.386732 1.177637,-1.034803 5.064724,-4.005523 5.235327,-4.001117 0.121787,0.0031 0.78393,0.746564 1.47143,1.652042 2.110728,2.77995 2.265365,2.937804 2.710605,2.76695 0.681545,-0.261534 0.4937,-0.747951 -1.228523,-3.181175 l -1.642917,-2.32118 0.705417,-0.568879 c 0.933615,-0.752908 4.56813,-2.955021 4.66762,-2.82806 0.04292,0.05477 1.400111,2.405833 3.015983,5.224583 1.61587,2.81875 3.041135,5.231819 3.167258,5.362376 0.269984,0.279482 2.479557,-0.715232 2.479557,-1.116256 0,-0.407848 -1.320485,-2.924132 -3.765558,-7.175557 -1.236047,-2.149206 -2.160077,-3.990482 -2.0534,-4.091724 0.47924,-0.454827 5.428758,-2.7748307 5.496063,-2.5761875 0.04143,0.1222918 0.60916,1.2910985 1.261615,2.5973485 0.912077,1.826033 1.316297,2.393466 1.74878,2.454888 0.72492,0.102955 0.712685,-0.0271 -0.210082,-2.233003 C 51.9275,10.581098 51.4281,9.3333965 51.242643,8.8242148 L 50.905445,7.8984295 54.17102,6.6258457 c 1.796067,-0.6999212 3.288667,-1.2395677 3.316892,-1.1992147 0.02822,0.040353 0.48,1.292274 1.003946,2.7820468 0.523944,1.4897727 1.113304,2.7703362 1.309687,2.8456962 0.803375,0.308283 0.821587,-0.371223 0.07897,-2.9458337 C 59.466682,6.673843 59.127403,5.378219 59.12655,5.2293757 59.125085,4.9734447 63.332887,3.5451113 65.045372,3.2202396 65.941105,3.050312 65.883503,2.924238 66.743782,6.9375 c 0.379771,1.7716488 0.467363,1.9375 1.023271,1.9375 0.739295,0 0.740142,-0.032208 0.08537,-3.2426163 C 67.565012,4.223153 67.42533,2.9746706 67.542023,2.8579781 67.726947,2.6730527 69.669465,2.2975463 73.28989,1.7468628 74.501135,1.5626269 74.499525,1.5598522 74.74355,4.25 c 0.283597,3.1264113 0.36215,3.375 1.06648,3.375 0.60513,0 0.623632,-0.045762 0.4801,-1.1875 C 76.20802,5.784375 76.067127,4.3959577 75.97703,3.3521285 L 75.813217,1.4542569 78.132515,1.2896284 C 79.408128,1.1990828 80.88453,1.125 81.413405,1.125 H 82.375 V 7.5 13.875 h 1.375 1.375 V 7.4661437 1.0572873 l 3.185475,0.1814778 c 1.752013,0.099813 3.253535,0.2235407 3.336718,0.2749509 0.08319,0.05141 0.06267,0.6318554 -0.04557,1.2898785 -0.108247,0.658023 -0.20352,2.0120305 -0.211717,3.0089055 -0.01327,1.6137128 0.03674,1.8125 0.455952,1.8125 0.570617,0 0.70691,-0.5388072 0.937348,-3.70561 l 0.169587,-2.33061 1.273605,0.1674859 c 2.76556,0.3636861 5.534465,0.9045947 5.753903,1.1240305 0.141429,0.1414328 0.01939,1.2278003 -0.314586,2.8003891 C 98.99043,8.8603475 98.990723,8.875 99.729478,8.875 c 0.561062,0 0.643242,-0.1750565 1.144232,-2.4375 0.72719,-3.2839092 0.73688,-3.3125 1.12314,-3.3125 0.33003,0 6.41537,1.7038883 6.54371,1.8322285 0.0356,0.03559 -0.26004,1.0745747 -0.65696,2.3088545 C 106.92544,10.245581 106.84712,11 107.49595,11 c 0.40239,0 0.68937,-0.518756 1.52134,-2.75 0.70679,-1.8955093 1.13529,-2.7267825 1.37906,-2.675279 0.19451,0.041097 1.67199,0.5835555 3.2833,1.2054645 l 2.92966,1.1307437 -0.51199,1.2945353 c -1.2938,3.2712995 -1.55221,4.1007335 -1.40066,4.4956965 0.36233,0.944214 0.89956,0.338919 2.06457,-2.326161 0.66117,-1.5125 1.25411,-2.75 1.31765,-2.75 0.21131,0 4.66383,2.268723 5.1126,2.605064 0.40846,0.306127 0.27104,0.627771 -1.83729,4.300405 -2.50516,4.363887 -3.72919,6.691256 -3.72919,7.090651 0,0.143208 0.51602,0.511081 1.14671,0.817495 1.39433,0.677418 0.91981,1.214549 4.62126,-5.230961 1.52501,-2.655569 2.85901,-4.881625 2.96446,-4.946792 0.18813,-0.116274 3.56585,1.894678 4.73934,2.821607 l 0.59677,0.471385 -1.66989,2.325596 c -1.65059,2.298711 -1.90739,3.039801 -1.10675,3.19399 0.27114,0.05222 0.99384,-0.689457 2.12213,-2.177814 0.94103,-1.241348 1.8063,-2.260063 1.92282,-2.263811 0.23836,-0.0077 5.41024,4.048477 5.41037,4.243185 5e-5,0.06875 -0.84745,1.073158 -1.88332,2.232018 -1.87529,2.097919 -2.18306,2.834272 -1.23635,2.957987 0.35123,0.0459 1.04861,-0.558015 2.37245,-2.054457 l 1.875,-2.119464 2.55582,2.543337 2.55583,2.543336 -2.16442,2.023203 c -1.60283,1.498252 -2.12206,2.133582 -2.00117,2.44862 0.26963,0.702645 0.71528,0.500758 2.67894,-1.213605 1.03125,-0.900325 2.04865,-1.735138 2.26088,-1.855138 0.30066,-0.169995 0.83899,0.352015 2.4375,2.36364 1.12839,1.420003 2.04905,2.677155 2.0459,2.793673 -0.003,0.116518 -0.74656,0.77435 -1.65204,1.46185 -2.77995,2.110728 -2.93781,2.265365 -2.76695,2.710605 0.26153,0.681545 0.74795,0.4937 3.18117,-1.228523 l 2.32118,-1.642917 0.56888,0.705417 c 0.75291,0.933615 2.95502,4.56813 2.82806,4.66762 -0.0548,0.04292 -2.40583,1.400111 -5.22458,3.015983 -2.81875,1.61587 -5.23182,3.041135 -5.36238,3.167258 -0.27948,0.269984 0.71523,2.479557 1.11626,2.479557 0.40785,0 2.92413,-1.320485 7.17556,-3.765558 2.1492,-1.236047 3.99048,-2.160077 4.09172,-2.0534 0.45483,0.47924 2.77483,5.428758 2.57619,5.496063 -0.12229,0.04143 -1.2911,0.60916 -2.59735,1.261615 -1.82603,0.912077 -2.39347,1.316297 -2.45489,1.74878 -0.0439,0.309375 0.0173,0.5625 0.13605,0.5625 0.11876,0 1.44846,-0.496023 2.95488,-1.102272 1.50643,-0.606251 2.77412,-1.06796 2.81711,-1.026021 0.20287,0.197958 2.48,6.27205 2.40124,6.405161 -0.0494,0.08353 -1.28391,0.577287 -2.7433,1.097242 -1.4594,0.519955 -2.7151,1.106052 -2.79046,1.302435 -0.30829,0.803375 0.37122,0.821587 2.94583,0.07897 1.4347,-0.413828 2.73143,-0.753107 2.88163,-0.75396 0.28037,-0.0016 2.09348,5.653345 2.10051,6.551315 0.002,0.193768 -0.83851,0.428715 -3.8111,1.065917 -1.77165,0.379771 -1.9375,0.467363 -1.9375,1.023271 0,0.739295 0.0322,0.740142 3.24262,0.08537 1.40923,-0.287416 2.65771,-0.427098 2.7744,-0.310405 0.18493,0.184924 0.56043,2.127442 1.11112,5.747867 0.18423,1.211245 0.18701,1.209635 -2.50314,1.45366 -3.12641,0.283597 -3.375,0.36215 -3.375,1.06648 0,0.60513 0.0458,0.623632 1.1875,0.4801 0.65312,-0.08211 2.04149,-0.222998 3.08526,-0.31309 l 1.89777,-0.163805 0.16344,2.468382 c 0.0899,1.357611 0.16402,2.834008 0.16474,3.280883 l 0.001,0.8125 H 160 153.625 v 1.375 1.375 h 6.4127 6.41271 l -0.16141,2.4375 c -0.0888,1.340625 -0.162,2.818642 -0.16271,3.284482 l -0.001,0.846983 -1.9375,-0.167405 c -1.06563,-0.09207 -2.47188,-0.234582 -3.125,-0.31669 -1.14174,-0.143532 -1.1875,-0.12503 -1.1875,0.4801 0,0.70433 0.24859,0.782883 3.375,1.06648 2.69015,0.244025 2.68737,0.242415 2.50314,1.45366 -0.55069,3.620425 -0.92619,5.562943 -1.11112,5.747867 -0.11669,0.116693 -1.36517,-0.02299 -2.7744,-0.310405 -3.22379,-0.657497 -3.29643,-0.65659 -3.19751,0.03993 0.0701,0.493738 0.41121,0.644228 2.79015,1.231088 1.49064,0.36773 2.76366,0.722 2.82893,0.78727 0.2789,0.2789 -1.65348,6.66965 -2.0161,6.66759 -0.1502,-8.5e-4 -1.44693,-0.34013 -2.88163,-0.75396 -2.57461,-0.74262 -3.25412,-0.72441 -2.94583,0.079 0.0754,0.19639 1.33106,0.78249 2.79046,1.30244 1.45939,0.51995 2.69388,1.01372 2.7433,1.09724 0.0802,0.13562 -2.1985,6.20431 -2.40852,6.41433 -0.047,0.047 -1.31254,-0.41473 -2.81236,-1.02602 -1.49982,-0.61129 -2.82625,-1.11144 -2.94762,-1.11144 -0.12137,0 -0.18472,0.25312 -0.14078,0.5625 0.0622,0.43823 0.64685,0.84037 2.6462,1.82024 l 2.56631,1.25775 -1.30067,2.67975 c -0.71537,1.47387 -1.42021,2.67788 -1.56631,2.67558 -0.2642,-0.004 -1.31021,-0.55573 -7.51385,-3.9622 -1.78652,-0.98099 -3.36893,-1.78362 -3.51647,-1.78362 -0.14754,0 -0.52509,0.45698 -0.839,1.01551 -0.51536,0.91696 -0.53361,1.05646 -0.18803,1.4375 0.21049,0.23209 2.63685,1.71574 5.39191,3.29699 2.75506,1.58125 5.01271,2.93585 5.017,3.01023 0.009,0.15818 -2.12845,3.55928 -2.88793,4.59499 l -0.52074,0.71013 -1.85426,-1.36809 c -2.26317,-1.66979 -2.91321,-2.02611 -3.37381,-1.84936 -0.7312,0.28059 -0.30105,0.92356 1.55861,2.32976 2.46304,1.86245 2.58593,1.96647 2.58593,2.18897 0,0.25499 -3.05094,4.12791 -3.78376,4.80317 l -0.59124,0.54481 -2.0978,-1.85731 c -2.16269,-1.91474 -2.67553,-2.16315 -2.95614,-1.43188 -0.12089,0.31504 0.39834,0.95037 2.00117,2.44862 l 2.16442,2.0232 -2.55583,2.54639 -2.55582,2.54638 -1.8737,-2.12937 c -1.34223,-1.52538 -2.01517,-2.10899 -2.37245,-2.05751 -0.92917,0.13389 -0.64474,0.816 1.22783,2.94454 l 1.86741,2.12268 -0.54954,0.59357 c -0.73601,0.79496 -4.56535,3.78786 -4.83548,3.77926 -0.11774,-0.004 -0.98401,-1.02246 -1.92504,-2.26381 -1.12829,-1.48835 -1.85099,-2.23003 -2.12213,-2.17781 -0.80064,0.15419 -0.54384,0.89528 1.10675,3.19399 l 1.66989,2.32559 -0.59677,0.46018 c -0.91827,0.7081 -4.74068,3.03589 -4.81787,2.93403 -0.0376,-0.0497 -1.33897,-2.30958 -2.89182,-5.02197 -3.71802,-6.49435 -3.22482,-5.93258 -4.61537,-5.257 -0.63069,0.30642 -1.14671,0.67429 -1.14671,0.8175 0,0.39939 1.22403,2.72676 3.72919,7.09065 2.10325,3.6638 2.24476,3.99446 1.83729,4.29314 -0.91427,0.67017 -5.17417,2.6644 -5.24501,2.4554 -0.0406,-0.11994 -0.60773,-1.28682 -1.26019,-2.59307 -0.91208,-1.82603 -1.3163,-2.39347 -1.74878,-2.45489 -0.69511,-0.0987 -0.69951,0.099 -0.036,1.62166 0.28956,0.66453 0.79186,1.90343 1.11623,2.75313 l 0.58975,1.54489 -2.92872,1.13038 c -1.6108,0.62171 -3.08787,1.16401 -3.28238,1.20511 -0.24377,0.0515 -0.67227,-0.77977 -1.37906,-2.67528 -0.83197,-2.23124 -1.11895,-2.75 -1.52134,-2.75 -0.64883,0 -0.57051,0.75442 0.38765,3.73392 0.39692,1.23428 0.69528,2.27054 0.66302,2.30279 -0.0935,0.0935 -5.21494,1.52956 -6.09497,1.70901 -0.90007,0.18353 -0.83735,0.3198 -1.69543,-3.68322 -0.37977,-1.77165 -0.46737,-1.9375 -1.023273,-1.9375 -0.737637,0 -0.73955,0.0554 -0.107947,3.125 0.275,1.33652 0.5,2.57168 0.5,2.74481 0,0.32695 -0.2471,0.38446 -4.35605,1.01377 -1.821162,0.27893 -2.527395,0.30501 -2.655295,0.0981 -0.09583,-0.15506 -0.248745,-1.14249 -0.339797,-2.19429 -0.281335,-3.24982 -0.369436,-3.53735 -1.083888,-3.53735 -0.60513,0 -0.623632,0.0458 -0.4801,1.1875 0.08211,0.65312 0.223003,2.04154 0.3131,3.08537 l 0.163813,1.89787 -2.319298,0.16463 c -1.275613,0.0905 -2.752015,0.16463 -3.28089,0.16463 H 85.125 V 160 153.625 H 83.75 82.375 v 6.375 6.375 l -1.8125,-0.0473 c -0.996875,-0.026 -2.474767,-0.0883 -3.284203,-0.1385 z m 9.459376,-17.91797 c 1.275369,-0.53288 2.770309,-2.21041 3.137017,-3.52015 0.387918,-1.38551 0.18868,-3.07913 -0.53908,-4.58248 -0.437528,-0.90381 -0.7835,-1.21912 -1.897097,-1.72894 -1.208063,-0.55307 -1.613513,-0.61151 -3.587745,-0.51712 -1.224173,0.0585 -2.225768,0.006 -2.225768,-0.11571 0,-0.12217 0.386422,-0.80369 0.858717,-1.51449 0.906603,-1.36443 2.55399,-2.74918 4.340963,-3.64888 1.197542,-0.60294 1.508405,-1.09153 1.047678,-1.64667 -0.461098,-0.55559 -0.851468,-0.47274 -3.35075,0.71119 -2.682163,1.27054 -4.381461,2.8382 -5.665198,5.22633 -0.77775,1.44684 -0.849065,1.77077 -0.939692,4.26832 -0.07713,2.12573 -0.0068,2.94168 0.329555,3.82237 0.976667,2.55737 2.60723,3.58575 5.699257,3.59448 1.124343,0.003 2.302875,-0.14382 2.792143,-0.34825 z M 56.14818,140.29331 c 1.644825,-0.86837 2.555652,-2.31541 2.679255,-4.25656 0.113277,-1.77897 -0.365608,-3.02527 -1.61704,-4.20835 C 56.26721,130.93673 55.37082,130.625 53.75,130.625 c -2.253503,0 -3.64302,0.84851 -4.674352,2.8544 -0.750873,1.46041 -0.556233,3.77523 0.435872,5.18376 0.976117,1.38584 2.558962,2.21184 4.23848,2.21184 0.874685,0 1.654752,-0.18921 2.39818,-0.58169 z m 59.98301,0.0192 c 1.69582,-0.85773 2.58467,-2.31035 2.68362,-4.38578 0.0938,-1.96726 -0.43864,-3.12475 -2.02531,-4.40296 -0.89959,-0.7247 -1.09111,-0.77376 -3.02041,-0.77376 -1.85927,0 -2.16056,0.0697 -3.09321,0.71541 -1.48934,1.03115 -2.13554,2.49484 -2.00519,4.5419 0.0812,1.27561 0.25479,1.82382 0.84083,2.65585 1.49121,2.11713 4.30746,2.81882 6.61967,1.64934 z M 34.540037,118.2261 c 1.4204,-1.06048 2.161828,-2.2667 2.281688,-3.71205 0.16563,-1.9973 -0.1133,-3.04527 -1.101745,-4.13936 -2.439358,-2.70007 -6.830455,-2.1853 -8.532765,1.00031 -0.85574,1.60138 -0.72062,3.80464 0.324305,5.28816 1.118917,1.58858 2.593785,2.2713 4.667987,2.16084 1.195121,-0.0636 1.875923,-0.23609 2.36053,-0.5979 z m 103.571033,0.0859 c 2.48639,-1.31484 3.4998,-4.5078 2.20171,-6.93697 -1.59146,-2.97817 -5.55463,-3.66865 -8.12146,-1.41494 -1.13715,0.99843 -1.56632,2.04144 -1.56632,3.80663 0,2.13899 0.96741,3.72587 2.875,4.71596 1.13007,0.58654 3.33337,0.50498 4.61107,-0.17068 z M 26.492277,91.022977 c 2.670575,-1.299157 4.412015,-2.903944 5.656221,-5.212367 0.791457,-1.468423 0.846412,-1.730437 0.930337,-4.43561 0.08586,-2.767292 0.06223,-2.926352 -0.63066,-4.24573 -0.453318,-0.863195 -1.117228,-1.650015 -1.793053,-2.125 C 29.630462,74.28411 29.466052,74.25 27.01959,74.25 c -2.405743,0 -2.62474,0.04324 -3.583382,0.707582 -1.541148,1.068016 -2.280355,2.29889 -2.469943,4.112763 -0.205869,1.969647 0.316695,3.43746 1.653876,4.645523 1.123957,1.015429 2.37606,1.289194 5.028361,1.099422 0.949573,-0.06794 1.725443,-0.05418 1.724153,0.03059 -0.0013,0.08477 -0.337153,0.737892 -0.74636,1.45139 -0.757457,1.320712 -2.82895,3.031108 -4.813795,3.974665 -0.933494,0.443768 -1.074458,0.705265 -0.785753,1.457617 0.243021,0.633303 1.049087,0.468958 3.46553,-0.706575 z m 116.703253,0.506826 c 0.96545,-0.414273 2.39927,-1.792828 2.70727,-2.60292 0.33806,-0.889168 0.26536,-3.214633 -0.13008,-4.161058 -0.22853,-0.54695 -0.76028,-1.082222 -1.51379,-1.523805 l -1.16151,-0.680695 0.71195,-0.432958 c 0.39156,-0.238127 1.01652,-0.794932 1.38879,-1.237344 0.57843,-0.687433 0.67684,-1.032488 0.67684,-2.373233 0,-2.992163 -1.60657,-4.26779 -5.375,-4.26779 -1.79516,0 -2.45216,0.105473 -3.25,0.521748 -1.24319,0.648627 -2.125,1.906677 -2.125,3.031657 0,1.457752 0.3513,1.821595 1.75879,1.821595 h 1.24121 v -1.016435 c 0,-1.2762 0.31701,-1.876098 1.24499,-2.355977 1.63553,-0.845765 3.17917,-0.04772 3.42293,1.769617 0.25041,1.866943 -0.99642,3.19908 -3.48042,3.718547 -0.55717,0.116518 -0.6875,0.279978 -0.6875,0.862263 0,0.7328 0.36231,1.021985 1.28041,1.021985 0.76393,0 2.35003,0.905293 2.8064,1.601803 0.24874,0.379629 0.41319,1.141547 0.41319,1.914402 0,1.12667 -0.10403,1.387827 -0.85,2.133795 -0.71727,0.717267 -1.0274,0.85 -1.98606,0.85 -1.62429,0 -2.38194,-0.718505 -2.58274,-2.449308 l -0.15364,-1.32431 -1.2742,0.07431 c -1.11944,0.06528 -1.31529,0.160388 -1.61261,0.783073 -0.1992,0.417195 -0.27596,1.04171 -0.18658,1.51811 0.17458,0.930605 1.42551,2.320045 2.52083,2.799947 1.02113,0.447398 5.15519,0.449388 6.19553,0.003 z M 34.540037,58.226103 C 34.914597,57.946452 35.56507,57.29261 35.98553,56.77312 36.701125,55.888975 36.75,55.6957 36.75,53.75 c 0,-1.94219 -0.05017,-2.141633 -0.764493,-3.039295 -1.176705,-1.478717 -2.651577,-2.137023 -4.542864,-2.02769 -1.923533,0.111195 -3.362886,1.02173 -4.255428,2.691985 -0.85574,1.601382 -0.72062,3.804637 0.324305,5.288162 1.118917,1.588575 2.593785,2.271298 4.667987,2.160838 1.195121,-0.06365 1.875923,-0.236085 2.36053,-0.597897 z m 103.571033,0.08586 c 2.48639,-1.314833 3.4998,-4.507798 2.20171,-6.936965 -1.59146,-2.978173 -5.55463,-3.668647 -8.12146,-1.41494 -0.48994,0.43017 -1.04279,1.145898 -1.22856,1.590505 -0.3886,0.930038 -0.44705,3.254425 -0.10451,4.155388 0.3482,0.915835 1.77984,2.447122 2.6371,2.820654 1.22468,0.53363 3.39124,0.432878 4.61572,-0.214642 z M 56.794153,35.972302 c 2.852064,-2.297037 2.788472,-6.40445 -0.130991,-8.460782 -1.483525,-1.044925 -3.68678,-1.180045 -5.288162,-0.324305 -1.670367,0.892602 -2.57849,2.329515 -2.702435,4.27603 -0.11325,1.77854 0.36491,3.023412 1.61704,4.20992 1.042427,0.987795 1.755997,1.203008 3.754548,1.132378 1.580839,-0.05587 1.907795,-0.154936 2.75,-0.833241 z m 59.999997,0.0093 c 2.8068,-2.233347 2.75076,-6.477747 -0.11179,-8.466712 -1.50833,-1.04802 -3.70547,-1.18366 -5.30736,-0.32765 -1.67037,0.892602 -2.57849,2.329515 -2.70243,4.27603 -0.11326,1.77854 0.36491,3.023412 1.61703,4.20992 1.04243,0.987795 1.756,1.203008 3.75455,1.132378 1.57262,-0.05558 1.91218,-0.157318 2.75,-0.823966 z M 82.079105,34.4375 C 82.006277,33.804558 81.866083,33.72222 80.3125,33.399955 L 78.625,33.049908 v -7.5953 c 0,-6.76712 -0.04411,-7.612227 -0.404523,-7.750531 -0.222487,-0.08538 -1.488112,0.151178 -2.8125,0.525676 -1.324387,0.374498 -2.604852,0.736713 -2.845477,0.804923 -0.289018,0.08193 -0.4375,0.372841 -0.4375,0.857171 V 20.625 h 1.879367 1.879368 l -0.06687,6.17926 -0.06687,6.17926 -1.125,0.29763 c -0.61875,0.163698 -1.434375,0.366423 -1.8125,0.450503 -0.52418,0.116557 -0.6875,0.300214 -0.6875,0.773109 V 35.125 H 77.1416 82.158205 Z M 95.625,34 V 32.875 L 93.0625,32.8728 C 91.653125,32.8716 89.931972,32.80236 89.237715,32.718925 L 87.97543,32.56725 90.640035,29.908625 c 1.465533,-1.462245 2.96234,-3.175875 3.326238,-3.808068 1.831954,-3.182624 1.163457,-6.838059 -1.462998,-7.999864 -2.6661,-1.179344 -5.753282,-0.766335 -7.589123,1.015288 -1.143267,1.109505 -1.422044,1.847256 -1.181847,3.127626 0.22997,1.225836 0.737947,1.631393 2.043397,1.631393 1.280548,0 1.540466,-0.341928 1.13785,-1.496872 -0.82253,-2.359507 2.408238,-4.094799 4.230678,-2.272359 0.588795,0.588794 0.73077,0.946966 0.73077,1.843568 0,2.510729 -1.287105,4.53364 -5.541358,8.709208 -2.455282,2.40987 -2.708642,2.7431 -2.708642,3.5625 V 35.125 h 6 6 z"
       id="path4"
       transform="matrix(0.26458333,0,0,0.26458333,-0.09317171,98.332576)" />
    <path
       style="fill:#ffff00;stroke-width:1.33325"
       d="m 82.398697,146.23158 c -0.949233,-0.79873 -1.332401,-2.03776 -1.228652,-3.97302 0.07396,-1.37963 0.143641,-1.53426 0.929426,-2.0625 1.004001,-0.67494 2.64396,-0.7604 3.47133,-0.18088 1.283582,0.89905 1.728176,3.51579 0.895488,5.27055 -0.76723,1.61682 -2.72826,2.07282 -4.067592,0.94585 z"
       id="path5"
       transform="matrix(0.26458333,0,0,0.26458333,-0.09317171,98.332576)" />
    <path
       style="fill:#ffff00;stroke-width:1.33325"
       d="m 25.429199,82.734824 c -1.283582,-0.899056 -1.728176,-3.515794 -0.895488,-5.270554 0.76723,-1.616818 2.72826,-2.07282 4.067592,-0.945846 0.949233,0.798727 1.332401,2.037753 1.228652,3.97302 -0.07396,1.379627 -0.143641,1.534256 -0.929426,2.0625 -1.004001,0.674939 -2.64396,0.760392 -3.47133,0.18088 z"
       id="path6"
       transform="matrix(0.26458333,0,0,0.26458333,-0.09317171,98.332576)" />
  </g>
</svg>
