<?xml version="1.0" encoding="UTF-8" standalone="no"?>
<!-- Created with Inkscape (http://www.inkscape.org/) -->

<svg
   width="44.317707mm"
   height="44.317703mm"
   viewBox="0 0 44.317707 44.317703"
   version="1.1"
   id="svg6511"
   inkscape:version="1.4.2 (ebf0e940d0, 2025-05-08)"
   sodipodi:docname="bg.svg"
   xmlns:inkscape="http://www.inkscape.org/namespaces/inkscape"
   xmlns:sodipodi="http://sodipodi.sourceforge.net/DTD/sodipodi-0.dtd"
   xmlns="http://www.w3.org/2000/svg"
   xmlns:svg="http://www.w3.org/2000/svg">
  <sodipodi:namedview
     id="namedview6513"
     pagecolor="#ffffff"
     bordercolor="#000000"
     borderopacity="0.25"
     inkscape:showpageshadow="2"
     inkscape:pageopacity="0.0"
     inkscape:pagecheckerboard="0"
     inkscape:deskcolor="#d1d1d1"
     inkscape:document-units="mm"
     showgrid="false"
     inkscape:zoom="4"
     inkscape:cx="52.875"
     inkscape:cy="72"
     inkscape:window-width="1920"
     inkscape:window-height="1007"
     inkscape:window-x="0"
     inkscape:window-y="0"
     inkscape:window-maximized="1"
     inkscape:current-layer="layer1"
     showguides="true" />
  <defs
     id="defs6508">
    <clipPath
       clipPathUnits="userSpaceOnUse"
       id="clipPath2426">
      <path
         d="m 8060.68,5204.7 c -93.72,0 -175.9,82.2 -175.9,175.9 0,93.7 82.18,175.9 175.9,175.9 93.72,0 175.91,-82.2 175.91,-175.9 0,-93.7 -82.19,-175.9 -175.91,-175.9 z"
         id="path2424" />
    </clipPath>
    <linearGradient
       x1="0"
       y1="0"
       x2="1"
       y2="0"
       gradientUnits="userSpaceOnUse"
       gradientTransform="matrix(174.538,-302.309,-302.309,-174.538,7973.41,5531.8)"
       spreadMethod="pad"
       id="linearGradient2434">
      <stop
         style="stop-opacity:1;stop-color:#ededed"
         offset="0"
         id="stop2428" />
      <stop
         style="stop-opacity:1;stop-color:#ededed"
         offset="0.48211215"
         id="stop2430" />
      <stop
         style="stop-opacity:1;stop-color:#d0d0d0"
         offset="1"
         id="stop2432" />
    </linearGradient>
    <clipPath
       clipPathUnits="userSpaceOnUse"
       id="clipPath2444">
      <path
         d="m 8060.68,5224.3 c -83.29,0 -156.36,73 -156.36,156.3 0,83.3 73.07,156.4 156.36,156.4 83.3,0 156.37,-73.1 156.37,-156.4 0,-83.3 -73.07,-156.3 -156.37,-156.3 z"
         id="path2442" />
    </clipPath>
    <linearGradient
       x1="0"
       y1="0"
       x2="1"
       y2="0"
       gradientUnits="userSpaceOnUse"
       gradientTransform="matrix(155.141,-268.712,-268.712,-155.141,7983.11,5515)"
       spreadMethod="pad"
       id="linearGradient2452">
      <stop
         style="stop-opacity:1;stop-color:#d0d0d0"
         offset="0"
         id="stop2446" />
      <stop
         style="stop-opacity:1;stop-color:#ededed"
         offset="0.51788785"
         id="stop2448" />
      <stop
         style="stop-opacity:1;stop-color:#ededed"
         offset="1"
         id="stop2450" />
    </linearGradient>
  </defs>
  <g
     inkscape:label="Layer 1"
     inkscape:groupmode="layer"
     id="layer1"
     transform="translate(0.09317171,-98.332576)">
    <path
       d="m 22.06577,98.553074 c -12.0969967,0 -21.93836758,9.841796 -21.93836758,21.938616 0,12.09668 9.84137088,21.93808 21.93836758,21.93808 12.09675,0 21.938191,-9.8414 21.938191,-21.93808 0,-12.09682 -9.841441,-21.938616 -21.938191,-21.938616 z m 0,44.097186 c -12.2185286,0 -22.15885368,-9.94022 -22.15885368,-22.15857 0,-12.21853 9.94032508,-22.159102 22.15885368,-22.159102 12.218458,0 22.158677,9.940572 22.158677,22.159102 0,12.21835 -9.940219,22.15857 -22.158677,22.15857"
       style="fill:#191a1b;fill-opacity:1;fill-rule:nonzero;stroke:none;stroke-width:0.0352778"
       id="path250" />
    <path
       d="m 15.15256,141.42161 0.209868,0.068 0.542396,-1.66907 c -0.07027,-0.0225 -0.139171,-0.0476 -0.208915,-0.0704 z m -2.150427,-0.8376 0.201612,0.0897 0.714622,-1.60553 c -0.06738,-0.0292 -0.133773,-0.0604 -0.200907,-0.0907 z m 6.653847,1.81931 0.219393,0.023 0.183973,-1.74943 c -0.07345,-0.007 -0.146226,-0.0166 -0.21911,-0.0248 z m -2.277357,-0.37388 0.215689,0.0458 0.364631,-1.71553 c -0.07207,-0.0147 -0.142769,-0.0342 -0.214701,-0.0497 z m 4.577433,-1.25592 v 1.76745 h 0.220486 v -1.76745 c -0.0368,0 -0.07317,0.003 -0.110243,0.003 -0.03694,0 -0.07331,-0.003 -0.110243,-0.003 z m -12.9331504,-2.51354 0.1784702,0.1295 1.0350152,-1.42459 c -0.05951,-0.043 -0.12058,-0.0844 -0.179529,-0.12763 z m -1.7855142,-1.46089 0.16383,0.14746 1.1779603,-1.30803 c -0.054998,-0.0488 -0.11176,-0.0956 -0.1660525,-0.14496 z M 1.8813429,122.501 l -1.74762576,0.18384 0.0230364,0.21907 1.74928386,-0.18422 c -0.00815,-0.0729 -0.017392,-0.14524 -0.024695,-0.21869 z m 22.1957891,18.1755 0.184539,1.75507 0.21911,-0.0226 -0.18482,-1.75715 c -0.07302,0.008 -0.145627,0.0172 -0.218829,0.0247 z m -21.878536,-16.07537 -1.71524081,0.36434 0.0458611,0.21594 1.71898021,-0.36544 c -0.015593,-0.0719 -0.034713,-0.14291 -0.0496,-0.21484 z m 1.2921897,4.0411 -1.6044686,0.71438 0.08957,0.20104 1.6055622,-0.71479 c -0.030339,-0.067 -0.061207,-0.13325 -0.090664,-0.20063 z m 2.1225933,6.51782 0.1472847,0.16414 1.3064066,-1.17658 c -0.049354,-0.0543 -0.096203,-0.11105 -0.1451328,-0.16577 z m -1.1669536,-4.62234 -1.5229769,0.87905 0.110243,0.19127 1.52273,-0.87947 c -0.037218,-0.0632 -0.073448,-0.12704 -0.1099961,-0.19085 z m 1.148468,1.7865 -1.4250105,1.03505 0.1293989,0.17843 1.4232113,-1.03367 c -0.043392,-0.0592 -0.084737,-0.1203 -0.1275997,-0.17981 z m -2.8566533,-5.66858 -1.6680038,0.54226 0.068227,0.2092 1.6703322,-0.54254 c -0.023036,-0.0698 -0.048401,-0.13836 -0.070555,-0.20892 z m 37.8137909,2.1849 1.617133,0.72002 0.08961,-0.20147 -1.616428,-0.71974 c -0.02928,0.0678 -0.06032,0.13405 -0.09031,0.20119 z m 0.771877,-1.97778 1.684162,0.54723 0.06809,-0.20959 -1.681692,-0.54613 c -0.02222,0.0699 -0.04727,0.13864 -0.07056,0.20849 z m 1.023762,-6.48229 c 0,0.0375 0.0028,0.0742 0.0028,0.1119 0,0.0362 -0.0028,0.0724 -0.0028,0.10858 h 1.774119 v -0.22048 z m -2.770717,10.34591 1.533878,0.88551 0.110419,-0.19085 -1.53423,-0.88579 c -0.03669,0.0638 -0.07302,0.12802 -0.110067,0.19113 z m -13.399805,9.63263 0.366148,1.72336 0.215653,-0.0463 -0.3671,-1.72642 c -0.07193,0.0152 -0.142629,0.0346 -0.214701,0.0494 z m 16.048813,-17.6385 1.763889,0.18549 0.02293,-0.21939 -1.762125,-0.18521 c -0.0071,0.0733 -0.01658,0.14609 -0.0247,0.21911 z m -0.341841,2.09409 1.732491,0.3682 0.04586,-0.2158 -1.728611,-0.36766 c -0.01482,0.0724 -0.03422,0.14333 -0.04974,0.21526 z m -3.472745,7.68668 1.432278,1.04069 0.129469,-0.17857 -1.434041,-1.04208 c -0.04304,0.0599 -0.08431,0.12073 -0.127706,0.17996 z m -8.194322,6.56554 0.718256,1.61283 0.201436,-0.0896 -0.718609,-1.61434 c -0.06703,0.0303 -0.133702,0.0615 -0.201083,0.0911 z m -1.985821,0.7528 0.544724,1.6764 0.20955,-0.0685 -0.545394,-1.67887 c -0.06985,0.023 -0.138713,0.0484 -0.20888,0.071 z m 3.881649,-1.70889 0.884414,1.53211 0.190853,-0.11038 -0.884062,-1.53141 c -0.0635,0.037 -0.127352,0.0735 -0.191205,0.10968 z m 4.954764,-3.96558 1.314802,1.18361 0.147462,-0.16373 -1.317273,-1.18607 c -0.04868,0.0547 -0.0956,0.1119 -0.144991,0.16619 z m -1.5113,1.49049 1.184627,1.31589 0.164042,-0.14746 -1.182864,-1.31381 c -0.05433,0.0497 -0.111125,0.0967 -0.165805,0.14538 z m -1.65735,1.32676 1.040694,1.43277 0.178506,-0.12954 -1.039284,-1.43083 c -0.05927,0.0437 -0.120297,0.085 -0.179916,0.1276 z m -22.946854,2.56399 0.190888,0.1101 0.879722,-1.52354 c -0.06378,-0.0368 -0.127599,-0.0728 -0.191135,-0.11014 z m 19.266676,-37.60886 c 0.06738,0.0296 0.134056,0.0607 0.200731,0.091 l 0.722136,-1.62136 -0.201436,-0.0893 z m 1.895122,0.95602 c 0.06385,0.0367 0.127706,0.0727 0.191206,0.11007 l 0.887941,-1.53811 -0.190852,-0.11007 z M 1.7815774,120.49236 c 0,-0.0378 0.00265,-0.0744 0.00275,-0.1119 H 0.02389742 v 0.22048 H 1.7843291 c -1.059e-4,-0.0362 -0.00275,-0.0724 -0.00275,-0.10858 z M 28.234125,101.16539 c 0.07017,0.0222 0.138959,0.0473 0.208809,0.0709 l 0.548216,-1.686982 -0.209902,-0.06844 z m -4.152442,-0.8576 c 0.07345,0.007 0.145944,0.0169 0.219111,0.0247 l 0.185631,-1.765295 -0.219392,-0.02258 z m 11.474309,5.04014 c 0.05503,0.049 0.11183,0.0956 0.166158,0.14534 l 1.187097,-1.31833 -0.164041,-0.14746 z m -9.37581,-4.72264 c 0.07232,0.0152 0.142875,0.0342 0.214947,0.0497 l 0.368653,-1.734253 -0.215688,-0.04621 z m 14.461807,11.71751 1.619603,-0.72107 -0.08961,-0.20109 -1.620661,0.72179 c 0.02999,0.0667 0.06103,0.13335 0.09066,0.20037 z m -2.109258,-6.52744 -0.147461,-0.16404 -1.318331,1.18709 c 0.04939,0.0543 0.09631,0.11113 0.144992,0.16581 z m 3.717572,12.66507 1.762478,-0.18563 -0.02293,-0.21897 -1.764242,0.18549 c 0.0081,0.073 0.01764,0.1458 0.0247,0.21911 z m -0.856545,-4.15216 1.683809,-0.54723 -0.06809,-0.20919 -1.686278,0.54751 c 0.02328,0.0703 0.04833,0.1386 0.07055,0.20891 z m 0.539398,2.05243 1.730022,-0.36767 -0.04586,-0.21551 -1.733903,0.36862 c 0.01552,0.0721 0.03457,0.14263 0.04974,0.21456 z m -3.394428,-7.71878 1.437922,-1.04493 -0.129469,-0.1785 -1.436511,1.04351 c 0.04374,0.0593 0.08502,0.1203 0.128058,0.17992 z m 1.147586,1.78541 1.538111,-0.88794 -0.110067,-0.19121 -1.538111,0.88794 c 0.03704,0.0635 0.07373,0.12736 0.110067,0.19121 z M 21.956056,100.21042 c 0.03694,0 0.07331,-0.003 0.110243,-0.003 0.03708,0 0.07345,0.003 0.110243,0.003 v -1.766707 h -0.220486 z m 11.943292,3.81106 c 0.05997,0.043 0.12065,0.0843 0.179563,0.12806 l 1.04387,-1.43686 -0.178153,-0.12947 z M 5.6112976,105.821 6.922502,107.00175 c 0.04893,-0.055 0.095779,-0.11183 0.1450975,-0.16616 l -1.3088408,-1.17863 z m 0.1123244,2.65783 -1.4257513,-1.03576 -0.1293989,0.17851 1.4272683,1.03717 c 0.042827,-0.0596 0.084173,-0.12065 0.1278819,-0.17992 z m -2.141361,3.66042 -1.6084197,-0.71578 -0.089606,0.20108 1.6072203,0.71543 c 0.029633,-0.067 0.060501,-0.1337 0.090805,-0.20073 z m 16.473205,-11.83181 -0.184221,-1.754013 -0.21911,0.02293 0.184362,1.755423 c 0.0732,-0.008 0.145803,-0.0173 0.218969,-0.0243 z m -18.1491817,17.95318 -1.75023632,-0.18408 -0.0230011,0.21911 1.74871942,0.18408 c 0.00716,-0.0735 0.016686,-0.14605 0.024518,-0.21911 z m 0.3427236,-2.09614 -1.72046188,-0.36558 -0.0458964,0.21565 1.71675778,0.36505 c 0.015028,-0.0726 0.033902,-0.14319 0.0496,-0.21512 z m 0.5607403,-2.04787 -1.6733661,-0.54367 -0.068192,0.20948 1.6708613,0.54296 c 0.022472,-0.0702 0.047554,-0.13864 0.070697,-0.20877 z m 1.7476258,-3.86331 -1.5257639,-0.88088 -0.110243,0.19085 1.5261872,0.88124 c 0.036512,-0.0635 0.072602,-0.12771 0.1098197,-0.19121 z m 11.346074,-9.08967 -0.543772,-1.673578 -0.209867,0.06809 0.544724,1.676398 c 0.06974,-0.0233 0.138642,-0.0487 0.208915,-0.0709 z m -1.985186,0.75212 -0.716598,-1.60972 -0.201612,0.0896 0.717126,1.61079 c 0.06699,-0.0303 0.133668,-0.061 0.201084,-0.0907 z m 4.038458,-1.29152 -0.365865,-1.721553 -0.215654,0.04621 0.366678,1.725083 c 0.07179,-0.0155 0.142628,-0.0346 0.214841,-0.0497 z m -8.9365661,2.0955 1.0368141,1.42699 c 0.05898,-0.0434 0.12005,-0.0847 0.179564,-0.12806 l -1.0379431,-1.4284 z m 3.0023151,0.1517 -0.882227,-1.52859 -0.190852,0.11042 0.881944,1.52788 c 0.06339,-0.037 0.127353,-0.0734 0.191135,-0.10971 z m -4.7878292,1.30951 1.1786305,1.30916 c 0.054292,-0.0494 0.1113367,-0.096 0.1660525,-0.145 l -1.1807119,-1.31162 -0.1639711,0.14746"
       style="fill:#191a1b;fill-opacity:1;fill-rule:nonzero;stroke:none;stroke-width:0.0352778"
       id="path252" />
    <path
       d="m 31.256689,137.06935 1.549753,2.68358 0.572911,-0.33059 -1.549047,-2.68319 c -0.188736,0.11398 -0.380647,0.22296 -0.573617,0.3302 z m -9.521119,2.37557 v 3.09605 h 0.661458 v -3.09605 c -0.110384,0.002 -0.219639,0.009 -0.330729,0.009 -0.110772,0 -0.220204,-0.007 -0.330729,-0.009 z m 19.283538,-19.28495 c 0.0018,0.11123 0.0085,0.22091 0.0085,0.33239 0,0.11038 -0.0067,0.21939 -0.0085,0.32907 h 3.102681 v -0.66146 z M 2.8132054,131.2259 3.1439346,131.79889 5.817849,130.25506 C 5.7043251,130.06601 5.5954579,129.87445 5.4881076,129.6818 Z m 35.5022146,-0.97331 2.685344,1.55014 0.330553,-0.57256 -2.68605,-1.55042 c -0.107245,0.19265 -0.2159,0.38446 -0.329847,0.57284 z m -27.554273,9.1634 0.572876,0.33087 1.544779,-2.67546 c -0.192934,-0.10749 -0.384634,-0.21622 -0.573405,-0.33017 z M 31.2581,103.91494 c 0.192617,0.1076 0.384528,0.21661 0.573264,0.3302 l 1.552575,-2.68922 -0.572911,-0.33091 z m -9.52253,-2.37631 c 0.110525,-0.002 0.219957,-0.008 0.330729,-0.008 0.11109,0 0.220345,0.006 0.330729,0.008 V 98.443713 H 21.73557 Z m 19.599275,8.21161 -0.330906,-0.57291 -2.689225,1.55293 c 0.113947,0.18838 0.222603,0.38029 0.329847,0.57291 z m -38.523721,0.004 2.6779361,1.54623 c 0.1073503,-0.19262 0.2162175,-0.38453 0.3299178,-0.57292 l -2.6771247,-1.54587 z m 10.067396,-5.84129 -1.547248,-2.68006 -0.572876,0.33056 1.546578,2.67934 c 0.188947,-0.11359 0.380611,-0.22295 0.573546,-0.32984 z m -9.774026,16.57953 c 0,-0.11148 0.00663,-0.22116 0.00857,-0.33239 H 0.02389742 v 0.66146 H 3.1129254 c -0.0018,-0.10968 -0.00843,-0.21869 -0.00843,-0.32907"
       style="fill:#191a1b;fill-opacity:1;fill-rule:nonzero;stroke:none;stroke-width:0.0352778"
       id="path254" />
    <path
       d="m 22.06577,100.31696 c -11.124212,0 -20.1744787,9.05052 -20.1744787,20.17473 0,11.12407 9.0502667,20.17419 20.1744787,20.17419 11.124141,0 20.174302,-9.05012 20.174302,-20.17419 0,-11.12421 -9.050161,-20.17473 -20.174302,-20.17473 z m 0,40.56941 c -11.24592,0 -20.3949648,-9.14894 -20.3949648,-20.39468 0,-11.24592 9.1490448,-20.39521 20.3949648,-20.39521 11.24585,0 20.394788,9.14929 20.394788,20.39521 0,11.24574 -9.148938,20.39468 -20.394788,20.39468"
       style="fill:#191a1b;fill-opacity:1;fill-rule:nonzero;stroke:none;stroke-width:0.0352778"
       id="path256" />
    <path
       d="m 37.235214,118.09238 c 0.01764,0.1542 0.0441,0.29559 0.12312,0.42788 h 2.380544 c 0.07514,-0.13229 0.106186,-0.29986 0.123825,-0.45392 l 0.176389,0.0218 v 1.30499 l -0.176389,-0.0265 c -0.01764,-0.15419 -0.0441,-0.29531 -0.123825,-0.4276 h -2.380544 c -0.07479,0.13229 -0.105481,0.29986 -0.12312,0.45406 l -0.176389,-0.0219 v -1.30486 l 0.176389,0.026"
       style="fill:#191a1b;fill-opacity:1;fill-rule:nonzero;stroke:none;stroke-width:0.0352778"
       id="path266" />
    <path
       d="m 37.235214,119.86082 c 0.01764,0.1542 0.0441,0.29531 0.12312,0.4276 h 2.380544 c 0.07514,-0.13229 0.106186,-0.29986 0.123825,-0.45434 l 0.176389,0.0222 v 1.30485 l -0.176389,-0.0265 c -0.01764,-0.15406 -0.0441,-0.29517 -0.123825,-0.42746 h -2.380544 c -0.07479,0.13229 -0.105481,0.29986 -0.12312,0.45392 l -0.176389,-0.0218 v -1.30527 l 0.176389,0.0267"
       style="fill:#191a1b;fill-opacity:1;fill-rule:nonzero;stroke:none;stroke-width:0.0352778"
       id="path268" />
    <path
       d="m 37.235214,121.62897 c 0.01764,0.15448 0.0441,0.29531 0.12312,0.42761 h 2.380544 c 0.07514,-0.1323 0.106186,-0.29958 0.123825,-0.45406 l 0.176389,0.0222 v 1.305 l -0.176389,-0.0265 c -0.01764,-0.15462 -0.0441,-0.29531 -0.123825,-0.4276 h -2.380544 c -0.07479,0.13229 -0.105481,0.29944 -0.12312,0.45406 l -0.176389,-0.0223 v -1.30485 l 0.176389,0.0264"
       style="fill:#191a1b;fill-opacity:1;fill-rule:nonzero;stroke:none;stroke-width:0.0352778"
       id="path270" />
    <path
       d="m 24.126204,138.16928 c 0.08819,0.0575 0.220486,0.0974 0.357328,0.1192 l -0.02205,0.17639 h -1.256489 l 0.0266,-0.17639 c 0.15434,-0.0176 0.295169,-0.0441 0.427461,-0.12375 l -0.762741,-2.10288 -0.762635,2.10743 c 0.132186,0.0706 0.295451,0.10156 0.445382,0.1192 l -0.02205,0.17639 h -1.155206 l 0.02646,-0.17639 c 0.136702,-0.0176 0.273262,-0.0441 0.392324,-0.12375 l 1.00958,-2.67999 h 0.282222 l 1.013813,2.68454"
       style="fill:#191a1b;fill-opacity:1;fill-rule:nonzero;stroke:none;stroke-width:0.0352778"
       id="path278" />
    <path
       d="m 21.154333,135.66113 c -0.15434,0.0176 -0.295451,0.0441 -0.427743,0.12305 v 2.38055 c 0.132292,0.0751 0.299861,0.10611 0.454061,0.12375 l -0.02205,0.17639 h -1.304854 l 0.02646,-0.17639 c 0.15434,-0.0176 0.29531,-0.0441 0.427602,-0.12375 v -2.38055 c -0.132292,-0.0748 -0.299861,-0.10541 -0.45406,-0.12305 l 0.02205,-0.17639 h 1.304855 l -0.02632,0.17639"
       style="fill:#191a1b;fill-opacity:1;fill-rule:nonzero;stroke:none;stroke-width:0.0352778"
       id="path280" />
    <path
       d="m 6.8966081,122.68096 c -0.017639,-0.15448 -0.044097,-0.29531 -0.1233664,-0.42761 H 4.3925562 c -0.074965,0.1323 -0.1058333,0.29987 -0.1236133,0.45407 l -0.1761067,-0.0219 v -1.30528 l 0.1761067,0.0265 c 0.01778,0.15448 0.044097,0.29531 0.1236133,0.4276 h 2.3806855 c 0.074965,-0.13229 0.1057275,-0.29944 0.1233664,-0.45406 l 0.1763889,0.0223 v 1.30486 l -0.1763889,-0.0265"
       style="fill:#191a1b;fill-opacity:1;fill-rule:nonzero;stroke:none;stroke-width:0.0352778"
       id="path296" />
    <path
       d="m 6.8966081,121.1421 c -0.017639,-0.25576 -0.079269,-0.39687 -0.238125,-0.51607 l -1.0711744,-0.80684 -1.1594747,0.83785 c -0.1014236,0.0748 -0.1368425,0.16728 -0.1588911,0.42333 l -0.1761067,-0.0222 v -1.32719 l 0.1761067,0.0269 c 0.01778,0.18478 0.061877,0.30868 0.128023,0.37454 l 0.8465256,-0.60812 -0.8509353,-0.63955 c -0.070414,0.11038 -0.1058333,0.22049 -0.1236133,0.37497 l -0.1761067,-0.0222 v -1.07142 l 0.1761067,0.026 c 0.01778,0.21636 0.061877,0.32674 0.1763889,0.41039 l 1.0140949,0.76232 1.2078759,-0.87242 c 0.1234722,-0.0882 0.202953,-0.24268 0.2293055,-0.4498 l 0.1763889,0.0222 v 1.34028 l -0.1763889,-0.0269 c 0,-0.2067 -0.030868,-0.33017 -0.1322917,-0.40997 l -0.9565216,0.69219 0.9697508,0.73201 c 0.083891,-0.0575 0.1190625,-0.1936 0.1190625,-0.4451 l 0.1763889,0.0218 v 1.19944 l -0.1763889,-0.0265"
       style="fill:#191a1b;fill-opacity:1;fill-rule:nonzero;stroke:none;stroke-width:0.0352778"
       id="path298" />
    <path
       d="m 18.774318,105.32217 c 0.255764,-0.0176 0.396875,-0.0794 0.515796,-0.23812 l 0.806697,-1.07103 -0.837423,-1.15959 c -0.07497,-0.10124 -0.167711,-0.13687 -0.423334,-0.15875 l 0.02205,-0.17603 h 1.326903 l -0.02632,0.17603 c -0.185209,0.0173 -0.308681,0.0614 -0.374827,0.12771 l 0.608401,0.84667 0.639127,-0.8509 c -0.109961,-0.0706 -0.220204,-0.10619 -0.374544,-0.12348 l 0.02205,-0.17603 h 1.071139 l -0.02632,0.17603 c -0.216218,0.0173 -0.326179,0.0614 -0.410104,0.17639 l -0.7626,1.01389 0.872843,1.20756 c 0.08819,0.12382 0.242534,0.20355 0.449791,0.22965 l -0.02205,0.17639 h -1.340415 l 0.0266,-0.17639 c 0.207257,0 0.330588,-0.031 0.409963,-0.13229 l -0.692186,-0.95638 -0.731872,0.96943 c 0.05733,0.084 0.194027,0.11924 0.44524,0.11924 l -0.02205,0.17639 H 18.74786 l 0.02646,-0.17639"
       style="fill:#191a1b;fill-opacity:1;fill-rule:nonzero;stroke:none;stroke-width:0.0352778"
       id="path306" />
    <path
       d="m 22.107927,105.32217 c 0.15434,-0.0176 0.29531,-0.0441 0.427602,-0.12347 v -2.38054 c -0.132292,-0.0751 -0.299861,-0.10619 -0.453919,-0.12348 l 0.02205,-0.17603 h 1.304855 l -0.02646,0.17603 c -0.15434,0.0173 -0.29531,0.0441 -0.427602,0.12348 v 2.38054 c 0.132292,0.0751 0.29972,0.10583 0.454061,0.12347 l -0.02205,0.17639 H 22.08161 l 0.02632,-0.17639"
       style="fill:#191a1b;fill-opacity:1;fill-rule:nonzero;stroke:none;stroke-width:0.0352778"
       id="path308" />
    <path
       d="m 23.876508,105.32217 c 0.15434,-0.0176 0.295169,-0.0441 0.427461,-0.12347 v -2.38054 c -0.132292,-0.0751 -0.29972,-0.10619 -0.454061,-0.12348 l 0.02205,-0.17603 h 1.304995 l -0.0266,0.17603 c -0.15434,0.0173 -0.295169,0.0441 -0.427461,0.12348 v 2.38054 c 0.132292,0.0751 0.29972,0.10583 0.45406,0.12347 l -0.02205,0.17639 h -1.304996 l 0.0266,-0.17639"
       style="fill:#191a1b;fill-opacity:1;fill-rule:nonzero;stroke:none;stroke-width:0.0352778"
       id="path310" />
    <path
       style="fill:#fff6d5;stroke-width:1.33325"
       d="m 78.375,159.70595 c -9.425862,-0.68455 -18.851352,-3.22598 -27.686243,-7.46517 l -3.811242,-1.82872 1.123742,-1.90073 c 0.618058,-1.0454 1.122876,-1.98187 1.121818,-2.08103 -0.0023,-0.21204 -1.859618,-1.3053 -2.217593,-1.3053 -0.135002,0 -0.71122,0.84375 -1.280482,1.875 -0.569263,1.03125 -1.088788,1.875 -1.154503,1.875 -0.165982,0 -4.377827,-2.82343 -6.004802,-4.02534 -6.69618,-4.94676 -13.322094,-11.92601 -18.097533,-19.0626 -1.438549,-2.14982 -1.743,-2.76005 -1.46676,-2.93994 0.191729,-0.12486 1.051723,-0.62517 1.911098,-1.1118 0.859375,-0.48664 1.5625,-1.00663 1.5625,-1.15555 0,-0.21293 -0.78045,-1.67731 -1.158833,-2.17435 -0.0396,-0.052 -0.98581,0.42313 -2.102682,1.05592 l -2.030675,1.1505 -1.826158,-3.80592 C 10.760838,107.43613 8.3882,98.300917 7.7263538,87.8125 L 7.5567656,85.125 H 9.8408828 12.125 V 83.75 82.375 H 9.8408828 7.5567656 L 7.7263538,79.6875 C 8.3882,69.199083 10.760838,60.06387 15.256652,50.69408 l 1.826158,-3.80592 2.030675,1.150505 c 1.116872,0.63278 2.063079,1.107943 2.102682,1.05592 0.378383,-0.497042 1.158833,-1.961427 1.158833,-2.174357 0,-0.148918 -0.703125,-0.668911 -1.5625,-1.155546 -0.859375,-0.486632 -1.718336,-0.986302 -1.908801,-1.11038 -0.272918,-0.177787 0.05654,-0.827264 1.554766,-3.064947 C 24.948708,34.882913 30.389364,29.016782 37,23.754224 38.632873,22.454338 44.211815,18.625 44.472743,18.625 c 0.06448,0 0.582994,0.84375 1.152257,1.875 0.569262,1.03125 1.14548,1.875 1.280482,1.875 0.344971,0 2.215258,-1.089523 2.217593,-1.291843 0.0011,-0.09176 -0.506545,-1.026885 -1.12801,-2.078048 L 46.86513,17.093904 50.682565,15.2622 C 60.05154,10.766721 69.216727,8.3780498 79.5625,7.7353826 L 82.375,7.5606734 V 9.8428367 12.125 h 1.375 1.375 V 9.8408828 7.5567656 l 2.6875,0.1695882 c 10.504283,0.6628473 19.62176,3.0334852 29.03078,7.5482972 3.80436,1.825477 3.83954,1.849884 3.47385,2.409752 -0.73628,1.127216 -2.00049,3.46499 -1.90992,3.531809 0.42829,0.315965 2.04285,1.158788 2.21985,1.158788 0.12291,0 0.62162,-0.703125 1.10826,-1.5625 0.48663,-0.859375 0.98694,-1.719369 1.1118,-1.911098 0.17986,-0.276195 0.79048,0.02928 2.93994,1.47078 8.53312,5.722567 15.68867,12.876346 21.30581,21.300526 0.98017,1.469989 1.78213,2.727734 1.78213,2.794987 0,0.06726 -0.84375,0.588042 -1.875,1.157305 -1.03125,0.569262 -1.87531,1.111517 -1.8757,1.205013 -0.001,0.303692 1.11989,2.294987 1.29211,2.294987 0.092,0 1.02019,-0.504258 2.06265,-1.120575 l 1.89537,-1.120572 1.14739,2.284592 c 2.81131,5.597652 5.24937,12.299782 6.46642,17.775938 0.80599,3.626559 1.54659,8.884522 1.77729,12.618117 l 0.1738,2.8125 h -2.28217 -2.28216 v 1.375 1.375 h 2.25 2.25 l -0.002,0.9375 c -0.005,2.010828 -0.52902,6.862735 -1.13455,10.496442 -1.1554,6.933528 -3.28523,13.573928 -6.49766,20.258498 l -1.83456,3.81743 -1.9112,-1.12993 c -1.05116,-0.62147 -1.98648,-1.12994 -2.07848,-1.12994 -0.17222,0 -1.29335,1.99129 -1.29211,2.29499 3.9e-4,0.0935 0.84445,0.63575 1.8757,1.20501 1.03125,0.56926 1.875,1.09005 1.875,1.1573 0,0.0673 -0.80196,1.325 -1.78213,2.79499 -5.60333,8.40348 -12.79366,15.59202 -21.30581,21.30053 -2.14946,1.4415 -2.76008,1.74697 -2.93994,1.47078 -0.12486,-0.19173 -0.62517,-1.05173 -1.1118,-1.9111 -0.48664,-0.85938 -0.98535,-1.5625 -1.10826,-1.5625 -0.17778,0 -1.80014,0.84752 -2.22164,1.16059 -0.052,0.0386 0.42313,0.98405 1.05592,2.10092 l 1.1505,2.03068 -3.80592,1.82616 c -9.36979,4.49581 -18.505003,6.86845 -28.99342,7.53029 l -2.6875,0.16959 V 157.65912 155.375 H 83.75 82.375 v 2.25 2.25 l -1.4375,-0.0437 c -0.790625,-0.024 -1.94375,-0.0804 -2.5625,-0.12537 z m 2,-7.9355 c 0,-0.0575 0.063,-0.26872 0.139993,-0.46937 0.100822,-0.26274 -0.110576,-0.41182 -0.755593,-0.53282 l -0.895583,-0.16802 0.06809,-4.55012 c 0.06744,-4.50615 0.07354,-4.55089 0.63114,-4.63008 0.309678,-0.044 0.67926,-0.2971 0.821298,-0.5625 0.247588,-0.46263 0.14879,-0.48254 -2.39388,-0.48254 -2.365302,0 -2.643243,0.0461 -2.569982,0.42654 0.04518,0.23459 0.362802,0.4927 0.705829,0.57356 l 0.623688,0.14703 0.06806,4.53035 0.06806,4.53035 -0.75556,0.16595 c -0.520867,0.1144 -0.755557,0.31509 -0.755557,0.64608 0,0.44151 0.201143,0.48014 2.5,0.48014 1.375,0 2.5,-0.0471 2.5,-0.10455 z m 5.44404,-0.41156 c 0.05004,-0.26182 -0.209968,-0.46844 -0.786478,-0.625 L 84.171328,150.5 l 1.288384,-3.5625 c 0.708613,-1.95938 1.35145,-3.5625 1.428526,-3.5625 0.07707,0 0.696252,1.53743 1.37595,3.41652 0.679697,1.87909 1.267542,3.49303 1.306325,3.58654 0.03878,0.0935 -0.297946,0.27569 -0.748283,0.40484 -0.450337,0.12916 -0.855942,0.42771 -0.901345,0.66346 -0.0735,0.38168 0.190165,0.42864 2.406625,0.42864 2.255155,0 2.501125,-0.0457 2.616285,-0.48608 0.09752,-0.37292 -0.03167,-0.52095 -0.554948,-0.63588 -0.611499,-0.13431 -0.806105,-0.47844 -1.881052,-3.32642 C 87.65061,139.85676 87.8964,140.375 87.16334,140.375 c -0.639598,0 -0.748015,0.21446 -2.55931,5.0625 -1.815885,4.86033 -1.92312,5.07205 -2.685225,5.3017 -0.515567,0.15536 -0.793805,0.39962 -0.793805,0.69688 0,0.41574 0.211675,0.4511 2.309642,0.3858 1.858893,-0.0579 2.324233,-0.14821 2.384398,-0.46299 z M 141.37533,92.246948 141.50451,91.5 l 4.5225,-0.06799 4.52251,-0.06799 0.2341,0.816278 c 0.12876,0.448953 0.42699,0.853422 0.66274,0.898825 0.38303,0.07376 0.42864,-0.19872 0.42864,-2.560785 0,-2.407963 -0.0413,-2.64333 -0.46384,-2.64333 -0.30888,0 -0.5416,0.271435 -0.69663,0.8125 l -0.2328,0.8125 -4.41973,0.06823 -4.41973,0.06824 -0.21193,-0.817852 c -0.11736,-0.4529 -0.40011,-0.85409 -0.63363,-0.899063 -0.37429,-0.07208 -0.42171,0.218073 -0.42171,2.580448 0,2.395863 0.0435,2.653285 0.43557,2.577777 0.25864,-0.04981 0.48805,-0.387302 0.56476,-0.830829 z m -124.624109,-0.877505 0.165948,-0.75556 4.530351,0.06806 4.53035,0.06806 0.147026,0.623688 c 0.08086,0.343027 0.338969,0.660652 0.573565,0.705829 0.379015,0.07299 0.426539,-0.195465 0.426539,-2.409439 0,-1.970208 -0.0775,-2.521323 -0.370348,-2.633701 -0.259847,-0.09971 -0.432359,0.09744 -0.578183,0.660755 L 25.968633,88.5 l -4.525732,0.06806 -4.525732,0.06806 -0.160364,-0.730135 c -0.09362,-0.426272 -0.36251,-0.782997 -0.646085,-0.857154 -0.457981,-0.119763 -0.48572,0.02156 -0.48572,2.474577 0,2.399052 0.03738,2.601595 0.480136,2.601595 0.330997,0 0.531683,-0.23469 0.646085,-0.755557 z M 27.125,84 c 0,-1.885405 -0.07321,-2.375 -0.355136,-2.375 -0.195325,0 -0.430573,0.34346 -0.522773,0.763243 -0.0922,0.419782 -0.259641,0.729157 -0.372092,0.6875 -0.112451,-0.04166 -0.895804,-0.614738 -1.740784,-1.27351 l -1.536327,-1.197766 1.514258,-1.114734 C 24.944988,78.87663 25.736445,78.375 25.870939,78.375 c 0.134494,0 0.313081,0.27311 0.39686,0.60691 0.08378,0.333803 0.310922,0.66777 0.504763,0.742155 0.29005,0.111303 0.352438,-0.35017 0.352438,-2.60691 0,-2.26847 -0.06465,-2.742155 -0.374283,-2.742155 -0.205856,0 -0.515231,0.336822 -0.6875,0.748495 -0.201592,0.481745 -1.159621,1.35687 -2.688217,2.455592 L 21,79.286187 18.934674,77.768092 C 17.463933,76.687043 16.825179,76.052077 16.715924,75.5625 16.615277,75.111495 16.401253,74.875 16.09375,74.875 15.672181,74.875 15.625,75.08889 15.625,77 c 0,1.88266 0.05152,2.125 0.45174,2.125 0.249971,0 0.557041,-0.275625 0.6875,-0.617098 L 17,77.890807 l 1.454115,1.096935 1.454115,1.096938 -1.421049,1.04979 c -1.116408,0.82474 -1.467512,0.976445 -1.637786,0.70766 C 16.730188,81.653958 16.630934,81.359375 16.628828,81.1875 16.626723,81.015625 16.4,80.875 16.125,80.875 c -0.468254,0 -0.5,0.166668 -0.5,2.625 0,2.4 0.04018,2.625 0.46875,2.625 0.311138,0 0.515295,-0.231162 0.607178,-0.6875 0.101675,-0.504965 0.711511,-1.103737 2.29688,-2.25521 1.187147,-0.86224 2.256405,-1.59349 2.376128,-1.625 0.119723,-0.03151 1.17868,0.663913 2.35324,1.54538 1.560765,1.171305 2.20972,1.82737 2.411082,2.4375 0.151535,0.459158 0.435543,0.83483 0.63113,0.83483 0.282527,0 0.355612,-0.488105 0.355612,-2.375 z m 114.30534,1.431385 0.21193,-0.817852 4.42886,0.06824 4.42887,0.06823 0.2392,0.8125 c 0.15476,0.525672 0.39746,0.8125 0.6875,0.8125 0.4026,0 0.4483,-0.267575 0.4483,-2.625 0,-2.357425 -0.0457,-2.625 -0.4483,-2.625 -0.29004,0 -0.53274,0.286827 -0.6875,0.8125 L 150.5,82.75 h -4.48411 -4.4841 l -0.21055,-0.8125 c -0.11742,-0.453148 -0.37323,-0.8125 -0.57839,-0.8125 -0.30061,0 -0.36785,0.483198 -0.36785,2.64333 0,2.345177 0.0476,2.634172 0.42171,2.562118 0.23352,-0.04497 0.51627,-0.446163 0.63363,-0.899063 z m 0,-6.75 0.21193,-0.817852 4.41973,0.06824 4.41973,0.06823 0.2328,0.8125 c 0.15503,0.541065 0.38775,0.8125 0.69663,0.8125 0.42086,0 0.46384,-0.231643 0.46384,-2.5 0,-1.375 -0.0471,-2.5 -0.10455,-2.5 -0.0575,0 -0.26872,-0.063 -0.46937,-0.139993 -0.26274,-0.100822 -0.41182,0.110576 -0.53282,0.755593 l -0.16802,0.895583 -4.55012,-0.06809 c -4.50615,-0.06744 -4.55089,-0.07354 -4.63008,-0.63114 -0.044,-0.309678 -0.2971,-0.67926 -0.5625,-0.821298 -0.46263,-0.247588 -0.48254,-0.14879 -0.48254,2.39388 0,2.35343 0.0475,2.64298 0.42171,2.570913 0.23352,-0.04497 0.51627,-0.446163 0.63363,-0.899063 z M 75.875,26.786165 c 0,-0.186359 -0.346608,-0.439484 -0.770242,-0.5625 L 74.334518,26 l 1.292907,-1.706371 1.292907,-1.70637 1.102333,1.51493 c 0.606285,0.833211 1.102335,1.62706 1.102335,1.764107 0,0.137048 -0.28125,0.319767 -0.625,0.406043 -0.34375,0.08628 -0.625,0.313419 -0.625,0.504763 0,0.275108 0.54922,0.347898 2.625,0.347898 2.164433,0 2.625,-0.06567 2.625,-0.374283 0,-0.205856 -0.330878,-0.515231 -0.735282,-0.6875 C 81.932425,25.868418 81.002395,24.852083 79.92978,23.375 L 78.205125,21 79.704022,19.026078 C 80.5917,17.857084 81.49287,16.942712 81.91396,16.783768 82.328677,16.62723 82.625,16.32985 82.625,16.070191 82.625,15.678187 82.371127,15.625 80.5,15.625 c -1.88266,0 -2.125,0.05152 -2.125,0.45174 0,0.249971 0.275625,0.557041 0.617097,0.6875 L 79.609193,17 78.515065,18.450361 77.420937,19.900722 76.378107,18.450361 75.335278,17 l 0.62665,-0.229356 c 0.344655,-0.126145 0.681529,-0.439229 0.748609,-0.695742 0.114218,-0.43677 -0.04716,-0.461894 -2.541322,-0.395644 -2.217455,0.0589 -2.67623,0.138351 -2.740608,0.474621 -0.05244,0.273904 0.157055,0.450753 0.650973,0.549537 0.55836,0.111672 1.086987,0.647128 2.265605,2.294868 0.845523,1.182065 1.56375,2.245215 1.596065,2.362554 0.03231,0.11734 -0.64918,1.17389 -1.514425,2.347889 -1.185395,1.608387 -1.78623,2.204857 -2.4375,2.419796 -0.47538,0.156889 -0.864325,0.445278 -0.864325,0.640865 0,0.282527 0.488105,0.355612 2.375,0.355612 1.83178,0 2.375,-0.0775 2.375,-0.338835 z m 12.955448,-0.08287 c -0.04497,-0.233528 -0.446163,-0.516276 -0.899063,-0.633634 L 87.113533,25.857733 87.181768,21.428866 87.25,17 88.0625,16.760801 c 0.533155,-0.15696 0.8125,-0.396337 0.8125,-0.696246 0,-0.417607 -0.22087,-0.450899 -2.559568,-0.385801 -2.130917,0.05931 -2.572625,0.139462 -2.637522,0.478574 -0.05594,0.292322 0.172635,0.454339 0.80957,0.573829 l 0.88752,0.166499 v 4.496518 c 0,4.06423 -0.04206,4.509515 -0.4375,4.63171 -0.733513,0.226662 -1.15289,0.495286 -1.255953,0.804477 -0.0713,0.213897 0.631863,0.294639 2.56595,0.294639 2.364723,0 2.655038,-0.0474 2.582951,-0.421707 z m 6.75,0 c -0.04497,-0.233528 -0.446163,-0.516276 -0.899063,-0.633634 L 93.863533,25.857733 93.931768,21.428866 94,17 94.8125,16.760801 c 0.525672,-0.154758 0.8125,-0.397458 0.8125,-0.6875 C 95.625,15.670697 95.357425,15.625 93,15.625 c -2.357425,0 -2.625,0.0457 -2.625,0.448301 0,0.290042 0.286827,0.532742 0.8125,0.6875 L 92,17 v 4.484108 4.484108 l -0.8125,0.21054 c -0.453148,0.117422 -0.8125,0.373234 -0.8125,0.578392 0,0.300609 0.483198,0.367852 2.64333,0.367852 2.345177,0 2.634172,-0.04757 2.562118,-0.421707 z"
       id="path1"
       transform="matrix(0.26458333,0,0,0.26458333,-0.09317171,98.332576)" />
    <path
       style="fill:#fff6d5;stroke-width:1.33325"
       d="m 78.574835,159.59953 c -8.026863,-0.51296 -16.763712,-2.66071 -24.812163,-6.0995 -2.830125,-1.2092 -6.637672,-3.05921 -6.637672,-3.2251 0,-0.052 0.45,-0.86455 1,-1.80574 0.55,-0.94119 1,-1.84255 1,-2.00303 0,-0.33271 -1.600183,-1.34116 -2.128125,-1.34116 -0.19225,0 -0.817393,0.7875 -1.389203,1.75 -0.57181,0.9625 -1.138089,1.75 -1.258402,1.75 -0.313455,0 -5.55101,-3.59211 -7.47764,-5.12845 -4.68992,-3.73983 -9.848391,-8.98964 -13.58052,-13.82097 -1.572883,-2.03614 -4.41611,-6.23777 -4.41611,-6.52599 0,-0.0939 0.741067,-0.60421 1.646815,-1.13405 0.905748,-0.52984 1.701099,-1.10481 1.767446,-1.2777 0.150009,-0.39092 -0.832273,-2.36284 -1.17701,-2.36284 -0.138923,0 -1.046709,0.45 -2.017302,1 -0.970594,0.55 -1.809637,1 -1.864542,1 -0.164124,0 -1.956364,-3.67486 -3.291996,-6.75 C 10.759036,106.30485 8.5826439,97.635373 8.0075752,90 7.9247271,88.9 7.7937093,87.353125 7.7164245,86.5625 L 7.5759065,85.125 H 9.8504533 12.125 V 83.75 82.375 h -2.25 c -1.2375,0 -2.25,-0.03991 -2.25,-0.0887 0,-0.04878 0.1139033,-1.539407 0.2531186,-3.3125 0.8281927,-10.54814 3.0585264,-18.94631 7.5121014,-28.2863 0.934286,-1.959375 1.752997,-3.5625 1.819358,-3.5625 0.06636,0 0.914777,0.45 1.885371,1 0.970593,0.55 1.878379,1 2.017302,1 0.344737,0 1.327019,-1.97192 1.17701,-2.362835 -0.06635,-0.172898 -0.861698,-0.747868 -1.767446,-1.277708 -0.905748,-0.52984 -1.646815,-1.037859 -1.646815,-1.12893 0,-0.320637 3.318961,-5.124807 5.33516,-7.722605 2.425696,-3.12542 8.949408,-9.725187 11.86954,-12.007922 2.860552,-2.236161 7.859137,-5.735413 8.204308,-5.743416 0.156204,-0.0036 0.751854,0.780916 1.323664,1.743416 0.57181,0.9625 1.196953,1.75 1.389203,1.75 0.503837,0 2.128125,-1.001517 2.128125,-1.312178 0,-0.144535 -0.45,-1.043305 -1,-1.997267 -0.55,-0.953962 -1,-1.788962 -1,-1.855555 0,-0.244298 7.21342,-3.551603 10.125,-4.642244 6.600307,-2.472393 13.671022,-4.0646759 20.25,-4.5601808 1.1,-0.082848 2.646875,-0.2138659 3.4375,-0.2911507 L 82.375,7.5759066 V 9.8504533 12.125 h 1.375 1.375 V 9.8504533 7.5759066 l 1.4375,0.1405179 C 87.353125,7.7937093 88.9,7.9247271 90,8.0075752 c 7.455102,0.5614915 15.60562,2.5677128 22.97881,5.6561518 3.25501,1.363445 7.39619,3.383347 7.39619,3.607574 0,0.07771 -0.45,0.898746 -1,1.824533 -0.55,0.925787 -1,1.815044 -1,1.976127 0,0.374272 1.94648,1.377071 2.36284,1.2173 0.17289,-0.06635 0.74786,-0.861698 1.2777,-1.767446 0.52984,-0.905748 1.04016,-1.646815 1.13405,-1.646815 0.34649,0 4.68669,2.987638 7.47541,5.145811 3.68774,2.853921 10.00027,9.166446 12.85419,12.854189 2.22242,2.871735 5.14581,7.131928 5.14581,7.498868 0,0.106782 -0.7875,0.661994 -1.75,1.233804 -0.9625,0.57181 -1.75,1.151615 -1.75,1.288453 0,0.481278 1.01346,2.228875 1.29256,2.228875 0.15533,0 1.06292,-0.45 2.01688,-1 0.95397,-0.55 1.77959,-1 1.83473,-1 0.14754,0 2.04347,3.817895 3.04161,6.125 3.73832,8.640795 5.48556,16.050075 6.44077,27.3125 l 0.15372,1.8125 h -2.26513 -2.26514 v 1.375 1.375 h 2.26042 2.26043 l -0.15295,1.9375 c -0.8367,10.598895 -2.65191,18.32245 -6.30156,26.8125 -1.21178,2.81892 -3.00824,6.5 -3.17217,6.5 -0.0551,0 -0.88076,-0.45 -1.83473,-1 -0.95396,-0.55 -1.86155,-1 -2.01688,-1 -0.2791,0 -1.29256,1.7476 -1.29256,2.22888 0,0.13683 0.7875,0.71664 1.75,1.28845 0.9625,0.57181 1.75,1.12702 1.75,1.2338 0,0.36873 -2.92807,4.63316 -5.14793,7.49744 -2.77692,3.58304 -8.60007,9.46657 -12.22707,12.35384 -2.67016,2.12559 -7.71309,5.64759 -8.08642,5.64759 -0.10158,0 -0.6182,-0.74107 -1.14804,-1.64682 -0.52984,-0.90574 -1.10481,-1.7011 -1.2777,-1.76744 -0.39092,-0.15001 -2.36284,0.83227 -2.36284,1.17701 0,0.13892 0.45,1.04671 1,2.0173 0.55,0.97059 1,1.80976 1,1.86483 0,0.16476 -4.20249,2.22081 -6.76637,3.31041 -8.50522,3.61457 -15.96484,5.34717 -26.54613,6.16568 l -1.9375,0.14988 V 157.63542 155.375 H 83.75 82.375 v 2.25 c 0,1.65268 -0.08296,2.24037 -0.3125,2.21372 -0.171875,-0.02 -1.741325,-0.12759 -3.487665,-0.23919 z m 1.96944,-8.12476 c 0.182405,-0.47534 -0.311358,-0.84063 -1.14346,-0.84594 -0.5939,-0.004 -0.597758,-0.0207 -0.4375,-1.91655 0.08893,-1.052 0.162398,-3.04887 0.163265,-4.4375 l 0.0016,-2.52478 0.748417,-0.42587 C 81.188523,140.57759 80.78796,140.375 78,140.375 c -2.183108,0 -2.625,0.064 -2.625,0.38036 0,0.2092 0.28125,0.5085 0.625,0.66513 0.607137,0.27663 0.625,0.35756 0.625,2.83192 0,1.40093 0.07131,3.3908 0.158478,4.42193 l 0.158474,1.87477 -0.783474,0.15669 c -0.568448,0.11369 -0.783478,0.29564 -0.783478,0.66295 0,0.47469 0.156347,0.50625 2.507845,0.50625 2.06884,0 2.534732,-0.0701 2.66143,-0.40023 z m 4.935277,0.24848 c 0.643218,-0.24682 0.452945,-0.77929 -0.382544,-1.07055 -0.448508,-0.15635 -0.730653,-0.40493 -0.666213,-0.58695 1.211685,-3.42262 2.310365,-6.19075 2.457125,-6.19075 0.172158,0 2.48708,5.99727 2.48708,6.44328 0,0.1084 -0.3375,0.32449 -0.75,0.48019 -0.4125,0.1557 -0.75,0.46162 -0.75,0.67981 0,0.33593 0.384303,0.39672 2.507845,0.39672 2.123903,0 2.53267,-0.0647 2.669978,-0.42251 0.09756,-0.25424 0.02542,-0.46807 -0.18114,-0.53693 -0.803766,-0.26792 -1.455673,-1.33711 -2.463613,-4.04056 -2.117008,-5.67814 -2.518155,-6.5 -3.172603,-6.5 -0.746645,0 -0.832687,0.16236 -2.84591,5.37034 -1.424659,3.68542 -1.746889,4.3119 -2.443199,4.75 -0.441153,0.27756 -0.806431,0.70153 -0.811728,0.94216 -0.0084,0.38064 0.247632,0.4375 1.969922,0.4375 1.088756,0 2.157505,-0.0683 2.375,-0.15175 z M 141.41246,92.375 l 0.26145,-0.75 2.66305,-0.0018 c 1.46467,-9.77e-4 3.41442,-0.07275 4.33277,-0.159492 l 1.66974,-0.157715 0.38001,0.909492 c 0.209,0.50022 0.5545,0.909493 0.76776,0.909493 0.32572,0 0.38776,-0.419952 0.38776,-2.625 0,-2.413335 -0.0384,-2.625 -0.47554,-2.625 -0.30362,0 -0.57007,0.271155 -0.737,0.75 l -0.26145,0.75 h -2.47529 c -1.3614,0 -3.30875,0.07045 -4.32742,0.156563 l -1.85214,0.156562 -0.24808,-0.84354 c -0.13991,-0.47572 -0.43885,-0.879017 -0.68558,-0.924895 -0.39421,-0.0733 -0.4375,0.180197 -0.4375,2.56198 0,2.222338 0.0618,2.64333 0.388,2.64333 0.21341,0 0.50566,-0.3375 0.64946,-0.75 z m -124.618265,-1.033478 0.156695,-0.783475 1.874775,0.158475 c 1.031126,0.08716 3.020992,0.158478 4.421926,0.158478 2.474356,0 2.55529,0.01786 2.83192,0.625 0.156623,0.34375 0.459867,0.625 0.673875,0.625 0.331467,0 0.378552,-0.379585 0.31786,-2.5625 C 27.01343,87.483052 26.929309,87 26.625,87 c -0.20625,0 -0.411851,0.260005 -0.456891,0.577787 -0.04504,0.317783 -0.21379,0.617823 -0.375,0.666753 -0.16121,0.04893 -2.233734,0.14945 -4.605609,0.223377 -4.104282,0.127923 -4.3125,0.111681 -4.3125,-0.336394 0,-0.560083 -0.693575,-1.320905 -1.020155,-1.119066 -0.126415,0.07813 -0.229845,1.260413 -0.229845,2.627298 0,2.328805 0.03187,2.485245 0.50625,2.485245 0.367307,0 0.549256,-0.21503 0.662945,-0.783478 z M 27.125,84 c 0,-1.930865 -0.06924,-2.375 -0.370237,-2.375 -0.20363,0 -0.44251,0.28796 -0.530845,0.63991 -0.108048,0.4305 -0.281649,0.593465 -0.53048,0.497978 -0.473233,-0.181595 -2.7937,-1.965741 -2.807789,-2.158833 -0.01479,-0.202663 2.592745,-1.979055 2.905019,-1.979055 0.139741,0 0.385111,0.287593 0.545266,0.639098 0.524753,1.151707 0.789066,0.388362 0.789066,-2.278853 0,-2.946712 -0.176519,-3.172305 -1.340628,-1.713343 -0.393596,0.493288 -1.613167,1.562373 -2.710159,2.375741 L 21.079682,79.126497 20.334211,78.68825 C 19.183779,78.01193 16.922503,75.91851 16.747795,75.368055 16.661726,75.096875 16.373887,74.875 16.108153,74.875 15.66851,74.875 15.625,75.066365 15.625,77 c 0,1.958332 0.03922,2.125 0.5,2.125 0.275,0 0.501723,-0.08437 0.503828,-0.1875 0.0021,-0.103125 0.100826,-0.340595 0.219379,-0.527708 0.169172,-0.267007 0.491099,-0.134495 1.496172,0.615863 0.704342,0.52584 1.280404,1.016435 1.280138,1.090208 -2.66e-4,0.07377 -0.570224,0.522459 -1.266575,0.997074 -1.047769,0.714133 -1.305682,0.800353 -1.495688,0.5 C 16.735975,81.413323 16.630934,81.165625 16.628828,81.0625 16.626723,80.959375 16.4,80.875 16.125,80.875 c -0.468254,0 -0.5,0.166668 -0.5,2.625 0,2.427823 0.03629,2.625 0.483153,2.625 0.27525,0 0.55677,-0.231948 0.654235,-0.539033 0.210582,-0.663485 1.005137,-1.411989 3.040994,-2.864747 l 1.566856,-1.118085 1.439881,0.989745 c 1.902002,1.3074 3.012786,2.36255 3.309964,3.144187 C 26.253481,86.08793 26.534159,86.375 26.743812,86.375 27.058646,86.375 27.125,85.96158 27.125,84 Z m 114.37308,1.405415 0.24808,-0.84354 1.85214,0.156562 c 1.01867,0.08611 2.96602,0.156563 4.32742,0.156563 h 2.47529 l 0.26145,0.75 c 0.16693,0.478845 0.43338,0.75 0.737,0.75 0.43719,0 0.47554,-0.211665 0.47554,-2.625 0,-2.413335 -0.0384,-2.625 -0.47554,-2.625 -0.30362,0 -0.57007,0.271155 -0.737,0.75 l -0.26145,0.75 h -4.36355 -4.36355 l -0.26145,-0.75 c -0.1438,-0.4125 -0.43605,-0.75 -0.64946,-0.75 -0.32621,0 -0.388,0.420992 -0.388,2.64333 0,2.381783 0.0433,2.635282 0.4375,2.56198 0.24673,-0.04588 0.54567,-0.449175 0.68558,-0.924895 z m 0,-6.75 0.24808,-0.84354 1.85214,0.156562 c 1.01867,0.08611 2.96602,0.156563 4.32742,0.156563 h 2.47529 l 0.26145,0.75 c 0.16693,0.478845 0.43338,0.75 0.737,0.75 0.43578,0 0.47554,-0.209658 0.47554,-2.507845 0,-2.06884 -0.0701,-2.534732 -0.40023,-2.66143 -0.47534,-0.182405 -0.84063,0.311357 -0.84594,1.14346 -0.004,0.5939 -0.0207,0.597758 -1.91655,0.4375 -1.052,-0.08893 -3.04887,-0.162398 -4.4375,-0.163265 l -2.52478,-0.0016 -0.42587,-0.748417 c -0.74759,-1.31379 -0.94913,-0.911413 -0.94913,1.89491 0,2.381783 0.0433,2.635282 0.4375,2.56198 0.24673,-0.04588 0.54567,-0.449175 0.68558,-0.924895 z M 75.875,26.754763 c 0,-0.20363 -0.28125,-0.440826 -0.625,-0.527102 -0.34375,-0.08628 -0.625,-0.21383 -0.625,-0.283455 0,-0.215589 2.11562,-3.054197 2.282055,-3.061919 0.227595,-0.01056 1.967945,2.567786 1.967945,2.915531 0,0.161418 -0.225,0.3649 -0.5,0.452182 -0.275,0.08728 -0.5,0.319863 -0.5,0.516847 0,0.288131 0.513212,0.358153 2.625,0.358153 2.962357,0 3.188457,-0.175404 1.728098,-1.340628 -0.493288,-0.393596 -1.561306,-1.611729 -2.373373,-2.706963 -1.14048,-1.538165 -1.423043,-2.086469 -1.241647,-2.409372 0.591049,-1.052144 2.629252,-3.383273 3.283599,-3.755513 C 82.295518,16.685636 82.62255,16.303125 82.62342,16.0625 82.6248,15.680023 82.357745,15.625 80.5,15.625 c -1.958332,0 -2.125,0.03922 -2.125,0.5 0,0.275 0.08437,0.501723 0.1875,0.503828 0.103125,0.0021 0.340595,0.100826 0.527708,0.219379 0.267007,0.169172 0.134495,0.491099 -0.615863,1.496172 -0.52584,0.704342 -1.016435,1.27772 -1.090208,1.274175 -0.07377,-0.0035 -0.52689,-0.585128 -1.006922,-1.292405 C 75.784695,17.45313 75.6055,17.0065 75.81918,16.935273 c 0.420655,-0.140218 1.05582,-0.788804 1.05582,-1.07813 0,-0.254489 -4.46751,-0.324852 -5.104552,-0.0804 -0.631511,0.242333 -0.459951,0.72878 0.393462,1.115636 0.486023,0.220316 1.357878,1.144545 2.270853,2.407268 l 1.481937,2.049651 -0.818035,1.200349 c -1.47215,2.160164 -2.271693,3.041169 -3.129295,3.448128 -0.464402,0.220374 -0.84437,0.564151 -0.84437,0.76395 0,0.292202 0.464637,0.363271 2.375,0.363271 1.930865,0 2.375,-0.06924 2.375,-0.370237 z M 88.83031,26.6875 c -0.04588,-0.246729 -0.449175,-0.545675 -0.924895,-0.68558 l -0.84354,-0.24808 0.156562,-1.852139 C 87.304547,22.883024 87.375,20.935683 87.375,19.574276 V 17.09899 l 0.75,-0.261451 c 0.478845,-0.166926 0.75,-0.43338 0.75,-0.736995 0,-0.431843 -0.204887,-0.475544 -2.229552,-0.475544 -2.410658,0 -3.020448,0.126179 -3.020448,0.625 0,0.358238 0.54225,0.625 1.270448,0.625 0.447774,0 0.479407,0.211213 0.477379,3.1875 -0.0032,4.737053 -0.151759,5.623228 -1.026667,6.125356 -1.282857,0.736259 -0.870823,0.937144 1.92217,0.937144 2.381783,0 2.635282,-0.04329 2.56198,-0.4375 z m 6.75,0 c -0.04588,-0.246729 -0.449175,-0.545675 -0.924895,-0.68558 l -0.84354,-0.24808 0.156562,-1.852139 C 94.054547,22.883024 94.125,20.935683 94.125,19.574276 V 17.09899 l 0.75,-0.261451 c 0.478845,-0.166926 0.75,-0.43338 0.75,-0.736995 C 95.625,15.663345 95.413335,15.625 93,15.625 c -2.413335,0 -2.625,0.03834 -2.625,0.475544 0,0.303615 0.271155,0.570069 0.75,0.736995 l 0.75,0.261451 v 4.363549 4.363548 l -0.75,0.261452 c -0.4125,0.143798 -0.75,0.436053 -0.75,0.649456 0,0.326209 0.420992,0.388005 2.64333,0.388005 2.381783,0 2.635282,-0.04329 2.56198,-0.4375 z"
       id="path2"
       transform="matrix(0.26458333,0,0,0.26458333,-0.09317171,98.332576)" />
    <path
       style="fill:#fff6d5;stroke-width:1.33325"
       d="m 15.25,42.582893 c -1.2375,-0.710471 -2.293553,-1.325823 -2.346785,-1.367448 -0.116,-0.09071 2.281627,-3.924595 3.070358,-4.90961 l 0.555839,-0.694166 2.097524,1.514729 c 1.153638,0.833101 2.137279,1.554483 2.185868,1.603073 0.07539,0.07538 -3.146011,5.145836 -3.268986,5.145359 -0.0241,-9.4e-5 -1.056318,-0.581465 -2.293818,-1.291937 z"
       id="path3"
       transform="matrix(0.26458333,0,0,0.26458333,-0.09317171,98.332576)" />
    <path
       style="fill:#fff6d5;stroke-width:1.33325"
       d="m 19.504785,36.370591 c -1.097368,-0.806783 -2.035719,-1.588393 -2.085225,-1.73691 -0.04951,-0.148518 0.792091,-1.35143 1.870215,-2.673138 1.078124,-1.321708 2.096451,-2.57214 2.262949,-2.778737 0.259145,-0.321558 0.551018,-0.155503 2.027514,1.15351 2.63478,2.335908 2.598948,1.9349 0.409884,4.587122 -1.056605,1.280159 -2.04913,2.459743 -2.205611,2.621296 -0.216174,0.223182 -0.763744,-0.0586 -2.279726,-1.173143 z"
       id="path4"
       transform="matrix(0.26458333,0,0,0.26458333,-0.09317171,98.332576)" />
    <path
       style="fill:#fff6d5;stroke-width:1.33325"
       d="M 24.704663,29.807339 22.659327,28 l 2.655756,-2.677151 2.655755,-2.677151 1.389581,1.535471 c 2.560778,2.829628 2.582057,2.262028 -0.188241,5.021124 L 26.75,31.614678 Z"
       id="path5"
       transform="matrix(0.26458333,0,0,0.26458333,-0.09317171,98.332576)" />
    <path
       style="fill:#fff6d5;stroke-width:1.33325"
       d="m 30.616539,23.865615 c -1.548173,-1.717357 -1.756764,-2.053438 -1.435267,-2.3125 0.206891,-0.166713 1.444849,-1.17499 2.751017,-2.240615 1.306168,-1.065625 2.494414,-1.9375 2.640547,-1.9375 0.146133,0 0.944819,0.928125 1.774859,2.0625 L 37.856859,21.5 37.15343,22.125 c -1.204912,1.07057 -4.504261,3.75 -4.617608,3.75 -0.05932,0 -0.922994,-0.904223 -1.919283,-2.009385 z"
       id="path6"
       transform="matrix(0.26458333,0,0,0.26458333,-0.09317171,98.332576)" />
    <path
       style="fill:#fff6d5;stroke-width:1.33325"
       d="m 37.375,18.957489 c -0.75625,-1.050137 -1.461777,-2.055102 -1.567838,-2.233255 -0.135363,-0.227374 0.602618,-0.849273 2.476049,-2.086575 1.467887,-0.969462 2.735914,-1.761948 2.817837,-1.761078 0.152115,0.0016 0.271532,0.196724 1.871681,3.058058 l 0.918473,1.642382 -2.516739,1.64899 c -1.384207,0.906944 -2.540977,1.64715 -2.570601,1.644903 -0.02962,-0.0022 -0.672612,-0.863289 -1.428862,-1.913425 z"
       id="path7"
       transform="matrix(0.26458333,0,0,0.26458333,-0.09317171,98.332576)" />
    <path
       style="fill:#fff6d5;stroke-width:1.33325"
       d="m 46.039974,15.561896 c -0.373353,-0.606734 -2.188709,-3.703928 -2.332952,-3.980266 -0.0989,-0.189471 2.934433,-1.9110668 4.697708,-2.6662286 l 1.154729,-0.4945387 1.142755,2.4825113 1.142755,2.48251 -2.729617,1.368955 -2.729616,1.368954 z"
       id="path8"
       transform="matrix(0.26458333,0,0,0.26458333,-0.09317171,98.332576)" />
    <path
       style="fill:#fff6d5;stroke-width:1.33325"
       d="M 51.886199,10.774355 C 51.341561,9.5898848 50.863109,8.4424583 50.822974,8.2245188 50.750863,7.8329515 51.674946,7.3940382 56.047498,5.7430166 l 1.547497,-0.584316 0.801714,2.4206496 c 0.440942,1.3313576 0.853479,2.5612748 0.916749,2.7331498 0.06327,0.171875 -0.01675,0.3125 -0.177818,0.3125 -0.237774,0 -3.975908,1.363119 -5.822415,2.123158 -0.36106,0.148615 -0.608434,-0.193542 -1.427026,-1.973803 z"
       id="path9"
       transform="matrix(0.26458333,0,0,0.26458333,-0.09317171,98.332576)" />
    <path
       style="fill:#fff6d5;stroke-width:1.33325"
       d="M 59.603204,7.6331805 C 59.114941,6.0929443 58.890205,5.0097948 59.029908,4.8700917 c 0.247196,-0.2471955 6.83299,-2.102226 6.948654,-1.9572379 0.116613,0.146177 1.162535,5.2797015 1.089582,5.3478172 C 67.030665,8.2956655 65.70625,8.6636577 64.125,9.0784315 62.54375,9.4932052 61.060162,9.907699 60.828139,9.9995288 60.475589,10.13906 60.274333,9.7502713 59.603204,7.6331805 Z"
       id="path10"
       transform="matrix(0.26458333,0,0,0.26458333,-0.09317171,98.332576)" />
    <path
       style="fill:#fff6d5;stroke-width:1.33325"
       d="M 67.782947,5.9440377 C 67.536886,4.737317 67.278498,3.5068625 67.20875,3.2096944 67.096218,2.730234 67.232166,2.6385272 68.415968,2.3953377 69.149686,2.2446095 70.830662,1.9729929 72.151471,1.7917451 l 2.40147,-0.3295414 0.296877,2.7372173 c 0.163282,1.5054695 0.26387,2.7605352 0.223529,2.7890345 -0.04034,0.0285 -1.479597,0.254202 -3.198347,0.501561 -1.71875,0.2473592 -3.241926,0.4943647 -3.384835,0.5489013 -0.148957,0.056845 -0.450744,-0.8370921 -0.707218,-2.0948801 z"
       id="path11"
       transform="matrix(0.26458333,0,0,0.26458333,-0.09317171,98.332576)" />
    <path
       style="fill:#fff6d5;stroke-width:1.33325"
       d="M 76.018427,4.9697285 C 75.924181,3.8863777 75.786355,2.6438132 75.712147,2.2084737 L 75.577224,1.4169474 76.913612,1.2815625 C 77.648625,1.2071008 79.178125,1.088684 80.3125,1.0184142 L 82.375,0.89065087 V 3.7578255 6.625 h -1.588327 c -0.87358,0 -2.265254,0.070753 -3.092608,0.1572285 L 76.189784,6.939457 Z"
       id="path12"
       transform="matrix(0.26458333,0,0,0.26458333,-0.09317171,98.332576)" />
    <path
       style="fill:#fff6d5;stroke-width:1.33325"
       d="M 87.3125,6.688858 85.125,6.6055335 V 3.7480923 0.89065087 l 2.0625,0.12776333 c 1.134375,0.07027 2.665953,0.1889462 3.403506,0.2637252 L 91.932012,1.4181013 91.79273,2.3340507 C 91.716125,2.8378228 91.576261,4.065625 91.481921,5.0625 L 91.310395,6.875 90.405197,6.8235912 C 89.907339,6.7953162 88.515625,6.7346865 87.3125,6.688858 Z"
       id="path13"
       transform="matrix(0.26458333,0,0,0.26458333,-0.09317171,98.332576)" />
    <path
       style="fill:#fff6d5;stroke-width:1.33325"
       d="M 96.375,7.6125585 C 95.06875,7.3707142 93.619997,7.1620775 93.155548,7.148921 92.323525,7.125352 92.313235,7.111201 92.456445,6.1875 92.536387,5.671875 92.677036,4.3974077 92.768997,3.3553504 L 92.9362,1.4607008 95.3431,1.7909936 c 2.97601,0.4083906 5.0319,0.8229338 5.0319,1.0146168 0,0.8240434 -1.151011,5.3105819 -1.355349,5.2830271 -0.148308,-0.02 -1.338401,-0.234235 -2.644651,-0.476079 z"
       id="path14"
       transform="matrix(0.26458333,0,0,0.26458333,-0.09317171,98.332576)" />
    <path
       style="fill:#fff6d5;stroke-width:1.33325"
       d="m 106.13598,9.84815 c -0.33771,-0.1348362 -1.781,-0.537572 -3.20729,-0.8949683 -2.38167,-0.5967877 -2.58176,-0.6927882 -2.45216,-1.1764965 0.0776,-0.289677 0.32852,-1.4829352 0.55759,-2.6516852 0.22907,-1.16875 0.44328,-2.1594299 0.47603,-2.2015108 0.0776,-0.099675 2.70025,0.5666796 5.28346,1.3423867 l 2.04361,0.613672 -0.87826,2.6227261 c -0.48304,1.4424993 -0.95266,2.615595 -1.04361,2.60688 -0.0909,-0.0087 -0.44166,-0.1261677 -0.77937,-0.261004 z"
       id="path15"
       transform="matrix(0.26458333,0,0,0.26458333,-0.09317171,98.332576)" />
    <path
       style="fill:#fff6d5;stroke-width:1.33325"
       d="m 113.15837,12.35522 c -0.6004,-0.266454 -1.9504,-0.783856 -3,-1.149781 -1.0496,-0.365926 -1.93509,-0.682314 -1.96774,-0.703083 -0.0327,-0.02077 0.33837,-1.2255375 0.8245,-2.6772605 l 0.88387,-2.6394962 2.1755,0.8165168 c 3.77431,1.4165889 4.6755,1.8080606 4.6755,2.0310147 0,0.5023997 -2.02141,4.8330892 -2.25,4.8204132 -0.1375,-0.0076 -0.74123,-0.23187 -1.34163,-0.498324 z"
       id="path16"
       transform="matrix(0.26458333,0,0,0.26458333,-0.09317171,98.332576)" />
    <path
       style="fill:#fff6d5;stroke-width:1.33325"
       d="m 118.4375,14.803522 c -1.61249,-0.813206 -2.55588,-1.433413 -2.54464,-1.672916 0.01,-0.209333 0.48794,-1.367507 1.0625,-2.57372 L 118,8.3637723 l 2.5,1.2373109 c 3.745,1.8534928 3.57371,1.5020918 2.05003,4.2056168 -0.71502,1.268685 -1.35628,2.302747 -1.42503,2.297916 -0.0687,-0.0048 -1.27813,-0.590323 -2.6875,-1.301094 z"
       id="path17"
       transform="matrix(0.26458333,0,0,0.26458333,-0.09317171,98.332576)" />
    <path
       style="fill:#fff6d5;stroke-width:1.33325"
       d="m 126.125,19.239729 c -1.30625,-0.877218 -2.34274,-1.724311 -2.3033,-1.882431 0.0587,-0.235532 2.20985,-4.123993 2.46401,-4.454083 0.0895,-0.116219 3.92564,2.283388 4.90846,3.070358 l 0.69416,0.555839 -1.52167,2.110294 c -0.83691,1.160662 -1.59929,2.129344 -1.69416,2.152629 -0.0949,0.02328 -1.24125,-0.675389 -2.5475,-1.552606 z"
       id="path18"
       transform="matrix(0.26458333,0,0,0.26458333,-0.09317171,98.332576)" />
    <path
       style="fill:#fff6d5;stroke-width:1.33325"
       d="m 133.24146,24.54463 c -0.8297,-0.712046 -1.97954,-1.68838 -2.55521,-2.16963 l -1.04667,-0.875 1.47835,-1.995215 c 0.8131,-1.097368 1.59987,-2.035719 1.74839,-2.085225 0.14852,-0.04951 1.35143,0.792091 2.67314,1.870215 1.3217,1.078124 2.57524,2.09872 2.78563,2.267991 0.33005,0.265549 0.14337,0.572007 -1.36093,2.234051 -0.9589,1.059456 -1.84937,1.953545 -1.97881,1.986864 -0.12944,0.03332 -0.91419,-0.522004 -1.74389,-1.234051 z"
       id="path19"
       transform="matrix(0.26458333,0,0,0.26458333,-0.09317171,98.332576)" />
    <path
       style="fill:#fff6d5;stroke-width:1.33325"
       d="M 138.29771,29.172178 135.88532,26.75 l 1.80734,-2.045337 1.80734,-2.045336 2.67715,2.655756 2.67715,2.655755 -1.53547,1.389581 c -2.82963,2.560778 -2.26203,2.582057 -5.02112,-0.188241 z"
       id="path20"
       transform="matrix(0.26458333,0,0,0.26458333,-0.09317171,98.332576)" />
    <path
       style="fill:#fff6d5;stroke-width:1.33325"
       d="m 144.00588,35.515324 c -1.05409,-1.310569 -2.02101,-2.447423 -2.14871,-2.526342 -0.44352,-0.27411 -0.22117,-0.570922 1.77722,-2.372443 1.71735,-1.548173 2.05343,-1.756764 2.3125,-1.435267 0.16671,0.206891 1.17498,1.444849 2.24061,2.751017 1.06562,1.306168 1.9375,2.493038 1.9375,2.637489 0,0.144451 -0.59063,0.689046 -1.3125,1.210211 -0.72188,0.521166 -1.66746,1.210962 -2.10129,1.53288 l -0.78879,0.585307 z"
       id="path21"
       transform="matrix(0.26458333,0,0,0.26458333,-0.09317171,98.332576)" />
    <path
       style="fill:#fff6d5;stroke-width:1.33325"
       d="m 148.26092,41.354509 c -0.91414,-1.395182 -1.62806,-2.563807 -1.58649,-2.596945 0.38088,-0.303656 3.89497,-2.832873 4.12466,-2.968674 0.19428,-0.114858 0.91709,0.758888 2.0625,2.49319 0.96988,1.468509 1.7627,2.737045 1.76183,2.818968 -0.002,0.152115 -0.19673,0.271532 -3.05806,1.871681 l -1.64238,0.918473 z"
       id="path22"
       transform="matrix(0.26458333,0,0,0.26458333,-0.09317171,98.332576)" />
    <path
       style="fill:#fff6d5;stroke-width:1.33325"
       d="m 152.74516,49.115352 -1.36895,-2.729616 0.56189,-0.345762 c 0.60674,-0.373353 3.70393,-2.188709 3.98027,-2.332952 0.18947,-0.0989 1.91107,2.934433 2.66623,4.697708 l 0.49454,1.154729 -2.48251,1.142755 -2.48251,1.142755 z"
       id="path23"
       transform="matrix(0.26458333,0,0,0.26458333,-0.09317171,98.332576)" />
    <path
       style="fill:#fff6d5;stroke-width:1.33325"
       d="m 156.875,59.13564 c 0,-0.237774 -1.36312,-3.975908 -2.12316,-5.822415 -0.14861,-0.36106 0.19354,-0.608434 1.9738,-1.427026 1.18448,-0.544638 2.33252,-1.02309 2.55122,-1.063225 0.41636,-0.07641 0.63488,0.376453 2.22151,4.603842 l 0.81701,2.176815 -2.40769,0.797395 c -1.32423,0.438568 -2.54832,0.849162 -2.72019,0.912432 -0.17188,0.06327 -0.3125,-0.01675 -0.3125,-0.177818 z"
       id="path24"
       transform="matrix(0.26458333,0,0,0.26458333,-0.09317171,98.332576)" />
    <path
       style="fill:#fff6d5;stroke-width:1.33325"
       d="m 158.43608,64.201942 c -0.42887,-1.624952 -0.85058,-3.138987 -0.93713,-3.364521 -0.12824,-0.334184 0.28679,-0.558026 2.2429,-1.209706 1.32014,-0.439805 2.54973,-0.742288 2.73241,-0.672184 0.18269,0.0701 0.67552,1.402538 1.09518,2.960965 1.24006,4.605046 1.38161,4.039477 -1.13965,4.553519 -1.19889,0.244431 -2.41247,0.498864 -2.69687,0.565404 -0.46998,0.109965 -0.58808,-0.148076 -1.29684,-2.833477 z"
       id="path25"
       transform="matrix(0.26458333,0,0,0.26458333,-0.09317171,98.332576)" />
    <path
       style="fill:#fff6d5;stroke-width:1.33325"
       d="m 160.05798,72.211875 c -0.23931,-1.629031 -0.4976,-3.190516 -0.57398,-3.469966 -0.12597,-0.460926 0.0656,-0.54978 2.06357,-0.957218 1.21134,-0.24702 2.44557,-0.506193 2.74274,-0.575941 0.47946,-0.112532 0.57116,0.02342 0.81435,1.207218 0.15073,0.733718 0.42271,2.417344 0.60441,3.741392 l 0.33036,2.40736 -1.64472,0.161687 c -0.90459,0.08893 -2.15251,0.225959 -2.77316,0.304515 l -1.12846,0.142827 z"
       id="path26"
       transform="matrix(0.26458333,0,0,0.26458333,-0.09317171,98.332576)" />
    <path
       style="fill:#fff6d5;stroke-width:1.33325"
       d="m 160.875,80.786673 c 0,-0.87358 -0.0708,-2.265254 -0.15723,-3.092608 l -0.15723,-1.504281 1.96973,-0.171357 c 1.08335,-0.09425 2.32592,-0.232072 2.76126,-0.30628 l 0.79152,-0.134923 0.13631,1.336388 c 0.075,0.735013 0.18626,2.264513 0.24733,3.398888 l 0.11103,2.0625 h -2.85136 -2.85136 z"
       id="path27"
       transform="matrix(0.26458333,0,0,0.26458333,-0.09317171,98.332576)" />
    <path
       style="fill:#fff6d5;stroke-width:1.33325"
       d="m 162.90576,91.549605 -2.34423,-0.248816 0.15673,-1.499567 c 0.0862,-0.824762 0.15674,-2.214315 0.15674,-3.087895 V 85.125 h 2.85136 2.85136 l -0.11103,2.0625 c -0.21284,3.953696 -0.33926,4.691006 -0.79718,4.649211 -0.23073,-0.02106 -1.47442,-0.150257 -2.76375,-0.287106 z"
       id="path28"
       transform="matrix(0.26458333,0,0,0.26458333,-0.09317171,98.332576)" />
    <path
       style="fill:#fff6d5;stroke-width:1.33325"
       d="m 161.79681,99.798115 c -2.23704,-0.479779 -2.44107,-0.57116 -2.31565,-1.037126 0.0756,-0.281044 0.32736,-1.804739 0.55936,-3.385989 0.23201,-1.58125 0.44456,-2.908006 0.47234,-2.948347 0.0278,-0.04034 1.28225,0.06025 2.78772,0.223529 l 2.73722,0.296877 -0.32955,2.40147 c -0.48576,3.539946 -0.83232,5.029601 -1.16347,5.001101 -0.16213,-0.014 -1.39871,-0.26214 -2.74797,-0.551515 z"
       id="path29"
       transform="matrix(0.26458333,0,0,0.26458333,-0.09317171,98.332576)" />
    <path
       style="fill:#fff6d5;stroke-width:1.33325"
       d="m 159.66766,107.84999 c -1.85984,-0.60685 -2.30159,-0.84112 -2.18058,-1.15646 0.0835,-0.2175 0.49837,-1.70002 0.92202,-3.29449 0.42365,-1.59447 0.79639,-2.92802 0.82832,-2.96344 0.0319,-0.0354 1.25003,0.18323 2.70689,0.48589 l 2.64883,0.55031 -0.14444,0.7641 c -0.44052,2.3304 -1.73197,6.26466 -2.0737,6.31732 -0.20625,0.0318 -1.42455,-0.28468 -2.70734,-0.70323 z"
       id="path30"
       transform="matrix(0.26458333,0,0,0.26458333,-0.09317171,98.332576)" />
    <path
       style="fill:#fff6d5;stroke-width:1.33325"
       d="m 157.25,115.84825 c -1.2375,-0.55061 -2.33456,-1.08503 -2.43791,-1.18759 -0.10335,-0.10256 0.19418,-1.13692 0.66117,-2.29857 0.46699,-1.16165 0.99263,-2.59488 1.16809,-3.18496 0.17545,-0.59008 0.44043,-1.02847 0.58883,-0.97421 0.1484,0.0543 1.36093,0.46003 2.69451,0.90172 2.2812,0.75553 2.41128,0.83538 2.19808,1.34921 -0.12464,0.30038 -0.69582,1.78365 -1.26929,3.29615 -0.57347,1.5125 -1.11261,2.82861 -1.19808,2.92469 -0.0855,0.0961 -1.1679,-0.27582 -2.4054,-0.82644 z"
       id="path31"
       transform="matrix(0.26458333,0,0,0.26458333,-0.09317171,98.332576)" />
    <path
       style="fill:#fff6d5;stroke-width:1.33325"
       d="m 154.2442,122.83607 c -0.95931,-0.56405 -1.99705,-1.1822 -2.3061,-1.37367 l -0.56189,-0.34814 1.37276,-2.7372 1.37276,-2.7372 2.42733,1.1266 c 1.33504,0.61963 2.46179,1.16106 2.5039,1.20317 0.0907,0.0907 -2.59995,5.42736 -2.8752,5.70261 -0.10415,0.10415 -0.97425,-0.27213 -1.93356,-0.83617 z"
       id="path32"
       transform="matrix(0.26458333,0,0,0.26458333,-0.09317171,98.332576)" />
    <path
       style="fill:#fff6d5;stroke-width:1.33325"
       d="m 148.86782,130.3496 c -1.1648,-0.84787 -2.15183,-1.5699 -2.19339,-1.6045 -0.0846,-0.0704 3.19054,-5.1201 3.32075,-5.1201 0.0778,0 4.39817,2.49251 4.59714,2.65221 0.099,0.0795 -2.41683,4.09509 -3.15969,5.04338 l -0.44699,0.57059 z"
       id="path33"
       transform="matrix(0.26458333,0,0,0.26458333,-0.09317171,98.332576)" />
    <path
       style="fill:#fff6d5;stroke-width:1.33325"
       d="m 143.51774,136.77651 -1.98227,-1.8129 1.60727,-1.95681 c 0.88399,-1.07624 1.88851,-2.27334 2.23226,-2.66023 l 0.625,-0.70343 2.0625,1.50916 c 1.13437,0.83004 2.0625,1.62596 2.0625,1.7687 0,0.2988 -3.16127,4.30996 -4.03808,5.1237 L 145.5,138.5894 Z"
       id="path34"
       transform="matrix(0.26458333,0,0,0.26458333,-0.09317171,98.332576)" />
    <path
       style="fill:#fff6d5;stroke-width:1.33325"
       d="m 137.69266,142.79534 -1.80734,-2.04534 2.41239,-2.42218 c 2.75909,-2.7703 2.19149,-2.74902 5.02112,-0.18824 l 1.53547,1.38958 -2.67715,2.65576 -2.67715,2.65575 z"
       id="path35"
       transform="matrix(0.26458333,0,0,0.26458333,-0.09317171,98.332576)" />
    <path
       style="fill:#fff6d5;stroke-width:1.33325"
       d="m 131.73363,148.8125 c -0.51605,-0.72188 -1.20115,-1.66004 -1.52246,-2.08481 l -0.5842,-0.7723 2.67532,-2.20759 2.67531,-2.20758 1.81132,1.97696 1.81132,1.97695 -0.55012,0.58986 c -0.81753,0.87657 -4.82996,4.04101 -5.1239,4.04101 -0.13988,0 -0.67654,-0.59063 -1.19259,-1.3125 z"
       id="path36"
       transform="matrix(0.26458333,0,0,0.26458333,-0.09317171,98.332576)" />
    <path
       style="fill:#fff6d5;stroke-width:1.33325"
       d="m 125.73377,153.68738 c -0.28393,-0.51556 -0.87893,-1.57298 -1.32223,-2.34983 l -0.80599,-1.41244 2.54335,-1.66643 c 1.39885,-0.91653 2.62052,-1.57468 2.71483,-1.46255 0.29481,0.3505 2.67472,3.68851 2.85271,4.00114 0.10763,0.18905 -0.73768,0.89526 -2.32208,1.93996 -1.37023,0.90349 -2.63825,1.69779 -2.81784,1.76512 -0.19106,0.0716 -0.54068,-0.26647 -0.84275,-0.81497 z"
       id="path37"
       transform="matrix(0.26458333,0,0,0.26458333,-0.09317171,98.332576)" />
    <path
       style="fill:#fff6d5;stroke-width:1.33325"
       d="m 116.89847,156.79194 c -0.56704,-1.26057 -1.02929,-2.40692 -1.02723,-2.54745 0.003,-0.23521 5.2445,-2.99015 5.36449,-2.81983 0.0403,0.0571 1.89702,3.32831 2.55069,4.49371 0.10593,0.18885 -2.91673,1.90629 -4.69669,2.6686 l -1.16027,0.49692 z"
       id="path38"
       transform="matrix(0.26458333,0,0,0.26458333,-0.09317171,98.332576)" />
    <path
       style="fill:#fff6d5;stroke-width:1.33325"
       d="m 109.10464,159.92469 c -0.44169,-1.33358 -0.8495,-2.55144 -0.90626,-2.70635 -0.0568,-0.15491 0.21288,-0.36025 0.59921,-0.45632 0.38633,-0.0961 1.86288,-0.62761 3.28124,-1.18119 1.41835,-0.55358 2.60516,-0.96698 2.63734,-0.91867 0.47683,0.71574 2.11879,4.84767 1.977,4.97507 -0.10624,0.0955 -1.43067,0.64278 -2.94317,1.21625 -1.5125,0.57347 -2.99577,1.14465 -3.29615,1.26929 -0.51383,0.2132 -0.59368,0.0831 -1.34921,-2.19808 z"
       id="path39"
       transform="matrix(0.26458333,0,0,0.26458333,-0.09317171,98.332576)" />
    <path
       style="fill:#fff6d5;stroke-width:1.33325"
       d="m 101.01599,162.31894 c -0.25454,-1.25925 -0.51062,-2.47241 -0.56907,-2.69593 -0.086,-0.32896 0.45687,-0.55501 2.84966,-1.18654 1.62577,-0.42909 3.13984,-0.85073 3.36462,-0.93699 0.33366,-0.12804 0.57087,0.32755 1.29235,2.48208 l 0.88367,2.63889 -2.04361,0.61197 c -1.88422,0.56424 -3.02591,0.86538 -4.67922,1.23425 -0.62137,0.13863 -0.64597,0.0905 -1.0984,-2.14773 z"
       id="path40"
       transform="matrix(0.26458333,0,0,0.26458333,-0.09317171,98.332576)" />
    <path
       style="fill:#fff6d5;stroke-width:1.33325"
       d="m 92.650182,163.30058 c -0.163282,-1.50547 -0.263871,-2.75995 -0.223529,-2.78772 0.04034,-0.0278 1.367097,-0.24033 2.948347,-0.47234 1.58125,-0.232 3.111012,-0.4853 3.399473,-0.56289 0.482499,-0.12977 0.558979,0.0355 0.955652,2.06566 0.237149,1.21369 0.488955,2.44985 0.559555,2.74702 0.114,0.47978 -0.0211,0.571 -1.205649,0.81435 -0.733717,0.15073 -2.414693,0.42235 -3.735502,0.60359 l -2.40147,0.32955 z"
       id="path41"
       transform="matrix(0.26458333,0,0,0.26458333,-0.09317171,98.332576)" />
    <path
       style="fill:#fff6d5;stroke-width:1.33325"
       d="M 85.125,163.74217 V 160.875 h 1.588327 c 0.87358,0 2.265254,-0.0708 3.092608,-0.15723 l 1.504281,-0.15723 0.171357,1.96973 c 0.09425,1.08335 0.232072,2.32592 0.30628,2.76126 l 0.134923,0.79152 -1.336388,0.13539 c -0.735013,0.0745 -2.264513,0.19288 -3.398888,0.26315 l -2.0625,0.12776 z"
       id="path42"
       transform="matrix(0.26458333,0,0,0.26458333,-0.09317171,98.332576)" />
    <path
       style="fill:#fff6d5;stroke-width:1.33325"
       d="m 78.555486,166.3719 c -1.481983,-0.0977 -2.739841,-0.22292 -2.795241,-0.27832 -0.0554,-0.0554 0.02596,-1.32223 0.180791,-2.81517 l 0.281517,-2.71444 1.487896,0.15551 c 0.818343,0.0855 2.202644,0.15552 3.076224,0.15552 H 82.375 v 2.875 c 0,2.826 -0.0096,2.87436 -0.5625,2.83725 -0.309375,-0.0208 -1.775031,-0.11767 -3.257014,-0.21535 z"
       id="path43"
       transform="matrix(0.26458333,0,0,0.26458333,-0.09317171,98.332576)" />
    <path
       style="fill:#fff6d5;stroke-width:1.33325"
       d="m 72.125,165.70139 c -1.30625,-0.17545 -2.975314,-0.44315 -3.709032,-0.59489 -1.183445,-0.24475 -1.319716,-0.33688 -1.207218,-0.81619 0.06975,-0.29717 0.328921,-1.5314 0.575941,-2.74274 0.407438,-1.99799 0.496292,-2.18954 0.957218,-2.06357 0.27945,0.0764 1.834255,0.3337 3.455123,0.57183 l 2.947031,0.43296 -0.168618,1.75561 c -0.09274,0.96558 -0.237654,2.21019 -0.322031,2.7658 L 74.5,166.02039 Z"
       id="path44"
       transform="matrix(0.26458333,0,0,0.26458333,-0.09317171,98.332576)" />
    <path
       style="fill:#fff6d5;stroke-width:1.33325"
       d="m 63,163.88402 c -3.177774,-0.83267 -4.125,-1.1657 -4.125,-1.45027 0,-0.112 0.3444,-1.30542 0.765334,-2.65205 0.616282,-1.97158 0.842871,-2.41867 1.163461,-2.29565 0.21897,0.084 1.702695,0.4994 3.297166,0.92305 1.594471,0.42365 2.92802,0.79639 2.963442,0.82832 0.117462,0.10588 -1.040222,5.38777 -1.17861,5.37738 C 65.811107,164.60918 64.5125,164.28033 63,163.88402 Z"
       id="path45"
       transform="matrix(0.26458333,0,0,0.26458333,-0.09317171,98.332576)" />
    <path
       style="fill:#fff6d5;stroke-width:1.33325"
       d="m 54.75,161.24167 c -1.5125,-0.58285 -3.057867,-1.18168 -3.434149,-1.33074 -0.78104,-0.30939 -0.805865,-0.18168 0.656253,-3.37584 0.742796,-1.62272 0.975926,-1.93344 1.338665,-1.78419 1.763619,0.72565 5.580958,2.1241 5.798124,2.1241 0.146359,0 0.264883,0.0281 0.263388,0.0625 -0.0087,0.19986 -1.692484,5.21325 -1.773795,5.28138 -0.05417,0.0454 -1.335986,-0.39436 -2.848486,-0.97721 z"
       id="path46"
       transform="matrix(0.26458333,0,0,0.26458333,-0.09317171,98.332576)" />
    <path
       style="fill:#fff6d5;stroke-width:1.33325"
       d="m 46.735464,157.74833 c -1.495087,-0.75967 -2.803554,-1.46642 -2.907704,-1.57057 -0.159641,-0.15964 0.679714,-1.76997 2.209844,-4.23966 l 0.348132,-0.56189 2.728974,1.36863 2.728975,1.36863 -1.07615,2.38924 c -0.591882,1.31408 -1.129606,2.44269 -1.194941,2.50803 -0.06533,0.0653 -1.342043,-0.50275 -2.83713,-1.26241 z"
       id="path47"
       transform="matrix(0.26458333,0,0,0.26458333,-0.09317171,98.332576)" />
    <path
       style="fill:#fff6d5;stroke-width:1.33325"
       d="m 38.28208,152.86159 c -1.734302,-1.14541 -2.608048,-1.86822 -2.49319,-2.0625 0.135801,-0.22969 2.665018,-3.74378 2.968674,-4.12466 0.03314,-0.0416 1.201763,0.67235 2.596945,1.58649 l 2.536693,1.66206 -0.918473,1.64238 c -1.600149,2.86133 -1.719566,3.05644 -1.871681,3.05806 -0.08192,8.7e-4 -1.350459,-0.79195 -2.818968,-1.76183 z"
       id="path48"
       transform="matrix(0.26458333,0,0,0.26458333,-0.09317171,98.332576)" />
    <path
       style="fill:#fff6d5;stroke-width:1.33325"
       d="m 32.414068,148.62122 c -1.009762,-0.81706 -2.227519,-1.82939 -2.706127,-2.24961 l -0.870197,-0.76405 1.795115,-1.99128 c 0.987313,-1.0952 1.843646,-1.99128 1.902963,-1.99128 0.113347,0 3.412696,2.67943 4.617608,3.75 l 0.703429,0.625 -1.509164,2.0625 c -0.83004,1.13437 -1.641583,2.0584 -1.803429,2.05339 -0.161846,-0.005 -1.120435,-0.67761 -2.130198,-1.49467 z"
       id="path49"
       transform="matrix(0.26458333,0,0,0.26458333,-0.09317171,98.332576)" />
    <path
       style="fill:#fff6d5;stroke-width:1.33325"
       d="M 25.315083,142.17715 22.659327,139.5 l 2.045336,-1.80734 2.045337,-1.80734 2.422178,2.41239 c 2.770298,2.75909 2.749019,2.19149 0.188241,5.02112 l -1.389581,1.53547 z"
       id="path50"
       transform="matrix(0.26458333,0,0,0.26458333,-0.09317171,98.332576)" />
    <path
       style="fill:#fff6d5;stroke-width:1.33325"
       d="m 21.498721,138.28121 c -0.136797,-0.18909 -1.120596,-1.41132 -2.186221,-2.71607 -1.065625,-1.30475 -1.9375,-2.4895 -1.9375,-2.63276 0,-0.14326 0.590625,-0.6827 1.3125,-1.19875 0.721875,-0.51605 1.660038,-1.20115 2.084806,-1.52246 l 0.772305,-0.5842 2.207584,2.67532 2.207585,2.67531 -1.97989,1.82029 c -1.08894,1.00115 -2.036716,1.82182 -2.106169,1.8237 -0.06945,0.002 -0.238203,-0.1513 -0.375,-0.34038 z"
       id="path51"
       transform="matrix(0.26458333,0,0,0.26458333,-0.09317171,98.332576)" />
    <path
       style="fill:#fff6d5;stroke-width:1.33325"
       d="m 14.638406,129.21792 c -0.969873,-1.46851 -1.762478,-2.73705 -1.761344,-2.81897 0.0011,-0.0819 0.423009,-0.38125 0.9375,-0.66518 0.514491,-0.28393 1.571039,-0.87893 2.347885,-1.32223 l 1.412446,-0.80599 1.666426,2.54335 c 0.916535,1.39885 1.574684,2.62052 1.462554,2.71483 -0.351262,0.29544 -3.688818,2.67489 -4.002967,2.85384 -0.191864,0.10929 -0.931303,-0.78688 -2.0625,-2.49965 z"
       id="path52"
       transform="matrix(0.26458333,0,0,0.26458333,-0.09317171,98.332576)" />
    <path
       style="fill:#fff6d5;stroke-width:1.33325"
       d="m 10.4116,122.06543 c -0.550913,-0.99849 -1.2252707,-2.33755 -1.498573,-2.9757 l -0.4969133,-1.16027 2.2919433,-1.03099 c 1.260569,-0.56704 2.40692,-1.02929 2.547448,-1.02723 0.235214,0.003 2.990157,5.2445 2.819836,5.36449 -0.05714,0.0403 -3.328313,1.89702 -4.493711,2.55069 -0.0926,0.0519 -0.619118,-0.7225 -1.17003,-1.72099 z"
       id="path53"
       transform="matrix(0.26458333,0,0,0.26458333,-0.09317171,98.332576)" />
    <path
       style="fill:#fff6d5;stroke-width:1.33325"
       d="m 7.493869,115.94677 c -0.2133125,-0.51053 -0.7889589,-2.00116 -1.2792141,-3.3125 -0.4902551,-1.31135 -0.9367376,-2.45912 -0.9921831,-2.5506 -0.055446,-0.0915 0.9968159,-0.52987 2.3383589,-0.97421 1.341543,-0.44433 2.5797943,-0.85965 2.7516693,-0.92292 0.171875,-0.0633 0.3125,0.0168 0.3125,0.17782 0,0.23787 1.36134,3.97104 2.124115,5.82491 0.150529,0.36585 -0.223758,0.62701 -2.239331,1.5625 -1.3310372,0.61778 -2.4668692,1.12323 -2.524071,1.12323 -0.057201,0 -0.2785315,-0.41771 -0.491844,-0.92823 z"
       id="path54"
       transform="matrix(0.26458333,0,0,0.26458333,-0.09317171,98.332576)" />
    <path
       style="fill:#fff6d5;stroke-width:1.33325"
       d="m 4.2601503,106.79361 c -0.6175124,-2.03739 -1.4120449,-5.24624 -1.3125539,-5.30096 0.1795428,-0.0987 5.2662136,-1.11132 5.3157086,-1.05816 0.033546,0.036 0.4003527,1.35926 0.8151265,2.94051 0.4147737,1.58125 0.8272088,3.05947 0.9165223,3.28494 0.1332412,0.33636 -0.3112653,0.56855 -2.4765088,1.29361 l -2.638897,0.88367 z"
       id="path55"
       transform="matrix(0.26458333,0,0,0.26458333,-0.09317171,98.332576)" />
    <path
       style="fill:#fff6d5;stroke-width:1.33325"
       d="M 2.3953377,99.084031 C 2.2446095,98.350314 1.9729929,96.669338 1.7917451,95.348529 L 1.4622037,92.947059 4.199421,92.650182 c 1.5054695,-0.163282 2.7599447,-0.263871 2.7877228,-0.223529 0.027778,0.04034 0.2403284,1.367097 0.4723342,2.948347 0.2320057,1.58125 0.4853057,3.111012 0.5628888,3.399473 0.1297712,0.482499 -0.035541,0.558979 -2.0656533,0.955652 -1.2136925,0.237149 -2.449851,0.488955 -2.7470191,0.559555 -0.4797837,0.114 -0.5710032,-0.0211 -0.8143567,-1.205649 z"
       id="path56"
       transform="matrix(0.26458333,0,0,0.26458333,-0.09317171,98.332576)" />
    <path
       style="fill:#fff6d5;stroke-width:1.33325"
       d="M 1.2815625,90.586388 C 1.2071008,89.851375 1.088684,88.321875 1.0184142,87.1875 L 0.89065087,85.125 H 3.7578255 6.625 v 1.588327 c 0,0.87358 0.070753,2.265254 0.1572285,3.092608 l 0.1572285,1.504281 -1.9697285,0.171357 c -1.0833508,0.09425 -2.3259153,0.232072 -2.7612548,0.30628 l -0.7915263,0.134923 z"
       id="path57"
       transform="matrix(0.26458333,0,0,0.26458333,-0.09317171,98.332576)" />
    <path
       style="fill:#fff6d5;stroke-width:1.33325"
       d="m 1.0184142,80.3125 c 0.07027,-1.134375 0.1889462,-2.665953 0.2637252,-3.403506 l 0.1359619,-1.341006 0.9159494,0.139282 c 0.5037721,0.07661 1.7459335,0.217884 2.7603585,0.313953 l 1.844409,0.174671 -0.156909,1.501226 C 6.6956093,78.522794 6.625,79.913093 6.625,80.786673 V 82.375 H 3.7578255 0.89065087 Z"
       id="path58"
       transform="matrix(0.26458333,0,0,0.26458333,-0.09317171,98.332576)" />
    <path
       style="fill:#fff6d5;stroke-width:1.33325"
       d="M 3.7292058,74.816751 1.4584116,74.58034 1.7898491,72.16517 C 2.1993,69.181519 2.6137568,67.125 2.8056104,67.125 c 0.079839,0 1.3136543,0.245182 2.7418123,0.544849 1.646132,0.345405 2.5571008,0.647916 2.4886066,0.826409 -0.059425,0.154858 -0.3130256,1.709675 -0.5635581,3.455151 -0.4163197,2.900526 -0.4992645,3.1705 -0.9639925,3.137672 -0.2796632,-0.01976 -1.5303362,-0.142304 -2.7792729,-0.27233 z"
       id="path59"
       transform="matrix(0.26458333,0,0,0.26458333,-0.09317171,98.332576)" />
    <path
       style="fill:#fff6d5;stroke-width:1.33325"
       d="M 5.375,66.557444 C 4.06875,66.273382 2.9655701,66.01607 2.9234892,65.98564 2.8234327,65.913285 3.4928102,63.280802 4.2658759,60.706391 l 0.6136721,-2.043609 2.638897,0.883671 c 2.1669413,0.725629 2.609627,0.956985 2.4752357,1.293608 C 9.903667,61.065528 9.485301,62.571875 9.0639785,64.1875 8.6426557,65.803125 8.1746515,67.113507 8.0239688,67.09946 7.873286,67.085413 6.68125,66.841505 5.375,66.557444 Z"
       id="path60"
       transform="matrix(0.26458333,0,0,0.26458333,-0.09317171,98.332576)" />
    <path
       style="fill:#fff6d5;stroke-width:1.33325"
       d="M 7.7003937,58.463728 C 5.3010016,57.643292 5.1641337,57.559763 5.3773146,57.045964 5.5019045,56.745684 6.0730462,55.2625 6.6465183,53.75 7.2199905,52.2375 7.767303,50.913073 7.8627687,50.806829 c 0.1274005,-0.141785 4.2593353,1.500167 4.9750723,1.976999 0.04831,0.03219 -0.36509,1.218992 -0.918672,2.637346 -0.553582,1.418354 -1.083431,2.888201 -1.177443,3.266326 -0.09401,0.378125 -0.243109,0.678618 -0.331328,0.667763 -0.08822,-0.01085 -1.3077208,-0.412046 -2.7100043,-0.891535 z"
       id="path61"
       transform="matrix(0.26458333,0,0,0.26458333,-0.09317171,98.332576)" />
    <path
       style="fill:#fff6d5;stroke-width:1.33325"
       d="M 10.546072,50.544643 8.342143,49.5 9.7375096,46.758562 c 0.7674514,-1.507791 1.4779694,-2.824005 1.5789284,-2.92492 0.100959,-0.100914 1.139812,0.370772 2.308562,1.048193 1.16875,0.677421 2.220796,1.266191 2.337881,1.30838 0.363313,0.13091 -2.410954,5.436705 -2.832376,5.416928 -0.209278,-0.0098 -1.372273,-0.487946 -2.584433,-1.0625 z"
       id="path62"
       transform="matrix(0.26458333,0,0,0.26458333,-0.09317171,98.332576)" />
  </g>
</svg>
