<?xml version="1.0" encoding="UTF-8" standalone="no"?>
<!-- Created with Inkscape (http://www.inkscape.org/) -->

<svg
   xmlns:dc="http://purl.org/dc/elements/1.1/"
   xmlns:cc="http://creativecommons.org/ns#"
   xmlns:rdf="http://www.w3.org/1999/02/22-rdf-syntax-ns#"
   xmlns:svg="http://www.w3.org/2000/svg"
   xmlns="http://www.w3.org/2000/svg"
   xmlns:xlink="http://www.w3.org/1999/xlink"
   xmlns:sodipodi="http://sodipodi.sourceforge.net/DTD/sodipodi-0.dtd"
   xmlns:inkscape="http://www.inkscape.org/namespaces/inkscape"
   width="728px"
   height="90px"
   id="svg2985"
   version="1.1"
   inkscape:version="0.48.4 r9939"
   sodipodi:docname="bluepencil.svg">
  <defs
     id="defs2987">
    <linearGradient
       id="linearGradient2863"
       y2="26.030001"
       gradientUnits="userSpaceOnUse"
       x2="9"
       gradientTransform="matrix(-9.092374,-0.05626578,0.11964498,-16.539632,738.49331,501.46875)"
       y1="29.056999"
       x1="9">
      <stop
         id="stop3292"
         style="stop-color:#e4db7b"
         offset="0" />
      <stop
         id="stop3294"
         style="stop-color:#f4f0c8"
         offset="1" />
    </linearGradient>
    <linearGradient
       id="linearGradient2865"
       y2="41.391998"
       gradientUnits="userSpaceOnUse"
       x2="9.5221004"
       gradientTransform="matrix(-3.7599782,-5.6739094,3.8574685,-5.5942604,549.47079,310.7984)"
       y1="37.372002"
       x1="5.5179">
      <stop
         id="stop3193"
         style="stop-color:#cbbd27"
         offset="0" />
      <stop
         id="stop3195"
         style="stop-color:#9b901d"
         offset="1" />
    </linearGradient>
    <linearGradient
       id="linearGradient2868"
       y2="30"
       xlink:href="#linearGradient3223"
       gradientUnits="userSpaceOnUse"
       x2="30.038"
       gradientTransform="matrix(-20.893029,-0.05422978,0.2749277,-15.941139,721.56301,484.53293)"
       y1="24.99"
       x1="30.038" />
    <linearGradient
       id="linearGradient3223">
      <stop
         id="stop3225"
         style="stop-color:#999"
         offset="0" />
      <stop
         id="stop3231"
         style="stop-color:#fff"
         offset=".5" />
      <stop
         id="stop3227"
         style="stop-color:#777"
         offset="1" />
    </linearGradient>
    <linearGradient
       id="linearGradient2871"
       y2="30"
       xlink:href="#linearGradient3240"
       gradientUnits="userSpaceOnUse"
       x2="30.038"
       gradientTransform="matrix(-20.893029,-0.05422978,0.2749277,-15.941139,715.58062,484.51816)"
       y1="24.99"
       x1="30.038" />
    <linearGradient
       id="linearGradient3240">
      <stop
         id="stop3242"
         style="stop-color:#3e3e3e"
         offset="0" />
      <stop
         id="stop3244"
         style="stop-color:#828282"
         offset=".5" />
      <stop
         id="stop3246"
         style="stop-color:#3c3c3c"
         offset="1" />
    </linearGradient>
    <linearGradient
       id="linearGradient2874"
       y2="30"
       xlink:href="#linearGradient3223"
       gradientUnits="userSpaceOnUse"
       x2="30.038"
       gradientTransform="matrix(-20.893029,-0.05422978,0.2749277,-15.941139,742.45231,484.58599)"
       y1="24.99"
       x1="30.038" />
    <linearGradient
       id="linearGradient3053">
      <stop
         id="stop3055"
         style="stop-color:#999"
         offset="0" />
      <stop
         id="stop3057"
         style="stop-color:#fff"
         offset=".5" />
      <stop
         id="stop3059"
         style="stop-color:#777"
         offset="1" />
    </linearGradient>
    <linearGradient
       id="linearGradient2877"
       y2="30"
       xlink:href="#linearGradient3240"
       gradientUnits="userSpaceOnUse"
       x2="30.038"
       gradientTransform="matrix(-20.893029,-0.05422978,0.2749277,-15.941139,736.47086,484.57065)"
       y1="24.99"
       x1="30.038" />
    <linearGradient
       id="linearGradient3062">
      <stop
         id="stop3064"
         style="stop-color:#3e3e3e"
         offset="0" />
      <stop
         id="stop3066"
         style="stop-color:#828282"
         offset=".5" />
      <stop
         id="stop3068"
         style="stop-color:#3c3c3c"
         offset="1" />
    </linearGradient>
    <linearGradient
       id="linearGradient2880"
       y2="30"
       xlink:href="#linearGradient3223"
       gradientUnits="userSpaceOnUse"
       x2="30.038"
       gradientTransform="matrix(-20.893029,-0.05422978,0.2749277,-15.941139,763.24403,484.64154)"
       y1="24.99"
       x1="30.038" />
    <linearGradient
       id="linearGradient3071">
      <stop
         id="stop3073"
         style="stop-color:#999"
         offset="0" />
      <stop
         id="stop3075"
         style="stop-color:#fff"
         offset=".5" />
      <stop
         id="stop3077"
         style="stop-color:#777"
         offset="1" />
    </linearGradient>
    <linearGradient
       id="linearGradient2883"
       y2="30"
       xlink:href="#linearGradient3240"
       gradientUnits="userSpaceOnUse"
       x2="30.038"
       gradientTransform="matrix(-20.893029,-0.05422978,0.2749277,-15.941139,757.26727,484.62335)"
       y1="24.99"
       x1="30.038" />
    <linearGradient
       id="linearGradient3080">
      <stop
         id="stop3082"
         style="stop-color:#3e3e3e"
         offset="0" />
      <stop
         id="stop3084"
         style="stop-color:#828282"
         offset=".5" />
      <stop
         id="stop3086"
         style="stop-color:#3c3c3c"
         offset="1" />
    </linearGradient>
    <linearGradient
       id="linearGradient2888"
       y2="31.211"
       gradientUnits="userSpaceOnUse"
       x2="23.576"
       gradientTransform="matrix(-1.3683691,-0.00562894,0.01495606,-1.3671102,50.612163,65.417042)"
       y1="25.357"
       x1="23.576">
      <stop
         id="stop3157"
         offset="0" />
      <stop
         id="stop3171"
         style="stop-color:#c3c3c3"
         offset=".13483" />
      <stop
         id="stop3173"
         style="stop-color:#8c8c8c"
         offset=".20224" />
      <stop
         id="stop3163"
         style="stop-color:#fff"
         offset=".26966" />
      <stop
         id="stop3165"
         style="stop-color:#757575"
         offset=".44650" />
      <stop
         id="stop3167"
         style="stop-color:#7d7d7d"
         offset=".57114" />
      <stop
         id="stop3169"
         style="stop-color:#b6b6b6"
         offset=".72038" />
      <stop
         id="stop3159"
         offset="1" />
    </linearGradient>
    <linearGradient
       y2="31.211"
       x2="23.576"
       y1="25.357"
       x1="23.576"
       gradientTransform="matrix(-24.93757,-0.02264379,0.26212502,-13.29113,915.61673,421.46341)"
       gradientUnits="userSpaceOnUse"
       id="linearGradient3108"
       xlink:href="#linearGradient2888"
       inkscape:collect="always" />
  </defs>
  <sodipodi:namedview
     id="base"
     pagecolor="#ffffff"
     bordercolor="#666666"
     borderopacity="1.0"
     inkscape:pageopacity="0.0"
     inkscape:pageshadow="2"
     inkscape:zoom="0.375"
     inkscape:cx="-157.29743"
     inkscape:cy="123.65093"
     inkscape:document-units="px"
     inkscape:current-layer="layer1"
     showgrid="false"
     inkscape:window-width="1600"
     inkscape:window-height="838"
     inkscape:window-x="0"
     inkscape:window-y="0"
     inkscape:window-maximized="1" />
  <metadata
     id="metadata2990">
    <rdf:RDF>
      <cc:Work
         rdf:about="">
        <dc:format>image/svg+xml</dc:format>
        <dc:type
           rdf:resource="http://purl.org/dc/dcmitype/StillImage" />
        <dc:title></dc:title>
      </cc:Work>
    </rdf:RDF>
  </metadata>
  <g
     id="layer1"
     inkscape:label="Layer 1"
     inkscape:groupmode="layer">
    <path
       id="rect2383"
       style="fill:url(#linearGradient3108);stroke:#000000;stroke-width:11.01580334;stroke-linejoin:round"
       d="M 643.96432,84.262566 C 629.20276,83.222221 624.1115,66.380239 624.5211,45.574543 c 0.40842,-20.756071 6.21176,-37.5153618 20.96677,-38.6023229 0.0553,-0.00439 -3.06771,-0.013976 -3.02074,-0.017632 L 37.390291,5.9349815 C 21.940479,5.9198597 9.0161762,23.330463 8.5998544,44.799553 8.1720336,66.263555 20.41678,83.701366 35.851485,83.713243 l 608.108125,0.551055 z"
       inkscape:connector-curvature="0"
       sodipodi:nodetypes="ccccccccc" />
    <path
       id="rect3175"
       style="opacity:0.8;fill:#ff9de8;stroke:#dd78c5;stroke-width:10.37062645;stroke-linejoin:round"
       d="M 91.991726,85.131234 C 83.98101,75.529106 77.004913,63.642185 77.372046,42.250669 77.738064,20.910176 84.408227,13.383874 93.357215,5.6646321 c 0.04721,-0.00441 -0.0472,-0.4960918 0.0092,-0.4997901 l -63.97356,-0.1679297 -1.305431,-0.00335 c -0.04718,0.0039 0.04718,0.4956919 -0.0094,0.49979 C 15.358645,6.5879671 4.9232515,23.57771 4.5555088,44.917037 4.1910462,66.311359 13.987229,83.867852 26.715233,84.960545 l 1.305454,0.0035 63.973528,0.167927 z"
       inkscape:connector-curvature="0"
       sodipodi:nodetypes="cccccccccccc" />
    <path
       id="path3208"
       style="opacity:0.6;fill:#000000;fill-opacity:1"
       d="m 645.70303,90.011175 c -8.82249,-9.097571 -13.54027,-18.717445 -16.54407,-42.412924 2.96483,-22.645196 7.8161,-34.514859 18.28319,-44.7525615 0.0614,-0.0049 -0.041,-0.5456811 0.0124,-0.5497481 L 176.71289,1.254497 l -1.70238,-0.00369 c -0.0614,0.00425 0.041,0.5452406 -0.0124,0.5497481 -16.58532,1.2081046 -30.19961,19.8904503 -30.67876,43.3644253 -0.47939,23.529654 12.30633,42.848141 28.89795,44.045553 l 1.70235,0.0039 470.70018,0.796956 z"
       inkscape:connector-curvature="0"
       sodipodi:nodetypes="cccccccccccc" />
    <path
       id="path3233"
       style="fill:url(#linearGradient2883)"
       d="M 151.7172,83.992046 C 138.99101,82.906454 129.18521,65.401216 129.55256,44.079142 129.91865,22.80796 140.36125,5.8780088 153.0829,4.7834856 c 0.0472,-0.00443 -0.0314,-0.4944807 0.009,-0.4982665 l -6.52899,-0.01594 c -0.0472,0.00389 0.0314,0.4939828 -0.009,0.4981674 -12.72085,1.0947425 -23.16301,18.0241765 -23.5305,39.2956565 -0.36768,21.321954 9.43907,38.827818 22.16481,39.912882 l 6.52902,0.01592 z"
       inkscape:connector-curvature="0" />
    <path
       id="path3216"
       style="fill:url(#linearGradient2880)"
       d="m 157.70352,84.004483 c -12.7262,-1.085605 -22.53199,-18.590843 -22.16479,-39.912907 0.36608,-21.27119 10.8087,-38.2011531 23.5305,-39.2956563 0.0472,-0.00443 -0.0314,-0.4945803 0.009,-0.4981668 l -6.52903,-0.015939 c -0.0472,0.00384 0.0314,0.4940822 -0.009,0.4981672 -12.72084,1.0947521 -23.16298,18.0241879 -23.5305,39.2956569 -0.36766,21.321944 9.43908,38.827812 22.16481,39.912898 l 6.52902,0.01592 z"
       inkscape:connector-curvature="0" />
    <path
       id="path3248"
       style="fill:url(#linearGradient2877)"
       d="m 130.92358,83.937638 c -12.72604,-1.085654 -22.53182,-18.590832 -22.16464,-39.912896 0.36611,-21.27121 10.80871,-38.2011433 23.5305,-39.295656 0.0472,-0.00443 -0.0472,-0.4944806 0.009,-0.4981673 l -6.52901,-0.015939 c -0.0472,0.00384 0.0471,0.4939826 -0.009,0.4982669 -12.72088,1.0947524 -23.163,18.0241764 -23.53051,39.2956474 -0.36765,21.322532 9.43891,38.827836 22.1648,39.912907 l 6.52885,0.01592 z"
       inkscape:connector-curvature="0" />
    <path
       id="path3250"
       style="fill:url(#linearGradient2874)"
       d="M 136.90992,83.950069 C 124.1837,82.864462 114.37794,65.35922 114.74527,44.037176 c 0.36611,-21.2712 10.80871,-38.2011527 23.53036,-39.2956659 0.0472,-0.00443 -0.0314,-0.4944806 0.009,-0.4982669 l -6.52904,-0.015939 c -0.0472,0.00384 0.0472,0.4939822 -0.009,0.4981673 -12.72071,1.0947621 -23.16298,18.0241975 -23.53036,39.2956765 -0.36764,21.322513 9.43895,38.827803 22.16467,39.912889 l 6.52901,0.01592 z"
       inkscape:connector-curvature="0" />
    <path
       id="path3256"
       style="fill:url(#linearGradient2871)"
       d="M 110.03431,83.884571 C 97.30825,82.79891 87.50232,65.29374 87.86967,43.971676 88.23576,22.700477 98.67835,5.7705341 111.40002,4.6760209 c 0.0472,-0.00443 -0.0472,-0.4944807 0.009,-0.498167 l -6.52901,-0.015939 c -0.0472,0.00389 0.0472,0.4940822 -0.009,0.4981672 C 92.15013,5.754845 81.707843,22.68426 81.340506,43.955739 80.972832,65.271337 90.77864,82.777205 103.50988,83.865779 l 6.52902,0.01592 z"
       inkscape:connector-curvature="0" />
    <path
       id="path3258"
       style="fill:url(#linearGradient2868)"
       d="m 116.01404,83.901021 c -12.72621,-1.0856 -22.532,-18.590841 -22.16481,-39.912905 0.36611,-21.27119 10.80871,-38.2011422 23.5305,-39.2956555 0.0472,-0.00443 -0.0472,-0.4945802 0.009,-0.4982668 l -6.52903,-0.015939 c -0.0472,0.00389 0.0472,0.4941819 -0.009,0.498267 C 98.12983,5.7712537 87.68769,22.700699 87.32018,43.972168 86.95254,65.2947 96.75926,82.799994 109.485,83.885058 l 6.52146,0.01592 z"
       inkscape:connector-curvature="0" />
    <path
       id="path3270"
       style="fill:url(#linearGradient2863);fill-rule:evenodd;stroke:url(#linearGradient2865);stroke-width:6.95791149"
       d="M 714.55579,46.886952 647.71309,3.8779908 c -5.5363,1.1320183 -16.57891,19.4849442 -16.7346,41.5589562 -0.16411,22.12182 8.52919,39.756388 14.06725,40.883381 l 69.50929,-39.434566 z"
       inkscape:connector-curvature="0"
       sodipodi:nodetypes="cccccc" />
    <path
       id="path3281"
       style="fill-rule:evenodd;stroke:#000000;stroke-width:8.43474007"
       d="m 690.15553,59.783644 25.1508,-12.525008 -24.94421,-15.53589 c -0.32207,3.938134 -0.77934,9.891322 -0.81033,14.179752 -0.0431,4.941935 0.26266,9.384123 0.60366,13.881146 z"
       inkscape:connector-curvature="0"
       sodipodi:nodetypes="cccccc" />
  </g>
</svg>
