<?xml version="1.0" encoding="UTF-8" standalone="no"?>
<!-- Created with Inkscape (http://www.inkscape.org/) -->

<svg
   xmlns:dc="http://purl.org/dc/elements/1.1/"
   xmlns:cc="http://creativecommons.org/ns#"
   xmlns:rdf="http://www.w3.org/1999/02/22-rdf-syntax-ns#"
   xmlns:svg="http://www.w3.org/2000/svg"
   xmlns="http://www.w3.org/2000/svg"
   xmlns:sodipodi="http://sodipodi.sourceforge.net/DTD/sodipodi-0.dtd"
   xmlns:inkscape="http://www.inkscape.org/namespaces/inkscape"
   width="150"
   height="150"
   id="svg2"
   version="1.1"
   inkscape:version="0.48.4 r9939"
   sodipodi:docname="clockface.svg">
  <defs
     id="defs4" />
  <sodipodi:namedview
     id="base"
     pagecolor="#ffffff"
     bordercolor="#666666"
     borderopacity="1.0"
     inkscape:pageopacity="0.0"
     inkscape:pageshadow="2"
     inkscape:zoom="5.68"
     inkscape:cx="52.464789"
     inkscape:cy="75"
     inkscape:document-units="px"
     inkscape:current-layer="layer1"
     showgrid="false"
     inkscape:window-width="1920"
     inkscape:window-height="1021"
     inkscape:window-x="0"
     inkscape:window-y="0"
     inkscape:window-maximized="1" />
  <metadata
     id="metadata7">
    <rdf:RDF>
      <cc:Work
         rdf:about="">
        <dc:format>image/svg+xml</dc:format>
        <dc:type
           rdf:resource="http://purl.org/dc/dcmitype/StillImage" />
        <dc:title />
      </cc:Work>
    </rdf:RDF>
  </metadata>
  <g
     inkscape:label="Ebene 1"
     inkscape:groupmode="layer"
     id="layer1"
     transform="translate(0,-902.36218)">
    <g
       style="display:inline"
       transform="translate(-1.4305115e-6,-2.6171874e-6)"
       id="g5012">
      <rect
         y="912.36218"
         x="74"
         height="10"
         width="2"
         id="rect3753"
         style="fill:#000000;fill-opacity:1;stroke:none" />
      <rect
         y="1032.3622"
         x="74"
         height="10"
         width="2"
         id="rect3753-2"
         style="fill:#000000;fill-opacity:1;stroke:none" />
      <rect
         transform="matrix(-0.8660254,-0.5,0.5,-0.8660254,0,0)"
         y="-873.92053"
         x="-554.633"
         height="10"
         width="2"
         id="rect3753-9"
         style="fill:#000000;fill-opacity:1;stroke:none" />
      <rect
         transform="matrix(-0.8660254,-0.5,0.5,-0.8660254,0,0)"
         y="-753.92053"
         x="-554.633"
         height="10"
         width="2"
         id="rect3753-2-1"
         style="fill:#000000;fill-opacity:1;stroke:none" />
      <rect
         transform="matrix(0.8660254,-0.5,0.5,0.8660254,0,0)"
         y="818.92047"
         x="-424.72919"
         height="10"
         width="2"
         id="rect3753-20"
         style="fill:#000000;fill-opacity:1;stroke:none" />
      <rect
         transform="matrix(0.8660254,-0.5,0.5,0.8660254,0,0)"
         y="938.92047"
         x="-424.72919"
         height="10"
         width="2"
         id="rect3753-2-9"
         style="fill:#000000;fill-opacity:1;stroke:none" />
      <rect
         transform="matrix(0.5,-0.8660254,0.8660254,0.5,0,0)"
         y="488.633"
         x="-809.92047"
         height="10"
         width="2"
         id="rect3753-4"
         style="fill:#000000;fill-opacity:1;stroke:none" />
      <rect
         transform="matrix(0.5,-0.8660254,0.8660254,0.5,0,0)"
         y="608.633"
         x="-809.92047"
         height="10"
         width="2"
         id="rect3753-2-7"
         style="fill:#000000;fill-opacity:1;stroke:none" />
      <rect
         transform="matrix(0,-1,1,0,0,0)"
         y="10.000003"
         x="-978.36218"
         height="10"
         width="2"
         id="rect3753-5"
         style="fill:#000000;fill-opacity:1;stroke:none" />
      <rect
         transform="matrix(0,-1,1,0,0,0)"
         y="130"
         x="-978.36218"
         height="10"
         width="2"
         id="rect3753-2-0"
         style="fill:#000000;fill-opacity:1;stroke:none" />
      <rect
         transform="matrix(-0.5,-0.8660254,0.8660254,-0.5,0,0)"
         y="-488.72919"
         x="-884.92047"
         height="10"
         width="2"
         id="rect3753-7"
         style="fill:#000000;fill-opacity:1;stroke:none" />
      <rect
         transform="matrix(-0.5,-0.8660254,0.8660254,-0.5,0,0)"
         y="-368.72922"
         x="-884.92047"
         height="10"
         width="2"
         id="rect3753-2-8"
         style="fill:#000000;fill-opacity:1;stroke:none" />
      <rect
         transform="matrix(0.9945219,-0.10452846,0.10452846,0.9945219,0,0)"
         y="1039.8478"
         x="-28.073025"
         height="5"
         width="1"
         id="rect4630"
         style="fill:#000000;fill-opacity:1;stroke:none" />
      <rect
         transform="matrix(0.9945219,-0.10452846,0.10452846,0.9945219,0,0)"
         y="914.84772"
         x="-28.073025"
         height="5"
         width="1"
         id="rect4630-0"
         style="fill:#000000;fill-opacity:1;stroke:none" />
      <rect
         transform="matrix(0.9781476,-0.20791169,0.20791169,0.9781476,0,0)"
         y="1031.5979"
         x="-130.34395"
         height="5"
         width="1"
         id="rect4630-3"
         style="fill:#000000;fill-opacity:1;stroke:none" />
      <rect
         transform="matrix(0.9781476,-0.20791169,0.20791169,0.9781476,0,0)"
         y="906.59784"
         x="-130.34395"
         height="5"
         width="1"
         id="rect4630-0-2"
         style="fill:#000000;fill-opacity:1;stroke:none" />
      <rect
         transform="matrix(0.95105652,-0.30901699,0.30901699,0.95105652,0,0)"
         y="1012.7029"
         x="-231.19228"
         height="5"
         width="1"
         id="rect4630-07"
         style="fill:#000000;fill-opacity:1;stroke:none" />
      <rect
         transform="matrix(0.95105652,-0.30901699,0.30901699,0.95105652,0,0)"
         y="887.70294"
         x="-231.19228"
         height="5"
         width="1"
         id="rect4630-0-4"
         style="fill:#000000;fill-opacity:1;stroke:none" />
      <rect
         transform="matrix(0.91354546,-0.40673664,0.40673664,0.91354546,0,0)"
         y="983.37006"
         x="-329.51309"
         height="5"
         width="1"
         id="rect4630-4"
         style="fill:#000000;fill-opacity:1;stroke:none" />
      <rect
         transform="matrix(0.91354546,-0.40673664,0.40673664,0.91354546,0,0)"
         y="858.37006"
         x="-329.51309"
         height="5"
         width="1"
         id="rect4630-0-7"
         style="fill:#000000;fill-opacity:1;stroke:none" />
      <rect
         transform="matrix(-0.91354546,-0.40673665,0.40673665,-0.91354546,0,0)"
         y="-802.35962"
         x="-466.54495"
         height="5"
         width="1"
         id="rect4630-5"
         style="fill:#000000;fill-opacity:1;stroke:none" />
      <rect
         transform="matrix(-0.91354546,-0.40673665,0.40673665,-0.91354546,0,0)"
         y="-927.35962"
         x="-466.54495"
         height="5"
         width="1"
         id="rect4630-0-48"
         style="fill:#000000;fill-opacity:1;stroke:none" />
      <rect
         transform="matrix(-0.95105651,-0.309017,0.309017,-0.95105651,0,0)"
         y="-846.35046"
         x="-373.8508"
         height="5"
         width="1"
         id="rect4630-3-6"
         style="fill:#000000;fill-opacity:1;stroke:none" />
      <rect
         transform="matrix(-0.95105651,-0.309017,0.309017,-0.95105651,0,0)"
         y="-971.35046"
         x="-373.8508"
         height="5"
         width="1"
         id="rect4630-0-2-2"
         style="fill:#000000;fill-opacity:1;stroke:none" />
      <rect
         transform="matrix(-0.9781476,-0.2079117,0.2079117,-0.9781476,0,0)"
         y="-880.41113"
         x="-277.0661"
         height="5"
         width="1"
         id="rect4630-07-4"
         style="fill:#000000;fill-opacity:1;stroke:none" />
      <rect
         transform="matrix(-0.9781476,-0.2079117,0.2079117,-0.9781476,0,0)"
         y="-1005.4111"
         x="-277.0661"
         height="5"
         width="1"
         id="rect4630-0-4-3"
         style="fill:#000000;fill-opacity:1;stroke:none" />
      <rect
         transform="matrix(-0.99452189,-0.10452847,0.10452847,-0.99452189,0,0)"
         y="-904.16846"
         x="-177.25131"
         height="5"
         width="1"
         id="rect4630-4-4"
         style="fill:#000000;fill-opacity:1;stroke:none" />
      <rect
         transform="matrix(-0.99452189,-0.10452847,0.10452847,-0.99452189,0,0)"
         y="-1029.1685"
         x="-177.25131"
         height="5"
         width="1"
         id="rect4630-0-7-3"
         style="fill:#000000;fill-opacity:1;stroke:none" />
      <rect
         transform="matrix(0.40673665,-0.91354546,0.91354546,0.40673665,0,0)"
         y="526.04492"
         x="-862.85956"
         height="5"
         width="1"
         id="rect4630-54"
         style="fill:#000000;fill-opacity:1;stroke:none" />
      <rect
         transform="matrix(0.40673665,-0.91354546,0.91354546,0.40673665,0,0)"
         y="401.04492"
         x="-862.85956"
         height="5"
         width="1"
         id="rect4630-0-21"
         style="fill:#000000;fill-opacity:1;stroke:none" />
      <rect
         transform="matrix(0.309017,-0.95105651,0.95105651,0.309017,0,0)"
         y="433.35077"
         x="-906.8504"
         height="5"
         width="1"
         id="rect4630-3-3"
         style="fill:#000000;fill-opacity:1;stroke:none" />
      <rect
         transform="matrix(0.309017,-0.95105651,0.95105651,0.309017,0,0)"
         y="308.35077"
         x="-906.8504"
         height="5"
         width="1"
         id="rect4630-0-2-7"
         style="fill:#000000;fill-opacity:1;stroke:none" />
      <rect
         transform="matrix(0.2079117,-0.9781476,0.9781476,0.2079117,0,0)"
         y="336.5661"
         x="-940.91107"
         height="5"
         width="1"
         id="rect4630-07-0"
         style="fill:#000000;fill-opacity:1;stroke:none" />
      <rect
         transform="matrix(0.2079117,-0.9781476,0.9781476,0.2079117,0,0)"
         y="211.5661"
         x="-940.91107"
         height="5"
         width="1"
         id="rect4630-0-4-9"
         style="fill:#000000;fill-opacity:1;stroke:none" />
      <rect
         transform="matrix(0.10452847,-0.99452189,0.99452189,0.10452847,0,0)"
         y="236.75131"
         x="-964.66846"
         height="5"
         width="1"
         id="rect4630-4-42"
         style="fill:#000000;fill-opacity:1;stroke:none" />
      <rect
         transform="matrix(0.10452847,-0.99452189,0.99452189,0.10452847,0,0)"
         y="111.75132"
         x="-964.66846"
         height="5"
         width="1"
         id="rect4630-0-7-33"
         style="fill:#000000;fill-opacity:1;stroke:none" />
      <rect
         transform="matrix(-0.58778525,-0.809017,0.809017,-0.58778525,0,0)"
         y="-453.80283"
         x="-835.28656"
         height="5"
         width="1"
         id="rect4630-8"
         style="fill:#000000;fill-opacity:1;stroke:none" />
      <rect
         transform="matrix(-0.58778525,-0.809017,0.809017,-0.58778525,0,0)"
         y="-578.80286"
         x="-835.28656"
         height="5"
         width="1"
         id="rect4630-0-0"
         style="fill:#000000;fill-opacity:1;stroke:none" />
      <rect
         transform="matrix(-0.66913061,-0.74314483,0.74314483,-0.66913061,0,0)"
         y="-538.24713"
         x="-777.00647"
         height="5"
         width="1"
         id="rect4630-3-5"
         style="fill:#000000;fill-opacity:1;stroke:none" />
      <rect
         transform="matrix(-0.66913061,-0.74314483,0.74314483,-0.66913061,0,0)"
         y="-663.24713"
         x="-777.00647"
         height="5"
         width="1"
         id="rect4630-0-2-75"
         style="fill:#000000;fill-opacity:1;stroke:none" />
      <rect
         transform="matrix(-0.74314482,-0.66913061,0.66913061,-0.74314482,0,0)"
         y="-616.13684"
         x="-710.21881"
         height="5"
         width="1"
         id="rect4630-07-1"
         style="fill:#000000;fill-opacity:1;stroke:none" />
      <rect
         transform="matrix(-0.74314482,-0.66913061,0.66913061,-0.74314482,0,0)"
         y="-741.13684"
         x="-710.21881"
         height="5"
         width="1"
         id="rect4630-0-4-94"
         style="fill:#000000;fill-opacity:1;stroke:none" />
      <rect
         transform="matrix(-0.80901699,-0.58778525,0.58778525,-0.80901699,0,0)"
         y="-686.61871"
         x="-635.65533"
         height="5"
         width="1"
         id="rect4630-4-9"
         style="fill:#000000;fill-opacity:1;stroke:none" />
      <rect
         transform="matrix(-0.80901699,-0.58778525,0.58778525,-0.80901699,0,0)"
         y="-811.61871"
         x="-635.65533"
         height="5"
         width="1"
         id="rect4630-0-7-39"
         style="fill:#000000;fill-opacity:1;stroke:none" />
      <rect
         transform="matrix(-0.10452846,-0.9945219,0.9945219,-0.10452846,0,0)"
         y="32.426979"
         x="-980.34772"
         height="5"
         width="1"
         id="rect4630-2"
         style="fill:#000000;fill-opacity:1;stroke:none" />
      <rect
         transform="matrix(-0.10452846,-0.9945219,0.9945219,-0.10452846,0,0)"
         y="-92.573021"
         x="-980.34772"
         height="5"
         width="1"
         id="rect4630-0-8"
         style="fill:#000000;fill-opacity:1;stroke:none" />
      <rect
         transform="matrix(-0.20791169,-0.9781476,0.9781476,-0.20791169,0,0)"
         y="-69.843971"
         x="-972.0979"
         height="5"
         width="1"
         id="rect4630-3-2"
         style="fill:#000000;fill-opacity:1;stroke:none" />
      <rect
         transform="matrix(-0.20791169,-0.9781476,0.9781476,-0.20791169,0,0)"
         y="-194.84398"
         x="-972.0979"
         height="5"
         width="1"
         id="rect4630-0-2-8"
         style="fill:#000000;fill-opacity:1;stroke:none" />
      <rect
         transform="matrix(-0.30901699,-0.95105652,0.95105652,-0.30901699,0,0)"
         y="-170.69231"
         x="-953.203"
         height="5"
         width="1"
         id="rect4630-07-43"
         style="fill:#000000;fill-opacity:1;stroke:none" />
      <rect
         transform="matrix(-0.30901699,-0.95105652,0.95105652,-0.30901699,0,0)"
         y="-295.69229"
         x="-953.203"
         height="5"
         width="1"
         id="rect4630-0-4-4"
         style="fill:#000000;fill-opacity:1;stroke:none" />
      <rect
         transform="matrix(-0.40673664,-0.91354546,0.91354546,-0.40673664,0,0)"
         y="-269.01309"
         x="-923.87006"
         height="5"
         width="1"
         id="rect4630-4-7"
         style="fill:#000000;fill-opacity:1;stroke:none" />
      <rect
         transform="matrix(-0.40673664,-0.91354546,0.91354546,-0.40673664,0,0)"
         y="-394.01309"
         x="-923.87006"
         height="5"
         width="1"
         id="rect4630-0-7-8"
         style="fill:#000000;fill-opacity:1;stroke:none" />
      <rect
         transform="matrix(0.809017,-0.58778525,0.58778525,0.809017,0,0)"
         y="894.7865"
         x="-514.3028"
         height="5"
         width="1"
         id="rect4630-34"
         style="fill:#000000;fill-opacity:1;stroke:none" />
      <rect
         transform="matrix(0.809017,-0.58778525,0.58778525,0.809017,0,0)"
         y="769.7865"
         x="-514.3028"
         height="5"
         width="1"
         id="rect4630-0-5"
         style="fill:#000000;fill-opacity:1;stroke:none" />
      <rect
         transform="matrix(0.74314483,-0.66913061,0.66913061,0.74314483,0,0)"
         y="836.50641"
         x="-598.74707"
         height="5"
         width="1"
         id="rect4630-3-65"
         style="fill:#000000;fill-opacity:1;stroke:none" />
      <rect
         transform="matrix(0.74314483,-0.66913061,0.66913061,0.74314483,0,0)"
         y="711.50641"
         x="-598.74707"
         height="5"
         width="1"
         id="rect4630-0-2-4"
         style="fill:#000000;fill-opacity:1;stroke:none" />
      <rect
         transform="matrix(0.66913061,-0.74314482,0.74314482,0.66913061,0,0)"
         y="769.71881"
         x="-676.63684"
         height="5"
         width="1"
         id="rect4630-07-49"
         style="fill:#000000;fill-opacity:1;stroke:none" />
      <rect
         transform="matrix(0.66913061,-0.74314482,0.74314482,0.66913061,0,0)"
         y="644.71881"
         x="-676.63684"
         height="5"
         width="1"
         id="rect4630-0-4-98"
         style="fill:#000000;fill-opacity:1;stroke:none" />
      <rect
         transform="matrix(0.58778525,-0.80901699,0.80901699,0.58778525,0,0)"
         y="695.15533"
         x="-747.11871"
         height="5"
         width="1"
         id="rect4630-4-1"
         style="fill:#000000;fill-opacity:1;stroke:none" />
      <rect
         transform="matrix(0.58778525,-0.80901699,0.80901699,0.58778525,0,0)"
         y="570.15533"
         x="-747.11871"
         height="5"
         width="1"
         id="rect4630-0-7-0"
         style="fill:#000000;fill-opacity:1;stroke:none" />
    </g>
  </g>
</svg>
