<?xml version="1.0" encoding="UTF-8" standalone="no"?>
<!-- Created with Inkscape (http://www.inkscape.org/) -->

<svg
   xmlns:dc="http://purl.org/dc/elements/1.1/"
   xmlns:cc="http://creativecommons.org/ns#"
   xmlns:rdf="http://www.w3.org/1999/02/22-rdf-syntax-ns#"
   xmlns:svg="http://www.w3.org/2000/svg"
   xmlns="http://www.w3.org/2000/svg"
   xmlns:sodipodi="http://sodipodi.sourceforge.net/DTD/sodipodi-0.dtd"
   xmlns:inkscape="http://www.inkscape.org/namespaces/inkscape"
   id="svg7384"
   height="16"
   width="16"
   version="1.1"
   inkscape:version="0.48.4 r9939"
   sodipodi:docname="lg-symbolic.svg">
  <defs
     id="defs10" />
  <sodipodi:namedview
     pagecolor="#ffffff"
     bordercolor="#666666"
     borderopacity="1"
     objecttolerance="10"
     gridtolerance="10"
     guidetolerance="10"
     inkscape:pageopacity="0"
     inkscape:pageshadow="2"
     inkscape:window-width="640"
     inkscape:window-height="480"
     id="namedview8"
     showgrid="false"
     inkscape:zoom="14.75"
     inkscape:cx="8"
     inkscape:cy="4.6519401"
     inkscape:window-x="0"
     inkscape:window-y="26"
     inkscape:window-maximized="0"
     inkscape:current-layer="svg7384" />
  <metadata
     id="metadata90">
    <rdf:RDF>
      <cc:Work
         rdf:about="">
        <dc:format>image/svg+xml</dc:format>
        <dc:type
           rdf:resource="http://purl.org/dc/dcmitype/StillImage" />
        <dc:title>Gnome Symbolic Icon Theme</dc:title>
      </cc:Work>
    </rdf:RDF>
  </metadata>
  <title
     id="title9167">Gnome Symbolic Icon Theme</title>
  <g
     id="layer12"
     transform="matrix(0,1,-1,0,662.01801,-139.97624)">
    <path
       id="path27918"
       style="text-indent:0;text-transform:none;block-progression:tb;color:#000000;fill:#bebebe;enable-background:new"
       d="m 146.51,647 c -3.0289,0 -5.5107,2.479 -5.5107,5.5045 0,3.0254 2.4819,5.5045 5.5107,5.5045 3.0288,0 5.5107,-2.479 5.5107,-5.5045 0,-3.0254 -2.4819,-5.5045 -5.5107,-5.5045 z m 0,2.0089 c 1.9474,0 3.4995,1.5504 3.4995,3.4955 0,1.9451 -1.5522,3.4955 -3.4995,3.4955 -1.9474,0 -3.4995,-1.5504 -3.4995,-3.4955 0,-1.9452 1.5522,-3.4955 3.4995,-3.4955 z"
       inkscape:connector-curvature="0" />
    <path
       id="path27941"
       style="text-indent:0;text-transform:none;block-progression:tb;color:#000000;fill:#bebebe;enable-background:new"
       d="m 149.81,655 a 1.0001,1.0001 0 0 0 -0.5,1.7188 l 4,4 a 1.0055,1.0055 0 1 0 1.4062,-1.4375 l -4,-4 a 1.0001,1.0001 0 0 0 -0.91,-0.28 z"
       inkscape:connector-curvature="0" />
  </g>
</svg>
