<?xml version="1.0" encoding="UTF-8" standalone="no"?>
<!-- Created with Inkscape (http://www.inkscape.org/) -->

<svg
   width="44.317707mm"
   height="44.317703mm"
   viewBox="0 0 44.317707 44.317703"
   version="1.1"
   id="svg6511"
   inkscape:version="1.4.3 (0d15f75042, 2025-12-25)"
   sodipodi:docname="bg.svg"
   xmlns:inkscape="http://www.inkscape.org/namespaces/inkscape"
   xmlns:sodipodi="http://sodipodi.sourceforge.net/DTD/sodipodi-0.dtd"
   xmlns="http://www.w3.org/2000/svg"
   xmlns:svg="http://www.w3.org/2000/svg">
  <sodipodi:namedview
     id="namedview6513"
     pagecolor="#ffffff"
     bordercolor="#000000"
     borderopacity="0.25"
     inkscape:showpageshadow="2"
     inkscape:pageopacity="0.0"
     inkscape:pagecheckerboard="0"
     inkscape:deskcolor="#d1d1d1"
     inkscape:document-units="mm"
     showgrid="false"
     inkscape:zoom="2.8284271"
     inkscape:cx="66.644815"
     inkscape:cy="65.407378"
     inkscape:window-width="1920"
     inkscape:window-height="1012"
     inkscape:window-x="0"
     inkscape:window-y="0"
     inkscape:window-maximized="1"
     inkscape:current-layer="layer1"
     showguides="false" />
  <defs
     id="defs6508">
    <clipPath
       clipPathUnits="userSpaceOnUse"
       id="clipPath2426">
      <path
         d="m 8060.68,5204.7 c -93.72,0 -175.9,82.2 -175.9,175.9 0,93.7 82.18,175.9 175.9,175.9 93.72,0 175.91,-82.2 175.91,-175.9 0,-93.7 -82.19,-175.9 -175.91,-175.9 z"
         id="path2424" />
    </clipPath>
    <linearGradient
       x1="0"
       y1="0"
       x2="1"
       y2="0"
       gradientUnits="userSpaceOnUse"
       gradientTransform="matrix(174.538,-302.309,-302.309,-174.538,7973.41,5531.8)"
       spreadMethod="pad"
       id="linearGradient2434">
      <stop
         style="stop-opacity:1;stop-color:#ededed"
         offset="0"
         id="stop2428" />
      <stop
         style="stop-opacity:1;stop-color:#ededed"
         offset="0.48211215"
         id="stop2430" />
      <stop
         style="stop-opacity:1;stop-color:#d0d0d0"
         offset="1"
         id="stop2432" />
    </linearGradient>
    <clipPath
       clipPathUnits="userSpaceOnUse"
       id="clipPath2444">
      <path
         d="m 8060.68,5224.3 c -83.29,0 -156.36,73 -156.36,156.3 0,83.3 73.07,156.4 156.36,156.4 83.3,0 156.37,-73.1 156.37,-156.4 0,-83.3 -73.07,-156.3 -156.37,-156.3 z"
         id="path2442" />
    </clipPath>
    <linearGradient
       x1="0"
       y1="0"
       x2="1"
       y2="0"
       gradientUnits="userSpaceOnUse"
       gradientTransform="matrix(155.141,-268.712,-268.712,-155.141,7983.11,5515)"
       spreadMethod="pad"
       id="linearGradient2452">
      <stop
         style="stop-opacity:1;stop-color:#d0d0d0"
         offset="0"
         id="stop2446" />
      <stop
         style="stop-opacity:1;stop-color:#ededed"
         offset="0.51788785"
         id="stop2448" />
      <stop
         style="stop-opacity:1;stop-color:#ededed"
         offset="1"
         id="stop2450" />
    </linearGradient>
  </defs>
  <g
     inkscape:label="Layer 1"
     inkscape:groupmode="layer"
     id="layer1"
     transform="translate(0.09317171,-98.332576)">
    <path
       d="m 22.065506,98.553062 c -12.0967502,0 -21.93819161,9.841438 -21.93819161,21.938548 0,12.09675 9.84144141,21.93819 21.93819161,21.93819 12.096749,0 21.938544,-9.84144 21.938544,-21.93819 0,-12.09711 -9.841795,-21.938548 -21.938544,-21.938548 z m 0,44.097218 c -12.2181057,0 -22.15867771,-9.94022 -22.15867771,-22.15867 0,-12.21846 9.94057201,-22.159034 22.15867771,-22.159034 12.218458,0 22.15903,9.940574 22.15903,22.159034 0,12.21845 -9.940572,22.15867 -22.15903,22.15867"
       style="fill:#171717;fill-opacity:1;fill-rule:nonzero;stroke:none;stroke-width:0.0352778"
       id="path188" />
    <path
       d="m 10.951947,139.52644 0.190853,0.11006 0.879828,-1.52329 c -0.06385,-0.0367 -0.127706,-0.0727 -0.191206,-0.11007 z m -1.9289884,-1.26648 0.1785056,0.12947 1.0346968,-1.42416 c -0.05962,-0.043 -0.12065,-0.0843 -0.179916,-0.12771 z m 6.1295134,3.1616 0.209903,0.0681 0.54222,-1.66828 c -0.0702,-0.0226 -0.139348,-0.048 -0.208845,-0.0709 z m 2.226028,0.60854 0.2159,0.0459 0.36442,-1.71556 c -0.07197,-0.0148 -0.142875,-0.0342 -0.214842,-0.0497 z m 4.577644,-1.25589 v 1.76671 h 0.220487 v -1.76671 c -0.03704,0 -0.07338,0.003 -0.11042,0.003 -0.03669,0 -0.07338,-0.003 -0.110067,-0.003 z m -2.300111,1.62772 0.219075,0.0229 0.183798,-1.74731 c -0.07338,-0.007 -0.14605,-0.0166 -0.219075,-0.0247 z m -14.0620743,-10.07886 -1.4241638,1.03469 0.1294694,0.17851 1.4227527,-1.03329 c -0.043744,-0.0593 -0.085019,-0.11994 -0.1280583,-0.17991 z m -2.1036138,-3.68159 -1.6040805,0.71437 0.089606,0.20109 1.6051389,-0.71438 c -0.030339,-0.0674 -0.061031,-0.1337 -0.090664,-0.20108 z m -0.7521222,-1.98508 -1.6679333,0.54222 0.068086,0.20919 1.6704027,-0.54292 c -0.02293,-0.0695 -0.047978,-0.13829 -0.070555,-0.20849 z m -0.5393972,-2.05458 -1.71555834,0.36442 0.0458611,0.2159 1.71943884,-0.36548 c -0.015875,-0.0723 -0.034925,-0.14287 -0.049742,-0.21484 z m 3.414536,10.55687 0.1474611,0.16405 1.3056305,-1.17546 c -0.049742,-0.0543 -0.096308,-0.11148 -0.1453444,-0.16616 z m 1.6238361,1.64042 0.1640416,0.14746 1.1775722,-1.3081 c -0.05468,-0.0487 -0.1118305,-0.0953 -0.1658055,-0.14499 z m 16.8401994,3.87809 0.18415,1.75436 0.219075,-0.0226 -0.184503,-1.75648 c -0.07303,0.008 -0.145697,0.0173 -0.218722,0.0247 z m -19.6306716,-10.13919 -1.5232944,0.87948 0.1100667,0.1912 1.5232944,-0.87947 c -0.037395,-0.0632 -0.073378,-0.12736 -0.1100667,-0.19121 z m 35.1303156,0.18874 1.533878,0.88512 0.110067,-0.19086 -1.533878,-0.88547 c -0.03669,0.0635 -0.07303,0.12771 -0.110067,0.19121 z m 0.974725,-1.88631 1.617486,0.72002 0.08961,-0.20108 -1.616075,-0.72002 c -0.02963,0.0674 -0.06068,0.13406 -0.09102,0.20108 z m -14.374636,11.5189 0.366184,1.72297 0.215547,-0.0462 -0.366889,-1.72614 c -0.07197,0.0155 -0.142522,0.0346 -0.214842,0.0494 z m 16.170628,-19.97886 c 0,0.0374 0.0025,0.0737 0.0025,0.11113 0,0.0367 -0.0021,0.073 -0.0025,0.10936 h 1.774119 v -0.22049 z m -40.4660798,2.12125 -1.74801381,0.1838 0.0229306,0.21908 1.74942491,-0.18415 c -0.00811,-0.073 -0.017286,-0.14535 -0.024342,-0.21873 z m 40.3443718,0.21731 1.763888,0.18557 0.02258,-0.21908 -1.762125,-0.18556 c -0.0071,0.0734 -0.01623,0.14605 -0.02434,0.21907 z m -0.342195,2.09621 1.732492,0.3683 0.04621,-0.2159 -1.728964,-0.36759 c -0.01482,0.0723 -0.03422,0.14322 -0.04974,0.21519 z m -0.560211,2.04752 1.684514,0.54716 0.06809,-0.20955 -1.682044,-0.5461 c -0.02222,0.0699 -0.04727,0.13864 -0.07056,0.20849 z m -11.106502,12.2047 0.718255,1.6129 0.201083,-0.0896 -0.718608,-1.61431 c -0.06668,0.0303 -0.13335,0.0614 -0.20073,0.091 z m -1.985787,0.75248 0.544689,1.67675 0.20955,-0.0684 -0.545394,-1.67887 c -0.0702,0.0229 -0.138995,0.048 -0.208845,0.0706 z m 10.179756,-7.31873 1.43263,1.04069 0.12947,-0.1785 -1.434042,-1.04211 c -0.04269,0.06 -0.08431,0.12065 -0.128058,0.17992 z m -6.298142,5.60987 0.884414,1.53176 0.190853,-0.11042 -0.884061,-1.53105 c -0.0635,0.037 -0.127353,0.0734 -0.191206,0.10971 z m 4.95547,-3.96663 1.313744,1.18321 0.147461,-0.16404 -1.316214,-1.18533 c -0.04904,0.055 -0.09596,0.11183 -0.144991,0.16616 z m -3.169709,2.81869 1.041048,1.43263 0.178152,-0.12947 -1.039636,-1.43086 c -0.05891,0.0434 -0.119944,0.0847 -0.179564,0.1277 z m 1.657703,-1.32715 1.184628,1.31551 0.164041,-0.14746 -1.182863,-1.31374 c -0.05433,0.0497 -0.110773,0.0967 -0.165806,0.14569 z m -22.554494,4.94806 0.201789,0.0896 0.714375,-1.60479 c -0.06738,-0.0296 -0.134056,-0.0607 -0.201083,-0.091 z M 32.11438,102.87318 c 0.0635,0.0363 0.127706,0.0727 0.191206,0.10971 l 0.887236,-1.53705 -0.190853,-0.11042 z m 1.785056,1.14794 c 0.05962,0.043 0.12065,0.0843 0.179917,0.12806 l 1.043516,-1.43652 -0.178505,-0.12947 z m -3.680178,-2.10397 c 0.06703,0.0296 0.133703,0.0603 0.200378,0.0907 l 0.721783,-1.6203 -0.201083,-0.0896 z m -8.263114,-1.70744 c 0.03669,-3.6e-4 0.07338,-0.003 0.110067,-0.003 0.03704,0 0.07338,0.002 0.11042,0.003 v -1.766009 h -0.220487 z m 13.600289,5.1382 c 0.05468,0.0487 0.111478,0.0956 0.165806,0.145 l 1.187097,-1.31798 -0.164042,-0.14746 z m -9.37648,-4.72298 c 0.07267,0.0148 0.143227,0.0339 0.215194,0.0494 l 0.368653,-1.733898 -0.2159,-0.04551 z m 2.054577,0.5401 c 0.06985,0.0222 0.138642,0.0473 0.208492,0.0705 l 0.547864,-1.686274 -0.20955,-0.06844 z m -4.152899,-0.85796 c 0.07338,0.007 0.145697,0.0169 0.219075,0.0247 l 0.185561,-1.764244 -0.219075,-0.02328 z m 14.450835,5.50827 -0.147461,-0.16404 -1.317625,1.18675 c 0.04904,0.0543 0.09596,0.11112 0.144992,0.16616 z m 3.400778,10.5657 1.730022,-0.36795 -0.04621,-0.21555 -1.73355,0.36866 c 0.01552,0.072 0.03493,0.14252 0.04974,0.21484 z m 0.317147,2.09903 1.762125,-0.18521 -0.02258,-0.21908 -1.764241,0.18556 c 0.0081,0.073 0.01764,0.1457 0.02469,0.21873 z m -0.856544,-4.15149 1.683808,-0.54716 -0.06809,-0.2099 -1.686278,0.54786 c 0.02328,0.0698 0.04833,0.13864 0.07056,0.2092 z m -2.855031,-5.66702 1.437923,-1.04458 -0.12947,-0.1785 -1.436511,1.04316 c 0.04339,0.0593 0.08502,0.1203 0.128058,0.17992 z m 2.103261,3.68088 1.61925,-0.72108 -0.0896,-0.20179 -1.620661,0.72179 c 0.03034,0.067 0.06138,0.1337 0.09102,0.20108 z m -0.955675,-1.89512 1.538111,-0.88794 -0.110419,-0.19086 -1.537758,0.88759 c 0.03739,0.0635 0.07338,0.12735 0.110066,0.19121 z m -30.6662656,-7.7276 1.0364616,1.42663 c 0.05927,-0.0437 0.119944,-0.085 0.179563,-0.1277 l -1.037519,-1.4284 z m -5.4380693,9.41952 -1.6083139,-0.71614 -0.089606,0.20179 1.6069027,0.71508 c 0.029633,-0.0674 0.060678,-0.1337 0.091017,-0.20073 z m 0.9754305,-1.8863 -1.5261166,-0.88124 -0.1100667,0.19085 1.5261167,0.88124 c 0.036336,-0.0635 0.072672,-0.12771 0.1100666,-0.19085 z m 1.1655778,-1.77412 -1.4252222,-1.03541 -0.1294695,0.17816 1.4269861,1.03681 c 0.043039,-0.0596 0.084314,-0.1203 0.1277056,-0.17956 z m -2.9135916,5.63774 -1.673225,-0.54363 -0.068086,0.2099 1.6707555,0.54257 c 0.022225,-0.0699 0.047272,-0.13899 0.070556,-0.20884 z m 17.2458942,-13.80984 -0.18415,-1.753306 -0.219075,0.02293 0.184503,1.755066 c 0.07302,-0.008 0.145344,-0.0173 0.218722,-0.0247 z m -14.4441332,5.51427 1.3109222,1.18039 c 0.049036,-0.055 0.095956,-0.11147 0.1453445,-0.16615 l -1.3088056,-1.17828 z m -3.3623249,10.3438 -1.72049718,-0.36583 -0.0458611,0.21554 1.71661658,0.36513 c 0.014817,-0.0723 0.034219,-0.14288 0.049742,-0.21484 z m -0.3425472,2.09585 -1.75048331,-0.18415 -0.0229305,0.21943 1.74871941,0.18379 c 0.00706,-0.0734 0.016581,-0.14605 0.024694,-0.21907 z m 13.9968103,-17.09773 -0.54363,-1.672871 -0.209903,0.06809 0.544689,1.675691 c 0.06985,-0.0229 0.138642,-0.0483 0.208844,-0.0709 z m -1.98508,0.75212 -0.716492,-1.60902 -0.201436,0.0896 0.716845,1.61008 c 0.06703,-0.0303 0.13335,-0.061 0.201083,-0.0907 z m 4.0386,-1.29116 -0.365831,-1.720853 -0.2159,0.04586 0.366889,1.724733 c 0.07197,-0.0159 0.142522,-0.0349 0.214842,-0.0497 z m -10.7223277,3.55635 1.1789834,1.30951 c 0.054328,-0.0497 0.111125,-0.0963 0.1661583,-0.14534 l -1.1811,-1.31128 z m -5.4528859,16.31139 c 0,-0.0374 0.00282,-0.0737 0.00282,-0.11113 H 0.02395051 v 0.22049 H 1.7843116 c 0,-0.0363 -0.00282,-0.0727 -0.00282,-0.10936 z m 10.2407856,-17.6209 -0.881944,-1.52753 -0.190853,0.11007 0.881592,1.52753 c 0.0635,-0.0374 0.127352,-0.0734 0.191205,-0.11007"
       style="fill:#171717;fill-opacity:1;fill-rule:nonzero;stroke:none;stroke-width:0.0352778"
       id="path190" />
    <path
       d="m 10.761095,139.41602 0.572911,0.3309 1.544461,-2.67511 c -0.19297,-0.10725 -0.384528,-0.21625 -0.573264,-0.3302 z m 10.974563,0.0296 v 3.09527 h 0.661459 v -3.09527 c -0.110773,0.002 -0.219781,0.008 -0.330906,0.008 -0.110772,0 -0.220133,-0.007 -0.330553,-0.008 z m -18.9226464,-8.21902 0.3309055,0.57291 2.6744083,-1.5441 c -0.1139472,-0.18874 -0.2229556,-0.38065 -0.3302,-0.57292 z m 28.4441184,5.84306 1.5494,2.68323 0.572559,-0.33055 -1.548695,-2.68288 c -0.188736,0.1143 -0.380294,0.22296 -0.573264,0.3302 z m 9.762067,-16.9097 c 0.0018,0.11078 0.0081,0.22014 0.0081,0.33162 0,0.11042 -0.0063,0.21978 -0.0081,0.32984 h 3.10268 v -0.66146 z m -2.703689,10.09262 2.684992,1.55011 0.330905,-0.57256 -2.68605,-1.55046 c -0.107244,0.19262 -0.216253,0.38453 -0.329847,0.57291 z m 3.019072,-20.50238 -0.330553,-0.57291 -2.689225,1.55257 c 0.113595,0.18874 0.222956,0.38065 0.329848,0.57327 z m -19.598922,-8.21196 c 0.11042,-0.002 0.219781,-0.008 0.330553,-0.008 0.111125,0 0.220133,0.006 0.330906,0.008 v -3.094569 h -0.661459 z m 9.522883,2.37666 c 0.192617,0.10725 0.384528,0.2159 0.572912,0.32985 l 1.552222,-2.68887 -0.572559,-0.33056 z M 3.104406,120.49161 c 0,-0.11148 0.0067,-0.22084 0.00847,-0.33162 H 0.02395051 v 0.66146 H 3.1128727 c -0.00176,-0.11006 -0.00847,-0.21942 -0.00847,-0.32984 z m 9.773708,-16.5795 -1.54693,-2.67935 -0.572912,0.33091 1.546578,2.67864 c 0.188736,-0.1136 0.380647,-0.22296 0.573264,-0.3302 z m -10.0672191,5.84165 2.6782888,1.54622 c 0.1072445,-0.19297 0.2159,-0.38488 0.3298472,-0.57326 l -2.6772305,-1.54588 -0.3309055,0.57292"
       style="fill:#171717;fill-opacity:1;fill-rule:nonzero;stroke:none;stroke-width:0.0352778"
       id="path192" />
    <path
       d="m 5.006231,119.19409 c -0.20955,0 -0.3721806,0.0649 -0.4864806,0.19579 -0.1143,0.13018 -0.17145,0.31221 -0.17145,0.54575 0,0.20461 0.052211,0.36512 0.1583972,0.48295 0.1054806,0.11642 0.2659945,0.17568 0.4822472,0.17568 0.1337028,0 0.257175,-0.0268 0.3693584,-0.0787 0.1128889,-0.0522 0.2010833,-0.12453 0.2652888,-0.21554 0.065264,-0.0903 0.097014,-0.18592 0.097014,-0.28611 0,-0.14957 -0.030339,-0.28575 -0.089606,-0.41345 -0.061031,-0.12594 -0.1446389,-0.22578 -0.2525889,-0.2981 -0.1083028,-0.0723 -0.231775,-0.1083 -0.3721805,-0.1083 z m 1.0851444,1.07139 c 0,1.21955 -0.4878917,1.8295 -1.4640278,1.8295 -0.1703916,0 -0.3055055,-0.0138 -0.4060472,-0.042 v -0.30551 c 0.1185333,0.0367 0.2515306,0.0554 0.4011083,0.0554 0.3527778,0 0.6194778,-0.10477 0.8008056,-0.31715 0.1788583,-0.21025 0.2776361,-0.53445 0.2928055,-0.97014 h -0.026458 c -0.079728,0.11783 -0.187325,0.20744 -0.3217333,0.26953 -0.1337028,0.0614 -0.2836334,0.0931 -0.4512028,0.0931 -0.2861028,0 -0.511175,-0.0829 -0.6787444,-0.24765 -0.1679223,-0.1651 -0.2515306,-0.39546 -0.2515306,-0.69039 0,-0.32455 0.093133,-0.57996 0.2811639,-0.76799 0.1866194,-0.18768 0.4342694,-0.28117 0.7387167,-0.28117 0.2197805,0 0.4113388,0.0536 0.5753805,0.16263 0.1626305,0.10866 0.2892778,0.26706 0.3767667,0.4752 0.088194,0.20884 0.1329972,0.45473 0.1329972,0.7366"
       style="fill:#040606;fill-opacity:1;fill-rule:nonzero;stroke:none;stroke-width:0.0352778"
       id="path194" />
    <path
       d="m 22.133239,138.27161 c 0.208139,0 0.370769,-0.0646 0.485775,-0.19156 0.115711,-0.12665 0.172861,-0.3108 0.172861,-0.54963 0,-0.20673 -0.05362,-0.36936 -0.160514,-0.48719 -0.107597,-0.11782 -0.268111,-0.17709 -0.48013,-0.17709 -0.132998,0 -0.254353,0.0261 -0.364773,0.0797 -0.110066,0.0518 -0.197555,0.12417 -0.262466,0.21731 -0.06597,0.0914 -0.09913,0.18803 -0.09913,0.28716 0,0.14675 0.03034,0.28257 0.08819,0.40852 0.05927,0.1277 0.143227,0.22754 0.250825,0.30127 0.108302,0.0744 0.230716,0.11148 0.369358,0.11148 z m -1.083381,-1.07421 c 0,-0.61313 0.124178,-1.07139 0.369359,-1.37443 0.246239,-0.30338 0.610658,-0.45473 1.092905,-0.45473 0.166159,0 0.296334,0.0138 0.392642,0.0399 v 0.30445 c -0.1143,-0.0349 -0.242358,-0.0536 -0.388408,-0.0536 -0.34537,0 -0.609248,0.10478 -0.790928,0.31221 -0.182034,0.2092 -0.282575,0.53517 -0.300567,0.98249 h 0.02681 c 0.161925,-0.24448 0.417689,-0.36583 0.766939,-0.36583 0.289983,0 0.517525,0.084 0.684742,0.25364 0.166864,0.16793 0.250119,0.39794 0.250119,0.68898 0,0.32385 -0.09031,0.57714 -0.274108,0.7627 -0.182739,0.18592 -0.430742,0.27905 -0.742245,0.27905 -0.33408,0 -0.597958,-0.12135 -0.79375,-0.36371 -0.195438,-0.24271 -0.293511,-0.58032 -0.293511,-1.01106"
       style="fill:#040606;fill-opacity:1;fill-rule:nonzero;stroke:none;stroke-width:0.0352778"
       id="path208" />
    <path
       d="m 40.047647,119.6654 c 0,0.19897 -0.05927,0.3616 -0.173567,0.4886 -0.115005,0.12594 -0.279753,0.21061 -0.490714,0.25364 v 0.0169 c 0.259292,0.0317 0.45085,0.11042 0.576086,0.23848 0.124178,0.12805 0.185914,0.29633 0.185914,0.50306 0,0.29774 -0.106539,0.52493 -0.318205,0.68615 -0.213431,0.1591 -0.516114,0.23918 -0.90805,0.23918 -0.172156,0 -0.327378,-0.0116 -0.468489,-0.0367 -0.14217,-0.0261 -0.281164,-0.0688 -0.413456,-0.13088 v -0.3369 c 0.138995,0.0663 0.287867,0.11783 0.446264,0.1517 0.157339,0.0353 0.307622,0.0522 0.448028,0.0522 0.555978,0 0.835025,-0.21061 0.835025,-0.63324 0,-0.37747 -0.306564,-0.56691 -0.921808,-0.56691 h -0.317148 v -0.30445 h 0.322439 c 0.251531,0 0.449439,-0.054 0.598311,-0.16122 0.14605,-0.1076 0.220487,-0.25576 0.220487,-0.44662 0,-0.1524 -0.05468,-0.27128 -0.163337,-0.35807 -0.107597,-0.0864 -0.254352,-0.12982 -0.440266,-0.12982 -0.140759,0 -0.273756,0.018 -0.397581,0.0554 -0.126294,0.0363 -0.268816,0.10442 -0.427919,0.20461 l -0.185209,-0.23848 c 0.132998,-0.10195 0.284339,-0.18133 0.457906,-0.23848 0.171803,-0.0579 0.354189,-0.0861 0.544336,-0.0861 0.31362,0 0.557036,0.0688 0.730603,0.20743 0.172155,0.13899 0.26035,0.32914 0.26035,0.57044"
       style="fill:#040606;fill-opacity:1;fill-rule:nonzero;stroke:none;stroke-width:0.0352778"
       id="path214" />
    <path
       d="m 21.077022,105.57369 h -0.357716 v -2.22215 c 0,-0.18415 0.0056,-0.35912 0.01799,-0.52422 -0.03034,0.03 -0.06491,0.061 -0.104069,0.0935 -0.0381,0.0332 -0.213078,0.17181 -0.524933,0.41628 l -0.193675,-0.24342 0.853722,-0.63711 h 0.30868 v 3.11714"
       style="fill:#040606;fill-opacity:1;fill-rule:nonzero;stroke:none;stroke-width:0.0352778"
       id="path220" />
    <path
       d="m 24.42065,105.57369 h -2.118078 v -0.3048 l 0.848431,-0.82515 c 0.258939,-0.25294 0.428978,-0.43356 0.51188,-0.54186 0.08255,-0.10725 0.144639,-0.21343 0.183798,-0.31539 0.04127,-0.10265 0.06209,-0.21237 0.06209,-0.3309 0,-0.16581 -0.05186,-0.2981 -0.155575,-0.39476 -0.10548,-0.0977 -0.249061,-0.14605 -0.434975,-0.14605 -0.132997,0 -0.26035,0.0215 -0.380294,0.0642 -0.119944,0.0427 -0.252942,0.11994 -0.400403,0.23142 l -0.193675,-0.2406 c 0.297039,-0.23883 0.620889,-0.35807 0.969434,-0.35807 0.304094,0 0.541161,0.0752 0.712611,0.22472 0.172155,0.14923 0.258233,0.35208 0.258233,0.60396 0,0.19791 -0.05786,0.3937 -0.172156,0.58702 -0.115711,0.19297 -0.329141,0.4378 -0.644172,0.73343 l -0.70485,0.66675 v 0.0173 h 1.657703 v 0.32879"
       style="fill:#040606;fill-opacity:1;fill-rule:nonzero;stroke:none;stroke-width:0.0352778"
       id="path222" />
    <path
       style="fill:#41f2ff;stroke-width:1.8855;fill-opacity:1"
       d="m 76.2505,166.03772 c -0.36293,-0.23007 -0.414075,-0.94611 -0.223573,-3.12999 0.177342,-2.03302 0.128927,-2.90466 -0.171657,-3.09043 -0.630991,-0.38997 -0.705237,-0.17692 -0.950836,2.7285 -0.124681,1.47497 -0.329898,2.84876 -0.456038,3.05285 -0.157515,0.25487 -1.339858,0.19786 -3.775141,-0.18204 l -3.545797,-0.55314 0.654395,-3.0177 c 0.359921,-1.65974 0.576384,-3.09571 0.481034,-3.19106 -0.547573,-0.54758 -1.177202,0.48746 -1.590785,2.61507 -0.25931,1.33399 -0.570409,2.60956 -0.691324,2.8346 -0.159417,0.2967 -1.139885,0.1703 -3.56706,-0.45986 -1.840967,-0.47796 -3.408609,-0.93041 -3.483647,-1.00545 -0.07504,-0.075 0.294164,-1.42941 0.820453,-3.00971 0.526289,-1.58031 0.867775,-2.96239 0.758856,-3.07131 -0.547014,-0.54701 -1.221258,0.42324 -1.98382,2.85476 -0.46424,1.48028 -0.961566,2.69142 -1.105173,2.69142 -0.359988,0 -5.69636,-2.0629 -6.251849,-2.4168 -0.345347,-0.22002 -0.16,-0.92378 0.795495,-3.02048 0.685166,-1.50349 1.245753,-2.80436 1.245753,-2.89081 0,-0.0865 -0.289447,-0.15719 -0.643213,-0.15719 -0.461157,0 -0.973046,0.75053 -1.808528,2.65165 -0.640922,1.45841 -1.230055,2.65165 -1.30918,2.65165 -0.07912,0 -1.405315,-0.63425 -2.947094,-1.40944 l -2.803229,-1.40943 2.786255,-4.85768 2.786259,-4.85767 -0.947452,-0.62485 c -0.521096,-0.34367 -1.117473,-0.6259 -1.325281,-0.62718 -0.207805,-0.001 -1.612214,2.14206 -3.120908,4.76298 l -2.743076,4.76531 -2.624335,-1.77088 c -1.443385,-0.97398 -2.620095,-1.88536 -2.614912,-2.02527 0.0052,-0.13992 0.721125,-1.19694 1.59099,-2.34894 0.869861,-1.15199 1.581568,-2.30546 1.581568,-2.56326 0,-1.05311 -1.019584,-0.33893 -2.611664,1.82938 -0.928058,1.26395 -1.771454,2.2981 -1.874212,2.2981 -0.268366,0 -4.514584,-3.4086 -5.050222,-4.05401 -0.380053,-0.45793 -0.142115,-0.89259 1.53322,-2.80082 1.6204,-1.84566 1.894138,-2.33259 1.496731,-2.66241 -0.38757,-0.32165 -0.901565,0.0693 -2.530547,1.92473 l -2.044191,2.32836 -2.615464,-2.58284 -2.615464,-2.58284 2.145498,-1.98853 c 1.180025,-1.09369 2.1455,-2.15822 2.1455,-2.36562 0,-0.97638 -0.830309,-0.621 -2.791675,1.19489 -1.174673,1.08753 -2.29474,1.87909 -2.489038,1.75901 -0.194298,-0.12009 -1.302105,-1.37952 -2.461795,-2.79874 l -2.108525,-2.58041 2.446546,-1.73682 c 2.301828,-1.63409 2.850038,-2.33467 2.160414,-2.76088 -0.161879,-0.10005 -1.377273,0.60761 -2.700875,1.57256 -1.801457,1.31333 -2.521043,1.65944 -2.861911,1.37655 -0.250449,-0.20786 -1.097629,-1.40227 -1.882623,-2.65426 l -1.427261,-2.27634 0.782799,-0.48689 c 0.430539,-0.26779 2.532887,-1.48895 4.671885,-2.71369 2.138999,-1.22473 3.943389,-2.26636 4.009758,-2.31472 0.195083,-0.14215 -0.276342,-1.3261 -0.804287,-2.01991 -0.458117,-0.60204 -0.769278,-0.47773 -5.088343,2.03293 -2.530213,1.4708 -4.735993,2.67419 -4.901735,2.67419 -0.29483,0 -2.9388226,-4.85959 -2.9383502,-5.40062 1.315e-4,-0.15074 1.193482,-0.81786 2.6518902,-1.48248 2.499516,-1.13907 3.070927,-1.65487 2.336262,-2.10892 -0.173463,-0.10721 -1.530463,0.35881 -3.015554,1.03558 l -2.7001676,1.23051 -0.3802018,-0.96807 c -1.2987091,-3.30675 -2.07397,-5.44494 -2.07397,-5.72007 0,-0.17404 1.2727922,-0.74032 2.8284272,-1.25839 1.5556349,-0.51808 2.8284272,-1.09298 2.8284272,-1.27757 0,-0.70773 -0.99069,-0.64865 -3.5138672,0.20954 -1.438753,0.48935 -2.651899,0.85029 -2.6958804,0.8021 -0.2110257,-0.23125 -1.5423964,-5.16129 -1.6372796,-6.06282 -0.103753,-0.9858 -0.025936,-1.0438 2.0133961,-1.50054 1.1667262,-0.26131 2.4792932,-0.55861 2.9168155,-0.66067 0.4375223,-0.10207 0.7954951,-0.421192 0.7954951,-0.709168 0,-0.648711 -0.028026,-0.648389 -3.3483359,0.03826 C 4.1730003,100.04261 2.8798259,100.22486 2.7935548,100.13859 2.6039671,99.949 1.5921554,94.299312 1.5914736,93.426484 c -3.608e-4,-0.461808 0.2909207,-0.619496 1.1485652,-0.621791 0.6319767,-0.0017 1.9843184,-0.1034 3.0052038,-0.226023 1.5202913,-0.18261 1.8561554,-0.346298 1.8561554,-0.904637 0,-0.480277 -0.1828023,-0.629908 -0.6187185,-0.506447 -0.3402951,0.09638 -1.7721864,0.282347 -3.1819805,0.413261 L 1.2374369,91.81887 v -2.289785 c 0,-1.259382 -0.099437,-2.78697 -0.2209709,-3.394639 L 0.79549514,85.029591 H 6.4965436 12.197592 V 83.615378 82.201164 H 6.4965436 0.79549514 L 1.016466,81.09631 C 1.138,80.48864 1.2374369,79.039859 1.2374369,77.876796 v -2.11466 l 3.1819805,0.251844 c 2.6828699,0.21234 3.1819806,0.170027 3.1819806,-0.269762 0,-0.547509 -1.6237499,-0.952165 -3.8890874,-0.969199 C 1.3440521,74.75721 1.3234822,74.67118 2.3543684,69.095576 L 2.7183576,67.12692 5.7372983,67.781588 C 7.3977159,68.141654 8.8342528,68.358237 8.929603,68.262887 9.4914527,67.701038 8.4369864,67.069323 6.2477895,66.656249 4.8809761,66.398353 3.5893798,66.080239 3.3775752,65.94934 3.1108007,65.784464 3.2527448,64.709269 3.8395464,62.450017 4.305435,60.656288 4.7765106,59.098801 4.8863816,58.988931 c 0.1098706,-0.109871 1.4340868,0.215239 2.9427026,0.722468 1.6516753,0.555327 2.8711868,0.793982 3.0652978,0.599874 0.563638,-0.563638 7.25e-4,-0.931546 -2.7408167,-1.791338 -1.5250551,-0.47828 -2.6734877,-1.035565 -2.6734877,-1.297329 0,-0.539717 2.064318,-5.845171 2.4128895,-6.201309 0.1313186,-0.13417 1.4320037,0.285088 2.8904119,0.931688 1.458407,0.646596 2.770974,1.104953 2.916815,1.018573 0.760625,-0.450515 0.0085,-1.14715 -2.246566,-2.080704 C 10.072176,50.318949 8.8682742,49.668733 8.7782899,49.445931 8.626264,49.069509 10.450486,45.065418 11.1986,44.133448 c 0.241657,-0.301047 1.649731,0.346988 5.151556,2.370894 l 4.819001,2.785177 0.640742,-1.053618 c 0.352408,-0.579488 0.640741,-1.17385 0.640741,-1.320805 0,-0.146958 -2.15418,-1.5137 -4.787068,-3.037204 l -4.787068,-2.770009 0.605361,-0.931726 c 0.332949,-0.512451 1.095013,-1.68459 1.693476,-2.604756 0.598463,-0.920165 1.232757,-1.675885 1.409541,-1.679378 0.176785,-0.0035 1.192441,0.651266 2.257012,1.455028 1.064572,0.803761 2.192723,1.479932 2.507001,1.502602 1.174816,0.08475 0.499498,-0.884054 -1.769126,-2.537966 l -2.340541,-1.706345 2.335862,-2.885384 2.335861,-2.885383 1.242117,1.144131 c 3.565071,3.283838 3.50048,3.239911 3.761976,2.558465 0.183798,-0.478971 -0.290815,-1.114312 -1.95675,-2.619401 l -2.199404,-1.987052 2.625828,-2.59465 2.625827,-2.594651 1.894893,2.152709 c 1.042191,1.18399 2.088759,2.152709 2.325706,2.152709 1.018394,0 0.685041,-0.758781 -1.271326,-2.893811 l -2.084601,-2.274975 2.879449,-2.331057 2.87945,-2.331057 1.693435,2.352188 c 1.610199,2.236573 2.355115,2.800032 2.626283,1.98653 0.06704,-0.201111 -0.595875,-1.352072 -1.47314,-2.557689 -0.877262,-1.205618 -1.592348,-2.313864 -1.589074,-2.46277 0.0098,-0.446521 5.088315,-3.627098 5.353413,-3.352749 0.134768,0.139471 1.384452,2.242322 2.77707,4.673001 1.392622,2.43068 2.596716,4.484758 2.675767,4.564618 0.118337,0.119549 2.622828,-1.068637 2.622828,-1.244327 0,-0.02995 -1.257734,-2.214167 -2.794966,-4.853826 -2.005843,-3.44433 -2.679638,-4.891915 -2.386486,-5.127123 0.928113,-0.74466 4.931617,-2.566977 5.306685,-2.4154981 0.222802,0.089984 0.873018,1.2938861 1.444923,2.6753381 0.933554,2.255026 1.630189,3.007191 2.080704,2.246566 0.08638,-0.145841 -0.371977,-1.458408 -1.018573,-2.916815 -0.6466,-1.4584082 -1.065858,-2.7590933 -0.931688,-2.8904119 0.356138,-0.3485715 5.661592,-2.4128895 6.201309,-2.4128895 0.261764,0 0.819049,1.1484326 1.297329,2.6734877 0.859792,2.7415417 1.2277,3.3044547 1.791338,2.7408167 0.194108,-0.194111 -0.04455,-1.4136225 -0.599874,-3.0652978 -0.507229,-1.5086158 -0.832339,-2.832832 -0.722468,-2.9427026 0.10987,-0.109871 1.667357,-0.5809466 3.461086,-1.0468354 2.259252,-0.5868014 3.334447,-0.7287455 3.499323,-0.461971 0.130899,0.2118046 0.449013,1.5034009 0.706909,2.8702143 0.409393,2.1696903 1.04457,3.2438827 1.593528,2.6949243 0.08814,-0.088139 -0.101112,-1.4633614 -0.420558,-3.0560498 -0.319447,-1.5926884 -0.491213,-2.9853971 -0.3817,-3.0949081 0.109509,-0.1095111 1.66152,-0.4456924 3.448906,-0.7470695 3.667508,-0.6183894 3.862034,-0.5347512 3.878594,1.6676242 0.01703,2.2653375 0.42169,3.8890874 0.969199,3.8890874 0.439789,0 0.482102,-0.4991107 0.269762,-3.1819806 L 75.762136,1.2374369 h 2.11466 c 1.163063,0 2.611844,-0.099437 3.219514,-0.2209709 L 82.201164,0.79549514 V 6.4965436 12.197592 h 1.414214 1.414213 V 6.5636965 0.92980052 L 88.29996,1.1321195 c 1.798703,0.1112754 3.323229,0.246612 3.387837,0.300748 0.06461,0.054136 -0.02257,1.4642019 -0.193733,3.1334796 -0.28309,2.760913 -0.255976,3.0350509 0.300177,3.0350509 0.508484,0 0.653335,-0.48099 0.860687,-2.858033 0.155401,-1.7815019 0.418024,-2.9227758 0.697229,-3.0299157 0.469618,-0.1802098 6.468033,0.7617044 6.769293,1.062963 0.0957,0.095699 -0.0788,1.396588 -0.387863,2.8908633 -0.685872,3.3165161 -0.6863,3.3483359 -0.04516,3.3483359 0.514463,0 0.895783,-1.0709917 1.510543,-4.2426407 0.28939,-1.4929637 0.37258,-1.5843407 1.35028,-1.483066 0.91185,0.094453 5.84433,1.4228778 6.07927,1.6372796 0.0482,0.043981 -0.31275,1.2571274 -0.8021,2.6958804 -0.85819,2.5231772 -0.91727,3.5138672 -0.20954,3.5138672 0.18459,0 0.75949,-1.2727923 1.27757,-2.8284272 0.51807,-1.555635 1.08435,-2.8284272 1.25839,-2.8284272 0.27513,0 2.41332,0.7752609 5.72007,2.07397 l 0.96807,0.3802018 -1.23051,2.7001676 c -0.67677,1.485091 -1.14279,2.842091 -1.03558,3.015554 0.45405,0.734665 0.96985,0.163254 2.10892,-2.336262 0.66462,-1.4584082 1.33174,-2.6540434 1.48248,-2.6569676 0.54367,-0.010545 5.40062,2.6259696 5.40062,2.9316336 0,0.172228 -1.20339,2.383316 -2.67419,4.913529 -2.51066,4.319065 -2.63497,4.630226 -2.03293,5.088343 0.69381,0.527945 1.87776,0.99937 2.01991,0.804287 0.0484,-0.06637 1.08999,-1.870759 2.31472,-4.009758 1.22474,-2.138998 2.4459,-4.241346 2.71369,-4.671885 l 0.48689,-0.782799 2.27634,1.427261 c 1.25199,0.784994 2.4464,1.632174 2.65426,1.882623 0.28289,0.340868 -0.0632,1.060454 -1.37655,2.861911 -0.96495,1.323602 -1.67261,2.538996 -1.57256,2.700875 0.42621,0.689624 1.12679,0.141414 2.76088,-2.160414 l 1.73682,-2.446546 2.58041,2.108525 c 1.41922,1.15969 2.67865,2.267497 2.79874,2.461795 0.12008,0.194298 -0.67148,1.314365 -1.75901,2.489038 -1.81589,1.961366 -2.17127,2.791675 -1.19489,2.791675 0.2074,0 1.27193,-0.965475 2.36562,-2.1455 l 1.98853,-2.145498 2.58284,2.615464 2.58284,2.615464 -2.32836,2.044191 c -1.85544,1.628982 -2.24638,2.142977 -1.92473,2.530547 0.32982,0.397407 0.81675,0.123669 2.66241,-1.496731 1.90823,-1.675335 2.34289,-1.913273 2.80082,-1.53322 0.64541,0.535638 4.05401,4.781856 4.05401,5.050222 0,0.102758 -1.03415,0.946154 -2.2981,1.874212 -2.16831,1.59208 -2.88249,2.611664 -1.82938,2.611664 0.2578,0 1.41127,-0.711707 2.56326,-1.581568 1.152,-0.869865 2.20902,-1.585811 2.34894,-1.59099 0.13991,-0.0052 1.05129,1.171527 2.02527,2.614912 l 1.77088,2.624335 -4.76531,2.743076 c -2.62092,1.508694 -4.76426,2.913103 -4.76298,3.120908 0.001,0.207808 0.28351,0.804185 0.62718,1.325281 l 0.62485,0.947452 4.85767,-2.786259 4.85768,-2.786255 1.40943,2.803229 c 0.77519,1.541779 1.40944,2.867969 1.40944,2.947094 0,0.07913 -1.19324,0.668258 -2.65165,1.30918 -1.90112,0.835482 -2.65165,1.347371 -2.65165,1.808528 0,0.353766 0.0707,0.643213 0.15719,0.643213 0.0865,0 1.38732,-0.560587 2.89081,-1.245753 2.09915,-0.956613 2.80091,-1.141245 3.02352,-0.795495 0.38185,0.593072 2.41376,5.820875 2.41376,6.210236 0,0.166492 -1.21114,0.682546 -2.69142,1.146786 -2.43152,0.762562 -3.40177,1.436806 -2.85476,1.98382 0.10892,0.108919 1.491,-0.232567 3.07131,-0.758856 1.5803,-0.526289 2.93467,-0.895491 3.00971,-0.820453 0.075,0.07504 0.52749,1.64268 1.00545,3.483647 0.63008,2.426893 0.75652,3.407537 0.45986,3.566607 -0.22504,0.120668 -1.49591,0.41953 -2.82417,0.664136 -2.14249,0.394552 -3.19845,1.045475 -2.6255,1.618426 0.0953,0.09535 1.53132,-0.121113 3.19106,-0.481034 l 3.0177,-0.654395 0.55259,3.542255 c 0.30392,1.948238 0.48976,3.605074 0.41298,3.681855 -0.0768,0.07678 -1.46334,0.298618 -3.08125,0.492974 -1.61791,0.194359 -2.99736,0.407081 -3.06545,0.472718 -0.0681,0.06564 -0.007,0.307744 0.13496,0.53801 0.18577,0.300584 1.05741,0.348999 3.09043,0.171657 2.18388,-0.190502 2.89992,-0.139357 3.12999,0.223573 0.16408,0.258822 0.30076,1.703604 0.30374,3.210625 l 0.005,2.740039 h -5.48008 -5.48007 v 1.414214 1.414213 h 5.48007 5.48008 l -0.005,2.916816 c -0.003,1.604248 -0.13928,3.127961 -0.30289,3.386026 -0.23583,0.371995 -0.87568,0.400909 -3.08818,0.139562 -2.65807,-0.31398 -3.2951,-0.183427 -3.31562,0.679519 -0.003,0.125197 1.4408,0.342095 3.2084,0.481996 l 3.21382,0.254364 -0.18435,1.108994 c -0.86816,5.222921 -1.10187,6.233952 -1.43855,6.223102 -0.21192,-0.007 -1.41946,-0.239893 -2.68341,-0.517913 -1.26396,-0.27802 -2.49697,-0.511079 -2.74004,-0.51791 -0.77687,-0.02183 -0.47284,1.027563 0.35355,1.220343 0.43752,0.10206 1.75009,0.39921 2.91682,0.66033 1.74968,0.39159 2.10473,0.59254 2.02662,1.14699 -0.0896,0.63575 -1.54719,6.22992 -1.67194,6.41671 -0.0322,0.0482 -1.22695,-0.30978 -2.65502,-0.7955 -2.98948,-1.01679 -3.53329,-1.07555 -3.53329,-0.38182 0,0.31242 1.06567,0.85619 2.82842,1.44325 1.55564,0.51807 2.82843,1.08688 2.82843,1.26403 0,0.17714 -0.57035,1.74709 -1.26745,3.48877 l -1.26744,3.16669 -2.00292,-0.8974 c -3.88205,-1.73932 -3.94747,-1.75571 -3.94747,-0.98868 0,0.34399 1.0032,1.01684 2.65165,1.77847 1.45841,0.67383 2.65165,1.29724 2.65165,1.38536 0,0.49933 -2.68355,5.47522 -2.95284,5.47522 -0.17761,0 -2.38271,-1.19484 -4.90024,-2.6552 -2.51753,-1.46036 -4.7031,-2.57746 -4.85682,-2.48246 -0.34523,0.21336 -1.22504,2.28831 -1.03788,2.44774 0.0748,0.0637 2.16449,1.28234 4.64378,2.70806 2.47929,1.42572 4.50781,2.73275 4.50781,2.90451 0,0.38792 -3.09976,5.20908 -3.34917,5.20908 -0.0998,0 -1.24975,-0.78446 -2.55545,-1.74325 -1.30569,-0.95878 -2.50004,-1.66533 -2.65411,-1.57012 -0.69369,0.42873 -0.1138,1.1896 2.00957,2.63675 1.25933,0.85828 2.29347,1.69234 2.2981,1.85346 0.01,0.33741 -4.1848,5.54067 -4.46649,5.54067 -0.10277,0 -1.15206,-0.87346 -2.33177,-1.94104 -1.73895,-1.57366 -2.24063,-1.86161 -2.65057,-1.52139 -0.42024,0.34877 -0.10772,0.77535 1.85006,2.52537 l 2.35571,2.1057 -2.58918,2.61839 -2.58917,2.6184 -2.13615,-2.3553 c -1.74853,-1.92789 -2.21045,-2.26577 -2.54556,-1.86199 -0.32651,0.39342 -0.0193,0.93127 1.51744,2.65641 1.05976,1.18971 1.92683,2.24671 1.92683,2.34888 0,0.10218 -1.19886,1.1654 -2.66414,2.36273 -3.0193,2.46716 -2.86992,2.48395 -4.96512,-0.55819 -1.23928,-1.79939 -1.98941,-2.31375 -2.40162,-1.64679 -0.0952,0.15407 0.61134,1.34842 1.57012,2.65411 0.95879,1.3057 1.74325,2.44909 1.74325,2.54087 0,0.26703 -4.72742,3.36375 -5.13506,3.36375 -0.20331,0 -1.55735,-2.06597 -3.00898,-4.59104 -1.45164,-2.52507 -2.76657,-4.59335 -2.92206,-4.59619 -0.35405,-0.006 -2.36893,1.02442 -2.36893,1.21203 0,0.0761 1.19324,2.19183 2.65165,4.7016 1.45841,2.50977 2.65165,4.71546 2.65165,4.90154 0,0.4061 -5.23712,3.05088 -5.59873,2.82739 -0.139,-0.0859 -0.72601,-1.28199 -1.30447,-2.65797 -0.73332,-1.74433 -1.23908,-2.5022 -1.67047,-2.50313 -0.34029,-7.4e-4 -0.61872,0.0678 -0.61872,0.15242 0,0.22942 0.53708,1.55075 1.54202,3.79371 l 0.8974,2.00292 -3.16669,1.26744 c -1.74168,0.6971 -3.31991,1.26745 -3.50717,1.26745 -0.18726,0 -0.7154,-1.23302 -1.17364,-2.74004 -0.5602,-1.84235 -1.02701,-2.77749 -1.42485,-2.85435 -0.77401,-0.14954 -0.75238,0.11169 0.2779,3.35605 0.47827,1.50609 0.83624,2.76342 0.79549,2.79407 -0.38493,0.28955 -6.99521,1.8032 -7.09586,1.62485 -0.0733,-0.12982 -0.24336,-0.87243 -0.378,-1.65025 -0.48418,-2.79713 -0.93748,-4.06586 -1.452693,-4.06586 -0.629056,0 -0.627921,0.26533 0.01363,3.18198 0.27802,1.26395 0.511083,2.47149 0.517913,2.68341 0.0108,0.33645 -1.012495,0.57307 -6.215178,1.43707 l -1.101072,0.18285 -0.253395,-3.23916 c -0.209,-2.67163 -0.346362,-3.20349 -0.784001,-3.03555 -0.291834,0.11198 -0.566191,0.20361 -0.609685,0.20361 -0.04349,0 0.05778,1.29779 0.225054,2.88399 0.237143,2.24873 0.202523,2.94843 -0.157168,3.17656 -0.253717,0.16092 -1.77387,0.29502 -3.378118,0.298 l -2.916816,0.005 v -5.48008 -5.48007 h -1.414213 -1.414214 v 5.48007 5.48008 l -2.740039,-0.005 c -1.507021,-0.003 -2.951803,-0.13966 -3.210625,-0.30374 z m 10.574053,-14.86645 c 0.887907,-0.8879 1.031881,-1.29872 1.022222,-2.91681 -0.0062,-1.03585 -0.205061,-2.13579 -0.441941,-2.44432 -1.087241,-1.41609 -3.696182,-1.83398 -5.139281,-0.8232 -0.783322,0.54866 -0.795177,0.53942 -0.566937,-0.44194 0.545399,-2.34504 2.061365,-3.47987 4.303247,-3.22135 1.001606,0.11549 1.149049,0.0282 1.149049,-0.68039 0,-0.73031 -0.165174,-0.81289 -1.625947,-0.81289 -3.492149,0 -5.315251,1.85985 -5.682953,5.79752 -0.164201,1.75838 -0.06836,2.70975 0.395255,3.92373 0.719064,1.88283 1.841246,2.61876 4.024024,2.63896 1.230147,0.0114 1.732232,-0.18828 2.563262,-1.01931 z M 20.68839,89.320633 c 1.779653,-0.951571 2.551482,-2.501726 2.744702,-5.512502 0.269779,-4.203721 -1.189592,-6.203161 -4.527624,-6.203161 -1.141139,0 -1.684103,0.225136 -2.492432,1.033465 -0.874885,0.874885 -1.033463,1.313062 -1.033463,2.855622 0,1.542561 0.158578,1.980737 1.033463,2.855623 1.113326,1.113325 2.944556,1.389182 4.323361,0.651266 1.046251,-0.559936 1.167701,-0.181376 0.427173,1.331511 -0.803175,1.640869 -1.998138,2.310938 -3.751065,2.103384 -1.208041,-0.143037 -1.325826,-0.08145 -1.325826,0.693258 0,0.779009 0.141155,0.85024 1.684895,0.85024 0.967107,0 2.209709,-0.280616 2.916816,-0.658706 z m 130.00767,-0.07146 c 1.57069,-0.980913 2.01521,-3.713049 0.80157,-4.926689 -0.38891,-0.388908 -0.85898,-0.707106 -1.04459,-0.707106 -0.18562,0 0.053,-0.390518 0.53033,-0.867815 0.85401,-0.854008 1.12016,-2.305826 0.64819,-3.535764 -0.56853,-1.481569 -3.99056,-2.073053 -6.33247,-1.094541 -1.301,0.543592 -1.50269,0.939335 -0.7831,1.53654 0.31142,0.258458 0.70518,0.222533 1.32582,-0.120958 1.19055,-0.658893 3.00585,-0.638245 3.68602,0.04193 1.28701,1.287008 0.15941,2.910688 -2.2454,3.233242 -1.10309,0.147955 -1.44166,0.348494 -1.44166,0.85392 0,0.516831 0.26424,0.660554 1.21443,0.660554 1.55017,0 2.98827,0.545194 3.25218,1.232922 0.75908,1.978135 -1.50162,3.395128 -4.29463,2.691839 -1.9925,-0.501717 -1.93974,-0.510672 -1.93974,0.329272 0,0.408198 0.34355,0.866022 0.79549,1.060087 1.06067,0.455448 4.88502,0.201197 5.82756,-0.387431 z M 80.079844,21.38998 c 0,-5.619494 -0.04268,-6.010407 -0.656266,-6.010407 -0.740221,0 -3.939928,2.319194 -3.939928,2.855718 0,0.705112 1.063308,0.726079 2.026865,0.03997 l 0.991303,-0.70587 -0.134994,4.9155 -0.13499,4.9155 h 0.924005 0.924005 z m 12.727922,5.303301 c 0,-0.64906 -0.235704,-0.707107 -2.871253,-0.707107 H 87.06526 l 2.320014,-2.459337 c 3.177914,-3.368755 3.760238,-5.859849 1.741084,-7.448114 -1.093806,-0.860387 -3.892436,-0.943065 -5.407217,-0.159741 -1.167391,0.603681 -1.28178,0.943692 -0.527962,1.569306 0.408114,0.338704 0.681556,0.310969 1.316106,-0.133486 1.234064,-0.864372 2.994661,-0.725139 3.659409,0.289395 0.830691,1.267794 0.05924,2.700433 -3.154559,5.858255 -3.784164,3.718252 -3.712576,3.897936 1.55299,3.897936 4.006937,0 4.242641,-0.03928 4.242641,-0.707107 z"
       id="path1"
       transform="matrix(0.26458333,0,0,0.26458333,-0.09317171,98.332576)" />
    <path
       style="fill:#41f2ff;fill-opacity:1;stroke-width:1.8855"
       d="m 82.66138,150.25975 c -0.416778,-0.29192 -0.869424,-1.03908 -1.005879,-1.66036 -0.20927,-0.9528 -0.0999,-1.25707 0.698827,-1.9441 1.785997,-1.53625 3.877345,-0.76787 3.877345,1.42457 0,2.26472 -1.842807,3.38987 -3.570293,2.17989 z"
       id="path2"
       transform="matrix(0.26458333,0,0,0.26458333,-0.09317171,98.332576)" />
    <path
       style="fill:#41f2ff;fill-opacity:1;stroke-width:1.8855"
       d="m 17.678632,83.262888 c -1.316563,-1.454787 -0.341217,-4.243705 1.484118,-4.243705 1.663707,0 3.175288,2.45219 2.310205,3.747771 -0.375497,0.562358 -1.6951,1.201977 -2.479809,1.201977 -0.371554,0 -0.963086,-0.317719 -1.314514,-0.706043 z"
       id="path3"
       transform="matrix(0.26458333,0,0,0.26458333,-0.09317171,98.332576)" />
  </g>
</svg>
