<?xml version="1.0" encoding="UTF-8" standalone="no"?>
<!-- Created with Inkscape (http://www.inkscape.org/) -->

<svg
   xmlns:dc="http://purl.org/dc/elements/1.1/"
   xmlns:cc="http://creativecommons.org/ns#"
   xmlns:rdf="http://www.w3.org/1999/02/22-rdf-syntax-ns#"
   xmlns:svg="http://www.w3.org/2000/svg"
   xmlns="http://www.w3.org/2000/svg"
   xmlns:sodipodi="http://sodipodi.sourceforge.net/DTD/sodipodi-0.dtd"
   xmlns:inkscape="http://www.inkscape.org/namespaces/inkscape"
   version="1.1"
   width="12"
   height="48.5"
   id="svg2"
   inkscape:version="0.91 r"
   sodipodi:docname="hour.svg">
  <sodipodi:namedview
     pagecolor="#ffffff"
     bordercolor="#666666"
     borderopacity="1"
     objecttolerance="10"
     gridtolerance="10"
     guidetolerance="10"
     inkscape:pageopacity="0"
     inkscape:pageshadow="2"
     inkscape:window-width="843"
     inkscape:window-height="900"
     id="namedview7"
     showgrid="false"
     inkscape:zoom="45.28"
     inkscape:cx="5.9077165"
     inkscape:cy="5.0416699"
     inkscape:window-x="0"
     inkscape:window-y="0"
     inkscape:window-maximized="0"
     inkscape:current-layer="svg2"
     showguides="true"
     inkscape:guide-bbox="true">
    <sodipodi:guide
       position="-0.68462898,1.5680212"
       orientation="0,1"
       id="guide3345" />
    <sodipodi:guide
       position="6.0070671,11.506184"
       orientation="1,0"
       id="guide3347" />
  </sodipodi:namedview>
  <defs
     id="defs4" />
  <metadata
     id="metadata7">
    <rdf:RDF>
      <cc:Work
         rdf:about="">
        <dc:format>image/svg+xml</dc:format>
        <dc:type
           rdf:resource="http://purl.org/dc/dcmitype/StillImage" />
        <dc:title></dc:title>
      </cc:Work>
    </rdf:RDF>
  </metadata>
  <g
     transform="matrix(1.0418734,0,0,1.0418734,4.4067126,-1059.9516)"
     id="layer1">
    <path
       d="m 1.5203062,1017.3546 -4.9287925,7.887 c -1.4844597,2.9589 -0.9896389,6.8975 2.95921758,7.887 l 0,14.7844 c -0.48511659,0.3104 -0.82469938,0.679 -1.11576918,1.1738 -0.3298814,0.5722 -0.4754151,1.1253 -0.4754151,1.7751 0,0.6598 0.1455333,1.2127 0.4754151,1.7753 0.2910698,0.5045 0.63065259,0.8636 1.11576918,1.1836 0,1.4746 -0.67499678,6.763 -1.16981508,8.2474 1.01874581,0.2718 2.09283061,0.3497 3.1503841,0.3497 1.0478551,0 2.1732462,-0.098 3.1822895,-0.3709 -0.4851185,-1.4844 -1.2237051,-6.7516 -1.2237051,-8.2262 0.4754162,-0.32 0.8247009,-0.6791 1.1060676,-1.1836 0.3298802,-0.5626 0.4754171,-1.1155 0.4754171,-1.7753 0,-0.6498 -0.1455339,-1.2029 -0.4754171,-1.7751 -0.2813667,-0.4948 -0.6306514,-0.8634 -1.1060676,-1.1738 l 0,-14.7844 c 3.939153,-0.9895 4.4339756,-4.9281 2.9592156,-7.887 z m -0.69856799,32.1878 c 0.22315389,-0.126 0.43660609,-0.1524 0.69856799,-0.1524 0.2522616,0 0.5708041,0.092 0.7939582,0.216 0.2134517,0.1261 0.3783913,0.3016 0.5045217,0.5151 0.1261351,0.2232 0.1949438,0.5098 0.1949438,0.762 0,0.2621 -0.079408,0.5284 -0.2055424,0.7518 -0.058202,0.1155 -0.1473325,0.2142 -0.2443499,0.3013 -0.087328,0.086 -0.227635,0.1659 -0.334362,0.2338 -0.2231541,0.126 -0.4569078,0.1843 -0.7091694,0.1843 -0.2619619,0 -0.54960432,-0.092 -0.77275821,-0.2161 -0.22315379,-0.1351 -0.38898988,-0.3441 -0.52482161,-0.5669 -0.1261303,-0.2234 -0.18434536,-0.4473 -0.18434536,-0.7094 0,-0.2522 0.0476183,-0.4964 0.17374676,-0.7196 0.0679144,-0.1073 0.18882563,-0.2787 0.27614681,-0.366 0.087317,-0.095 0.21703755,-0.1756 0.33346362,-0.2339 z"
       id="path61"
       style="fill:#202020;stroke:none"
       inkscape:connector-curvature="0"
       sodipodi:nodetypes="cccccscccscccsccccccsccscccsccsccc" />
  </g>
</svg>
