<?xml version="1.0" encoding="UTF-8" standalone="no"?>
<!-- Created with Inkscape (http://www.inkscape.org/) -->

<svg
   width="44.317707mm"
   height="44.317703mm"
   viewBox="0 0 44.317707 44.317703"
   version="1.1"
   id="svg6511"
   inkscape:version="1.2.1 (9c6d41e410, 2022-07-14)"
   sodipodi:docname="clock-face-symbolic.svg"
   xmlns:inkscape="http://www.inkscape.org/namespaces/inkscape"
   xmlns:sodipodi="http://sodipodi.sourceforge.net/DTD/sodipodi-0.dtd"
   xmlns="http://www.w3.org/2000/svg"
   xmlns:svg="http://www.w3.org/2000/svg">
  <sodipodi:namedview
     id="namedview6513"
     pagecolor="#ffffff"
     bordercolor="#000000"
     borderopacity="0.25"
     inkscape:showpageshadow="2"
     inkscape:pageopacity="0.0"
     inkscape:pagecheckerboard="0"
     inkscape:deskcolor="#d1d1d1"
     inkscape:document-units="mm"
     showgrid="false"
     inkscape:zoom="4"
     inkscape:cx="89.625001"
     inkscape:cy="104.875"
     inkscape:window-width="1499"
     inkscape:window-height="1236"
     inkscape:window-x="650"
     inkscape:window-y="134"
     inkscape:window-maximized="0"
     inkscape:current-layer="layer1"
     showguides="true" />
  <defs
     id="defs6508">
    <clipPath
       clipPathUnits="userSpaceOnUse"
       id="clipPath2426">
      <path
         d="m 8060.68,5204.7 c -93.72,0 -175.9,82.2 -175.9,175.9 0,93.7 82.18,175.9 175.9,175.9 93.72,0 175.91,-82.2 175.91,-175.9 0,-93.7 -82.19,-175.9 -175.91,-175.9 z"
         id="path2424" />
    </clipPath>
    <linearGradient
       x1="0"
       y1="0"
       x2="1"
       y2="0"
       gradientUnits="userSpaceOnUse"
       gradientTransform="matrix(174.538,-302.309,-302.309,-174.538,7973.41,5531.8)"
       spreadMethod="pad"
       id="linearGradient2434">
      <stop
         style="stop-opacity:1;stop-color:#ededed"
         offset="0"
         id="stop2428" />
      <stop
         style="stop-opacity:1;stop-color:#ededed"
         offset="0.48211215"
         id="stop2430" />
      <stop
         style="stop-opacity:1;stop-color:#d0d0d0"
         offset="1"
         id="stop2432" />
    </linearGradient>
    <clipPath
       clipPathUnits="userSpaceOnUse"
       id="clipPath2444">
      <path
         d="m 8060.68,5224.3 c -83.29,0 -156.36,73 -156.36,156.3 0,83.3 73.07,156.4 156.36,156.4 83.3,0 156.37,-73.1 156.37,-156.4 0,-83.3 -73.07,-156.3 -156.37,-156.3 z"
         id="path2442" />
    </clipPath>
    <linearGradient
       x1="0"
       y1="0"
       x2="1"
       y2="0"
       gradientUnits="userSpaceOnUse"
       gradientTransform="matrix(155.141,-268.712,-268.712,-155.141,7983.11,5515)"
       spreadMethod="pad"
       id="linearGradient2452">
      <stop
         style="stop-opacity:1;stop-color:#d0d0d0"
         offset="0"
         id="stop2446" />
      <stop
         style="stop-opacity:1;stop-color:#ededed"
         offset="0.51788785"
         id="stop2448" />
      <stop
         style="stop-opacity:1;stop-color:#ededed"
         offset="1"
         id="stop2450" />
    </linearGradient>
  </defs>
  <g
     inkscape:label="Layer 1"
     inkscape:groupmode="layer"
     id="layer1"
     transform="translate(0.09317171,-98.332576)">
    <path
       d="m 22.065506,98.553068 c -12.09675,0 -21.938192,9.841812 -21.938192,21.938632 0,12.09668 9.841442,21.93808 21.938192,21.93808 12.096749,0 21.938549,-9.8414 21.938549,-21.93808 0,-12.09682 -9.8418,-21.938632 -21.938549,-21.938632 z m 0,44.097202 c -12.218458,0 -22.158678,-9.94022 -22.158678,-22.15857 0,-12.21853 9.94022,-22.159112 22.158678,-22.159112 12.218458,0 22.159029,9.940582 22.159029,22.159112 0,12.21835 -9.940571,22.15857 -22.159029,22.15857"
       style="fill:#191a1b;fill-opacity:1;fill-rule:nonzero;stroke:none;stroke-width:0.0352778"
       id="path316" />
    <path
       d="m 13.00194,140.58402 0.201788,0.0897 0.714375,-1.60486 c -0.06738,-0.0296 -0.134055,-0.0606 -0.201083,-0.091 z m 2.150533,0.8376 0.209903,0.068 0.542219,-1.66825 c -0.0702,-0.0226 -0.139347,-0.0481 -0.208844,-0.071 z m 6.803672,-0.64742 v 1.76678 h 0.220486 v -1.76678 c -0.03704,0 -0.07338,0.003 -0.110419,0.003 -0.03669,0 -0.07338,-0.003 -0.110067,-0.003 z m -4.577644,1.25553 0.215547,0.0463 0.364772,-1.71563 c -0.07197,-0.0147 -0.142875,-0.0342 -0.214842,-0.0498 z m -6.426553,-2.50334 0.190853,0.1101 0.879827,-1.5233 c -0.06385,-0.0367 -0.127705,-0.0726 -0.191205,-0.1101 z m 8.704086,2.87556 0.219075,0.0229 0.183797,-1.74763 c -0.07338,-0.007 -0.14605,-0.0163 -0.219075,-0.0242 z m -17.457208,-17.80014 -1.715559,0.36449 0.04586,0.21583 1.719086,-0.36548 c -0.01552,-0.0724 -0.03457,-0.14291 -0.04939,-0.21484 z m 1.291519,4.03973 -1.604081,0.71437 0.08961,0.20105 1.605139,-0.71438 c -0.03034,-0.0674 -0.06103,-0.13366 -0.09066,-0.20104 z m -0.752122,-1.98505 -1.667934,0.54183 0.06809,0.20945 1.670402,-0.54293 c -0.02293,-0.0695 -0.04798,-0.13822 -0.07055,-0.20835 z m 6.284736,11.6035 0.178153,0.1295 1.03505,-1.4242 c -0.05962,-0.043 -0.12065,-0.0843 -0.179917,-0.12774 z m -4.576233,-7.72199 -1.523295,0.87947 0.110067,0.19086 1.522942,-0.87906 C 4.5194,130.66617 4.48306,130.60192 4.446726,130.538 Z m 2.790472,6.2611 0.164042,0.14746 1.177572,-1.30803 c -0.05468,-0.0488 -0.111831,-0.0954 -0.165806,-0.14496 z m -1.643239,-4.47601 -1.424164,1.03466 0.12947,0.17858 1.422753,-1.0334 c -0.04375,-0.0593 -0.08502,-0.11987 -0.128059,-0.17984 z m 0.0194,2.83559 0.147461,0.16401 1.305631,-1.17535 c -0.04974,-0.0547 -0.09631,-0.11148 -0.145345,-0.1662 z m 18.463683,5.5185 0.184502,1.7544 0.219075,-0.0226 -0.184502,-1.75645 c -0.07338,0.008 -0.14605,0.0172 -0.219075,0.0247 z m 17.246599,-13.81442 1.684514,0.54723 0.06809,-0.20959 -1.682044,-0.54613 c -0.02222,0.0699 -0.04727,0.13864 -0.07056,0.20849 z m -0.771878,1.97778 1.617486,0.72002 0.08925,-0.20147 -1.616075,-0.71974 c -0.02963,0.0674 -0.06032,0.13405 -0.09066,0.20119 z m -0.974725,1.88584 1.533878,0.88551 0.110067,-0.19085 -1.534231,-0.88579 c -0.03634,0.0638 -0.07267,0.12802 -0.109714,0.19113 z m 2.770364,-10.34591 c 0,0.0375 0.0028,0.0737 0.0028,0.11123 0,0.0367 -0.0025,0.073 -0.0028,0.10925 h 1.774473 v -0.22048 z m -0.121355,2.33853 1.763888,0.18563 0.0226,-0.21911 -1.762124,-0.18549 c -0.0071,0.0733 -0.01623,0.14594 -0.02434,0.21897 z m -16.048919,17.6404 0.366183,1.72297 0.215547,-0.0463 -0.366889,-1.72614 c -0.07197,0.0156 -0.142522,0.0346 -0.214841,0.0495 z m 15.706724,-15.54413 1.732492,0.36837 0.04621,-0.21597 -1.728964,-0.36763 c -0.01482,0.0723 -0.03422,0.1433 -0.04974,0.21523 z m -11.666713,14.25222 0.718255,1.61287 0.201083,-0.0896 -0.718608,-1.61438 c -0.06668,0.0304 -0.13335,0.0615 -0.20073,0.0911 z m 8.193969,-6.56621 1.43263,1.04069 0.12947,-0.17857 -1.434042,-1.04208 c -0.04304,0.0599 -0.08431,0.12073 -0.128058,0.17996 z m -6.298142,5.60987 0.884414,1.53169 0.190853,-0.11038 -0.884061,-1.53103 c -0.0635,0.0369 -0.127353,0.0734 -0.191206,0.10972 z m -3.881613,1.70875 0.544688,1.67682 0.209198,-0.0685 -0.545042,-1.67887 c -0.0702,0.023 -0.138994,0.048 -0.208844,0.0706 z m 8.837083,-5.67545 1.313744,1.18293 0.147461,-0.16372 -1.316214,-1.18541 c -0.04904,0.0551 -0.09596,0.1119 -0.144991,0.1662 z m -3.169709,2.81865 1.040695,1.43274 0.178505,-0.12954 -1.039636,-1.4308 c -0.05891,0.0434 -0.119944,0.0846 -0.179564,0.1276 z m 1.65735,-1.32746 1.184981,1.31589 0.164042,-0.14746 -1.182864,-1.31381 c -0.05433,0.0497 -0.110773,0.0967 -0.166159,0.14538 z M 26.17995,100.62495 c 0.07232,0.0148 0.143228,0.0339 0.215194,0.0497 l 0.368653,-1.733912 -0.2159,-0.0462 z m 7.719483,3.39619 c 0.05962,0.043 0.12065,0.0843 0.179917,0.12806 l 1.043516,-1.43651 -0.178505,-0.12947 z m -1.785056,-1.14794 c 0.0635,0.0367 0.127706,0.0727 0.191206,0.11007 l 0.887236,-1.53776 -0.190853,-0.11007 z m 3.4417,2.47438 c 0.05503,0.049 0.111831,0.096 0.166159,0.14535 l 1.186744,-1.31798 -0.163689,-0.14746 z m -11.474449,-5.04049 c 0.07338,0.007 0.145697,0.0169 0.218722,0.0247 l 0.185914,-1.764612 -0.219428,-0.0226 z m 6.137627,1.61008 c 0.06703,0.0293 0.13335,0.0603 0.200378,0.0907 l 0.721783,-1.62066 -0.201083,-0.0893 z m -1.984727,-0.75212 c 0.06985,0.0222 0.138641,0.0473 0.208138,0.0706 l 0.548217,-1.686292 -0.20955,-0.0684 z m 10.304285,7.49653 1.437923,-1.04458 -0.12947,-0.1785 -1.436511,1.04351 c 0.04339,0.0593 0.08502,0.11995 0.128058,0.17957 z m -0.0064,-2.84621 -0.147461,-0.16404 -1.317625,1.18674 c 0.04904,0.0543 0.09596,0.11112 0.144992,0.16581 z m 3.717925,12.66507 1.762127,-0.18563 -0.0226,-0.21897 -1.764244,0.18549 c 0.0081,0.073 0.01764,0.1458 0.02469,0.21911 z m -0.856544,-4.15216 1.683808,-0.54723 -0.06844,-0.20919 -1.685925,0.54751 c 0.02328,0.0703 0.04833,0.1386 0.07056,0.20891 z m 0.539397,2.05271 1.730022,-0.36795 -0.04621,-0.21551 -1.73355,0.36862 c 0.01552,0.0721 0.03492,0.14263 0.04974,0.21484 z m -1.291519,-4.03888 1.619602,-0.72108 -0.0896,-0.20108 -1.620661,0.72178 c 0.03034,0.0667 0.06138,0.13335 0.09066,0.20038 z m -20.586347,-12.03537 -0.18415,-1.753312 -0.219427,0.0229 0.184502,1.754722 c 0.07302,-0.008 0.145698,-0.0173 0.219075,-0.0243 z m 19.631025,10.1406 1.538111,-0.88794 -0.11042,-0.19121 -1.537758,0.88794 c 0.03704,0.0635 0.07338,0.12736 0.110067,0.19121 z m -34.075158,-4.62633 1.310923,1.1804 c 0.04904,-0.055 0.0956,-0.11183 0.145344,-0.16581 l -1.308806,-1.17863 z m -2.029177,6.31825 -1.608315,-0.71578 -0.0896,0.20108 1.606903,0.71543 c 0.02963,-0.067 0.06068,-0.13405 0.09102,-0.20073 z m -0.772584,1.97736 -1.673225,-0.54367 -0.06809,0.20948 1.670755,0.54296 c 0.02222,-0.0702 0.04727,-0.13864 0.07056,-0.20877 z m 1.748014,-3.86401 -1.526117,-0.88089 -0.110067,0.19085 1.526118,0.88124 c 0.03634,-0.0635 0.07267,-0.1277 0.110066,-0.1912 z m 1.165578,-1.77377 -1.425222,-1.03576 -0.12947,0.17851 1.426986,1.03717 c 0.04304,-0.06 0.08431,-0.12065 0.127706,-0.17992 z m 12.233627,-7.85495 -0.36583,-1.721212 -0.2159,0.0462 0.366536,1.724742 c 0.07232,-0.0159 0.142875,-0.0349 0.215194,-0.0497 z m -16.05033,17.63674 -1.750484,-0.18408 -0.02293,0.21911 1.748719,0.18369 c 0.0071,-0.0731 0.01658,-0.14566 0.02469,-0.21872 z m 0.342194,-2.09614 -1.720144,-0.36558 -0.04586,0.21565 1.716616,0.36505 c 0.01482,-0.0726 0.03387,-0.14319 0.04939,-0.21512 z m -0.467078,4.32721 c 0,-0.0375 0.0028,-0.0737 0.0028,-0.11123 H 0.023875 v 0.22048 h 1.760361 c 0,-0.0362 -0.0028,-0.0726 -0.0028,-0.10925 z m 14.121745,-19.32841 -0.543631,-1.673242 -0.209902,0.0681 0.544689,1.675702 c 0.06985,-0.0233 0.138641,-0.0483 0.208844,-0.0705 z m -1.985081,0.75177 -0.716491,-1.60902 -0.201436,0.0896 0.716844,1.61008 c 0.06703,-0.0303 0.13335,-0.061 0.201083,-0.0907 z m -4.897966,0.80468 1.036461,1.42664 c 0.05927,-0.0434 0.119944,-0.0847 0.179564,-0.12806 L 9.19864,102.59027 Z m -1.785761,1.4605 1.178983,1.30916 c 0.05433,-0.049 0.111125,-0.096 0.166159,-0.14499 l -1.1811,-1.31163 z m -5.35305,18.32145 -1.747662,0.18383 0.02293,0.21911 1.749425,-0.18412 c -0.0081,-0.073 -0.01729,-0.14538 -0.02469,-0.21882 z m 10.14095,-19.63096 -0.881945,-1.52788 -0.190853,0.11042 0.881592,1.52717 c 0.0635,-0.0367 0.127353,-0.0734 0.191206,-0.10971"
       style="fill:#191a1b;fill-opacity:1;fill-rule:nonzero;stroke:none;stroke-width:0.0352778"
       id="path318" />
    <path
       d="m 4.427323,120.4917 c 0,-0.14831 0.0078,-0.29464 0.01129,-0.44182 H 0.023952 v 0.88194 h 4.414661 c -0.0035,-0.14661 -0.01129,-0.29241 -0.01129,-0.44012 z m 17.197916,17.62827 v 4.42101 h 0.881945 v -4.42101 c -0.147109,0.003 -0.293159,0.0113 -0.440972,0.0113 -0.147814,0 -0.293864,-0.008 -0.440973,-0.0113 z m -18.812227,-6.89339 0.330905,0.5726 3.813528,-2.20169 c -0.113947,-0.18838 -0.222602,-0.38022 -0.329494,-0.57326 z m 27.786188,4.70327 2.20733,3.82309 0.572559,-0.33059 -2.206625,-3.82199 c -0.188384,0.11395 -0.379942,0.22295 -0.573264,0.32949 z m 9.094258,-15.87997 c 0.0035,0.14718 0.01094,0.29351 0.01094,0.44182 0,0.14771 -0.0074,0.29351 -0.01094,0.44012 h 4.428417 v -0.88194 z m -2.517422,9.54486 3.824464,2.208 0.330905,-0.57256 -3.825522,-2.2087 c -0.107244,0.1929 -0.2159,0.38488 -0.329847,0.57326 z m -26.414941,9.82126 0.572911,0.33087 2.202745,-3.81483 c -0.193323,-0.10693 -0.385234,-0.21593 -0.573617,-0.32949 z m 19.839516,-34.36157 c 0.192617,0.10689 0.384528,0.21554 0.573264,0.32949 l 2.2098,-3.82799 -0.572558,-0.33091 z m 10.733969,4.69582 -0.330553,-0.57291 -3.828697,2.2105 c 0.1143,0.18839 0.222956,0.37995 0.329848,0.57327 z m -19.005196,-6.89116 c 0.295628,0.005 0.589491,0.0159 0.881591,0.0346 l 0.177095,-4.433012 -0.881239,-0.0353 z m -8.793339,2.19287 -2.204861,-3.81918 -0.572911,0.33056 2.204508,3.81846 c 0.188384,-0.1143 0.380295,-0.22295 0.573264,-0.32984 z m 8.088842,-6.626592 -0.881239,0.0353 0.177447,4.433012 c 0.291747,-0.0187 0.585611,-0.03 0.881239,-0.0346 z m -18.813992,11.328062 3.817761,2.20415 c 0.106892,-0.19297 0.2159,-0.38453 0.329848,-0.57326 l -3.816703,-2.20345 -0.330906,0.57256"
       style="fill:#191a1b;fill-opacity:1;fill-rule:nonzero;stroke:none;stroke-width:0.0352778"
       id="path320" />
    <path
       d="m 22.065506,100.31697 c -11.124141,0 -20.174303,9.05052 -20.174303,20.17473 0,11.12407 9.050162,20.17419 20.174303,20.17419 11.124141,0 20.174655,-9.05012 20.174655,-20.17419 0,-11.12421 -9.050514,-20.17473 -20.174655,-20.17473 z m 0,40.56941 c -11.24585,0 -20.394789,-9.14894 -20.394789,-20.39468 0,-11.24592 9.148939,-20.39521 20.394789,-20.39521 11.245849,0 20.395141,9.14929 20.395141,20.39521 0,11.24574 -9.149292,20.39468 -20.395141,20.39468"
       style="fill:#191a1b;fill-opacity:1;fill-rule:nonzero;stroke:none;stroke-width:0.0352778"
       id="path322" />
  </g>
</svg>
