<?xml version="1.0" encoding="UTF-8" standalone="no"?>
<!-- Created with Inkscape (http://www.inkscape.org/) -->

<svg
   width="44.317707mm"
   height="44.317703mm"
   viewBox="0 0 44.317707 44.317703"
   version="1.1"
   id="svg6511"
   inkscape:version="1.2.1 (9c6d41e410, 2022-07-14)"
   sodipodi:docname="clockface-symbolic.svg"
   xmlns:inkscape="http://www.inkscape.org/namespaces/inkscape"
   xmlns:sodipodi="http://sodipodi.sourceforge.net/DTD/sodipodi-0.dtd"
   xmlns="http://www.w3.org/2000/svg"
   xmlns:svg="http://www.w3.org/2000/svg">
  <sodipodi:namedview
     id="namedview6513"
     pagecolor="#ffffff"
     bordercolor="#000000"
     borderopacity="0.25"
     inkscape:showpageshadow="2"
     inkscape:pageopacity="0.0"
     inkscape:pagecheckerboard="0"
     inkscape:deskcolor="#d1d1d1"
     inkscape:document-units="mm"
     showgrid="false"
     inkscape:zoom="2.8284271"
     inkscape:cx="66.468037"
     inkscape:cy="162.81134"
     inkscape:window-width="1499"
     inkscape:window-height="1236"
     inkscape:window-x="650"
     inkscape:window-y="134"
     inkscape:window-maximized="0"
     inkscape:current-layer="layer1"
     showguides="true" />
  <defs
     id="defs6508">
    <clipPath
       clipPathUnits="userSpaceOnUse"
       id="clipPath2426">
      <path
         d="m 8060.68,5204.7 c -93.72,0 -175.9,82.2 -175.9,175.9 0,93.7 82.18,175.9 175.9,175.9 93.72,0 175.91,-82.2 175.91,-175.9 0,-93.7 -82.19,-175.9 -175.91,-175.9 z"
         id="path2424" />
    </clipPath>
    <linearGradient
       x1="0"
       y1="0"
       x2="1"
       y2="0"
       gradientUnits="userSpaceOnUse"
       gradientTransform="matrix(174.538,-302.309,-302.309,-174.538,7973.41,5531.8)"
       spreadMethod="pad"
       id="linearGradient2434">
      <stop
         style="stop-opacity:1;stop-color:#ededed"
         offset="0"
         id="stop2428" />
      <stop
         style="stop-opacity:1;stop-color:#ededed"
         offset="0.48211215"
         id="stop2430" />
      <stop
         style="stop-opacity:1;stop-color:#d0d0d0"
         offset="1"
         id="stop2432" />
    </linearGradient>
    <clipPath
       clipPathUnits="userSpaceOnUse"
       id="clipPath2444">
      <path
         d="m 8060.68,5224.3 c -83.29,0 -156.36,73 -156.36,156.3 0,83.3 73.07,156.4 156.36,156.4 83.3,0 156.37,-73.1 156.37,-156.4 0,-83.3 -73.07,-156.3 -156.37,-156.3 z"
         id="path2442" />
    </clipPath>
    <linearGradient
       x1="0"
       y1="0"
       x2="1"
       y2="0"
       gradientUnits="userSpaceOnUse"
       gradientTransform="matrix(155.141,-268.712,-268.712,-155.141,7983.11,5515)"
       spreadMethod="pad"
       id="linearGradient2452">
      <stop
         style="stop-opacity:1;stop-color:#d0d0d0"
         offset="0"
         id="stop2446" />
      <stop
         style="stop-opacity:1;stop-color:#ededed"
         offset="0.51788785"
         id="stop2448" />
      <stop
         style="stop-opacity:1;stop-color:#ededed"
         offset="1"
         id="stop2450" />
    </linearGradient>
  </defs>
  <g
     inkscape:label="Layer 1"
     inkscape:groupmode="layer"
     id="layer1"
     transform="translate(0.09317171,-98.332576)">
    <path
       d="m 22.065506,98.553062 c -12.0967502,0 -21.93819161,9.841438 -21.93819161,21.938548 0,12.09675 9.84144141,21.93819 21.93819161,21.93819 12.096749,0 21.938544,-9.84144 21.938544,-21.93819 0,-12.09711 -9.841795,-21.938548 -21.938544,-21.938548 z m 0,44.097218 c -12.2181057,0 -22.15867771,-9.94022 -22.15867771,-22.15867 0,-12.21846 9.94057201,-22.159034 22.15867771,-22.159034 12.218458,0 22.15903,9.940574 22.15903,22.159034 0,12.21845 -9.940572,22.15867 -22.15903,22.15867"
       style="fill:#171717;fill-opacity:1;fill-rule:nonzero;stroke:none;stroke-width:0.0352778"
       id="path188" />
    <path
       d="m 10.951947,139.52644 0.190853,0.11006 0.879828,-1.52329 c -0.06385,-0.0367 -0.127706,-0.0727 -0.191206,-0.11007 z m -1.9289884,-1.26648 0.1785056,0.12947 1.0346968,-1.42416 c -0.05962,-0.043 -0.12065,-0.0843 -0.179916,-0.12771 z m 6.1295134,3.1616 0.209903,0.0681 0.54222,-1.66828 c -0.0702,-0.0226 -0.139348,-0.048 -0.208845,-0.0709 z m 2.226028,0.60854 0.2159,0.0459 0.36442,-1.71556 c -0.07197,-0.0148 -0.142875,-0.0342 -0.214842,-0.0497 z m 4.577644,-1.25589 v 1.76671 h 0.220487 v -1.76671 c -0.03704,0 -0.07338,0.003 -0.11042,0.003 -0.03669,0 -0.07338,-0.003 -0.110067,-0.003 z m -2.300111,1.62772 0.219075,0.0229 0.183798,-1.74731 c -0.07338,-0.007 -0.14605,-0.0166 -0.219075,-0.0247 z m -14.0620743,-10.07886 -1.4241638,1.03469 0.1294694,0.17851 1.4227527,-1.03329 c -0.043744,-0.0593 -0.085019,-0.11994 -0.1280583,-0.17991 z m -2.1036138,-3.68159 -1.6040805,0.71437 0.089606,0.20109 1.6051389,-0.71438 c -0.030339,-0.0674 -0.061031,-0.1337 -0.090664,-0.20108 z m -0.7521222,-1.98508 -1.6679333,0.54222 0.068086,0.20919 1.6704027,-0.54292 c -0.02293,-0.0695 -0.047978,-0.13829 -0.070555,-0.20849 z m -0.5393972,-2.05458 -1.71555834,0.36442 0.0458611,0.2159 1.71943884,-0.36548 c -0.015875,-0.0723 -0.034925,-0.14287 -0.049742,-0.21484 z m 3.414536,10.55687 0.1474611,0.16405 1.3056305,-1.17546 c -0.049742,-0.0543 -0.096308,-0.11148 -0.1453444,-0.16616 z m 1.6238361,1.64042 0.1640416,0.14746 1.1775722,-1.3081 c -0.05468,-0.0487 -0.1118305,-0.0953 -0.1658055,-0.14499 z m 16.8401994,3.87809 0.18415,1.75436 0.219075,-0.0226 -0.184503,-1.75648 c -0.07303,0.008 -0.145697,0.0173 -0.218722,0.0247 z m -19.6306716,-10.13919 -1.5232944,0.87948 0.1100667,0.1912 1.5232944,-0.87947 c -0.037395,-0.0632 -0.073378,-0.12736 -0.1100667,-0.19121 z m 35.1303156,0.18874 1.533878,0.88512 0.110067,-0.19086 -1.533878,-0.88547 c -0.03669,0.0635 -0.07303,0.12771 -0.110067,0.19121 z m 0.974725,-1.88631 1.617486,0.72002 0.08961,-0.20108 -1.616075,-0.72002 c -0.02963,0.0674 -0.06068,0.13406 -0.09102,0.20108 z m -14.374636,11.5189 0.366184,1.72297 0.215547,-0.0462 -0.366889,-1.72614 c -0.07197,0.0155 -0.142522,0.0346 -0.214842,0.0494 z m 16.170628,-19.97886 c 0,0.0374 0.0025,0.0737 0.0025,0.11113 0,0.0367 -0.0021,0.073 -0.0025,0.10936 h 1.774119 v -0.22049 z m -40.4660798,2.12125 -1.74801381,0.1838 0.0229306,0.21908 1.74942491,-0.18415 c -0.00811,-0.073 -0.017286,-0.14535 -0.024342,-0.21873 z m 40.3443718,0.21731 1.763888,0.18557 0.02258,-0.21908 -1.762125,-0.18556 c -0.0071,0.0734 -0.01623,0.14605 -0.02434,0.21907 z m -0.342195,2.09621 1.732492,0.3683 0.04621,-0.2159 -1.728964,-0.36759 c -0.01482,0.0723 -0.03422,0.14322 -0.04974,0.21519 z m -0.560211,2.04752 1.684514,0.54716 0.06809,-0.20955 -1.682044,-0.5461 c -0.02222,0.0699 -0.04727,0.13864 -0.07056,0.20849 z m -11.106502,12.2047 0.718255,1.6129 0.201083,-0.0896 -0.718608,-1.61431 c -0.06668,0.0303 -0.13335,0.0614 -0.20073,0.091 z m -1.985787,0.75248 0.544689,1.67675 0.20955,-0.0684 -0.545394,-1.67887 c -0.0702,0.0229 -0.138995,0.048 -0.208845,0.0706 z m 10.179756,-7.31873 1.43263,1.04069 0.12947,-0.1785 -1.434042,-1.04211 c -0.04269,0.06 -0.08431,0.12065 -0.128058,0.17992 z m -6.298142,5.60987 0.884414,1.53176 0.190853,-0.11042 -0.884061,-1.53105 c -0.0635,0.037 -0.127353,0.0734 -0.191206,0.10971 z m 4.95547,-3.96663 1.313744,1.18321 0.147461,-0.16404 -1.316214,-1.18533 c -0.04904,0.055 -0.09596,0.11183 -0.144991,0.16616 z m -3.169709,2.81869 1.041048,1.43263 0.178152,-0.12947 -1.039636,-1.43086 c -0.05891,0.0434 -0.119944,0.0847 -0.179564,0.1277 z m 1.657703,-1.32715 1.184628,1.31551 0.164041,-0.14746 -1.182863,-1.31374 c -0.05433,0.0497 -0.110773,0.0967 -0.165806,0.14569 z m -22.554494,4.94806 0.201789,0.0896 0.714375,-1.60479 c -0.06738,-0.0296 -0.134056,-0.0607 -0.201083,-0.091 z M 32.11438,102.87318 c 0.0635,0.0363 0.127706,0.0727 0.191206,0.10971 l 0.887236,-1.53705 -0.190853,-0.11042 z m 1.785056,1.14794 c 0.05962,0.043 0.12065,0.0843 0.179917,0.12806 l 1.043516,-1.43652 -0.178505,-0.12947 z m -3.680178,-2.10397 c 0.06703,0.0296 0.133703,0.0603 0.200378,0.0907 l 0.721783,-1.6203 -0.201083,-0.0896 z m -8.263114,-1.70744 c 0.03669,-3.6e-4 0.07338,-0.003 0.110067,-0.003 0.03704,0 0.07338,0.002 0.11042,0.003 v -1.766009 h -0.220487 z m 13.600289,5.1382 c 0.05468,0.0487 0.111478,0.0956 0.165806,0.145 l 1.187097,-1.31798 -0.164042,-0.14746 z m -9.37648,-4.72298 c 0.07267,0.0148 0.143227,0.0339 0.215194,0.0494 l 0.368653,-1.733898 -0.2159,-0.04551 z m 2.054577,0.5401 c 0.06985,0.0222 0.138642,0.0473 0.208492,0.0705 l 0.547864,-1.686274 -0.20955,-0.06844 z m -4.152899,-0.85796 c 0.07338,0.007 0.145697,0.0169 0.219075,0.0247 l 0.185561,-1.764244 -0.219075,-0.02328 z m 14.450835,5.50827 -0.147461,-0.16404 -1.317625,1.18675 c 0.04904,0.0543 0.09596,0.11112 0.144992,0.16616 z m 3.400778,10.5657 1.730022,-0.36795 -0.04621,-0.21555 -1.73355,0.36866 c 0.01552,0.072 0.03493,0.14252 0.04974,0.21484 z m 0.317147,2.09903 1.762125,-0.18521 -0.02258,-0.21908 -1.764241,0.18556 c 0.0081,0.073 0.01764,0.1457 0.02469,0.21873 z m -0.856544,-4.15149 1.683808,-0.54716 -0.06809,-0.2099 -1.686278,0.54786 c 0.02328,0.0698 0.04833,0.13864 0.07056,0.2092 z m -2.855031,-5.66702 1.437923,-1.04458 -0.12947,-0.1785 -1.436511,1.04316 c 0.04339,0.0593 0.08502,0.1203 0.128058,0.17992 z m 2.103261,3.68088 1.61925,-0.72108 -0.0896,-0.20179 -1.620661,0.72179 c 0.03034,0.067 0.06138,0.1337 0.09102,0.20108 z m -0.955675,-1.89512 1.538111,-0.88794 -0.110419,-0.19086 -1.537758,0.88759 c 0.03739,0.0635 0.07338,0.12735 0.110066,0.19121 z m -30.6662656,-7.7276 1.0364616,1.42663 c 0.05927,-0.0437 0.119944,-0.085 0.179563,-0.1277 l -1.037519,-1.4284 z m -5.4380693,9.41952 -1.6083139,-0.71614 -0.089606,0.20179 1.6069027,0.71508 c 0.029633,-0.0674 0.060678,-0.1337 0.091017,-0.20073 z m 0.9754305,-1.8863 -1.5261166,-0.88124 -0.1100667,0.19085 1.5261167,0.88124 c 0.036336,-0.0635 0.072672,-0.12771 0.1100666,-0.19085 z m 1.1655778,-1.77412 -1.4252222,-1.03541 -0.1294695,0.17816 1.4269861,1.03681 c 0.043039,-0.0596 0.084314,-0.1203 0.1277056,-0.17956 z m -2.9135916,5.63774 -1.673225,-0.54363 -0.068086,0.2099 1.6707555,0.54257 c 0.022225,-0.0699 0.047272,-0.13899 0.070556,-0.20884 z m 17.2458942,-13.80984 -0.18415,-1.753306 -0.219075,0.02293 0.184503,1.755066 c 0.07302,-0.008 0.145344,-0.0173 0.218722,-0.0247 z m -14.4441332,5.51427 1.3109222,1.18039 c 0.049036,-0.055 0.095956,-0.11147 0.1453445,-0.16615 l -1.3088056,-1.17828 z m -3.3623249,10.3438 -1.72049718,-0.36583 -0.0458611,0.21554 1.71661658,0.36513 c 0.014817,-0.0723 0.034219,-0.14288 0.049742,-0.21484 z m -0.3425472,2.09585 -1.75048331,-0.18415 -0.0229305,0.21943 1.74871941,0.18379 c 0.00706,-0.0734 0.016581,-0.14605 0.024694,-0.21907 z m 13.9968103,-17.09773 -0.54363,-1.672871 -0.209903,0.06809 0.544689,1.675691 c 0.06985,-0.0229 0.138642,-0.0483 0.208844,-0.0709 z m -1.98508,0.75212 -0.716492,-1.60902 -0.201436,0.0896 0.716845,1.61008 c 0.06703,-0.0303 0.13335,-0.061 0.201083,-0.0907 z m 4.0386,-1.29116 -0.365831,-1.720853 -0.2159,0.04586 0.366889,1.724733 c 0.07197,-0.0159 0.142522,-0.0349 0.214842,-0.0497 z m -10.7223277,3.55635 1.1789834,1.30951 c 0.054328,-0.0497 0.111125,-0.0963 0.1661583,-0.14534 l -1.1811,-1.31128 z m -5.4528859,16.31139 c 0,-0.0374 0.00282,-0.0737 0.00282,-0.11113 H 0.02395051 v 0.22049 H 1.7843116 c 0,-0.0363 -0.00282,-0.0727 -0.00282,-0.10936 z m 10.2407856,-17.6209 -0.881944,-1.52753 -0.190853,0.11007 0.881592,1.52753 c 0.0635,-0.0374 0.127352,-0.0734 0.191205,-0.11007"
       style="fill:#171717;fill-opacity:1;fill-rule:nonzero;stroke:none;stroke-width:0.0352778"
       id="path190" />
    <path
       d="m 10.761095,139.41602 0.572911,0.3309 1.544461,-2.67511 c -0.19297,-0.10725 -0.384528,-0.21625 -0.573264,-0.3302 z m 10.974563,0.0296 v 3.09527 h 0.661459 v -3.09527 c -0.110773,0.002 -0.219781,0.008 -0.330906,0.008 -0.110772,0 -0.220133,-0.007 -0.330553,-0.008 z m -18.9226464,-8.21902 0.3309055,0.57291 2.6744083,-1.5441 c -0.1139472,-0.18874 -0.2229556,-0.38065 -0.3302,-0.57292 z m 28.4441184,5.84306 1.5494,2.68323 0.572559,-0.33055 -1.548695,-2.68288 c -0.188736,0.1143 -0.380294,0.22296 -0.573264,0.3302 z m 9.762067,-16.9097 c 0.0018,0.11078 0.0081,0.22014 0.0081,0.33162 0,0.11042 -0.0063,0.21978 -0.0081,0.32984 h 3.10268 v -0.66146 z m -2.703689,10.09262 2.684992,1.55011 0.330905,-0.57256 -2.68605,-1.55046 c -0.107244,0.19262 -0.216253,0.38453 -0.329847,0.57291 z m 3.019072,-20.50238 -0.330553,-0.57291 -2.689225,1.55257 c 0.113595,0.18874 0.222956,0.38065 0.329848,0.57327 z m -19.598922,-8.21196 c 0.11042,-0.002 0.219781,-0.008 0.330553,-0.008 0.111125,0 0.220133,0.006 0.330906,0.008 v -3.094569 h -0.661459 z m 9.522883,2.37666 c 0.192617,0.10725 0.384528,0.2159 0.572912,0.32985 l 1.552222,-2.68887 -0.572559,-0.33056 z M 3.104406,120.49161 c 0,-0.11148 0.0067,-0.22084 0.00847,-0.33162 H 0.02395051 v 0.66146 H 3.1128727 c -0.00176,-0.11006 -0.00847,-0.21942 -0.00847,-0.32984 z m 9.773708,-16.5795 -1.54693,-2.67935 -0.572912,0.33091 1.546578,2.67864 c 0.188736,-0.1136 0.380647,-0.22296 0.573264,-0.3302 z m -10.0672191,5.84165 2.6782888,1.54622 c 0.1072445,-0.19297 0.2159,-0.38488 0.3298472,-0.57326 l -2.6772305,-1.54588 -0.3309055,0.57292"
       style="fill:#171717;fill-opacity:1;fill-rule:nonzero;stroke:none;stroke-width:0.0352778"
       id="path192" />
    <path
       d="m 5.006231,119.19409 c -0.20955,0 -0.3721806,0.0649 -0.4864806,0.19579 -0.1143,0.13018 -0.17145,0.31221 -0.17145,0.54575 0,0.20461 0.052211,0.36512 0.1583972,0.48295 0.1054806,0.11642 0.2659945,0.17568 0.4822472,0.17568 0.1337028,0 0.257175,-0.0268 0.3693584,-0.0787 0.1128889,-0.0522 0.2010833,-0.12453 0.2652888,-0.21554 0.065264,-0.0903 0.097014,-0.18592 0.097014,-0.28611 0,-0.14957 -0.030339,-0.28575 -0.089606,-0.41345 -0.061031,-0.12594 -0.1446389,-0.22578 -0.2525889,-0.2981 -0.1083028,-0.0723 -0.231775,-0.1083 -0.3721805,-0.1083 z m 1.0851444,1.07139 c 0,1.21955 -0.4878917,1.8295 -1.4640278,1.8295 -0.1703916,0 -0.3055055,-0.0138 -0.4060472,-0.042 v -0.30551 c 0.1185333,0.0367 0.2515306,0.0554 0.4011083,0.0554 0.3527778,0 0.6194778,-0.10477 0.8008056,-0.31715 0.1788583,-0.21025 0.2776361,-0.53445 0.2928055,-0.97014 h -0.026458 c -0.079728,0.11783 -0.187325,0.20744 -0.3217333,0.26953 -0.1337028,0.0614 -0.2836334,0.0931 -0.4512028,0.0931 -0.2861028,0 -0.511175,-0.0829 -0.6787444,-0.24765 -0.1679223,-0.1651 -0.2515306,-0.39546 -0.2515306,-0.69039 0,-0.32455 0.093133,-0.57996 0.2811639,-0.76799 0.1866194,-0.18768 0.4342694,-0.28117 0.7387167,-0.28117 0.2197805,0 0.4113388,0.0536 0.5753805,0.16263 0.1626305,0.10866 0.2892778,0.26706 0.3767667,0.4752 0.088194,0.20884 0.1329972,0.45473 0.1329972,0.7366"
       style="fill:#040606;fill-opacity:1;fill-rule:nonzero;stroke:none;stroke-width:0.0352778"
       id="path194" />
    <path
       d="m 22.133239,138.27161 c 0.208139,0 0.370769,-0.0646 0.485775,-0.19156 0.115711,-0.12665 0.172861,-0.3108 0.172861,-0.54963 0,-0.20673 -0.05362,-0.36936 -0.160514,-0.48719 -0.107597,-0.11782 -0.268111,-0.17709 -0.48013,-0.17709 -0.132998,0 -0.254353,0.0261 -0.364773,0.0797 -0.110066,0.0518 -0.197555,0.12417 -0.262466,0.21731 -0.06597,0.0914 -0.09913,0.18803 -0.09913,0.28716 0,0.14675 0.03034,0.28257 0.08819,0.40852 0.05927,0.1277 0.143227,0.22754 0.250825,0.30127 0.108302,0.0744 0.230716,0.11148 0.369358,0.11148 z m -1.083381,-1.07421 c 0,-0.61313 0.124178,-1.07139 0.369359,-1.37443 0.246239,-0.30338 0.610658,-0.45473 1.092905,-0.45473 0.166159,0 0.296334,0.0138 0.392642,0.0399 v 0.30445 c -0.1143,-0.0349 -0.242358,-0.0536 -0.388408,-0.0536 -0.34537,0 -0.609248,0.10478 -0.790928,0.31221 -0.182034,0.2092 -0.282575,0.53517 -0.300567,0.98249 h 0.02681 c 0.161925,-0.24448 0.417689,-0.36583 0.766939,-0.36583 0.289983,0 0.517525,0.084 0.684742,0.25364 0.166864,0.16793 0.250119,0.39794 0.250119,0.68898 0,0.32385 -0.09031,0.57714 -0.274108,0.7627 -0.182739,0.18592 -0.430742,0.27905 -0.742245,0.27905 -0.33408,0 -0.597958,-0.12135 -0.79375,-0.36371 -0.195438,-0.24271 -0.293511,-0.58032 -0.293511,-1.01106"
       style="fill:#040606;fill-opacity:1;fill-rule:nonzero;stroke:none;stroke-width:0.0352778"
       id="path208" />
    <path
       d="m 40.047647,119.6654 c 0,0.19897 -0.05927,0.3616 -0.173567,0.4886 -0.115005,0.12594 -0.279753,0.21061 -0.490714,0.25364 v 0.0169 c 0.259292,0.0317 0.45085,0.11042 0.576086,0.23848 0.124178,0.12805 0.185914,0.29633 0.185914,0.50306 0,0.29774 -0.106539,0.52493 -0.318205,0.68615 -0.213431,0.1591 -0.516114,0.23918 -0.90805,0.23918 -0.172156,0 -0.327378,-0.0116 -0.468489,-0.0367 -0.14217,-0.0261 -0.281164,-0.0688 -0.413456,-0.13088 v -0.3369 c 0.138995,0.0663 0.287867,0.11783 0.446264,0.1517 0.157339,0.0353 0.307622,0.0522 0.448028,0.0522 0.555978,0 0.835025,-0.21061 0.835025,-0.63324 0,-0.37747 -0.306564,-0.56691 -0.921808,-0.56691 h -0.317148 v -0.30445 h 0.322439 c 0.251531,0 0.449439,-0.054 0.598311,-0.16122 0.14605,-0.1076 0.220487,-0.25576 0.220487,-0.44662 0,-0.1524 -0.05468,-0.27128 -0.163337,-0.35807 -0.107597,-0.0864 -0.254352,-0.12982 -0.440266,-0.12982 -0.140759,0 -0.273756,0.018 -0.397581,0.0554 -0.126294,0.0363 -0.268816,0.10442 -0.427919,0.20461 l -0.185209,-0.23848 c 0.132998,-0.10195 0.284339,-0.18133 0.457906,-0.23848 0.171803,-0.0579 0.354189,-0.0861 0.544336,-0.0861 0.31362,0 0.557036,0.0688 0.730603,0.20743 0.172155,0.13899 0.26035,0.32914 0.26035,0.57044"
       style="fill:#040606;fill-opacity:1;fill-rule:nonzero;stroke:none;stroke-width:0.0352778"
       id="path214" />
    <path
       d="m 21.077022,105.57369 h -0.357716 v -2.22215 c 0,-0.18415 0.0056,-0.35912 0.01799,-0.52422 -0.03034,0.03 -0.06491,0.061 -0.104069,0.0935 -0.0381,0.0332 -0.213078,0.17181 -0.524933,0.41628 l -0.193675,-0.24342 0.853722,-0.63711 h 0.30868 v 3.11714"
       style="fill:#040606;fill-opacity:1;fill-rule:nonzero;stroke:none;stroke-width:0.0352778"
       id="path220" />
    <path
       d="m 24.42065,105.57369 h -2.118078 v -0.3048 l 0.848431,-0.82515 c 0.258939,-0.25294 0.428978,-0.43356 0.51188,-0.54186 0.08255,-0.10725 0.144639,-0.21343 0.183798,-0.31539 0.04127,-0.10265 0.06209,-0.21237 0.06209,-0.3309 0,-0.16581 -0.05186,-0.2981 -0.155575,-0.39476 -0.10548,-0.0977 -0.249061,-0.14605 -0.434975,-0.14605 -0.132997,0 -0.26035,0.0215 -0.380294,0.0642 -0.119944,0.0427 -0.252942,0.11994 -0.400403,0.23142 l -0.193675,-0.2406 c 0.297039,-0.23883 0.620889,-0.35807 0.969434,-0.35807 0.304094,0 0.541161,0.0752 0.712611,0.22472 0.172155,0.14923 0.258233,0.35208 0.258233,0.60396 0,0.19791 -0.05786,0.3937 -0.172156,0.58702 -0.115711,0.19297 -0.329141,0.4378 -0.644172,0.73343 l -0.70485,0.66675 v 0.0173 h 1.657703 v 0.32879"
       style="fill:#040606;fill-opacity:1;fill-rule:nonzero;stroke:none;stroke-width:0.0352778"
       id="path222" />
  </g>
</svg>
