<?xml version="1.0" encoding="utf-8"?>
<!-- Generator: Adobe Illustrator 15.1.0, SVG Export Plug-In . SVG Version: 6.00 Build 0)  -->
<!DOCTYPE svg PUBLIC "-//W3C//DTD SVG 1.1//EN" "http://www.w3.org/Graphics/SVG/1.1/DTD/svg11.dtd">
<svg version="1.1" id="Layer_1" xmlns="http://www.w3.org/2000/svg" xmlns:xlink="http://www.w3.org/1999/xlink" x="0px" y="0px"
	 width="512px" height="512px" viewBox="0 0 512 512" enable-background="new 0 0 512 512" xml:space="preserve">

<g>
	<g>
		<path fill-rule="evenodd" clip-rule="evenodd" fill="#1D1D1B" d="M417.042,166.083c-23.979-24.542-57.125-38.771-91.73-38.771
			c-34.562,0-67.688,14.229-91.687,38.771c-52.812,2.459-95,46.188-95,99.584c0,54.958,44.709,99.666,99.688,99.666
			c5.812,0,11.604-0.5,17.25-1.499c20.75,13.541,44.938,20.854,69.749,20.854c24.854,0,49.063-7.313,69.772-20.854
			c5.707,0.999,11.458,1.499,17.291,1.499c54.937,0,99.625-44.708,99.625-99.666C512,212.271,469.812,168.542,417.042,166.083z
			 M144,352H16c-8.833,0-16,7.167-16,16s7.167,16,16,16h128c8.833,0,16-7.167,16-16S152.833,352,144,352z M16,320h64
			c8.833,0,16-7.167,16-16s-7.167-16-16-16H16c-8.833,0-16,7.167-16,16S7.167,320,16,320z M48,256h64c8.833,0,16-7.167,16-16
			s-7.167-16-16-16H48c-8.833,0-16,7.167-16,16S39.167,256,48,256z"/>
	</g>
</g>
</svg>
