<?xml version="1.0" encoding="utf-8"?>
<!-- Generator: Adobe Illustrator 15.1.0, SVG Export Plug-In . SVG Version: 6.00 Build 0)  -->
<!DOCTYPE svg PUBLIC "-//W3C//DTD SVG 1.1//EN" "http://www.w3.org/Graphics/SVG/1.1/DTD/svg11.dtd">
<svg version="1.1" id="Layer_1" xmlns="http://www.w3.org/2000/svg" xmlns:xlink="http://www.w3.org/1999/xlink" x="0px" y="0px"
	 width="512px" height="512px" viewBox="0 0 512 512" enable-background="new 0 0 512 512" xml:space="preserve">

<g>
	<g>
		<path fill-rule="evenodd" clip-rule="evenodd" fill="#1D1D1B" d="M417.042,70.792C393.062,46.229,359.917,32,325.312,32
			c-34.562,0-67.688,14.229-91.665,38.792c-52.813,2.438-95.021,46.167-95.021,99.542c0,54.978,44.709,99.708,99.688,99.708
			c5.834,0,11.604-0.501,17.271-1.5c20.729,13.521,44.917,20.833,69.729,20.833c24.854,0,49.063-7.312,69.772-20.833
			c5.707,0.999,11.458,1.5,17.291,1.5c54.937,0,99.625-44.73,99.625-99.708C512,116.958,469.812,73.208,417.042,70.792z
			 M144,256.688H16c-8.833,0-16,7.146-16,16c0,8.853,7.167,16,16,16h128c8.833,0,16-7.147,16-16
			C160,263.834,152.833,256.688,144,256.688z M16,224.688h64c8.833,0,16-7.146,16-16c0-8.854-7.167-16-16-16H16
			c-8.833,0-16,7.146-16,16C0,217.542,7.167,224.688,16,224.688z M48,160.688h64c8.833,0,16-7.146,16-16c0-8.854-7.167-16-16-16H48
			c-8.833,0-16,7.146-16,16C32,153.542,39.167,160.688,48,160.688z M224,384c0,17.688,14.312,32,32,32s32-14.312,32-32s-32-64-32-64
			S224,366.312,224,384z M352,448c0,17.688,14.312,32,32,32s32-14.312,32-32s-32-64-32-64S352,430.312,352,448z"/>
	</g>
</g>
</svg>
