<?xml version="1.0" encoding="UTF-8" standalone="no"?>
<!-- Created with Inkscape (http://www.inkscape.org/) -->

<svg
   xmlns:dc="http://purl.org/dc/elements/1.1/"
   xmlns:cc="http://creativecommons.org/ns#"
   xmlns:rdf="http://www.w3.org/1999/02/22-rdf-syntax-ns#"
   xmlns:svg="http://www.w3.org/2000/svg"
   xmlns="http://www.w3.org/2000/svg"
   xmlns:sodipodi="http://sodipodi.sourceforge.net/DTD/sodipodi-0.dtd"
   xmlns:inkscape="http://www.inkscape.org/namespaces/inkscape"
   id="svg7384"
   height="16"
   width="16"
   version="1.1"
   inkscape:version="0.48.4 r9939"
   sodipodi:docname="close-symbolic.svg">
  <defs
     id="defs10" />
  <sodipodi:namedview
     pagecolor="#ffffff"
     bordercolor="#666666"
     borderopacity="1"
     objecttolerance="10"
     gridtolerance="10"
     guidetolerance="10"
     inkscape:pageopacity="0"
     inkscape:pageshadow="2"
     inkscape:window-width="1366"
     inkscape:window-height="691"
     id="namedview8"
     showgrid="false"
     inkscape:zoom="41.7193"
     inkscape:cx="7.9128996"
     inkscape:cy="10.347087"
     inkscape:window-x="0"
     inkscape:window-y="25"
     inkscape:window-maximized="1"
     inkscape:current-layer="layer4-4-1" />
  <title
     id="title9167">Gnome Symbolic Icon Theme</title>
  <metadata
     id="metadata90">
    <rdf:RDF>
      <cc:Work
         rdf:about="">
        <dc:format>image/svg+xml</dc:format>
        <dc:type
           rdf:resource="http://purl.org/dc/dcmitype/StillImage" />
        <dc:title>Gnome Symbolic Icon Theme</dc:title>
      </cc:Work>
    </rdf:RDF>
  </metadata>
  <g
     id="layer12"
     transform="translate(-60,-518)">
    <g
       id="layer4-4-1"
       transform="translate(19,-242)">
      <path
         id="path10839-9"
         style="text-indent:0;text-transform:none;block-progression:tb;color:#bebebe;fill:#bebebe;enable-background:new"
         d="m 44.001455,763.00025 0.499834,0 c 0.0052,-6e-5 0.01039,-2.3e-4 0.01562,0 0.127433,0.006 0.254851,0.0641 0.343636,0.15565 l 4.140187,4.11913 4.155408,-4.11845 c 0.132956,-0.11457 0.223426,-0.14942 0.343886,-0.1544 l 0.499834,0 0,0.49808 c 0,0.14268 -0.01716,0.27426 -0.124958,0.37356 l -4.140014,4.11905 4.124204,4.10378 c 0.09397,0.0947 0.140453,0.22413 0.140453,0.35863 l 0,0.49807 -0.499834,0 c -0.132606,0 -0.265207,-0.0463 -0.359256,-0.14009 l -4.139698,-4.11872 -4.14015,4.11902 c -0.09397,0.0947 -0.227371,0.13948 -0.35938,0.13948 l -0.499834,0 0,-0.49809 c 0,-0.13215 0.04651,-0.26429 0.140579,-0.35799 l 4.140248,-4.10409 -4.140187,-4.11912 c -0.104965,-0.0947 -0.151449,-0.23412 -0.140453,-0.37357 l 0,-0.49808 z"
         inkscape:connector-curvature="0"
         sodipodi:nodetypes="ccccccccscccscscccscscccccc" />
    </g>
  </g>
</svg>
