<?xml version="1.0" standalone="no"?>
<!DOCTYPE svg PUBLIC "-//W3C//DTD SVG 1.1//EN" 
  "http://www.w3.org/Graphics/SVG/1.1/DTD/svg11.dtd">
<svg
  version="1.1" 
  id="SiemensClock"
  viewBox="0 0 466 466"
  xmlns="http://www.w3.org/2000/svg" 
  xmlns:xlink="http://www.w3.org/1999/xlink"
>
  <defs>

    <!-- Siemens Halske logo: -->
    <path
      id="SiemensHalskeLogo"
      fill="#202020" stroke="none"
      d="
      M 1021,60.4244 
      C 984.921,65.1611 951.583,74.9305 923,99.3009 
      C 871.302,143.38 866.19,221.699 896.262,279 
      C 902.944,291.733 913.048,302.562 921.625,314 
      C 930.728,326.138 938.613,339.053 948,351 
      C 954.109,358.774 966.707,370.987 958.656,380.996 
      C 952.928,388.116 936.554,399.957 927.001,395.721 
      C 918.773,392.073 913.586,382.012 908.573,375 
      C 896.84,358.59 886.294,340.016 872.826,325.001 
      C 860.269,311.001 835.463,306.885 828.055,329 
      C 819.875,353.418 839.354,373.033 852,392 
      C 883.899,439.843 918.522,485.607 949.692,534 
      C 960.886,551.378 982.524,571.039 1001.91,550.96 
      C 1024.3,527.761 994.942,493.469 979.988,474 
      C 975.36,467.974 962.239,456.41 965.272,448 
      C 970.009,434.859 996.586,417.576 1008.96,427.529 
      C 1021.62,437.716 1029.8,454.874 1039.04,468 
      C 1060.48,498.487 1090.35,529.3 1075.56,570 
      C 1060.17,612.372 1019.51,640.454 975,639.996 
      C 949.405,639.733 907.723,611.252 893.61,647 
      C 887.183,663.277 897.129,679.266 912,686.099 
      C 936.547,697.378 967.258,700.742 994,698.91 
      C 1090.5,692.303 1169.6,577.128 1121.88,487 
      C 1107.67,460.157 1084.1,440.083 1067.33,415 
      C 1059.47,403.241 1048.15,392.539 1061.04,380.093 
      C 1066.24,375.071 1077.22,366.433 1085,368.667 
      C 1093.52,371.117 1098.14,381.208 1102.67,388 
      C 1112.9,403.355 1123.28,419.113 1134.16,434 
      C 1143.06,446.176 1159.15,454.697 1173,444.442 
      C 1198.13,425.832 1175.94,396.82 1162.97,378 
      C 1139.48,343.89 1113.2,311.409 1090.09,277 
      C 1080.99,263.448 1071.22,250.477 1062.03,237 
      C 1053.13,223.946 1044.37,209.798 1031,200.786 
      C 1015.41,190.283 992.687,202.134 992.13,221 
      C 991.668,236.648 1003.77,251.037 1012.29,263 
      C 1022.18,276.871 1032.08,290.794 1041.48,305 
      C 1051,319.387 1042.68,328.041 1030,336.656 
      C 1024.79,340.195 1018.57,344.617 1012,341.99 
      C 995.042,335.208 983.899,307.953 973.522,294 
      C 961.603,277.975 945.814,261.802 938.464,243 
      C 918.588,192.159 943.19,139.679 993,119.012 
      C 1012.97,110.725 1035.56,109.304 1056,117.066 
      C 1071.57,122.977 1086.48,140.251 1104,129.03 
      C 1123.04,116.834 1119.1,94.0074 1103,81.3905 
      C 1082.93,65.6604 1046.07,57.1329 1021,60.4244 
      
      M 188,794.425 
      C 171.911,796.615 154.065,801.068 140,809.453 
      C 100.986,832.713 89.6137,887.159 121.289,920.91 
      C 137.922,938.632 163.016,946.402 186,951 
      C 199.411,953.683 218.407,955.506 230,962.969 
      C 235.372,966.428 241.374,972.126 241.079,979 
      C 240.451,993.643 222.272,1000.49 210,999.961 
      C 197.033,999.398 184.594,995.351 173,989.742 
      C 159.012,982.973 141.782,973.088 127,983.638 
      C 105.116,999.257 112.722,1025.39 132,1038.65 
      C 162.049,1059.32 199.345,1066.23 235,1060.73 
      C 247.997,1058.72 263.203,1054.42 274,1046.7 
      C 304.546,1024.85 319.722,979.097 303.11,944 
      C 294.43,925.663 277.105,910.978 259,902.489 
      C 239.25,893.229 217.083,891.232 196,886.576 
      C 189.02,885.034 177.232,882.707 175.867,873.999 
      C 173.495,858.877 200.958,861.289 209,862.076 
      C 228.201,863.954 250.834,879.888 270,872.532 
      C 291.201,864.395 299.047,838.132 283.816,821.004 
      C 271.77,807.459 250.298,800.88 233,797.4 
      C 219.085,794.6 202.122,792.503 188,794.425 
      
      M 401,798.529 
      C 386.328,799.81 371.782,811.766 371.04,827 
      C 369.527,858.095 373,889.855 373,921 
      C 373,954.028 369.589,986.918 371.039,1020 
      C 371.993,1041.74 385.326,1058.58 408,1056.91 
      C 438.907,1054.63 436.559,1026.35 438.09,1004 
      C 440.783,964.659 437.34,925.294 437.34,886 
      C 437.34,869.335 438.054,852.69 436.91,836 
      C 435.674,817.964 421.716,796.72 401,798.529 
      
      
      M 559.5103,794.70973 
      C 540.5597,795.48447 529.359,795.661 518.804,811 
      C 511.46,821.673 514,837.773 514,850 
      C 514,878.076 513.663,905.983 513.996,934 
      C 514.272,957.162 512.459,979.856 513.407,1003 
      C 513.915,1015.42 513.47,1027.8 519.88,1039 
      C 538.37556,1068.5687 558.55255,1059.4159 589.12955,1061.5059 
      C 610.98152,1061.2038 655.375,1063.35 670,1058.48 
      C 693.631,1050.6 697.547,1018.95 676.996,1005.1 
      C 652.83,988.821 621.318,1002.46 595,995.57 
      C 584.925,992.933 578.481,979.419 583.318,970 
      C 589.536,957.891 603.141,958.005 615,958 
      C 639.041,957.991 681.63,966.786 691.892,937 
      C 697.698,920.148 687.688,902.304 671,896.75 
      C 652.042,890.441 630.53,894.755 611.001,894.042 
      C 599.889,893.637 584.115,895.312 582.133,880 
      C 580.231,865.297 592.73,860.001 605,860 
      C 627.019,859.999 664.532,865.628 681.91,849.699 
      C 697.758,835.173 697.108,805.187 675,796.715 
      C 658.99641,791.12826 629.88255,792.9678 605.73755,793.6218 
      C 595.12755,793.9088 572.19791,794.19103 559.5103,794.70973
      z 
      
      M 809,793.529 
      C 786.602,798.597 782,821.687 782,841 
      C 782,892.43 783,943.622 783,995 
      C 783,1017.72 777.737,1040.29 803,1051.69 
      C 818.417,1058.64 838.411,1052.52 844.881,1036 
      C 852.272,1017.13 849,990.997 849,971 
      C 849,962.995 847.055,947.964 855.105,943.029 
      C 862.453,938.523 872.078,954.093 875.88,959 
      C 888.808,975.683 904.168,1003.11 929,1000.83 
      C 952.64,998.656 965.996,978.224 979.349,961 
      C 983.5,955.646 992.247,939.253 1000,940.171 
      C 1012.44,941.644 1007.81,964.464 1008.01,973 
      C 1008.71,1001.46 1004.46,1064.15 1051,1053.47 
      C 1078.13,1047.24 1074.75,1021 1075,1000 
      C 1075.55,953.858 1074,908.049 1074,862 
      C 1074,841.321 1077.52,816.871 1059,802.529 
      C 1043.77,790.738 1026.56,796.581 1014,809.004 
      C 991.984,830.785 974.061,857.189 955.63,882 
      C 950.069,889.485 940.177,910.492 929,909.417 
      C 918.023,908.362 908.646,888.838 902.575,881 
      C 884.429,857.576 869.044,830.944 848,810.001 
      C 837.661,799.711 824.428,790.038 809,793.529 
      
      M 1208,790.424 
      C 1189.35,792.873 1172.87,790.134 1161.48,809 
      C 1154.33,820.837 1154.98,833.782 1155,847 
      C 1155.02,862.292 1154.86,876.718 1155.91,892 
      C 1156.47,900.175 1154.1,907.9 1154,916 
      C 1153.71,940.569 1153.89,964.537 1154.96,989 
      C 1155.71,1006.18 1151.27,1028.96 1161.8,1044 
      C 1170.32,1056.17 1178.9019,1058.1622 1192.2419,1059.9222 
      C 1213.8119,1062.2153 1240.7669,1061.3717 1262,1061.6506 
      C 1272.8523,1061.3911 1297,1063.33 1312,1058.1 
      C 1335,1050.08 1344.23,1018.03 1321,1004.22 
      C 1309.81,997.573 1296.25,999.483 1284,999.96 
      C 1269.07,1000.54 1249.71,1000.28 1235,997.775 
      C 1223.06,995.742 1216.99,979.355 1222.18,969 
      C 1228.23,956.912 1244.49,958.005 1256,958 
      C 1280.94,957.989 1326.53,963.485 1336.78,933 
      C 1341.98,917.542 1332.47,902.338 1318,896.348 
      C 1309,892.623 1298.8796,893.72937 1289.3796,893.61637 
      C 1277.0796,893.47037 1265.0593,893.45489 1252.7593,893.15389 
      C 1241.9393,892.88889 1224.78,892.939 1223.11,878 
      C 1220.78,857.144 1235.11,854.399 1252,853.985 
      C 1275.54,853.409 1307.89,860.381 1326.83,842.674 
      C 1343.04,827.514 1336.71,800.698 1316,793.387 
      C 1302.51,788.624 1285.4906,790.40374 1271.4306,790.23674 
      C 1250.4506,789.98674 1228.95,790.14159 1208,790.424 
      
      M 1450,795.454 
      C 1425.77,798.675 1421.95,823.014 1421.04,843 
      C 1419.79,870.625 1419.55,898.403 1418.87,926 
      C 1418.28,949.817 1415.57,974.245 1417.83,998 
      C 1419.55,1016.09 1413.18,1036.25 1429,1049.79 
      C 1444.6,1063.13 1468.15,1053.93 1476.62,1037 
      C 1486.74,1016.79 1479.18,989.505 1481.72,968 
      C 1482.44,961.838 1480.67,935.055 1491.96,937.792 
      C 1495.59,938.673 1498.36,943.269 1500.55,946 
      C 1506.56,953.505 1512.65,961.011 1518,969 
      C 1528.91,985.289 1540.84,1000.87 1551.97,1017 
      C 1566.42,1037.91 1580.86,1062.63 1610,1057.38 
      C 1638.7,1052.22 1643,1026.65 1643,1002 
      C 1643,955.049 1645,908.022 1645,861 
      C 1645,840.052 1647.85,813.092 1628,799.789 
      C 1613.14,789.83 1592.4,800.263 1585.33,815 
      C 1580.56,824.933 1582,836.291 1582,847 
      C 1582,862.313 1581.18,877.676 1581,893 
      C 1580.92,899.514 1582.61,925.918 1571,923.208 
      C 1562.49,921.218 1552.23,901.768 1547.01,895 
      C 1527.91,870.249 1511.33,843.646 1491.99,819 
      C 1482.06,806.354 1467.55,793.12 1450,795.454 
      
      M 1791,788.425 
      C 1769.69,791.326 1746.03,797.759 1730.29,813.289 
      C 1719.16,824.263 1708.96,837.847 1704.44,853 
      C 1693.52,889.59 1713.88,928.596 1747,944.741 
      C 1759.27,950.719 1774.29,955.905 1788,956.406 
      C 1798.84,956.802 1809.14,953.533 1820,956.13 
      C 1829.04,958.293 1841.68,962.987 1842.74,974 
      C 1844.47,991.876 1814.53,997.258 1802,997.545 
      C 1777.1,998.115 1754.64,972.233 1730,983.352 
      C 1707.77,993.381 1704.12,1021.02 1722,1036.82 
      C 1742.88,1055.26 1777.57,1064.44 1805,1061.83 
      C 1833.29,1059.14 1863.52,1052.13 1883.96,1031 
      C 1919.16,994.613 1913.68,929.847 1868,904.439 
      C 1847.76,893.179 1825.69,890.378 1803,889.093 
      C 1796.3,888.714 1789.72,891.025 1783,889.471 
      C 1774.68,887.548 1765.91,878.989 1766.14,870 
      C 1766.54,853.572 1784.86,849.064 1798,849.001 
      C 1814.88,848.919 1830.91,853.704 1846,861.248 
      C 1858.98,867.741 1871.86,877.801 1886,867.945 
      C 1904.34,855.156 1904.86,826.25 1887,813.159 
      C 1862.25,795.014 1821.42,784.285 1791,788.425 
      z"
    /> <!-- End path (Siemens Halske logo) -->

    <!-- Minute and hour markers: -->
    <rect id="majorHourMarker" x="-7.25" y="-191" width="14.5" height="60"   fill="black" />
    <rect id="minorHourMarker" x="-7.25" y="-191" width="14.5" height="47.5" fill="black" />
    <rect id="minuteMarker"    x="-3.25" y="-191" width="6.5"  height="15"   fill="black" />

  </defs>


  <g transform="translate(233, 233)">

    <!-- Frame: -->
    <path d = 
    "m 0,-233 c -128.50455,0 -233,104.49545 -233,233 0,128.50455 104.49545,233 233,233 C 128.50455,233 233,128.50455 233,0 233,-128.50455 128.50455,-233 0,-233 Z m 0,30 c 112.29136,0 203,90.70864 203,203 0,112.29136 -90.70864,203 -203,203 -112.29136,0 -203,-90.70864 -203,-203 0,-112.29136 90.70864,-203 203,-203 z"
    />



    <!-- The Siemens Halske logo: -->
    <use xlink:href="#SiemensHalskeLogo" 
      transform="translate(-21,-74.5) scale(0.021)"
    />

    <!-- The minutes and hours markers: -->
    <g id="markers">
      <g id="quarterMarkers">
        <use xlink:href="#majorHourMarker" />
        <use xlink:href="#minuteMarker"    transform="rotate(6)"/>
        <use xlink:href="#minuteMarker"    transform="rotate(12)"/>
        <use xlink:href="#minuteMarker"    transform="rotate(18)"/>
        <use xlink:href="#minuteMarker"    transform="rotate(24)"/>
        <use xlink:href="#minorHourMarker" transform="rotate(30)"/>
        <use xlink:href="#minuteMarker"    transform="rotate(36)"/>
        <use xlink:href="#minuteMarker"    transform="rotate(42)"/>
        <use xlink:href="#minuteMarker"    transform="rotate(48)"/>
        <use xlink:href="#minuteMarker"    transform="rotate(54)"/>
        <use xlink:href="#minorHourMarker" transform="rotate(60)"/>
        <use xlink:href="#minuteMarker"    transform="rotate(66)"/>
        <use xlink:href="#minuteMarker"    transform="rotate(72)"/>
        <use xlink:href="#minuteMarker"    transform="rotate(78)"/>
        <use xlink:href="#minuteMarker"    transform="rotate(84)"/>
      </g>
      <use xlink:href="#quarterMarkers" transform="rotate(90)"/>
      <use xlink:href="#quarterMarkers" transform="rotate(180)"/>
      <use xlink:href="#quarterMarkers" transform="rotate(270)"/>
    </g>

  </g>
</svg>
