<?xml version="1.0" standalone="no"?>
<!DOCTYPE svg PUBLIC "-//W3C//DTD SVG 1.1//EN" 
  "http://www.w3.org/Graphics/SVG/1.1/DTD/svg11.dtd">
<svg
  version="1.1" 
  id="clock-hour-hand"
  viewBox="0 0 466 466"
  xmlns="http://www.w3.org/2000/svg" 
  xmlns:xlink="http://www.w3.org/1999/xlink"
>
  <g
    transform="translate (233,233)"
  >
    <path
      id="hours"
      fill="#202020"
      d="m -2.0694432,-113.74249 -17.1400148,37.157563 c -5.34,10.679999 -0.02157,19.560945 14.2184252,23.120945 l 0.017051,41.997176 c -8.6238832,3.6789699 -11.1712102,17.313429 -0.016848,22.924591 -0.020174,16.416443 -4.923313,29.728408 -7.6277782,35.905685 7.5991524,2.227567 17.5561193,2.065729 24.832173,0.03552 C 9.8259047,41.577192 4.999745,27.579784 4.9901924,11.464441 14.370502,7.1646474 15.528225,-5.7239736 4.9629475,-11.526841 l 0.1108756,-42.466445 c 14.2399999,-3.56 19.4065779,-12.702052 14.0665779,-23.382054 l -17.128855,-36.3678 c -0.8309666,-1.67549 -3.0707134,-1.59101 -4.0809892,6.5e-4 z M -3.56,-3.56 c 1.966135,-1.966135 5.1538648,-1.966132 7.1199984,1.6e-6 C 5.526132,-1.5938648 5.526135,1.593865 3.56,3.56 1.593865,5.526135 -1.5938648,5.526132 -3.5599984,3.5599984 -5.526132,1.5938648 -5.526135,-1.593865 -3.56,-3.56 Z"
      style="stroke-width:0.712"
    />
    <circle cx="0" cy="0" r="5" fill="black"/>
  </g>
</svg>
