<?xml version="1.0" standalone="no"?>
<!DOCTYPE svg PUBLIC "-//W3C//DTD SVG 1.1//EN" 
  "http://www.w3.org/Graphics/SVG/1.1/DTD/svg11.dtd">
<svg
  version="1.1" 
  id="clock-minute-hand"
  viewBox="0 0 466 466"
  xmlns="http://www.w3.org/2000/svg" 
  xmlns:xlink="http://www.w3.org/1999/xlink"
>
  <g
    transform="translate (233,233)"
  >
    <path
      id="minutes"
      fill="#202020"
      d="m -0.93959984,-178.73499 -7.27126036,92.115683 3.2368813,75.156417 c -10.9411241,5.4287593 -9.0729291,18.9868923 -0.027363,22.891782 0.00423,15.260854 -4.018811,27.06598 -7.6991551,35.839705 8.0868379,2.237681 17.4344869,2.418844 25.392988,0.08123 C 9.5822469,40.105127 5.0049114,25.008895 5.0331732,11.455548 15.011672,6.6669414 14.931733,-6.7109281 5.0386153,-11.455256 L 8.2805714,-88.247523 1.1967139,-178.78578 c -0.1241948,-1.66369 -2.03212102,-1.51374 -2.13631374,0.0508 z M -3.56,-3.56 c 1.966135,-1.966135 5.1538648,-1.966132 7.1199984,1.6e-6 C 5.526132,-1.5938648 5.526135,1.593865 3.56,3.56 1.593865,5.526135 -1.5938648,5.526132 -3.5599984,3.5599984 -5.526132,1.5938648 -5.526135,-1.593865 -3.56,-3.56 Z"
      style="stroke-width:0.712"
    />
    <circle cx="0" cy="0" r="5" fill="black"/>
  </g>
</svg>
