<svg width="48" height="48" viewBox="0 0 48 48" xmlns="http://www.w3.org/2000/svg">
  <!-- Intel logo inspired design -->
  <defs>
    <linearGradient id="intelGradient" x1="0%" y1="0%" x2="100%" y2="0%">
      <stop offset="0%" style="stop-color:#0071c5;stop-opacity:1" />
      <stop offset="100%" style="stop-color:#00aeef;stop-opacity:1" />
    </linearGradient>
  </defs>
  
  <!-- Background circle -->
  <circle cx="24" cy="24" r="20" fill="url(#intelGradient)"/>
  
  <!-- Intel text stylized -->
  <g fill="white">
    <!-- i -->
    <rect x="11" y="18" width="2" height="12" rx="1"/>
    <circle cx="12" cy="15" r="1.5"/>
    
    <!-- n -->
    <path d="M 15 30 L 15 20 L 17 20 L 17 22 Q 18 20 20 20 Q 22 20 22 22 L 22 30 L 20 30 L 20 23 Q 20 22 19 22 Q 18 22 17 23 L 17 30 Z"/>
    
    <!-- t -->
    <rect x="24" y="18" width="2" height="12" rx="1"/>
    <rect x="23" y="21" width="4" height="1.5"/>
    
    <!-- e -->
    <path d="M 28 25 Q 28 20 31 20 Q 34 20 34 23 L 34 24 L 30 24 Q 30 27 31 27 Q 32 27 32.5 26 L 34 27 Q 33 30 31 30 Q 28 30 28 25 M 30 22.5 Q 30 22 31 22 Q 32 22 32 22.5 L 32 23 L 30 23 Z"/>
    
    <!-- l -->
    <rect x="36" y="16" width="2" height="14" rx="1"/>
  </g>
  
  <!-- Registered trademark symbol -->
  <text x="40" y="16" font-family="Arial, sans-serif" font-size="6" fill="white" font-weight="bold">®</text>
</svg>
