<?xml version="1.0" encoding="utf-8"?>
<!-- Generator: Adobe Illustrator 15.1.0, SVG Export Plug-In . SVG Version: 6.00 Build 0)  -->
<!DOCTYPE svg PUBLIC "-//W3C//DTD SVG 1.1//EN" "http://www.w3.org/Graphics/SVG/1.1/DTD/svg11.dtd">
<svg version="1.1" id="Layer_1" xmlns="http://www.w3.org/2000/svg" xmlns:xlink="http://www.w3.org/1999/xlink" x="0px" y="0px"
	 width="512px" height="512px" viewBox="0 0 512 512" enable-background="new 0 0 512 512" xml:space="preserve">

<g>
	<g>
		<path fill="#1D1D1B" d="M112,160h288c8.833,0,16-7.167,16-16s-7.167-16-16-16H112c-8.833,0-16,7.167-16,16S103.167,160,112,160z
			 M400,192H112c-8.833,0-16,7.167-16,16s7.167,16,16,16h288c8.833,0,16-7.167,16-16S408.833,192,400,192z M400,256H112
			c-8.833,0-16,7.167-16,16s7.167,16,16,16h288c8.833,0,16-7.167,16-16S408.833,256,400,256z M400,320H112c-8.833,0-16,7.167-16,16
			s7.167,16,16,16h288c8.833,0,16-7.167,16-16S408.833,320,400,320z"/>
	</g>
</g>
</svg>
