<?xml version="1.0" encoding="utf-8"?>
<!-- Generator: Adobe Illustrator 15.1.0, SVG Export Plug-In . SVG Version: 6.00 Build 0)  -->
<!DOCTYPE svg PUBLIC "-//W3C//DTD SVG 1.1//EN" "http://www.w3.org/Graphics/SVG/1.1/DTD/svg11.dtd">
<svg version="1.1" id="Layer_1" xmlns="http://www.w3.org/2000/svg" xmlns:xlink="http://www.w3.org/1999/xlink" x="0px" y="0px"
	 width="512px" height="512px" viewBox="0 0 512 512" enable-background="new 0 0 512 512" xml:space="preserve">

<g>
	<g>
		<path fill-rule="evenodd" clip-rule="evenodd" fill="#1D1D1B" d="M417.042,166.083c-23.979-24.542-57.125-38.771-91.73-38.771
			c-34.562,0-67.688,14.229-91.665,38.771c-52.813,2.459-95.021,46.188-95.021,99.584c0,54.958,44.709,99.666,99.688,99.666
			c5.834,0,11.604-0.5,17.271-1.499c20.729,13.541,44.917,20.854,69.729,20.854c24.854,0,49.063-7.313,69.772-20.854
			c5.707,0.999,11.458,1.499,17.291,1.499c54.937,0,99.625-44.708,99.625-99.666C512,212.271,469.812,168.542,417.042,166.083z
			 M412.375,333.333c-8.312,0-16.375-1.499-24-4.417c-17.5,15.25-39.75,23.772-63.063,23.772c-23.249,0-45.499-8.522-62.999-23.772
			c-7.625,2.918-15.75,4.417-24,4.417c-37.312,0-67.688-30.375-67.688-67.666c0-37.313,30.375-67.688,67.688-67.688
			c3.188,0,6.375,0.229,9.521,0.688c18.104-24.583,46.541-39.354,77.478-39.354c30.938,0,59.438,14.771,77.501,39.354
			c3.125-0.458,6.312-0.688,9.562-0.688c37.312,0,67.625,30.375,67.625,67.688C480,302.958,449.688,333.333,412.375,333.333z
			 M144,352H16c-8.833,0-16,7.167-16,16s7.167,16,16,16h128c8.833,0,16-7.167,16-16S152.833,352,144,352z M16,320h64
			c8.833,0,16-7.167,16-16s-7.167-16-16-16H16c-8.833,0-16,7.167-16,16S7.167,320,16,320z M48,256h64c8.833,0,16-7.167,16-16
			s-7.167-16-16-16H48c-8.833,0-16,7.167-16,16S39.167,256,48,256z"/>
	</g>
</g>
</svg>
