<?xml version="1.0" encoding="UTF-8" standalone="no"?>
<!-- Created with Inkscape (http://www.inkscape.org/) -->

<svg
   width="44.317707mm"
   height="44.317703mm"
   viewBox="0 0 44.317707 44.317703"
   version="1.1"
   id="svg6511"
   inkscape:version="1.4.2 (ebf0e940d0, 2025-05-08)"
   sodipodi:docname="bg.svg"
   xmlns:inkscape="http://www.inkscape.org/namespaces/inkscape"
   xmlns:sodipodi="http://sodipodi.sourceforge.net/DTD/sodipodi-0.dtd"
   xmlns:xlink="http://www.w3.org/1999/xlink"
   xmlns="http://www.w3.org/2000/svg"
   xmlns:svg="http://www.w3.org/2000/svg">
  <sodipodi:namedview
     id="namedview6513"
     pagecolor="#ffffff"
     bordercolor="#000000"
     borderopacity="0.25"
     inkscape:showpageshadow="2"
     inkscape:pageopacity="0.0"
     inkscape:pagecheckerboard="0"
     inkscape:deskcolor="#d1d1d1"
     inkscape:document-units="mm"
     showgrid="false"
     inkscape:zoom="7.48"
     inkscape:cx="33.088235"
     inkscape:cy="129.41176"
     inkscape:window-width="1920"
     inkscape:window-height="1007"
     inkscape:window-x="0"
     inkscape:window-y="0"
     inkscape:window-maximized="1"
     inkscape:current-layer="layer1"
     showguides="true" />
  <defs
     id="defs6508">
    <clipPath
       clipPathUnits="userSpaceOnUse"
       id="clipPath2426">
      <path
         d="m 8060.68,5204.7 c -93.72,0 -175.9,82.2 -175.9,175.9 0,93.7 82.18,175.9 175.9,175.9 93.72,0 175.91,-82.2 175.91,-175.9 0,-93.7 -82.19,-175.9 -175.91,-175.9 z"
         id="path2424" />
    </clipPath>
    <linearGradient
       x1="0"
       y1="0"
       x2="1"
       y2="0"
       gradientUnits="userSpaceOnUse"
       gradientTransform="matrix(174.538,-302.309,-302.309,-174.538,7973.41,5531.8)"
       spreadMethod="pad"
       id="linearGradient2434">
      <stop
         style="stop-opacity:1;stop-color:#ededed"
         offset="0"
         id="stop2428" />
      <stop
         style="stop-opacity:1;stop-color:#ededed"
         offset="0.48211215"
         id="stop2430" />
      <stop
         style="stop-opacity:1;stop-color:#d0d0d0"
         offset="1"
         id="stop2432" />
    </linearGradient>
    <clipPath
       clipPathUnits="userSpaceOnUse"
       id="clipPath2444">
      <path
         d="m 8060.68,5224.3 c -83.29,0 -156.36,73 -156.36,156.3 0,83.3 73.07,156.4 156.36,156.4 83.3,0 156.37,-73.1 156.37,-156.4 0,-83.3 -73.07,-156.3 -156.37,-156.3 z"
         id="path2442" />
    </clipPath>
    <linearGradient
       x1="0"
       y1="0"
       x2="1"
       y2="0"
       gradientUnits="userSpaceOnUse"
       gradientTransform="matrix(155.141,-268.712,-268.712,-155.141,7983.11,5515)"
       spreadMethod="pad"
       id="linearGradient2452">
      <stop
         style="stop-opacity:1;stop-color:#d0d0d0"
         offset="0"
         id="stop2446" />
      <stop
         style="stop-opacity:1;stop-color:#ededed"
         offset="0.51788785"
         id="stop2448" />
      <stop
         style="stop-opacity:1;stop-color:#ededed"
         offset="1"
         id="stop2450" />
    </linearGradient>
  </defs>
  <g
     inkscape:label="Layer 1"
     inkscape:groupmode="layer"
     id="layer1"
     transform="translate(0.09317171,-98.332576)">
    <path
       d="m 22.065503,98.552702 c -12.096997,0 -21.93836788,9.841438 -21.93836788,21.938548 0,12.0971 9.84137088,21.93889 21.93836788,21.93889 12.096855,0 21.938297,-9.84179 21.938297,-21.93889 0,-12.09711 -9.841442,-21.938548 -21.938297,-21.938548 z m 0,44.097928 c -12.2183878,0 -22.15885399,-9.94057 -22.15885399,-22.15938 0,-12.21846 9.94046619,-22.159034 22.15885399,-22.159034 12.218211,0 22.158783,9.940574 22.158783,22.159034 0,12.21881 -9.940572,22.15938 -22.158783,22.15938"
       style="fill:#000000;fill-opacity:1;fill-rule:nonzero;stroke:none;stroke-width:0.0352778"
       id="path16-7-6-5" />
    <rect
       style="fill:#000000;fill-opacity:1;stroke:none;stroke-width:1.92084;stroke-linejoin:round;stroke-dasharray:none;stroke-opacity:1"
       id="rect11965-3-6"
       width="0.21166667"
       height="6.614583"
       x="21.959641"
       y="108.25642"
       inkscape:transform-center-x="-8.1341294e-06"
       inkscape:transform-center-y="-33.742496"
       inkscape:tile-cx="-372.64606"
       inkscape:tile-cy="177.4838"
       inkscape:tile-w="0.80000001"
       inkscape:tile-h="24.999999"
       inkscape:tile-x0="-373.04605"
       inkscape:tile-y0="131.2413" />
    <g
       aria-label="12"
       id="use14656-3-5"
       style="font-weight:bold;font-size:4.23333px;-inkscape-font-specification:'sans-serif Bold';stroke-width:0.198437;stroke-linejoin:round"
       inkscape:label="text14208"
       inkscape:transform-center-x="4.8417816e-06"
       inkscape:transform-center-y="-57.217039">
      <path
         style="color:#000000;-inkscape-font-specification:'Nimbus Sans L Bold';fill:#000000;stroke-linejoin:miter;-inkscape-stroke:none"
         d="m 20.960937,103.80078 a 0.09922842,0.09922842 0 0 0 -0.0957,0.0742 c -0.04246,0.15773 -0.123863,0.2645 -0.255859,0.3418 -0.131996,0.0773 -0.32021,0.12109 -0.566406,0.12109 a 0.09922842,0.09922842 0 0 0 -0.09766,0.0996 v 0.39258 a 0.09922842,0.09922842 0 0 0 0.09766,0.0996 h 0.621093 v 1.9707 A 0.09922842,0.09922842 0 0 0 20.763672,107 h 0.589844 a 0.09922842,0.09922842 0 0 0 0.09961,-0.0996 v -3 a 0.09922842,0.09922842 0 0 0 -0.09961,-0.0996 z M 21.001953,104 h 0.253906 v 2.80273 h -0.392578 v -1.97265 a 0.09922842,0.09922842 0 0 0 -0.09961,-0.0996 h -0.621094 v -0.21484 c 0.217341,-0.0119 0.420332,-0.0403 0.568359,-0.12696 0.146175,-0.0856 0.228296,-0.23126 0.291016,-0.38867 z"
         id="path1585" />
      <path
         style="color:#000000;-inkscape-font-specification:'Nimbus Sans L Bold';fill:#000000;stroke-linejoin:miter;-inkscape-stroke:none"
         d="m 23.0625,103.73828 c -0.330167,0 -0.604391,0.0974 -0.798828,0.29492 -0.194977,0.19498 -0.289063,0.46962 -0.289063,0.80469 0,0.0435 8.12e-4,0.0828 0.0039,0.11719 a 0.09922842,0.09922842 0 0 0 0.09961,0.0898 h 0.566406 a 0.09922842,0.09922842 0 0 0 0.09961,-0.0996 v -0.0996 c 0,-0.15348 0.03245,-0.25646 0.08789,-0.32422 0.05911,-0.0718 0.130088,-0.10546 0.242188,-0.10546 0.107721,0 0.174781,0.0318 0.230468,0.0957 a 0.09922842,0.09922842 0 0 0 0.002,0 c 0.0576,0.0638 0.08984,0.15431 0.08984,0.28906 0,0.14718 -0.03783,0.26011 -0.113281,0.35156 a 0.09922842,0.09922842 0 0 0 -0.002,0 c -0.07182,0.0898 -0.279289,0.26563 -0.607422,0.49805 -0.259957,0.17819 -0.44632,0.35519 -0.556641,0.53906 -0.10808,0.18219 -0.165389,0.4182 -0.179687,0.70703 A 0.09922842,0.09922842 0 0 0 22.037109,107 h 2.03711 a 0.09922842,0.09922842 0 0 0 0.09961,-0.0996 v -0.52734 a 0.09922842,0.09922842 0 0 0 -0.09961,-0.0996 H 23 c 0.013,-0.0141 0.0182,-0.0291 0.0332,-0.043 0.06671,-0.0618 0.218473,-0.1792 0.443359,-0.34375 a 0.09922842,0.09922842 0 0 0 0,-0.002 c 0.26387,-0.1937 0.447075,-0.36105 0.552735,-0.51954 a 0.09922842,0.09922842 0 0 0 0,-0.002 c 0.105503,-0.16136 0.15625,-0.35508 0.15625,-0.57422 0,-0.31049 -0.103444,-0.57383 -0.308594,-0.76367 -0.204991,-0.19204 -0.482691,-0.28711 -0.814453,-0.28711 z m 0,0.19922 c 0.295915,0 0.51549,0.078 0.679687,0.23242 a 0.09922842,0.09922842 0 0 0 0,0.002 c 0.164165,0.15191 0.246094,0.3489 0.246094,0.61718 0,0.18802 -0.04372,0.33985 -0.125,0.46485 -0.08175,0.12262 -0.249635,0.286 -0.503906,0.47265 -0.226508,0.16574 -0.376723,0.28138 -0.458984,0.35742 -0.07974,0.0736 -0.143638,0.15582 -0.185547,0.2461 a 0.09922842,0.09922842 0 0 0 0.08984,0.14062 h 1.169922 v 0.33203 h -1.814453 c 0.02208,-0.20523 0.05638,-0.39274 0.126953,-0.51171 0.08792,-0.14653 0.25358,-0.30977 0.5,-0.47852 a 0.09922842,0.09922842 0 0 0 0.002,0 c 0.332729,-0.23568 0.541721,-0.40453 0.646485,-0.53516 0.106449,-0.12902 0.160156,-0.293 0.160156,-0.47656 0,-0.16749 -0.045,-0.31299 -0.140625,-0.41992 -0.09314,-0.10694 -0.22951,-0.16211 -0.380859,-0.16211 -0.157997,0 -0.299306,0.0601 -0.394532,0.17578 -0.09339,0.11414 -0.134765,0.26841 -0.134765,0.45117 h -0.371094 c -1.6e-5,-0.003 0,-0.005 0,-0.008 0,-0.29883 0.07818,-0.51373 0.230469,-0.66601 0.152827,-0.15526 0.365499,-0.23438 0.658203,-0.23438 z"
         id="path1587" />
    </g>
    <g
       aria-label="3"
       id="use14658-7-2"
       style="font-weight:bold;font-size:4.23333px;-inkscape-font-specification:'sans-serif Bold';stroke-width:0.198437;stroke-linejoin:round"
       inkscape:label="text14208"
       inkscape:transform-center-x="4.8417816e-06"
       inkscape:transform-center-y="-57.217039">
      <path
         style="color:#000000;-inkscape-font-specification:'Nimbus Sans L Bold';fill:#000000;stroke-linejoin:miter;-inkscape-stroke:none"
         d="m 37.173828,118.80273 c -0.378131,0 -0.681212,0.12617 -0.875,0.37696 -3.58e-4,4.4e-4 3.58e-4,0.002 0,0.002 -0.133954,0.16667 -0.195312,0.39487 -0.195312,0.67578 v 0.0508 a 0.09922842,0.09922842 0 0 0 0.09961,0.0977 h 0.548828 a 0.09922842,0.09922842 0 0 0 0.09961,-0.0957 c 0.0026,-0.1344 0.01972,-0.23094 0.03906,-0.2793 0.04416,-0.10935 0.112496,-0.1543 0.271484,-0.1543 0.09852,0 0.154211,0.0255 0.197266,0.0742 a 0.09922842,0.09922842 0 0 0 0.0039,0.004 c 0.04555,0.0474 0.07031,0.11431 0.07031,0.2207 0,0.13094 -0.03301,0.20791 -0.0957,0.26172 -0.0627,0.0538 -0.169261,0.0898 -0.330079,0.0898 h -0.04883 a 0.09922842,0.09922842 0 0 0 -0.09961,0.0996 v 0.39649 h 0.0078 a 0.09922842,0.09922842 0 0 0 -0.0059,0.0195 0.09922842,0.09922842 0 0 0 0.101563,0.0742 l -0.0039,0.006 c 0.13375,0 0.241002,0.0104 0.320313,0.0293 0.08018,0.0223 0.136379,0.0606 0.18164,0.12305 a 0.09922842,0.09922842 0 0 0 0.002,0.002 c 0.04736,0.0624 0.07031,0.13256 0.07031,0.22461 0,0.10772 -0.03106,0.18706 -0.09961,0.25782 -0.06506,0.0672 -0.137697,0.0977 -0.242188,0.0977 -0.123637,0 -0.200379,-0.0299 -0.253906,-0.0859 -0.05353,-0.056 -0.09017,-0.14879 -0.09766,-0.29101 a 0.09922842,0.09922842 0 0 0 -0.09961,-0.0937 h -0.574218 a 0.09922842,0.09922842 0 0 0 -0.09961,0.0996 c 0.0029,0.32026 0.10471,0.5913 0.306641,0.78711 0.201856,0.19574 0.475788,0.29101 0.800781,0.29101 0.337666,0 0.621417,-0.0929 0.832031,-0.28515 a 0.09922842,0.09922842 0 0 0 0,-0.002 c 0.210192,-0.19496 0.316407,-0.46172 0.316407,-0.77539 0,-0.19138 -0.04403,-0.36062 -0.136719,-0.49804 -0.06655,-0.10143 -0.185704,-0.17393 -0.302735,-0.24805 0.09211,-0.0697 0.188818,-0.13852 0.240235,-0.22266 a 0.09922842,0.09922842 0 0 0 0,-0.002 c 0.07087,-0.11919 0.105469,-0.25924 0.105469,-0.41406 0,-0.2712 -0.102072,-0.50214 -0.296875,-0.66602 -0.194158,-0.16576 -0.452128,-0.24805 -0.757813,-0.24805 z m 0,0.19922 c 0.272379,0 0.477907,0.0681 0.630859,0.19922 0.152462,0.12826 0.22461,0.29073 0.22461,0.51563 0,0.12555 -0.02635,0.22803 -0.07617,0.3125 -0.04945,0.0809 -0.136174,0.16426 -0.267578,0.24414 a 0.09922842,0.09922842 0 0 0 0.0059,0.17383 c 0.156669,0.077 0.265129,0.16783 0.330078,0.26757 0.06717,0.0996 0.103516,0.22532 0.103516,0.38672 0,0.27061 -0.08376,0.47304 -0.253906,0.63086 -0.169724,0.15497 -0.395524,0.23438 -0.697266,0.23438 -0.286854,0 -0.500165,-0.0793 -0.662109,-0.23633 -0.136434,-0.1323 -0.185677,-0.32737 -0.208985,-0.54492 h 0.373047 c 0.02066,0.12266 0.04236,0.244 0.117188,0.32226 0.09668,0.10112 0.238196,0.14844 0.398437,0.14844 0.149068,0 0.284461,-0.0546 0.384766,-0.1582 0.102329,-0.10563 0.15625,-0.24514 0.15625,-0.39649 0,-0.12843 -0.03742,-0.24632 -0.111328,-0.34375 -0.07045,-0.0966 -0.171353,-0.16457 -0.289063,-0.19726 a 0.09922842,0.09922842 0 0 0 -0.002,-0.002 c -0.07485,-0.0182 -0.173817,-0.0209 -0.271484,-0.0254 v -0.22461 c 0.161703,-0.008 0.308351,-0.0354 0.408203,-0.12109 0.112312,-0.0964 0.166015,-0.24264 0.166015,-0.41211 0,-0.14073 -0.03943,-0.26524 -0.125,-0.35547 -0.08372,-0.0946 -0.207191,-0.14062 -0.345703,-0.14062 -0.210326,0 -0.385435,0.10005 -0.457031,0.27734 -0.02577,0.0644 -0.02998,0.15931 -0.03711,0.25195 h -0.353516 c 0.0087,-0.21907 0.05043,-0.39465 0.138672,-0.5039 a 0.09922842,0.09922842 0 0 0 0.002,-0.002 c 0.153546,-0.19985 0.381323,-0.30078 0.71875,-0.30078 z"
         id="path1531" />
    </g>
    <g
       aria-label="6"
       id="use14658-8-6-8"
       style="font-weight:bold;font-size:4.23333px;-inkscape-font-specification:'sans-serif Bold';stroke-width:0.198437;stroke-linejoin:round"
       inkscape:label="text14208"
       inkscape:transform-center-x="4.8417816e-06"
       inkscape:transform-center-y="-57.217039">
      <path
         style="color:#000000;-inkscape-font-specification:'Nimbus Sans L Bold';fill:#000000;stroke-linejoin:miter;-inkscape-stroke:none"
         d="m 22.150391,133.93359 c -0.412309,0 -0.74027,0.17527 -0.94336,0.50977 -0.179562,0.29628 -0.263672,0.70596 -0.263672,1.22656 0,0.50211 0.07024,0.87535 0.230469,1.12891 0.09438,0.15528 0.225458,0.27953 0.388672,0.36719 a 0.09922842,0.09922842 0 0 0 0.002,0 c 0.16327,0.0847 0.343718,0.12695 0.537109,0.12695 0.320318,0 0.594416,-0.11428 0.796875,-0.33789 0.202418,-0.22356 0.302735,-0.51864 0.302735,-0.86524 0,-0.30507 -0.08827,-0.56491 -0.265625,-0.76367 -0.17729,-0.20094 -0.419539,-0.30664 -0.701172,-0.30664 -0.186008,0 -0.335561,0.11184 -0.486328,0.21484 0.0072,-0.10342 0.01238,-0.22639 0.02148,-0.27343 0.02454,-0.12027 0.06959,-0.20459 0.132813,-0.26563 0.06501,-0.0601 0.136156,-0.0879 0.232422,-0.0879 0.07912,0 0.130533,0.0159 0.164062,0.041 a 0.09922842,0.09922842 0 0 0 0.002,0.002 c 0.03666,0.0262 0.07533,0.077 0.109375,0.16211 a 0.09922842,0.09922842 0 0 0 0.0918,0.0625 h 0.550781 a 0.09922842,0.09922842 0 0 0 0.09766,-0.084 0.09922842,0.09922842 0 0 0 -0.0039,-0.0312 h 0.0039 c -0.0012,-0.008 -0.0065,-0.0121 -0.0078,-0.0195 a 0.09922842,0.09922842 0 0 0 -0.002,-0.008 c -0.02792,-0.15526 -0.07485,-0.29588 -0.150391,-0.41211 a 0.09922842,0.09922842 0 0 0 -0.002,-0.004 c -0.186813,-0.25419 -0.47915,-0.38282 -0.83789,-0.38282 z m 0,0.19727 c 0.311895,0 0.524529,0.0999 0.673828,0.30078 0.04267,0.066 0.0653,0.15755 0.08984,0.24609 h -0.361328 c -0.0377,-0.0727 -0.07574,-0.14473 -0.134765,-0.1875 -0.07671,-0.0575 -0.174908,-0.082 -0.283203,-0.082 -0.140048,0 -0.269173,0.0493 -0.369141,0.14258 a 0.09922842,0.09922842 0 0 0 -0.002,0.002 c -0.09663,0.0933 -0.158876,0.21931 -0.189453,0.36914 -0.01883,0.0973 -0.03071,0.24746 -0.03906,0.45899 a 0.09922842,0.09922842 0 0 0 0.171875,0.0723 c 0.152427,-0.15992 0.321032,-0.23437 0.527344,-0.23437 0.235849,0 0.410427,0.0763 0.552734,0.23828 a 0.09922842,0.09922842 0 0 0 0.002,0.002 c 0.142351,0.15954 0.212891,0.36268 0.212891,0.63086 0,0.30936 -0.0831,0.5481 -0.25,0.73243 -0.166855,0.18429 -0.375396,0.27343 -0.650391,0.27343 -0.164897,0 -0.310927,-0.0358 -0.445312,-0.10547 v 0.002 c -0.134442,-0.0722 -0.236008,-0.16908 -0.3125,-0.29492 a 0.09922842,0.09922842 0 0 0 -0.002,-0.002 c -0.12583,-0.19842 -0.199219,-0.54166 -0.199219,-1.02539 0,-0.49914 0.08321,-0.87362 0.234375,-1.12305 0.171737,-0.28285 0.414046,-0.41601 0.773438,-0.41601 z m -0.06055,1.35156 c -0.16294,0 -0.310156,0.0684 -0.41211,0.19336 -0.101608,0.12455 -0.15039,0.2863 -0.15039,0.46875 0,0.17753 0.04856,0.3355 0.15039,0.45703 a 0.09922842,0.09922842 0 0 0 0.002,0 c 0.102305,0.11881 0.246904,0.1836 0.40625,0.1836 0.156276,0 0.297475,-0.0696 0.398438,-0.19336 0.103418,-0.12355 0.154297,-0.28157 0.154297,-0.45899 0,-0.1812 -0.04724,-0.3391 -0.146485,-0.45898 -0.097,-0.12283 -0.240707,-0.19141 -0.402343,-0.19141 z m 0,0.19922 c 0.113329,0 0.185199,0.0351 0.248047,0.11523 a 0.09922842,0.09922842 0 0 0 0.002,0.002 c 0.06533,0.0784 0.101562,0.18515 0.101562,0.33398 0,0.14161 -0.0372,0.24633 -0.109375,0.33203 a 0.09922842,0.09922842 0 0 0 -0.002,0.002 c -0.06991,0.0857 -0.141346,0.11914 -0.244141,0.11914 -0.110749,0 -0.187288,-0.0336 -0.255859,-0.11328 -0.06905,-0.0824 -0.105469,-0.18595 -0.105469,-0.32813 0,-0.14828 0.03815,-0.25689 0.107422,-0.3418 0.06892,-0.0845 0.145145,-0.12109 0.257813,-0.12109 z"
         id="path1605" />
    </g>
    <g
       aria-label="9 "
       id="use14658-5-8-7"
       style="font-weight:bold;font-size:4.23333px;-inkscape-font-specification:'sans-serif Bold';stroke-width:0.198437;stroke-linejoin:round"
       inkscape:label="text14208"
       inkscape:transform-center-x="4.8417816e-06"
       inkscape:transform-center-y="-57.217039">
      <path
         style="color:#000000;-inkscape-font-specification:'Nimbus Sans L Bold';fill:#000000;stroke-linejoin:miter;-inkscape-stroke:none"
         d="m 6.9277344,118.81641 c -0.3219553,0 -0.5970045,0.1094 -0.8027344,0.32422 -0.2028493,0.21495 -0.3046875,0.4984 -0.3046875,0.83203 0,0.32639 0.089104,0.60558 0.2714844,0.81836 0.1825581,0.21297 0.4334041,0.32421 0.7246093,0.32421 0.1597693,0 0.3020235,-0.0464 0.4238282,-0.125 -0.019167,0.10996 -0.021763,0.25678 -0.058594,0.32032 -0.068288,0.11779 -0.1502703,0.16406 -0.2871094,0.16406 -0.087384,0 -0.1454089,-0.0207 -0.1914062,-0.0566 -0.047193,-0.0393 -0.068214,-0.0797 -0.072266,-0.14453 A 0.09922842,0.09922842 0 0 0 6.53125,121.18164 H 5.9609375 a 0.09922842,0.09922842 0 0 0 -0.099609,0.0977 0.09922842,0.09922842 0 0 0 0.00391,0.004 h -0.00391 c 0.00609,0.25578 0.1106431,0.47879 0.3027344,0.64649 0.1920494,0.16766 0.4364225,0.25195 0.7148437,0.25195 0.415111,0 0.7439863,-0.17957 0.9414063,-0.51758 0.1785802,-0.30656 0.2617188,-0.72325 0.2617188,-1.25195 0,-0.45669 -0.06778,-0.80975 -0.2207032,-1.06055 -0.2072044,-0.34929 -0.5326157,-0.53515 -0.9335937,-0.53515 z m 0,0.19726 c 0.3431612,0 0.5830732,0.13831 0.7617187,0.43946 a 0.09922842,0.09922842 0 0 0 0.00195,0.002 c 0.1226842,0.2012 0.1914063,0.52076 0.1914063,0.95703 0,0.50759 -0.082227,0.89116 -0.234375,1.15234 -0.1663814,0.28487 -0.4074301,0.41797 -0.7695313,0.41797 -0.23972,0 -0.4287688,-0.0676 -0.5839843,-0.20312 -0.1238415,-0.10812 -0.1607361,-0.2496 -0.1875,-0.40039 h 0.3710937 c 0.023277,0.0698 0.040146,0.14348 0.097656,0.1914 a 0.09922842,0.09922842 0 0 0 0.00195,0.002 c 0.086128,0.0681 0.1951494,0.0996 0.3164062,0.0996 0.1938896,0 0.3619083,-0.0943 0.4589844,-0.26172 0.097076,-0.16746 0.1367188,-0.39852 0.1367188,-0.69336 a 0.09922842,0.09922842 0 0 0 -0.1738282,-0.0645 c -0.086489,0.0973 -0.1517283,0.15868 -0.1679687,0.16993 -0.08954,0.062 -0.1966829,0.0937 -0.3320313,0.0937 -0.2434726,0 -0.4260482,-0.0811 -0.5742187,-0.25391 -0.1483483,-0.17307 -0.2226563,-0.39849 -0.2226563,-0.68945 0,-0.29476 0.083536,-0.51891 0.25,-0.69532 0.1688835,-0.17565 0.3800463,-0.26367 0.6582032,-0.26367 z m -0.015625,0.28125 c -0.1562757,0 -0.2969697,0.072 -0.3925782,0.19727 a 0.09922842,0.09922842 0 0 0 -0.00195,0 c -0.093522,0.12358 -0.1347656,0.28432 -0.1347656,0.47265 0,0.18581 0.041505,0.34551 0.1347656,0.46875 a 0.09922842,0.09922842 0 0 0 0.00195,0.004 c 0.097053,0.12047 0.2410461,0.18555 0.4003907,0.18555 0.1616147,0 0.3062125,-0.0655 0.40625,-0.18555 0.1023918,-0.12222 0.1523437,-0.28044 0.1523437,-0.46289 0,-0.19171 -0.048481,-0.35867 -0.1503906,-0.48438 -0.099958,-0.12661 -0.2485307,-0.19531 -0.4160156,-0.19531 z m 0,0.19922 c 0.1191465,0 0.1943591,0.0363 0.2597656,0.11914 a 0.09922842,0.09922842 0 0 0 0.00195,0.002 c 0.06819,0.0836 0.1054688,0.19901 0.1054688,0.35938 0,0.14827 -0.036984,0.25419 -0.1054688,0.33594 -0.065327,0.0784 -0.1399138,0.11328 -0.2539062,0.11328 -0.1096907,0 -0.181772,-0.033 -0.2441407,-0.10938 v -0.002 c -0.060488,-0.0806 -0.095703,-0.19253 -0.095703,-0.34766 0,-0.15893 0.034885,-0.27315 0.095703,-0.35351 0.064244,-0.0842 0.1335332,-0.11719 0.2363282,-0.11719 z"
         id="path1598" />
    </g>
    <path
       d="m 22.065503,98.552702 c -12.09675,0 -21.93854427,9.841438 -21.93854427,21.938548 0,12.0971 9.84179427,21.93889 21.93854427,21.93889 12.097102,0 21.938896,-9.84179 21.938896,-21.93889 0,-12.09711 -9.841794,-21.938548 -21.938896,-21.938548 z m 0,44.097928 c -12.2184584,0 -22.15903038,-9.94057 -22.15903038,-22.15938 0,-12.21846 9.94057198,-22.159034 22.15903038,-22.159034 12.218458,0 22.159383,9.940574 22.159383,22.159034 0,12.21881 -9.940925,22.15938 -22.159383,22.15938"
       style="fill:#191a1b;fill-opacity:1;fill-rule:nonzero;stroke:none;stroke-width:0.0352778"
       id="path92-1" />
    <g
       id="g1038"
       transform="matrix(0.35277777,0,0,-0.35277777,121.91198,232.51601)">
      <g
         id="g1162"
         inkscape:transform-center-x="8.122641e-06"
         inkscape:transform-center-y="-74.340217"
         inkscape:tile-cx="-372.64606"
         inkscape:tile-cy="177.4838"
         inkscape:tile-w="2.7506836"
         inkscape:tile-h="14.345436"
         inkscape:tile-x0="-374.02141"
         inkscape:tile-y0="95.970865">
        <rect
           style="fill:#000000;fill-opacity:1;stroke:none;stroke-width:2.32256;stroke-linejoin:round;stroke-dasharray:none;stroke-opacity:1"
           id="rect15374-0-3-6-6"
           width="0.60000002"
           height="10.759077"
           x="-284.061"
           y="-378.68472"
           transform="scale(1,-1)" />
        <rect
           style="fill:#000000;fill-opacity:1;stroke:none;stroke-width:2.32256;stroke-linejoin:round;stroke-dasharray:none;stroke-opacity:1"
           id="rect15374-0-3-6-1-3"
           width="0.60000002"
           height="10.759077"
           x="-282.59799"
           y="-378.68472"
           transform="scale(1,-1)" />
      </g>
      <use
         x="0"
         y="0"
         inkscape:tiled-clone-of="#g1162"
         xlink:href="#g1162"
         id="use1166"
         inkscape:transform-center-x="8.122641e-06"
         inkscape:transform-center-y="-74.340217" />
      <use
         x="0"
         y="0"
         inkscape:tiled-clone-of="#g1162"
         xlink:href="#g1162"
         transform="rotate(-30,-283.02949,317.55002)"
         id="use1168"
         inkscape:transform-center-x="-37.170102"
         inkscape:transform-center-y="-64.380522" />
      <use
         x="0"
         y="0"
         inkscape:tiled-clone-of="#g1162"
         xlink:href="#g1162"
         transform="rotate(-60,-283.02949,317.55002)"
         id="use1170"
         inkscape:transform-center-x="-64.380514"
         inkscape:transform-center-y="-37.170118" />
      <use
         x="0"
         y="0"
         inkscape:tiled-clone-of="#g1162"
         xlink:href="#g1162"
         transform="rotate(-90,-283.02949,317.55002)"
         id="use1172"
         inkscape:transform-center-x="-74.34022"
         inkscape:transform-center-y="-1.0744873e-05" />
      <use
         x="0"
         y="0"
         inkscape:tiled-clone-of="#g1162"
         xlink:href="#g1162"
         transform="rotate(-120,-283.02949,317.55002)"
         id="use1174"
         inkscape:transform-center-x="-64.380525"
         inkscape:transform-center-y="37.170099" />
      <use
         x="0"
         y="0"
         inkscape:tiled-clone-of="#g1162"
         xlink:href="#g1162"
         transform="rotate(-150,-283.02949,317.55002)"
         id="use1176"
         inkscape:transform-center-x="-37.170121"
         inkscape:transform-center-y="64.380511" />
      <use
         x="0"
         y="0"
         inkscape:tiled-clone-of="#g1162"
         xlink:href="#g1162"
         transform="rotate(180,-283.02949,317.55002)"
         id="use1178"
         inkscape:transform-center-x="-1.3954944e-05"
         inkscape:transform-center-y="74.340218" />
      <use
         x="0"
         y="0"
         inkscape:tiled-clone-of="#g1162"
         xlink:href="#g1162"
         transform="rotate(150,-283.02949,317.55002)"
         id="use1180"
         inkscape:transform-center-x="37.170096"
         inkscape:transform-center-y="64.380523" />
      <use
         x="0"
         y="0"
         inkscape:tiled-clone-of="#g1162"
         xlink:href="#g1162"
         transform="rotate(120,-283.02949,317.55002)"
         id="use1182"
         inkscape:transform-center-x="64.380508"
         inkscape:transform-center-y="37.170119" />
      <use
         x="0"
         y="0"
         inkscape:tiled-clone-of="#g1162"
         xlink:href="#g1162"
         transform="rotate(90,-283.02949,317.55002)"
         id="use1184"
         inkscape:transform-center-x="74.340214"
         inkscape:transform-center-y="1.1332712e-05" />
      <use
         x="0"
         y="0"
         inkscape:tiled-clone-of="#g1162"
         xlink:href="#g1162"
         transform="rotate(60,-283.02949,317.55002)"
         id="use1186"
         inkscape:transform-center-x="64.380519"
         inkscape:transform-center-y="-37.170099" />
      <use
         x="0"
         y="0"
         inkscape:tiled-clone-of="#g1162"
         xlink:href="#g1162"
         transform="rotate(30,-283.02949,317.55002)"
         id="use1188"
         inkscape:transform-center-x="37.170115"
         inkscape:transform-center-y="-64.380511" />
    </g>
    <use
       x="0"
       y="0"
       inkscape:tiled-clone-of="#rect11965-3-6"
       xlink:href="#rect11965-3-6"
       id="use1539"
       inkscape:transform-center-x="-8.1341294e-06"
       inkscape:transform-center-y="-33.742496" />
    <use
       x="0"
       y="0"
       inkscape:tiled-clone-of="#rect11965-3-6"
       xlink:href="#rect11965-3-6"
       transform="rotate(30.000001,22.065467,120.49141)"
       id="use1541"
       inkscape:transform-center-x="-16.871254"
       inkscape:transform-center-y="-29.221856" />
    <use
       x="0"
       y="0"
       inkscape:tiled-clone-of="#rect11965-3-6"
       xlink:href="#rect11965-3-6"
       transform="rotate(59.999999,22.065467,120.49142)"
       id="use1543"
       inkscape:transform-center-x="-29.221862"
       inkscape:transform-center-y="-16.871244" />
    <use
       x="0"
       y="0"
       inkscape:tiled-clone-of="#rect11965-3-6"
       xlink:href="#rect11965-3-6"
       transform="rotate(90,22.065468,120.49142)"
       id="use1545"
       inkscape:transform-center-x="-33.742496"
       inkscape:transform-center-y="2.9900404e-06" />
    <use
       x="0"
       y="0"
       inkscape:tiled-clone-of="#rect11965-3-6"
       xlink:href="#rect11965-3-6"
       transform="rotate(120,22.065469,120.49142)"
       id="use1547"
       inkscape:transform-center-x="-29.221856"
       inkscape:transform-center-y="16.871249" />
    <use
       x="0"
       y="0"
       inkscape:tiled-clone-of="#rect11965-3-6"
       xlink:href="#rect11965-3-6"
       transform="rotate(150,22.065467,120.49142)"
       id="use1549"
       inkscape:transform-center-x="-16.871245"
       inkscape:transform-center-y="29.221857" />
    <use
       x="0"
       y="0"
       inkscape:tiled-clone-of="#rect11965-3-6"
       xlink:href="#rect11965-3-6"
       transform="rotate(180,22.065467,120.49142)"
       id="use1551"
       inkscape:transform-center-x="2.8351594e-06"
       inkscape:transform-center-y="33.742491" />
    <use
       x="0"
       y="0"
       inkscape:tiled-clone-of="#rect11965-3-6"
       xlink:href="#rect11965-3-6"
       transform="rotate(-150,22.065468,120.49142)"
       id="use1553"
       inkscape:transform-center-x="16.871249"
       inkscape:transform-center-y="29.221851" />
    <use
       x="0"
       y="0"
       inkscape:tiled-clone-of="#rect11965-3-6"
       xlink:href="#rect11965-3-6"
       transform="rotate(-120,22.065466,120.49142)"
       id="use1555"
       inkscape:transform-center-x="29.221857"
       inkscape:transform-center-y="16.87124" />
    <use
       x="0"
       y="0"
       inkscape:tiled-clone-of="#rect11965-3-6"
       xlink:href="#rect11965-3-6"
       transform="rotate(-90,22.065466,120.49142)"
       id="use1557"
       inkscape:transform-center-x="33.742491"
       inkscape:transform-center-y="-7.9792485e-06" />
    <use
       x="0"
       y="0"
       inkscape:tiled-clone-of="#rect11965-3-6"
       xlink:href="#rect11965-3-6"
       transform="rotate(-59.999999,22.065468,120.49142)"
       id="use1559"
       inkscape:transform-center-x="29.221851"
       inkscape:transform-center-y="-16.871254" />
    <use
       x="0"
       y="0"
       inkscape:tiled-clone-of="#rect11965-3-6"
       xlink:href="#rect11965-3-6"
       transform="rotate(-30.000001,22.065469,120.49142)"
       id="use1561"
       inkscape:transform-center-x="16.871239"
       inkscape:transform-center-y="-29.221862" />
    <path
       style="fill:#000080;stroke-width:1.8855"
       d="M 73.185552,165.7937 C 39.355513,161.19777 11.895319,136.74023 3.544891,103.76792 -1.0270379,85.715312 0.68245107,66.925543 8.4704322,49.629075 18.541502,27.262046 39.415143,9.6852229 62.968294,3.738691 74.207887,0.90099844 84.213318,0.2999009 94.929086,1.8185785 132.07939,7.0836547 160.92775,36.248988 165.80062,73.468827 c 0.69012,5.271258 0.70698,15.160086 0.0345,20.258496 -2.48994,18.878497 -10.46186,35.152587 -23.70855,48.399277 -13.24669,13.24669 -29.52078,21.21861 -48.399277,23.70855 -4.824038,0.63626 -15.714989,0.61428 -20.541771,-0.0414 z m 10.076272,-7.75533 c 0,-6.20683 -0.07617,-7.24785 -0.53033,-7.24785 -0.454157,0 -0.53033,1.04102 -0.53033,7.24785 0,6.20682 0.07617,7.24784 0.53033,7.24784 0.454157,0 0.53033,-1.04102 0.53033,-7.24784 z m 2.121321,0 c 0,-6.20683 -0.07617,-7.24785 -0.530331,-7.24785 -0.454157,0 -0.53033,1.04102 -0.53033,7.24785 0,6.20682 0.07617,7.24784 0.53033,7.24784 0.454157,0 0.530331,-1.04102 0.530331,-7.24784 z m -37.381134,-9.17892 c 3.103584,-5.36961 3.73194,-6.90776 2.821915,-6.90776 -0.29072,0 -7.513635,12.3652 -7.513635,12.86289 0,0.14874 0.276832,0.21712 0.615183,0.15196 0.36923,-0.0711 1.999051,-2.51275 4.076537,-6.10709 z m 75.994609,5.69872 c 0.0578,-0.44443 -6.92537,-12.58129 -7.24671,-12.59484 -0.15194,-0.006 -0.36305,0.21452 -0.46912,0.49095 -0.26173,0.68207 6.62706,12.60689 7.21641,12.49194 0.25334,-0.0494 0.47808,-0.22403 0.49942,-0.38805 z m -77.71006,-6.62801 c 1.86323,-3.22606 3.387692,-6.05006 3.387692,-6.27557 0,-1.44757 -1.432842,0.38199 -4.569886,5.83518 -2.662759,4.62872 -3.475045,6.31787 -3.138264,6.52601 0.249916,0.15446 0.56203,0.16813 0.69358,0.0304 0.131553,-0.13775 1.763648,-2.88995 3.626878,-6.11601 z m 79.40167,5.62206 c 0,-0.20821 -1.55121,-3.06407 -3.44714,-6.34638 -2.34785,-4.06466 -3.61627,-5.93189 -3.97748,-5.85515 -0.29168,0.062 -0.50171,0.26231 -0.46673,0.44522 0.061,0.31887 5.62514,10.07803 6.6969,11.74592 0.5011,0.77982 1.19445,0.78586 1.19445,0.0104 z m -39.285745,-6.87377 c 1.002596,-0.70224 1.80955,-2.53093 1.807764,-4.09669 -0.0016,-1.4183 -1.136444,-3.37 -2.21062,-3.80186 -0.686845,-0.27614 -0.615403,-0.32193 0.532564,-0.34133 1.160376,-0.0196 1.325825,-0.12911 1.325825,-0.87738 0,-0.47024 -0.09883,-1.11252 -0.21962,-1.42729 -0.571059,-1.48816 -4.502502,-2.15134 -6.103933,-1.02966 -2.839306,1.98873 -2.89923,10.08879 -0.08594,11.61742 1.270943,0.69059 3.93955,0.66731 4.953962,-0.0432 z M 84.322484,117.5565 c 0,-11.078 -0.06875,-12.72792 -0.53033,-12.72792 -0.461585,0 -0.53033,1.64992 -0.53033,12.72792 0,11.07801 0.06874,12.72793 0.53033,12.72793 0.461585,0 0.53033,-1.64992 0.53033,-12.72793 z m -63.84942,4.5962 c 3.998631,-2.28783 5.834927,-3.52785 5.759146,-3.88909 -0.06119,-0.29168 -0.307984,-0.48812 -0.548433,-0.43653 -0.330521,0.0709 -11.724246,6.53056 -12.37254,7.01457 -0.292555,0.21843 0.408279,0.87598 0.828962,0.77777 0.254355,-0.0594 3.104145,-1.61941 6.332865,-3.46672 z m 133.721376,3.0052 c 0.0905,-0.3085 -11.49426,-7.17204 -12.41469,-7.35522 -0.19179,-0.0382 -0.39305,0.16925 -0.44725,0.46093 -0.0661,0.35551 1.85538,1.66259 5.82879,3.96508 5.62539,3.25979 6.79338,3.74624 7.03315,2.92921 z M 19.21459,120.60525 c 3.335463,-1.92059 6.064478,-3.71045 6.064478,-3.97747 0,-0.82264 -0.705838,-0.56301 -4.573938,1.68245 -2.054012,1.19237 -4.802206,2.78671 -6.107099,3.54298 -1.700987,0.98583 -2.314115,1.52727 -2.166148,1.91286 0.256012,0.66716 -0.380096,0.9636 6.782707,-3.16082 z m 48.137331,-7.1493 c 3.402952,-5.93405 6.233684,-10.91957 6.290514,-11.07893 0.05683,-0.15936 -0.133505,-0.38063 -0.422973,-0.49171 -0.391532,-0.15024 -2.122936,2.56073 -6.76126,10.58657 -5.533011,9.57394 -6.604579,11.84179 -5.569724,11.7877 0.151943,-0.008 3.060492,-4.86957 6.463443,-10.80363 z m 39.799679,10.35027 c 0.12833,-0.3344 -11.618521,-21.31992 -12.335202,-22.0366 -0.04651,-0.0465 -0.303402,0.0507 -0.570868,0.21598 -0.377404,0.23325 0.931238,2.76219 5.84387,11.29323 3.4816,6.04598 6.45449,10.99325 6.60643,10.99394 0.15195,6.9e-4 0.35704,-0.20926 0.45577,-0.46655 z m 47.87611,-0.34856 c -0.008,-0.59056 -11.95932,-7.41253 -12.57343,-7.17687 -0.27643,0.10607 -0.49624,0.31718 -0.48848,0.46912 0.0198,0.38719 12.47763,7.47628 12.8022,7.28505 0.14584,-0.0859 0.26271,-0.34571 0.25971,-0.5773 z M 54.799977,101.18138 c 6.406246,-3.695166 10.651383,-6.354181 10.720913,-6.715226 0.06331,-0.328752 -0.03071,-0.597728 -0.208936,-0.597728 -0.272049,0 -21.579761,12.191094 -21.94868,12.557824 -0.176405,0.17536 0.294454,0.87765 0.586602,0.87492 0.134364,-0.001 5.016908,-2.75516 10.850101,-6.11979 z m 69.353833,5.59174 c 0.0964,-0.29586 -19.8135,-12.082346 -21.50814,-12.732641 -0.31471,-0.120763 -0.63739,0.0039 -0.74658,0.28845 -0.13731,0.357828 2.85761,2.275438 10.4726,6.705461 5.86569,3.41238 10.89036,6.17912 11.16592,6.14831 0.27557,-0.0308 0.55286,-0.21512 0.6162,-0.40958 z M 28.506389,89.779114 c 1.562079,-0.807781 2.412292,-2.944647 2.421768,-6.086704 0.01339,-4.438453 -1.274949,-6.264217 -4.420288,-6.264217 -1.496088,0 -2.062754,0.172683 -2.781047,0.847485 -1.889862,1.775432 -2.041764,4.729155 -0.346801,6.743505 l 0.901244,1.071068 h -0.915312 c -0.746885,0 -0.915313,0.16692 -0.915313,0.907126 0,2.694176 3.296667,4.208516 6.055749,2.781737 z M 143.58568,89.453347 c 1.77591,-1.163626 2.33156,-4.296777 0.99844,-5.629903 -0.41998,-0.419983 -0.41176,-0.652126 0.0563,-1.590411 1.19174,-2.388893 -0.69092,-4.981616 -3.61731,-4.981616 -0.86978,0 -2.02841,0.231146 -2.57473,0.513656 -1.10896,0.573467 -1.91904,2.169913 -1.7406,3.430253 0.0958,0.676927 0.36066,0.849196 1.4432,0.938794 1.23603,0.102297 1.32582,0.187143 1.32582,1.25271 0,0.984424 0.1594,1.189909 1.14905,1.481258 0.89974,0.264886 1.14905,0.530054 1.14905,1.222163 0,1.293688 -1.46207,1.445765 -1.93522,0.201292 -0.29193,-0.767819 -0.56559,-0.908398 -1.76834,-0.908398 -1.37214,0 -1.42296,0.04139 -1.42296,1.158767 0,3.091913 4.06083,4.796161 6.93729,2.911435 z M 16.793786,84.852814 c 0,-0.454567 -1.06066,-0.53033 -7.4246211,-0.53033 -6.3639611,0 -7.4246212,0.07576 -7.4246212,0.53033 0,0.454568 1.0606601,0.530331 7.4246212,0.530331 6.3639611,0 7.4246211,-0.07576 7.4246211,-0.530331 z m 148.492424,0 c 0,-0.454157 -1.04102,-0.53033 -7.24784,-0.53033 -6.20683,0 -7.24785,0.07617 -7.24785,0.53033 0,0.454157 1.04102,0.530331 7.24785,0.530331 6.20682,0 7.24784,-0.07617 7.24784,-0.530331 z M 62.755727,83.792154 c 0,-0.461585 -1.649917,-0.53033 -12.727922,-0.53033 -11.078005,0 -12.727922,0.06874 -12.727922,0.53033 0,0.461585 1.649917,0.53033 12.727922,0.53033 11.078005,0 12.727922,-0.06875 12.727922,-0.53033 z m 67.528703,0 c 0,-0.461585 -1.64992,-0.53033 -12.72793,-0.53033 -11.078,0 -12.72792,0.06874 -12.72792,0.53033 0,0.461585 1.64992,0.53033 12.72792,0.53033 11.07801,0 12.72793,-0.06875 12.72793,-0.53033 z M 16.793786,82.731494 c 0,-0.454567 -1.06066,-0.53033 -7.4246211,-0.53033 -6.3639611,0 -7.4246212,0.07576 -7.4246212,0.53033 0,0.454567 1.0606601,0.53033 7.4246212,0.53033 6.3639611,0 7.4246211,-0.07576 7.4246211,-0.53033 z m 148.492424,0 c 0,-0.454157 -1.04102,-0.53033 -7.24784,-0.53033 -6.20683,0 -7.24785,0.07617 -7.24785,0.53033 0,0.454157 1.04102,0.53033 7.24785,0.53033 6.20682,0 7.24784,-0.07617 7.24784,-0.53033 z M 65.574778,72.899521 C 65.564158,72.422581 44.886647,60.45763 44.073029,60.45763 c -0.289868,0 -0.576324,0.159099 -0.636562,0.353554 -0.126569,0.408577 21.477753,12.923458 21.880235,12.674709 0.147099,-0.09091 0.263235,-0.354781 0.258076,-0.586372 z m 47.889572,-5.5476 c 5.9289,-3.402951 10.78654,-6.3115 10.79474,-6.463443 0.0554,-1.025489 -2.22845,0.05469 -11.7819,5.572418 -8.02098,4.632632 -10.74145,6.36878 -10.59158,6.759333 0.11091,0.289048 0.33605,0.47904 0.50029,0.422206 0.16425,-0.05683 5.14955,-2.887562 11.07845,-6.290514 z M 73.456922,65.098432 c 0.103309,-0.557557 -12.2833,-21.776934 -12.645738,-21.663294 -0.194455,0.06097 -0.353554,0.348023 -0.353554,0.637891 0,0.289871 2.704684,5.247298 6.010408,11.016505 5.355789,9.347018 6.743334,11.334147 6.988884,10.008898 z M 101.18124,54.799977 c 3.36456,-5.833193 6.06874,-10.75496 6.0093,-10.937259 -0.0594,-0.182303 -0.26643,-0.384245 -0.45999,-0.448769 -0.32195,-0.107318 -12.528529,20.620691 -12.805842,21.745623 -0.07574,0.307235 0.113452,0.443742 0.509336,0.367501 0.402903,-0.07759 2.833936,-3.94259 6.747196,-10.727096 z M 84.322484,50.027805 c 0,-11.078005 -0.06875,-12.727922 -0.53033,-12.727922 -0.461585,0 -0.53033,1.649917 -0.53033,12.727922 0,11.078005 0.06874,12.727922 0.53033,12.727922 0.461585,0 0.53033,-1.649917 0.53033,-12.727922 z m -59.105881,0.844947 c -0.150351,-0.748738 -12.395262,-7.842716 -12.580109,-7.288175 -0.07611,0.228329 -0.137649,0.518126 -0.136754,0.643991 0.0022,0.308405 11.770633,7.146778 12.36331,7.184039 0.257326,0.01617 0.416425,-0.226759 0.353553,-0.539855 z M 148.87792,47.991338 c 3.89651,-2.252146 6.01474,-3.682273 6.09855,-4.117451 0.10065,-0.522627 -0.0131,-0.612648 -0.52617,-0.416423 -0.559,0.213791 -12.09429,6.815018 -12.44563,7.122178 -0.19249,0.168288 0.3087,0.862377 0.62271,0.862377 0.15422,0 2.96696,-1.552807 6.25054,-3.450681 z M 26.339728,49.215453 c 0,-0.712997 -12.458249,-7.755717 -12.784812,-7.227328 -0.146971,0.237803 -0.137287,0.562305 0.02152,0.721111 0.558108,0.558109 11.884577,6.957057 12.32135,6.961014 0.243068,0.0022 0.441942,-0.202456 0.441942,-0.454797 z M 147.93016,46.28656 c 3.22606,-1.86323 5.97826,-3.495325 6.11601,-3.626878 0.13774,-0.13155 0.12438,-0.443158 -0.0297,-0.692459 -0.20717,-0.335218 -1.90688,0.484332 -6.52601,3.146671 -5.4636,3.149065 -7.26963,4.560358 -5.83587,4.560358 0.22551,0 3.04951,-1.524462 6.27557,-3.387692 z M 81.413825,26.78167 81.317281,20.506097 80.471535,20.386534 c -0.583809,-0.08253 -1.078621,0.17249 -1.597665,0.823436 -0.424081,0.53185 -1.288536,1.051873 -1.982682,1.192707 -1.063902,0.215853 -1.245781,0.403795 -1.341551,1.386272 -0.108336,1.111421 -0.07901,1.136565 1.325825,1.136565 h 1.436615 v 3.830162 c 0,2.106589 0.106066,3.936228 0.235703,4.065864 0.129634,0.129636 0.849253,0.235702 1.599147,0.235702 h 1.363447 z m 10.333281,4.684582 v -1.59099 h -1.990729 -1.990728 l 1.794846,-1.429075 c 1.936143,-1.541581 2.278566,-2.190381 2.249964,-4.26304 -0.03529,-2.556844 -1.536151,-3.853827 -4.459634,-3.853827 -2.267119,0 -3.733704,1.335252 -3.992965,3.635392 l -0.187995,1.667909 h 1.63697 c 1.487919,0 1.63697,-0.07654 1.63697,-0.840593 0,-0.999897 0.837143,-1.795705 1.586489,-1.508154 1.198642,0.459963 0.54012,1.79217 -2.116957,4.282646 -2.49427,2.33788 -2.651778,2.574772 -2.651651,3.98812 l 1.38e-4,1.502602 h 4.242641 4.242641 z m -42.072854,-5.55823 c 0,-0.45564 -6.654024,-12.215245 -7.050488,-12.460273 -0.127113,-0.07856 -0.419417,-0.02646 -0.649562,0.115773 -0.288457,0.178277 0.700014,2.202873 3.182005,6.51741 3.178703,5.52566 4.518045,7.253058 4.518045,5.82709 z M 122.2614,20.277061 c 3.08091,-5.375031 3.74793,-7.034137 2.81921,-7.012319 -0.39089,0.0092 -7.49485,12.482747 -7.29414,12.807496 0.48694,0.78788 1.3199,-0.29083 4.47493,-5.795177 z m -70.819381,4.641522 c 0,-0.317849 -6.498884,-11.799853 -7.041741,-12.441104 -0.116609,-0.137743 -0.43335,-0.113649 -0.703875,0.05354 -0.390567,0.241386 -0.05472,1.057436 1.630906,3.962753 1.167522,2.012323 2.789321,4.812236 3.604003,6.222031 0.814679,1.409794 1.712868,2.563262 1.995972,2.563262 0.283104,0 0.514735,-0.162218 0.514735,-0.360485 z m 69.260631,-5.885392 c 2.68744,-4.6627 3.4843,-6.318946 3.14371,-6.534142 -0.28181,-0.178064 -0.62077,-0.06824 -0.88663,0.287272 -0.89267,1.193657 -6.81744,11.697417 -6.81744,12.086325 0,1.430052 1.41399,-0.380545 4.56036,-5.839455 z M 83.261824,9.3691649 c 0,-6.3639611 -0.07576,-7.4246212 -0.53033,-7.4246212 -0.454567,0 -0.53033,1.0606601 -0.53033,7.4246212 0,6.3639611 0.07576,7.4246211 0.53033,7.4246211 0.454567,0 0.53033,-1.06066 0.53033,-7.4246211 z m 2.121321,0 c 0,-6.3639611 -0.07576,-7.4246212 -0.530331,-7.4246212 -0.454567,0 -0.53033,1.0606601 -0.53033,7.4246212 0,6.3639611 0.07576,7.4246211 0.53033,7.4246211 0.454568,0 0.530331,-1.06066 0.530331,-7.4246211 z"
       id="path1"
       transform="matrix(0.26458333,0,0,0.26458333,-0.09317171,98.332576)" />
    <path
       style="fill:#000080;stroke-width:1.08174"
       d="m 25.83963,83.085397 c -0.673937,-0.54586 -0.66536,-2.143275 0.01446,-2.693763 0.576292,-0.466653 0.646855,-0.463989 1.29908,0.04905 0.427113,0.335967 0.534454,0.592983 0.534454,1.279689 0,1.421747 -0.929917,2.108629 -1.847997,1.365022 z"
       id="path2"
       transform="matrix(0.26458333,0,0,0.26458333,-0.09317171,98.332576)" />
    <path
       style="fill:#000080;stroke-width:1.08174"
       d="m 25.699797,87.079108 c -0.133874,-0.133875 -0.243408,-0.362069 -0.243408,-0.5071 0,-0.18534 -0.341533,-0.263692 -1.149425,-0.263692 -1.983942,0 -1.022072,-0.227211 1.128906,-0.266668 1.798211,-0.03299 2.049232,0.0041 2.049085,0.30289 -3.89e-4,0.789423 -1.225987,1.29374 -1.785158,0.73457 z"
       id="path3"
       transform="matrix(0.26458333,0,0,0.26458333,-0.09317171,98.332576)" />
    <path
       style="fill:#000080;stroke-width:1.08174"
       d="m 83.06288,144.11765 c -0.495554,-0.49556 -0.542499,-1.7428 -0.08992,-2.38895 0.311532,-0.44477 0.993866,-0.58593 1.428721,-0.29557 0.809539,0.54054 0.826368,2.2208 0.02784,2.78011 -0.587571,0.41155 -0.879958,0.3911 -1.366648,-0.0956 z"
       id="path4"
       transform="matrix(0.26458333,0,0,0.26458333,-0.09317171,98.332576)" />
    <path
       style="fill:#000080;stroke-width:1.08174"
       d="m 82.728869,138.6376 c 0.276674,-1.38337 1.434151,-1.89021 2.076802,-0.90941 0.246473,0.37617 0.522641,0.5133 1.069585,0.5311 l 0.73732,0.024 -0.608519,0.15484 c -0.334686,0.0852 -1.02178,0.16565 -1.526875,0.17884 -0.505096,0.0132 -1.135694,0.17623 -1.401329,0.36229 l -0.482973,0.33829 z"
       id="path5"
       transform="matrix(0.26458333,0,0,0.26458333,-0.09317171,98.332576)" />
    <path
       style="fill:#000080;stroke-width:1.08174"
       d="m 139.47586,82.606491 c -0.0129,-0.195233 -0.13762,-0.357745 -0.27708,-0.361138 -0.14807,-0.0036 -0.11247,-0.08849 0.0856,-0.204048 0.18652,-0.108834 0.40243,-0.493989 0.47981,-0.855901 0.18277,-0.854784 0.4467,-1.16512 0.9909,-1.16512 0.59143,0 0.92851,0.371504 0.92851,1.023329 0,0.696753 -0.57986,1.207908 -1.37027,1.207908 -0.42789,0 -0.65798,0.113254 -0.72114,0.35497 -0.0884,0.338066 -0.0939,0.338066 -0.1163,0 z"
       id="path6"
       transform="matrix(0.26458333,0,0,0.26458333,-0.09317171,98.332576)" />
    <path
       style="fill:#ffaaaa;stroke-width:1.08174"
       d="M 78.194726,166.09063 C 67.303353,165.6083 54.345006,161.76699 43.813387,155.8988 33.789548,150.31354 24.516803,142.21394 17.690888,133.0812 2.7919282,113.14712 -2.3746221,87.889047 3.5841006,64.116367 6.3716045,52.995454 11.056191,43.186178 17.929874,34.077079 20.114856,31.181511 21.671077,29.406838 24.927217,26.097491 31.780667,19.132054 38.779396,14.025531 47.363083,9.7274815 55.694268,5.5558655 63.998765,3.0852497 74.419158,1.678207 78.817095,1.0843633 87.925485,1.0396 92.393509,1.5898718 107.12828,3.404573 120.18809,8.4191221 131.79211,16.717675 c 6.30492,4.508931 12.95017,10.979453 17.62788,17.16438 8.84995,11.701515 14.43088,25.347541 16.29786,39.850197 0.45552,3.538468 0.62384,12.065515 0.32232,16.3286 -0.71427,10.098668 -3.8216,21.330018 -8.46309,30.589508 -3.89228,7.76489 -9.88692,15.91109 -16.22945,22.05445 -9.27806,8.9867 -19.50341,15.28403 -31.24301,19.24114 -10.139009,3.41761 -19.848957,4.6788 -31.909894,4.14468 z m 4.943146,-1.1312 c 0.06727,-0.25101 0.123556,-3.42829 0.125079,-7.06062 0.0021,-5.10903 -0.05705,-6.68604 -0.261452,-6.96558 -0.251041,-0.34332 -0.278868,-0.3437 -0.557809,-0.008 -0.242781,0.29247 -0.293589,1.48038 -0.293589,6.86416 0,3.58076 0.0702,6.76149 0.155994,7.06828 0.188436,0.67382 0.662879,0.73167 0.831777,0.10142 z m 2.21726,-0.77742 c 0.203978,-1.37347 0.0815,-12.73597 -0.142491,-13.21852 -0.232876,-0.50171 -0.504531,-0.44059 -0.734903,0.16533 -0.266359,0.70058 -0.260728,13.08093 0.0063,13.78318 0.309529,0.81413 0.689035,0.49611 0.871126,-0.72999 z m -40.45625,-10.17592 c 2.131094,-2.85686 6.318157,-10.48411 6.318157,-11.5093 0,-1.07561 -0.53698,-0.68624 -1.745747,1.26589 -2.217473,3.58116 -6.165004,10.5921 -6.165004,10.94924 0,0.72425 0.785501,0.37612 1.592594,-0.70583 z m 79.102618,0.58978 c 0.0724,-0.37571 -2.20816,-4.60262 -5.05135,-9.3626 -2.13253,-3.57022 -2.10341,-3.53465 -2.54049,-3.10402 -0.33024,0.32537 -0.29684,0.45335 0.60876,2.33265 2.13374,4.42796 6.02117,10.67458 6.5765,10.56763 0.18453,-0.0355 0.36749,-0.23068 0.40658,-0.43366 z m -78.770358,-4.64008 c 3.568414,-6.06542 4.737651,-8.38355 4.396856,-8.71723 -0.415702,-0.40702 -1.455136,0.89111 -3.632101,4.53605 -3.923017,6.5684 -4.81167,8.6928 -3.531071,8.44133 0.161665,-0.0317 1.406507,-1.94882 2.766316,-4.26015 z m 80.423898,4.00463 c 0.20307,-0.24468 0.0195,-0.73117 -1.00714,-2.66908 -1.71085,-3.22947 -4.98384,-8.68925 -5.66792,-9.45487 -0.55996,-0.62671 -1.2315,-0.68277 -1.2315,-0.10281 0,0.49103 6.28118,11.50492 6.93287,12.15661 0.44758,0.44758 0.64844,0.46205 0.97369,0.0702 z m -39.36033,-7.0974 c 0.776199,-0.40139 1.582757,-1.77936 1.885043,-3.22051 0.314458,-1.49919 -0.141877,-3.03619 -1.246071,-4.19694 -0.833416,-0.87611 -0.847842,-0.84505 0.490253,-1.05542 0.350844,-0.0552 0.405093,-0.2185 0.401345,-1.20843 -0.0031,-0.82481 -0.109248,-1.26058 -0.379809,-1.55955 -1.048077,-1.15811 -4.433193,-1.54125 -5.854773,-0.66267 -1.620885,1.00177 -2.656501,4.59998 -2.202495,7.6525 0.252391,1.69696 0.866472,3.31616 1.462073,3.85517 0.961661,0.87029 4.087479,1.09756 5.444434,0.39585 z m -2.074692,-17.29913 c 0.209877,-0.98959 0.2091,-23.04137 -8.46e-4,-24.03651 -0.201653,-0.95582 -0.662916,-0.98744 -0.837395,-0.0574 -0.07256,0.38679 -0.131931,5.82083 -0.131931,12.07565 0,6.25482 0.05937,11.68886 0.131931,12.07565 0.174442,0.92986 0.635556,0.89829 0.838241,-0.0574 z M 17.55546,123.91697 c 4.004035,-2.22579 7.325771,-4.22652 8.103138,-4.88063 1.169674,-0.98421 0.583576,-1.59065 -0.841772,-0.87098 -1.794313,0.90597 -11.521489,6.50331 -11.642863,6.69969 -0.189413,0.30648 0.305501,0.79418 0.805928,0.79418 0.242756,0 1.851762,-0.78402 3.575569,-1.74226 z m 136.65713,1.32964 c 0.0389,-0.20197 -0.89437,-0.90149 -2.73601,-2.05074 -3.8377,-2.39485 -9.25545,-5.44739 -9.66823,-5.44739 -0.1872,0 -0.39915,0.15323 -0.47102,0.34051 -0.18553,0.48349 0.8256,1.29134 3.92711,3.13762 6.93601,4.12889 8.76862,4.9522 8.94815,4.02 z m -90.856107,-4.72043 c 3.477002,-5.82646 10.375769,-17.98279 10.375769,-18.28317 0,-0.30468 -0.549021,-0.57959 -0.82136,-0.41127 -0.352002,0.21755 -2.438667,3.55782 -5.549225,8.88304 -5.648775,9.6706 -7.263653,12.88135 -6.774965,13.47018 0.115373,0.13902 0.290247,0.20303 0.388608,0.14224 0.09836,-0.0608 1.169887,-1.77125 2.381173,-3.80102 z m 43.463897,2.34605 c -1.0983,-2.28912 -7.083613,-13.06345 -10.311412,-18.56189 -1.073422,-1.82853 -1.627741,-2.5862 -1.892084,-2.5862 -0.561894,0 -0.628831,0.27482 -0.296417,1.21698 0.503519,1.42713 7.372593,13.5548 10.896003,19.23739 1.29983,2.09638 1.45461,2.27182 1.74669,1.97974 0.29208,-0.29208 0.27943,-0.40604 -0.14278,-1.28602 z m -92.029951,0.3797 c 2.441862,-1.30867 8.048709,-4.65841 9.448922,-5.64513 1.296963,-0.91396 1.45316,-1.39554 0.437083,-1.34761 -0.454718,0.0215 -1.993598,0.78634 -4.665315,2.31885 -7.293549,4.18362 -8.079028,4.7447 -7.639016,5.45666 0.209899,0.33962 0.498144,0.24632 2.418326,-0.78277 z m 140.280561,0.38508 c 0,-0.26965 -0.47797,-0.72132 -1.47058,-1.38966 -2.02677,-1.36464 -6.8239,-4.10677 -9.16161,-5.23696 -1.60166,-0.77434 -1.99309,-0.89346 -2.24605,-0.68352 -0.16848,0.13983 -0.30634,0.33154 -0.30634,0.42601 0,0.50684 11.92391,7.27368 12.82961,7.28083 0.21886,0.002 0.35497,-0.15038 0.35497,-0.3967 z M 44.90643,106.90799 c 3.247132,-1.64544 17.981842,-10.286193 19.748742,-11.581083 0.590179,-0.432518 0.963489,-0.862522 0.963489,-1.109812 0,-0.774125 0.339329,-0.945495 -11.257606,5.685382 -10.846152,6.201593 -11.054767,6.327873 -11.054767,6.691763 0,0.28123 0.361783,0.80941 0.55441,0.80941 0.03718,0 0.507756,-0.22305 1.045732,-0.49566 z m 79.27653,-0.0413 c 0.11528,-0.35155 -8.84655,-5.86025 -17.73569,-10.901857 -3.61944,-2.052815 -3.91152,-2.179789 -4.39365,-1.909975 -0.34256,0.191706 -0.34207,0.219955 0.0107,0.612941 0.7164,0.798126 3.96667,2.822091 11.80484,7.350951 8.60987,4.97473 10.05024,5.65177 10.31383,4.84794 z M 28.054227,90.091191 c 1.960615,-0.710345 2.878836,-2.785396 2.878836,-6.505761 0,-4.749807 -1.287945,-6.355495 -4.949521,-6.170594 -1.4177,0.07159 -1.578972,0.127269 -2.269254,0.783448 -1.921753,1.826809 -2.085126,4.912728 -0.368116,6.953278 l 0.532248,0.632541 -0.681605,0.228443 c -0.621845,0.208413 -0.686866,0.307574 -0.741637,1.131052 -0.154772,2.327051 2.889037,3.929451 5.599049,2.947593 z M 143.09843,89.860609 c 1.47706,-0.763818 2.23626,-2.106331 2.23626,-3.954439 0,-0.904523 -0.11212,-1.329164 -0.50299,-1.905144 l -0.50298,-0.741184 0.42012,-1.06197 c 1.01117,-2.556016 -0.52191,-4.75187 -3.47318,-4.974691 -2.71782,-0.205197 -4.66308,1.291947 -4.66308,3.58888 0,0.950464 0.5272,1.43946 1.55194,1.43946 0.87535,0 1.28781,0.463006 1.28781,1.445609 0,0.777683 0.038,0.82389 1.00834,1.227158 1.02641,0.426554 1.34785,0.873647 1.12743,1.56813 -0.28095,0.885188 -1.29605,0.660913 -1.72795,-0.381769 -0.29332,-0.708144 -0.73342,-0.867834 -2.1454,-0.778456 l -1.00075,0.06334 0.001,1.254819 c 0.002,1.337529 0.31729,1.984728 1.34127,2.749233 1.32896,0.992215 3.61097,1.200885 5.04171,0.461019 z M 16.764855,85.141988 c 0.202578,-0.202698 0.202602,-0.304402 1.17e-4,-0.5071 -0.18922,-0.189419 -1.879677,-0.269377 -6.68357,-0.316129 -7.1072373,-0.06917 -8.2146086,0.0036 -8.1138797,0.533217 0.1015758,0.534065 1.1557793,0.608758 8.1137627,0.574874 4.838887,-0.02356 6.492879,-0.09406 6.68357,-0.284862 z m 148.478685,0 c 0.20266,-0.202769 0.20264,-0.304331 -1.3e-4,-0.5071 -0.36383,-0.363831 -14.09543,-0.367042 -14.4591,-0.0034 -0.69422,0.694221 0.75654,0.839501 7.9785,0.798976 4.67247,-0.02622 6.29059,-0.09825 6.48073,-0.288495 z M 62.322515,84.166304 C 62.981554,83.969138 62.88315,83.54012 62.14503,83.392495 61.7964,83.322769 56.331136,83.26572 50,83.26572 c -6.331136,0 -11.7964,0.05705 -12.14503,0.126775 -0.348631,0.06973 -0.633875,0.252282 -0.633875,0.405679 0,0.153398 0.02282,0.291944 0.05071,0.307881 0.560493,0.320261 23.993229,0.376618 25.05071,0.06025 z m 67.545635,3.05e-4 c 0.65899,-0.197593 0.56066,-0.626485 -0.17748,-0.774114 -0.34863,-0.06973 -5.8139,-0.126775 -12.14503,-0.126775 -6.33114,0 -11.7964,0.05705 -12.14503,0.126775 -0.34863,0.06973 -0.63388,0.252282 -0.63388,0.405679 0,0.153398 0.0228,0.291623 0.0507,0.307169 0.57807,0.322197 23.98953,0.379452 25.05071,0.06127 z M 16.644482,82.978045 c 0.216381,-0.158221 0.319473,-0.361623 0.229093,-0.452002 -0.284264,-0.284264 -3.130339,-0.448931 -7.5429462,-0.436418 -5.5777738,0.01582 -7.277745,0.154627 -7.3626046,0.601182 -0.036484,0.19199 0.094056,0.378881 0.3023438,0.43286 0.2016018,0.05225 3.4297318,0.105582 7.1736219,0.118524 5.5837301,0.0193 6.8777771,-0.02817 7.2004921,-0.264146 z m 148.314948,0.159827 c 0.63025,-0.168898 0.5724,-0.643341 -0.10142,-0.831777 -0.30679,-0.0858 -3.48751,-0.155994 -7.06827,-0.155994 -5.38375,0 -6.57167,0.05081 -6.86416,0.293589 -0.33605,0.278945 -0.33567,0.306762 0.008,0.557809 0.27954,0.204402 1.85655,0.263594 6.96558,0.261452 3.63233,-0.0015 6.80961,-0.05781 7.06062,-0.125079 z m -54.16259,-14.14127 c 9.45803,-5.415884 13.50721,-7.853586 13.52885,-8.144675 0.008,-0.111562 -0.26402,-0.230134 -0.60515,-0.263493 -0.98874,-0.09669 -6.50424,2.860909 -16.62115,8.912811 -4.67517,2.796676 -5.45798,3.373735 -5.26363,3.880195 0.074,0.192947 0.2598,0.350812 0.41281,0.350812 0.153,0 3.99972,-2.131043 8.54827,-4.73565 z m -45.178179,4.122572 c 0,-0.510947 -1.624746,-1.574523 -8.802535,-5.762227 -6.270114,-3.658142 -11.891434,-6.754596 -12.539045,-6.90702 -0.25503,-0.06002 -0.60061,-0.02025 -0.767953,0.08838 -0.270453,0.175576 -0.270453,0.230593 0,0.495146 0.691152,0.676077 12.720308,7.764303 18.762677,11.055978 2.807025,1.529173 3.346856,1.695264 3.346856,1.029738 z m 7.874534,-7.971736 C 73.634959,64.416493 61.518053,43.588907 60.81843,43.360959 c -0.576562,-0.187854 -0.46488,0.784189 0.254347,2.213733 0.850444,1.690353 4.710608,8.60699 6.828134,12.234639 4.053393,6.944097 5.341008,8.633685 5.592284,7.338107 z m 21.833712,-0.492266 c 1.494708,-2.039555 9.589723,-15.931726 11.275553,-19.350405 0.62043,-1.258169 0.69367,-1.998479 0.19771,-1.998479 -0.25567,0 -1.33562,1.66702 -4.53351,6.997972 -3.93451,6.558904 -8.453273,14.548432 -8.453273,14.946048 0,0.71069 0.781834,0.403262 1.51352,-0.595136 z M 84.220018,62.018256 c 0.209877,-0.989591 0.2091,-23.041378 -8.46e-4,-24.036512 -0.201653,-0.955825 -0.662916,-0.987442 -0.837395,-0.05739 C 83.309215,38.31114 83.249846,43.745183 83.249846,50 c 0,6.254817 0.05937,11.68886 0.131931,12.075651 0.174442,0.92986 0.635556,0.898288 0.838241,-0.05739 z M 148.07302,48.576694 c 3.72757,-2.152189 5.88766,-3.509473 6.54158,-4.110378 0.53453,-0.491182 0.6051,-1.160028 0.12241,-1.160028 -0.63394,0 -12.8506,7.060343 -12.8506,7.426718 0,0.138718 0.14212,0.394339 0.31583,0.568045 0.28588,0.285876 0.42533,0.260523 1.47059,-0.267355 0.63512,-0.320749 2.6152,-1.4264 4.40019,-2.457002 z M 25.25355,51.031475 c 0,-0.494019 -1.11214,-1.303512 -4.969574,-3.617197 -3.276259,-1.965097 -7.002899,-3.90515 -7.501386,-3.90515 -0.18473,0 -0.307945,0.183831 -0.307945,0.45944 0,0.355976 0.376844,0.694241 1.673428,1.502109 1.490813,0.928891 6.008557,3.565157 9.077079,5.296806 1.314319,0.741706 2.028398,0.834641 2.028398,0.263992 z m 1.156132,-1.571008 c 0.08673,-0.226005 -0.0654,-0.494518 -0.462755,-0.816765 C 24.248982,47.26668 14.573221,41.88641 13.794764,41.88641 c -0.560575,0 -0.611964,0.630188 -0.08403,1.030495 1.317516,0.999008 11.837586,6.880255 12.307045,6.880255 0.144487,0 0.320844,-0.151511 0.391905,-0.336693 z M 144.05213,48.578341 c 1.26538,-0.670351 4.0569,-2.25515 6.20338,-3.521773 2.87672,-1.697529 3.90271,-2.403613 3.90271,-2.685846 0,-1.031675 -2.03745,-0.148785 -8.3978,3.639029 -3.34126,1.989837 -4.85105,3.152393 -4.60693,3.547393 0.23806,0.385185 0.47489,0.305211 2.89864,-0.978803 z M 81.516915,26.825558 c -0.0731,-3.486309 -0.155098,-6.365967 -0.182229,-6.399242 -0.02713,-0.03327 -0.424392,-0.07546 -0.8828,-0.09374 -0.710387,-0.02833 -0.947462,0.07807 -1.605367,0.720498 -0.424541,0.414555 -1.315359,0.964078 -1.979592,1.221161 -1.139895,0.441185 -1.217811,0.514948 -1.38784,1.313862 -0.254083,1.193856 0.02585,1.462609 1.523436,1.462609 h 1.192203 v 3.014286 c 0,3.676144 0.137554,4.845406 0.584035,4.964531 0.180809,0.04824 0.900762,0.0983 1.599898,0.111244 l 1.271154,0.02353 z m 10.268075,4.622501 v -1.71624 l -1.744205,-0.05861 -1.744205,-0.05861 1.33027,-1.078318 c 1.880667,-1.524473 2.233499,-2.169475 2.230253,-4.077075 -0.004,-2.37673 -0.900415,-3.623487 -2.915933,-4.055737 -3.401805,-0.729557 -5.370507,0.702836 -5.771411,4.199181 l -0.123063,1.073242 1.672979,-0.05904 1.672982,-0.05905 0.164734,-0.795474 c 0.09061,-0.437511 0.265362,-0.91672 0.388347,-1.064909 0.295029,-0.355489 1.076572,-0.344008 1.378883,0.02026 0.399616,0.481507 -0.257753,1.438324 -2.727501,3.969945 l -2.275647,2.332657 -0.144824,1.363412 c -0.07966,0.749878 -0.08681,1.457282 -0.01591,1.572008 0.08168,0.132156 1.685469,0.208596 4.376585,0.208596 H 91.78499 Z M 49.79716,26.134651 c 0,-0.515493 -4.524984,-8.785924 -6.565205,-11.999402 -0.672052,-1.058523 -1.260852,-1.098332 -1.21431,-0.0821 0.04519,0.986765 4.865286,9.564663 6.493195,11.555369 0.725951,0.887737 1.28632,1.116939 1.28632,0.526133 z m 68.99913,-0.221872 c 0.72118,-0.78085 1.47083,-1.948085 3.35451,-5.223124 2.92038,-5.077494 3.73581,-6.962426 3.20321,-7.404447 -0.20512,-0.170234 -0.38352,-0.066 -0.76544,0.447223 -1.28035,1.720555 -6.84009,11.608425 -6.84009,12.164942 0,0.317357 0.17923,0.573215 0.40154,0.573215 0.0721,0 0.36291,-0.251014 0.64627,-0.557809 z M 51.367935,25.224357 c 0.274927,-0.274927 0.01646,-0.81983 -2.632002,-5.548901 -3.500322,-6.250138 -4.253227,-7.427032 -4.709582,-7.36173 -1.018367,0.145723 -0.671962,1.010604 2.822235,7.046349 2.362674,4.081193 2.758162,4.702367 3.526258,5.538505 0.574807,0.62573 0.663909,0.65496 0.993091,0.325777 z M 116.95557,25 c 0.66259,-0.687369 2.37666,-3.359606 4.23015,-6.594825 2.72438,-4.755317 3.25471,-6.13337 2.36038,-6.13337 -0.43632,0 -1.06284,0.910766 -3.22029,4.681325 -3.80642,6.652462 -4.67816,8.503259 -4.00511,8.503259 0.10721,0 0.39291,-0.205375 0.63487,-0.456389 z M 83.055744,16.544775 C 83.283069,16.120012 83.355629,3.1960984 83.135304,2.3735448 83.058611,2.0872144 82.883586,1.9316159 82.681686,1.970269 c -0.258619,0.049511 -0.36412,0.451845 -0.494578,1.88609 -0.188203,2.0690737 -0.05702,12.184528 0.16503,12.725791 0.190105,0.46339 0.442789,0.449967 0.703606,-0.03737 z m 2.274049,-0.638364 c 0.0754,-0.492948 0.137093,-3.406411 0.137093,-6.4743623 0,-6.1436968 -0.09848,-7.3645558 -0.60188,-7.4613205 -0.227089,-0.043652 -0.367201,0.134561 -0.456389,0.5805041 -0.214793,1.0739752 -0.148434,13.2933677 0.07539,13.8820707 0.290992,0.765363 0.685736,0.519451 0.845786,-0.526892 z"
       id="path7"
       transform="matrix(0.26458333,0,0,0.26458333,-0.09317171,98.332576)" />
    <path
       style="fill:#ffaaaa;stroke-width:1.08174"
       d="m 83.178789,144.00174 c -0.362164,-0.36217 -0.422478,-1.5425 -0.108772,-2.12867 0.254066,-0.47472 1.059038,-0.51423 1.499673,-0.0736 0.675506,0.6755 0.168589,2.52101 -0.692464,2.52101 -0.208829,0 -0.523126,-0.14344 -0.698437,-0.31875 z"
       id="path8"
       transform="matrix(0.26458333,0,0,0.26458333,-0.09317171,98.332576)" />
    <path
       style="fill:#ffaaaa;stroke-width:1.08174"
       d="m 82.860041,138.64934 c 0,-0.40147 0.394694,-1.00241 0.801311,-1.22003 0.302872,-0.16209 0.510015,-0.10389 0.95884,0.26942 0.314878,0.2619 0.709342,0.52016 0.876587,0.57392 0.167244,0.0538 -0.212921,0.15851 -0.844811,0.23278 -0.631891,0.0743 -1.293575,0.19055 -1.47041,0.25841 -0.180826,0.0694 -0.321517,0.0193 -0.321517,-0.1145 z"
       id="path10"
       transform="matrix(0.26458333,0,0,0.26458333,-0.09317171,98.332576)" />
    <path
       style="fill:#ffaaaa;stroke-width:1.08174"
       d="m 139.36401,82.298428 c -0.061,-0.06105 0.002,-0.247368 0.1405,-0.414038 0.13833,-0.166671 0.34291,-0.58582 0.45463,-0.931442 0.1674,-0.51786 0.31018,-0.628404 0.81165,-0.628404 0.53144,0 0.61626,0.07926 0.66959,0.625796 0.0336,0.344188 -0.0577,0.715524 -0.20284,0.825191 -0.36439,0.275315 -1.7378,0.658629 -1.87353,0.522897 z"
       id="path11"
       transform="matrix(0.26458333,0,0,0.26458333,-0.09317171,98.332576)" />
    <path
       style="fill:#ffaaaa;stroke-width:1.08174"
       d="m 25.862069,82.860041 c -0.489691,-0.489692 -0.533423,-1.552912 -0.08992,-2.186105 0.669707,-0.95614 1.712636,-0.272472 1.712636,1.122679 0,1.333489 -0.817148,1.868996 -1.622718,1.063426 z"
       id="path12"
       transform="matrix(0.26458333,0,0,0.26458333,-0.09317171,98.332576)" />
    <path
       style="fill:#ffaaaa;stroke-width:0.712968"
       d="M 25.890316,87.114944 C 25.791754,87.052473 25.639921,86.857873 25.552908,86.682499 25.417855,86.410297 25.268006,86.35234 24.528903,86.286444 23.700134,86.212553 23.720284,86.207433 25,86.166742 c 2.465391,-0.07839 2.747727,0.0098 2.100987,0.656582 -0.403609,0.403609 -0.860389,0.513636 -1.210671,0.29162 z"
       id="path13"
       transform="matrix(0.26458333,0,0,0.26458333,-0.09317171,98.332576)" />
  </g>
</svg>
