<?xml version="1.0" encoding="UTF-8" standalone="no"?>
<!-- Created with Inkscape (http://www.inkscape.org/) -->

<svg
   xmlns:dc="http://purl.org/dc/elements/1.1/"
   xmlns:cc="http://creativecommons.org/ns#"
   xmlns:rdf="http://www.w3.org/1999/02/22-rdf-syntax-ns#"
   xmlns:svg="http://www.w3.org/2000/svg"
   xmlns="http://www.w3.org/2000/svg"
   version="1.1"
   width="48"
   height="48"
   id="svg7384">
  <title
     id="title9167">Gnome Symbolic Icon Theme</title>
  <defs
     id="defs10" />
  <metadata
     id="metadata90">
    <rdf:RDF>
      <cc:Work
         rdf:about="">
        <dc:format>image/svg+xml</dc:format>
        <dc:type
           rdf:resource="http://purl.org/dc/dcmitype/StillImage" />
        <dc:title>Gnome Symbolic Icon Theme</dc:title>
      </cc:Work>
    </rdf:RDF>
  </metadata>
  <g
     transform="matrix(3.1100387,0,0,3.0713224,-625.59375,-1376.3966)"
     id="layer10">
    <path
       d="m 208.99,449 c -3.8423,0 -6.9933,3.151 -6.9933,6.9933 0,3.8423 3.151,7.0156 6.9933,7.0156 3.8423,0 7.0156,-3.1733 7.0156,-7.0156 0,-3.8423 -3.1733,-6.9933 -7.0156,-6.9933 z m 0,4.0089 c 1.6805,0 3.0067,1.3039 3.0067,2.9844 0,1.6805 -1.3261,3.0067 -3.0067,3.0067 -1.6806,0 -2.9844,-1.3261 -2.9844,-3.0067 0,-1.6805 1.3039,-2.9844 2.9844,-2.9844 z"
       id="path39797"
       style="text-indent:0;text-transform:none;block-progression:tb;color:#bebebe;fill:#bebebe" />
    <path
       d="m 209.01,454.01 c -1.0986,0 -2.0132,0.89789 -2.0132,1.9965 0,1.09861 0.91452,1.9965 2.0132,1.9965 1.0986,0 1.9965,-0.89789 1.9965,-1.9965 0,-1.09861 -0.89789,-1.9965 -1.9965,-1.9965 z m 0,0.99827 c 0.55821,0 0.99827,0.44006 0.99827,0.99827 0,0.5582 -0.44006,0.99826 -0.99827,0.99826 -0.55821,0 -0.99827,-0.44006 -0.99827,-0.99826 0,-0.55821 0.44006,-0.99827 0.99827,-0.99827 z"
       id="path40342"
       style="text-indent:0;text-transform:none;block-progression:tb;color:#bebebe;fill:#bebebe" />
  </g>
</svg>
