<?xml version="1.0" encoding="UTF-8" standalone="no"?>
<!-- Created with Inkscape (http://www.inkscape.org/) -->

<svg
   xmlns:dc="http://purl.org/dc/elements/1.1/"
   xmlns:cc="http://creativecommons.org/ns#"
   xmlns:rdf="http://www.w3.org/1999/02/22-rdf-syntax-ns#"
   xmlns:svg="http://www.w3.org/2000/svg"
   xmlns="http://www.w3.org/2000/svg"
   version="1.1"
   width="48"
   height="48"
   id="svg7384">
  <title
     id="title9167">Gnome Symbolic Icon Theme</title>
  <defs
     id="defs11" />
  <metadata
     id="metadata90">
    <rdf:RDF>
      <cc:Work
         rdf:about="">
        <dc:format>image/svg+xml</dc:format>
        <dc:type
           rdf:resource="http://purl.org/dc/dcmitype/StillImage" />
        <dc:title>Gnome Symbolic Icon Theme</dc:title>
      </cc:Work>
    </rdf:RDF>
  </metadata>
  <g
     transform="matrix(2.9951574,0,0,2.7613359,-544.67312,-1235.1625)"
     id="layer10">
    <path
       d="m 185.19,448 c -1.2,0 -2.19,0.99 -2.19,2.19 v 11.625 c 0,1.1999 0.9859,2.1875 2.1875,2.1875 h 9.625 c 1.2016,0 2.1875,-0.98758 2.1875,-2.1875 V 450.19 c -0.01,-1.21 -1,-2.2 -2.2,-2.2 h -9.625 z m 0,2 h 9.625 c 0.1238,0 0.1875,0.0566 0.1875,0.1875 v 11.625 c 0,0.1309 -0.0637,0.1875 -0.1875,0.1875 h -9.625 c -0.14,-0.01 -0.2,-0.07 -0.2,-0.2 v -11.625 c 0,-0.12 0.06,-0.18 0.19,-0.18 z"
       id="rect42761"
       style="text-indent:0;text-transform:none;block-progression:tb;color:#bebebe;fill:#bebebe" />
    <path
       d="m 189.84,451 c -0.26556,0.0109 -0.54445,0.0586 -0.8125,0.125 -2.1444,0.53085 -3.4371,2.6993 -2.9062,4.8438 0.4498,1.817 2.0753,3.0225 3.8657,3.0253 0.16806,2.7e-4 0.33757,-0.0101 0.5077,-0.0315 l -0.3888,-2.9796 c -0.0347,0.01 -0.0704,0.017 -0.10961,0.017 -0.55254,0 -1,-0.44746 -1,-1 0,-0.55254 0.44746,-1 1,-1 0.55254,0 1,0.44746 1,1 0,0.11765 -0.0285,0.22486 -0.0726,0.32494 l 2.7006,1.3868 c 0.38616,-0.83016 0.46978,-1.7806 0.24701,-2.6805 -0.46449,-1.8764 -2.1723,-3.1072 -4.0312,-3.0312 z"
       id="path42765"
       style="color:#000000;fill:#bebebe" />
    <path
       d="m 190.66,456 1.34,4 c 0.73426,2.056 3,0.38433 1.4966,-1 z"
       id="path42767"
       style="color:#000000;fill:#bebebe" />
  </g>
</svg>
