<?xml version="1.0" encoding="UTF-8" standalone="no"?>
<!-- Created with Inkscape (http://www.inkscape.org/) -->

<svg
   xmlns:dc="http://purl.org/dc/elements/1.1/"
   xmlns:cc="http://creativecommons.org/ns#"
   xmlns:rdf="http://www.w3.org/1999/02/22-rdf-syntax-ns#"
   xmlns:svg="http://www.w3.org/2000/svg"
   xmlns="http://www.w3.org/2000/svg"
   version="1.1"
   width="48"
   height="48"
   id="svg7384">
  <title
     id="title9167">Gnome Symbolic Icon Theme</title>
  <defs
     id="defs11" />
  <metadata
     id="metadata90">
    <rdf:RDF>
      <cc:Work
         rdf:about="">
        <dc:format>image/svg+xml</dc:format>
        <dc:type
           rdf:resource="http://purl.org/dc/dcmitype/StillImage" />
        <dc:title>Gnome Symbolic Icon Theme</dc:title>
      </cc:Work>
    </rdf:RDF>
  </metadata>
  <path
     d="m 10.000079,1.9159832 c -3.594189,0 -6.5593948,2.7337225 -6.5593948,6.0473256 V 40.063839 c 0,3.313327 2.9529257,6.040422 6.5519068,6.040422 h 28.82839 c 3.598981,0 6.551907,-2.72704 6.551907,-6.040422 V 7.9633088 C 45.342936,4.6220924 42.37773,1.8883698 38.783542,1.8883698 H 9.9551515 z m 0,5.5226718 h 28.82839 c 0.3708,0 0.561592,0.1562916 0.561592,0.5177505 V 40.056935 c 0,0.361459 -0.190792,0.517751 -0.561592,0.517751 H 10.000079 C 9.5807569,40.547072 9.4010474,40.381392 9.4010474,40.022419 V 7.9218888 c 0,-0.3313603 0.1797095,-0.4970405 0.5690799,-0.4970405 z"
     id="rect42761"
     style="text-indent:0;text-transform:none;block-progression:tb;color:#bebebe;fill:#bebebe" />
  <g
     transform="matrix(0.43885449,0.38478414,-0.43378553,0.49654651,23.965134,1.8105295)"
     id="g5975">
    <rect
       width="9.4808102"
       height="6.8938642"
       x="33.24271"
       y="12.913162"
       id="rect6256-5-3-9"
       style="fill:#bebebe;fill-opacity:1;stroke:none" />
    <path
       d="m 24.076302,2.7993675 -7.209238,7.8802705 14.412511,0 -7.203273,-7.8802705 z"
       id="path6260-4-6-4"
       style="fill:#bebebe;fill-opacity:1;fill-rule:evenodd;stroke:none" />
    <path
       d="m 10.40472,24.652311 c 0,0 0.928417,0.04182 2.093555,-0.361712 -0.01686,0.410638 0.01063,1.200065 0.0035,2.018588 0.441934,0.128671 6.726756,1.838293 9.530944,2.522671 0.0059,1.368282 0.01136,2.108448 0.0012,3.201129 -2.513713,-0.649889 -9.771489,-2.507873 -10.616497,-2.689833 -1.246221,-0.308131 -3.1239467,-0.758133 -3.1297931,-2.577781 0.00678,-0.855582 0.020392,-2.090412 5.5e-6,-2.527575 1.115641,0.430242 2.1170306,0.414513 2.1170306,0.414513 z"
       id="rect48763-3-8-1-2-4-6"
       style="fill:#bebebe;fill-opacity:1;stroke:none" />
    <path
       d="m 22.030507,10.678609 4.236809,0 0,23.046853 c 0,0 -1.861374,-0.847218 -4.251121,-0.07601 6.13e-4,-3.060855 0.01429,-22.970845 0.01429,-22.970845 z"
       id="rect49638-1-11"
       style="fill:#bebebe;fill-opacity:1;stroke:none" />
    <path
       d="m 39.963687,19.783262 -4.168909,0 c -0.0093,0.756144 -0.01191,0.855957 -0.0048,1.67448 -0.441934,0.12867 -6.726756,1.838293 -9.530943,2.522671 -0.0059,1.368281 -0.01136,2.108448 -0.0012,3.201128 2.513711,-0.649888 9.771487,-2.507872 10.616495,-2.689832 1.246221,-0.308131 3.123947,-0.758135 3.129793,-2.57778 -0.0068,-0.855583 -0.04049,-2.130667 -0.04049,-2.130667 z"
       id="rect48763-3-8-1-2-2-3-8"
       style="fill:#bebebe;fill-opacity:1;stroke:none" />
    <path
       d="M 13.841701,18.02656 C 18.41434,22.186834 11.30175,27.318272 6.3729249,23.08998 2.0963811,18.971907 9.4952412,14.530015 13.841701,18.02656 z"
       id="rect6256-5-2-6-9"
       style="fill:#bebebe;fill-opacity:1;stroke:none" />
    <path
       d="m 29.117287,35.180987 c 6.03083,6.210159 -3.706578,13.995581 -10.207181,7.683875 -5.640309,-6.147159 4.474659,-12.903274 10.207181,-7.683875 z"
       id="rect6256-5-2-2-8-1"
       style="fill:#bebebe;fill-opacity:1;stroke:none" />
  </g>
</svg>
