<?xml version="1.0" encoding="UTF-8" standalone="no"?>
<!-- Created with Inkscape (http://www.inkscape.org/) -->

<svg
   width="44.317707mm"
   height="44.317703mm"
   viewBox="0 0 44.317707 44.317703"
   version="1.1"
   id="svg6511"
   inkscape:version="1.2.1 (9c6d41e410, 2022-07-14)"
   sodipodi:docname="clock-face-3-symbolic.svg"
   xmlns:inkscape="http://www.inkscape.org/namespaces/inkscape"
   xmlns:sodipodi="http://sodipodi.sourceforge.net/DTD/sodipodi-0.dtd"
   xmlns="http://www.w3.org/2000/svg"
   xmlns:svg="http://www.w3.org/2000/svg">
  <sodipodi:namedview
     id="namedview6513"
     pagecolor="#ffffff"
     bordercolor="#000000"
     borderopacity="0.25"
     inkscape:showpageshadow="2"
     inkscape:pageopacity="0.0"
     inkscape:pagecheckerboard="0"
     inkscape:deskcolor="#d1d1d1"
     inkscape:document-units="mm"
     showgrid="false"
     inkscape:zoom="4"
     inkscape:cx="83.875"
     inkscape:cy="130.25"
     inkscape:window-width="2560"
     inkscape:window-height="1363"
     inkscape:window-x="0"
     inkscape:window-y="40"
     inkscape:window-maximized="1"
     inkscape:current-layer="layer1"
     showguides="true" />
  <defs
     id="defs6508" />
  <g
     inkscape:label="Layer 1"
     inkscape:groupmode="layer"
     id="layer1"
     transform="translate(0.09317171,-98.332576)">
    <g
       id="circle44-1"
       class="b1"
       transform="translate(2.5232088e-4,2.1712354e-4)" />
    <g
       id="use50-2"
       style="fill:#000000;stroke:none"
       transform="matrix(0.02215885,0,0,0.02215885,22.065682,120.49143)">
      <g
         id="use1148">
        <g
           id="use1158">
          <path
             id="path1200"
             d="m -40,-1000 h 80 v 245 h -80 z" />
          <path
             id="path1202"
             d="m 89.610635,-996.08982 29.835655,3.13585 -8.36228,79.56175 -29.835652,-3.13585 z" />
          <path
             id="path1204"
             d="m 193.23948,-981.26628 29.34442,6.23735 -16.63293,78.25181 -29.34443,-6.23735 z" />
          <path
             id="path1206"
             d="m 294.75115,-955.69177 28.53169,9.27051 -24.72136,76.08452 -28.53169,-9.27051 z" />
          <path
             id="path1208"
             d="m 393.03346,-919.64651 27.40636,12.2021 -32.53893,73.08364 -27.40636,-12.2021 z" />
        </g>
        <g
           id="use1160"
           transform="rotate(30)">
          <path
             id="path1212"
             d="m -40,-1000 h 80 v 245 h -80 z" />
          <path
             id="path1214"
             d="m 89.610635,-996.08982 29.835655,3.13585 -8.36228,79.56175 -29.835652,-3.13585 z" />
          <path
             id="path1216"
             d="m 193.23948,-981.26628 29.34442,6.23735 -16.63293,78.25181 -29.34443,-6.23735 z" />
          <path
             id="path1218"
             d="m 294.75115,-955.69177 28.53169,9.27051 -24.72136,76.08452 -28.53169,-9.27051 z" />
          <path
             id="path1220"
             d="m 393.03346,-919.64651 27.40636,12.2021 -32.53893,73.08364 -27.40636,-12.2021 z" />
        </g>
        <g
           id="use1162"
           transform="rotate(60)">
          <path
             id="path1224"
             d="m -40,-1000 h 80 v 245 h -80 z" />
          <path
             id="path1226"
             d="m 89.610635,-996.08982 29.835655,3.13585 -8.36228,79.56175 -29.835652,-3.13585 z" />
          <path
             id="path1228"
             d="m 193.23948,-981.26628 29.34442,6.23735 -16.63293,78.25181 -29.34443,-6.23735 z" />
          <path
             id="path1230"
             d="m 294.75115,-955.69177 28.53169,9.27051 -24.72136,76.08452 -28.53169,-9.27051 z" />
          <path
             id="path1232"
             d="m 393.03346,-919.64651 27.40636,12.2021 -32.53893,73.08364 -27.40636,-12.2021 z" />
        </g>
      </g>
      <g
         id="use1150"
         transform="rotate(90)">
        <g
           id="use1166">
          <path
             id="path1236"
             d="m -40,-1000 h 80 v 245 h -80 z" />
          <path
             id="path1238"
             d="m 89.610635,-996.08982 29.835655,3.13585 -8.36228,79.56175 -29.835652,-3.13585 z" />
          <path
             id="path1240"
             d="m 193.23948,-981.26628 29.34442,6.23735 -16.63293,78.25181 -29.34443,-6.23735 z" />
          <path
             id="path1242"
             d="m 294.75115,-955.69177 28.53169,9.27051 -24.72136,76.08452 -28.53169,-9.27051 z" />
          <path
             id="path1244"
             d="m 393.03346,-919.64651 27.40636,12.2021 -32.53893,73.08364 -27.40636,-12.2021 z" />
        </g>
        <g
           id="use1168"
           transform="rotate(30)">
          <path
             id="path1248"
             d="m -40,-1000 h 80 v 245 h -80 z" />
          <path
             id="path1250"
             d="m 89.610635,-996.08982 29.835655,3.13585 -8.36228,79.56175 -29.835652,-3.13585 z" />
          <path
             id="path1252"
             d="m 193.23948,-981.26628 29.34442,6.23735 -16.63293,78.25181 -29.34443,-6.23735 z" />
          <path
             id="path1254"
             d="m 294.75115,-955.69177 28.53169,9.27051 -24.72136,76.08452 -28.53169,-9.27051 z" />
          <path
             id="path1256"
             d="m 393.03346,-919.64651 27.40636,12.2021 -32.53893,73.08364 -27.40636,-12.2021 z" />
        </g>
        <g
           id="use1170"
           transform="rotate(60)">
          <path
             id="path1260"
             d="m -40,-1000 h 80 v 245 h -80 z" />
          <path
             id="path1262"
             d="m 89.610635,-996.08982 29.835655,3.13585 -8.36228,79.56175 -29.835652,-3.13585 z" />
          <path
             id="path1264"
             d="m 193.23948,-981.26628 29.34442,6.23735 -16.63293,78.25181 -29.34443,-6.23735 z" />
          <path
             id="path1266"
             d="m 294.75115,-955.69177 28.53169,9.27051 -24.72136,76.08452 -28.53169,-9.27051 z" />
          <path
             id="path1268"
             d="m 393.03346,-919.64651 27.40636,12.2021 -32.53893,73.08364 -27.40636,-12.2021 z" />
        </g>
      </g>
      <g
         id="use1152"
         transform="scale(-1)">
        <g
           id="use1174">
          <path
             id="path1272"
             d="m -40,-1000 h 80 v 245 h -80 z" />
          <path
             id="path1274"
             d="m 89.610635,-996.08982 29.835655,3.13585 -8.36228,79.56175 -29.835652,-3.13585 z" />
          <path
             id="path1276"
             d="m 193.23948,-981.26628 29.34442,6.23735 -16.63293,78.25181 -29.34443,-6.23735 z" />
          <path
             id="path1278"
             d="m 294.75115,-955.69177 28.53169,9.27051 -24.72136,76.08452 -28.53169,-9.27051 z" />
          <path
             id="path1280"
             d="m 393.03346,-919.64651 27.40636,12.2021 -32.53893,73.08364 -27.40636,-12.2021 z" />
        </g>
        <g
           id="use1176"
           transform="rotate(30)">
          <path
             id="path1284"
             d="m -40,-1000 h 80 v 245 h -80 z" />
          <path
             id="path1286"
             d="m 89.610635,-996.08982 29.835655,3.13585 -8.36228,79.56175 -29.835652,-3.13585 z" />
          <path
             id="path1288"
             d="m 193.23948,-981.26628 29.34442,6.23735 -16.63293,78.25181 -29.34443,-6.23735 z" />
          <path
             id="path1290"
             d="m 294.75115,-955.69177 28.53169,9.27051 -24.72136,76.08452 -28.53169,-9.27051 z" />
          <path
             id="path1292"
             d="m 393.03346,-919.64651 27.40636,12.2021 -32.53893,73.08364 -27.40636,-12.2021 z" />
        </g>
        <g
           id="use1178"
           transform="rotate(60)">
          <path
             id="path1296"
             d="m -40,-1000 h 80 v 245 h -80 z" />
          <path
             id="path1298"
             d="m 89.610635,-996.08982 29.835655,3.13585 -8.36228,79.56175 -29.835652,-3.13585 z" />
          <path
             id="path1300"
             d="m 193.23948,-981.26628 29.34442,6.23735 -16.63293,78.25181 -29.34443,-6.23735 z" />
          <path
             id="path1302"
             d="m 294.75115,-955.69177 28.53169,9.27051 -24.72136,76.08452 -28.53169,-9.27051 z" />
          <path
             id="path1304"
             d="m 393.03346,-919.64651 27.40636,12.2021 -32.53893,73.08364 -27.40636,-12.2021 z" />
        </g>
      </g>
      <g
         id="use1154"
         transform="rotate(-90)">
        <g
           id="use1182">
          <path
             id="path1308"
             d="m -40,-1000 h 80 v 245 h -80 z" />
          <path
             id="path1310"
             d="m 89.610635,-996.08982 29.835655,3.13585 -8.36228,79.56175 -29.835652,-3.13585 z" />
          <path
             id="path1312"
             d="m 193.23948,-981.26628 29.34442,6.23735 -16.63293,78.25181 -29.34443,-6.23735 z" />
          <path
             id="path1314"
             d="m 294.75115,-955.69177 28.53169,9.27051 -24.72136,76.08452 -28.53169,-9.27051 z" />
          <path
             id="path1316"
             d="m 393.03346,-919.64651 27.40636,12.2021 -32.53893,73.08364 -27.40636,-12.2021 z" />
        </g>
        <g
           id="use1184"
           transform="rotate(30)">
          <path
             id="path1320"
             d="m -40,-1000 h 80 v 245 h -80 z" />
          <path
             id="path1322"
             d="m 89.610635,-996.08982 29.835655,3.13585 -8.36228,79.56175 -29.835652,-3.13585 z" />
          <path
             id="path1324"
             d="m 193.23948,-981.26628 29.34442,6.23735 -16.63293,78.25181 -29.34443,-6.23735 z" />
          <path
             id="path1326"
             d="m 294.75115,-955.69177 28.53169,9.27051 -24.72136,76.08452 -28.53169,-9.27051 z" />
          <path
             id="path1328"
             d="m 393.03346,-919.64651 27.40636,12.2021 -32.53893,73.08364 -27.40636,-12.2021 z" />
        </g>
        <g
           id="use1186"
           transform="rotate(60)">
          <path
             id="path1332"
             d="m -40,-1000 h 80 v 245 h -80 z" />
          <path
             id="path1334"
             d="m 89.610635,-996.08982 29.835655,3.13585 -8.36228,79.56175 -29.835652,-3.13585 z" />
          <path
             id="path1336"
             d="m 193.23948,-981.26628 29.34442,6.23735 -16.63293,78.25181 -29.34443,-6.23735 z" />
          <path
             id="path1338"
             d="m 294.75115,-955.69177 28.53169,9.27051 -24.72136,76.08452 -28.53169,-9.27051 z" />
          <path
             id="path1340"
             d="m 393.03346,-919.64651 27.40636,12.2021 -32.53893,73.08364 -27.40636,-12.2021 z" />
        </g>
      </g>
    </g>
    <path
       class="c2"
       d="m 24.146398,131.32711 v 0.0842 h 0.110795 z m -0.148464,-0.10858 v 0.19278 h 0.07312 v -0.13738 z m -0.148464,-0.10858 v 0.30358 h 0.07312 v -0.24818 z m -0.146249,-0.11079 v 0.41215 h 0.07312 v -0.35675 z m -1.624244,-0.0665 v 0.47863 c 0.02659,0 0.04432,0 0.07313,-0.002 v -0.48085 c -0.02437,0.002 -0.04875,0.004 -0.07313,0.004 m 0.146249,-0.0155 v 0.48749 c 0.02881,-0.002 0.0421,-0.004 0.07312,-0.009 v -0.49193 c -0.02216,0.004 -0.04653,0.0111 -0.07312,0.0133 m 1.327315,-0.031 v 0.52295 h 0.07534 v -0.46755 z m -1.178851,-0.007 v 0.50078 c 0.02216,-0.004 0.04875,-0.0111 0.07312,-0.0177 v -0.51187 c -0.02881,0.0133 -0.04653,0.0199 -0.07312,0.0266 m 0.146249,-0.062 v 0.52295 c 0.02437,-0.009 0.04653,-0.0155 0.07312,-0.0266 v -0.54067 c -0.02881,0.0177 -0.04653,0.0288 -0.07312,0.0421 m 0.884138,-0.0421 v 0.58499 l 0.07312,0.0487 v -0.57835 z m -0.73789,-0.051 v 0.5584 c 0.02437,-0.0111 0.04875,-0.0244 0.07312,-0.0399 v -0.57835 c -0.02881,0.0266 -0.04875,0.0399 -0.07312,0.0598 m 0.589425,-0.0576 v 0.59607 l 0.07313,0.0488 v -0.58943 z m -0.146248,-0.10858 v 0.60715 l 0.07312,0.0488 v -0.6005 z m -0.221589,-0.0443 c -0.03102,0.0377 -0.0421,0.0465 -0.07312,0.082 v 0.6005 c 0.02659,-0.0222 0.04875,-0.0399 0.07312,-0.062 z m 0.07312,-0.0643 v 0.61823 l 0.07312,0.0488 v -0.6138 l -0.07312,-0.0554 z m -3.024684,0.87971 v 0.0842 h -0.110794 z m 0.148464,-0.10858 v 0.19278 h -0.07312 v -0.13739 l 0.07534,-0.0554 z m 0.146249,-0.10858 v 0.30358 h -0.07313 v -0.24818 z m 0.148464,-0.1108 v 0.41216 h -0.07312 v -0.35676 z m 1.624244,-0.0665 v 0.47863 c -0.02659,0 -0.04432,0 -0.07312,-0.002 v -0.48085 c 0.02437,0.002 0.04875,0.004 0.07312,0.004 m -0.146248,-0.0155 v 0.48749 c -0.02881,-0.002 -0.04432,-0.004 -0.07313,-0.009 v -0.49192 c 0.02216,0.004 0.04653,0.0111 0.07313,0.0133 m -1.327316,-0.031 v 0.52295 h -0.07534 v -0.46755 z m 1.178851,-0.007 v 0.50079 c -0.02216,-0.004 -0.04875,-0.0111 -0.07312,-0.0177 v -0.51187 c 0.02881,0.0133 0.04653,0.0199 0.07312,0.0266 m -0.146248,-0.062 v 0.52295 c -0.02437,-0.009 -0.04653,-0.0155 -0.07312,-0.0266 v -0.54067 c 0.03102,0.0177 0.04653,0.0288 0.07312,0.0421 m -0.884138,-0.0421 v 0.58499 l -0.07313,0.0488 v -0.57835 z m 0.737889,-0.051 v 0.5584 c -0.02437,-0.0111 -0.04875,-0.0244 -0.07312,-0.0399 v -0.57835 c 0.02881,0.0266 0.04653,0.0399 0.07312,0.0598 m -0.589425,-0.0576 v 0.59607 l -0.07312,0.0488 v -0.58943 z m 0.148464,-0.10858 v 0.60715 l -0.07312,0.0488 v -0.6005 z m 0.219373,-0.0443 c 0.03102,0.0377 0.0421,0.0465 0.07312,0.082 v 0.60051 c -0.02659,-0.0222 -0.04875,-0.0399 -0.07312,-0.062 z m -0.07312,-0.0643 v 0.61823 l -0.07312,0.0488 v -0.6138 l 0.07312,-0.0554 z m 0.855331,-2.09401 c 1.152261,0 1.872424,1.02374 1.482428,2.11839 l -0.414371,-0.27034 c 0.166192,-0.63153 -0.237099,-1.35391 -1.034818,-1.34726 -0.70022,0.0443 -1.127886,0.63374 -0.977206,1.33839 l -0.412154,0.26591 c -0.409939,-1.0326 0.299144,-2.03418 1.356121,-2.10066"
       id="path46"
       style="fill:#000000;stroke:none;stroke-width:0.0221589" />
    <path
       class="c2"
       d="m 22.054602,131.62847 h -0.126305 l -0.19943,0.51852 h 0.12409 l 0.03989,-0.0798 h 0.201646 l 0.03989,0.0776 h 0.119658 l -0.197214,-0.51852 z m -0.06204,0.14403 0.05983,0.20165 H 21.93495 Z m -0.806583,-0.14403 h -0.186134 v 0.51852 h 0.22602 c 0.05761,0 0.130738,-0.0554 0.144033,-0.12631 0.0022,-0.0753 -0.03102,-0.14182 -0.08642,-0.15068 0.03102,-0.0133 0.05318,-0.0643 0.04875,-0.13074 -0.0089,-0.0665 -0.08199,-0.11522 -0.146249,-0.11079 m 0.03545,0.12631 c 0.0133,0.0222 0.0044,0.0443 -0.0022,0.062 -0.02437,0.0266 -0.06648,0.0244 -0.09971,0.0244 v -0.11301 c 0.03102,0 0.08199,-0.004 0.101931,0.0266 m 0.02216,0.19499 c 0.0133,0.0199 0.01108,0.0598 0.0044,0.0731 -0.03102,0.0332 -0.07756,0.0332 -0.126305,0.0266 v -0.12188 c 0.05761,-0.004 0.08864,-0.002 0.121874,0.0222 m -1.573279,-0.32131 0.08642,0.5163 -0.108579,0.002 -0.05097,-0.30136 -0.135169,0.30136 -0.03324,-0.002 -0.132953,-0.28806 -0.0554,0.29028 -0.115226,-0.002 0.0842,-0.51852 h 0.11301 l 0.11301,0.29693 0.121874,-0.29471 h 0.108578 z m 0.691356,0.39664 c -0.08199,0 -0.15068,-0.0687 -0.15068,-0.15068 0,-0.082 0.06869,-0.15068 0.15068,-0.15068 0.08199,0 0.15068,0.0687 0.15068,0.15068 0,0.082 -0.06869,0.15068 -0.15068,0.15068 m 0,0.12188 c 0.152896,0 0.279202,-0.12188 0.279202,-0.27256 0,-0.15068 -0.126306,-0.27255 -0.279202,-0.27255 -0.152896,0 -0.279201,0.12187 -0.279201,0.27255 0,0.15068 0.126305,0.27256 0.279201,0.27256 m 2.311169,-0.49636 h 0.308008 l -0.01108,0.0576 h -0.126305 l -0.06869,0.43653 h -0.06205 l 0.06869,-0.43653 h -0.121874 l 0.01108,-0.0576 z m 0.669197,0 h 0.06205 l -0.07977,0.49414 h -0.06204 l 0.07756,-0.49414 z m 0.879707,-0.0354 0.02659,0.52959 h -0.07091 l -0.0044,-0.33681 -0.212725,0.34789 -0.0975,-0.34789 -0.113011,0.33681 h -0.07091 l 0.194998,-0.52959 0.108579,0.40107 z m 0.655902,0.0354 -0.01551,0.0576 H 24.65826 l -0.02216,0.1396 h 0.19943 l -0.01108,0.0554 h -0.197214 l -0.03102,0.18614 h 0.208293 l -0.01108,0.0576 H 24.52311 l 0.07756,-0.49414 h 0.276985 z"
       id="path48"
       style="fill:#000000;stroke:none;stroke-width:0.0221589" />
  </g>
</svg>
