<?xml version="1.0" encoding="UTF-8" standalone="no"?>
<svg
   width="16"
   height="16"
   version="1.1"
   id="svg6"
   xmlns="http://www.w3.org/2000/svg"
   xmlns:svg="http://www.w3.org/2000/svg">
  <defs
     id="defs10" />
  <path
     style="fill:#dfdfdf"
     d="M 8,3 C 8.4908,3 8.9533,3.0455 9.3906,3.1094 L 7.4375,5.0625 A 3,3 0 0 0 5.049,7.4512 L 1.885,10.615 C 0.54,9.3291 0,8 0,8 0,8 2,3 8,3 Z m 3.7285,0.7715 C 14.8506,5.162 16,8 16,8 16,8 14,13 8,13 6.1812,13 4.733,12.532 3.602,11.898 L 5.645,9.8555 A 3,3 0 0 0 8,11 3,3 0 0 0 11,8 3,3 0 0 0 9.8574,5.6426 Z"
     id="path2" />
  <path
     style="fill:#dfdfdf"
     d="M 13.5,1 1,13.5 2.5,15 15,2.5 Z"
     id="path4" />
</svg>
