<?xml version="1.0" encoding="UTF-8" standalone="no"?>
<!-- Created with Inkscape (http://www.inkscape.org/) -->

<svg
   xmlns:dc="http://purl.org/dc/elements/1.1/"
   xmlns:cc="http://creativecommons.org/ns#"
   xmlns:rdf="http://www.w3.org/1999/02/22-rdf-syntax-ns#"
   xmlns:svg="http://www.w3.org/2000/svg"
   xmlns="http://www.w3.org/2000/svg"
   xmlns:sodipodi="http://sodipodi.sourceforge.net/DTD/sodipodi-0.dtd"
   xmlns:inkscape="http://www.inkscape.org/namespaces/inkscape"
   id="svg7384"
   height="16"
   width="16"
   version="1.1"
   inkscape:version="0.48.4 r9939"
   sodipodi:docname="number-symbolic.svg">
  <defs
     id="defs10" />
  <sodipodi:namedview
     pagecolor="#ffffff"
     bordercolor="#666666"
     borderopacity="1"
     objecttolerance="10"
     gridtolerance="10"
     guidetolerance="10"
     inkscape:pageopacity="0"
     inkscape:pageshadow="2"
     inkscape:window-width="1026"
     inkscape:window-height="622"
     id="namedview8"
     showgrid="false"
     inkscape:zoom="14.75"
     inkscape:cx="-9.6271191"
     inkscape:cy="5.1256096"
     inkscape:window-x="39"
     inkscape:window-y="204"
     inkscape:window-maximized="0"
     inkscape:current-layer="svg7384" />
  <metadata
     id="metadata90">
    <rdf:RDF>
      <cc:Work
         rdf:about="">
        <dc:format>image/svg+xml</dc:format>
        <dc:type
           rdf:resource="http://purl.org/dc/dcmitype/StillImage" />
        <dc:title>Gnome Symbolic Icon Theme</dc:title>
      </cc:Work>
    </rdf:RDF>
  </metadata>
  <title
     id="title9167">Gnome Symbolic Icon Theme</title>
  <g
     style="font-size:13.66111565px;font-style:normal;font-variant:normal;font-weight:500;font-stretch:normal;line-height:125%;letter-spacing:0px;word-spacing:0px;fill:#bebebe;fill-opacity:1;stroke:none;font-family:Rekha;-inkscape-font-specification:Rekha Medium"
     id="text3001"
     transform="matrix(1.0863373,0,0,1.0863373,0.07064127,-1.4929444)">
    <path
       d="M 7.2991684,4.4827294 C 6.7299525,4.482738 6.2985961,4.8473898 6.0050979,5.5766859 5.7115956,6.3059971 5.5648455,7.3599298 5.5648471,8.7384871 c -1.6e-6,1.0494901 0.075597,1.8944149 0.2267959,2.5347769 0.2757105,1.147321 0.7782185,1.720981 1.5075254,1.720981 0.5692093,0 1.0005657,-0.351311 1.2940706,-1.053934 C 8.8867346,11.228797 9.0334847,10.161523 9.0334898,8.7384871 9.0334847,7.7423695 8.9578862,6.9196794 8.8066939,6.2704144 8.5309767,5.0786325 8.0284687,4.482738 7.2991684,4.4827294 m 0,-0.3468643 c 1.0850582,9e-6 1.8944073,0.5692216 2.4280499,1.7076395 0.3913277,0.8360382 0.5869947,1.8010315 0.5870007,2.8949825 -6e-6,1.1117477 -0.195673,2.0811879 -0.5870007,2.9083239 -0.5336426,1.129532 -1.3429917,1.694298 -2.4280499,1.694298 -1.0850648,0 -1.8944139,-0.564766 -2.4280498,-1.694298 C 4.479784,10.819675 4.2841172,9.8502348 4.2841175,8.7384871 4.2841172,7.65343 4.479784,6.6928838 4.8711186,5.8568455 5.4047545,4.7095337 6.2141036,4.1358741 7.2991684,4.1358651"
       id="path2985"
       inkscape:connector-curvature="0" />
  </g>
</svg>
