<?xml version="1.0" encoding="UTF-8" standalone="no"?>
<!-- Created with Inkscape (http://www.inkscape.org/) -->

<svg
   xmlns:dc="http://purl.org/dc/elements/1.1/"
   xmlns:cc="http://creativecommons.org/ns#"
   xmlns:rdf="http://www.w3.org/1999/02/22-rdf-syntax-ns#"
   xmlns:svg="http://www.w3.org/2000/svg"
   xmlns="http://www.w3.org/2000/svg"
   xmlns:sodipodi="http://sodipodi.sourceforge.net/DTD/sodipodi-0.dtd"
   xmlns:inkscape="http://www.inkscape.org/namespaces/inkscape"
   id="svg7384"
   height="16"
   width="16"
   version="1.1"
   inkscape:version="0.92.3 (2405546, 2018-03-11)"
   sodipodi:docname="3-symbolic.svg">
  <defs
     id="defs10" />
  <sodipodi:namedview
     pagecolor="#ffffff"
     bordercolor="#666666"
     borderopacity="1"
     objecttolerance="10"
     gridtolerance="10"
     guidetolerance="10"
     inkscape:pageopacity="0"
     inkscape:pageshadow="2"
     inkscape:window-width="1736"
     inkscape:window-height="982"
     id="namedview8"
     showgrid="false"
     inkscape:zoom="14.75"
     inkscape:cx="2.6440678"
     inkscape:cy="5.1256096"
     inkscape:window-x="824"
     inkscape:window-y="386"
     inkscape:window-maximized="0"
     inkscape:current-layer="svg7384" />
  <metadata
     id="metadata90">
    <rdf:RDF>
      <cc:Work
         rdf:about="">
        <dc:format>image/svg+xml</dc:format>
        <dc:type
           rdf:resource="http://purl.org/dc/dcmitype/StillImage" />
        <dc:title>Gnome Symbolic Icon Theme</dc:title>
      </cc:Work>
    </rdf:RDF>
  </metadata>
  <title
     id="title9167">Gnome Symbolic Icon Theme</title>
  <g
     aria-label="3"
     style="font-style:normal;font-variant:normal;font-weight:normal;font-stretch:normal;font-size:18.66666603px;line-height:1.25;font-family:'Noto Sans';-inkscape-font-specification:'Noto Sans, Normal';font-variant-ligatures:normal;font-variant-caps:normal;font-variant-numeric:normal;font-feature-settings:normal;text-align:start;letter-spacing:0px;word-spacing:0px;writing-mode:lr-tb;text-anchor:start;fill:#bebebe;fill-opacity:1;stroke:none;stroke-width:0.45808831"
     id="text816">
    <path
       d="m 11.976,4.4533332 q 0,1.344 -0.765333,2.1466666 -0.746667,0.784 -1.9973337,1.0453333 v 0.074667 Q 10.8,7.9066665 11.584,8.7279998 q 0.802667,0.8213333 0.802667,2.1466662 0,1.176 -0.541334,2.072 -0.541333,0.896 -1.68,1.4 -1.1199997,0.504 -2.8933329,0.504 -1.0453333,0 -1.9413333,-0.168 -0.896,-0.149333 -1.7173333,-0.56 V 12.592 q 0.84,0.429333 1.8106666,0.653333 0.9706667,0.224 1.8666666,0.224 1.792,0 2.5759999,-0.690667 0.8026664,-0.709333 0.8026664,-1.941333 0,-1.2506666 -0.989333,-1.7919999 -0.9706667,-0.56 -2.7439999,-0.56 h -1.288 v -1.4 h 1.3066666 q 1.6426667,0 2.4826666,-0.6906666 Q 10.296,5.7039999 10.296,4.5653332 10.296,3.5946666 9.6426666,3.072 8.9893333,2.5306666 7.8693334,2.5306666 q -1.0826667,0 -1.848,0.3173334 -0.7653333,0.3173333 -1.5119999,0.8026666 l -0.8213333,-1.12 Q 4.3973335,1.9706667 5.4426668,1.56 q 1.064,-0.4106666 2.4079999,-0.4106666 2.0906666,0 3.0986663,0.9333333 Q 11.976,3.016 11.976,4.4533332 Z"
       style=""
       id="path824" />
  </g>
</svg>
