<?xml version="1.0" encoding="UTF-8" standalone="no"?>
<!-- Created with Inkscape (http://www.inkscape.org/) -->

<svg
   xmlns:dc="http://purl.org/dc/elements/1.1/"
   xmlns:cc="http://creativecommons.org/ns#"
   xmlns:rdf="http://www.w3.org/1999/02/22-rdf-syntax-ns#"
   xmlns:svg="http://www.w3.org/2000/svg"
   xmlns="http://www.w3.org/2000/svg"
   xmlns:sodipodi="http://sodipodi.sourceforge.net/DTD/sodipodi-0.dtd"
   xmlns:inkscape="http://www.inkscape.org/namespaces/inkscape"
   id="svg7384"
   height="16"
   width="16"
   version="1.1"
   inkscape:version="0.92.3 (2405546, 2018-03-11)"
   sodipodi:docname="5-symbolic.svg">
  <defs
     id="defs10" />
  <sodipodi:namedview
     pagecolor="#ffffff"
     bordercolor="#666666"
     borderopacity="1"
     objecttolerance="10"
     gridtolerance="10"
     guidetolerance="10"
     inkscape:pageopacity="0"
     inkscape:pageshadow="2"
     inkscape:window-width="1776"
     inkscape:window-height="1114"
     id="namedview8"
     showgrid="false"
     inkscape:zoom="14.75"
     inkscape:cx="1.2881356"
     inkscape:cy="5.1256096"
     inkscape:window-x="784"
     inkscape:window-y="254"
     inkscape:window-maximized="0"
     inkscape:current-layer="svg7384" />
  <metadata
     id="metadata90">
    <rdf:RDF>
      <cc:Work
         rdf:about="">
        <dc:format>image/svg+xml</dc:format>
        <dc:type
           rdf:resource="http://purl.org/dc/dcmitype/StillImage" />
        <dc:title>Gnome Symbolic Icon Theme</dc:title>
      </cc:Work>
    </rdf:RDF>
  </metadata>
  <title
     id="title9167">Gnome Symbolic Icon Theme</title>
  <g
     aria-label="5"
     style="font-style:normal;font-variant:normal;font-weight:normal;font-stretch:normal;font-size:18.66666603px;line-height:1.25;font-family:'Noto Sans';-inkscape-font-specification:'Noto Sans, Normal';font-variant-ligatures:normal;font-variant-caps:normal;font-variant-numeric:normal;font-feature-settings:normal;text-align:start;letter-spacing:0px;word-spacing:0px;writing-mode:lr-tb;text-anchor:start;fill:#bebebe;fill-opacity:1;stroke:none;stroke-width:0.45808831"
     id="text816">
    <path
       d="m 7.7386667,6.3946666 q 2.0346666,0 3.2480003,1.0266666 1.232,1.0266667 1.232,2.8933328 0,2.072 -1.325334,3.266667 -1.3066663,1.176 -3.6586663,1.176 -1.0453333,0 -1.9413332,-0.186667 -0.896,-0.186666 -1.512,-0.541333 V 12.48 q 0.672,0.410666 1.624,0.653333 0.9706666,0.224 1.8479999,0.224 1.4746666,0 2.3706666,-0.690667 0.914667,-0.709333 0.914667,-2.184 0,-1.3066662 -0.802667,-1.9973328 -0.8026666,-0.7093333 -2.5386666,-0.7093333 -0.5226666,0 -1.1946666,0.093333 -0.672,0.093333 -1.0826666,0.1866667 l -0.8213334,-0.5226667 0.504,-6.2906664 H 11.285333 V 2.736 H 6.0026668 L 5.6853335,6.5999999 q 0.3173333,-0.056 0.8586666,-0.1306666 0.5413333,-0.074667 1.1946666,-0.074667 z"
       style=""
       id="path824" />
  </g>
</svg>
