<?xml version="1.0" encoding="UTF-8" standalone="no"?>
<!-- Created with Inkscape (http://www.inkscape.org/) -->

<svg
   xmlns:dc="http://purl.org/dc/elements/1.1/"
   xmlns:cc="http://creativecommons.org/ns#"
   xmlns:rdf="http://www.w3.org/1999/02/22-rdf-syntax-ns#"
   xmlns:svg="http://www.w3.org/2000/svg"
   xmlns="http://www.w3.org/2000/svg"
   xmlns:sodipodi="http://sodipodi.sourceforge.net/DTD/sodipodi-0.dtd"
   xmlns:inkscape="http://www.inkscape.org/namespaces/inkscape"
   id="svg7384"
   height="16"
   width="16"
   version="1.1"
   inkscape:version="0.92.3 (2405546, 2018-03-11)"
   sodipodi:docname="6-symbolic.svg">
  <defs
     id="defs10" />
  <sodipodi:namedview
     pagecolor="#ffffff"
     bordercolor="#666666"
     borderopacity="1"
     objecttolerance="10"
     gridtolerance="10"
     guidetolerance="10"
     inkscape:pageopacity="0"
     inkscape:pageshadow="2"
     inkscape:window-width="1777"
     inkscape:window-height="1042"
     id="namedview8"
     showgrid="false"
     inkscape:zoom="14.75"
     inkscape:cx="1.2542373"
     inkscape:cy="5.1256096"
     inkscape:window-x="783"
     inkscape:window-y="326"
     inkscape:window-maximized="0"
     inkscape:current-layer="svg7384" />
  <metadata
     id="metadata90">
    <rdf:RDF>
      <cc:Work
         rdf:about="">
        <dc:format>image/svg+xml</dc:format>
        <dc:type
           rdf:resource="http://purl.org/dc/dcmitype/StillImage" />
        <dc:title>Gnome Symbolic Icon Theme</dc:title>
      </cc:Work>
    </rdf:RDF>
  </metadata>
  <title
     id="title9167">Gnome Symbolic Icon Theme</title>
  <g
     aria-label="6"
     style="font-style:normal;font-variant:normal;font-weight:normal;font-stretch:normal;font-size:18.66666603px;line-height:1.25;font-family:'Noto Sans';-inkscape-font-specification:'Noto Sans, Normal';font-variant-ligatures:normal;font-variant-caps:normal;font-variant-numeric:normal;font-feature-settings:normal;text-align:start;letter-spacing:0px;word-spacing:0px;writing-mode:lr-tb;text-anchor:start;fill:#bebebe;fill-opacity:1;stroke:none;stroke-width:0.45808831"
     id="text816">
    <path
       d="m 3.6133335,8.9706664 q 0,-1.4373333 0.2426666,-2.8186666 Q 4.1173334,4.7519999 4.7706667,3.6319999 5.4426667,2.4933333 6.6373334,1.8213333 7.832,1.1493334 9.7173332,1.1493334 q 0.3919998,0 0.8586668,0.037333 0.485333,0.037333 0.784,0.1306666 v 1.4 q -0.336,-0.112 -0.765333,-0.168 -0.429334,-0.056 -0.8400004,-0.056 -1.288,0 -2.1466666,0.4293333 -0.8586667,0.4293333 -1.3626666,1.176 Q 5.76,4.8453332 5.5360001,5.8159999 q -0.224,0.9706666 -0.28,2.0719999 h 0.112 Q 5.7973334,7.2346665 6.5626667,6.7866665 7.328,6.3199998 8.5226666,6.3199998 q 1.7360004,0 2.8000004,1.064 1.063999,1.0453333 1.063999,2.9866662 0,2.090667 -1.157333,3.285334 -1.138666,1.194666 -3.0799997,1.194666 Q 6.88,14.850666 5.8533334,14.216 4.8266667,13.581333 4.2106668,12.274666 3.6133335,10.968 3.6133335,8.9706664 Z m 4.5173331,4.4986666 q 1.176,0 1.9040004,-0.746667 0.728,-0.765333 0.728,-2.352 0,-1.2693329 -0.653334,-2.0159996 -0.6346664,-0.7466666 -1.9226664,-0.7466666 -0.8773333,0 -1.5306666,0.3733333 -0.6533333,0.3546667 -1.0266666,0.9333333 -0.3546667,0.56 -0.3546667,1.1386666 0,0.802667 0.3173334,1.605333 0.3173333,0.784 0.9519999,1.306667 0.6346667,0.504 1.5866666,0.504 z"
       style=""
       id="path824" />
  </g>
</svg>
