<?xml version="1.0" encoding="UTF-8" standalone="no"?>
<!-- Created with Inkscape (http://www.inkscape.org/) -->

<svg
   xmlns:dc="http://purl.org/dc/elements/1.1/"
   xmlns:cc="http://creativecommons.org/ns#"
   xmlns:rdf="http://www.w3.org/1999/02/22-rdf-syntax-ns#"
   xmlns:svg="http://www.w3.org/2000/svg"
   xmlns="http://www.w3.org/2000/svg"
   xmlns:sodipodi="http://sodipodi.sourceforge.net/DTD/sodipodi-0.dtd"
   xmlns:inkscape="http://www.inkscape.org/namespaces/inkscape"
   id="svg7384"
   height="16"
   width="16"
   version="1.1"
   inkscape:version="0.92.3 (2405546, 2018-03-11)"
   sodipodi:docname="8-symbolic.svg">
  <defs
     id="defs10" />
  <sodipodi:namedview
     pagecolor="#ffffff"
     bordercolor="#666666"
     borderopacity="1"
     objecttolerance="10"
     gridtolerance="10"
     guidetolerance="10"
     inkscape:pageopacity="0"
     inkscape:pageshadow="2"
     inkscape:window-width="1971"
     inkscape:window-height="1041"
     id="namedview8"
     showgrid="false"
     inkscape:zoom="14.75"
     inkscape:cx="-5.3220339"
     inkscape:cy="5.1256096"
     inkscape:window-x="589"
     inkscape:window-y="327"
     inkscape:window-maximized="0"
     inkscape:current-layer="svg7384" />
  <metadata
     id="metadata90">
    <rdf:RDF>
      <cc:Work
         rdf:about="">
        <dc:format>image/svg+xml</dc:format>
        <dc:type
           rdf:resource="http://purl.org/dc/dcmitype/StillImage" />
        <dc:title>Gnome Symbolic Icon Theme</dc:title>
      </cc:Work>
    </rdf:RDF>
  </metadata>
  <title
     id="title9167">Gnome Symbolic Icon Theme</title>
  <g
     aria-label="8"
     style="font-style:normal;font-variant:normal;font-weight:normal;font-stretch:normal;font-size:18.66666603px;line-height:1.25;font-family:'Noto Sans';-inkscape-font-specification:'Noto Sans, Normal';font-variant-ligatures:normal;font-variant-caps:normal;font-variant-numeric:normal;font-feature-settings:normal;text-align:start;letter-spacing:0px;word-spacing:0px;writing-mode:lr-tb;text-anchor:start;fill:#bebebe;fill-opacity:1;stroke:none;stroke-width:0.45808831"
     id="text816">
    <path
       d="m 7.9906668,1.1493334 q 1.7546666,0 2.8746662,0.8213333 1.12,0.8213333 1.12,2.3706665 0,0.8026667 -0.354666,1.4 -0.336,0.5973333 -0.914667,1.064 -0.578667,0.4479999 -1.2693333,0.8026666 0.8213333,0.4106667 1.4933333,0.896 0.672,0.4853333 1.064,1.1386666 0.410667,0.6533336 0.410667,1.5679996 0,1.68 -1.194667,2.669334 -1.194667,0.970666 -3.1733333,0.970666 -2.1653332,0 -3.3226665,-0.933333 -1.1386666,-0.952 -1.1386666,-2.650667 0,-0.896 0.3733333,-1.5679996 0.392,-0.6906666 1.0266666,-1.176 0.6346667,-0.4853333 1.3626666,-0.8213333 -0.9893333,-0.56 -1.6613332,-1.3439999 -0.672,-0.8026667 -0.672,-2.0346666 0,-1.008 0.5226666,-1.7173333 Q 5.0600002,1.896 5.9560002,1.5226667 6.8520001,1.1493334 7.9906668,1.1493334 Z m -0.018667,1.3253332 q -1.0453333,0 -1.6986666,0.504 -0.6533333,0.4853333 -0.6533333,1.4186666 0,0.6906667 0.3173333,1.1573333 0.336,0.4666667 0.896,0.8026667 0.5599999,0.3173333 1.2319999,0.616 0.9706666,-0.4106667 1.624,-0.9893333 0.6719996,-0.5786667 0.6719996,-1.5866667 0,-0.9333333 -0.653333,-1.4186666 -0.6533333,-0.504 -1.7359999,-0.504 z M 5.1906668,11.285333 q 0,0.970667 0.6906667,1.624 0.6906666,0.634667 2.1279999,0.634667 1.3626666,0 2.0719996,-0.634667 0.728,-0.653333 0.728,-1.68 0,-0.970667 -0.765333,-1.6053333 Q 9.2786667,8.9706664 8.0093334,8.4853331 l -0.2986666,-0.112 q -1.232,0.5413333 -1.8853333,1.2133333 -0.6346667,0.6719996 -0.6346667,1.6986666 z"
       style=""
       id="path824" />
  </g>
</svg>
