<?xml version="1.0" encoding="UTF-8" standalone="no"?>
<!-- Created with Inkscape (http://www.inkscape.org/) -->

<svg
   xmlns:dc="http://purl.org/dc/elements/1.1/"
   xmlns:cc="http://creativecommons.org/ns#"
   xmlns:rdf="http://www.w3.org/1999/02/22-rdf-syntax-ns#"
   xmlns:svg="http://www.w3.org/2000/svg"
   xmlns="http://www.w3.org/2000/svg"
   xmlns:sodipodi="http://sodipodi.sourceforge.net/DTD/sodipodi-0.dtd"
   xmlns:inkscape="http://www.inkscape.org/namespaces/inkscape"
   id="svg7384"
   height="16"
   width="16"
   version="1.1"
   inkscape:version="0.48.4 r9939"
   sodipodi:docname="number-symbolic.svg">
  <defs
     id="defs10" />
  <sodipodi:namedview
     pagecolor="#ffffff"
     bordercolor="#666666"
     borderopacity="1"
     objecttolerance="10"
     gridtolerance="10"
     guidetolerance="10"
     inkscape:pageopacity="0"
     inkscape:pageshadow="2"
     inkscape:window-width="1026"
     inkscape:window-height="622"
     id="namedview8"
     showgrid="false"
     inkscape:zoom="14.75"
     inkscape:cx="-9.7627123"
     inkscape:cy="5.1256096"
     inkscape:window-x="39"
     inkscape:window-y="194"
     inkscape:window-maximized="0"
     inkscape:current-layer="svg7384" />
  <metadata
     id="metadata90">
    <rdf:RDF>
      <cc:Work
         rdf:about="">
        <dc:format>image/svg+xml</dc:format>
        <dc:type
           rdf:resource="http://purl.org/dc/dcmitype/StillImage" />
        <dc:title>Gnome Symbolic Icon Theme</dc:title>
      </cc:Work>
    </rdf:RDF>
  </metadata>
  <title
     id="title9167">Gnome Symbolic Icon Theme</title>
  <g
     style="font-size:13.66111565px;font-style:normal;font-variant:normal;font-weight:500;font-stretch:normal;line-height:125%;letter-spacing:0px;word-spacing:0px;fill:#bebebe;fill-opacity:1;stroke:none;font-family:Rekha;-inkscape-font-specification:Rekha Medium"
     id="text3001"
     transform="matrix(1.0863373,0,0,1.0863373,0.0633947,-1.4929444)">
    <path
       d="M 6.792213,8.9919648 C 6.4631341,9.2587874 6.2318915,9.4944769 6.0984845,9.6990343 5.8494518,10.081477 5.7249366,10.539516 5.7249383,11.07315 c -1.7e-6,0.533639 0.1511954,0.982784 0.4535918,1.347435 0.3023919,0.364652 0.7159604,0.546978 1.2407067,0.546978 0.4358,0 0.7871109,-0.128962 1.0539338,-0.386887 0.2757078,-0.266818 0.413564,-0.635917 0.4135689,-1.107298 C 8.8867346,10.930849 8.6377041,10.441682 8.1396472,10.005876 7.9261883,9.819106 7.477044,9.481136 6.792213,8.9919648 M 4.7110274,11.20656 c -7e-7,-0.631469 0.2179009,-1.165105 0.6537057,-1.6009123 C 5.5248228,9.4455602 5.8850276,9.15206 6.4453487,8.7251461 5.9028155,8.2448774 5.5648455,7.9335893 5.4314378,7.7912808 5.0045269,7.3288009 4.7910722,6.7996111 4.791073,6.2037098 4.7910722,5.5722465 5.0623375,5.0608446 5.6048699,4.6695024 6.0940353,4.3137531 6.654354,4.1358741 7.2858275,4.1358651 c 0.7293003,9e-6 1.3074068,0.1867819 1.7343213,0.5603192 0.4002226,0.3468724 0.6003364,0.7915697 0.600342,1.3340933 -5.6e-6,0.5425379 -0.2045664,1.0094701 -0.6136829,1.400798 -0.2223537,0.2134605 -0.6136874,0.4713849 -1.1740021,0.7737741 0.8360271,0.5958994 1.4052397,1.1339832 1.7076394,1.614253 0.240131,0.3824433 0.3601993,0.8271403 0.3602052,1.3340933 -5.9e-6,0.506957 -0.1645439,0.956101 -0.4936145,1.347434 -0.4713846,0.56032 -1.1917943,0.840479 -2.1612312,0.840479 -0.7826706,0 -1.4096938,-0.222349 -1.8810716,-0.667047 C 4.9289283,12.264941 4.7110267,11.775774 4.7110274,11.20656 M 5.7783021,5.8568455 C 5.7783002,6.3015501 5.9962019,6.7462474 6.4320078,7.1909388 6.654354,7.4221874 6.992324,7.6801118 7.4459187,7.9647129 7.819461,7.7156876 8.0907264,7.488892 8.2597156,7.2843253 8.5532116,6.9196794 8.6999617,6.479429 8.6999664,5.963573 8.6999617,5.5633525 8.5798934,5.2298296 8.3397612,4.963003 8.0729385,4.660617 7.6949457,4.5094199 7.2057819,4.5094112 6.7432935,4.5094199 6.3875356,4.647276 6.1385073,4.9229802 5.8983685,5.1898068 5.7783002,5.5010949 5.7783021,5.8568455"
       id="path2985"
       inkscape:connector-curvature="0" />
  </g>
</svg>
