<?xml version="1.0" encoding="UTF-8" standalone="no"?>
<!-- Created with Inkscape (http://www.inkscape.org/) -->

<svg
   xmlns:dc="http://purl.org/dc/elements/1.1/"
   xmlns:cc="http://creativecommons.org/ns#"
   xmlns:rdf="http://www.w3.org/1999/02/22-rdf-syntax-ns#"
   xmlns:svg="http://www.w3.org/2000/svg"
   xmlns="http://www.w3.org/2000/svg"
   xmlns:sodipodi="http://sodipodi.sourceforge.net/DTD/sodipodi-0.dtd"
   xmlns:inkscape="http://www.inkscape.org/namespaces/inkscape"
   id="svg7384"
   height="16"
   width="16"
   version="1.1"
   inkscape:version="0.92.3 (2405546, 2018-03-11)"
   sodipodi:docname="9-symbolic.svg">
  <defs
     id="defs10" />
  <sodipodi:namedview
     pagecolor="#ffffff"
     bordercolor="#666666"
     borderopacity="1"
     objecttolerance="10"
     gridtolerance="10"
     guidetolerance="10"
     inkscape:pageopacity="0"
     inkscape:pageshadow="2"
     inkscape:window-width="1913"
     inkscape:window-height="1075"
     id="namedview8"
     showgrid="false"
     inkscape:zoom="14.75"
     inkscape:cx="-3.3559322"
     inkscape:cy="5.1256096"
     inkscape:window-x="647"
     inkscape:window-y="293"
     inkscape:window-maximized="0"
     inkscape:current-layer="svg7384" />
  <metadata
     id="metadata90">
    <rdf:RDF>
      <cc:Work
         rdf:about="">
        <dc:format>image/svg+xml</dc:format>
        <dc:type
           rdf:resource="http://purl.org/dc/dcmitype/StillImage" />
        <dc:title>Gnome Symbolic Icon Theme</dc:title>
      </cc:Work>
    </rdf:RDF>
  </metadata>
  <title
     id="title9167">Gnome Symbolic Icon Theme</title>
  <g
     aria-label="9"
     style="font-style:normal;font-variant:normal;font-weight:normal;font-stretch:normal;font-size:18.66666603px;line-height:1.25;font-family:'Noto Sans';-inkscape-font-specification:'Noto Sans, Normal';font-variant-ligatures:normal;font-variant-caps:normal;font-variant-numeric:normal;font-feature-settings:normal;text-align:start;letter-spacing:0px;word-spacing:0px;writing-mode:lr-tb;text-anchor:start;fill:#bebebe;fill-opacity:1;stroke:none;stroke-width:0.45808831"
     id="text816">
    <path
       d="m 12.386666,7.0293332 q 0,1.4373332 -0.261333,2.8373332 -0.242667,1.3813336 -0.914667,2.5199996 -0.653333,1.12 -1.8666662,1.792 -1.1946666,0.672 -3.0799999,0.672 -0.3733333,0 -0.8773333,-0.056 Q 4.8826667,14.757333 4.584,14.664 v -1.4 q 0.728,0.242666 1.6426666,0.242666 1.3066666,0 2.1466666,-0.429333 Q 9.2319998,12.648 9.7359998,11.92 10.24,11.173333 10.464,10.202666 10.688,9.2133331 10.725333,8.1306664 h -0.112 Q 10.184,8.7653331 9.4186665,9.2319997 q -0.7653333,0.448 -1.9786666,0.448 -1.7173333,0 -2.7813332,-1.0453333 -1.0453333,-1.0639999 -1.0453333,-2.9866665 0,-1.4 0.5226666,-2.408 Q 4.6586667,2.232 5.6106666,1.6906667 6.5813333,1.1493334 7.8693332,1.1493334 q 1.2693333,0 2.2959998,0.6533333 1.026667,0.6346666 1.624,1.9413332 0.597333,1.288 0.597333,3.2853333 z M 7.8693332,2.5306666 q -1.1573333,0 -1.9039999,0.7653333 -0.728,0.7653334 -0.728,2.3333333 0,1.288 0.616,2.0346666 0.6346666,0.728 1.9413333,0.728 0.8959999,0 1.5493332,-0.3546667 Q 9.9973332,7.6639998 10.352,7.1039998 q 0.373333,-0.56 0.373333,-1.1573333 0,-0.8026666 -0.317333,-1.5866666 -0.317334,-0.784 -0.9520002,-1.3066666 Q 8.8213332,2.5306666 7.8693332,2.5306666 Z"
       style=""
       id="path824" />
  </g>
</svg>
