<?xml version="1.0" encoding="UTF-8" standalone="no"?>
<!-- Created with Inkscape (http://www.inkscape.org/) -->

<svg
   xmlns:dc="http://purl.org/dc/elements/1.1/"
   xmlns:cc="http://creativecommons.org/ns#"
   xmlns:rdf="http://www.w3.org/1999/02/22-rdf-syntax-ns#"
   xmlns:svg="http://www.w3.org/2000/svg"
   xmlns="http://www.w3.org/2000/svg"
   xmlns:sodipodi="http://sodipodi.sourceforge.net/DTD/sodipodi-0.dtd"
   xmlns:inkscape="http://www.inkscape.org/namespaces/inkscape"
   id="svg7384"
   height="16"
   width="16"
   version="1.1"
   inkscape:version="0.48.4 r9939"
   sodipodi:docname="log-symbolic.svg">
  <defs
     id="defs10" />
  <sodipodi:namedview
     pagecolor="#ffffff"
     bordercolor="#666666"
     borderopacity="1"
     objecttolerance="10"
     gridtolerance="10"
     guidetolerance="10"
     inkscape:pageopacity="0"
     inkscape:pageshadow="2"
     inkscape:window-width="1022"
     inkscape:window-height="622"
     id="namedview8"
     showgrid="false"
     inkscape:zoom="14.75"
     inkscape:cx="6.8393358"
     inkscape:cy="5.1256096"
     inkscape:window-x="0"
     inkscape:window-y="30"
     inkscape:window-maximized="0"
     inkscape:current-layer="text3001" />
  <metadata
     id="metadata90">
    <rdf:RDF>
      <cc:Work
         rdf:about="">
        <dc:format>image/svg+xml</dc:format>
        <dc:type
           rdf:resource="http://purl.org/dc/dcmitype/StillImage" />
        <dc:title>Gnome Symbolic Icon Theme</dc:title>
      </cc:Work>
    </rdf:RDF>
  </metadata>
  <title
     id="title9167">Gnome Symbolic Icon Theme</title>
  <g
     style="font-size:12px;font-style:normal;font-variant:normal;font-weight:normal;font-stretch:normal;line-height:125%;letter-spacing:0px;word-spacing:0px;fill:#bebebe;fill-opacity:1;stroke:none;font-family:Meera;-inkscape-font-specification:Meera"
     id="text3001"
     transform="matrix(1.2480195,0,0,1.2480195,-1.9841559,-1.9841559)">
    <g
       id="g2986"
       transform="matrix(1.1666667,0,0,1.1666667,-1.3333336,-1.3333336)">
      <path
         inkscape:connector-curvature="0"
         id="path3222"
         style="font-family:Meera;-inkscape-font-specification:Meera"
         d="m 2.5449219,10.692383 0,-7.5000002 0.8671875,0 0,7.5000002 -0.8671875,0" />
      <path
         inkscape:connector-curvature="0"
         id="path3224"
         style="font-family:Meera;-inkscape-font-specification:Meera"
         d="m 6.3652344,10.833008 c -0.8164087,0 -1.4355487,-0.277344 -1.8574219,-0.832031 C 4.124999,9.5087902 3.9335929,8.8369159 3.9335938,7.9853516 3.9335929,7.1494176 4.124999,6.4814495 4.5078125,5.9814453 4.9296857,5.4267631 5.5449194,5.1494196 6.3535156,5.1494141 c 0.8320272,5.5e-6 1.4589797,0.277349 1.8808594,0.8320312 0.3749945,0.5000042 0.5624943,1.1816442 0.5625,2.0449219 -5.7e-6,0.8242206 -0.1914118,1.4882824 -0.5742187,1.9921878 -0.4335985,0.542969 -1.0527385,0.814453 -1.8574219,0.814453 m 0,-5.0214846 C 5.7871067,5.8115283 5.3554665,6.0459031 5.0703125,6.5146484 4.8359358,6.901371 4.7187484,7.3916049 4.71875,7.9853516 c -1.6e-6,0.5937521 0.1171858,1.083986 0.3515625,1.4707031 0.285154,0.4765632 0.7167942,0.7148443 1.2949219,0.7148433 0.5664024,1e-6 0.9980426,-0.2343738 1.2949218,-0.7031246 C 7.8984327,9.0849625 8.0175732,8.600588 8.0175781,8.0146484 8.0175732,6.5459026 7.4667925,5.8115283 6.3652344,5.8115234" />
      <path
         inkscape:connector-curvature="0"
         id="path3226"
         style="font-family:Meera;-inkscape-font-specification:Meera"
         d="m 11.041016,12.807617 c -1.2890648,-2e-6 -2.0000016,-0.498048 -2.1328129,-1.49414 l 0.7617188,0 c 0.1328105,0.601561 0.5683571,0.902342 1.3066411,0.902343 0.749996,-1e-6 1.24023,-0.238282 1.470703,-0.714843 0.152339,-0.320313 0.22851,-0.919922 0.228515,-1.7988286 -0.539067,0.7343756 -1.119144,1.1015626 -1.740234,1.1015626 -0.71094,0 -1.2714863,-0.296875 -1.6816407,-0.8906251 C 8.8984365,9.3974622 8.7207023,8.7685566 8.7207031,8.0263672 8.7207023,6.9912146 9.0136707,6.2080123 9.5996094,5.6767578 9.9902322,5.3252007 10.460935,5.1494196 11.011719,5.1494141 c 0.667965,5.5e-6 1.251948,0.3593801 1.751953,1.078125 l 0,-0.9375 0.691406,0 0,4.453125 c -5e-6,1.0156249 -0.144537,1.7499989 -0.433594,2.2031249 -0.367192,0.574217 -1.027348,0.861326 -1.980468,0.861328 m 0.07031,-6.9960936 c -0.570315,4.9e-6 -0.99219,0.2402391 -1.2656249,0.7207032 -0.2343767,0.3828162 -0.3515641,0.8632845 -0.3515625,1.4414062 -1.6e-6,0.5859396 0.1171858,1.0703142 0.3515625,1.453125 0.2734349,0.4765633 0.6953099,0.7148442 1.2656249,0.7148442 0.554684,0 0.970699,-0.2382809 1.248047,-0.7148442 0.210933,-0.3749983 0.316401,-0.8515604 0.316406,-1.4296875 -5e-6,-1.4570271 -0.521488,-2.185542 -1.564453,-2.1855469" />
    </g>
  </g>
</svg>
