<?xml version="1.0" encoding="UTF-8" standalone="no"?>
<!-- Created with Inkscape (http://www.inkscape.org/) -->

<svg
   xmlns:dc="http://purl.org/dc/elements/1.1/"
   xmlns:cc="http://creativecommons.org/ns#"
   xmlns:rdf="http://www.w3.org/1999/02/22-rdf-syntax-ns#"
   xmlns:svg="http://www.w3.org/2000/svg"
   xmlns="http://www.w3.org/2000/svg"
   xmlns:sodipodi="http://sodipodi.sourceforge.net/DTD/sodipodi-0.dtd"
   xmlns:inkscape="http://www.inkscape.org/namespaces/inkscape"
   id="svg7384"
   height="16"
   width="16"
   version="1.1"
   inkscape:version="0.48.4 r9939"
   sodipodi:docname="power-symbolic.svg">
  <defs
     id="defs10" />
  <sodipodi:namedview
     pagecolor="#ffffff"
     bordercolor="#666666"
     borderopacity="1"
     objecttolerance="10"
     gridtolerance="10"
     guidetolerance="10"
     inkscape:pageopacity="0"
     inkscape:pageshadow="2"
     inkscape:window-width="1026"
     inkscape:window-height="622"
     id="namedview8"
     showgrid="false"
     inkscape:zoom="14.75"
     inkscape:cx="-0.88135634"
     inkscape:cy="5.1256096"
     inkscape:window-x="2008"
     inkscape:window-y="101"
     inkscape:window-maximized="0"
     inkscape:current-layer="svg7384" />
  <metadata
     id="metadata90">
    <rdf:RDF>
      <cc:Work
         rdf:about="">
        <dc:format>image/svg+xml</dc:format>
        <dc:type
           rdf:resource="http://purl.org/dc/dcmitype/StillImage" />
        <dc:title>Gnome Symbolic Icon Theme</dc:title>
      </cc:Work>
    </rdf:RDF>
  </metadata>
  <title
     id="title9167">Gnome Symbolic Icon Theme</title>
  <g
     style="fill:#bebebe;fill-opacity:1;stroke:none"
     id="text2982"
     transform="matrix(1.4390225,0,0,1.280929,-3.7244825,-2.3867183)">
    <path
       d="m 3.1036612,6.7638645 c 0.4079996,-0.3239997 0.7320002,-0.492 0.972,-0.492 0.1319998,0 0.216,0.084 0.216,0.228 0,0.036 0,0.096 -0.012,0.168 l -0.228,2.184 c -0.048,0.4919995 -0.072,0.7800002 -0.072,1.02 0,0.5999995 0.2400003,1.0439995 0.564,1.0439995 0.3359996,0 0.8160005,-0.252 1.296,-0.672 0.4679995,-0.4079991 0.7320004,-0.7440004 1.2,-1.5719995 l -0.492,1.9919995 c -0.4679996,1.895999 -1.0440008,2.748 -1.824,2.748 -0.4679996,0 -0.744,-0.288 -0.744,-0.792 0,-0.036 0,-0.144 0.012,-0.228 l -0.216,-0.072 -0.744,0.48 c 0.036,0.312 0.072,0.468001 0.18,0.636 0.1799998,0.324 0.5760004,0.528 0.996,0.528 0.947999,0 1.9680007,-0.684001 2.664,-1.788 0.6119994,-0.947999 0.7800006,-1.416002 1.392,-3.6839995 0.5159995,-1.8599982 0.7800002,-2.7240005 1.008,-3.216 l -0.144,-0.144 c -0.5159995,0.1559998 -0.9240004,0.228 -1.32,0.216 -0.024,0.8279991 -0.3720005,2.0160009 -0.864,2.94 -0.5039995,0.947999 -1.1160004,1.62 -1.476,1.62 -0.1319999,0 -0.204,-0.1800003 -0.204,-0.492 0,-0.1799998 0.012,-0.3600003 0.048,-0.66 l 0.228,-1.956 c 0.036,-0.3359997 0.06,-0.6720003 0.06,-0.96 0,-0.4679996 -0.1800003,-0.756 -0.468,-0.756 -0.2759997,0 -0.7680005,0.2400003 -1.236,0.6 l -0.96,0.744 0.168,0.336"
       style="font-style:italic;font-variant:normal;font-weight:bold;font-stretch:normal;fill:#bebebe;font-family:URW Palladio L;-inkscape-font-specification:URW Palladio L Bold Italic"
       id="path3776"
       inkscape:connector-curvature="0" />
    <path
       d="m 9.5217496,5.1474535 c -0.0234,0.2886038 -0.054601,0.4836071 -0.1248018,0.7878111 0.1482019,0.078001 0.2340034,0.1092015 0.3354047,0.1092015 0.226203,0 0.5070075,-0.1872029 0.7332105,-0.4914069 l 0.663009,-0.8892125 0.078,0.4524064 c 0.0702,0.382205 0.124802,0.5772082 0.234004,0.7176101 0.0936,0.1326017 0.241803,0.2106029 0.382205,0.2106029 0.234003,0 0.514808,-0.1716029 1.115416,-0.6786095 L 13.0786,5.2410548 12.953798,5.0616523 12.719795,5.2254546 c -0.218403,0.1560021 -0.288605,0.1872026 -0.366606,0.1872026 -0.101401,0 -0.195002,-0.062401 -0.249603,-0.1560021 -0.0858,-0.1794024 -0.187203,-0.5304079 -0.249604,-0.8814125 l -0.0858,-0.499207 0.296404,-0.3978056 c 0.234003,-0.3198042 0.530408,-0.5382076 0.71761,-0.5382076 0.0468,0 0.0858,0.0078 0.163803,0.039001 l 0.0702,0.218403 0.163802,-0.039001 c 0.0546,-0.4992065 0.0858,-0.6474093 0.179403,-0.8268116 -0.0936,-0.046801 -0.210603,-0.078001 -0.304205,-0.078001 -0.257403,0 -0.553808,0.2184035 -0.858012,0.6474091 L 11.70578,3.5796314 11.67458,3.4002289 c -0.078,-0.460206 -0.156002,-0.70201 -0.280804,-0.8658122 -0.132602,-0.1794023 -0.351005,-0.2808039 -0.600609,-0.2808039 -0.156002,0 -0.273004,0.031201 -0.592808,0.1560022 -0.039,0.070201 -0.039,0.078001 -0.078,0.1560021 C 9.9585559,2.8776212 9.8493541,3.0570242 9.7401526,3.197426 L 9.9195552,3.2988275 C 10.036557,3.0960248 10.293961,2.9166221 10.481163,2.9166221 c 0.195003,0 0.374405,0.2964046 0.460207,0.7722109 l 0.124801,0.6864096 -0.405605,0.5694081 c -0.226203,0.3198041 -0.452407,0.4758067 -0.6864101,0.4758067 -0.070201,0 -0.1326019,-0.0156 -0.218403,-0.046801 L 9.7089519,5.131853 9.5217493,5.147453"
       style="font-size:65.00091553%;baseline-shift:super;fill:#bebebe;font-family:URW Palladio L;-inkscape-font-specification:URW Palladio L Bold Italic"
       id="path3778"
       inkscape:connector-curvature="0" />
  </g>
</svg>
