<?xml version="1.0" encoding="UTF-8" standalone="no"?>
<!-- Created with Inkscape (http://www.inkscape.org/) -->

<svg
   xmlns:dc="http://purl.org/dc/elements/1.1/"
   xmlns:cc="http://creativecommons.org/ns#"
   xmlns:rdf="http://www.w3.org/1999/02/22-rdf-syntax-ns#"
   xmlns:svg="http://www.w3.org/2000/svg"
   xmlns="http://www.w3.org/2000/svg"
   xmlns:sodipodi="http://sodipodi.sourceforge.net/DTD/sodipodi-0.dtd"
   xmlns:inkscape="http://www.inkscape.org/namespaces/inkscape"
   id="svg7384"
   height="16"
   width="16"
   version="1.1"
   inkscape:version="0.48.4 r9939"
   sodipodi:docname="object-rotate-right-symbolic.svg">
  <defs
     id="defs10" />
  <sodipodi:namedview
     pagecolor="#ffffff"
     bordercolor="#666666"
     borderopacity="1"
     objecttolerance="10"
     gridtolerance="10"
     guidetolerance="10"
     inkscape:pageopacity="0"
     inkscape:pageshadow="2"
     inkscape:window-width="640"
     inkscape:window-height="480"
     id="namedview8"
     showgrid="false"
     inkscape:zoom="14.75"
     inkscape:cx="8"
     inkscape:cy="8"
     inkscape:window-x="441"
     inkscape:window-y="215"
     inkscape:window-maximized="0"
     inkscape:current-layer="svg7384" />
  <metadata
     id="metadata90">
    <rdf:RDF>
      <cc:Work
         rdf:about="">
        <dc:format>image/svg+xml</dc:format>
        <dc:type
           rdf:resource="http://purl.org/dc/dcmitype/StillImage" />
        <dc:title>Gnome Symbolic Icon Theme</dc:title>
      </cc:Work>
    </rdf:RDF>
  </metadata>
  <title
     id="title9167">Gnome Symbolic Icon Theme</title>
  <g
     id="layer12"
     transform="matrix(0,1,-1,0,684.20492,-300.79622)">
    <path
       id="path35770-9-1"
       style="text-indent:0;text-transform:none;block-progression:tb;color:#000000;fill:#bebebe"
       d="m 304,670 v 2 h 4.5 c 0.84027,0 1.5,0.65973 1.5,1.5 v 5.5 h 2 v -5.5 c 0,-1.9212 -1.5788,-3.5 -3.5,-3.5 H 304 z"
       inkscape:connector-curvature="0" />
    <path
       id="rect3217-6-2-2-4-85-2-1"
       style="text-indent:0;text-transform:none;block-progression:tb;color:#bebebe;fill:#bebebe"
       d="m 307,676 h 1 c 0.25689,0 0.52846,0.12983 0.71875,0.3125 l 2.2812,2.2812 2.2812,-2.2812 c 0.19,-0.18 0.46,-0.31 0.72,-0.31 h 1 v 1 c 0,0.30945 -0.0903,0.55232 -0.28125,0.75 l -3.7188,3.6562 -3.7188,-3.6562 c -0.19095,-0.19768 -0.28125,-0.44055 -0.28125,-0.75 z"
       inkscape:connector-curvature="0" />
  </g>
</svg>
