<?xml version="1.0" encoding="UTF-8" standalone="no"?>
<!-- Created with Inkscape (http://www.inkscape.org/) -->

<svg
   xmlns:dc="http://purl.org/dc/elements/1.1/"
   xmlns:cc="http://creativecommons.org/ns#"
   xmlns:rdf="http://www.w3.org/1999/02/22-rdf-syntax-ns#"
   xmlns:svg="http://www.w3.org/2000/svg"
   xmlns="http://www.w3.org/2000/svg"
   xmlns:sodipodi="http://sodipodi.sourceforge.net/DTD/sodipodi-0.dtd"
   xmlns:inkscape="http://www.inkscape.org/namespaces/inkscape"
   id="svg7384"
   height="16"
   width="16"
   version="1.1"
   inkscape:version="0.48.4 r9939"
   sodipodi:docname="root-symbolic.svg">
  <defs
     id="defs10" />
  <sodipodi:namedview
     pagecolor="#ffffff"
     bordercolor="#666666"
     borderopacity="1"
     objecttolerance="10"
     gridtolerance="10"
     guidetolerance="10"
     inkscape:pageopacity="0"
     inkscape:pageshadow="2"
     inkscape:window-width="1026"
     inkscape:window-height="622"
     id="namedview8"
     showgrid="false"
     inkscape:zoom="3.421875"
     inkscape:cx="-11.375417"
     inkscape:cy="5.6524334"
     inkscape:window-x="1839"
     inkscape:window-y="89"
     inkscape:window-maximized="0"
     inkscape:current-layer="svg7384" />
  <metadata
     id="metadata90">
    <rdf:RDF>
      <cc:Work
         rdf:about="">
        <dc:format>image/svg+xml</dc:format>
        <dc:type
           rdf:resource="http://purl.org/dc/dcmitype/StillImage" />
        <dc:title>Gnome Symbolic Icon Theme</dc:title>
      </cc:Work>
    </rdf:RDF>
  </metadata>
  <title
     id="title9167">Gnome Symbolic Icon Theme</title>
  <g
     style="font-size:40px;font-style:normal;font-weight:normal;line-height:125%;letter-spacing:0px;word-spacing:0px;fill:#bebebe;fill-opacity:1;stroke:none;font-family:Sans"
     id="text2982"
     transform="matrix(2.0578779,0,0,1.5041127,-9.164628,-3.2166129)">
    <path
       d="m 10.878046,2.4709673 1.107421,0 0,0.5625 -0.673828,0 -3.4804684,9.4101567 -0.3867188,0 -1.8691406,-5.1738286 -0.7324219,0.2636719 -0.1464844,-0.46875 1.6582032,-0.5742188 1.5,4.1542965 3.0234379,-8.1738277"
       style="font-size:12px;fill:#bebebe;fill-opacity:1"
       id="path2987"
       inkscape:connector-curvature="0" />
  </g>
  <g
     style="font-size:9px;font-style:normal;font-weight:normal;line-height:125%;letter-spacing:0px;word-spacing:0px;fill:#bebebe;fill-opacity:1;stroke:none;font-family:Sans"
     id="text3795"
     transform="translate(0.29223744,0.58447489)">
    <path
       d="m 4.3459725,4.3052144 c -0.027,0.3329996 -0.063,0.5580003 -0.144,0.909 0.1709998,0.09 0.2700001,0.126 0.387,0.126 0.2609998,0 0.5850003,-0.2160004 0.846,-0.567 l 0.765,-1.026 0.09,0.522 c 0.081,0.4409995 0.1440001,0.6660001 0.27,0.828 0.1079999,0.1529998 0.2790002,0.243 0.441,0.243 0.2699997,0 0.5940007,-0.1980006 1.287,-0.783 l 0.162,-0.144 -0.144,-0.207 -0.27,0.189 c -0.2519997,0.1799998 -0.3330001,0.216 -0.423,0.216 -0.1169999,0 -0.2250001,-0.072 -0.288,-0.18 -0.099,-0.2069998 -0.2160001,-0.6120004 -0.288,-1.017 l -0.099,-0.576 0.342,-0.459 c 0.2699997,-0.3689997 0.6120002,-0.621 0.828,-0.621 0.054,0 0.099,0.009 0.189,0.045 l 0.081,0.252 0.189,-0.045 c 0.063,-0.5759994 0.099,-0.7470002 0.207,-0.954 -0.1079999,-0.054 -0.2430001,-0.09 -0.351,-0.09 -0.2969997,0 -0.6390003,0.2520005 -0.99,0.747 l -0.567,0.783 -0.036,-0.207 c -0.09,-0.5309995 -0.1800001,-0.8100002 -0.324,-0.999 -0.1529998,-0.2069998 -0.4050003,-0.324 -0.693,-0.324 -0.1799998,0 -0.3150004,0.0360001 -0.684,0.18 -0.045,0.081 -0.045,0.09 -0.09,0.18 -0.1889998,0.3599996 -0.3150001,0.5670001 -0.441,0.729 l 0.207,0.117 c 0.1349999,-0.2339998 0.4320002,-0.441 0.648,-0.441 0.2249998,0 0.4320001,0.3420005 0.531,0.891 l 0.144,0.792 -0.468,0.657 c -0.2609997,0.3689996 -0.5220003,0.549 -0.792,0.549 -0.081,0 -0.1530001,-0.018 -0.252,-0.054 l -0.054,-0.279 -0.216,0.018"
       style="font-style:italic;font-variant:normal;font-weight:bold;font-stretch:normal;fill:#bebebe;fill-opacity:1;font-family:URW Palladio L;-inkscape-font-specification:URW Palladio L Bold"
       id="path3800"
       inkscape:connector-curvature="0" />
  </g>
</svg>
