<?xml version="1.0" encoding="UTF-8" standalone="no"?>
<!-- Created with Inkscape (http://www.inkscape.org/) -->

<svg
   xmlns:dc="http://purl.org/dc/elements/1.1/"
   xmlns:cc="http://creativecommons.org/ns#"
   xmlns:rdf="http://www.w3.org/1999/02/22-rdf-syntax-ns#"
   xmlns:svg="http://www.w3.org/2000/svg"
   xmlns="http://www.w3.org/2000/svg"
   xmlns:sodipodi="http://sodipodi.sourceforge.net/DTD/sodipodi-0.dtd"
   xmlns:inkscape="http://www.inkscape.org/namespaces/inkscape"
   id="svg7384"
   height="16"
   width="16"
   version="1.1"
   inkscape:version="0.48.4 r9939"
   sodipodi:docname="x!-symbolic.svg">
  <defs
     id="defs10" />
  <sodipodi:namedview
     pagecolor="#ffffff"
     bordercolor="#666666"
     borderopacity="1"
     objecttolerance="10"
     gridtolerance="10"
     guidetolerance="10"
     inkscape:pageopacity="0"
     inkscape:pageshadow="2"
     inkscape:window-width="1022"
     inkscape:window-height="622"
     id="namedview8"
     showgrid="false"
     inkscape:zoom="14.75"
     inkscape:cx="-2.7118644"
     inkscape:cy="5.1256096"
     inkscape:window-x="0"
     inkscape:window-y="43"
     inkscape:window-maximized="0"
     inkscape:current-layer="text3001" />
  <metadata
     id="metadata90">
    <rdf:RDF>
      <cc:Work
         rdf:about="">
        <dc:format>image/svg+xml</dc:format>
        <dc:type
           rdf:resource="http://purl.org/dc/dcmitype/StillImage" />
        <dc:title>Gnome Symbolic Icon Theme</dc:title>
      </cc:Work>
    </rdf:RDF>
  </metadata>
  <title
     id="title9167">Gnome Symbolic Icon Theme</title>
  <g
     transform="scale(1.0501899,0.95220873)"
     style="font-size:18.70251083px;font-style:normal;font-variant:normal;font-weight:500;font-stretch:normal;line-height:125%;letter-spacing:0px;word-spacing:0px;fill:#bebebe;fill-opacity:1;stroke:none;font-family:Tlwg Typo;-inkscape-font-specification:Tlwg Typo Medium"
     id="text3001">
    <g
       id="g2985"
       transform="translate(-0.05422014,-7.386398e-8)">
      <path
         id="path3422"
         style="font-style:italic;font-weight:normal;font-family:Norasi;-inkscape-font-specification:Norasi Italic"
         d="m 8.637322,13.651446 c 0.1122087,10e-7 0.236892,-0.06234 0.3740502,-0.187025 0.137145,-0.124682 0.2992333,-0.311707 0.4862653,-0.561075 0.1994862,-0.261834 0.3304036,-0.430156 0.3927528,-0.504968 l 0.2805377,0.14962 c -0.5610826,0.860317 -0.9912399,1.43386 -1.2904733,1.720631 -0.2992464,0.286772 -0.6296571,0.430158 -0.9912331,0.430158 -0.2992454,0 -0.5236753,-0.08728 -0.6732904,-0.261835 C 7.0663064,14.249927 6.9291548,13.913282 6.804476,13.427016 L 6.2621032,11.182715 c -1.2094317,1.608417 -2.0011706,2.599649 -2.3752189,2.973699 -0.361583,0.361582 -0.7169304,0.542373 -1.0660431,0.542373 -0.286772,0 -0.5112019,-0.07481 -0.6732904,-0.22443 -0.1620881,-0.137152 -0.2431322,-0.330411 -0.2431327,-0.579778 5e-7,-0.187025 0.062342,-0.342879 0.1870251,-0.467563 0.1122153,-0.124682 0.2556011,-0.187024 0.4301578,-0.187025 0.1620881,1e-6 0.3615814,0.06234 0.5984803,0.187025 0.2368975,0.112216 0.3927516,0.168324 0.4675628,0.168323 0.2867704,1e-6 0.6109469,-0.299239 0.9725306,-0.897721 L 6.0937806,10.509424 5.5327052,8.2090155 C 5.4080188,7.647947 5.2958039,7.2925997 5.19606,7.1429724 5.1087789,6.9933598 4.9529248,6.9185498 4.7284973,6.9185423 4.653685,6.9185498 4.2921034,6.9871256 3.6437516,7.1242699 L 3.5876441,6.8250297 3.7933717,6.7689222 C 4.8905832,6.4073484 5.6199804,6.2265576 5.9815655,6.2265494 c 0.249363,8.2e-6 0.4363879,0.1122232 0.5610753,0.3366452 0.1371475,0.2244378 0.2805332,0.6608293 0.4301578,1.3091757 L 7.1598237,8.9197109 C 7.808172,7.9097819 8.3380759,7.2115555 8.7495371,6.8250297 9.1609856,6.4260509 9.5724404,6.2265576 9.9839028,6.2265494 c 0.2244222,8.2e-6 0.4052132,0.068584 0.5423732,0.2057276 0.149611,0.1246913 0.224421,0.2867796 0.22443,0.4862653 -9e-6,0.4488673 -0.218204,0.6732972 -0.654588,0.6732904 C 9.9714269,7.5918395 9.8031045,7.5419662 9.5911501,7.4422126 9.3791813,7.3300047 9.2233272,7.2738972 9.1235873,7.27389 c -0.3366516,7.2e-6 -0.9351313,0.754341 -1.795441,2.2630038 -5e-6,0.1246882 0.062337,0.4675672 0.1870251,1.0286382 0.1246781,0.561079 0.2493614,1.090983 0.3740502,1.589713 l 0.1683226,0.729398 c 0.1496143,0.511203 0.3428734,0.766804 0.5797778,0.766803"
         inkscape:connector-curvature="0" />
      <path
         inkscape:connector-curvature="0"
         id="path3424"
         style="font-size:15.58542728px;font-weight:normal;font-family:Padauk;-inkscape-font-specification:Padauk"
         d="m 13.439362,13.835111 c -2e-6,0.233376 -0.09683,0.436311 -0.290503,0.608805 -0.193673,0.172495 -0.41424,0.258743 -0.661705,0.258743 -0.247469,0 -0.468036,-0.08625 -0.661705,-0.258743 -0.193671,-0.172494 -0.290505,-0.375429 -0.290504,-0.608805 -1e-6,-0.233375 0.09683,-0.43631 0.290504,-0.608806 0.193669,-0.172494 0.414236,-0.258741 0.661705,-0.258743 0.247465,2e-6 0.468032,0.08625 0.661705,0.258743 0.193666,0.172496 0.290501,0.375431 0.290503,0.608806 M 12.487154,2.1003797 c 0.15063,1.24e-5 0.274363,0.060893 0.3712,0.1826417 0.107592,0.1217733 0.172148,0.3450018 0.19367,0.6696864 0.01075,0.1116258 0.01614,0.2333868 0.01614,0.3652834 -3e-6,0.131919 -3e-6,0.2689001 0,0.4109439 -3e-6,1.2074743 -0.0269,2.3591307 -0.0807,3.4549727 -0.04304,1.0857098 -0.123735,2.1561921 -0.242087,3.2114502 -0.03228,0.304407 -0.06456,0.547929 -0.09683,0.730567 -0.02153,0.172498 -0.04304,0.304406 -0.06456,0.395724 -0.01076,0.09132 -0.0269,0.152204 -0.04842,0.182641 -0.01076,0.0203 -0.0269,0.03044 -0.04842,0.03044 -0.02153,3e-6 -0.04304,-0.01014 -0.06456,-0.03044 -0.01076,-0.03044 -0.0269,-0.09132 -0.04842,-0.182641 -0.01076,-0.09132 -0.03228,-0.223226 -0.06456,-0.395724 -0.02153,-0.182638 -0.04842,-0.431234 -0.0807,-0.745787 C 12.110552,9.3350266 12.029856,8.2696176 11.98682,7.1839078 11.94378,6.0880658 11.92226,4.9364094 11.92226,3.7289351 c -10e-7,-0.1420438 -10e-7,-0.2790249 0,-0.4109439 -10e-7,-0.1318966 0.0054,-0.2536576 0.01614,-0.3652834 0.02152,-0.3246846 0.0807,-0.5479131 0.177531,-0.6696864 0.09683,-0.1217488 0.220567,-0.1826293 0.3712,-0.1826417" />
    </g>
  </g>
</svg>
