<?xml version="1.0" encoding="UTF-8" standalone="no"?>
<!-- Created with Inkscape (http://www.inkscape.org/) -->

<svg
   width="44.317707mm"
   height="44.317703mm"
   viewBox="0 0 44.317707 44.317703"
   version="1.1"
   id="svg6511"
   inkscape:version="1.2.1 (9c6d41e410, 2022-07-14)"
   sodipodi:docname="clock-face-symbolic.svg"
   xmlns:inkscape="http://www.inkscape.org/namespaces/inkscape"
   xmlns:sodipodi="http://sodipodi.sourceforge.net/DTD/sodipodi-0.dtd"
   xmlns="http://www.w3.org/2000/svg"
   xmlns:svg="http://www.w3.org/2000/svg">
  <sodipodi:namedview
     id="namedview6513"
     pagecolor="#ffffff"
     bordercolor="#000000"
     borderopacity="0.25"
     inkscape:showpageshadow="2"
     inkscape:pageopacity="0.0"
     inkscape:pagecheckerboard="0"
     inkscape:deskcolor="#d1d1d1"
     inkscape:document-units="mm"
     showgrid="false"
     inkscape:zoom="2.8284271"
     inkscape:cx="50.558135"
     inkscape:cy="122.1527"
     inkscape:window-width="1499"
     inkscape:window-height="1236"
     inkscape:window-x="650"
     inkscape:window-y="134"
     inkscape:window-maximized="0"
     inkscape:current-layer="layer1"
     showguides="true" />
  <defs
     id="defs6508">
    <clipPath
       clipPathUnits="userSpaceOnUse"
       id="clipPath2426">
      <path
         d="m 8060.68,5204.7 c -93.72,0 -175.9,82.2 -175.9,175.9 0,93.7 82.18,175.9 175.9,175.9 93.72,0 175.91,-82.2 175.91,-175.9 0,-93.7 -82.19,-175.9 -175.91,-175.9 z"
         id="path2424" />
    </clipPath>
    <linearGradient
       x1="0"
       y1="0"
       x2="1"
       y2="0"
       gradientUnits="userSpaceOnUse"
       gradientTransform="matrix(174.538,-302.309,-302.309,-174.538,7973.41,5531.8)"
       spreadMethod="pad"
       id="linearGradient2434">
      <stop
         style="stop-opacity:1;stop-color:#ededed"
         offset="0"
         id="stop2428" />
      <stop
         style="stop-opacity:1;stop-color:#ededed"
         offset="0.48211215"
         id="stop2430" />
      <stop
         style="stop-opacity:1;stop-color:#d0d0d0"
         offset="1"
         id="stop2432" />
    </linearGradient>
    <clipPath
       clipPathUnits="userSpaceOnUse"
       id="clipPath2444">
      <path
         d="m 8060.68,5224.3 c -83.29,0 -156.36,73 -156.36,156.3 0,83.3 73.07,156.4 156.36,156.4 83.3,0 156.37,-73.1 156.37,-156.4 0,-83.3 -73.07,-156.3 -156.37,-156.3 z"
         id="path2442" />
    </clipPath>
    <linearGradient
       x1="0"
       y1="0"
       x2="1"
       y2="0"
       gradientUnits="userSpaceOnUse"
       gradientTransform="matrix(155.141,-268.712,-268.712,-155.141,7983.11,5515)"
       spreadMethod="pad"
       id="linearGradient2452">
      <stop
         style="stop-opacity:1;stop-color:#d0d0d0"
         offset="0"
         id="stop2446" />
      <stop
         style="stop-opacity:1;stop-color:#ededed"
         offset="0.51788785"
         id="stop2448" />
      <stop
         style="stop-opacity:1;stop-color:#ededed"
         offset="1"
         id="stop2450" />
    </linearGradient>
  </defs>
  <g
     inkscape:label="Layer 1"
     inkscape:groupmode="layer"
     id="layer1"
     transform="translate(0.09317171,-98.332576)">
    <g
       id="use51"
       style="fill:#000000;stroke:none"
       transform="matrix(0.02215885,0,0,0.02215885,22.065678,120.49143)">
      <g
         id="use4032">
        <g
           id="use4042">
          <path
             id="use4104"
             d="m 84.638025,-996.61246 39.780875,4.18113 -10.45285,99.45219 -39.780871,-4.18114 z" />
          <path
             id="use4106"
             d="m 188.34874,-982.30583 39.1259,8.31646 -20.79117,97.81476 -39.1259,-8.31646 z" />
          <path
             id="use4108"
             d="m 289.99586,-957.23686 38.04226,12.36068 -30.90169,95.10566 -38.04227,-12.36068 z" />
          <path
             id="use4110"
             d="m 388.46573,-921.68019 36.54182,16.26947 -40.67366,91.35454 -36.54182,-16.26946 z" />
        </g>
        <g
           id="use4044"
           transform="rotate(30)">
          <path
             id="use4114"
             d="m 84.638025,-996.61246 39.780875,4.18113 -10.45285,99.45219 -39.780871,-4.18114 z" />
          <path
             id="use4116"
             d="m 188.34874,-982.30583 39.1259,8.31646 -20.79117,97.81476 -39.1259,-8.31646 z" />
          <path
             id="use4118"
             d="m 289.99586,-957.23686 38.04226,12.36068 -30.90169,95.10566 -38.04227,-12.36068 z" />
          <path
             id="use4120"
             d="m 388.46573,-921.68019 36.54182,16.26947 -40.67366,91.35454 -36.54182,-16.26946 z" />
        </g>
        <g
           id="use4046"
           transform="rotate(60)">
          <path
             id="use4124"
             d="m 84.638025,-996.61246 39.780875,4.18113 -10.45285,99.45219 -39.780871,-4.18114 z" />
          <path
             id="use4126"
             d="m 188.34874,-982.30583 39.1259,8.31646 -20.79117,97.81476 -39.1259,-8.31646 z" />
          <path
             id="use4128"
             d="m 289.99586,-957.23686 38.04226,12.36068 -30.90169,95.10566 -38.04227,-12.36068 z" />
          <path
             id="use4130"
             d="m 388.46573,-921.68019 36.54182,16.26947 -40.67366,91.35454 -36.54182,-16.26946 z" />
        </g>
        <path
           id="use4048"
           d="m -40,-1000 h 80 v 300 h -80 z" />
        <path
           id="use4050"
           d="m 465.35898,-886.0254 69.28204,40 -120,207.84609 -69.28204,-40 z" />
        <path
           id="use4052"
           d="m 846.0254,-534.64102 40,69.28204 -207.84609,120 -40,-69.28204 z" />
      </g>
      <g
         id="use4034"
         transform="rotate(90)">
        <g
           id="use4056">
          <path
             id="use4134"
             d="m 84.638025,-996.61246 39.780875,4.18113 -10.45285,99.45219 -39.780871,-4.18114 z" />
          <path
             id="use4136"
             d="m 188.34874,-982.30583 39.1259,8.31646 -20.79117,97.81476 -39.1259,-8.31646 z" />
          <path
             id="use4138"
             d="m 289.99586,-957.23686 38.04226,12.36068 -30.90169,95.10566 -38.04227,-12.36068 z" />
          <path
             id="use4140"
             d="m 388.46573,-921.68019 36.54182,16.26947 -40.67366,91.35454 -36.54182,-16.26946 z" />
        </g>
        <g
           id="use4058"
           transform="rotate(30)">
          <path
             id="use4144"
             d="m 84.638025,-996.61246 39.780875,4.18113 -10.45285,99.45219 -39.780871,-4.18114 z" />
          <path
             id="use4146"
             d="m 188.34874,-982.30583 39.1259,8.31646 -20.79117,97.81476 -39.1259,-8.31646 z" />
          <path
             id="use4148"
             d="m 289.99586,-957.23686 38.04226,12.36068 -30.90169,95.10566 -38.04227,-12.36068 z" />
          <path
             id="use4150"
             d="m 388.46573,-921.68019 36.54182,16.26947 -40.67366,91.35454 -36.54182,-16.26946 z" />
        </g>
        <g
           id="use4060"
           transform="rotate(60)">
          <path
             id="use4154"
             d="m 84.638025,-996.61246 39.780875,4.18113 -10.45285,99.45219 -39.780871,-4.18114 z" />
          <path
             id="use4156"
             d="m 188.34874,-982.30583 39.1259,8.31646 -20.79117,97.81476 -39.1259,-8.31646 z" />
          <path
             id="use4158"
             d="m 289.99586,-957.23686 38.04226,12.36068 -30.90169,95.10566 -38.04227,-12.36068 z" />
          <path
             id="use4160"
             d="m 388.46573,-921.68019 36.54182,16.26947 -40.67366,91.35454 -36.54182,-16.26946 z" />
        </g>
        <path
           id="use4062"
           d="m -40,-1000 h 80 v 300 h -80 z" />
        <path
           id="use4064"
           d="m 465.35898,-886.0254 69.28204,40 -120,207.84609 -69.28204,-40 z" />
        <path
           id="use4066"
           d="m 846.0254,-534.64102 40,69.28204 -207.84609,120 -40,-69.28204 z" />
      </g>
      <g
         id="use4036"
         transform="scale(-1)">
        <g
           id="use4070">
          <path
             id="use4164"
             d="m 84.638025,-996.61246 39.780875,4.18113 -10.45285,99.45219 -39.780871,-4.18114 z" />
          <path
             id="use4166"
             d="m 188.34874,-982.30583 39.1259,8.31646 -20.79117,97.81476 -39.1259,-8.31646 z" />
          <path
             id="use4168"
             d="m 289.99586,-957.23686 38.04226,12.36068 -30.90169,95.10566 -38.04227,-12.36068 z" />
          <path
             id="use4170"
             d="m 388.46573,-921.68019 36.54182,16.26947 -40.67366,91.35454 -36.54182,-16.26946 z" />
        </g>
        <g
           id="use4072"
           transform="rotate(30)">
          <path
             id="use4174"
             d="m 84.638025,-996.61246 39.780875,4.18113 -10.45285,99.45219 -39.780871,-4.18114 z" />
          <path
             id="use4176"
             d="m 188.34874,-982.30583 39.1259,8.31646 -20.79117,97.81476 -39.1259,-8.31646 z" />
          <path
             id="use4178"
             d="m 289.99586,-957.23686 38.04226,12.36068 -30.90169,95.10566 -38.04227,-12.36068 z" />
          <path
             id="use4180"
             d="m 388.46573,-921.68019 36.54182,16.26947 -40.67366,91.35454 -36.54182,-16.26946 z" />
        </g>
        <g
           id="use4074"
           transform="rotate(60)">
          <path
             id="use4184"
             d="m 84.638025,-996.61246 39.780875,4.18113 -10.45285,99.45219 -39.780871,-4.18114 z" />
          <path
             id="use4186"
             d="m 188.34874,-982.30583 39.1259,8.31646 -20.79117,97.81476 -39.1259,-8.31646 z" />
          <path
             id="use4188"
             d="m 289.99586,-957.23686 38.04226,12.36068 -30.90169,95.10566 -38.04227,-12.36068 z" />
          <path
             id="use4190"
             d="m 388.46573,-921.68019 36.54182,16.26947 -40.67366,91.35454 -36.54182,-16.26946 z" />
        </g>
        <path
           id="use4076"
           d="m -40,-1000 h 80 v 300 h -80 z" />
        <path
           id="use4078"
           d="m 465.35898,-886.0254 69.28204,40 -120,207.84609 -69.28204,-40 z" />
        <path
           id="use4080"
           d="m 846.0254,-534.64102 40,69.28204 -207.84609,120 -40,-69.28204 z" />
      </g>
      <g
         id="use4038"
         transform="rotate(-90)">
        <g
           id="use4084">
          <path
             id="use4194"
             d="m 84.638025,-996.61246 39.780875,4.18113 -10.45285,99.45219 -39.780871,-4.18114 z" />
          <path
             id="use4196"
             d="m 188.34874,-982.30583 39.1259,8.31646 -20.79117,97.81476 -39.1259,-8.31646 z" />
          <path
             id="use4198"
             d="m 289.99586,-957.23686 38.04226,12.36068 -30.90169,95.10566 -38.04227,-12.36068 z" />
          <path
             id="use4200"
             d="m 388.46573,-921.68019 36.54182,16.26947 -40.67366,91.35454 -36.54182,-16.26946 z" />
        </g>
        <g
           id="use4086"
           transform="rotate(30)">
          <path
             id="use4204"
             d="m 84.638025,-996.61246 39.780875,4.18113 -10.45285,99.45219 -39.780871,-4.18114 z" />
          <path
             id="use4206"
             d="m 188.34874,-982.30583 39.1259,8.31646 -20.79117,97.81476 -39.1259,-8.31646 z" />
          <path
             id="use4208"
             d="m 289.99586,-957.23686 38.04226,12.36068 -30.90169,95.10566 -38.04227,-12.36068 z" />
          <path
             id="use4210"
             d="m 388.46573,-921.68019 36.54182,16.26947 -40.67366,91.35454 -36.54182,-16.26946 z" />
        </g>
        <g
           id="use4088"
           transform="rotate(60)">
          <path
             id="use4214"
             d="m 84.638025,-996.61246 39.780875,4.18113 -10.45285,99.45219 -39.780871,-4.18114 z" />
          <path
             id="use4216"
             d="m 188.34874,-982.30583 39.1259,8.31646 -20.79117,97.81476 -39.1259,-8.31646 z" />
          <path
             id="use4218"
             d="m 289.99586,-957.23686 38.04226,12.36068 -30.90169,95.10566 -38.04227,-12.36068 z" />
          <path
             id="use4220"
             d="m 388.46573,-921.68019 36.54182,16.26947 -40.67366,91.35454 -36.54182,-16.26946 z" />
        </g>
        <path
           id="use4090"
           d="m -40,-1000 h 80 v 300 h -80 z" />
        <path
           id="use4092"
           d="m 465.35898,-886.0254 69.28204,40 -120,207.84609 -69.28204,-40 z" />
        <path
           id="use4094"
           d="m 846.0254,-534.64102 40,69.28204 -207.84609,120 -40,-69.28204 z" />
      </g>
    </g>
  </g>
</svg>
