<?xml version="1.0" encoding="utf-8"?>
<!-- Generator: Adobe Illustrator 15.1.0, SVG Export Plug-In . SVG Version: 6.00 Build 0)  -->
<!DOCTYPE svg PUBLIC "-//W3C//DTD SVG 1.1//EN" "http://www.w3.org/Graphics/SVG/1.1/DTD/svg11.dtd">
<svg version="1.1" id="Layer_1" xmlns="http://www.w3.org/2000/svg" xmlns:xlink="http://www.w3.org/1999/xlink" x="0px" y="0px"
	 width="512px" height="512px" viewBox="0 0 512 512" enable-background="new 0 0 512 512" xml:space="preserve">

<path fill-rule="evenodd" clip-rule="evenodd" fill="#1D1D1B" d="M400,160c-5.312,0-10.562,0.375-15.792,1.125
	C354.334,120.417,307.188,96,256,96s-98.312,24.417-128.208,65.125C122.562,160.375,117.312,160,112,160C50.25,160,0,210.25,0,272
	c0,61.75,50.25,112,112,112c13.688,0,27.084-2.5,39.709-7.333C180.666,401.917,217.5,416,256,416
	c38.542,0,75.333-14.083,104.291-39.333C372.916,381.5,386.312,384,400,384c61.75,0,112-50.25,112-112
	C512,210.25,461.75,160,400,160z M400,352c-17.125,0-32.916-5.5-45.938-14.667C330.584,365.624,295.624,384,256,384
	c-39.625,0-74.584-18.376-98.062-46.667C144.938,346.5,129.125,352,112,352c-44.188,0-80-35.812-80-80s35.812-80,80-80
	c10.812,0,21.062,2.208,30.438,6.083C163.667,156.667,206.291,128,256,128s92.334,28.667,113.541,70.083
	C378.938,194.208,389.209,192,400,192c44.188,0,80,35.812,80,80S444.188,352,400,352z"/>
</svg>
