<?xml version="1.0" encoding="UTF-8" standalone="no"?>
<!-- Generator: Adobe Illustrator 24.0.3, SVG Export Plug-In . SVG Version: 6.00 Build 0)  -->

<svg
   version="1.1"
   id="Layer_1"
   x="0px"
   y="0px"
   viewBox="0 0 883.6 499"
   xml:space="preserve"
   sodipodi:docname="frame-2.svg"
   inkscape:label="Layer_1"
   inkscape:version="1.1.2 (0a00cf5339, 2022-02-04)"
   width="883.59998"
   height="499"
   inkscape:groupmode="layer"
   xmlns:inkscape="http://www.inkscape.org/namespaces/inkscape"
   xmlns:sodipodi="http://sodipodi.sourceforge.net/DTD/sodipodi-0.dtd"
   xmlns="http://www.w3.org/2000/svg"
   xmlns:svg="http://www.w3.org/2000/svg"
   xmlns:ns="&amp;ns_sfw;"><defs
   id="defs1293" /><sodipodi:namedview
   id="namedview1291"
   pagecolor="#ffffff"
   bordercolor="#666666"
   borderopacity="1.0"
   inkscape:pageshadow="2"
   inkscape:pageopacity="0.0"
   inkscape:pagecheckerboard="0"
   showgrid="false"
   inkscape:zoom="6.1113628"
   inkscape:cx="673.58135"
   inkscape:cy="40.661962"
   inkscape:window-width="2560"
   inkscape:window-height="997"
   inkscape:window-x="0"
   inkscape:window-y="0"
   inkscape:window-maximized="1"
   inkscape:current-layer="Layer_1"
   height="499px" />
<style
   type="text/css"
   id="style2">
	.st0{fill-rule:evenodd;clip-rule:evenodd;fill:url(#SVGID_1_);}
	.st1{fill-rule:evenodd;clip-rule:evenodd;fill:url(#SVGID_2_);}
	.st2{fill-rule:evenodd;clip-rule:evenodd;fill:#CDA607;}
	.st3{fill-rule:evenodd;clip-rule:evenodd;fill:#FECC00;}
	.st4{fill-rule:evenodd;clip-rule:evenodd;fill:url(#SVGID_3_);}
	.st5{fill-rule:evenodd;clip-rule:evenodd;fill:url(#SVGID_4_);}
	.st6{fill-rule:evenodd;clip-rule:evenodd;fill:url(#SVGID_5_);}
	.st7{fill-rule:evenodd;clip-rule:evenodd;fill:url(#SVGID_6_);}
	.st8{fill-rule:evenodd;clip-rule:evenodd;fill:url(#SVGID_7_);}
	.st9{fill-rule:evenodd;clip-rule:evenodd;fill:#DFB408;}
	.st10{fill-rule:evenodd;clip-rule:evenodd;fill:#898989;}
	.st11{fill-rule:evenodd;clip-rule:evenodd;fill:#2B2A29;}
	.st12{fill-rule:evenodd;clip-rule:evenodd;fill:url(#SVGID_8_);}
	.st13{fill-rule:evenodd;clip-rule:evenodd;fill:url(#SVGID_9_);}
	.st14{fill-rule:evenodd;clip-rule:evenodd;fill:url(#SVGID_10_);}
	.st15{fill-rule:evenodd;clip-rule:evenodd;fill:url(#SVGID_11_);}
	.st16{fill-rule:evenodd;clip-rule:evenodd;fill:url(#SVGID_12_);}
	.st17{fill-rule:evenodd;clip-rule:evenodd;fill:url(#SVGID_13_);}
	.st18{fill-rule:evenodd;clip-rule:evenodd;fill:url(#SVGID_14_);}
	.st19{fill-rule:evenodd;clip-rule:evenodd;fill:url(#SVGID_15_);}
	.st20{fill-rule:evenodd;clip-rule:evenodd;fill:url(#SVGID_16_);}
	.st21{fill-rule:evenodd;clip-rule:evenodd;fill:url(#SVGID_17_);}
	.st22{fill-rule:evenodd;clip-rule:evenodd;fill:#009846;}
	.st23{fill-rule:evenodd;clip-rule:evenodd;fill:#217549;}
	.st24{fill-rule:evenodd;clip-rule:evenodd;fill:#0E8544;}
	.st25{fill-rule:evenodd;clip-rule:evenodd;fill:#06803B;}
	.st26{fill-rule:evenodd;clip-rule:evenodd;fill:#09803D;}
	.st27{fill-rule:evenodd;clip-rule:evenodd;fill:url(#SVGID_18_);}
	.st28{fill-rule:evenodd;clip-rule:evenodd;fill:url(#SVGID_19_);}
	.st29{fill-rule:evenodd;clip-rule:evenodd;fill:url(#SVGID_20_);}
	.st30{fill-rule:evenodd;clip-rule:evenodd;fill:url(#SVGID_21_);}
	.st31{fill-rule:evenodd;clip-rule:evenodd;fill:url(#SVGID_22_);}
	.st32{fill-rule:evenodd;clip-rule:evenodd;fill:url(#SVGID_23_);}
	.st33{fill-rule:evenodd;clip-rule:evenodd;fill:url(#SVGID_24_);}
	.st34{fill-rule:evenodd;clip-rule:evenodd;fill:url(#SVGID_25_);}
	.st35{fill-rule:evenodd;clip-rule:evenodd;fill:url(#SVGID_26_);}
	.st36{fill-rule:evenodd;clip-rule:evenodd;fill:url(#SVGID_27_);}
</style>
<metadata
   id="CorelCorpID_0Corel-Layer">
	<ns:sfw>
		<ns:slices />
		<ns:sliceSourceBounds
   bottomLeftOrigin="true"
   height="494"
   width="883.6"
   x="0"
   y="0" />
	</ns:sfw>
</metadata>
<g
   id="Ebene_x0020_1">
	<g
   id="_876414320">
		
			<linearGradient
   id="SVGID_1_"
   gradientUnits="userSpaceOnUse"
   x1="23784.291"
   y1="-14504.771"
   x2="23784.291"
   y2="-16834.771"
   gradientTransform="matrix(0.0283052,0,0,-0.0283052,-233.2067,-118.1111)">
			<stop
   offset="0"
   style="stop-color:#623620"
   id="stop5" />
			<stop
   offset="0.1216"
   style="stop-color:#CC9E20"
   id="stop7" />
			<stop
   offset="0.2392"
   style="stop-color:#FFFFFF"
   id="stop9" />
			<stop
   offset="0.5216"
   style="stop-color:#CF9A30"
   id="stop11" />
			<stop
   offset="1"
   style="stop-color:#662D29"
   id="stop13" />
		</linearGradient>
		<path
   class="st0"
   d="M 862.1,358.4 H 20.2 c -14.3,-21.1 -14.8,-43.1 0,-66 280.6,0 561.2,0 841.9,0 9.5,21.7 13.2,43.4 0,66 z"
   id="path16" />
		
			<linearGradient
   id="SVGID_2_"
   gradientUnits="userSpaceOnUse"
   x1="31291.006"
   y1="-14907.271"
   x2="37842.004"
   y2="-14907.271"
   gradientTransform="matrix(0.0283052,0,0,-0.0283052,-233.2067,-118.1111)">
			<stop
   offset="0"
   style="stop-color:#623620"
   id="stop18" />
			<stop
   offset="0.1216"
   style="stop-color:#CC9E20"
   id="stop20" />
			<stop
   offset="0.2392"
   style="stop-color:#FFFFFF"
   id="stop22" />
			<stop
   offset="0.5216"
   style="stop-color:#CF9A30"
   id="stop24" />
			<stop
   offset="1"
   style="stop-color:#662D29"
   id="stop26" />
		</linearGradient>
		<path
   class="st1"
   d="m 652.5,306.5 c 0.3,11.4 41.7,20.6 92.7,20.6 51,0 92.4,-9.2 92.7,-20.6 v 0 -25.8 H 652.5 Z"
   id="path29" />
		<ellipse
   class="st2"
   cx="745.20001"
   cy="281.10001"
   rx="92.699997"
   ry="20.700001"
   id="ellipse31" />
		<ellipse
   class="st3"
   cx="745.20001"
   cy="281.10001"
   rx="84.300003"
   ry="18.9"
   id="ellipse33" />
		
			<linearGradient
   id="SVGID_3_"
   gradientUnits="userSpaceOnUse"
   x1="24052.006"
   y1="-14907.271"
   x2="30602.006"
   y2="-14907.271"
   gradientTransform="matrix(0.0283052,0,0,-0.0283052,-233.2067,-118.1111)">
			<stop
   offset="0"
   style="stop-color:#623620"
   id="stop35" />
			<stop
   offset="0.1216"
   style="stop-color:#CC9E20"
   id="stop37" />
			<stop
   offset="0.2392"
   style="stop-color:#FFFFFF"
   id="stop39" />
			<stop
   offset="0.5216"
   style="stop-color:#CF9A30"
   id="stop41" />
			<stop
   offset="1"
   style="stop-color:#662D29"
   id="stop43" />
		</linearGradient>
		<path
   class="st4"
   d="m 447.6,306.5 c 0.3,11.4 41.7,20.6 92.7,20.6 51,0 92.4,-9.2 92.7,-20.6 v 0 -25.8 H 447.6 Z"
   id="path46" />
		<ellipse
   class="st2"
   cx="540.29999"
   cy="281.10001"
   rx="92.699997"
   ry="20.700001"
   id="ellipse48" />
		<ellipse
   class="st3"
   cx="540.29999"
   cy="281.10001"
   rx="84.300003"
   ry="18.9"
   id="ellipse50" />
		
			<linearGradient
   id="SVGID_4_"
   gradientUnits="userSpaceOnUse"
   x1="16812.006"
   y1="-14907.271"
   x2="23363.006"
   y2="-14907.271"
   gradientTransform="matrix(0.0283052,0,0,-0.0283052,-233.2067,-118.1111)">
			<stop
   offset="0"
   style="stop-color:#623620"
   id="stop52" />
			<stop
   offset="0.1216"
   style="stop-color:#CC9E20"
   id="stop54" />
			<stop
   offset="0.2392"
   style="stop-color:#FFFFFF"
   id="stop56" />
			<stop
   offset="0.5216"
   style="stop-color:#CF9A30"
   id="stop58" />
			<stop
   offset="1"
   style="stop-color:#662D29"
   id="stop60" />
		</linearGradient>
		<path
   class="st5"
   d="m 242.7,306.5 c 0.3,11.4 41.7,20.6 92.7,20.6 51,0 92.4,-9.2 92.7,-20.6 v 0 -25.8 H 242.7 Z"
   id="path63" />
		<ellipse
   class="st2"
   cx="335.39999"
   cy="281.10001"
   rx="92.699997"
   ry="20.700001"
   id="ellipse65" />
		<ellipse
   class="st3"
   cx="335.39999"
   cy="281.10001"
   rx="84.300003"
   ry="18.9"
   id="ellipse67" />
		
			<linearGradient
   id="SVGID_5_"
   gradientUnits="userSpaceOnUse"
   x1="9574.0049"
   y1="-14907.271"
   x2="16124.005"
   y2="-14907.271"
   gradientTransform="matrix(0.0283052,0,0,-0.0283052,-233.2067,-118.1111)">
			<stop
   offset="0"
   style="stop-color:#623620"
   id="stop69" />
			<stop
   offset="0.1216"
   style="stop-color:#CC9E20"
   id="stop71" />
			<stop
   offset="0.2392"
   style="stop-color:#FFFFFF"
   id="stop73" />
			<stop
   offset="0.5216"
   style="stop-color:#CF9A30"
   id="stop75" />
			<stop
   offset="1"
   style="stop-color:#662D29"
   id="stop77" />
		</linearGradient>
		<path
   class="st6"
   d="m 37.8,306.5 c 0.3,11.4 41.7,20.6 92.7,20.6 51,0 92.4,-9.2 92.7,-20.6 v 0 -25.8 H 37.8 Z"
   id="path80" />
		<ellipse
   class="st2"
   cx="130.5"
   cy="281.10001"
   rx="92.699997"
   ry="20.700001"
   id="ellipse82" />
		<ellipse
   class="st3"
   cx="130.5"
   cy="281.10001"
   rx="84.300003"
   ry="18.9"
   id="ellipse84" />
		
			<linearGradient
   id="SVGID_6_"
   gradientUnits="userSpaceOnUse"
   x1="11246.005"
   y1="-12411.066"
   x2="14451.005"
   y2="-12411.066"
   gradientTransform="matrix(0.0283052,0,0,-0.0283052,-233.2067,-118.1111)">
			<stop
   offset="0"
   style="stop-color:#E73A3F"
   id="stop86" />
			<stop
   offset="0.5216"
   style="stop-color:#B32322"
   id="stop88" />
			<stop
   offset="1"
   style="stop-color:#8E241F"
   id="stop90" />
		</linearGradient>
		<path
   class="st7"
   d="m 175.8,199.8 c -0.4,-2.8 -4.9,-4.6 -7.8,-5.2 -4.6,-0.9 -10,1.5 -14.5,0.9 -6.1,-0.8 -11.5,-3.5 -17.3,-3.7 -8.4,-0.3 -21.3,-0.2 -29.1,0.6 -5.4,0.6 -9.1,3.3 -14.4,4.3 -3.5,0.7 -7.6,1.1 -7.6,3 v 74.9 h 90.7 z"
   id="path93" />
		
			<radialGradient
   id="SVGID_7_"
   cx="-236.85629"
   cy="626.2854"
   r="0.5"
   gradientTransform="matrix(90.7182,0,0,-26.0807,21617.646,16542.769)"
   gradientUnits="userSpaceOnUse">
			<stop
   offset="0"
   style="stop-color:#EBECEC"
   id="stop95" />
			<stop
   offset="1"
   style="stop-color:#F5B2B6"
   id="stop97" />
			<stop
   offset="1"
   style="stop-color:#F5B2B6"
   id="stop99" />
		</radialGradient>
		<path
   class="st8"
   d="m 175.8,203.8 c -0.9,-0.2 -1.8,-0.8 -2.5,-1.4 -0.1,0 -0.1,-0.1 -0.1,-0.1 -1.7,-1.4 -3.2,-3.3 -5.1,-3.7 -4.6,-0.9 -10,1.5 -14.5,0.9 -6.1,-0.8 -11.5,-3.5 -17.3,-3.6 -8.4,-0.3 -21.3,-0.2 -29.1,0.6 -5.4,0.6 -9.1,3.3 -14.4,4.3 -3.5,0.7 -4.2,2.1 -7.6,2.9 v 18 h 90.7 v -17.9 z"
   id="path102" />
		<path
   class="st3"
   d="m 111.4,182.4 c 4.1,24.7 33.7,22.1 37.2,0 3,-18.9 1.90317,-50.11552 -4.29683,-68.11552 C 138.10317,132.38448 108.2,163.5 111.4,182.4 Z"
   id="path104"
   style="fill:#fe8a00;fill-opacity:1"
   sodipodi:nodetypes="cccc" />
		<path
   class="st9"
   d="m 115.4,189.4 c 3.2,15.3 26.4,13.7 29.2,0 2.3,-11.8 0.37676,-32.83711 -7.72324,-41.73711 C 128.77676,157.26289 112.9,177.6 115.4,189.4 Z"
   id="path106"
   style="fill:#dfa408;fill-opacity:1"
   sodipodi:nodetypes="cccc" />
		<path
   class="st10"
   d="m 120.3,187.3 c 0,-0.1 10.2,-2.2 10.8,8.4 0.1,3.4 -0.5,6.9 -1.3,9.9 -0.2,0.8 -1.3,1 -1.3,0 -0.2,-3 1,-6 0.8,-9 -0.6,-10.4 -8.8,-6 -9,-9.3 z"
   id="path108" />
		<path
   class="st11"
   d="m 130.9,200.2 c -0.2,1.9 -0.7,3.7 -1,5.3 -0.2,0.8 -1.3,1 -1.3,0 -0.1,-1.8 0.2,-3.6 0.5,-5.3 0.5,0.1 1.1,0.1 1.8,0 z"
   id="path110" />
		
			<linearGradient
   id="SVGID_8_"
   gradientUnits="userSpaceOnUse"
   x1="11246.005"
   y1="-12840.478"
   x2="14451.005"
   y2="-12840.478"
   gradientTransform="matrix(0.0283052,0,0,-0.0283052,-233.2067,-118.1111)">
			<stop
   offset="0"
   style="stop-color:#E73A3F"
   id="stop112" />
			<stop
   offset="0.5216"
   style="stop-color:#B32322"
   id="stop114" />
			<stop
   offset="1"
   style="stop-color:#8E241F"
   id="stop116" />
		</linearGradient>
		<path
   class="st12"
   d="m 175.8,199.8 c -0.8,0.3 -1.6,0.7 -2.3,1.2 -0.5,0.3 0.1,2.3 -0.3,2.6 -0.4,0.3 -1.8,-1.2 -2.2,-0.9 -2.1,1.4 -4.1,2.8 -6.3,3.5 -2.2,0.7 -5.2,-0.8 -7.4,-0.3 -4.7,1.1 -8.5,4.7 -13.2,5.1 -4.7,0.5 -10.2,-2.1 -14.9,-2.2 -6.2,-0.2 -12.9,1.1 -19.1,-0.1 -5,-0.9 -9.5,-4 -14.4,-5.5 -3.5,-1 -7.1,-2.2 -10.6,-3.5 v 78.2 c 0,4.2 0.5,4.9 3.7,5.9 29.1,9 56.8,10 84.9,-0.6 2.1,-0.8 2.1,-3.5 2.1,-5.9 -0.1,-81.2 0,3.7 0,-77.5 z"
   id="path119" />
		
			<linearGradient
   id="SVGID_9_"
   gradientUnits="userSpaceOnUse"
   x1="18486.006"
   y1="-11574.566"
   x2="21690.006"
   y2="-11574.566"
   gradientTransform="matrix(0.0283052,0,0,-0.0283052,-233.2067,-118.1111)">
			<stop
   offset="0"
   style="stop-color:#E73A3F"
   id="stop121" />
			<stop
   offset="0.5216"
   style="stop-color:#B32322"
   id="stop123" />
			<stop
   offset="1"
   style="stop-color:#8E241F"
   id="stop125" />
		</linearGradient>
		<path
   class="st13"
   d="m 380.7,150.8 c -0.4,-2.8 -4.9,-4.6 -7.8,-5.2 -4.7,-0.9 -10.1,1.5 -14.5,0.9 -6.1,-0.8 -11.5,-3.5 -17.4,-3.7 -8.3,-0.3 -21.3,-0.2 -29.1,0.6 -5.4,0.6 -9.2,3.3 -14.4,4.4 -3.5,0.7 -7.6,1.1 -7.6,3 v 125.6 h 90.7 V 150.8 Z"
   id="path128" />
		
			<radialGradient
   id="SVGID_10_"
   cx="-236.8555"
   cy="626.29108"
   r="0.5"
   gradientTransform="matrix(90.6899,0,0,-26.109,21815.783,16511.605)"
   gradientUnits="userSpaceOnUse">
			<stop
   offset="0"
   style="stop-color:#EBECEC"
   id="stop130" />
			<stop
   offset="1"
   style="stop-color:#F5B2B6"
   id="stop132" />
			<stop
   offset="1"
   style="stop-color:#F5B2B6"
   id="stop134" />
		</radialGradient>
		<path
   class="st14"
   d="m 380.7,154.8 c -0.9,-0.2 -1.8,-0.8 -2.5,-1.4 -0.1,0 -0.1,-0.1 -0.1,-0.1 -1.7,-1.4 -3.2,-3.3 -5.1,-3.7 -4.7,-0.9 -10.1,1.5 -14.5,0.9 -6.1,-0.8 -11.5,-3.5 -17.4,-3.7 -8.3,-0.3 -21.3,-0.2 -29.1,0.6 -5.4,0.6 -9.2,3.3 -14.4,4.4 -3.5,0.7 -4.2,2.1 -7.6,2.9 v 18 h 90.7 v -17.9 z"
   id="path137" />
		<path
   class="st3"
   d="m 316.3,133.4 c 4.1,24.6 33.7,22.1 37.2,0 3,-18.9 -2.90256,-49.866388 -9.00256,-67.966388 C 338.29744,83.533612 313.1,114.5 316.3,133.4 Z"
   id="path139"
   style="fill:#fe8700;fill-opacity:1"
   sodipodi:nodetypes="cccc" />
		<path
   class="st9"
   d="m 320.3,140.3 c 3.3,15.3 26.5,13.8 29.2,0 2.3,-11.7 -2.19031,-30.94095 -10.19031,-39.94095 C 331.20969,110.05905 317.8,128.6 320.3,140.3 Z"
   id="path141"
   style="fill:#df9f08;fill-opacity:1"
   sodipodi:nodetypes="cccc" />
		<path
   class="st10"
   d="m 325.2,138.2 c 0,-0.1 10.2,-2.2 10.7,8.4 0.2,3.5 -0.5,6.9 -1.3,9.9 -0.2,0.8 -1.2,1 -1.3,0 -0.1,-3 1,-6 0.8,-9 -0.4,-10.3 -8.7,-6 -8.9,-9.3 z"
   id="path143" />
		<path
   class="st11"
   d="m 335.8,151.2 c -0.2,1.9 -0.7,3.7 -1.1,5.3 -0.2,0.8 -1.2,1 -1.3,0 -0.1,-1.8 0.3,-3.6 0.5,-5.3 0.6,0 1.2,0 1.9,0 z"
   id="path145" />
		
			<linearGradient
   id="SVGID_11_"
   gradientUnits="userSpaceOnUse"
   x1="18486.006"
   y1="-11974.478"
   x2="21690.006"
   y2="-11974.478"
   gradientTransform="matrix(0.0283052,0,0,-0.0283052,-233.2067,-118.1111)">
			<stop
   offset="0"
   style="stop-color:#E73A3F"
   id="stop147" />
			<stop
   offset="0.5216"
   style="stop-color:#B32322"
   id="stop149" />
			<stop
   offset="1"
   style="stop-color:#8E241F"
   id="stop151" />
		</linearGradient>
		<path
   class="st15"
   d="m 380.7,150.8 c -0.8,0.3 -1.6,0.7 -2.3,1.2 -0.5,0.3 0.1,2.3 -0.3,2.6 -0.4,0.3 -1.8,-1.2 -2.2,-0.9 -2.1,1.4 -4,2.8 -6.3,3.5 -2.2,0.7 -5.3,-0.8 -7.4,-0.3 -4.7,1.1 -8.5,4.6 -13.2,5.1 -4.7,0.5 -10.2,-2.1 -14.8,-2.2 -6.2,-0.2 -12.9,1.1 -19.2,-0.1 -5,-0.9 -9.5,-4 -14.4,-5.4 -3.5,-1 -7,-2.2 -10.5,-3.5 V 278 c 0,4.2 0.5,4.9 3.7,5.9 29,9 56.8,10 84.9,-0.6 2.1,-0.8 2.1,-3.5 2.1,-5.9 -0.2,-81.3 -0.1,-45.5 -0.1,-126.6 z"
   id="path154" />
		
			<linearGradient
   id="SVGID_12_"
   gradientUnits="userSpaceOnUse"
   x1="25725.006"
   y1="-10818.566"
   x2="28930.006"
   y2="-10818.566"
   gradientTransform="matrix(0.0283052,0,0,-0.0283052,-233.2067,-118.1111)">
			<stop
   offset="0"
   style="stop-color:#E73A3F"
   id="stop156" />
			<stop
   offset="0.5216"
   style="stop-color:#B32322"
   id="stop158" />
			<stop
   offset="1"
   style="stop-color:#8E241F"
   id="stop160" />
		</linearGradient>
		<path
   class="st16"
   d="m 585.7,109.1 c -0.4,-2.8 -5,-4.6 -7.8,-5.2 -4.7,-0.9 -10.1,1.5 -14.5,0.9 -6.1,-0.8 -11.5,-3.5 -17.4,-3.7 -8.4,-0.3 -21.3,-0.2 -29.1,0.6 -5.4,0.6 -9.1,3.3 -14.4,4.3 -3.5,0.7 -7.6,1.1 -7.6,3 v 166.2 h 90.7 V 109.1 Z"
   id="path163" />
		
			<radialGradient
   id="SVGID_13_"
   cx="-236.85629"
   cy="626.29108"
   r="0.5"
   gradientTransform="matrix(90.7182,0,0,-26.109,22027.477,16469.939)"
   gradientUnits="userSpaceOnUse">
			<stop
   offset="0"
   style="stop-color:#EBECEC"
   id="stop165" />
			<stop
   offset="1"
   style="stop-color:#F5B2B6"
   id="stop167" />
			<stop
   offset="1"
   style="stop-color:#F5B2B6"
   id="stop169" />
		</radialGradient>
		<path
   class="st17"
   d="m 585.7,113.1 c -1,-0.2 -1.8,-0.8 -2.5,-1.4 -0.1,0 -0.1,-0.1 -0.1,-0.1 -1.7,-1.4 -3.3,-3.3 -5.1,-3.7 -4.7,-0.9 -10.1,1.5 -14.5,0.9 -6.1,-0.8 -11.5,-3.5 -17.4,-3.7 -8.4,-0.3 -21.3,-0.2 -29.1,0.6 -5.4,0.6 -9.1,3.3 -14.4,4.4 -3.5,0.7 -4.2,2.1 -7.6,2.9 v 18 h 90.7 z"
   id="path172" />
		<path
   class="st3"
   d="m 521.2,91.7 c 4.1,24.6 33.7,22.1 37.2,0 C 561.3,72.8 542.54282,57.431413 536.34282,39.331413 530.14282,57.531413 518,72.9 521.2,91.7 Z"
   id="path174"
   style="fill:#fe9c00;fill-opacity:1"
   sodipodi:nodetypes="cccc" />
		<path
   class="st9"
   d="m 525.2,98.6 c 3.3,15.3 26.5,13.8 29.2,0 C 556.7,86.8 544.26868,76.870417 536.16868,67.870417 528.06868,77.570417 522.7,86.9 525.2,98.6 Z"
   id="path176"
   style="fill:#dfb108;fill-opacity:1"
   sodipodi:nodetypes="cccc" />
		<path
   class="st10"
   d="m 530.1,96.5 c 0,-0.1 10.2,-2.2 10.7,8.4 0.2,3.5 -0.5,6.9 -1.3,9.9 -0.2,0.8 -1.2,1 -1.3,0 -0.2,-3 0.9,-6 0.8,-9 -0.4,-10.3 -8.7,-5.9 -8.9,-9.3 z"
   id="path178" />
		<path
   class="st11"
   d="m 540.6,109.5 c -0.2,1.9 -0.6,3.7 -1,5.3 -0.2,0.8 -1.2,1 -1.3,0 -0.1,-1.8 0.3,-3.6 0.5,-5.3 0.6,0.1 1.2,0.1 1.8,0 z"
   id="path180" />
		
			<linearGradient
   id="SVGID_14_"
   gradientUnits="userSpaceOnUse"
   x1="25725.006"
   y1="-11238.478"
   x2="28930.006"
   y2="-11238.478"
   gradientTransform="matrix(0.0283052,0,0,-0.0283052,-233.2067,-118.1111)">
			<stop
   offset="0"
   style="stop-color:#E73A3F"
   id="stop182" />
			<stop
   offset="0.5216"
   style="stop-color:#B32322"
   id="stop184" />
			<stop
   offset="1"
   style="stop-color:#8E241F"
   id="stop186" />
		</linearGradient>
		<path
   class="st18"
   d="m 585.7,109.1 c -0.8,0.3 -1.6,0.7 -2.3,1.2 -0.4,0.3 0.1,2.3 -0.3,2.6 -0.4,0.3 -1.9,-1.2 -2.3,-0.9 -2,1.4 -4,2.8 -6.3,3.5 -2.2,0.7 -5.2,-0.8 -7.4,-0.3 -4.7,1.1 -8.5,4.6 -13.2,5.1 -4.6,0.5 -10.2,-2.1 -14.8,-2.2 -6.3,-0.2 -12.9,1.1 -19.2,-0.1 -4.9,-0.9 -9.4,-4 -14.4,-5.4 -3.6,-1 -7.1,-2.2 -10.6,-3.5 v 168.8 c 0,4.2 0.5,4.9 3.7,5.9 29,9 56.8,10 84.9,-0.6 2.1,-0.8 2.1,-3.5 2.1,-5.9 0,-81.2 0.1,-87 0.1,-168.2 z"
   id="path189" />
		
			<linearGradient
   id="SVGID_15_"
   gradientUnits="userSpaceOnUse"
   x1="32963.004"
   y1="-10163.546"
   x2="36168.004"
   y2="-10163.546"
   gradientTransform="matrix(0.0283052,0,0,-0.0283052,-233.2067,-118.1111)">
			<stop
   offset="0"
   style="stop-color:#E73A3F"
   id="stop191" />
			<stop
   offset="0.5216"
   style="stop-color:#B32322"
   id="stop193" />
			<stop
   offset="1"
   style="stop-color:#8E241F"
   id="stop195" />
		</linearGradient>
		<path
   class="st19"
   d="m 790.5,71.7 c -0.4,-2.7 -4.9,-4.6 -7.8,-5.2 -4.7,-1 -10.1,1.5 -14.5,0.9 -6.1,-0.8 -11.5,-3.5 -17.4,-3.7 -8.4,-0.3 -21.3,-0.2 -29.1,0.6 -5.4,0.6 -9.1,3.3 -14.4,4.4 -3.5,0.7 -7.6,1.2 -7.7,3 v 203.8 h 90.7 V 71.7 Z"
   id="path198" />
		
			<radialGradient
   id="SVGID_16_"
   cx="-236.85629"
   cy="626.28729"
   r="0.5"
   gradientTransform="matrix(90.7182,0,0,-26.0901,22232.35,16420.613)"
   gradientUnits="userSpaceOnUse">
			<stop
   offset="0"
   style="stop-color:#EBECEC"
   id="stop200" />
			<stop
   offset="1"
   style="stop-color:#F5B2B6"
   id="stop202" />
			<stop
   offset="1"
   style="stop-color:#F5B2B6"
   id="stop204" />
		</radialGradient>
		<path
   class="st20"
   d="m 790.5,75.7 c -0.9,-0.2 -1.8,-0.8 -2.5,-1.4 -0.1,0 -0.1,0 -0.1,-0.1 -1.7,-1.4 -3.2,-3.3 -5.1,-3.7 -4.7,-0.9 -10.1,1.5 -14.5,0.9 -6.1,-0.8 -11.5,-3.5 -17.4,-3.7 -8.4,-0.3 -21.3,-0.2 -29.1,0.6 -5.4,0.6 -9.1,3.3 -14.4,4.4 -3.5,0.7 -4.2,2.1 -7.7,2.9 v 18 h 90.7 V 75.7 Z"
   id="path207" />
		<path
   class="st3"
   d="m 726.1,54.4 c 4.1,24.6 33.7,22.1 37.2,0 3,-18.9 -13.05734,-25.726514 -19.25734,-43.826514 C 737.84266,28.673486 723,35.5 726.1,54.4 Z"
   id="path209"
   style="fill:#fe8a00;fill-opacity:1"
   sodipodi:nodetypes="cccc" />
		<path
   class="st9"
   d="m 730.1,61.3 c 3.3,15.3 26.5,13.8 29.2,0 C 761.6,49.6 751.93357,40.360282 743.93357,31.360282 735.83357,40.960282 727.6,49.6 730.1,61.3 Z"
   id="path211"
   style="fill:#dfa308;fill-opacity:1"
   sodipodi:nodetypes="cccc" />
		<path
   class="st10"
   d="m 735,59.2 c 0,-0.1 10.2,-2.1 10.8,8.4 0.2,3.4 -0.5,6.9 -1.3,9.9 -0.2,0.8 -1.2,1 -1.3,0 -0.2,-3 0.9,-5.9 0.8,-9 -0.5,-10.4 -8.8,-6 -9,-9.3 z"
   id="path213" />
		<path
   class="st11"
   d="m 745.6,72.1 c -0.2,1.9 -0.6,3.7 -1,5.3 -0.2,0.8 -1.2,1 -1.3,0 -0.1,-1.8 0.3,-3.5 0.5,-5.3 0.5,0.1 1.2,0.1 1.8,0 z"
   id="path215" />
		
			<linearGradient
   id="SVGID_17_"
   gradientUnits="userSpaceOnUse"
   x1="32963.004"
   y1="-10577.978"
   x2="36168.004"
   y2="-10577.978"
   gradientTransform="matrix(0.0283052,0,0,-0.0283052,-233.2067,-118.1111)">
			<stop
   offset="0"
   style="stop-color:#E73A3F"
   id="stop217" />
			<stop
   offset="0.5216"
   style="stop-color:#B32322"
   id="stop219" />
			<stop
   offset="1"
   style="stop-color:#8E241F"
   id="stop221" />
		</linearGradient>
		<path
   class="st21"
   d="m 790.5,71.7 c -0.8,0.3 -1.5,0.8 -2.3,1.2 -0.4,0.3 0.1,2.3 -0.3,2.6 -0.4,0.3 -1.8,-1.2 -2.2,-1 -2,1.4 -4,2.8 -6.3,3.5 -2.2,0.7 -5.3,-0.8 -7.4,-0.3 -4.7,1.1 -8.5,4.6 -13.2,5.1 -4.6,0.5 -10.2,-2.1 -14.8,-2.2 -6.3,-0.2 -12.9,1.1 -19.2,-0.1 -4.9,-0.9 -9.5,-4 -14.4,-5.4 -3.5,-1 -7,-2.2 -10.6,-3.5 v 206.2 c 0,4.2 0.5,4.9 3.7,5.9 29,9 56.8,10 84.9,-0.6 2.1,-0.8 2.1,-3.5 2.1,-5.9 0,-81.1 0,-124.3 0,-205.5 z"
   id="path224" />
		<g
   id="g1286">
			<g
   id="g436">
				<path
   class="st22"
   d="m 216.8,416 c -6.2,-7.2 -39.4,-29.5 -48.7,-36.3 8.3,11.7 37.8,29.7 48.7,36.3 z"
   id="path226" />
				<path
   class="st22"
   d="M 42.1,351.6 C 38.3,360.3 13.2,391.4 6.3,400.7 10.8,387 33.7,361.1 42.1,351.6 Z"
   id="path228" />
				<path
   class="st22"
   d="m 48.3,353.8 c -4.2,8.5 -30.7,38.5 -38,47.4 5,-13.4 29.1,-38.3 38,-47.4 z"
   id="path230" />
				<path
   class="st22"
   d="m 52.9,436 c -5.9,-7.4 -38,-31.2 -47,-38.5 7.7,12.2 36.4,31.5 47,38.5 z"
   id="path232" />
				<path
   class="st22"
   d="m 59.8,434.8 c -6.2,-7.2 -39.4,-29.5 -48.7,-36.3 8.3,11.7 37.8,29.7 48.7,36.3 z"
   id="path234" />
				<path
   class="st23"
   d="m 196.9,332.4 c -3.8,8.7 -28.9,39.8 -35.8,49.1 4.4,-13.7 27.3,-39.7 35.8,-49.1 z"
   id="path236" />
				<path
   class="st24"
   d="m 111.2,343.4 c -3.8,8.7 -28.9,39.8 -35.8,49.1 4.4,-13.7 27.3,-39.6 35.8,-49.1 z"
   id="path238" />
				<path
   class="st23"
   d="m 203.8,334.2 c -4.2,8.5 -30.7,38.4 -38,47.4 5.1,-13.5 29.1,-38.3 38,-47.4 z"
   id="path240" />
				<path
   class="st24"
   d="m 120,344.1 c -4.2,8.5 -30.7,38.5 -38,47.4 5,-13.4 29,-38.3 38,-47.4 z"
   id="path242" />
				<path
   class="st22"
   d="m 141.6,338.6 c -3.8,8.7 -28.9,39.8 -35.8,49.1 4.4,-13.6 27.3,-39.6 35.8,-49.1 z"
   id="path244" />
				<path
   class="st22"
   d="m 55.2,352.2 c -3.8,8.7 -28.9,39.8 -35.8,49.1 4.4,-13.7 27.3,-39.6 35.8,-49.1 z"
   id="path246" />
				<path
   class="st22"
   d="m 148.7,338.7 c -4.2,8.5 -30.7,38.4 -38,47.4 5.1,-13.4 29.1,-38.3 38,-47.4 z"
   id="path248" />
				<path
   class="st22"
   d="m 62.4,352.2 c -4.2,8.5 -30.7,38.5 -38,47.4 5,-13.4 29,-38.3 38,-47.4 z"
   id="path250" />
				<path
   class="st22"
   d="m 155.6,336.4 c -3.8,8.7 -28.9,39.8 -35.8,49.1 4.4,-13.6 27.3,-39.6 35.8,-49.1 z"
   id="path252" />
				<path
   class="st24"
   d="m 69.2,350 c -3.8,8.7 -28.9,39.8 -35.8,49.1 4.4,-13.7 27.3,-39.6 35.8,-49.1 z"
   id="path254" />
				<path
   class="st22"
   d="m 162.8,337.1 c -4.2,8.5 -30.7,38.5 -38,47.4 5,-13.4 29.1,-38.2 38,-47.4 z"
   id="path256" />
				<path
   class="st24"
   d="m 76.4,350.7 c -4.2,8.5 -30.7,38.5 -37.9,47.4 4.9,-13.5 29,-38.3 37.9,-47.4 z"
   id="path258" />
				<path
   class="st22"
   d="m 169.5,334.2 c -3.8,8.7 -28.9,39.8 -35.8,49.1 4.5,-13.6 27.4,-39.6 35.8,-49.1 z"
   id="path260" />
				<path
   class="st24"
   d="m 83.2,347.8 c -3.8,8.7 -28.9,39.8 -35.8,49.1 4.4,-13.7 27.3,-39.6 35.8,-49.1 z"
   id="path262" />
				<path
   class="st22"
   d="m 176.8,335.6 c -4.2,8.5 -30.7,38.5 -37.9,47.4 5,-13.4 29,-38.3 37.9,-47.4 z"
   id="path264" />
				<path
   class="st24"
   d="M 91.7,348.1 C 87.5,356.6 61,386.6 53.8,395.5 58.7,382 82.7,357.2 91.7,348.1 Z"
   id="path266" />
				<path
   class="st22"
   d="m 183.5,332 c -3.8,8.7 -28.9,39.8 -35.8,49.1 4.5,-13.6 27.3,-39.5 35.8,-49.1 z"
   id="path268" />
				<path
   class="st24"
   d="m 97.2,345.6 c -3.8,8.7 -28.9,39.8 -35.8,49.1 4.4,-13.7 27.3,-39.6 35.8,-49.1 z"
   id="path270" />
				<path
   class="st23"
   d="m 190.9,334 c -4.2,8.5 -30.7,38.5 -37.9,47.4 4.9,-13.4 29,-38.3 37.9,-47.4 z"
   id="path272" />
				<path
   class="st24"
   d="m 105.3,346.5 c -4.2,8.5 -30.7,38.4 -37.9,47.4 5,-13.4 29,-38.3 37.9,-47.4 z"
   id="path274" />
				<path
   class="st22"
   d="m 127.6,340.8 c -3.8,8.7 -28.9,39.8 -35.8,49.1 4.4,-13.7 27.3,-39.6 35.8,-49.1 z"
   id="path276" />
				<path
   class="st22"
   d="m 134.6,340.3 c -4.2,8.5 -30.7,38.4 -37.9,47.4 5,-13.4 29,-38.3 37.9,-47.4 z"
   id="path278" />
				<path
   class="st22"
   d="m 210.3,420.4 c -5.9,-7.4 -38,-31.2 -47,-38.5 7.7,12.1 36.4,31.4 47,38.5 z"
   id="path280" />
				<path
   class="st22"
   d="m 123.3,429 c -5.9,-7.4 -38,-31.2 -47,-38.5 7.7,12.2 36.4,31.5 47,38.5 z"
   id="path282" />
				<path
   class="st22"
   d="m 129.8,424.7 c -6.2,-7.2 -39.4,-29.5 -48.7,-36.3 8.3,11.7 37.8,29.7 48.7,36.3 z"
   id="path284" />
				<path
   class="st22"
   d="m 153.9,426 c -5.9,-7.4 -38,-31.2 -47,-38.5 7.7,12.1 36.4,31.4 47,38.5 z"
   id="path286" />
				<path
   class="st22"
   d="m 68.1,436.6 c -5.9,-7.4 -38,-31.2 -47,-38.5 7.7,12.2 36.4,31.5 47,38.5 z"
   id="path288" />
				<path
   class="st25"
   d="m 160.8,424.1 c -6.2,-7.2 -39.4,-29.5 -48.7,-36.3 8.3,11.7 37.8,29.8 48.7,36.3 z"
   id="path290" />
				<path
   class="st26"
   d="M 74.2,434.3 C 68,427.1 34.8,404.8 25.5,398 c 8.3,11.7 37.8,29.7 48.7,36.3 z"
   id="path292" />
				<path
   class="st25"
   d="m 168,424.6 c -5.9,-7.4 -38,-31.2 -47,-38.5 7.7,12.1 36.4,31.4 47,38.5 z"
   id="path294" />
				<path
   class="st22"
   d="m 84.1,437.4 c -5.9,-7.5 -38,-31.2 -47,-38.5 7.7,12.1 36.4,31.4 47,38.5 z"
   id="path296" />
				<path
   class="st25"
   d="m 174.8,422.1 c -6.2,-7.2 -39.4,-29.5 -48.7,-36.3 8.3,11.7 37.8,29.7 48.7,36.3 z"
   id="path298" />
				<path
   class="st22"
   d="m 87.8,430.7 c -6.2,-7.2 -39.4,-29.5 -48.7,-36.3 8.3,11.8 37.8,29.8 48.7,36.3 z"
   id="path300" />
				<path
   class="st22"
   d="m 182.1,423.2 c -5.9,-7.4 -38,-31.2 -47,-38.5 7.7,12.1 36.4,31.4 47,38.5 z"
   id="path302" />
				<path
   class="st22"
   d="m 95.1,431.8 c -5.9,-7.4 -38,-31.2 -47,-38.5 7.7,12.2 36.4,31.5 47,38.5 z"
   id="path304" />
				<path
   class="st22"
   d="m 188.8,420 c -6.2,-7.2 -39.4,-29.5 -48.7,-36.3 8.3,11.8 37.8,29.8 48.7,36.3 z"
   id="path306" />
				<path
   class="st22"
   d="m 101.8,428.7 c -6.2,-7.2 -39.4,-29.5 -48.7,-36.3 8.3,11.7 37.8,29.7 48.7,36.3 z"
   id="path308" />
				<path
   class="st22"
   d="m 196.2,421.8 c -5.9,-7.4 -38,-31.2 -47,-38.5 7.7,12.1 36.4,31.4 47,38.5 z"
   id="path310" />
				<path
   class="st22"
   d="m 109.2,430.4 c -5.9,-7.4 -38,-31.2 -47,-38.5 7.7,12.2 36.4,31.5 47,38.5 z"
   id="path312" />
				<path
   class="st22"
   d="m 202.8,418 c -6.2,-7.2 -39.4,-29.5 -48.7,-36.3 8.3,11.7 37.8,29.7 48.7,36.3 z"
   id="path314" />
				<path
   class="st22"
   d="m 115.8,426.7 c -6.2,-7.2 -39.4,-29.5 -48.7,-36.3 8.3,11.7 37.8,29.7 48.7,36.3 z"
   id="path316" />
				<path
   class="st22"
   d="m 139.8,427.4 c -5.9,-7.4 -38,-31.2 -47,-38.5 7.7,12.1 36.4,31.4 47,38.5 z"
   id="path318" />
				<path
   class="st22"
   d="m 146.8,426.2 c -6.2,-7.2 -39.4,-29.5 -48.7,-36.3 8.2,11.7 37.8,29.7 48.7,36.3 z"
   id="path320" />
				
					<linearGradient
   id="SVGID_18_"
   gradientUnits="userSpaceOnUse"
   x1="12245.391"
   y1="-19714.283"
   x2="10716.229"
   y2="-16413.684"
   gradientTransform="matrix(0.0283052,0,0,-0.0283052,-233.2067,-118.1111)">
					<stop
   offset="0"
   style="stop-color:#AF9778"
   id="stop322" />
					<stop
   offset="0.5294"
   style="stop-color:#874C20"
   id="stop324" />
					<stop
   offset="1"
   style="stop-color:#6E411D"
   id="stop326" />
				</linearGradient>
				<polygon
   class="st27"
   points="173.6,379.4 121.7,381 87.7,386.3 53.3,388.8 30.2,398.3 0,393.6 0.7,400.7 31.7,407.5 52.9,396.1 99.9,391 128.7,386.4 168.6,384.5 182.6,385.2 "
   id="polygon329" />
				<path
   class="st22"
   d="m 227,290.4 c -9,-3.1 -48.9,-5.8 -60.3,-7.1 13,6.1 47.5,6.9 60.3,7.1 z"
   id="path331" />
				<path
   class="st22"
   d="m 43.5,322 c 1,9.5 -5.2,48.9 -6.4,60.4 -3,-14 3.8,-47.9 6.4,-60.4 z"
   id="path333" />
				<path
   class="st22"
   d="m 49.9,320.9 c 0.6,9.5 -7.3,48.6 -9.1,60 -2.4,-14.1 6,-47.7 9.1,-60 z"
   id="path335" />
				<path
   class="st22"
   d="m 95,389.8 c -8.8,-3.5 -48.5,-8 -59.9,-9.9 12.7,6.7 47.2,9.1 59.9,9.9 z"
   id="path337" />
				<path
   class="st22"
   d="m 100.4,385.3 c -8.9,-3.1 -48.8,-5.9 -60.3,-7.1 13,6 47.6,6.8 60.3,7.1 z"
   id="path339" />
				<path
   class="st23"
   d="m 167.8,228 c 1,9.4 -5.1,48.9 -6.4,60.4 -3,-14 3.9,-47.9 6.4,-60.4 z"
   id="path341" />
				<path
   class="st24"
   d="m 99.2,280.4 c 1,9.4 -5.2,48.9 -6.5,60.4 -3,-14 3.9,-47.9 6.5,-60.4 z"
   id="path343" />
				<path
   class="st23"
   d="m 174.8,226.1 c 0.6,9.5 -7.3,48.7 -9.1,60.1 -2.5,-14.2 5.9,-47.8 9.1,-60.1 z"
   id="path345" />
				<path
   class="st24"
   d="m 107.2,276.7 c 0.6,9.5 -7.3,48.7 -9.1,60 -2.5,-14.1 5.9,-47.7 9.1,-60 z"
   id="path347" />
				<path
   class="st22"
   d="m 123.2,261.1 c 1,9.4 -5.2,48.9 -6.5,60.4 -3,-14 3.9,-48 6.5,-60.4 z"
   id="path349" />
				<path
   class="st22"
   d="m 55.1,316 c 1,9.4 -5.2,48.9 -6.4,60.4 -3,-14.1 3.8,-48 6.4,-60.4 z"
   id="path351" />
				<path
   class="st22"
   d="m 129.4,257.5 c 0.6,9.5 -7.4,48.7 -9.2,60.1 -2.4,-14.1 6,-47.7 9.2,-60.1 z"
   id="path353" />
				<path
   class="st22"
   d="m 61.3,312.5 c 0.6,9.5 -7.3,48.7 -9.1,60.1 -2.4,-14.2 6,-47.8 9.1,-60.1 z"
   id="path355" />
				<path
   class="st22"
   d="m 134.2,252.2 c 1,9.4 -5.2,48.9 -6.5,60.4 -3,-14.1 3.9,-47.9 6.5,-60.4 z"
   id="path357" />
				<path
   class="st24"
   d="m 66.1,307.1 c 1,9.4 -5.2,48.9 -6.4,60.4 -3,-14.1 3.8,-47.9 6.4,-60.4 z"
   id="path359" />
				<path
   class="st22"
   d="m 140.7,249.2 c 0.6,9.5 -7.3,48.7 -9.1,60 -2.4,-14.1 6,-47.7 9.1,-60 z"
   id="path361" />
				<path
   class="st24"
   d="m 72.7,304.1 c 0.6,9.5 -7.3,48.7 -9.1,60 -2.4,-14.1 6,-47.7 9.1,-60 z"
   id="path363" />
				<path
   class="st22"
   d="m 145.2,243.3 c 1,9.4 -5.2,48.9 -6.5,60.4 -3,-14.1 3.9,-47.9 6.5,-60.4 z"
   id="path365" />
				<path
   class="st24"
   d="m 77.1,298.2 c 1,9.4 -5.1,48.9 -6.4,60.4 -3,-14 3.9,-47.9 6.4,-60.4 z"
   id="path367" />
				<path
   class="st22"
   d="m 152.1,240.8 c 0.6,9.5 -7.4,48.6 -9.1,60 -2.4,-14.1 6,-47.7 9.1,-60 z"
   id="path369" />
				<path
   class="st24"
   d="m 84.6,294.2 c 0.6,9.5 -7.3,48.6 -9.1,60 -2.4,-14.1 6,-47.7 9.1,-60 z"
   id="path371" />
				<path
   class="st22"
   d="m 156.2,234.4 c 1,9.4 -5.2,48.9 -6.5,60.4 -3,-14 3.9,-47.9 6.5,-60.4 z"
   id="path373" />
				<path
   class="st24"
   d="m 88.2,289.3 c 1,9.5 -5.2,48.9 -6.5,60.4 -3,-14 3.9,-47.9 6.5,-60.4 z"
   id="path375" />
				<path
   class="st23"
   d="m 163.5,232.4 c 0.6,9.5 -7.4,48.7 -9.1,60.1 -2.4,-14.2 6,-47.7 9.1,-60.1 z"
   id="path377" />
				<path
   class="st24"
   d="m 95.6,286 c 0.6,9.5 -7.3,48.7 -9.1,60.1 -2.4,-14.2 6,-47.8 9.1,-60.1 z"
   id="path379" />
				<path
   class="st22"
   d="m 112.1,269.9 c 1,9.5 -5.2,48.9 -6.5,60.4 -2.9,-14 3.9,-47.9 6.5,-60.4 z"
   id="path381" />
				<path
   class="st22"
   d="m 117.9,266 c 0.6,9.5 -7.4,48.6 -9.2,60 -2.3,-14.2 6.1,-47.7 9.2,-60 z"
   id="path383" />
				<path
   class="st22"
   d="m 223.5,297.5 c -8.8,-3.5 -48.5,-8 -60,-9.8 12.8,6.6 47.3,9 60,9.8 z"
   id="path385" />
				<path
   class="st22"
   d="m 152.5,348.5 c -8.8,-3.5 -48.5,-8 -59.9,-9.8 12.7,6.6 47.2,9 59.9,9.8 z"
   id="path387" />
				<path
   class="st22"
   d="m 156,341.4 c -8.9,-3.1 -48.8,-5.8 -60.3,-7.1 13,6 47.6,6.9 60.3,7.1 z"
   id="path389" />
				<path
   class="st22"
   d="m 177.5,330.5 c -8.8,-3.5 -48.5,-8 -59.9,-9.9 12.7,6.7 47.2,9.1 59.9,9.9 z"
   id="path391" />
				<path
   class="st22"
   d="m 108.5,382.7 c -8.8,-3.5 -48.5,-8 -59.9,-9.9 12.7,6.7 47.2,9.1 59.9,9.9 z"
   id="path393" />
				<path
   class="st25"
   d="m 182.5,325.5 c -8.9,-3.1 -48.8,-5.8 -60.3,-7.1 13,6 47.6,6.9 60.3,7.1 z"
   id="path395" />
				<path
   class="st26"
   d="m 112.7,377.6 c -9,-3.1 -48.9,-5.9 -60.3,-7.1 13,6 47.5,6.9 60.3,7.1 z"
   id="path397" />
				<path
   class="st25"
   d="m 189,322.3 c -8.8,-3.5 -48.5,-8 -60,-9.8 12.8,6.6 47.3,9 60,9.8 z"
   id="path399" />
				<path
   class="st22"
   d="m 122.7,375.3 c -8.8,-3.5 -48.5,-8 -60,-9.9 12.8,6.7 47.3,9.1 60,9.9 z"
   id="path401" />
				<path
   class="st25"
   d="m 193.6,316.7 c -9,-3.1 -48.9,-5.9 -60.3,-7.1 13,6.1 47.6,6.9 60.3,7.1 z"
   id="path403" />
				<path
   class="st22"
   d="m 122.6,367.7 c -9,-3.1 -48.9,-5.8 -60.3,-7.1 13,6 47.6,6.9 60.3,7.1 z"
   id="path405" />
				<path
   class="st22"
   d="m 200.5,314 c -8.8,-3.5 -48.5,-8 -60,-9.8 12.8,6.6 47.3,9 60,9.8 z"
   id="path407" />
				<path
   class="st22"
   d="m 129.5,365 c -8.8,-3.5 -48.5,-8 -60,-9.9 12.8,6.7 47.3,9.1 60,9.9 z"
   id="path409" />
				<path
   class="st22"
   d="m 204.8,308 c -9,-3.1 -48.9,-5.8 -60.3,-7.1 12.9,6 47.5,6.8 60.3,7.1 z"
   id="path411" />
				<path
   class="st22"
   d="m 133.7,359 c -8.9,-3.1 -48.9,-5.9 -60.3,-7.1 13,6 47.6,6.8 60.3,7.1 z"
   id="path413" />
				<path
   class="st22"
   d="m 212,305.8 c -8.8,-3.5 -48.5,-8 -60,-9.9 12.8,6.7 47.3,9.1 60,9.9 z"
   id="path415" />
				<path
   class="st22"
   d="m 141,356.8 c -8.8,-3.5 -48.5,-8 -59.9,-9.8 12.7,6.6 47.2,8.9 59.9,9.8 z"
   id="path417" />
				<path
   class="st22"
   d="m 215.9,299.2 c -8.9,-3.1 -48.8,-5.8 -60.3,-7.1 13,6 47.5,6.9 60.3,7.1 z"
   id="path419" />
				<path
   class="st22"
   d="m 144.9,350.2 c -9,-3.1 -48.9,-5.8 -60.3,-7.1 12.9,6 47.5,6.9 60.3,7.1 z"
   id="path421" />
				<path
   class="st22"
   d="m 166,338.8 c -8.8,-3.5 -48.5,-8 -59.9,-9.8 12.7,6.6 47.2,9 59.9,9.8 z"
   id="path423" />
				<path
   class="st22"
   d="m 171.4,334.3 c -9,-3.1 -48.9,-5.8 -60.3,-7.1 13,6 47.6,6.8 60.3,7.1 z"
   id="path425" />
				
					<linearGradient
   id="SVGID_19_"
   gradientUnits="userSpaceOnUse"
   x1="14676.772"
   y1="-17809.764"
   x2="9257.3779"
   y2="-13994.434"
   gradientTransform="matrix(0.0283052,0,0,-0.0283052,-233.2067,-118.1111)">
					<stop
   offset="0"
   style="stop-color:#AF9778"
   id="stop427" />
					<stop
   offset="0.5294"
   style="stop-color:#874C20"
   id="stop429" />
					<stop
   offset="1"
   style="stop-color:#6E411D"
   id="stop431" />
				</linearGradient>
				<polygon
   class="st28"
   points="171.2,280.4 127.1,307.7 100.3,329.3 71.8,348.7 56.5,368.4 28,379.4 32.2,385.2 62.4,375.6 75.1,355.2 113.2,327.2 135.9,308.9 169.5,287.3 181.9,281 "
   id="polygon434" />
			</g>
			<g
   id="g648">
				<path
   class="st22"
   d="m 670,416 c -6.2,-7.2 -39.4,-29.5 -48.7,-36.3 8.2,11.7 37.8,29.7 48.7,36.3 z"
   id="path438" />
				<path
   class="st22"
   d="m 495.3,351.6 c -3.8,8.7 -28.9,39.8 -35.8,49.1 4.4,-13.7 27.3,-39.6 35.8,-49.1 z"
   id="path440" />
				<path
   class="st22"
   d="m 501.4,353.8 c -4.2,8.5 -30.7,38.5 -37.9,47.4 5,-13.4 29,-38.3 37.9,-47.4 z"
   id="path442" />
				<path
   class="st22"
   d="m 506,436 c -5.9,-7.4 -38,-31.2 -47,-38.5 7.7,12.2 36.4,31.5 47,38.5 z"
   id="path444" />
				<path
   class="st22"
   d="m 512.9,434.8 c -6.2,-7.2 -39.4,-29.5 -48.7,-36.3 8.3,11.7 37.8,29.7 48.7,36.3 z"
   id="path446" />
				<path
   class="st23"
   d="m 650,332.4 c -3.8,8.7 -28.9,39.8 -35.8,49.1 4.4,-13.7 27.3,-39.7 35.8,-49.1 z"
   id="path448" />
				<path
   class="st24"
   d="m 564.3,343.4 c -3.8,8.7 -28.9,39.8 -35.8,49.1 4.4,-13.7 27.3,-39.6 35.8,-49.1 z"
   id="path450" />
				<path
   class="st23"
   d="m 656.9,334.2 c -4.2,8.5 -30.7,38.4 -38,47.4 5.1,-13.5 29.1,-38.3 38,-47.4 z"
   id="path452" />
				<path
   class="st24"
   d="m 573.1,344.1 c -4.2,8.5 -30.7,38.5 -38,47.4 5,-13.4 29.1,-38.3 38,-47.4 z"
   id="path454" />
				<path
   class="st22"
   d="m 594.7,338.6 c -3.8,8.7 -28.9,39.8 -35.8,49.1 4.4,-13.6 27.3,-39.6 35.8,-49.1 z"
   id="path456" />
				<path
   class="st22"
   d="m 508.4,352.2 c -3.8,8.7 -28.9,39.8 -35.8,49.1 4.4,-13.7 27.3,-39.6 35.8,-49.1 z"
   id="path458" />
				<path
   class="st22"
   d="m 601.8,338.7 c -4.2,8.5 -30.7,38.4 -37.9,47.4 5,-13.4 29,-38.3 37.9,-47.4 z"
   id="path460" />
				<path
   class="st22"
   d="m 515.5,352.2 c -4.2,8.5 -30.7,38.5 -38,47.4 5,-13.4 29.1,-38.3 38,-47.4 z"
   id="path462" />
				<path
   class="st22"
   d="m 608.7,336.4 c -3.8,8.7 -28.9,39.8 -35.8,49.1 4.4,-13.6 27.3,-39.6 35.8,-49.1 z"
   id="path464" />
				<path
   class="st24"
   d="m 522.3,350 c -3.8,8.7 -28.9,39.8 -35.8,49.1 4.5,-13.7 27.4,-39.6 35.8,-49.1 z"
   id="path466" />
				<path
   class="st22"
   d="m 615.9,337.1 c -4.2,8.5 -30.7,38.5 -38,47.4 5.1,-13.4 29.1,-38.2 38,-47.4 z"
   id="path468" />
				<path
   class="st24"
   d="m 529.5,350.7 c -4.2,8.5 -30.7,38.5 -37.9,47.4 5,-13.5 29,-38.3 37.9,-47.4 z"
   id="path470" />
				<path
   class="st22"
   d="m 622.7,334.2 c -3.8,8.7 -28.9,39.8 -35.8,49.1 4.4,-13.6 27.3,-39.6 35.8,-49.1 z"
   id="path472" />
				<path
   class="st24"
   d="m 536.3,347.8 c -3.8,8.7 -28.9,39.8 -35.8,49.1 4.4,-13.7 27.3,-39.6 35.8,-49.1 z"
   id="path474" />
				<path
   class="st22"
   d="m 630,335.6 c -4.2,8.5 -30.7,38.5 -37.9,47.4 4.9,-13.4 29,-38.3 37.9,-47.4 z"
   id="path476" />
				<path
   class="st24"
   d="m 544.8,348.1 c -4.2,8.5 -30.7,38.5 -37.9,47.4 4.9,-13.5 29,-38.3 37.9,-47.4 z"
   id="path478" />
				<path
   class="st22"
   d="m 636.7,332 c -3.8,8.7 -28.9,39.8 -35.8,49.1 4.4,-13.6 27.3,-39.5 35.8,-49.1 z"
   id="path480" />
				<path
   class="st24"
   d="m 550.3,345.6 c -3.8,8.7 -28.9,39.8 -35.8,49.1 4.4,-13.7 27.3,-39.6 35.8,-49.1 z"
   id="path482" />
				<path
   class="st23"
   d="m 644,334 c -4.2,8.5 -30.7,38.5 -37.9,47.4 5,-13.4 29,-38.3 37.9,-47.4 z"
   id="path484" />
				<path
   class="st24"
   d="m 558.5,346.5 c -4.2,8.5 -30.7,38.4 -37.9,47.4 4.9,-13.4 29,-38.3 37.9,-47.4 z"
   id="path486" />
				<path
   class="st22"
   d="m 580.7,340.8 c -3.8,8.7 -28.9,39.8 -35.8,49.1 4.4,-13.7 27.3,-39.6 35.8,-49.1 z"
   id="path488" />
				<path
   class="st22"
   d="m 587.8,340.3 c -4.2,8.5 -30.7,38.4 -37.9,47.4 4.9,-13.4 29,-38.3 37.9,-47.4 z"
   id="path490" />
				<path
   class="st22"
   d="m 663.4,420.4 c -5.9,-7.4 -38,-31.2 -47,-38.5 7.7,12.1 36.4,31.4 47,38.5 z"
   id="path492" />
				<path
   class="st22"
   d="m 576.4,429 c -5.9,-7.4 -38,-31.2 -47,-38.5 7.7,12.2 36.4,31.5 47,38.5 z"
   id="path494" />
				<path
   class="st22"
   d="m 583,424.7 c -6.2,-7.2 -39.4,-29.5 -48.7,-36.3 8.2,11.7 37.8,29.7 48.7,36.3 z"
   id="path496" />
				<path
   class="st22"
   d="m 607.1,426 c -5.9,-7.4 -38,-31.2 -47,-38.5 7.7,12.1 36.3,31.4 47,38.5 z"
   id="path498" />
				<path
   class="st22"
   d="m 521.3,436.6 c -5.9,-7.4 -38,-31.2 -47,-38.5 7.7,12.2 36.4,31.5 47,38.5 z"
   id="path500" />
				<path
   class="st25"
   d="m 613.9,424.1 c -6.2,-7.2 -39.4,-29.5 -48.7,-36.3 8.3,11.7 37.8,29.8 48.7,36.3 z"
   id="path502" />
				<path
   class="st26"
   d="m 527.4,434.3 c -6.2,-7.2 -39.4,-29.5 -48.7,-36.3 8.2,11.7 37.8,29.7 48.7,36.3 z"
   id="path504" />
				<path
   class="st25"
   d="m 621.2,424.6 c -5.9,-7.4 -38,-31.2 -47,-38.5 7.7,12.1 36.3,31.4 47,38.5 z"
   id="path506" />
				<path
   class="st22"
   d="m 537.2,437.4 c -5.9,-7.5 -38,-31.2 -47,-38.5 7.7,12.1 36.4,31.4 47,38.5 z"
   id="path508" />
				<path
   class="st25"
   d="m 628,422.1 c -6.2,-7.2 -39.4,-29.5 -48.7,-36.3 8.2,11.7 37.7,29.7 48.7,36.3 z"
   id="path510" />
				<path
   class="st22"
   d="m 541,430.7 c -6.2,-7.2 -39.4,-29.5 -48.7,-36.3 8.2,11.8 37.7,29.8 48.7,36.3 z"
   id="path512" />
				<path
   class="st22"
   d="m 635.2,423.2 c -5.9,-7.4 -38,-31.2 -47,-38.5 7.7,12.1 36.4,31.4 47,38.5 z"
   id="path514" />
				<path
   class="st22"
   d="m 548.2,431.8 c -5.9,-7.4 -38,-31.2 -47,-38.5 7.8,12.2 36.5,31.5 47,38.5 z"
   id="path516" />
				<path
   class="st22"
   d="m 642,420 c -6.2,-7.2 -39.4,-29.5 -48.7,-36.3 8.2,11.8 37.7,29.8 48.7,36.3 z"
   id="path518" />
				<path
   class="st22"
   d="m 555,428.7 c -6.2,-7.2 -39.4,-29.5 -48.7,-36.3 8.2,11.7 37.8,29.7 48.7,36.3 z"
   id="path520" />
				<path
   class="st22"
   d="m 649.3,421.8 c -5.9,-7.4 -38,-31.2 -47,-38.5 7.7,12.1 36.4,31.4 47,38.5 z"
   id="path522" />
				<path
   class="st22"
   d="m 562.3,430.4 c -5.9,-7.4 -38,-31.2 -47,-38.5 7.8,12.2 36.4,31.5 47,38.5 z"
   id="path524" />
				<path
   class="st22"
   d="m 656,418 c -6.2,-7.2 -39.4,-29.5 -48.7,-36.3 8.2,11.7 37.7,29.7 48.7,36.3 z"
   id="path526" />
				<path
   class="st22"
   d="m 569,426.7 c -6.2,-7.2 -39.4,-29.5 -48.7,-36.3 8.2,11.7 37.8,29.7 48.7,36.3 z"
   id="path528" />
				<path
   class="st22"
   d="m 593,427.4 c -5.9,-7.4 -38,-31.2 -47,-38.5 7.7,12.1 36.4,31.4 47,38.5 z"
   id="path530" />
				<path
   class="st22"
   d="m 599.9,426.2 c -6.2,-7.2 -39.4,-29.5 -48.7,-36.3 8.3,11.7 37.8,29.7 48.7,36.3 z"
   id="path532" />
				
					<linearGradient
   id="SVGID_20_"
   gradientUnits="userSpaceOnUse"
   x1="28254.355"
   y1="-19714.271"
   x2="26725.254"
   y2="-16413.672"
   gradientTransform="matrix(0.0283052,0,0,-0.0283052,-233.2067,-118.1111)">
					<stop
   offset="0"
   style="stop-color:#AF9778"
   id="stop534" />
					<stop
   offset="0.5294"
   style="stop-color:#874C20"
   id="stop536" />
					<stop
   offset="1"
   style="stop-color:#6E411D"
   id="stop538" />
				</linearGradient>
				<polygon
   class="st29"
   points="626.7,379.4 574.9,381 540.9,386.3 506.4,388.8 483.4,398.3 453.1,393.6 453.9,400.7 484.8,407.5 506,396.1 553.1,391 581.9,386.4 621.8,384.5 635.7,385.2 "
   id="polygon541" />
				<path
   class="st22"
   d="m 680.1,290.4 c -9,-3.1 -48.9,-5.8 -60.3,-7.1 13,6.1 47.6,6.9 60.3,7.1 z"
   id="path543" />
				<path
   class="st22"
   d="m 496.7,322 c 1,9.5 -5.2,48.9 -6.4,60.4 -3.1,-14 3.8,-47.9 6.4,-60.4 z"
   id="path545" />
				<path
   class="st22"
   d="m 503,320.9 c 0.6,9.5 -7.3,48.6 -9.1,60 -2.4,-14.1 6,-47.7 9.1,-60 z"
   id="path547" />
				<path
   class="st22"
   d="m 548.1,389.8 c -8.8,-3.5 -48.5,-8 -59.9,-9.9 12.7,6.7 47.2,9.1 59.9,9.9 z"
   id="path549" />
				<path
   class="st22"
   d="m 553.5,385.3 c -8.9,-3.1 -48.8,-5.9 -60.3,-7.1 13,6 47.6,6.8 60.3,7.1 z"
   id="path551" />
				<path
   class="st23"
   d="m 621,228 c 1,9.4 -5.1,48.9 -6.4,60.4 -3,-14 3.8,-47.9 6.4,-60.4 z"
   id="path553" />
				<path
   class="st24"
   d="m 552.3,280.4 c 1,9.4 -5.2,48.9 -6.5,60.4 -3,-14 3.9,-47.9 6.5,-60.4 z"
   id="path555" />
				<path
   class="st23"
   d="m 627.9,226.1 c 0.6,9.5 -7.3,48.7 -9.1,60.1 -2.4,-14.2 6,-47.8 9.1,-60.1 z"
   id="path557" />
				<path
   class="st24"
   d="m 560.3,276.7 c 0.6,9.5 -7.3,48.7 -9.1,60 -2.4,-14.1 6,-47.7 9.1,-60 z"
   id="path559" />
				<path
   class="st22"
   d="m 576.3,261.1 c 1,9.4 -5.2,48.9 -6.5,60.4 -3,-14 3.9,-48 6.5,-60.4 z"
   id="path561" />
				<path
   class="st22"
   d="m 508.2,316 c 1,9.4 -5.2,48.9 -6.4,60.4 -3,-14.1 3.9,-48 6.4,-60.4 z"
   id="path563" />
				<path
   class="st22"
   d="m 582.5,257.5 c 0.6,9.5 -7.4,48.7 -9.2,60.1 -2.4,-14.1 6,-47.7 9.2,-60.1 z"
   id="path565" />
				<path
   class="st22"
   d="m 514.4,312.5 c 0.6,9.5 -7.3,48.7 -9.1,60.1 -2.4,-14.2 6,-47.8 9.1,-60.1 z"
   id="path567" />
				<path
   class="st22"
   d="m 587.3,252.2 c 1,9.4 -5.2,48.9 -6.5,60.4 -3,-14.1 3.9,-47.9 6.5,-60.4 z"
   id="path569" />
				<path
   class="st24"
   d="m 519.3,307.1 c 1,9.4 -5.2,48.9 -6.4,60.4 -3.1,-14.1 3.8,-47.9 6.4,-60.4 z"
   id="path571" />
				<path
   class="st22"
   d="m 593.9,249.2 c 0.6,9.5 -7.3,48.7 -9.1,60 -2.4,-14.1 5.9,-47.7 9.1,-60 z"
   id="path573" />
				<path
   class="st24"
   d="m 525.9,304.1 c 0.6,9.5 -7.3,48.7 -9.1,60 -2.5,-14.1 5.9,-47.7 9.1,-60 z"
   id="path575" />
				<path
   class="st22"
   d="m 598.3,243.3 c 1,9.4 -5.2,48.9 -6.5,60.4 -3,-14.1 3.9,-47.9 6.5,-60.4 z"
   id="path577" />
				<path
   class="st24"
   d="m 530.3,298.2 c 1,9.4 -5.1,48.9 -6.4,60.4 -3.1,-14 3.8,-47.9 6.4,-60.4 z"
   id="path579" />
				<path
   class="st22"
   d="m 605.3,240.8 c 0.6,9.5 -7.4,48.6 -9.1,60 -2.5,-14.1 5.9,-47.7 9.1,-60 z"
   id="path581" />
				<path
   class="st24"
   d="m 537.7,294.2 c 0.6,9.5 -7.3,48.6 -9.1,60 -2.4,-14.1 6,-47.7 9.1,-60 z"
   id="path583" />
				<path
   class="st22"
   d="m 609.3,234.4 c 1,9.4 -5.2,48.9 -6.5,60.4 -3,-14 3.9,-47.9 6.5,-60.4 z"
   id="path585" />
				<path
   class="st24"
   d="m 541.3,289.3 c 1,9.5 -5.2,48.9 -6.5,60.4 -3,-14 3.9,-47.9 6.5,-60.4 z"
   id="path587" />
				<path
   class="st23"
   d="m 616.7,232.4 c 0.6,9.5 -7.4,48.7 -9.1,60.1 -2.5,-14.2 5.9,-47.7 9.1,-60.1 z"
   id="path589" />
				<path
   class="st24"
   d="m 548.8,286 c 0.6,9.5 -7.3,48.7 -9.1,60.1 -2.4,-14.2 6,-47.8 9.1,-60.1 z"
   id="path591" />
				<path
   class="st22"
   d="m 565.3,269.9 c 1,9.5 -5.2,48.9 -6.5,60.4 -3,-14 3.9,-47.9 6.5,-60.4 z"
   id="path593" />
				<path
   class="st22"
   d="m 571.1,266 c 0.6,9.5 -7.4,48.6 -9.2,60 -2.4,-14.2 6,-47.7 9.2,-60 z"
   id="path595" />
				<path
   class="st22"
   d="m 676.6,297.5 c -8.8,-3.5 -48.5,-8 -60,-9.8 12.8,6.6 47.3,9 60,9.8 z"
   id="path597" />
				<path
   class="st22"
   d="m 605.6,348.5 c -8.8,-3.5 -48.5,-8 -59.9,-9.8 12.7,6.6 47.2,9 59.9,9.8 z"
   id="path599" />
				<path
   class="st22"
   d="m 609.1,341.4 c -8.9,-3.1 -48.8,-5.8 -60.3,-7.1 13,6 47.6,6.9 60.3,7.1 z"
   id="path601" />
				<path
   class="st22"
   d="m 630.6,330.5 c -8.8,-3.5 -48.5,-8 -59.9,-9.9 12.7,6.7 47.2,9.1 59.9,9.9 z"
   id="path603" />
				<path
   class="st22"
   d="m 561.7,382.7 c -8.8,-3.5 -48.5,-8 -59.9,-9.9 12.6,6.7 47.2,9.1 59.9,9.9 z"
   id="path605" />
				<path
   class="st25"
   d="m 635.6,325.5 c -8.9,-3.1 -48.8,-5.8 -60.3,-7.1 13.1,6 47.6,6.9 60.3,7.1 z"
   id="path607" />
				<path
   class="st26"
   d="m 565.8,377.6 c -9,-3.1 -48.9,-5.9 -60.3,-7.1 13,6 47.6,6.9 60.3,7.1 z"
   id="path609" />
				<path
   class="st25"
   d="m 642.1,322.3 c -8.8,-3.5 -48.5,-8 -59.9,-9.8 12.7,6.6 47.2,9 59.9,9.8 z"
   id="path611" />
				<path
   class="st22"
   d="m 575.8,375.3 c -8.8,-3.5 -48.5,-8 -60,-9.9 12.8,6.7 47.3,9.1 60,9.9 z"
   id="path613" />
				<path
   class="st25"
   d="m 646.8,316.7 c -9,-3.1 -48.9,-5.9 -60.3,-7.1 12.9,6.1 47.5,6.9 60.3,7.1 z"
   id="path615" />
				<path
   class="st22"
   d="m 575.8,367.7 c -8.9,-3.1 -48.8,-5.8 -60.3,-7.1 13,6 47.5,6.9 60.3,7.1 z"
   id="path617" />
				<path
   class="st22"
   d="m 653.7,314 c -8.8,-3.5 -48.5,-8 -60,-9.8 12.7,6.6 47.2,9 60,9.8 z"
   id="path619" />
				<path
   class="st22"
   d="m 582.6,365 c -8.8,-3.5 -48.5,-8 -60,-9.9 12.8,6.7 47.3,9.1 60,9.9 z"
   id="path621" />
				<path
   class="st22"
   d="m 657.9,308 c -9,-3.1 -48.9,-5.8 -60.3,-7.1 13,6 47.6,6.8 60.3,7.1 z"
   id="path623" />
				<path
   class="st22"
   d="m 586.9,359 c -9,-3.1 -48.9,-5.9 -60.3,-7.1 13,6 47.5,6.8 60.3,7.1 z"
   id="path625" />
				<path
   class="st22"
   d="m 665.1,305.8 c -8.8,-3.5 -48.5,-8 -60,-9.9 12.8,6.7 47.3,9.1 60,9.9 z"
   id="path627" />
				<path
   class="st22"
   d="m 594.1,356.8 c -8.8,-3.5 -48.5,-8 -59.9,-9.8 12.7,6.6 47.2,8.9 59.9,9.8 z"
   id="path629" />
				<path
   class="st22"
   d="m 669,299.2 c -9,-3.1 -48.8,-5.8 -60.3,-7.1 13,6 47.6,6.9 60.3,7.1 z"
   id="path631" />
				<path
   class="st22"
   d="m 598,350.2 c -9,-3.1 -48.9,-5.8 -60.3,-7.1 13,6 47.6,6.9 60.3,7.1 z"
   id="path633" />
				<path
   class="st22"
   d="m 619.1,338.8 c -8.8,-3.5 -48.5,-8 -59.9,-9.8 12.7,6.6 47.2,9 59.9,9.8 z"
   id="path635" />
				<path
   class="st22"
   d="m 624.6,334.3 c -9,-3.1 -48.9,-5.8 -60.3,-7.1 12.9,6 47.5,6.8 60.3,7.1 z"
   id="path637" />
				
					<linearGradient
   id="SVGID_21_"
   gradientUnits="userSpaceOnUse"
   x1="30685.721"
   y1="-17809.725"
   x2="25266.32"
   y2="-13994.396"
   gradientTransform="matrix(0.0283052,0,0,-0.0283052,-233.2067,-118.1111)">
					<stop
   offset="0"
   style="stop-color:#AF9778"
   id="stop639" />
					<stop
   offset="0.5294"
   style="stop-color:#874C20"
   id="stop641" />
					<stop
   offset="1"
   style="stop-color:#6E411D"
   id="stop643" />
				</linearGradient>
				<polygon
   class="st30"
   points="624.4,280.4 580.3,307.7 553.5,329.3 524.9,348.7 509.7,368.4 481.1,379.4 485.3,385.2 515.5,375.6 528.2,355.2 566.4,327.2 589.1,308.9 622.7,287.3 635.1,281 "
   id="polygon646" />
			</g>
			<g
   id="g860">
				<path
   class="st22"
   d="m 538.2,304.1 c -6.7,7.2 -42.5,29.5 -52.6,36.3 8.9,-11.7 40.8,-29.8 52.6,-36.3 z"
   id="path650" />
				<path
   class="st22"
   d="m 349.4,368.4 c -4.1,-8.7 -31.2,-39.8 -38.7,-49.1 4.8,13.7 29.6,39.6 38.7,49.1 z"
   id="path652" />
				<path
   class="st22"
   d="m 356.1,366.3 c -4.6,-8.5 -33.1,-38.5 -41,-47.4 5.3,13.4 31.3,38.3 41,47.4 z"
   id="path654" />
				<path
   class="st22"
   d="m 361,284 c -6.4,7.4 -41.1,31.2 -50.8,38.5 8.3,-12.1 39.3,-31.4 50.8,-38.5 z"
   id="path656" />
				<path
   class="st22"
   d="m 368.5,285.2 c -6.7,7.2 -42.5,29.5 -52.6,36.3 8.9,-11.7 40.8,-29.7 52.6,-36.3 z"
   id="path658" />
				<path
   class="st23"
   d="m 516.6,387.7 c -4.1,-8.7 -31.2,-39.8 -38.7,-49.1 4.8,13.7 29.5,39.6 38.7,49.1 z"
   id="path660" />
				<path
   class="st24"
   d="m 424,376.7 c -4.1,-8.7 -31.2,-39.8 -38.7,-49.1 4.8,13.6 29.5,39.5 38.7,49.1 z"
   id="path662" />
				<path
   class="st23"
   d="m 524.1,385.9 c -4.6,-8.5 -33.1,-38.4 -41,-47.4 5.4,13.4 31.4,38.3 41,47.4 z"
   id="path664" />
				<path
   class="st24"
   d="m 433.5,375.9 c -4.6,-8.5 -33.1,-38.5 -41,-47.4 5.4,13.4 31.4,38.3 41,47.4 z"
   id="path666" />
				<path
   class="st22"
   d="m 456.9,381.4 c -4.1,-8.7 -31.2,-39.8 -38.7,-49.1 4.8,13.7 29.5,39.6 38.7,49.1 z"
   id="path668" />
				<path
   class="st22"
   d="m 363.6,367.9 c -4.1,-8.7 -31.2,-39.8 -38.7,-49.1 4.7,13.6 29.5,39.6 38.7,49.1 z"
   id="path670" />
				<path
   class="st22"
   d="m 464.6,381.4 c -4.6,-8.5 -33.1,-38.4 -41,-47.4 5.4,13.4 31.3,38.2 41,47.4 z"
   id="path672" />
				<path
   class="st22"
   d="m 371.3,367.8 c -4.6,-8.5 -33.1,-38.5 -41,-47.4 5.3,13.4 31.3,38.3 41,47.4 z"
   id="path674" />
				<path
   class="st22"
   d="m 472,383.6 c -4.1,-8.7 -31.2,-39.8 -38.7,-49.1 4.8,13.7 29.5,39.6 38.7,49.1 z"
   id="path676" />
				<path
   class="st24"
   d="m 378.7,370.1 c -4.1,-8.7 -31.2,-39.8 -38.7,-49.1 4.8,13.7 29.5,39.6 38.7,49.1 z"
   id="path678" />
				<path
   class="st22"
   d="m 479.8,382.9 c -4.6,-8.5 -33.2,-38.5 -41,-47.4 5.4,13.4 31.3,38.3 41,47.4 z"
   id="path680" />
				<path
   class="st24"
   d="m 386.5,369.4 c -4.6,-8.5 -33.1,-38.5 -41,-47.4 5.3,13.4 31.3,38.3 41,47.4 z"
   id="path682" />
				<path
   class="st22"
   d="m 487.1,385.8 c -4.1,-8.7 -31.2,-39.8 -38.6,-49.1 4.7,13.7 29.4,39.6 38.6,49.1 z"
   id="path684" />
				<path
   class="st24"
   d="m 393.8,372.3 c -4.2,-8.7 -31.2,-39.8 -38.7,-49.1 4.8,13.7 29.5,39.6 38.7,49.1 z"
   id="path686" />
				<path
   class="st22"
   d="m 494.9,384.5 c -4.5,-8.5 -33.1,-38.5 -41,-47.4 5.5,13.4 31.4,38.3 41,47.4 z"
   id="path688" />
				<path
   class="st24"
   d="m 402.9,372 c -4.6,-8.5 -33.2,-38.5 -41,-47.4 5.4,13.4 31.4,38.3 41,47.4 z"
   id="path690" />
				<path
   class="st22"
   d="m 502.2,388 c -4.1,-8.7 -31.2,-39.8 -38.6,-49.1 4.7,13.7 29.4,39.6 38.6,49.1 z"
   id="path692" />
				<path
   class="st24"
   d="m 408.9,374.4 c -4.1,-8.7 -31.2,-39.8 -38.6,-49.1 4.7,13.7 29.4,39.7 38.6,49.1 z"
   id="path694" />
				<path
   class="st23"
   d="m 510.2,386.1 c -4.6,-8.5 -33.1,-38.5 -41,-47.4 5.4,13.4 31.3,38.2 41,47.4 z"
   id="path696" />
				<path
   class="st24"
   d="m 417.7,373.6 c -4.6,-8.5 -33.1,-38.4 -41,-47.4 5.4,13.4 31.4,38.3 41,47.4 z"
   id="path698" />
				<path
   class="st22"
   d="m 441.8,379.2 c -4.1,-8.7 -31.2,-39.8 -38.7,-49.1 4.7,13.7 29.5,39.6 38.7,49.1 z"
   id="path700" />
				<path
   class="st22"
   d="m 449.3,379.8 c -4.5,-8.5 -33.1,-38.4 -41,-47.4 5.5,13.4 31.4,38.3 41,47.4 z"
   id="path702" />
				<path
   class="st22"
   d="m 531.1,299.7 c -6.4,7.4 -41.1,31.2 -50.8,38.5 8.3,-12.1 39.3,-31.5 50.8,-38.5 z"
   id="path704" />
				<path
   class="st22"
   d="m 437.1,291 c -6.4,7.4 -41.1,31.2 -50.8,38.5 8.3,-12.1 39.4,-31.4 50.8,-38.5 z"
   id="path706" />
				<path
   class="st22"
   d="m 444.2,295.4 c -6.7,7.2 -42.6,29.5 -52.6,36.3 8.9,-11.7 40.8,-29.7 52.6,-36.3 z"
   id="path708" />
				<path
   class="st22"
   d="m 470.2,294.1 c -6.4,7.4 -41.1,31.2 -50.8,38.5 8.3,-12.2 39.3,-31.5 50.8,-38.5 z"
   id="path710" />
				<path
   class="st22"
   d="m 377.5,283.4 c -6.4,7.4 -41,31.2 -50.8,38.5 8.3,-12.1 39.3,-31.4 50.8,-38.5 z"
   id="path712" />
				<path
   class="st25"
   d="m 477.7,295.9 c -6.7,7.2 -42.6,29.5 -52.6,36.3 8.8,-11.7 40.7,-29.7 52.6,-36.3 z"
   id="path714" />
				<path
   class="st26"
   d="m 384.1,285.7 c -6.7,7.2 -42.6,29.5 -52.6,36.3 8.9,-11.7 40.8,-29.7 52.6,-36.3 z"
   id="path716" />
				<path
   class="st25"
   d="m 485.4,295.5 c -6.4,7.4 -41.1,31.2 -50.8,38.5 8.4,-12.1 39.4,-31.4 50.8,-38.5 z"
   id="path718" />
				<path
   class="st22"
   d="m 394.7,282.7 c -6.4,7.5 -41.1,31.2 -50.8,38.5 8.4,-12.1 39.4,-31.4 50.8,-38.5 z"
   id="path720" />
				<path
   class="st25"
   d="m 492.8,298 c -6.7,7.2 -42.5,29.5 -52.6,36.3 8.9,-11.8 40.8,-29.8 52.6,-36.3 z"
   id="path722" />
				<path
   class="st22"
   d="m 398.8,289.3 c -6.7,7.2 -42.6,29.5 -52.6,36.3 8.9,-11.7 40.8,-29.7 52.6,-36.3 z"
   id="path724" />
				<path
   class="st22"
   d="m 500.7,296.9 c -6.4,7.4 -41.1,31.2 -50.8,38.5 8.3,-12.1 39.3,-31.5 50.8,-38.5 z"
   id="path726" />
				<path
   class="st22"
   d="m 406.7,288.2 c -6.4,7.4 -41.1,31.2 -50.8,38.5 8.3,-12.1 39.3,-31.4 50.8,-38.5 z"
   id="path728" />
				<path
   class="st22"
   d="m 507.9,300 c -6.7,7.2 -42.6,29.5 -52.6,36.3 8.9,-11.7 40.8,-29.7 52.6,-36.3 z"
   id="path730" />
				<path
   class="st22"
   d="m 413.9,291.3 c -6.7,7.2 -42.5,29.5 -52.6,36.3 8.9,-11.7 40.8,-29.7 52.6,-36.3 z"
   id="path732" />
				<path
   class="st22"
   d="m 515.9,298.3 c -6.3,7.4 -41.1,31.2 -50.8,38.5 8.3,-12.1 39.3,-31.4 50.8,-38.5 z"
   id="path734" />
				<path
   class="st22"
   d="m 421.9,289.6 c -6.4,7.4 -41.1,31.2 -50.8,38.5 8.3,-12.1 39.3,-31.4 50.8,-38.5 z"
   id="path736" />
				<path
   class="st22"
   d="m 523.1,302 c -6.7,7.2 -42.6,29.5 -52.6,36.3 8.8,-11.7 40.7,-29.7 52.6,-36.3 z"
   id="path738" />
				<path
   class="st22"
   d="m 429.1,293.4 c -6.7,7.2 -42.6,29.5 -52.6,36.3 8.8,-11.7 40.8,-29.7 52.6,-36.3 z"
   id="path740" />
				<path
   class="st22"
   d="m 455,292.7 c -6.3,7.4 -41,31.2 -50.8,38.5 8.3,-12.1 39.3,-31.4 50.8,-38.5 z"
   id="path742" />
				<path
   class="st22"
   d="m 462.5,293.9 c -6.7,7.2 -42.6,29.5 -52.6,36.3 8.9,-11.7 40.8,-29.7 52.6,-36.3 z"
   id="path744" />
				
					<linearGradient
   id="SVGID_22_"
   gradientUnits="userSpaceOnUse"
   x1="23316.588"
   y1="-14044.653"
   x2="21637.688"
   y2="-17398.373"
   gradientTransform="matrix(0.0283052,0,0,-0.0283052,-233.2067,-118.1111)">
					<stop
   offset="0"
   style="stop-color:#AF9778"
   id="stop746" />
					<stop
   offset="0.5294"
   style="stop-color:#874C20"
   id="stop748" />
					<stop
   offset="1"
   style="stop-color:#6E411D"
   id="stop750" />
				</linearGradient>
				<polygon
   class="st31"
   points="491.5,340.7 435.4,339.1 398.7,333.7 361.5,331.2 336.5,321.8 303.9,326.5 304.7,319.4 338.1,312.6 361,323.9 411.9,329.1 443,333.6 486.1,335.5 501.1,334.8 "
   id="polygon753" />
				<path
   class="st22"
   d="m 549.1,429.6 c -9.7,3.1 -52.8,5.8 -65.2,7.1 14.1,-6 51.5,-6.9 65.2,-7.1 z"
   id="path755" />
				<path
   class="st22"
   d="m 350.9,398 c 1.1,-9.5 -5.6,-48.9 -7,-60.4 -3.2,14 4.2,47.9 7,60.4 z"
   id="path757" />
				<path
   class="st22"
   d="m 357.8,399.2 c 0.7,-9.5 -7.9,-48.6 -9.9,-60 -2.5,14.1 6.5,47.7 9.9,60 z"
   id="path759" />
				<path
   class="st22"
   d="m 406.5,330.3 c -9.5,3.5 -52.4,8 -64.8,9.9 13.8,-6.7 51.1,-9.1 64.8,-9.9 z"
   id="path761" />
				<path
   class="st22"
   d="m 412.4,334.8 c -9.7,3.1 -52.8,5.9 -65.2,7.1 14.1,-6 51.4,-6.9 65.2,-7.1 z"
   id="path763" />
				<path
   class="st23"
   d="m 485.3,492.1 c 1.1,-9.4 -5.5,-48.9 -7,-60.4 -3.3,14 4.2,47.9 7,60.4 z"
   id="path765" />
				<path
   class="st24"
   d="m 411,439.6 c 1.1,-9.4 -5.6,-48.9 -7,-60.4 -3.2,14.1 4.2,48 7,60.4 z"
   id="path767" />
				<path
   class="st23"
   d="m 492.7,494 c 0.7,-9.5 -7.9,-48.7 -9.9,-60.1 -2.5,14.2 6.5,47.7 9.9,60.1 z"
   id="path769" />
				<path
   class="st24"
   d="m 419.7,443.4 c 0.7,-9.5 -7.9,-48.7 -9.9,-60 -2.6,14.1 6.5,47.7 9.9,60 z"
   id="path771" />
				<path
   class="st22"
   d="m 436.9,459 c 1.1,-9.4 -5.5,-48.9 -7,-60.4 -3.2,14 4.2,47.9 7,60.4 z"
   id="path773" />
				<path
   class="st22"
   d="m 363.4,404.1 c 1.1,-9.4 -5.5,-48.9 -6.9,-60.4 -3.3,14 4.1,47.9 6.9,60.4 z"
   id="path775" />
				<path
   class="st22"
   d="m 443.7,462.5 c 0.6,-9.5 -8,-48.7 -9.9,-60.1 -2.6,14.2 6.4,47.7 9.9,60.1 z"
   id="path777" />
				<path
   class="st22"
   d="m 370.1,407.6 c 0.7,-9.5 -7.9,-48.7 -9.9,-60.1 -2.5,14.2 6.5,47.8 9.9,60.1 z"
   id="path779" />
				<path
   class="st22"
   d="m 448.9,467.9 c 1.1,-9.4 -5.6,-48.9 -7,-60.4 -3.3,14 4.2,47.9 7,60.4 z"
   id="path781" />
				<path
   class="st24"
   d="m 375.4,413 c 1.1,-9.4 -5.6,-48.9 -7,-60.4 -3.3,14 4.2,47.9 7,60.4 z"
   id="path783" />
				<path
   class="st22"
   d="m 455.9,470.9 c 0.7,-9.5 -7.9,-48.7 -9.9,-60 -2.5,14.1 6.5,47.6 9.9,60 z"
   id="path785" />
				<path
   class="st24"
   d="m 382.5,416 c 0.7,-9.5 -7.9,-48.7 -9.9,-60 -2.6,14.1 6.5,47.6 9.9,60 z"
   id="path787" />
				<path
   class="st22"
   d="m 460.8,476.8 c 1.1,-9.4 -5.6,-48.9 -7,-60.4 -3.3,14 4.1,47.9 7,60.4 z"
   id="path789" />
				<path
   class="st24"
   d="m 387.2,421.9 c 1.1,-9.4 -5.6,-48.9 -7,-60.4 -3.2,14 4.2,47.9 7,60.4 z"
   id="path791" />
				<path
   class="st22"
   d="m 468.3,479.3 c 0.7,-9.5 -8,-48.6 -9.9,-60 -2.6,14.1 6.5,47.6 9.9,60 z"
   id="path793" />
				<path
   class="st24"
   d="m 395.3,425.9 c 0.7,-9.5 -7.9,-48.6 -9.9,-60 -2.6,14.1 6.5,47.6 9.9,60 z"
   id="path795" />
				<path
   class="st22"
   d="m 472.6,485.7 c 1.1,-9.4 -5.5,-48.9 -7,-60.4 -3.2,14 4.2,47.9 7,60.4 z"
   id="path797" />
				<path
   class="st24"
   d="m 399.1,430.8 c 1.1,-9.5 -5.5,-48.9 -6.9,-60.4 -3.3,14 4.2,47.9 6.9,60.4 z"
   id="path799" />
				<path
   class="st23"
   d="m 480.6,487.7 c 0.7,-9.5 -7.9,-48.7 -9.9,-60.1 -2.6,14.2 6.5,47.7 9.9,60.1 z"
   id="path801" />
				<path
   class="st24"
   d="m 407.3,434.1 c 0.7,-9.5 -7.9,-48.7 -9.9,-60.1 -2.6,14.2 6.5,47.7 9.9,60.1 z"
   id="path803" />
				<path
   class="st22"
   d="m 425.1,450.1 c 1.1,-9.5 -5.6,-48.9 -7,-60.4 -3.3,14 4.1,47.9 7,60.4 z"
   id="path805" />
				<path
   class="st22"
   d="m 431.3,454.1 c 0.7,-9.5 -7.9,-48.6 -9.9,-60 -2.5,14.1 6.5,47.7 9.9,60 z"
   id="path807" />
				<path
   class="st22"
   d="m 545.4,422.5 c -9.5,3.5 -52.4,8 -64.8,9.8 13.8,-6.6 51,-8.9 64.8,-9.8 z"
   id="path809" />
				<path
   class="st22"
   d="m 468.6,371.6 c -9.5,3.5 -52.4,8 -64.8,9.8 13.8,-6.6 51.1,-9 64.8,-9.8 z"
   id="path811" />
				<path
   class="st22"
   d="m 472.4,378.6 c -9.7,3.1 -52.8,5.8 -65.2,7.1 14.1,-6 51.5,-6.8 65.2,-7.1 z"
   id="path813" />
				<path
   class="st22"
   d="m 495.7,389.5 c -9.5,3.5 -52.4,8 -64.8,9.9 13.8,-6.7 51.1,-9.1 64.8,-9.9 z"
   id="path815" />
				<path
   class="st22"
   d="m 421.2,337.4 c -9.5,3.5 -52.4,8 -64.8,9.9 13.7,-6.7 51,-9.1 64.8,-9.9 z"
   id="path817" />
				<path
   class="st25"
   d="m 501.1,394.6 c -9.7,3.1 -52.8,5.8 -65.2,7.1 14.1,-6 51.5,-6.9 65.2,-7.1 z"
   id="path819" />
				<path
   class="st26"
   d="m 425.7,342.4 c -9.7,3.1 -52.8,5.9 -65.2,7.1 14,-6 51.4,-6.8 65.2,-7.1 z"
   id="path821" />
				<path
   class="st25"
   d="m 508.1,397.8 c -9.5,3.5 -52.4,8 -64.8,9.8 13.8,-6.6 51.1,-9 64.8,-9.8 z"
   id="path823" />
				<path
   class="st22"
   d="m 436.5,344.7 c -9.5,3.5 -52.4,8 -64.8,9.9 13.7,-6.7 51,-9.1 64.8,-9.9 z"
   id="path825" />
				<path
   class="st25"
   d="m 513.1,403.3 c -9.7,3.1 -52.8,5.9 -65.2,7.1 14.1,-6 51.5,-6.8 65.2,-7.1 z"
   id="path827" />
				<path
   class="st22"
   d="m 436.4,352.3 c -9.7,3.1 -52.8,5.8 -65.2,7.1 14.1,-6 51.5,-6.8 65.2,-7.1 z"
   id="path829" />
				<path
   class="st22"
   d="m 520.5,406 c -9.5,3.5 -52.4,8 -64.8,9.8 13.8,-6.6 51.1,-8.9 64.8,-9.8 z"
   id="path831" />
				<path
   class="st22"
   d="m 443.8,355 c -9.5,3.5 -52.4,8 -64.8,9.9 13.8,-6.7 51.1,-9 64.8,-9.9 z"
   id="path833" />
				<path
   class="st22"
   d="m 525.1,412.1 c -9.7,3.1 -52.8,5.8 -65.2,7.1 14.1,-6 51.5,-6.9 65.2,-7.1 z"
   id="path835" />
				<path
   class="st22"
   d="m 448.4,361.1 c -9.7,3.1 -52.8,5.9 -65.2,7.1 14.1,-6 51.5,-6.9 65.2,-7.1 z"
   id="path837" />
				<path
   class="st22"
   d="m 533,414.3 c -9.5,3.5 -52.4,8 -64.8,9.9 13.7,-6.7 51,-9.1 64.8,-9.9 z"
   id="path839" />
				<path
   class="st22"
   d="m 456.2,363.3 c -9.5,3.5 -52.4,8 -64.8,9.8 13.8,-6.6 51.1,-9 64.8,-9.8 z"
   id="path841" />
				<path
   class="st22"
   d="m 537.1,420.9 c -9.7,3.1 -52.8,5.8 -65.2,7.1 14.1,-6.1 51.5,-6.9 65.2,-7.1 z"
   id="path843" />
				<path
   class="st22"
   d="m 460.4,369.9 c -9.7,3.1 -52.8,5.8 -65.2,7.1 14.1,-6.1 51.5,-6.9 65.2,-7.1 z"
   id="path845" />
				<path
   class="st22"
   d="m 483.3,381.3 c -9.5,3.5 -52.4,8 -64.8,9.8 13.7,-6.6 51,-9 64.8,-9.8 z"
   id="path847" />
				<path
   class="st22"
   d="m 489.1,385.8 c -9.7,3.1 -52.8,5.8 -65.2,7.1 14.1,-6 51.5,-6.9 65.2,-7.1 z"
   id="path849" />
				
					<linearGradient
   id="SVGID_23_"
   gradientUnits="userSpaceOnUse"
   x1="25930.02"
   y1="-15975.155"
   x2="20072.02"
   y2="-19791.855"
   gradientTransform="matrix(0.0283052,0,0,-0.0283052,-233.2067,-118.1111)">
					<stop
   offset="0"
   style="stop-color:#AF9778"
   id="stop851" />
					<stop
   offset="0.5294"
   style="stop-color:#874C20"
   id="stop853" />
					<stop
   offset="1"
   style="stop-color:#6E411D"
   id="stop855" />
				</linearGradient>
				<polygon
   class="st32"
   points="488.9,439.7 441.3,412.4 412.3,390.8 381.4,371.4 364.9,351.7 334.1,340.6 338.7,334.8 371.3,344.4 385,364.8 426.2,392.9 450.8,411.2 487.1,432.8 500.5,439.1 "
   id="polygon858" />
			</g>
			<g
   id="g1072">
				<path
   class="st22"
   d="m 374.3,440.4 c -4.7,-8.5 -34.7,-38.6 -42.9,-47.7 5.6,13.5 32.8,38.5 42.9,47.7 z"
   id="path862" />
				<path
   class="st22"
   d="m 200.9,333 c -6.8,7.4 -43.6,31 -53.9,38.2 8.9,-12.1 41.8,-31.2 53.9,-38.2 z"
   id="path864" />
				<path
   class="st22"
   d="m 207.1,336.7 c -7.2,7.1 -45.1,29.2 -55.8,36 9.4,-11.7 43.2,-29.5 55.8,-36 z"
   id="path866" />
				<path
   class="st22"
   d="m 187.8,417.4 c -4.3,-8.7 -32.7,-40 -40.4,-49.4 4.9,13.7 30.8,39.8 40.4,49.4 z"
   id="path868" />
				<path
   class="st22"
   d="m 195.8,418 c -4.7,-8.5 -34.6,-38.7 -42.9,-47.7 5.7,13.5 32.9,38.5 42.9,47.7 z"
   id="path870" />
				<path
   class="st23"
   d="m 377,354.5 c -6.8,7.4 -43.6,31 -53.9,38.2 8.9,-12.1 41.8,-31.2 53.9,-38.2 z"
   id="path872" />
				<path
   class="st24"
   d="m 279.3,342.9 c -6.8,7.4 -43.6,31 -53.9,38.2 8.9,-12.1 41.8,-31.2 53.9,-38.2 z"
   id="path874" />
				<path
   class="st23"
   d="m 384.1,358 c -7.2,7.1 -45.1,29.2 -55.8,36 9.5,-11.7 43.3,-29.5 55.8,-36 z"
   id="path876" />
				<path
   class="st24"
   d="m 288.8,345.9 c -7.2,7.1 -45.1,29.2 -55.8,36 9.5,-11.6 43.3,-29.4 55.8,-36 z"
   id="path878" />
				<path
   class="st22"
   d="m 314.3,346.2 c -6.8,7.4 -43.6,30.9 -53.9,38.1 8.8,-12 41.7,-31.1 53.9,-38.1 z"
   id="path880" />
				<path
   class="st22"
   d="m 215.2,336.9 c -6.8,7.4 -43.6,31 -53.9,38.2 8.9,-12.1 41.7,-31.2 53.9,-38.2 z"
   id="path882" />
				<path
   class="st22"
   d="m 322.1,348.1 c -7.1,7.1 -45.1,29.2 -55.8,36 9.5,-11.7 43.3,-29.5 55.8,-36 z"
   id="path884" />
				<path
   class="st22"
   d="m 223,338.8 c -7.1,7.1 -45.1,29.2 -55.8,36 9.5,-11.6 43.3,-29.4 55.8,-36 z"
   id="path886" />
				<path
   class="st22"
   d="m 330.3,347.7 c -6.8,7.4 -43.6,31 -53.9,38.2 8.9,-12.1 41.8,-31.2 53.9,-38.2 z"
   id="path888" />
				<path
   class="st24"
   d="m 231.2,338.4 c -6.8,7.4 -43.6,30.9 -53.9,38.2 8.9,-12.1 41.8,-31.2 53.9,-38.2 z"
   id="path890" />
				<path
   class="st22"
   d="m 338,350.2 c -7.2,7.1 -45.1,29.2 -55.8,36 9.5,-11.6 43.3,-29.4 55.8,-36 z"
   id="path892" />
				<path
   class="st24"
   d="m 238.9,341 c -7.1,7.1 -45.1,29.2 -55.8,36 9.5,-11.7 43.3,-29.5 55.8,-36 z"
   id="path894" />
				<path
   class="st22"
   d="m 346.4,349.2 c -6.8,7.4 -43.6,31 -53.9,38.2 8.9,-12.1 41.7,-31.2 53.9,-38.2 z"
   id="path896" />
				<path
   class="st24"
   d="m 247.3,339.9 c -6.8,7.4 -43.6,31 -53.9,38.2 8.8,-12.1 41.7,-31.2 53.9,-38.2 z"
   id="path898" />
				<path
   class="st22"
   d="m 354,352.4 c -7.1,7.1 -45.1,29.2 -55.8,36 9.5,-11.7 43.3,-29.5 55.8,-36 z"
   id="path900" />
				<path
   class="st24"
   d="m 256.5,342.4 c -7.2,7.1 -45.1,29.2 -55.8,36 9.5,-11.7 43.3,-29.5 55.8,-36 z"
   id="path902" />
				<path
   class="st22"
   d="m 362.4,350.7 c -6.8,7.4 -43.6,30.9 -53.9,38.2 8.9,-12.1 41.7,-31.2 53.9,-38.2 z"
   id="path904" />
				<path
   class="st24"
   d="m 263.3,341.4 c -6.8,7.4 -43.6,31 -53.9,38.2 8.9,-12.1 41.8,-31.2 53.9,-38.2 z"
   id="path906" />
				<path
   class="st23"
   d="m 369.9,354.5 c -7.2,7.1 -45.1,29.2 -55.8,36 9.5,-11.7 43.3,-29.5 55.8,-36 z"
   id="path908" />
				<path
   class="st24"
   d="m 272,344.4 c -7.2,7.1 -45.1,29.2 -55.8,36 9.5,-11.7 43.3,-29.5 55.8,-36 z"
   id="path910" />
				<path
   class="st22"
   d="m 298.2,344.7 c -6.8,7.4 -43.6,30.9 -53.9,38.1 8.9,-12 41.8,-31.1 53.9,-38.1 z"
   id="path912" />
				<path
   class="st22"
   d="m 306.1,346 c -7.1,7.1 -45.1,29.2 -55.8,36 9.5,-11.7 43.3,-29.5 55.8,-36 z"
   id="path914" />
				<path
   class="st22"
   d="m 365.8,442.9 c -4.3,-8.7 -32.6,-40 -40.4,-49.3 4.9,13.7 30.8,39.8 40.4,49.3 z"
   id="path916" />
				<path
   class="st22"
   d="m 267.5,428.8 c -4.3,-8.7 -32.7,-40 -40.4,-49.3 4.8,13.7 30.8,39.7 40.4,49.3 z"
   id="path918" />
				<path
   class="st22"
   d="m 275.9,426.3 c -4.7,-8.5 -34.6,-38.7 -42.9,-47.7 5.7,13.5 32.9,38.5 42.9,47.7 z"
   id="path920" />
				<path
   class="st22"
   d="m 302.1,433.8 c -4.3,-8.7 -32.6,-40 -40.4,-49.3 4.9,13.6 30.8,39.7 40.4,49.3 z"
   id="path922" />
				<path
   class="st22"
   d="m 204.4,421.9 c -4.3,-8.7 -32.6,-40 -40.4,-49.3 5,13.7 30.9,39.7 40.4,49.3 z"
   id="path924" />
				<path
   class="st25"
   d="m 310.2,433.8 c -4.7,-8.5 -34.6,-38.7 -42.9,-47.7 5.6,13.5 32.8,38.5 42.9,47.7 z"
   id="path926" />
				<path
   class="st26"
   d="m 211.9,421.2 c -4.8,-8.5 -34.7,-38.7 -42.9,-47.7 5.6,13.5 32.8,38.6 42.9,47.7 z"
   id="path928" />
				<path
   class="st25"
   d="m 318,436.1 c -4.3,-8.7 -32.7,-40 -40.4,-49.3 4.9,13.6 30.8,39.7 40.4,49.3 z"
   id="path930" />
				<path
   class="st22"
   d="m 221.8,426.7 c -4.3,-8.7 -32.7,-40 -40.4,-49.3 4.9,13.6 30.8,39.7 40.4,49.3 z"
   id="path932" />
				<path
   class="st25"
   d="m 326.2,435.4 c -4.7,-8.5 -34.6,-38.7 -42.9,-47.7 5.7,13.5 32.8,38.5 42.9,47.7 z"
   id="path934" />
				<path
   class="st22"
   d="m 227.9,421.3 c -4.7,-8.5 -34.7,-38.7 -42.9,-47.7 5.6,13.5 32.8,38.5 42.9,47.7 z"
   id="path936" />
				<path
   class="st22"
   d="m 333.9,438.4 c -4.3,-8.7 -32.7,-40 -40.4,-49.3 5,13.6 30.8,39.7 40.4,49.3 z"
   id="path938" />
				<path
   class="st22"
   d="m 235.6,424.2 c -4.3,-8.7 -32.6,-40 -40.4,-49.3 4.9,13.7 30.8,39.7 40.4,49.3 z"
   id="path940" />
				<path
   class="st22"
   d="m 342.2,437.1 c -4.7,-8.5 -34.6,-38.7 -42.9,-47.7 5.7,13.5 32.9,38.5 42.9,47.7 z"
   id="path942" />
				<path
   class="st22"
   d="m 243.9,422.9 c -4.7,-8.5 -34.7,-38.7 -42.9,-47.7 5.6,13.5 32.8,38.6 42.9,47.7 z"
   id="path944" />
				<path
   class="st22"
   d="m 349.9,440.7 c -4.3,-8.7 -32.6,-40 -40.4,-49.3 4.9,13.6 30.8,39.7 40.4,49.3 z"
   id="path946" />
				<path
   class="st22"
   d="m 251.5,426.5 c -4.3,-8.7 -32.7,-40 -40.4,-49.3 4.9,13.7 30.8,39.7 40.4,49.3 z"
   id="path948" />
				<path
   class="st22"
   d="m 358.3,438.8 c -4.8,-8.5 -34.7,-38.7 -42.9,-47.7 5.6,13.4 32.8,38.5 42.9,47.7 z"
   id="path950" />
				<path
   class="st22"
   d="m 259.9,424.6 c -4.7,-8.5 -34.7,-38.7 -42.9,-47.7 5.6,13.5 32.9,38.5 42.9,47.7 z"
   id="path952" />
				<path
   class="st22"
   d="m 286.2,431.5 c -4.3,-8.7 -32.6,-40 -40.4,-49.3 4.9,13.6 30.8,39.7 40.4,49.3 z"
   id="path954" />
				<path
   class="st22"
   d="m 294.2,432.1 c -4.7,-8.5 -34.7,-38.7 -42.9,-47.7 5.6,13.5 32.8,38.5 42.9,47.7 z"
   id="path956" />
				
					<linearGradient
   id="SVGID_24_"
   gradientUnits="userSpaceOnUse"
   x1="17186.609"
   y1="-19589.514"
   x2="16481.469"
   y2="-16030.514"
   gradientTransform="matrix(0.0283052,0,0,-0.0283052,-233.2067,-118.1111)">
					<stop
   offset="0"
   style="stop-color:#AF9778"
   id="stop958" />
					<stop
   offset="0.5294"
   style="stop-color:#874C20"
   id="stop960" />
					<stop
   offset="1"
   style="stop-color:#6E411D"
   id="stop962" />
				</linearGradient>
				<polygon
   class="st33"
   points="337.5,393.9 279.9,382 240.9,378.4 202.2,371.9 174,375 142.1,362.6 140.8,369.7 172.9,384.2 199.6,378.8 253,386 286,389.1 330.5,397.5 345.6,401.8 "
   id="polygon965" />
				<path
   class="st22"
   d="m 422.5,321.8 c -9,-5.3 -52.1,-18.3 -64.3,-22.5 12.5,9.2 50.4,18.9 64.3,22.5 z"
   id="path967" />
				<path
   class="st22"
   d="m 211.2,304.8 c -1.6,9.4 -20.1,45.9 -24.9,56.7 0.8,-14.3 18.3,-45.3 24.9,-56.7 z"
   id="path969" />
				<path
   class="st22"
   d="m 218.6,305.3 c -2.2,9.3 -22.4,45.1 -27.8,55.6 1.5,-14.2 20.6,-44.5 27.8,-55.6 z"
   id="path971" />
				<path
   class="st22"
   d="m 247.9,383.6 c -8.7,-5.7 -51.1,-20.3 -63.1,-25 12,9.7 49.3,20.9 63.1,25 z"
   id="path973" />
				<path
   class="st22"
   d="m 255.2,380.6 c -8.9,-5.3 -52.1,-18.3 -64.3,-22.5 12.5,9.2 50.3,19 64.3,22.5 z"
   id="path975" />
				<path
   class="st23"
   d="m 375.9,246.1 c -1.7,9.4 -20.1,45.9 -24.9,56.7 0.7,-14.3 18.3,-45.3 24.9,-56.7 z"
   id="path977" />
				<path
   class="st24"
   d="m 284.8,279 c -1.7,9.4 -20.1,45.9 -24.9,56.7 0.7,-14.4 18.3,-45.3 24.9,-56.7 z"
   id="path979" />
				<path
   class="st23"
   d="m 384,246.1 c -2.1,9.3 -22.4,45.1 -27.8,55.6 1.6,-14.3 20.7,-44.5 27.8,-55.6 z"
   id="path981" />
				<path
   class="st24"
   d="m 294.7,277.4 c -2.1,9.3 -22.4,45.1 -27.8,55.6 1.5,-14.2 20.7,-44.4 27.8,-55.6 z"
   id="path983" />
				<path
   class="st22"
   d="m 316.8,266.5 c -1.6,9.4 -20.1,45.9 -24.9,56.7 0.8,-14.3 18.4,-45.3 24.9,-56.7 z"
   id="path985" />
				<path
   class="st22"
   d="m 225.7,302 c -1.6,9.4 -20.1,45.9 -24.9,56.7 0.8,-14.4 18.4,-45.4 24.9,-56.7 z"
   id="path987" />
				<path
   class="st22"
   d="m 324.7,264.7 c -2.2,9.3 -22.4,45.1 -27.8,55.6 1.6,-14.2 20.7,-44.4 27.8,-55.6 z"
   id="path989" />
				<path
   class="st22"
   d="m 233.6,300.2 c -2.1,9.3 -22.4,45.1 -27.8,55.6 1.5,-14.3 20.7,-44.5 27.8,-55.6 z"
   id="path991" />
				<path
   class="st22"
   d="m 331.6,260.8 c -1.6,9.4 -20.1,45.9 -24.9,56.7 0.8,-14.4 18.4,-45.3 24.9,-56.7 z"
   id="path993" />
				<path
   class="st24"
   d="m 240.5,296.2 c -1.6,9.4 -20.1,45.9 -24.9,56.7 0.8,-14.3 18.3,-45.3 24.9,-56.7 z"
   id="path995" />
				<path
   class="st22"
   d="m 339.7,259.6 c -2.1,9.3 -22.4,45.1 -27.8,55.6 1.6,-14.3 20.7,-44.5 27.8,-55.6 z"
   id="path997" />
				<path
   class="st24"
   d="m 248.6,295 c -2.1,9.3 -22.4,45.1 -27.8,55.6 1.6,-14.2 20.7,-44.5 27.8,-55.6 z"
   id="path999" />
				<path
   class="st22"
   d="m 346.4,255 c -1.7,9.4 -20.1,45.9 -24.9,56.7 0.8,-14.3 18.3,-45.3 24.9,-56.7 z"
   id="path1001" />
				<path
   class="st24"
   d="m 255.2,290.5 c -1.6,9.4 -20.1,45.9 -24.9,56.7 0.8,-14.4 18.4,-45.4 24.9,-56.7 z"
   id="path1003" />
				<path
   class="st22"
   d="m 354.8,254.4 c -2.2,9.3 -22.4,45.1 -27.8,55.6 1.5,-14.2 20.6,-44.4 27.8,-55.6 z"
   id="path1005" />
				<path
   class="st24"
   d="m 264.7,288.6 c -2.2,9.3 -22.4,45.1 -27.8,55.6 1.5,-14.3 20.6,-44.5 27.8,-55.6 z"
   id="path1007" />
				<path
   class="st22"
   d="m 361.1,249.3 c -1.6,9.4 -20.1,45.9 -24.9,56.7 0.8,-14.3 18.4,-45.3 24.9,-56.7 z"
   id="path1009" />
				<path
   class="st24"
   d="m 270,284.8 c -1.7,9.4 -20.1,45.9 -24.9,56.7 0.8,-14.4 18.4,-45.4 24.9,-56.7 z"
   id="path1011" />
				<path
   class="st23"
   d="m 369.8,249.3 c -2.2,9.3 -22.4,45.1 -27.8,55.6 1.5,-14.3 20.7,-44.5 27.8,-55.6 z"
   id="path1013" />
				<path
   class="st24"
   d="m 279.2,283.5 c -2.1,9.3 -22.4,45.1 -27.8,55.6 1.6,-14.3 20.7,-44.5 27.8,-55.6 z"
   id="path1015" />
				<path
   class="st22"
   d="m 302.1,272.3 c -1.7,9.4 -20.1,45.9 -24.9,56.7 0.8,-14.4 18.4,-45.4 24.9,-56.7 z"
   id="path1017" />
				<path
   class="st22"
   d="m 309.7,269.9 c -2.2,9.3 -22.4,45.1 -27.8,55.6 1.5,-14.3 20.7,-44.5 27.8,-55.6 z"
   id="path1019" />
				<path
   class="st22"
   d="m 416.6,327.7 c -8.7,-5.7 -51.1,-20.4 -63.1,-25 12,9.7 49.3,20.9 63.1,25 z"
   id="path1021" />
				<path
   class="st22"
   d="m 323.4,358.6 c -8.7,-5.7 -51.1,-20.3 -63.1,-25 12,9.7 49.3,20.9 63.1,25 z"
   id="path1023" />
				<path
   class="st22"
   d="m 329.3,352.7 c -8.9,-5.3 -52.1,-18.3 -64.3,-22.5 12.5,9.2 50.3,18.9 64.3,22.5 z"
   id="path1025" />
				<path
   class="st22"
   d="m 356.2,347.7 c -8.7,-5.7 -51.1,-20.3 -63.1,-25 12.1,9.7 49.4,20.9 63.1,25 z"
   id="path1027" />
				<path
   class="st22"
   d="m 264.9,380.2 c -8.7,-5.7 -51.1,-20.3 -63.1,-25 12,9.7 49.3,20.9 63.1,25 z"
   id="path1029" />
				<path
   class="st25"
   d="m 363.2,344.1 c -9,-5.3 -52.1,-18.3 -64.3,-22.5 12.5,9.3 50.4,19 64.3,22.5 z"
   id="path1031" />
				<path
   class="st26"
   d="m 270.9,376.4 c -9,-5.3 -52.1,-18.3 -64.3,-22.5 12.6,9.2 50.4,19 64.3,22.5 z"
   id="path1033" />
				<path
   class="st25"
   d="m 371.3,342.7 c -8.7,-5.7 -51.1,-20.4 -63.1,-25 12,9.7 49.4,20.9 63.1,25 z"
   id="path1035" />
				<path
   class="st22"
   d="m 282.7,376.8 c -8.7,-5.7 -51.1,-20.3 -63.1,-25 12,9.7 49.3,20.9 63.1,25 z"
   id="path1037" />
				<path
   class="st25"
   d="m 378.1,338.5 c -9,-5.3 -52.1,-18.3 -64.3,-22.5 12.5,9.3 50.3,19 64.3,22.5 z"
   id="path1039" />
				<path
   class="st22"
   d="m 284.8,369.4 c -8.9,-5.3 -52.1,-18.3 -64.3,-22.5 12.5,9.2 50.4,19 64.3,22.5 z"
   id="path1041" />
				<path
   class="st22"
   d="m 386.4,337.7 c -8.7,-5.7 -51.1,-20.3 -63.1,-25 12.1,9.7 49.3,20.9 63.1,25 z"
   id="path1043" />
				<path
   class="st22"
   d="m 293.2,368.6 c -8.7,-5.7 -51.1,-20.3 -63.1,-25 12,9.7 49.3,20.9 63.1,25 z"
   id="path1045" />
				<path
   class="st22"
   d="m 392.9,333 c -9,-5.3 -52.1,-18.3 -64.3,-22.5 12.5,9.2 50.3,18.9 64.3,22.5 z"
   id="path1047" />
				<path
   class="st22"
   d="m 299.6,363.8 c -8.9,-5.3 -52.1,-18.3 -64.3,-22.5 12.5,9.2 50.4,19 64.3,22.5 z"
   id="path1049" />
				<path
   class="st22"
   d="m 401.5,332.7 c -8.7,-5.7 -51.1,-20.3 -63.1,-25 12,9.7 49.4,20.9 63.1,25 z"
   id="path1051" />
				<path
   class="st22"
   d="m 308.3,363.6 c -8.7,-5.7 -51.1,-20.3 -63.1,-25 12,9.7 49.3,20.9 63.1,25 z"
   id="path1053" />
				<path
   class="st22"
   d="m 407.7,327.3 c -9,-5.3 -52.1,-18.3 -64.3,-22.5 12.5,9.3 50.4,19 64.3,22.5 z"
   id="path1055" />
				<path
   class="st22"
   d="m 314.5,358.3 c -8.9,-5.3 -52.1,-18.3 -64.3,-22.5 12.5,9.2 50.3,18.9 64.3,22.5 z"
   id="path1057" />
				<path
   class="st22"
   d="m 341.1,352.7 c -8.7,-5.7 -51.1,-20.4 -63.1,-25 12.1,9.7 49.4,20.9 63.1,25 z"
   id="path1059" />
				<path
   class="st22"
   d="m 348.4,349.7 c -9,-5.3 -52.1,-18.3 -64.3,-22.5 12.5,9.2 50.4,19 64.3,22.5 z"
   id="path1061" />
				
					<linearGradient
   id="SVGID_25_"
   gradientUnits="userSpaceOnUse"
   x1="20416.514"
   y1="-18379.547"
   x2="15592.584"
   y2="-13310.808"
   gradientTransform="matrix(0.0283052,0,0,-0.0283052,-233.2067,-118.1111)">
					<stop
   offset="0"
   style="stop-color:#AF9778"
   id="stop1063" />
					<stop
   offset="0.5294"
   style="stop-color:#874C20"
   id="stop1065" />
					<stop
   offset="1"
   style="stop-color:#6E411D"
   id="stop1067" />
				</linearGradient>
				<polygon
   class="st34"
   points="364.1,297.6 307.5,312.6 271.6,326.5 234.4,337.9 211.8,352.9 177.1,356.2 180,362.9 216.1,361.5 236.2,345 286.4,327.8 316.8,316 360.2,303.9 375.7,300.9 "
   id="polygon1070" />
			</g>
			<g
   id="g1284">
				<path
   class="st22"
   d="m 835.4,440.4 c -4.7,-8.5 -34.6,-38.6 -42.9,-47.7 5.6,13.5 32.8,38.5 42.9,47.7 z"
   id="path1074" />
				<path
   class="st22"
   d="m 662,333 c -6.8,7.4 -43.6,31 -53.9,38.2 C 617,359.1 649.9,340 662,333 Z"
   id="path1076" />
				<path
   class="st22"
   d="m 668.1,336.7 c -7.1,7.1 -45.1,29.2 -55.8,36 9.5,-11.7 43.3,-29.5 55.8,-36 z"
   id="path1078" />
				<path
   class="st22"
   d="m 648.9,417.4 c -4.3,-8.7 -32.7,-40 -40.4,-49.4 4.9,13.7 30.8,39.8 40.4,49.4 z"
   id="path1080" />
				<path
   class="st22"
   d="m 656.9,418 c -4.7,-8.5 -34.6,-38.7 -42.9,-47.7 5.7,13.5 32.9,38.5 42.9,47.7 z"
   id="path1082" />
				<path
   class="st23"
   d="m 838.1,354.5 c -6.8,7.4 -43.6,31 -53.9,38.2 8.9,-12.1 41.7,-31.2 53.9,-38.2 z"
   id="path1084" />
				<path
   class="st24"
   d="m 740.4,342.9 c -6.8,7.4 -43.6,31 -53.9,38.2 8.9,-12.1 41.8,-31.2 53.9,-38.2 z"
   id="path1086" />
				<path
   class="st23"
   d="m 845.2,358 c -7.2,7.1 -45.1,29.2 -55.8,36 9.5,-11.7 43.3,-29.5 55.8,-36 z"
   id="path1088" />
				<path
   class="st24"
   d="m 749.9,345.9 c -7.2,7.1 -45.1,29.2 -55.8,36 9.5,-11.6 43.3,-29.4 55.8,-36 z"
   id="path1090" />
				<path
   class="st22"
   d="m 775.4,346.2 c -6.8,7.4 -43.6,30.9 -53.9,38.1 8.8,-12 41.7,-31.1 53.9,-38.1 z"
   id="path1092" />
				<path
   class="st22"
   d="m 676.3,336.9 c -6.8,7.4 -43.6,31 -53.9,38.2 8.8,-12.1 41.7,-31.2 53.9,-38.2 z"
   id="path1094" />
				<path
   class="st22"
   d="m 783.2,348.1 c -7.2,7.1 -45.1,29.2 -55.8,36 9.5,-11.7 43.3,-29.5 55.8,-36 z"
   id="path1096" />
				<path
   class="st22"
   d="m 684.1,338.8 c -7.1,7.1 -45.1,29.2 -55.8,36 9.5,-11.6 43.3,-29.4 55.8,-36 z"
   id="path1098" />
				<path
   class="st22"
   d="m 791.4,347.7 c -6.8,7.4 -43.6,31 -53.9,38.2 8.9,-12.1 41.7,-31.2 53.9,-38.2 z"
   id="path1100" />
				<path
   class="st24"
   d="m 692.3,338.4 c -6.8,7.4 -43.6,30.9 -53.9,38.2 8.9,-12.1 41.8,-31.2 53.9,-38.2 z"
   id="path1102" />
				<path
   class="st22"
   d="m 799.1,350.2 c -7.2,7.1 -45.1,29.2 -55.8,36 9.5,-11.6 43.3,-29.4 55.8,-36 z"
   id="path1104" />
				<path
   class="st24"
   d="m 700,341 c -7.1,7.1 -45.1,29.2 -55.8,36 9.5,-11.7 43.3,-29.5 55.8,-36 z"
   id="path1106" />
				<path
   class="st22"
   d="m 807.4,349.2 c -6.8,7.4 -43.6,31 -53.9,38.2 9,-12.1 41.8,-31.2 53.9,-38.2 z"
   id="path1108" />
				<path
   class="st24"
   d="m 708.4,339.9 c -6.8,7.4 -43.6,31 -53.9,38.2 8.8,-12.1 41.7,-31.2 53.9,-38.2 z"
   id="path1110" />
				<path
   class="st22"
   d="m 815.1,352.4 c -7.1,7.1 -45.1,29.2 -55.8,36 9.5,-11.7 43.3,-29.5 55.8,-36 z"
   id="path1112" />
				<path
   class="st24"
   d="m 717.6,342.4 c -7.2,7.1 -45.1,29.2 -55.8,36 9.5,-11.7 43.3,-29.5 55.8,-36 z"
   id="path1114" />
				<path
   class="st22"
   d="m 823.5,350.7 c -6.8,7.4 -43.6,30.9 -53.9,38.2 8.9,-12.1 41.7,-31.2 53.9,-38.2 z"
   id="path1116" />
				<path
   class="st24"
   d="m 724.4,341.4 c -6.8,7.4 -43.6,31 -53.9,38.2 8.9,-12.1 41.7,-31.2 53.9,-38.2 z"
   id="path1118" />
				<path
   class="st23"
   d="m 831,354.5 c -7.2,7.1 -45.1,29.2 -55.8,36 9.5,-11.7 43.3,-29.5 55.8,-36 z"
   id="path1120" />
				<path
   class="st24"
   d="m 733.1,344.4 c -7.2,7.1 -45.1,29.2 -55.8,36 9.5,-11.7 43.3,-29.5 55.8,-36 z"
   id="path1122" />
				<path
   class="st22"
   d="m 759.3,344.7 c -6.8,7.4 -43.6,30.9 -53.9,38.1 8.9,-12 41.8,-31.1 53.9,-38.1 z"
   id="path1124" />
				<path
   class="st22"
   d="m 767.2,346 c -7.1,7.1 -45.1,29.2 -55.8,36 9.5,-11.7 43.3,-29.5 55.8,-36 z"
   id="path1126" />
				<path
   class="st22"
   d="m 826.9,442.9 c -4.3,-8.7 -32.6,-40 -40.4,-49.3 4.9,13.7 30.8,39.8 40.4,49.3 z"
   id="path1128" />
				<path
   class="st22"
   d="m 728.5,428.8 c -4.3,-8.7 -32.6,-40 -40.4,-49.3 4.9,13.7 30.8,39.7 40.4,49.3 z"
   id="path1130" />
				<path
   class="st22"
   d="m 737,426.3 c -4.7,-8.5 -34.7,-38.7 -42.9,-47.7 5.7,13.5 32.9,38.5 42.9,47.7 z"
   id="path1132" />
				<path
   class="st22"
   d="m 763.2,433.8 c -4.3,-8.7 -32.6,-40 -40.4,-49.3 4.9,13.6 30.8,39.7 40.4,49.3 z"
   id="path1134" />
				<path
   class="st22"
   d="m 665.5,421.9 c -4.3,-8.7 -32.6,-40 -40.4,-49.3 4.9,13.7 30.8,39.7 40.4,49.3 z"
   id="path1136" />
				<path
   class="st25"
   d="m 771.3,433.8 c -4.7,-8.5 -34.7,-38.7 -42.9,-47.7 5.6,13.5 32.8,38.5 42.9,47.7 z"
   id="path1138" />
				<path
   class="st26"
   d="m 673,421.2 c -4.7,-8.5 -34.6,-38.7 -42.9,-47.7 5.6,13.5 32.8,38.6 42.9,47.7 z"
   id="path1140" />
				<path
   class="st25"
   d="m 779.1,436.1 c -4.3,-8.7 -32.7,-40 -40.4,-49.3 4.9,13.6 30.8,39.7 40.4,49.3 z"
   id="path1142" />
				<path
   class="st22"
   d="m 682.9,426.7 c -4.3,-8.7 -32.7,-40 -40.4,-49.3 4.9,13.6 30.8,39.7 40.4,49.3 z"
   id="path1144" />
				<path
   class="st25"
   d="m 787.3,435.4 c -4.7,-8.5 -34.6,-38.7 -42.9,-47.7 5.6,13.5 32.8,38.5 42.9,47.7 z"
   id="path1146" />
				<path
   class="st22"
   d="m 689,421.3 c -4.8,-8.5 -34.7,-38.7 -42.9,-47.7 5.6,13.5 32.8,38.5 42.9,47.7 z"
   id="path1148" />
				<path
   class="st22"
   d="m 795,438.4 c -4.3,-8.7 -32.7,-40 -40.4,-49.3 4.9,13.6 30.8,39.7 40.4,49.3 z"
   id="path1150" />
				<path
   class="st22"
   d="m 696.7,424.2 c -4.3,-8.7 -32.6,-40 -40.4,-49.3 4.9,13.7 30.8,39.7 40.4,49.3 z"
   id="path1152" />
				<path
   class="st22"
   d="m 803.3,437.1 c -4.7,-8.5 -34.6,-38.7 -42.9,-47.7 5.7,13.5 32.9,38.5 42.9,47.7 z"
   id="path1154" />
				<path
   class="st22"
   d="m 705,422.9 c -4.7,-8.5 -34.7,-38.7 -42.9,-47.7 5.6,13.5 32.8,38.6 42.9,47.7 z"
   id="path1156" />
				<path
   class="st22"
   d="m 810.9,440.7 c -4.3,-8.7 -32.6,-40 -40.4,-49.3 4.9,13.6 30.8,39.7 40.4,49.3 z"
   id="path1158" />
				<path
   class="st22"
   d="m 712.6,426.5 c -4.3,-8.7 -32.7,-40 -40.4,-49.3 4.9,13.7 30.8,39.7 40.4,49.3 z"
   id="path1160" />
				<path
   class="st22"
   d="m 819.4,438.8 c -4.8,-8.5 -34.7,-38.7 -42.9,-47.7 5.6,13.4 32.8,38.5 42.9,47.7 z"
   id="path1162" />
				<path
   class="st22"
   d="m 721,424.6 c -4.8,-8.5 -34.7,-38.7 -42.9,-47.7 5.6,13.5 32.8,38.5 42.9,47.7 z"
   id="path1164" />
				<path
   class="st22"
   d="m 747.3,431.5 c -4.3,-8.7 -32.6,-40 -40.4,-49.3 4.9,13.6 30.8,39.7 40.4,49.3 z"
   id="path1166" />
				<path
   class="st22"
   d="m 755.3,432.1 c -4.7,-8.5 -34.7,-38.7 -42.9,-47.7 5.6,13.5 32.8,38.5 42.9,47.7 z"
   id="path1168" />
				
					<linearGradient
   id="SVGID_26_"
   gradientUnits="userSpaceOnUse"
   x1="33476.586"
   y1="-19589.494"
   x2="32771.484"
   y2="-16030.493"
   gradientTransform="matrix(0.0283052,0,0,-0.0283052,-233.2067,-118.1111)">
					<stop
   offset="0"
   style="stop-color:#AF9778"
   id="stop1170" />
					<stop
   offset="0.5294"
   style="stop-color:#874C20"
   id="stop1172" />
					<stop
   offset="1"
   style="stop-color:#6E411D"
   id="stop1174" />
				</linearGradient>
				<polygon
   class="st35"
   points="798.6,393.9 741,382 702,378.4 663.3,371.9 635.1,375 603.2,362.6 601.9,369.7 634,384.2 660.7,378.8 714.1,386 747.1,389.1 791.6,397.5 806.7,401.8 "
   id="polygon1177" />
				<path
   class="st22"
   d="m 883.6,321.8 c -9,-5.3 -52.1,-18.3 -64.3,-22.5 12.5,9.2 50.3,18.9 64.3,22.5 z"
   id="path1179" />
				<path
   class="st22"
   d="m 672.3,304.8 c -1.6,9.4 -20.1,45.9 -24.9,56.7 0.8,-14.3 18.3,-45.3 24.9,-56.7 z"
   id="path1181" />
				<path
   class="st22"
   d="m 679.6,305.3 c -2.1,9.3 -22.4,45.1 -27.8,55.6 1.6,-14.2 20.7,-44.5 27.8,-55.6 z"
   id="path1183" />
				<path
   class="st22"
   d="m 709,383.6 c -8.7,-5.7 -51.1,-20.3 -63.1,-25 12,9.7 49.3,20.9 63.1,25 z"
   id="path1185" />
				<path
   class="st22"
   d="m 716.3,380.6 c -9,-5.3 -52.1,-18.3 -64.3,-22.5 12.5,9.2 50.3,19 64.3,22.5 z"
   id="path1187" />
				<path
   class="st23"
   d="m 837,246.1 c -1.7,9.4 -20.1,45.9 -24.9,56.7 0.7,-14.3 18.3,-45.3 24.9,-56.7 z"
   id="path1189" />
				<path
   class="st24"
   d="m 745.8,279 c -1.6,9.4 -20.1,45.9 -24.9,56.7 0.8,-14.4 18.4,-45.3 24.9,-56.7 z"
   id="path1191" />
				<path
   class="st23"
   d="m 845.1,246.1 c -2.1,9.3 -22.4,45.1 -27.8,55.6 1.6,-14.3 20.7,-44.5 27.8,-55.6 z"
   id="path1193" />
				<path
   class="st24"
   d="m 755.7,277.4 c -2.1,9.3 -22.4,45.1 -27.8,55.6 1.6,-14.2 20.7,-44.4 27.8,-55.6 z"
   id="path1195" />
				<path
   class="st22"
   d="m 777.9,266.5 c -1.6,9.4 -20.1,45.9 -24.9,56.7 0.8,-14.3 18.4,-45.3 24.9,-56.7 z"
   id="path1197" />
				<path
   class="st22"
   d="m 686.8,302 c -1.6,9.4 -20.1,45.9 -24.9,56.7 0.8,-14.4 18.4,-45.4 24.9,-56.7 z"
   id="path1199" />
				<path
   class="st22"
   d="m 785.8,264.7 c -2.2,9.3 -22.4,45.1 -27.8,55.6 1.5,-14.2 20.7,-44.4 27.8,-55.6 z"
   id="path1201" />
				<path
   class="st22"
   d="m 694.7,300.2 c -2.1,9.3 -22.4,45.1 -27.8,55.6 1.5,-14.3 20.7,-44.5 27.8,-55.6 z"
   id="path1203" />
				<path
   class="st22"
   d="m 792.7,260.8 c -1.6,9.4 -20.1,45.9 -24.9,56.7 0.8,-14.4 18.3,-45.3 24.9,-56.7 z"
   id="path1205" />
				<path
   class="st24"
   d="m 701.6,296.2 c -1.6,9.4 -20.1,45.9 -24.9,56.7 0.8,-14.3 18.3,-45.3 24.9,-56.7 z"
   id="path1207" />
				<path
   class="st22"
   d="m 800.8,259.6 c -2.1,9.3 -22.4,45.1 -27.8,55.6 1.6,-14.3 20.7,-44.5 27.8,-55.6 z"
   id="path1209" />
				<path
   class="st24"
   d="m 709.7,295 c -2.1,9.3 -22.4,45.1 -27.8,55.6 1.6,-14.2 20.7,-44.5 27.8,-55.6 z"
   id="path1211" />
				<path
   class="st22"
   d="m 807.4,255 c -1.6,9.4 -20.1,45.9 -24.9,56.7 0.8,-14.3 18.4,-45.3 24.9,-56.7 z"
   id="path1213" />
				<path
   class="st24"
   d="m 716.3,290.5 c -1.6,9.4 -20.1,45.9 -24.9,56.7 0.8,-14.4 18.4,-45.4 24.9,-56.7 z"
   id="path1215" />
				<path
   class="st22"
   d="m 815.8,254.4 c -2.1,9.3 -22.4,45.1 -27.8,55.6 1.6,-14.2 20.7,-44.4 27.8,-55.6 z"
   id="path1217" />
				<path
   class="st24"
   d="m 725.7,288.6 c -2.1,9.3 -22.4,45.1 -27.8,55.6 1.6,-14.3 20.7,-44.5 27.8,-55.6 z"
   id="path1219" />
				<path
   class="st22"
   d="m 822.2,249.3 c -1.6,9.4 -20.1,45.9 -24.9,56.7 0.8,-14.3 18.4,-45.3 24.9,-56.7 z"
   id="path1221" />
				<path
   class="st24"
   d="m 731.1,284.8 c -1.7,9.4 -20.1,45.9 -24.9,56.7 0.8,-14.4 18.4,-45.4 24.9,-56.7 z"
   id="path1223" />
				<path
   class="st23"
   d="m 830.9,249.3 c -2.2,9.3 -22.4,45.1 -27.8,55.6 1.5,-14.3 20.7,-44.5 27.8,-55.6 z"
   id="path1225" />
				<path
   class="st24"
   d="m 740.3,283.5 c -2.1,9.3 -22.4,45.1 -27.8,55.6 1.6,-14.3 20.7,-44.5 27.8,-55.6 z"
   id="path1227" />
				<path
   class="st22"
   d="m 763.2,272.3 c -1.7,9.4 -20.1,45.9 -24.9,56.7 0.8,-14.4 18.4,-45.4 24.9,-56.7 z"
   id="path1229" />
				<path
   class="st22"
   d="m 770.8,269.9 c -2.1,9.3 -22.4,45.1 -27.8,55.6 1.5,-14.3 20.6,-44.5 27.8,-55.6 z"
   id="path1231" />
				<path
   class="st22"
   d="m 877.7,327.7 c -8.7,-5.7 -51.1,-20.4 -63.1,-25 12,9.7 49.3,20.9 63.1,25 z"
   id="path1233" />
				<path
   class="st22"
   d="m 784.5,358.6 c -8.7,-5.7 -51.1,-20.3 -63.1,-25 12,9.7 49.3,20.9 63.1,25 z"
   id="path1235" />
				<path
   class="st22"
   d="m 790.4,352.7 c -8.9,-5.3 -52.1,-18.3 -64.3,-22.5 12.5,9.2 50.3,18.9 64.3,22.5 z"
   id="path1237" />
				<path
   class="st22"
   d="m 817.3,347.7 c -8.7,-5.7 -51.1,-20.3 -63.1,-25 12.1,9.7 49.4,20.9 63.1,25 z"
   id="path1239" />
				<path
   class="st22"
   d="m 725.9,380.2 c -8.7,-5.7 -51.1,-20.3 -63.1,-25 12.1,9.7 49.4,20.9 63.1,25 z"
   id="path1241" />
				<path
   class="st25"
   d="m 824.3,344.1 c -9,-5.3 -52.1,-18.3 -64.3,-22.5 12.5,9.3 50.3,19 64.3,22.5 z"
   id="path1243" />
				<path
   class="st26"
   d="m 732,376.4 c -9,-5.3 -52.1,-18.3 -64.3,-22.5 12.6,9.2 50.4,19 64.3,22.5 z"
   id="path1245" />
				<path
   class="st25"
   d="m 832.4,342.7 c -8.7,-5.7 -51.1,-20.4 -63.1,-25 12,9.7 49.3,20.9 63.1,25 z"
   id="path1247" />
				<path
   class="st22"
   d="m 743.7,376.8 c -8.7,-5.7 -51.1,-20.3 -63.1,-25 12.1,9.7 49.4,20.9 63.1,25 z"
   id="path1249" />
				<path
   class="st25"
   d="m 839.2,338.5 c -9,-5.3 -52.1,-18.3 -64.3,-22.5 12.5,9.3 50.3,19 64.3,22.5 z"
   id="path1251" />
				<path
   class="st22"
   d="m 745.9,369.4 c -8.9,-5.3 -52.1,-18.3 -64.3,-22.5 12.5,9.2 50.4,19 64.3,22.5 z"
   id="path1253" />
				<path
   class="st22"
   d="m 847.5,337.7 c -8.7,-5.7 -51.1,-20.3 -63.1,-25 12,9.7 49.3,20.9 63.1,25 z"
   id="path1255" />
				<path
   class="st22"
   d="m 754.2,368.6 c -8.7,-5.7 -51.1,-20.3 -63.1,-25 12.1,9.7 49.4,20.9 63.1,25 z"
   id="path1257" />
				<path
   class="st22"
   d="m 854,333 c -9,-5.3 -52.1,-18.3 -64.3,-22.5 12.5,9.2 50.3,18.9 64.3,22.5 z"
   id="path1259" />
				<path
   class="st22"
   d="m 760.7,363.8 c -9,-5.3 -52.1,-18.3 -64.3,-22.5 12.5,9.2 50.4,19 64.3,22.5 z"
   id="path1261" />
				<path
   class="st22"
   d="m 862.6,332.7 c -8.7,-5.7 -51.1,-20.3 -63.1,-25 12,9.7 49.3,20.9 63.1,25 z"
   id="path1263" />
				<path
   class="st22"
   d="m 769.4,363.6 c -8.7,-5.7 -51.1,-20.3 -63.1,-25 12,9.7 49.3,20.9 63.1,25 z"
   id="path1265" />
				<path
   class="st22"
   d="m 868.8,327.3 c -9,-5.3 -52.1,-18.3 -64.3,-22.5 12.5,9.3 50.3,19 64.3,22.5 z"
   id="path1267" />
				<path
   class="st22"
   d="m 775.6,358.3 c -9,-5.3 -52.1,-18.3 -64.3,-22.5 12.5,9.2 50.3,18.9 64.3,22.5 z"
   id="path1269" />
				<path
   class="st22"
   d="m 802.2,352.7 c -8.7,-5.7 -51.1,-20.4 -63.1,-25 12.1,9.7 49.4,20.9 63.1,25 z"
   id="path1271" />
				<path
   class="st22"
   d="m 809.5,349.7 c -9,-5.3 -52.1,-18.3 -64.3,-22.5 12.5,9.2 50.3,19 64.3,22.5 z"
   id="path1273" />
				
					<linearGradient
   id="SVGID_27_"
   gradientUnits="userSpaceOnUse"
   x1="36706.461"
   y1="-18379.504"
   x2="31882.559"
   y2="-13310.766"
   gradientTransform="matrix(0.0283052,0,0,-0.0283052,-233.2067,-118.1111)">
					<stop
   offset="0"
   style="stop-color:#AF9778"
   id="stop1275" />
					<stop
   offset="0.5294"
   style="stop-color:#874C20"
   id="stop1277" />
					<stop
   offset="1"
   style="stop-color:#6E411D"
   id="stop1279" />
				</linearGradient>
				<polygon
   class="st36"
   points="825.2,297.6 768.6,312.6 732.7,326.5 695.5,337.9 672.9,352.9 638.2,356.2 641.1,362.9 677.2,361.5 697.2,345 747.5,327.8 777.9,316 821.3,303.9 836.8,300.9 "
   id="polygon1282" />
			</g>
		</g>
	</g>
</g>
</svg>
