<?xml version="1.0" encoding="UTF-8" standalone="no"?>
<!-- Created with Inkscape (http://www.inkscape.org/) -->

<svg
   xmlns:dc="http://purl.org/dc/elements/1.1/"
   xmlns:cc="http://creativecommons.org/ns#"
   xmlns:rdf="http://www.w3.org/1999/02/22-rdf-syntax-ns#"
   xmlns:svg="http://www.w3.org/2000/svg"
   xmlns="http://www.w3.org/2000/svg"
   xmlns:sodipodi="http://sodipodi.sourceforge.net/DTD/sodipodi-0.dtd"
   xmlns:inkscape="http://www.inkscape.org/namespaces/inkscape"
   version="1.1"
   width="150"
   height="150"
   id="svg2"
   inkscape:version="0.91 r"
   sodipodi:docname="clockface.svg">
  <sodipodi:namedview
     pagecolor="#ffffff"
     bordercolor="#666666"
     borderopacity="1"
     objecttolerance="10"
     gridtolerance="10"
     guidetolerance="10"
     inkscape:pageopacity="0"
     inkscape:pageshadow="2"
     inkscape:window-width="1123"
     inkscape:window-height="930"
     id="namedview27"
     showgrid="false"
     inkscape:zoom="3.86"
     inkscape:cx="77.617306"
     inkscape:cy="79.399605"
     inkscape:window-x="0"
     inkscape:window-y="0"
     inkscape:window-maximized="0"
     inkscape:current-layer="svg2" />
  <defs
     id="defs4" />
  <metadata
     id="metadata7">
    <rdf:RDF>
      <cc:Work
         rdf:about="">
        <dc:format>image/svg+xml</dc:format>
        <dc:type
           rdf:resource="http://purl.org/dc/dcmitype/StillImage" />
        <dc:title />
      </cc:Work>
    </rdf:RDF>
  </metadata>
  <path
     d="m 72.186761,10.312495 5.03125,0 0,19.69375 -5.03125,0 0,-19.69375 z m 32.805269,7.480545 4.10821,2.371875 -7.90625,13.69403 -4.108209,-2.37188 7.906249,-13.694025 z m 24.54544,22.809105 2.37187,4.10821 -13.69403,7.90625 -2.37187,-4.10821 13.69403,-7.90625 z m -49.217099,-30.05549 2.2874,0.240415 -0.66114,6.290352 -2.28741,-0.240416 0.66115,-6.290351 z m 6.70643,0.940324 2.24974,0.478197 -1.31504,6.186785 -2.24974,-0.478198 1.31504,-6.186784 z m 6.5714,1.636187 2.18743,0.71074 -1.95453,6.015432 -2.18743,-0.710739 1.95453,-6.015433 z m 6.364379,2.314122 2.10116,0.935495 -2.57262,5.778175 -2.101149,-0.935495 2.572609,-5.778175 z m 11.83179,6.553469 1.86074,1.351907 -3.71774,5.117034 -1.86074,-1.351908 3.71774,-5.117033 z m 5.33778,4.167563 1.70923,1.539001 -4.23225,4.700394 -1.70923,-1.539 4.23225,-4.700395 z m 4.87291,4.702685 1.539,1.70923 -4.70039,4.23225 -1.539,-1.70923 4.70039,-4.23225 z m 4.35465,5.18627 1.35191,1.86074 -5.11704,3.71774 -1.3519,-1.86073 5.11703,-3.71775 z m 6.9699,11.59137 0.93549,2.10116 -5.77817,2.5726 -0.9355,-2.10115 5.77818,-2.57261 z m 2.53887,6.2781 0.71074,2.18744 -6.01544,1.95453 -0.71074,-2.18743 6.01544,-1.95454 z m 1.86872,6.5091 0.4782,2.24974 -6.18679,1.31504 -0.47819,-2.24974 6.18678,-1.31504 z m 1.1781,6.66877 0.24042,2.28741 -6.29035,0.66114 -0.24042,-2.2874 6.29035,-0.66115 z m 0.47459,5.38976 0,5.03125 -19.69376,0 0,-5.03125 19.69376,0 z m -7.48055,32.805265 -2.37187,4.10821 -13.69403,-7.90625 2.37187,-4.108205 13.69403,7.906245 z m -22.8091,24.54544 -4.10821,2.37187 -7.906249,-13.69402 4.108209,-2.37188 7.90625,13.69403 z m 30.05549,-49.217095 -0.24042,2.2874 -6.29035,-0.66114 0.24041,-2.2874 6.29036,0.66114 z m -0.94033,6.70643 -0.4782,2.24974 -6.18678,-1.31504 0.4782,-2.24974 6.18678,1.31504 z m -1.63618,6.57141 -0.71075,2.18743 -6.01543,-1.95454 0.71074,-2.18743 6.01544,1.95454 z m -2.31413,6.364365 -0.93549,2.10116 -5.77818,-2.572605 0.9355,-2.10115 5.77817,2.572595 z m -6.55347,11.83179 -1.3519,1.86075 -5.11704,-3.71775 1.35191,-1.86074 5.11703,3.71774 z m -4.16756,5.33778 -1.539,1.70924 -4.70039,-4.23225 1.539,-1.70924 4.70039,4.23225 z m -4.70268,4.87291 -1.70923,1.539 -4.23226,-4.70039 1.70924,-1.539 4.23225,4.70039 z m -5.18628,4.35465 -1.86074,1.35191 -3.71774,-5.11703 1.86074,-1.35191 3.71774,5.11703 z m -11.59136,6.9699 -2.10116,0.9355 -2.572609,-5.77818 2.101159,-0.93549 2.57261,5.77817 z m -6.278109,2.53887 -2.18743,0.71074 -1.95453,-6.01543 2.18743,-0.71074 1.95453,6.01543 z m -6.5091,1.86872 -2.24973,0.4782 -1.31505,-6.18678 2.24974,-0.4782 1.31504,6.18678 z m -6.66877,1.1781 -2.2874,0.24042 -0.66114,-6.29035 2.2874,-0.24041 0.66114,6.29034 z m -5.38976,0.47459 -5.03125,0 0,-19.69375 5.03125,0 0,19.69375 z m -32.80527,-7.48054 -4.10821,-2.37188 7.90625,-13.69403 4.10821,2.37188 -7.90625,13.69403 z m -24.545437,-22.8091 -2.371875,-4.10821 13.694032,-7.906245 2.37187,4.108195 -13.694027,7.90626 z m 49.217107,30.05548 -2.28741,-0.24041 0.66114,-6.29036 2.28741,0.24042 -0.66114,6.29035 z m -6.70644,-0.94032 -2.24974,-0.4782 1.31504,-6.18678 2.24974,0.47819 -1.31504,6.18679 z m -6.5714,-1.63619 -2.18743,-0.71074 1.95453,-6.01543 2.18743,0.71074 -1.95453,6.01543 z m -6.36438,-2.31412 -2.10116,-0.9355 2.57262,-5.77817 2.10115,0.93549 -2.57261,5.77818 z m -11.83179,-6.55347 -1.86074,-1.35191 3.71774,-5.11703 1.86074,1.35191 -3.71774,5.11703 z m -5.33778,-4.16756 -1.70923,-1.539 4.23225,-4.70039 1.70923,1.539 -4.23225,4.70039 z m -4.87291,-4.70268 -1.539,-1.70924 4.70039,-4.23225 1.539,1.70924 -4.70039,4.23225 z m -4.354652,-5.18628 -1.351907,-1.86074 5.117039,-3.71774 1.3519,1.86074 -5.117032,3.71774 z m -6.969896,-11.59137 -0.935495,-2.10115 5.778176,-2.572605 0.935493,2.10115 -5.778174,2.572605 z m -2.538872,-6.278095 -0.710739,-2.18743 6.015433,-1.95453 0.710739,2.18743 -6.015433,1.95453 z m -1.868723,-6.5091 -0.478197,-2.24974 6.186784,-1.31504 0.478196,2.24974 -6.186783,1.31504 z m -1.1781,-6.66877 -0.240415,-2.2874 6.290352,-0.66114 0.240414,2.2874 -6.290351,0.66114 z m -0.474587,-5.38976 0,-5.03125 19.69375,0 0,5.03125 -19.69375,0 z m 7.480545,-32.80527 2.371875,-4.10821 13.69403,7.90625 -2.37188,4.10821 -13.694025,-7.90625 z m 22.809105,-24.54544 4.10821,-2.371875 7.90625,13.694025 -4.10821,2.37188 -7.90625,-13.69403 z m -30.05549,49.2171 0.240415,-2.2874 6.290352,0.66114 -0.240416,2.2874 -6.290351,-0.66114 z m 0.940325,-6.70643 0.478196,-2.24974 6.186785,1.31504 -0.478197,2.24974 -6.186784,-1.31504 z m 1.636186,-6.57141 0.71074,-2.18743 6.015432,1.95454 -0.710739,2.18743 -6.015433,-1.95454 z m 2.314122,-6.36437 0.935495,-2.10116 5.778175,2.57261 -0.935495,2.10115 -5.778175,-2.5726 z m 6.553469,-11.83179 1.351908,-1.86074 5.11703,3.71774 -1.3519,1.86074 -5.117038,-3.71774 z m 4.167568,-5.33778 1.539,-1.70924 4.70039,4.23225 -1.539,1.70924 -4.70039,-4.23225 z m 4.70268,-4.872914 1.70923,-1.539001 4.23225,4.700395 -1.70923,1.539 -4.23225,-4.700394 z m 5.18627,-4.354651 1.86074,-1.351907 3.71774,5.117035 -1.86073,1.351904 -3.71775,-5.117032 z m 11.59137,-6.969896 2.10116,-0.935495 2.5726,5.778175 -2.10115,0.935494 -2.57261,-5.778174 z m 6.2781,-2.538872 2.18744,-0.710739 1.95453,6.015433 -2.18743,0.710739 -1.95454,-6.015433 z m 6.5091,-1.868723 2.24974,-0.478198 1.31504,6.186785 -2.24974,0.478196 -1.31504,-6.186783 z m 6.66877,-1.1781 2.28741,-0.240415 0.66114,6.290352 -2.2874,0.240413 -0.66115,-6.29035 z"
     id="dial"
     inkscape:connector-curvature="0"
     style="fill:#333333" />
</svg>
