<?xml version="1.0" encoding="UTF-8" standalone="no"?>
<!-- Created with Inkscape (http://www.inkscape.org/) -->

<svg
   width="44.317707mm"
   height="44.317703mm"
   viewBox="0 0 44.317707 44.317703"
   version="1.1"
   id="svg6511"
   inkscape:version="1.4.3 (0d15f75042, 2025-12-25)"
   sodipodi:docname="bg.svg"
   xmlns:inkscape="http://www.inkscape.org/namespaces/inkscape"
   xmlns:sodipodi="http://sodipodi.sourceforge.net/DTD/sodipodi-0.dtd"
   xmlns:xlink="http://www.w3.org/1999/xlink"
   xmlns="http://www.w3.org/2000/svg"
   xmlns:svg="http://www.w3.org/2000/svg">
  <sodipodi:namedview
     id="namedview6513"
     pagecolor="#ffffff"
     bordercolor="#000000"
     borderopacity="0.25"
     inkscape:showpageshadow="2"
     inkscape:pageopacity="0.0"
     inkscape:pagecheckerboard="0"
     inkscape:deskcolor="#d1d1d1"
     inkscape:document-units="mm"
     showgrid="false"
     inkscape:zoom="5.6568542"
     inkscape:cx="85.64831"
     inkscape:cy="50.734912"
     inkscape:window-width="1920"
     inkscape:window-height="1012"
     inkscape:window-x="0"
     inkscape:window-y="0"
     inkscape:window-maximized="1"
     inkscape:current-layer="layer1"
     showguides="true" />
  <defs
     id="defs6508">
    <clipPath
       clipPathUnits="userSpaceOnUse"
       id="clipPath2426">
      <path
         d="m 8060.68,5204.7 c -93.72,0 -175.9,82.2 -175.9,175.9 0,93.7 82.18,175.9 175.9,175.9 93.72,0 175.91,-82.2 175.91,-175.9 0,-93.7 -82.19,-175.9 -175.91,-175.9 z"
         id="path2424" />
    </clipPath>
    <linearGradient
       x1="0"
       y1="0"
       x2="1"
       y2="0"
       gradientUnits="userSpaceOnUse"
       gradientTransform="matrix(174.538,-302.309,-302.309,-174.538,7973.41,5531.8)"
       spreadMethod="pad"
       id="linearGradient2434">
      <stop
         style="stop-opacity:1;stop-color:#ededed"
         offset="0"
         id="stop2428" />
      <stop
         style="stop-opacity:1;stop-color:#ededed"
         offset="0.48211215"
         id="stop2430" />
      <stop
         style="stop-opacity:1;stop-color:#d0d0d0"
         offset="1"
         id="stop2432" />
    </linearGradient>
    <clipPath
       clipPathUnits="userSpaceOnUse"
       id="clipPath2444">
      <path
         d="m 8060.68,5224.3 c -83.29,0 -156.36,73 -156.36,156.3 0,83.3 73.07,156.4 156.36,156.4 83.3,0 156.37,-73.1 156.37,-156.4 0,-83.3 -73.07,-156.3 -156.37,-156.3 z"
         id="path2442" />
    </clipPath>
    <linearGradient
       x1="0"
       y1="0"
       x2="1"
       y2="0"
       gradientUnits="userSpaceOnUse"
       gradientTransform="matrix(155.141,-268.712,-268.712,-155.141,7983.11,5515)"
       spreadMethod="pad"
       id="linearGradient2452">
      <stop
         style="stop-opacity:1;stop-color:#d0d0d0"
         offset="0"
         id="stop2446" />
      <stop
         style="stop-opacity:1;stop-color:#ededed"
         offset="0.51788785"
         id="stop2448" />
      <stop
         style="stop-opacity:1;stop-color:#ededed"
         offset="1"
         id="stop2450" />
    </linearGradient>
  </defs>
  <g
     inkscape:label="Layer 1"
     inkscape:groupmode="layer"
     id="layer1"
     transform="translate(0.09317171,-98.332576)">
    <path
       d="m 22.065503,98.552702 c -12.096997,0 -21.93836788,9.841438 -21.93836788,21.938548 0,12.0971 9.84137088,21.93889 21.93836788,21.93889 12.096855,0 21.938297,-9.84179 21.938297,-21.93889 0,-12.09711 -9.841442,-21.938548 -21.938297,-21.938548 z m 0,44.097928 c -12.2183878,0 -22.15885399,-9.94057 -22.15885399,-22.15938 0,-12.21846 9.94046619,-22.159034 22.15885399,-22.159034 12.218211,0 22.158783,9.940574 22.158783,22.159034 0,12.21881 -9.940572,22.15938 -22.158783,22.15938"
       style="fill:#000000;fill-opacity:1;fill-rule:nonzero;stroke:none;stroke-width:0.0352778"
       id="path16-7-6-5" />
    <rect
       style="fill:#000000;fill-opacity:1;stroke:none;stroke-width:1.92084;stroke-linejoin:round;stroke-dasharray:none;stroke-opacity:1"
       id="rect11965-3-6"
       width="0.21166667"
       height="6.614583"
       x="21.959641"
       y="108.25642"
       inkscape:transform-center-x="-8.1341294e-06"
       inkscape:transform-center-y="-33.742496"
       inkscape:tile-cx="-372.64606"
       inkscape:tile-cy="177.4838"
       inkscape:tile-w="0.80000001"
       inkscape:tile-h="24.999999"
       inkscape:tile-x0="-373.04605"
       inkscape:tile-y0="131.2413" />
    <g
       aria-label="12"
       id="use14656-3-5"
       style="font-weight:bold;font-size:4.23333px;-inkscape-font-specification:'sans-serif Bold';stroke-width:0.198437;stroke-linejoin:round"
       inkscape:label="text14208"
       inkscape:transform-center-x="4.8417816e-06"
       inkscape:transform-center-y="-57.217039">
      <path
         style="color:#000000;-inkscape-font-specification:'Nimbus Sans L Bold';fill:#000000;stroke-linejoin:miter;-inkscape-stroke:none"
         d="m 20.960937,103.80078 a 0.09922842,0.09922842 0 0 0 -0.0957,0.0742 c -0.04246,0.15773 -0.123863,0.2645 -0.255859,0.3418 -0.131996,0.0773 -0.32021,0.12109 -0.566406,0.12109 a 0.09922842,0.09922842 0 0 0 -0.09766,0.0996 v 0.39258 a 0.09922842,0.09922842 0 0 0 0.09766,0.0996 h 0.621093 v 1.9707 A 0.09922842,0.09922842 0 0 0 20.763672,107 h 0.589844 a 0.09922842,0.09922842 0 0 0 0.09961,-0.0996 v -3 a 0.09922842,0.09922842 0 0 0 -0.09961,-0.0996 z M 21.001953,104 h 0.253906 v 2.80273 h -0.392578 v -1.97265 a 0.09922842,0.09922842 0 0 0 -0.09961,-0.0996 h -0.621094 v -0.21484 c 0.217341,-0.0119 0.420332,-0.0403 0.568359,-0.12696 0.146175,-0.0856 0.228296,-0.23126 0.291016,-0.38867 z"
         id="path1585" />
      <path
         style="color:#000000;-inkscape-font-specification:'Nimbus Sans L Bold';fill:#000000;stroke-linejoin:miter;-inkscape-stroke:none"
         d="m 23.0625,103.73828 c -0.330167,0 -0.604391,0.0974 -0.798828,0.29492 -0.194977,0.19498 -0.289063,0.46962 -0.289063,0.80469 0,0.0435 8.12e-4,0.0828 0.0039,0.11719 a 0.09922842,0.09922842 0 0 0 0.09961,0.0898 h 0.566406 a 0.09922842,0.09922842 0 0 0 0.09961,-0.0996 v -0.0996 c 0,-0.15348 0.03245,-0.25646 0.08789,-0.32422 0.05911,-0.0718 0.130088,-0.10546 0.242188,-0.10546 0.107721,0 0.174781,0.0318 0.230468,0.0957 a 0.09922842,0.09922842 0 0 0 0.002,0 c 0.0576,0.0638 0.08984,0.15431 0.08984,0.28906 0,0.14718 -0.03783,0.26011 -0.113281,0.35156 a 0.09922842,0.09922842 0 0 0 -0.002,0 c -0.07182,0.0898 -0.279289,0.26563 -0.607422,0.49805 -0.259957,0.17819 -0.44632,0.35519 -0.556641,0.53906 -0.10808,0.18219 -0.165389,0.4182 -0.179687,0.70703 A 0.09922842,0.09922842 0 0 0 22.037109,107 h 2.03711 a 0.09922842,0.09922842 0 0 0 0.09961,-0.0996 v -0.52734 a 0.09922842,0.09922842 0 0 0 -0.09961,-0.0996 H 23 c 0.013,-0.0141 0.0182,-0.0291 0.0332,-0.043 0.06671,-0.0618 0.218473,-0.1792 0.443359,-0.34375 a 0.09922842,0.09922842 0 0 0 0,-0.002 c 0.26387,-0.1937 0.447075,-0.36105 0.552735,-0.51954 a 0.09922842,0.09922842 0 0 0 0,-0.002 c 0.105503,-0.16136 0.15625,-0.35508 0.15625,-0.57422 0,-0.31049 -0.103444,-0.57383 -0.308594,-0.76367 -0.204991,-0.19204 -0.482691,-0.28711 -0.814453,-0.28711 z m 0,0.19922 c 0.295915,0 0.51549,0.078 0.679687,0.23242 a 0.09922842,0.09922842 0 0 0 0,0.002 c 0.164165,0.15191 0.246094,0.3489 0.246094,0.61718 0,0.18802 -0.04372,0.33985 -0.125,0.46485 -0.08175,0.12262 -0.249635,0.286 -0.503906,0.47265 -0.226508,0.16574 -0.376723,0.28138 -0.458984,0.35742 -0.07974,0.0736 -0.143638,0.15582 -0.185547,0.2461 a 0.09922842,0.09922842 0 0 0 0.08984,0.14062 h 1.169922 v 0.33203 h -1.814453 c 0.02208,-0.20523 0.05638,-0.39274 0.126953,-0.51171 0.08792,-0.14653 0.25358,-0.30977 0.5,-0.47852 a 0.09922842,0.09922842 0 0 0 0.002,0 c 0.332729,-0.23568 0.541721,-0.40453 0.646485,-0.53516 0.106449,-0.12902 0.160156,-0.293 0.160156,-0.47656 0,-0.16749 -0.045,-0.31299 -0.140625,-0.41992 -0.09314,-0.10694 -0.22951,-0.16211 -0.380859,-0.16211 -0.157997,0 -0.299306,0.0601 -0.394532,0.17578 -0.09339,0.11414 -0.134765,0.26841 -0.134765,0.45117 h -0.371094 c -1.6e-5,-0.003 0,-0.005 0,-0.008 0,-0.29883 0.07818,-0.51373 0.230469,-0.66601 0.152827,-0.15526 0.365499,-0.23438 0.658203,-0.23438 z"
         id="path1587" />
    </g>
    <g
       aria-label="3"
       id="use14658-7-2"
       style="font-weight:bold;font-size:4.23333px;-inkscape-font-specification:'sans-serif Bold';stroke-width:0.198437;stroke-linejoin:round"
       inkscape:label="text14208"
       inkscape:transform-center-x="4.8417816e-06"
       inkscape:transform-center-y="-57.217039">
      <path
         style="color:#000000;-inkscape-font-specification:'Nimbus Sans L Bold';fill:#000000;stroke-linejoin:miter;-inkscape-stroke:none"
         d="m 37.173828,118.80273 c -0.378131,0 -0.681212,0.12617 -0.875,0.37696 -3.58e-4,4.4e-4 3.58e-4,0.002 0,0.002 -0.133954,0.16667 -0.195312,0.39487 -0.195312,0.67578 v 0.0508 a 0.09922842,0.09922842 0 0 0 0.09961,0.0977 h 0.548828 a 0.09922842,0.09922842 0 0 0 0.09961,-0.0957 c 0.0026,-0.1344 0.01972,-0.23094 0.03906,-0.2793 0.04416,-0.10935 0.112496,-0.1543 0.271484,-0.1543 0.09852,0 0.154211,0.0255 0.197266,0.0742 a 0.09922842,0.09922842 0 0 0 0.0039,0.004 c 0.04555,0.0474 0.07031,0.11431 0.07031,0.2207 0,0.13094 -0.03301,0.20791 -0.0957,0.26172 -0.0627,0.0538 -0.169261,0.0898 -0.330079,0.0898 h -0.04883 a 0.09922842,0.09922842 0 0 0 -0.09961,0.0996 v 0.39649 h 0.0078 a 0.09922842,0.09922842 0 0 0 -0.0059,0.0195 0.09922842,0.09922842 0 0 0 0.101563,0.0742 l -0.0039,0.006 c 0.13375,0 0.241002,0.0104 0.320313,0.0293 0.08018,0.0223 0.136379,0.0606 0.18164,0.12305 a 0.09922842,0.09922842 0 0 0 0.002,0.002 c 0.04736,0.0624 0.07031,0.13256 0.07031,0.22461 0,0.10772 -0.03106,0.18706 -0.09961,0.25782 -0.06506,0.0672 -0.137697,0.0977 -0.242188,0.0977 -0.123637,0 -0.200379,-0.0299 -0.253906,-0.0859 -0.05353,-0.056 -0.09017,-0.14879 -0.09766,-0.29101 a 0.09922842,0.09922842 0 0 0 -0.09961,-0.0937 h -0.574218 a 0.09922842,0.09922842 0 0 0 -0.09961,0.0996 c 0.0029,0.32026 0.10471,0.5913 0.306641,0.78711 0.201856,0.19574 0.475788,0.29101 0.800781,0.29101 0.337666,0 0.621417,-0.0929 0.832031,-0.28515 a 0.09922842,0.09922842 0 0 0 0,-0.002 c 0.210192,-0.19496 0.316407,-0.46172 0.316407,-0.77539 0,-0.19138 -0.04403,-0.36062 -0.136719,-0.49804 -0.06655,-0.10143 -0.185704,-0.17393 -0.302735,-0.24805 0.09211,-0.0697 0.188818,-0.13852 0.240235,-0.22266 a 0.09922842,0.09922842 0 0 0 0,-0.002 c 0.07087,-0.11919 0.105469,-0.25924 0.105469,-0.41406 0,-0.2712 -0.102072,-0.50214 -0.296875,-0.66602 -0.194158,-0.16576 -0.452128,-0.24805 -0.757813,-0.24805 z m 0,0.19922 c 0.272379,0 0.477907,0.0681 0.630859,0.19922 0.152462,0.12826 0.22461,0.29073 0.22461,0.51563 0,0.12555 -0.02635,0.22803 -0.07617,0.3125 -0.04945,0.0809 -0.136174,0.16426 -0.267578,0.24414 a 0.09922842,0.09922842 0 0 0 0.0059,0.17383 c 0.156669,0.077 0.265129,0.16783 0.330078,0.26757 0.06717,0.0996 0.103516,0.22532 0.103516,0.38672 0,0.27061 -0.08376,0.47304 -0.253906,0.63086 -0.169724,0.15497 -0.395524,0.23438 -0.697266,0.23438 -0.286854,0 -0.500165,-0.0793 -0.662109,-0.23633 -0.136434,-0.1323 -0.185677,-0.32737 -0.208985,-0.54492 h 0.373047 c 0.02066,0.12266 0.04236,0.244 0.117188,0.32226 0.09668,0.10112 0.238196,0.14844 0.398437,0.14844 0.149068,0 0.284461,-0.0546 0.384766,-0.1582 0.102329,-0.10563 0.15625,-0.24514 0.15625,-0.39649 0,-0.12843 -0.03742,-0.24632 -0.111328,-0.34375 -0.07045,-0.0966 -0.171353,-0.16457 -0.289063,-0.19726 a 0.09922842,0.09922842 0 0 0 -0.002,-0.002 c -0.07485,-0.0182 -0.173817,-0.0209 -0.271484,-0.0254 v -0.22461 c 0.161703,-0.008 0.308351,-0.0354 0.408203,-0.12109 0.112312,-0.0964 0.166015,-0.24264 0.166015,-0.41211 0,-0.14073 -0.03943,-0.26524 -0.125,-0.35547 -0.08372,-0.0946 -0.207191,-0.14062 -0.345703,-0.14062 -0.210326,0 -0.385435,0.10005 -0.457031,0.27734 -0.02577,0.0644 -0.02998,0.15931 -0.03711,0.25195 h -0.353516 c 0.0087,-0.21907 0.05043,-0.39465 0.138672,-0.5039 a 0.09922842,0.09922842 0 0 0 0.002,-0.002 c 0.153546,-0.19985 0.381323,-0.30078 0.71875,-0.30078 z"
         id="path1531" />
    </g>
    <g
       aria-label="6"
       id="use14658-8-6-8"
       style="font-weight:bold;font-size:4.23333px;-inkscape-font-specification:'sans-serif Bold';stroke-width:0.198437;stroke-linejoin:round"
       inkscape:label="text14208"
       inkscape:transform-center-x="4.8417816e-06"
       inkscape:transform-center-y="-57.217039">
      <path
         style="color:#000000;-inkscape-font-specification:'Nimbus Sans L Bold';fill:#000000;stroke-linejoin:miter;-inkscape-stroke:none"
         d="m 22.150391,133.93359 c -0.412309,0 -0.74027,0.17527 -0.94336,0.50977 -0.179562,0.29628 -0.263672,0.70596 -0.263672,1.22656 0,0.50211 0.07024,0.87535 0.230469,1.12891 0.09438,0.15528 0.225458,0.27953 0.388672,0.36719 a 0.09922842,0.09922842 0 0 0 0.002,0 c 0.16327,0.0847 0.343718,0.12695 0.537109,0.12695 0.320318,0 0.594416,-0.11428 0.796875,-0.33789 0.202418,-0.22356 0.302735,-0.51864 0.302735,-0.86524 0,-0.30507 -0.08827,-0.56491 -0.265625,-0.76367 -0.17729,-0.20094 -0.419539,-0.30664 -0.701172,-0.30664 -0.186008,0 -0.335561,0.11184 -0.486328,0.21484 0.0072,-0.10342 0.01238,-0.22639 0.02148,-0.27343 0.02454,-0.12027 0.06959,-0.20459 0.132813,-0.26563 0.06501,-0.0601 0.136156,-0.0879 0.232422,-0.0879 0.07912,0 0.130533,0.0159 0.164062,0.041 a 0.09922842,0.09922842 0 0 0 0.002,0.002 c 0.03666,0.0262 0.07533,0.077 0.109375,0.16211 a 0.09922842,0.09922842 0 0 0 0.0918,0.0625 h 0.550781 a 0.09922842,0.09922842 0 0 0 0.09766,-0.084 0.09922842,0.09922842 0 0 0 -0.0039,-0.0312 h 0.0039 c -0.0012,-0.008 -0.0065,-0.0121 -0.0078,-0.0195 a 0.09922842,0.09922842 0 0 0 -0.002,-0.008 c -0.02792,-0.15526 -0.07485,-0.29588 -0.150391,-0.41211 a 0.09922842,0.09922842 0 0 0 -0.002,-0.004 c -0.186813,-0.25419 -0.47915,-0.38282 -0.83789,-0.38282 z m 0,0.19727 c 0.311895,0 0.524529,0.0999 0.673828,0.30078 0.04267,0.066 0.0653,0.15755 0.08984,0.24609 h -0.361328 c -0.0377,-0.0727 -0.07574,-0.14473 -0.134765,-0.1875 -0.07671,-0.0575 -0.174908,-0.082 -0.283203,-0.082 -0.140048,0 -0.269173,0.0493 -0.369141,0.14258 a 0.09922842,0.09922842 0 0 0 -0.002,0.002 c -0.09663,0.0933 -0.158876,0.21931 -0.189453,0.36914 -0.01883,0.0973 -0.03071,0.24746 -0.03906,0.45899 a 0.09922842,0.09922842 0 0 0 0.171875,0.0723 c 0.152427,-0.15992 0.321032,-0.23437 0.527344,-0.23437 0.235849,0 0.410427,0.0763 0.552734,0.23828 a 0.09922842,0.09922842 0 0 0 0.002,0.002 c 0.142351,0.15954 0.212891,0.36268 0.212891,0.63086 0,0.30936 -0.0831,0.5481 -0.25,0.73243 -0.166855,0.18429 -0.375396,0.27343 -0.650391,0.27343 -0.164897,0 -0.310927,-0.0358 -0.445312,-0.10547 v 0.002 c -0.134442,-0.0722 -0.236008,-0.16908 -0.3125,-0.29492 a 0.09922842,0.09922842 0 0 0 -0.002,-0.002 c -0.12583,-0.19842 -0.199219,-0.54166 -0.199219,-1.02539 0,-0.49914 0.08321,-0.87362 0.234375,-1.12305 0.171737,-0.28285 0.414046,-0.41601 0.773438,-0.41601 z m -0.06055,1.35156 c -0.16294,0 -0.310156,0.0684 -0.41211,0.19336 -0.101608,0.12455 -0.15039,0.2863 -0.15039,0.46875 0,0.17753 0.04856,0.3355 0.15039,0.45703 a 0.09922842,0.09922842 0 0 0 0.002,0 c 0.102305,0.11881 0.246904,0.1836 0.40625,0.1836 0.156276,0 0.297475,-0.0696 0.398438,-0.19336 0.103418,-0.12355 0.154297,-0.28157 0.154297,-0.45899 0,-0.1812 -0.04724,-0.3391 -0.146485,-0.45898 -0.097,-0.12283 -0.240707,-0.19141 -0.402343,-0.19141 z m 0,0.19922 c 0.113329,0 0.185199,0.0351 0.248047,0.11523 a 0.09922842,0.09922842 0 0 0 0.002,0.002 c 0.06533,0.0784 0.101562,0.18515 0.101562,0.33398 0,0.14161 -0.0372,0.24633 -0.109375,0.33203 a 0.09922842,0.09922842 0 0 0 -0.002,0.002 c -0.06991,0.0857 -0.141346,0.11914 -0.244141,0.11914 -0.110749,0 -0.187288,-0.0336 -0.255859,-0.11328 -0.06905,-0.0824 -0.105469,-0.18595 -0.105469,-0.32813 0,-0.14828 0.03815,-0.25689 0.107422,-0.3418 0.06892,-0.0845 0.145145,-0.12109 0.257813,-0.12109 z"
         id="path1605" />
    </g>
    <g
       aria-label="9 "
       id="use14658-5-8-7"
       style="font-weight:bold;font-size:4.23333px;-inkscape-font-specification:'sans-serif Bold';stroke-width:0.198437;stroke-linejoin:round"
       inkscape:label="text14208"
       inkscape:transform-center-x="4.8417816e-06"
       inkscape:transform-center-y="-57.217039">
      <path
         style="color:#000000;-inkscape-font-specification:'Nimbus Sans L Bold';fill:#000000;stroke-linejoin:miter;-inkscape-stroke:none"
         d="m 6.9277344,118.81641 c -0.3219553,0 -0.5970045,0.1094 -0.8027344,0.32422 -0.2028493,0.21495 -0.3046875,0.4984 -0.3046875,0.83203 0,0.32639 0.089104,0.60558 0.2714844,0.81836 0.1825581,0.21297 0.4334041,0.32421 0.7246093,0.32421 0.1597693,0 0.3020235,-0.0464 0.4238282,-0.125 -0.019167,0.10996 -0.021763,0.25678 -0.058594,0.32032 -0.068288,0.11779 -0.1502703,0.16406 -0.2871094,0.16406 -0.087384,0 -0.1454089,-0.0207 -0.1914062,-0.0566 -0.047193,-0.0393 -0.068214,-0.0797 -0.072266,-0.14453 A 0.09922842,0.09922842 0 0 0 6.53125,121.18164 H 5.9609375 a 0.09922842,0.09922842 0 0 0 -0.099609,0.0977 0.09922842,0.09922842 0 0 0 0.00391,0.004 h -0.00391 c 0.00609,0.25578 0.1106431,0.47879 0.3027344,0.64649 0.1920494,0.16766 0.4364225,0.25195 0.7148437,0.25195 0.415111,0 0.7439863,-0.17957 0.9414063,-0.51758 0.1785802,-0.30656 0.2617188,-0.72325 0.2617188,-1.25195 0,-0.45669 -0.06778,-0.80975 -0.2207032,-1.06055 -0.2072044,-0.34929 -0.5326157,-0.53515 -0.9335937,-0.53515 z m 0,0.19726 c 0.3431612,0 0.5830732,0.13831 0.7617187,0.43946 a 0.09922842,0.09922842 0 0 0 0.00195,0.002 c 0.1226842,0.2012 0.1914063,0.52076 0.1914063,0.95703 0,0.50759 -0.082227,0.89116 -0.234375,1.15234 -0.1663814,0.28487 -0.4074301,0.41797 -0.7695313,0.41797 -0.23972,0 -0.4287688,-0.0676 -0.5839843,-0.20312 -0.1238415,-0.10812 -0.1607361,-0.2496 -0.1875,-0.40039 h 0.3710937 c 0.023277,0.0698 0.040146,0.14348 0.097656,0.1914 a 0.09922842,0.09922842 0 0 0 0.00195,0.002 c 0.086128,0.0681 0.1951494,0.0996 0.3164062,0.0996 0.1938896,0 0.3619083,-0.0943 0.4589844,-0.26172 0.097076,-0.16746 0.1367188,-0.39852 0.1367188,-0.69336 a 0.09922842,0.09922842 0 0 0 -0.1738282,-0.0645 c -0.086489,0.0973 -0.1517283,0.15868 -0.1679687,0.16993 -0.08954,0.062 -0.1966829,0.0937 -0.3320313,0.0937 -0.2434726,0 -0.4260482,-0.0811 -0.5742187,-0.25391 -0.1483483,-0.17307 -0.2226563,-0.39849 -0.2226563,-0.68945 0,-0.29476 0.083536,-0.51891 0.25,-0.69532 0.1688835,-0.17565 0.3800463,-0.26367 0.6582032,-0.26367 z m -0.015625,0.28125 c -0.1562757,0 -0.2969697,0.072 -0.3925782,0.19727 a 0.09922842,0.09922842 0 0 0 -0.00195,0 c -0.093522,0.12358 -0.1347656,0.28432 -0.1347656,0.47265 0,0.18581 0.041505,0.34551 0.1347656,0.46875 a 0.09922842,0.09922842 0 0 0 0.00195,0.004 c 0.097053,0.12047 0.2410461,0.18555 0.4003907,0.18555 0.1616147,0 0.3062125,-0.0655 0.40625,-0.18555 0.1023918,-0.12222 0.1523437,-0.28044 0.1523437,-0.46289 0,-0.19171 -0.048481,-0.35867 -0.1503906,-0.48438 -0.099958,-0.12661 -0.2485307,-0.19531 -0.4160156,-0.19531 z m 0,0.19922 c 0.1191465,0 0.1943591,0.0363 0.2597656,0.11914 a 0.09922842,0.09922842 0 0 0 0.00195,0.002 c 0.06819,0.0836 0.1054688,0.19901 0.1054688,0.35938 0,0.14827 -0.036984,0.25419 -0.1054688,0.33594 -0.065327,0.0784 -0.1399138,0.11328 -0.2539062,0.11328 -0.1096907,0 -0.181772,-0.033 -0.2441407,-0.10938 v -0.002 c -0.060488,-0.0806 -0.095703,-0.19253 -0.095703,-0.34766 0,-0.15893 0.034885,-0.27315 0.095703,-0.35351 0.064244,-0.0842 0.1335332,-0.11719 0.2363282,-0.11719 z"
         id="path1598" />
    </g>
    <path
       d="m 22.065503,98.552702 c -12.09675,0 -21.93854427,9.841438 -21.93854427,21.938548 0,12.0971 9.84179427,21.93889 21.93854427,21.93889 12.097102,0 21.938896,-9.84179 21.938896,-21.93889 0,-12.09711 -9.841794,-21.938548 -21.938896,-21.938548 z m 0,44.097928 c -12.2184584,0 -22.15903038,-9.94057 -22.15903038,-22.15938 0,-12.21846 9.94057198,-22.159034 22.15903038,-22.159034 12.218458,0 22.159383,9.940574 22.159383,22.159034 0,12.21881 -9.940925,22.15938 -22.159383,22.15938"
       style="fill:#191a1b;fill-opacity:1;fill-rule:nonzero;stroke:none;stroke-width:0.0352778"
       id="path92-1" />
    <g
       id="g1038"
       transform="matrix(0.35277777,0,0,-0.35277777,121.91198,232.51601)">
      <g
         id="g1162"
         inkscape:transform-center-x="8.122641e-06"
         inkscape:transform-center-y="-74.340217"
         inkscape:tile-cx="-372.64606"
         inkscape:tile-cy="177.4838"
         inkscape:tile-w="2.7506836"
         inkscape:tile-h="14.345436"
         inkscape:tile-x0="-374.02141"
         inkscape:tile-y0="95.970865">
        <rect
           style="fill:#000000;fill-opacity:1;stroke:none;stroke-width:2.32256;stroke-linejoin:round;stroke-dasharray:none;stroke-opacity:1"
           id="rect15374-0-3-6-6"
           width="0.60000002"
           height="10.759077"
           x="-284.061"
           y="-378.68472"
           transform="scale(1,-1)" />
        <rect
           style="fill:#000000;fill-opacity:1;stroke:none;stroke-width:2.32256;stroke-linejoin:round;stroke-dasharray:none;stroke-opacity:1"
           id="rect15374-0-3-6-1-3"
           width="0.60000002"
           height="10.759077"
           x="-282.59799"
           y="-378.68472"
           transform="scale(1,-1)" />
      </g>
      <use
         x="0"
         y="0"
         inkscape:tiled-clone-of="#g1162"
         xlink:href="#g1162"
         id="use1166"
         inkscape:transform-center-x="8.122641e-06"
         inkscape:transform-center-y="-74.340217" />
      <use
         x="0"
         y="0"
         inkscape:tiled-clone-of="#g1162"
         xlink:href="#g1162"
         transform="rotate(-30,-283.02949,317.55002)"
         id="use1168"
         inkscape:transform-center-x="-37.170102"
         inkscape:transform-center-y="-64.380522" />
      <use
         x="0"
         y="0"
         inkscape:tiled-clone-of="#g1162"
         xlink:href="#g1162"
         transform="rotate(-60,-283.02949,317.55002)"
         id="use1170"
         inkscape:transform-center-x="-64.380514"
         inkscape:transform-center-y="-37.170118" />
      <use
         x="0"
         y="0"
         inkscape:tiled-clone-of="#g1162"
         xlink:href="#g1162"
         transform="rotate(-90,-283.02949,317.55002)"
         id="use1172"
         inkscape:transform-center-x="-74.34022"
         inkscape:transform-center-y="-1.0744873e-05" />
      <use
         x="0"
         y="0"
         inkscape:tiled-clone-of="#g1162"
         xlink:href="#g1162"
         transform="rotate(-120,-283.02949,317.55002)"
         id="use1174"
         inkscape:transform-center-x="-64.380525"
         inkscape:transform-center-y="37.170099" />
      <use
         x="0"
         y="0"
         inkscape:tiled-clone-of="#g1162"
         xlink:href="#g1162"
         transform="rotate(-150,-283.02949,317.55002)"
         id="use1176"
         inkscape:transform-center-x="-37.170121"
         inkscape:transform-center-y="64.380511" />
      <use
         x="0"
         y="0"
         inkscape:tiled-clone-of="#g1162"
         xlink:href="#g1162"
         transform="rotate(180,-283.02949,317.55002)"
         id="use1178"
         inkscape:transform-center-x="-1.3954944e-05"
         inkscape:transform-center-y="74.340218" />
      <use
         x="0"
         y="0"
         inkscape:tiled-clone-of="#g1162"
         xlink:href="#g1162"
         transform="rotate(150,-283.02949,317.55002)"
         id="use1180"
         inkscape:transform-center-x="37.170096"
         inkscape:transform-center-y="64.380523" />
      <use
         x="0"
         y="0"
         inkscape:tiled-clone-of="#g1162"
         xlink:href="#g1162"
         transform="rotate(120,-283.02949,317.55002)"
         id="use1182"
         inkscape:transform-center-x="64.380508"
         inkscape:transform-center-y="37.170119" />
      <use
         x="0"
         y="0"
         inkscape:tiled-clone-of="#g1162"
         xlink:href="#g1162"
         transform="rotate(90,-283.02949,317.55002)"
         id="use1184"
         inkscape:transform-center-x="74.340214"
         inkscape:transform-center-y="1.1332712e-05" />
      <use
         x="0"
         y="0"
         inkscape:tiled-clone-of="#g1162"
         xlink:href="#g1162"
         transform="rotate(60,-283.02949,317.55002)"
         id="use1186"
         inkscape:transform-center-x="64.380519"
         inkscape:transform-center-y="-37.170099" />
      <use
         x="0"
         y="0"
         inkscape:tiled-clone-of="#g1162"
         xlink:href="#g1162"
         transform="rotate(30,-283.02949,317.55002)"
         id="use1188"
         inkscape:transform-center-x="37.170115"
         inkscape:transform-center-y="-64.380511" />
    </g>
    <use
       x="0"
       y="0"
       inkscape:tiled-clone-of="#rect11965-3-6"
       xlink:href="#rect11965-3-6"
       id="use1539"
       inkscape:transform-center-x="-8.1341294e-06"
       inkscape:transform-center-y="-33.742496" />
    <use
       x="0"
       y="0"
       inkscape:tiled-clone-of="#rect11965-3-6"
       xlink:href="#rect11965-3-6"
       transform="rotate(30.000001,22.065467,120.49141)"
       id="use1541"
       inkscape:transform-center-x="-16.871254"
       inkscape:transform-center-y="-29.221856" />
    <use
       x="0"
       y="0"
       inkscape:tiled-clone-of="#rect11965-3-6"
       xlink:href="#rect11965-3-6"
       transform="rotate(59.999999,22.065467,120.49142)"
       id="use1543"
       inkscape:transform-center-x="-29.221862"
       inkscape:transform-center-y="-16.871244" />
    <use
       x="0"
       y="0"
       inkscape:tiled-clone-of="#rect11965-3-6"
       xlink:href="#rect11965-3-6"
       transform="rotate(90,22.065468,120.49142)"
       id="use1545"
       inkscape:transform-center-x="-33.742496"
       inkscape:transform-center-y="2.9900404e-06" />
    <use
       x="0"
       y="0"
       inkscape:tiled-clone-of="#rect11965-3-6"
       xlink:href="#rect11965-3-6"
       transform="rotate(120,22.065469,120.49142)"
       id="use1547"
       inkscape:transform-center-x="-29.221856"
       inkscape:transform-center-y="16.871249" />
    <use
       x="0"
       y="0"
       inkscape:tiled-clone-of="#rect11965-3-6"
       xlink:href="#rect11965-3-6"
       transform="rotate(150,22.065467,120.49142)"
       id="use1549"
       inkscape:transform-center-x="-16.871245"
       inkscape:transform-center-y="29.221857" />
    <use
       x="0"
       y="0"
       inkscape:tiled-clone-of="#rect11965-3-6"
       xlink:href="#rect11965-3-6"
       transform="rotate(180,22.065467,120.49142)"
       id="use1551"
       inkscape:transform-center-x="2.8351594e-06"
       inkscape:transform-center-y="33.742491" />
    <use
       x="0"
       y="0"
       inkscape:tiled-clone-of="#rect11965-3-6"
       xlink:href="#rect11965-3-6"
       transform="rotate(-150,22.065468,120.49142)"
       id="use1553"
       inkscape:transform-center-x="16.871249"
       inkscape:transform-center-y="29.221851" />
    <use
       x="0"
       y="0"
       inkscape:tiled-clone-of="#rect11965-3-6"
       xlink:href="#rect11965-3-6"
       transform="rotate(-120,22.065466,120.49142)"
       id="use1555"
       inkscape:transform-center-x="29.221857"
       inkscape:transform-center-y="16.87124" />
    <use
       x="0"
       y="0"
       inkscape:tiled-clone-of="#rect11965-3-6"
       xlink:href="#rect11965-3-6"
       transform="rotate(-90,22.065466,120.49142)"
       id="use1557"
       inkscape:transform-center-x="33.742491"
       inkscape:transform-center-y="-7.9792485e-06" />
    <use
       x="0"
       y="0"
       inkscape:tiled-clone-of="#rect11965-3-6"
       xlink:href="#rect11965-3-6"
       transform="rotate(-59.999999,22.065468,120.49142)"
       id="use1559"
       inkscape:transform-center-x="29.221851"
       inkscape:transform-center-y="-16.871254" />
    <use
       x="0"
       y="0"
       inkscape:tiled-clone-of="#rect11965-3-6"
       xlink:href="#rect11965-3-6"
       transform="rotate(-30.000001,22.065469,120.49142)"
       id="use1561"
       inkscape:transform-center-x="16.871239"
       inkscape:transform-center-y="-29.221862" />
    <path
       style="fill:#ff4141;stroke-width:1.8855;fill-opacity:1"
       d="M 73.185552,165.7937 C 39.355513,161.19777 11.895319,136.74023 3.544891,103.76792 -1.0270379,85.715312 0.68245107,66.925543 8.4704322,49.629075 18.541502,27.262046 39.415143,9.6852229 62.968294,3.738691 74.207887,0.90099844 84.213318,0.2999009 94.929086,1.8185785 132.07939,7.0836547 160.92775,36.248988 165.80062,73.468827 c 0.69012,5.271258 0.70698,15.160086 0.0345,20.258496 -2.48994,18.878497 -10.46186,35.152587 -23.70855,48.399277 -13.24669,13.24669 -29.52078,21.21861 -48.399277,23.70855 -4.824038,0.63626 -15.714989,0.61428 -20.541771,-0.0414 z m 10.076272,-7.75533 c 0,-6.20683 -0.07617,-7.24785 -0.53033,-7.24785 -0.454157,0 -0.53033,1.04102 -0.53033,7.24785 0,6.20682 0.07617,7.24784 0.53033,7.24784 0.454157,0 0.53033,-1.04102 0.53033,-7.24784 z m 2.121321,0 c 0,-6.20683 -0.07617,-7.24785 -0.530331,-7.24785 -0.454157,0 -0.53033,1.04102 -0.53033,7.24785 0,6.20682 0.07617,7.24784 0.53033,7.24784 0.454157,0 0.530331,-1.04102 0.530331,-7.24784 z m -37.381134,-9.17892 c 3.103584,-5.36961 3.73194,-6.90776 2.821915,-6.90776 -0.29072,0 -7.513635,12.3652 -7.513635,12.86289 0,0.14874 0.276832,0.21712 0.615183,0.15196 0.36923,-0.0711 1.999051,-2.51275 4.076537,-6.10709 z m 75.994609,5.69872 c 0.0578,-0.44443 -6.92537,-12.58129 -7.24671,-12.59484 -0.15194,-0.006 -0.36305,0.21452 -0.46912,0.49095 -0.26173,0.68207 6.62706,12.60689 7.21641,12.49194 0.25334,-0.0494 0.47808,-0.22403 0.49942,-0.38805 z m -77.71006,-6.62801 c 1.86323,-3.22606 3.387692,-6.05006 3.387692,-6.27557 0,-1.44757 -1.432842,0.38199 -4.569886,5.83518 -2.662759,4.62872 -3.475045,6.31787 -3.138264,6.52601 0.249916,0.15446 0.56203,0.16813 0.69358,0.0304 0.131553,-0.13775 1.763648,-2.88995 3.626878,-6.11601 z m 79.40167,5.62206 c 0,-0.20821 -1.55121,-3.06407 -3.44714,-6.34638 -2.34785,-4.06466 -3.61627,-5.93189 -3.97748,-5.85515 -0.29168,0.062 -0.50171,0.26231 -0.46673,0.44522 0.061,0.31887 5.62514,10.07803 6.6969,11.74592 0.5011,0.77982 1.19445,0.78586 1.19445,0.0104 z m -39.285745,-6.87377 c 1.002596,-0.70224 1.80955,-2.53093 1.807764,-4.09669 -0.0016,-1.4183 -1.136444,-3.37 -2.21062,-3.80186 -0.686845,-0.27614 -0.615403,-0.32193 0.532564,-0.34133 1.160376,-0.0196 1.325825,-0.12911 1.325825,-0.87738 0,-0.47024 -0.09883,-1.11252 -0.21962,-1.42729 -0.571059,-1.48816 -4.502502,-2.15134 -6.103933,-1.02966 -2.839306,1.98873 -2.89923,10.08879 -0.08594,11.61742 1.270943,0.69059 3.93955,0.66731 4.953962,-0.0432 z M 84.322484,117.5565 c 0,-11.078 -0.06875,-12.72792 -0.53033,-12.72792 -0.461585,0 -0.53033,1.64992 -0.53033,12.72792 0,11.07801 0.06874,12.72793 0.53033,12.72793 0.461585,0 0.53033,-1.64992 0.53033,-12.72793 z m -63.84942,4.5962 c 3.998631,-2.28783 5.834927,-3.52785 5.759146,-3.88909 -0.06119,-0.29168 -0.307984,-0.48812 -0.548433,-0.43653 -0.330521,0.0709 -11.724246,6.53056 -12.37254,7.01457 -0.292555,0.21843 0.408279,0.87598 0.828962,0.77777 0.254355,-0.0594 3.104145,-1.61941 6.332865,-3.46672 z m 133.721376,3.0052 c 0.0905,-0.3085 -11.49426,-7.17204 -12.41469,-7.35522 -0.19179,-0.0382 -0.39305,0.16925 -0.44725,0.46093 -0.0661,0.35551 1.85538,1.66259 5.82879,3.96508 5.62539,3.25979 6.79338,3.74624 7.03315,2.92921 z M 19.21459,120.60525 c 3.335463,-1.92059 6.064478,-3.71045 6.064478,-3.97747 0,-0.82264 -0.705838,-0.56301 -4.573938,1.68245 -2.054012,1.19237 -4.802206,2.78671 -6.107099,3.54298 -1.700987,0.98583 -2.314115,1.52727 -2.166148,1.91286 0.256012,0.66716 -0.380096,0.9636 6.782707,-3.16082 z m 48.137331,-7.1493 c 3.402952,-5.93405 6.233684,-10.91957 6.290514,-11.07893 0.05683,-0.15936 -0.133505,-0.38063 -0.422973,-0.49171 -0.391532,-0.15024 -2.122936,2.56073 -6.76126,10.58657 -5.533011,9.57394 -6.604579,11.84179 -5.569724,11.7877 0.151943,-0.008 3.060492,-4.86957 6.463443,-10.80363 z m 39.799679,10.35027 c 0.12833,-0.3344 -11.618521,-21.31992 -12.335202,-22.0366 -0.04651,-0.0465 -0.303402,0.0507 -0.570868,0.21598 -0.377404,0.23325 0.931238,2.76219 5.84387,11.29323 3.4816,6.04598 6.45449,10.99325 6.60643,10.99394 0.15195,6.9e-4 0.35704,-0.20926 0.45577,-0.46655 z m 47.87611,-0.34856 c -0.008,-0.59056 -11.95932,-7.41253 -12.57343,-7.17687 -0.27643,0.10607 -0.49624,0.31718 -0.48848,0.46912 0.0198,0.38719 12.47763,7.47628 12.8022,7.28505 0.14584,-0.0859 0.26271,-0.34571 0.25971,-0.5773 z M 54.799977,101.18138 c 6.406246,-3.695166 10.651383,-6.354181 10.720913,-6.715226 0.06331,-0.328752 -0.03071,-0.597728 -0.208936,-0.597728 -0.272049,0 -21.579761,12.191094 -21.94868,12.557824 -0.176405,0.17536 0.294454,0.87765 0.586602,0.87492 0.134364,-0.001 5.016908,-2.75516 10.850101,-6.11979 z m 69.353833,5.59174 c 0.0964,-0.29586 -19.8135,-12.082346 -21.50814,-12.732641 -0.31471,-0.120763 -0.63739,0.0039 -0.74658,0.28845 -0.13731,0.357828 2.85761,2.275438 10.4726,6.705461 5.86569,3.41238 10.89036,6.17912 11.16592,6.14831 0.27557,-0.0308 0.55286,-0.21512 0.6162,-0.40958 z M 28.506389,89.779114 c 1.562079,-0.807781 2.412292,-2.944647 2.421768,-6.086704 0.01339,-4.438453 -1.274949,-6.264217 -4.420288,-6.264217 -1.496088,0 -2.062754,0.172683 -2.781047,0.847485 -1.889862,1.775432 -2.041764,4.729155 -0.346801,6.743505 l 0.901244,1.071068 h -0.915312 c -0.746885,0 -0.915313,0.16692 -0.915313,0.907126 0,2.694176 3.296667,4.208516 6.055749,2.781737 z M 143.58568,89.453347 c 1.77591,-1.163626 2.33156,-4.296777 0.99844,-5.629903 -0.41998,-0.419983 -0.41176,-0.652126 0.0563,-1.590411 1.19174,-2.388893 -0.69092,-4.981616 -3.61731,-4.981616 -0.86978,0 -2.02841,0.231146 -2.57473,0.513656 -1.10896,0.573467 -1.91904,2.169913 -1.7406,3.430253 0.0958,0.676927 0.36066,0.849196 1.4432,0.938794 1.23603,0.102297 1.32582,0.187143 1.32582,1.25271 0,0.984424 0.1594,1.189909 1.14905,1.481258 0.89974,0.264886 1.14905,0.530054 1.14905,1.222163 0,1.293688 -1.46207,1.445765 -1.93522,0.201292 -0.29193,-0.767819 -0.56559,-0.908398 -1.76834,-0.908398 -1.37214,0 -1.42296,0.04139 -1.42296,1.158767 0,3.091913 4.06083,4.796161 6.93729,2.911435 z M 16.793786,84.852814 c 0,-0.454567 -1.06066,-0.53033 -7.4246211,-0.53033 -6.3639611,0 -7.4246212,0.07576 -7.4246212,0.53033 0,0.454568 1.0606601,0.530331 7.4246212,0.530331 6.3639611,0 7.4246211,-0.07576 7.4246211,-0.530331 z m 148.492424,0 c 0,-0.454157 -1.04102,-0.53033 -7.24784,-0.53033 -6.20683,0 -7.24785,0.07617 -7.24785,0.53033 0,0.454157 1.04102,0.530331 7.24785,0.530331 6.20682,0 7.24784,-0.07617 7.24784,-0.530331 z M 62.755727,83.792154 c 0,-0.461585 -1.649917,-0.53033 -12.727922,-0.53033 -11.078005,0 -12.727922,0.06874 -12.727922,0.53033 0,0.461585 1.649917,0.53033 12.727922,0.53033 11.078005,0 12.727922,-0.06875 12.727922,-0.53033 z m 67.528703,0 c 0,-0.461585 -1.64992,-0.53033 -12.72793,-0.53033 -11.078,0 -12.72792,0.06874 -12.72792,0.53033 0,0.461585 1.64992,0.53033 12.72792,0.53033 11.07801,0 12.72793,-0.06875 12.72793,-0.53033 z M 16.793786,82.731494 c 0,-0.454567 -1.06066,-0.53033 -7.4246211,-0.53033 -6.3639611,0 -7.4246212,0.07576 -7.4246212,0.53033 0,0.454567 1.0606601,0.53033 7.4246212,0.53033 6.3639611,0 7.4246211,-0.07576 7.4246211,-0.53033 z m 148.492424,0 c 0,-0.454157 -1.04102,-0.53033 -7.24784,-0.53033 -6.20683,0 -7.24785,0.07617 -7.24785,0.53033 0,0.454157 1.04102,0.53033 7.24785,0.53033 6.20682,0 7.24784,-0.07617 7.24784,-0.53033 z M 65.574778,72.899521 C 65.564158,72.422581 44.886647,60.45763 44.073029,60.45763 c -0.289868,0 -0.576324,0.159099 -0.636562,0.353554 -0.126569,0.408577 21.477753,12.923458 21.880235,12.674709 0.147099,-0.09091 0.263235,-0.354781 0.258076,-0.586372 z m 47.889572,-5.5476 c 5.9289,-3.402951 10.78654,-6.3115 10.79474,-6.463443 0.0554,-1.025489 -2.22845,0.05469 -11.7819,5.572418 -8.02098,4.632632 -10.74145,6.36878 -10.59158,6.759333 0.11091,0.289048 0.33605,0.47904 0.50029,0.422206 0.16425,-0.05683 5.14955,-2.887562 11.07845,-6.290514 z M 73.456922,65.098432 c 0.103309,-0.557557 -12.2833,-21.776934 -12.645738,-21.663294 -0.194455,0.06097 -0.353554,0.348023 -0.353554,0.637891 0,0.289871 2.704684,5.247298 6.010408,11.016505 5.355789,9.347018 6.743334,11.334147 6.988884,10.008898 z M 101.18124,54.799977 c 3.36456,-5.833193 6.06874,-10.75496 6.0093,-10.937259 -0.0594,-0.182303 -0.26643,-0.384245 -0.45999,-0.448769 -0.32195,-0.107318 -12.528529,20.620691 -12.805842,21.745623 -0.07574,0.307235 0.113452,0.443742 0.509336,0.367501 0.402903,-0.07759 2.833936,-3.94259 6.747196,-10.727096 z M 84.322484,50.027805 c 0,-11.078005 -0.06875,-12.727922 -0.53033,-12.727922 -0.461585,0 -0.53033,1.649917 -0.53033,12.727922 0,11.078005 0.06874,12.727922 0.53033,12.727922 0.461585,0 0.53033,-1.649917 0.53033,-12.727922 z m -59.105881,0.844947 c -0.150351,-0.748738 -12.395262,-7.842716 -12.580109,-7.288175 -0.07611,0.228329 -0.137649,0.518126 -0.136754,0.643991 0.0022,0.308405 11.770633,7.146778 12.36331,7.184039 0.257326,0.01617 0.416425,-0.226759 0.353553,-0.539855 z M 148.87792,47.991338 c 3.89651,-2.252146 6.01474,-3.682273 6.09855,-4.117451 0.10065,-0.522627 -0.0131,-0.612648 -0.52617,-0.416423 -0.559,0.213791 -12.09429,6.815018 -12.44563,7.122178 -0.19249,0.168288 0.3087,0.862377 0.62271,0.862377 0.15422,0 2.96696,-1.552807 6.25054,-3.450681 z M 26.339728,49.215453 c 0,-0.712997 -12.458249,-7.755717 -12.784812,-7.227328 -0.146971,0.237803 -0.137287,0.562305 0.02152,0.721111 0.558108,0.558109 11.884577,6.957057 12.32135,6.961014 0.243068,0.0022 0.441942,-0.202456 0.441942,-0.454797 z M 147.93016,46.28656 c 3.22606,-1.86323 5.97826,-3.495325 6.11601,-3.626878 0.13774,-0.13155 0.12438,-0.443158 -0.0297,-0.692459 -0.20717,-0.335218 -1.90688,0.484332 -6.52601,3.146671 -5.4636,3.149065 -7.26963,4.560358 -5.83587,4.560358 0.22551,0 3.04951,-1.524462 6.27557,-3.387692 z M 81.413825,26.78167 81.317281,20.506097 80.471535,20.386534 c -0.583809,-0.08253 -1.078621,0.17249 -1.597665,0.823436 -0.424081,0.53185 -1.288536,1.051873 -1.982682,1.192707 -1.063902,0.215853 -1.245781,0.403795 -1.341551,1.386272 -0.108336,1.111421 -0.07901,1.136565 1.325825,1.136565 h 1.436615 v 3.830162 c 0,2.106589 0.106066,3.936228 0.235703,4.065864 0.129634,0.129636 0.849253,0.235702 1.599147,0.235702 h 1.363447 z m 10.333281,4.684582 v -1.59099 h -1.990729 -1.990728 l 1.794846,-1.429075 c 1.936143,-1.541581 2.278566,-2.190381 2.249964,-4.26304 -0.03529,-2.556844 -1.536151,-3.853827 -4.459634,-3.853827 -2.267119,0 -3.733704,1.335252 -3.992965,3.635392 l -0.187995,1.667909 h 1.63697 c 1.487919,0 1.63697,-0.07654 1.63697,-0.840593 0,-0.999897 0.837143,-1.795705 1.586489,-1.508154 1.198642,0.459963 0.54012,1.79217 -2.116957,4.282646 -2.49427,2.33788 -2.651778,2.574772 -2.651651,3.98812 l 1.38e-4,1.502602 h 4.242641 4.242641 z m -42.072854,-5.55823 c 0,-0.45564 -6.654024,-12.215245 -7.050488,-12.460273 -0.127113,-0.07856 -0.419417,-0.02646 -0.649562,0.115773 -0.288457,0.178277 0.700014,2.202873 3.182005,6.51741 3.178703,5.52566 4.518045,7.253058 4.518045,5.82709 z M 122.2614,20.277061 c 3.08091,-5.375031 3.74793,-7.034137 2.81921,-7.012319 -0.39089,0.0092 -7.49485,12.482747 -7.29414,12.807496 0.48694,0.78788 1.3199,-0.29083 4.47493,-5.795177 z m -70.819381,4.641522 c 0,-0.317849 -6.498884,-11.799853 -7.041741,-12.441104 -0.116609,-0.137743 -0.43335,-0.113649 -0.703875,0.05354 -0.390567,0.241386 -0.05472,1.057436 1.630906,3.962753 1.167522,2.012323 2.789321,4.812236 3.604003,6.222031 0.814679,1.409794 1.712868,2.563262 1.995972,2.563262 0.283104,0 0.514735,-0.162218 0.514735,-0.360485 z m 69.260631,-5.885392 c 2.68744,-4.6627 3.4843,-6.318946 3.14371,-6.534142 -0.28181,-0.178064 -0.62077,-0.06824 -0.88663,0.287272 -0.89267,1.193657 -6.81744,11.697417 -6.81744,12.086325 0,1.430052 1.41399,-0.380545 4.56036,-5.839455 z M 83.261824,9.3691649 c 0,-6.3639611 -0.07576,-7.4246212 -0.53033,-7.4246212 -0.454567,0 -0.53033,1.0606601 -0.53033,7.4246212 0,6.3639611 0.07576,7.4246211 0.53033,7.4246211 0.454567,0 0.53033,-1.06066 0.53033,-7.4246211 z m 2.121321,0 c 0,-6.3639611 -0.07576,-7.4246212 -0.530331,-7.4246212 -0.454567,0 -0.53033,1.0606601 -0.53033,7.4246212 0,6.3639611 0.07576,7.4246211 0.53033,7.4246211 0.454568,0 0.530331,-1.06066 0.530331,-7.4246211 z"
       id="path1"
       transform="matrix(0.26458333,0,0,0.26458333,-0.09317171,98.332576)" />
    <path
       style="fill:#ff4141;fill-opacity:1;stroke-width:1.33325"
       d="m 25.767857,82.982143 c -0.506342,-0.506342 -0.506342,-1.957942 0,-2.464285 0.893279,-0.893278 1.857143,-0.206714 1.857143,1.32285 0,0.78544 -0.549086,1.534293 -1.125,1.534293 -0.186607,0 -0.516071,-0.176786 -0.732143,-0.392858 z"
       id="path2"
       transform="matrix(0.26458333,0,0,0.26458333,-0.09317171,98.332576)" />
    <path
       style="fill:#ff4141;fill-opacity:1;stroke-width:0.94275"
       d="m 82.712005,138.64618 c 0.19054,-0.9527 0.574125,-1.37907 1.24067,-1.37907 0.438863,0 0.670053,0.11559 0.883884,0.44194 0.25704,0.39229 0.423165,0.44552 1.478739,0.4738 1.057562,0.0283 1.091844,0.0394 0.309772,0.0997 -0.483667,0.0373 -0.977593,0.14933 -1.097614,0.24894 -0.12002,0.0996 -0.4562,0.12883 -0.747067,0.065 -0.359438,-0.0789 -0.793539,9.3e-4 -1.355127,0.24934 l -0.826278,0.36551 z"
       id="path3"
       transform="matrix(0.26458333,0,0,0.26458333,-0.09317171,98.332576)" />
    <path
       style="fill:#ff4141;fill-opacity:1;stroke-width:0.94275"
       d="m 83.108887,144.14857 c -0.385276,-0.30306 -0.465781,-0.51014 -0.465781,-1.19811 0,-1.08845 0.37014,-1.61749 1.131674,-1.61749 0.8063,0 1.254811,0.53862 1.254811,1.50692 0,0.56389 -0.111707,0.8816 -0.428562,1.21888 -0.518506,0.55192 -0.877202,0.57351 -1.492142,0.0898 z"
       id="path4"
       transform="matrix(0.26458333,0,0,0.26458333,-0.09317171,98.332576)" />
    <path
       style="fill:#ff4141;fill-opacity:1;stroke-width:0.94275"
       d="m 139.28964,82.272726 c -0.0544,-0.08797 -0.39247,-0.172448 -0.75134,-0.187723 -0.57036,-0.02428 -0.54151,-0.04096 0.22929,-0.132582 0.85481,-0.101607 0.88498,-0.12479 0.98713,-0.758459 0.17803,-1.104408 0.74814,-1.469992 1.58987,-1.01951 0.51395,0.275059 0.47673,1.492371 -0.0558,1.825216 -0.48741,0.304631 -1.86347,0.492584 -1.99914,0.273058 z"
       id="path5"
       transform="matrix(0.26458333,0,0,0.26458333,-0.09317171,98.332576)" />
    <path
       style="fill:#ff4141;fill-opacity:1;stroke-width:0.94275"
       d="m 82.731494,146.20328 c -0.906955,-0.33266 -1.772084,-1.27457 -2.065343,-2.24865 -0.359341,-1.19358 -0.301952,-4.79684 0.09463,-5.94171 0.605604,-1.74827 1.64161,-2.56013 3.296875,-2.58357 1.15888,-0.0164 2.03445,0.42314 2.528745,1.26949 l 0.331887,0.56827 h -0.570526 c -0.377383,0 -0.705538,-0.14569 -0.969341,-0.43033 -0.937288,-1.01135 -2.695413,-0.64461 -3.273087,0.68276 -0.172301,0.39591 -0.340551,1.19536 -0.373889,1.77655 -0.07279,1.26896 0.161214,1.41168 1.180497,0.71997 2.261196,-1.53449 4.940572,0.85797 4.169175,3.72272 -0.560123,2.08013 -2.461041,3.15719 -4.349627,2.4645 z m 2.480751,-1.3403 c 0.847181,-0.79588 1.024981,-2.60951 0.355929,-3.63061 -0.655229,-1.00001 -2.274258,-1.17476 -3.172376,-0.34241 -0.776437,0.71958 -0.991173,2.45533 -0.432826,3.49861 0.546369,1.0209 2.382239,1.28895 3.249273,0.47441 z"
       id="path6"
       transform="matrix(0.26458333,0,0,0.26458333,-0.09317171,98.332576)" />
    <path
       style="fill:#ff4141;fill-opacity:1;stroke-width:0.94275"
       d="m 139.30004,88.934298 c -0.73022,-0.324546 -1.25793,-0.950712 -1.47417,-1.749178 l -0.18223,-0.672899 0.64444,0.05418 c 0.5138,0.0432 0.66463,0.140541 0.74402,0.480186 0.23944,1.024364 2.05585,1.509458 3.09719,0.827144 0.633,-0.414756 1.03176,-1.406543 0.88343,-2.19723 -0.1708,-0.910436 -1.12105,-1.795958 -1.92724,-1.795958 -0.50516,0 -0.63639,-0.06858 -0.63639,-0.332568 0,-0.246448 0.20524,-0.384249 0.79261,-0.532149 1.00962,-0.254227 1.3695,-0.779673 1.3695,-1.999575 0,-0.814759 -0.0656,-0.97819 -0.57597,-1.434178 -0.50937,-0.455119 -0.67548,-0.505071 -1.4364,-0.431956 -1.01526,0.09755 -1.51504,0.489201 -1.66856,1.307549 -0.096,0.511822 -0.1825,0.59445 -0.62218,0.59445 -0.43939,0 -0.51056,-0.06785 -0.50999,-0.486136 0.003,-1.845806 2.75439,-2.965518 4.77904,-1.944544 0.91095,0.459364 1.40679,1.276439 1.4072,2.318894 2.3e-4,0.562146 -0.12544,0.809435 -0.70683,1.390817 -0.38891,0.388909 -0.7071,0.792881 -0.7071,0.897716 0,0.104834 0.36991,0.516117 0.82203,0.913962 0.75687,0.666011 0.82805,0.799897 0.8979,1.688943 0.15771,2.007246 -1.20943,3.35912 -3.38292,3.345156 -0.59238,-0.0038 -1.3157,-0.112987 -1.60738,-0.242626 z"
       id="path7"
       transform="matrix(0.26458333,0,0,0.26458333,-0.09317171,98.332576)" />
    <path
       style="fill:#ff4141;fill-opacity:1;stroke-width:0.94275"
       d="m 84.317654,31.245281 c 0.202505,-1.092257 0.73927,-1.744154 2.620733,-3.182863 2.184152,-1.670166 2.59901,-2.230164 2.59901,-3.508282 0,-1.147641 -0.23033,-1.689312 -0.882028,-2.074279 -1.196891,-0.707021 -2.690374,-0.115453 -3.043704,1.20561 -0.200105,0.74817 -0.25111,0.798106 -0.815188,0.798106 -0.599064,0 -0.601191,-0.0029 -0.480311,-0.662913 0.290525,-1.586212 1.480819,-2.519068 3.214248,-2.519068 1.159385,0 1.763609,0.22574 2.496534,0.932714 0.689773,0.665349 0.998333,1.672142 0.838708,2.736598 -0.143187,0.954842 -0.860564,1.792404 -2.799195,3.268158 -1.406875,1.070963 -2.110931,1.928484 -1.942891,2.366388 0.07224,0.188253 0.619362,0.242084 2.460468,0.242084 h 2.367573 v 0.53033 0.53033 H 87.57318 84.194749 Z"
       id="path8"
       transform="matrix(0.26458333,0,0,0.26458333,-0.09317171,98.332576)" />
    <path
       style="fill:#ff4141;fill-opacity:1;stroke-width:0.94275"
       d="m 79.182398,28.284272 c 1.44e-4,-2.041771 0.02588,-2.85283 0.05718,-1.802354 0.03131,1.050477 0.03119,2.721017 -2.62e-4,3.712311 -0.03145,0.991294 -0.05707,0.131813 -0.05692,-1.909957 z"
       id="path9"
       transform="matrix(0.26458333,0,0,0.26458333,-0.09317171,98.332576)" />
    <path
       style="fill:#ff4141;fill-opacity:1;stroke-width:0.94275"
       d="m 79.243602,28.063301 -0.04764,-3.844894 -1.281631,-0.05194 c -1.103714,-0.04473 -1.281631,-0.09671 -1.281631,-0.374472 0,-0.241001 0.17349,-0.345802 0.686318,-0.414587 1.024204,-0.137375 1.651014,-0.502266 2.127419,-1.238456 0.237545,-0.36708 0.571407,-0.660585 0.751415,-0.660585 0.306742,0 0.323935,0.276785 0.323935,5.214912 v 5.214913 h -0.61527 -0.615271 z"
       id="path10"
       transform="matrix(0.26458333,0,0,0.26458333,-0.09317171,98.332576)" />
    <path
       style="fill:#ff4141;fill-opacity:1;stroke-width:0.94275"
       d=""
       id="path11"
       transform="matrix(0.26458333,0,0,0.26458333,-0.09317171,98.332576)" />
    <path
       style="fill:#ff4141;fill-opacity:1;stroke-width:0.94275"
       d="m 25.632621,89.200247 c -1.031584,-0.256347 -2.032932,-1.10337 -2.032932,-1.719622 0,-0.392479 1.190126,-0.315323 1.317311,0.0854 0.22652,0.713703 1.694139,0.959082 2.585839,0.432342 0.678485,-0.400791 1.072607,-1.283003 1.182001,-2.645818 0.08664,-1.07937 0.07537,-1.118454 -0.322499,-1.118454 -0.226752,0 -0.626515,0.205253 -0.888361,0.456118 -1.081421,1.036067 -3.036513,0.539894 -3.822362,-0.970058 -0.846028,-1.625581 -0.368593,-3.989469 0.985953,-4.881673 1.436887,-0.94644 3.113129,-0.73286 4.232972,0.539349 0.864741,0.982397 1.116301,1.915966 1.115738,4.140641 -9.11e-4,3.595742 -1.007749,5.444101 -3.116223,5.720774 -0.388909,0.05103 -0.945755,0.03348 -1.237437,-0.039 z m 2.150525,-5.269127 c 0.210518,-0.136606 0.508828,-0.563452 0.662913,-0.948548 0.93557,-2.338221 -0.916958,-4.63625 -2.907613,-3.606843 -0.285207,0.147487 -0.647185,0.516892 -0.804394,0.820902 -0.362717,0.701418 -0.372678,2.404503 -0.01807,3.090232 0.527492,1.020056 2.008604,1.331163 3.067168,0.644257 z"
       id="path12"
       transform="matrix(0.26458333,0,0,0.26458333,-0.09317171,98.332576)" />
    <path
       style="fill:#ff4141;fill-opacity:1;stroke-width:0.94275"
       d="M 25.930556,87.295193 C 25.802739,87.244058 25.625721,87.01169 25.537184,86.778819 25.389338,86.389953 25.271307,86.352992 24.0902,86.3257 c -0.801645,-0.01852 -1.020545,-0.05678 -0.581193,-0.101558 0.387647,-0.03951 0.750903,-0.146417 0.807236,-0.237565 0.0623,-0.100801 0.329349,-0.08662 0.68167,0.0362 0.325225,0.113374 0.998405,0.158666 1.535055,0.103278 0.860131,-0.08877 0.955808,-0.06454 0.955808,0.242133 0,0.697282 -0.857413,1.207368 -1.55822,0.927004 z"
       id="path13"
       transform="matrix(0.26458333,0,0,0.26458333,-0.09317171,98.332576)" />
  </g>
</svg>
