<?xml version="1.0" encoding="UTF-8" standalone="no"?>
<!-- Created with Inkscape (http://www.inkscape.org/) -->

<svg
   width="44.317707mm"
   height="44.317703mm"
   viewBox="0 0 44.317707 44.317703"
   version="1.1"
   id="svg6511"
   inkscape:version="1.4.3 (0d15f75042, 2025-12-25)"
   sodipodi:docname="bg.svg"
   xmlns:inkscape="http://www.inkscape.org/namespaces/inkscape"
   xmlns:sodipodi="http://sodipodi.sourceforge.net/DTD/sodipodi-0.dtd"
   xmlns="http://www.w3.org/2000/svg"
   xmlns:svg="http://www.w3.org/2000/svg">
  <sodipodi:namedview
     id="namedview6513"
     pagecolor="#ffffff"
     bordercolor="#000000"
     borderopacity="0.25"
     inkscape:showpageshadow="2"
     inkscape:pageopacity="0.0"
     inkscape:pagecheckerboard="0"
     inkscape:deskcolor="#d1d1d1"
     inkscape:document-units="mm"
     showgrid="false"
     inkscape:zoom="5.6568542"
     inkscape:cx="75.218484"
     inkscape:cy="120.91526"
     inkscape:window-width="1920"
     inkscape:window-height="1012"
     inkscape:window-x="0"
     inkscape:window-y="0"
     inkscape:window-maximized="1"
     inkscape:current-layer="layer1"
     showguides="true" />
  <defs
     id="defs6508">
    <clipPath
       clipPathUnits="userSpaceOnUse"
       id="clipPath2426">
      <path
         d="m 8060.68,5204.7 c -93.72,0 -175.9,82.2 -175.9,175.9 0,93.7 82.18,175.9 175.9,175.9 93.72,0 175.91,-82.2 175.91,-175.9 0,-93.7 -82.19,-175.9 -175.91,-175.9 z"
         id="path2424" />
    </clipPath>
    <linearGradient
       x1="0"
       y1="0"
       x2="1"
       y2="0"
       gradientUnits="userSpaceOnUse"
       gradientTransform="matrix(174.538,-302.309,-302.309,-174.538,7973.41,5531.8)"
       spreadMethod="pad"
       id="linearGradient2434">
      <stop
         style="stop-opacity:1;stop-color:#ededed"
         offset="0"
         id="stop2428" />
      <stop
         style="stop-opacity:1;stop-color:#ededed"
         offset="0.48211215"
         id="stop2430" />
      <stop
         style="stop-opacity:1;stop-color:#d0d0d0"
         offset="1"
         id="stop2432" />
    </linearGradient>
    <clipPath
       clipPathUnits="userSpaceOnUse"
       id="clipPath2444">
      <path
         d="m 8060.68,5224.3 c -83.29,0 -156.36,73 -156.36,156.3 0,83.3 73.07,156.4 156.36,156.4 83.3,0 156.37,-73.1 156.37,-156.4 0,-83.3 -73.07,-156.3 -156.37,-156.3 z"
         id="path2442" />
    </clipPath>
    <linearGradient
       x1="0"
       y1="0"
       x2="1"
       y2="0"
       gradientUnits="userSpaceOnUse"
       gradientTransform="matrix(155.141,-268.712,-268.712,-155.141,7983.11,5515)"
       spreadMethod="pad"
       id="linearGradient2452">
      <stop
         style="stop-opacity:1;stop-color:#d0d0d0"
         offset="0"
         id="stop2446" />
      <stop
         style="stop-opacity:1;stop-color:#ededed"
         offset="0.51788785"
         id="stop2448" />
      <stop
         style="stop-opacity:1;stop-color:#ededed"
         offset="1"
         id="stop2450" />
    </linearGradient>
  </defs>
  <g
     inkscape:label="Layer 1"
     inkscape:groupmode="layer"
     id="layer1"
     transform="translate(0.09317171,-98.332576)">
    <path
       d="m 22.065506,98.553068 c -12.09675,0 -21.938192,9.841812 -21.938192,21.938632 0,12.09668 9.841442,21.93808 21.938192,21.93808 12.096749,0 21.938549,-9.8414 21.938549,-21.93808 0,-12.09682 -9.8418,-21.938632 -21.938549,-21.938632 z m 0,44.097202 c -12.218458,0 -22.158678,-9.94022 -22.158678,-22.15857 0,-12.21853 9.94022,-22.159112 22.158678,-22.159112 12.218458,0 22.159029,9.940582 22.159029,22.159112 0,12.21835 -9.940571,22.15857 -22.159029,22.15857"
       style="fill:#191a1b;fill-opacity:1;fill-rule:nonzero;stroke:none;stroke-width:0.0352778"
       id="path316" />
    <path
       d="m 13.00194,140.58402 0.201788,0.0897 0.714375,-1.60486 c -0.06738,-0.0296 -0.134055,-0.0606 -0.201083,-0.091 z m 2.150533,0.8376 0.209903,0.068 0.542219,-1.66825 c -0.0702,-0.0226 -0.139347,-0.0481 -0.208844,-0.071 z m 6.803672,-0.64742 v 1.76678 h 0.220486 v -1.76678 c -0.03704,0 -0.07338,0.003 -0.110419,0.003 -0.03669,0 -0.07338,-0.003 -0.110067,-0.003 z m -4.577644,1.25553 0.215547,0.0463 0.364772,-1.71563 c -0.07197,-0.0147 -0.142875,-0.0342 -0.214842,-0.0498 z m -6.426553,-2.50334 0.190853,0.1101 0.879827,-1.5233 c -0.06385,-0.0367 -0.127705,-0.0726 -0.191205,-0.1101 z m 8.704086,2.87556 0.219075,0.0229 0.183797,-1.74763 c -0.07338,-0.007 -0.14605,-0.0163 -0.219075,-0.0242 z m -17.457208,-17.80014 -1.715559,0.36449 0.04586,0.21583 1.719086,-0.36548 c -0.01552,-0.0724 -0.03457,-0.14291 -0.04939,-0.21484 z m 1.291519,4.03973 -1.604081,0.71437 0.08961,0.20105 1.605139,-0.71438 c -0.03034,-0.0674 -0.06103,-0.13366 -0.09066,-0.20104 z m -0.752122,-1.98505 -1.667934,0.54183 0.06809,0.20945 1.670402,-0.54293 c -0.02293,-0.0695 -0.04798,-0.13822 -0.07055,-0.20835 z m 6.284736,11.6035 0.178153,0.1295 1.03505,-1.4242 c -0.05962,-0.043 -0.12065,-0.0843 -0.179917,-0.12774 z m -4.576233,-7.72199 -1.523295,0.87947 0.110067,0.19086 1.522942,-0.87906 C 4.5194,130.66617 4.48306,130.60192 4.446726,130.538 Z m 2.790472,6.2611 0.164042,0.14746 1.177572,-1.30803 c -0.05468,-0.0488 -0.111831,-0.0954 -0.165806,-0.14496 z m -1.643239,-4.47601 -1.424164,1.03466 0.12947,0.17858 1.422753,-1.0334 c -0.04375,-0.0593 -0.08502,-0.11987 -0.128059,-0.17984 z m 0.0194,2.83559 0.147461,0.16401 1.305631,-1.17535 c -0.04974,-0.0547 -0.09631,-0.11148 -0.145345,-0.1662 z m 18.463683,5.5185 0.184502,1.7544 0.219075,-0.0226 -0.184502,-1.75645 c -0.07338,0.008 -0.14605,0.0172 -0.219075,0.0247 z m 17.246599,-13.81442 1.684514,0.54723 0.06809,-0.20959 -1.682044,-0.54613 c -0.02222,0.0699 -0.04727,0.13864 -0.07056,0.20849 z m -0.771878,1.97778 1.617486,0.72002 0.08925,-0.20147 -1.616075,-0.71974 c -0.02963,0.0674 -0.06032,0.13405 -0.09066,0.20119 z m -0.974725,1.88584 1.533878,0.88551 0.110067,-0.19085 -1.534231,-0.88579 c -0.03634,0.0638 -0.07267,0.12802 -0.109714,0.19113 z m 2.770364,-10.34591 c 0,0.0375 0.0028,0.0737 0.0028,0.11123 0,0.0367 -0.0025,0.073 -0.0028,0.10925 h 1.774473 v -0.22048 z m -0.121355,2.33853 1.763888,0.18563 0.0226,-0.21911 -1.762124,-0.18549 c -0.0071,0.0733 -0.01623,0.14594 -0.02434,0.21897 z m -16.048919,17.6404 0.366183,1.72297 0.215547,-0.0463 -0.366889,-1.72614 c -0.07197,0.0156 -0.142522,0.0346 -0.214841,0.0495 z m 15.706724,-15.54413 1.732492,0.36837 0.04621,-0.21597 -1.728964,-0.36763 c -0.01482,0.0723 -0.03422,0.1433 -0.04974,0.21523 z m -11.666713,14.25222 0.718255,1.61287 0.201083,-0.0896 -0.718608,-1.61438 c -0.06668,0.0304 -0.13335,0.0615 -0.20073,0.0911 z m 8.193969,-6.56621 1.43263,1.04069 0.12947,-0.17857 -1.434042,-1.04208 c -0.04304,0.0599 -0.08431,0.12073 -0.128058,0.17996 z m -6.298142,5.60987 0.884414,1.53169 0.190853,-0.11038 -0.884061,-1.53103 c -0.0635,0.0369 -0.127353,0.0734 -0.191206,0.10972 z m -3.881613,1.70875 0.544688,1.67682 0.209198,-0.0685 -0.545042,-1.67887 c -0.0702,0.023 -0.138994,0.048 -0.208844,0.0706 z m 8.837083,-5.67545 1.313744,1.18293 0.147461,-0.16372 -1.316214,-1.18541 c -0.04904,0.0551 -0.09596,0.1119 -0.144991,0.1662 z m -3.169709,2.81865 1.040695,1.43274 0.178505,-0.12954 -1.039636,-1.4308 c -0.05891,0.0434 -0.119944,0.0846 -0.179564,0.1276 z m 1.65735,-1.32746 1.184981,1.31589 0.164042,-0.14746 -1.182864,-1.31381 c -0.05433,0.0497 -0.110773,0.0967 -0.166159,0.14538 z M 26.17995,100.62495 c 0.07232,0.0148 0.143228,0.0339 0.215194,0.0497 l 0.368653,-1.733912 -0.2159,-0.0462 z m 7.719483,3.39619 c 0.05962,0.043 0.12065,0.0843 0.179917,0.12806 l 1.043516,-1.43651 -0.178505,-0.12947 z m -1.785056,-1.14794 c 0.0635,0.0367 0.127706,0.0727 0.191206,0.11007 l 0.887236,-1.53776 -0.190853,-0.11007 z m 3.4417,2.47438 c 0.05503,0.049 0.111831,0.096 0.166159,0.14535 l 1.186744,-1.31798 -0.163689,-0.14746 z m -11.474449,-5.04049 c 0.07338,0.007 0.145697,0.0169 0.218722,0.0247 l 0.185914,-1.764612 -0.219428,-0.0226 z m 6.137627,1.61008 c 0.06703,0.0293 0.13335,0.0603 0.200378,0.0907 l 0.721783,-1.62066 -0.201083,-0.0893 z m -1.984727,-0.75212 c 0.06985,0.0222 0.138641,0.0473 0.208138,0.0706 l 0.548217,-1.686292 -0.20955,-0.0684 z m 10.304285,7.49653 1.437923,-1.04458 -0.12947,-0.1785 -1.436511,1.04351 c 0.04339,0.0593 0.08502,0.11995 0.128058,0.17957 z m -0.0064,-2.84621 -0.147461,-0.16404 -1.317625,1.18674 c 0.04904,0.0543 0.09596,0.11112 0.144992,0.16581 z m 3.717925,12.66507 1.762127,-0.18563 -0.0226,-0.21897 -1.764244,0.18549 c 0.0081,0.073 0.01764,0.1458 0.02469,0.21911 z m -0.856544,-4.15216 1.683808,-0.54723 -0.06844,-0.20919 -1.685925,0.54751 c 0.02328,0.0703 0.04833,0.1386 0.07056,0.20891 z m 0.539397,2.05271 1.730022,-0.36795 -0.04621,-0.21551 -1.73355,0.36862 c 0.01552,0.0721 0.03492,0.14263 0.04974,0.21484 z m -1.291519,-4.03888 1.619602,-0.72108 -0.0896,-0.20108 -1.620661,0.72178 c 0.03034,0.0667 0.06138,0.13335 0.09066,0.20038 z m -20.586347,-12.03537 -0.18415,-1.753312 -0.219427,0.0229 0.184502,1.754722 c 0.07302,-0.008 0.145698,-0.0173 0.219075,-0.0243 z m 19.631025,10.1406 1.538111,-0.88794 -0.11042,-0.19121 -1.537758,0.88794 c 0.03704,0.0635 0.07338,0.12736 0.110067,0.19121 z m -34.075158,-4.62633 1.310923,1.1804 c 0.04904,-0.055 0.0956,-0.11183 0.145344,-0.16581 l -1.308806,-1.17863 z m -2.029177,6.31825 -1.608315,-0.71578 -0.0896,0.20108 1.606903,0.71543 c 0.02963,-0.067 0.06068,-0.13405 0.09102,-0.20073 z m -0.772584,1.97736 -1.673225,-0.54367 -0.06809,0.20948 1.670755,0.54296 c 0.02222,-0.0702 0.04727,-0.13864 0.07056,-0.20877 z m 1.748014,-3.86401 -1.526117,-0.88089 -0.110067,0.19085 1.526118,0.88124 c 0.03634,-0.0635 0.07267,-0.1277 0.110066,-0.1912 z m 1.165578,-1.77377 -1.425222,-1.03576 -0.12947,0.17851 1.426986,1.03717 c 0.04304,-0.06 0.08431,-0.12065 0.127706,-0.17992 z m 12.233627,-7.85495 -0.36583,-1.721212 -0.2159,0.0462 0.366536,1.724742 c 0.07232,-0.0159 0.142875,-0.0349 0.215194,-0.0497 z m -16.05033,17.63674 -1.750484,-0.18408 -0.02293,0.21911 1.748719,0.18369 c 0.0071,-0.0731 0.01658,-0.14566 0.02469,-0.21872 z m 0.342194,-2.09614 -1.720144,-0.36558 -0.04586,0.21565 1.716616,0.36505 c 0.01482,-0.0726 0.03387,-0.14319 0.04939,-0.21512 z m -0.467078,4.32721 c 0,-0.0375 0.0028,-0.0737 0.0028,-0.11123 H 0.023875 v 0.22048 h 1.760361 c 0,-0.0362 -0.0028,-0.0726 -0.0028,-0.10925 z m 14.121745,-19.32841 -0.543631,-1.673242 -0.209902,0.0681 0.544689,1.675702 c 0.06985,-0.0233 0.138641,-0.0483 0.208844,-0.0705 z m -1.985081,0.75177 -0.716491,-1.60902 -0.201436,0.0896 0.716844,1.61008 c 0.06703,-0.0303 0.13335,-0.061 0.201083,-0.0907 z m -4.897966,0.80468 1.036461,1.42664 c 0.05927,-0.0434 0.119944,-0.0847 0.179564,-0.12806 L 9.19864,102.59027 Z m -1.785761,1.4605 1.178983,1.30916 c 0.05433,-0.049 0.111125,-0.096 0.166159,-0.14499 l -1.1811,-1.31163 z m -5.35305,18.32145 -1.747662,0.18383 0.02293,0.21911 1.749425,-0.18412 c -0.0081,-0.073 -0.01729,-0.14538 -0.02469,-0.21882 z m 10.14095,-19.63096 -0.881945,-1.52788 -0.190853,0.11042 0.881592,1.52717 c 0.0635,-0.0367 0.127353,-0.0734 0.191206,-0.10971"
       style="fill:#191a1b;fill-opacity:1;fill-rule:nonzero;stroke:none;stroke-width:0.0352778"
       id="path318" />
    <path
       d="m 4.427323,120.4917 c 0,-0.14831 0.0078,-0.29464 0.01129,-0.44182 H 0.023952 v 0.88194 h 4.414661 c -0.0035,-0.14661 -0.01129,-0.29241 -0.01129,-0.44012 z m 17.197916,17.62827 v 4.42101 h 0.881945 v -4.42101 c -0.147109,0.003 -0.293159,0.0113 -0.440972,0.0113 -0.147814,0 -0.293864,-0.008 -0.440973,-0.0113 z m -18.812227,-6.89339 0.330905,0.5726 3.813528,-2.20169 c -0.113947,-0.18838 -0.222602,-0.38022 -0.329494,-0.57326 z m 27.786188,4.70327 2.20733,3.82309 0.572559,-0.33059 -2.206625,-3.82199 c -0.188384,0.11395 -0.379942,0.22295 -0.573264,0.32949 z m 9.094258,-15.87997 c 0.0035,0.14718 0.01094,0.29351 0.01094,0.44182 0,0.14771 -0.0074,0.29351 -0.01094,0.44012 h 4.428417 v -0.88194 z m -2.517422,9.54486 3.824464,2.208 0.330905,-0.57256 -3.825522,-2.2087 c -0.107244,0.1929 -0.2159,0.38488 -0.329847,0.57326 z m -26.414941,9.82126 0.572911,0.33087 2.202745,-3.81483 c -0.193323,-0.10693 -0.385234,-0.21593 -0.573617,-0.32949 z m 19.839516,-34.36157 c 0.192617,0.10689 0.384528,0.21554 0.573264,0.32949 l 2.2098,-3.82799 -0.572558,-0.33091 z m 10.733969,4.69582 -0.330553,-0.57291 -3.828697,2.2105 c 0.1143,0.18839 0.222956,0.37995 0.329848,0.57327 z m -19.005196,-6.89116 c 0.295628,0.005 0.589491,0.0159 0.881591,0.0346 l 0.177095,-4.433012 -0.881239,-0.0353 z m -8.793339,2.19287 -2.204861,-3.81918 -0.572911,0.33056 2.204508,3.81846 c 0.188384,-0.1143 0.380295,-0.22295 0.573264,-0.32984 z m 8.088842,-6.626592 -0.881239,0.0353 0.177447,4.433012 c 0.291747,-0.0187 0.585611,-0.03 0.881239,-0.0346 z m -18.813992,11.328062 3.817761,2.20415 c 0.106892,-0.19297 0.2159,-0.38453 0.329848,-0.57326 l -3.816703,-2.20345 -0.330906,0.57256"
       style="fill:#191a1b;fill-opacity:1;fill-rule:nonzero;stroke:none;stroke-width:0.0352778"
       id="path320" />
    <path
       d="m 22.065506,100.31697 c -11.124141,0 -20.174303,9.05052 -20.174303,20.17473 0,11.12407 9.050162,20.17419 20.174303,20.17419 11.124141,0 20.174655,-9.05012 20.174655,-20.17419 0,-11.12421 -9.050514,-20.17473 -20.174655,-20.17473 z m 0,40.56941 c -11.24585,0 -20.394789,-9.14894 -20.394789,-20.39468 0,-11.24592 9.148939,-20.39521 20.394789,-20.39521 11.245849,0 20.395141,9.14929 20.395141,20.39521 0,11.24574 -9.149292,20.39468 -20.395141,20.39468"
       style="fill:#191a1b;fill-opacity:1;fill-rule:nonzero;stroke:none;stroke-width:0.0352778"
       id="path322" />
    <path
       style="fill:#ff41f9;stroke-width:1.33325;fill-opacity:1"
       d="m 78.375,159.70595 c -9.422288,-0.68429 -18.851692,-3.22617 -27.677788,-7.46109 l -3.80279,-1.82465 2.24627,-3.89275 c 1.235448,-2.141 2.30319,-4.04107 2.37276,-4.22237 0.120583,-0.31423 -1.51062,-1.43009 -2.090557,-1.43009 -0.142467,0 -1.295973,1.8 -2.563348,4 -1.267375,2.2 -2.350265,4 -2.406422,4 -0.152225,0 -4.44719,-2.8875 -5.98743,-4.02534 -6.69618,-4.94676 -13.322094,-11.92601 -18.097533,-19.0626 -1.435324,-2.145 -1.742381,-2.75984 -1.46676,-2.937 0.191729,-0.12323 2.053159,-1.2067 4.136511,-2.40771 l 3.787913,-2.18366 -0.465743,-0.87934 c -0.256158,-0.48364 -0.570049,-1.03444 -0.697533,-1.22399 -0.183886,-0.27342 -1.093763,0.15291 -4.402461,2.06278 l -4.170669,2.40742 -1.829463,-3.81278 C 10.801985,107.52192 8.4629528,98.586105 7.7343102,88.0625 L 7.5655404,85.625 H 12.34527 17.125 V 83.75 81.875 H 12.34527 7.5655404 L 7.7343102,79.4375 C 8.4638521,68.900905 10.801159,59.979622 15.274651,50.656717 17.097759,46.8573 17.125262,46.8176 17.684403,47.178302 c 0.311078,0.200678 2.180688,1.298683 4.154688,2.440011 2.864135,1.655989 3.636171,2.005109 3.82217,1.728417 0.128194,-0.190703 0.442664,-0.742435 0.698822,-1.226075 l 0.465743,-0.879348 -3.787913,-2.183652 c -2.083352,-1.20101 -3.943749,-2.283843 -4.134214,-2.406297 -0.272287,-0.175061 0.06001,-0.829495 1.554766,-3.062003 C 24.948708,34.882913 30.389364,29.016782 37,23.754224 38.574112,22.501115 44.208075,18.625 44.45537,18.625 c 0.05492,0 1.136802,1.8 2.404177,4 1.267375,2.2 2.420881,4 2.563348,4 0.593392,0 2.211095,-1.115974 2.086893,-1.439646 -0.07158,-0.186547 -1.142773,-2.084954 -2.380418,-4.218681 l -2.250262,-3.879503 3.810447,-1.831192 c 6.146672,-2.953917 12.247097,-4.991266 18.73073,-6.2554721 3.450162,-0.6727271 9.09162,-1.3219354 9.338855,-1.0746981 0.08255,0.082548 0.203125,1.6517609 0.267947,3.4871402 0.06482,1.835379 0.177715,3.927677 0.250875,4.649552 l 0.133016,1.3125 h 0.950762 c 0.522918,0 1.302145,-0.07028 1.731615,-0.156171 L 82.874207,17.062658 82.710112,12.343829 82.546018,7.625 H 83.75 84.953982 l -0.164094,4.718829 -0.164095,4.718829 0.780852,0.156171 c 0.42947,0.08589 1.202072,0.156171 1.716895,0.156171 0.88743,0 0.944085,-0.04868 1.090998,-0.9375 0.08523,-0.515625 0.156197,-1.961622 0.157709,-3.213327 0.0015,-1.251705 0.07503,-2.96733 0.163368,-3.8125002 L 88.696228,7.875 h 0.917782 c 1.366797,0 6.278855,0.6771901 9.24321,1.2742951 5.95244,1.1989899 12.08479,3.2864569 17.98606,6.1225009 3.79926,1.825855 3.8391,1.853489 3.47842,2.412607 -0.20068,0.311078 -1.29868,2.180688 -2.44001,4.154688 -1.65599,2.864135 -2.00511,3.636171 -1.72842,3.82217 0.1907,0.128194 0.74244,0.442664 1.22608,0.698822 l 0.87934,0.465743 2.18366,-3.787913 c 1.20101,-2.083352 2.28448,-3.944782 2.40771,-4.136511 0.17713,-0.275574 0.79237,0.03252 2.937,1.47078 8.53312,5.722567 15.68867,12.876346 21.30581,21.300526 0.98017,1.469989 1.78213,2.719915 1.78213,2.777614 0,0.0577 -1.8,1.14185 -4,2.409225 -2.2,1.267375 -4,2.420881 -4,2.563348 0,0.593392 1.11597,2.211095 1.43965,2.086893 0.18654,-0.07158 2.07784,-1.138653 4.20288,-2.371258 l 3.86371,-2.241103 1.14399,2.277805 c 2.80776,5.590595 5.24657,12.295766 6.46301,17.769151 0.76885,3.459447 1.52715,8.761415 1.76892,12.368117 l 0.17177,2.5625 h -4.77696 -4.77697 v 1.875 1.875 h 4.75 4.75 l -0.002,0.6875 c -0.006,1.78724 -0.56134,6.80666 -1.13455,10.246442 -1.15451,6.928188 -3.28535,13.574148 -6.4906,20.243848 l -1.8275,3.80279 -3.89275,-2.24627 c -2.141,-1.23545 -4.04107,-2.30319 -4.22237,-2.37276 -0.31423,-0.12058 -1.43009,1.51062 -1.43009,2.09056 0,0.14246 1.8,1.29597 4,2.56334 2.2,1.26738 4,2.35153 4,2.40923 0,0.0577 -0.80196,1.30762 -1.78213,2.77761 -5.60333,8.40348 -12.79366,15.59202 -21.30581,21.30053 -2.14463,1.43826 -2.75987,1.74635 -2.937,1.47078 -0.12323,-0.19173 -1.2067,-2.05316 -2.40771,-4.13651 l -2.18366,-3.78792 -0.87934,0.46575 c -0.48364,0.25615 -1.03444,0.57004 -1.22399,0.69753 -0.27342,0.18388 0.15291,1.09376 2.06278,4.40246 l 2.40742,4.17067 -3.81278,1.82946 c -9.29086,4.45797 -18.226675,6.79701 -28.75028,7.52565 l -2.4375,0.16877 V 155.15473 150.375 H 83.75 81.875 v 4.75 4.75 l -1.1875,-0.0437 c -0.653125,-0.024 -1.69375,-0.0804 -2.3125,-0.12537 z"
       id="path1"
       transform="matrix(0.26458333,0,0,0.26458333,-0.09317171,98.332576)" />
    <path
       style="fill:#5841ff;stroke-width:1.33325;fill-opacity:1"
       d="m 78.801062,159.5769 c -7.273215,-0.42692 -15.452822,-2.27476 -22.623492,-5.11083 -3.834957,-1.51677 -9.117923,-4.02995 -8.978745,-4.27132 3.15531,-5.47212 4.450592,-7.89553 4.354252,-8.14658 -0.174877,-0.45572 -1.80208,-1.27502 -2.216484,-1.11599 -0.19453,0.0746 -1.279995,1.69544 -2.412148,3.60177 -1.132152,1.90633 -2.162693,3.63134 -2.29009,3.83337 -0.18889,0.29955 -0.756147,0.0136 -3.07427,-1.54996 -6.69744,-4.51726 -12.243108,-9.66924 -17.564242,-16.31736 -1.666762,-2.08242 -5.253756,-7.33045 -5.102284,-7.46501 0.05854,-0.052 1.793941,-1.07307 3.856441,-2.26904 2.0625,-1.19597 3.847806,-2.27038 3.967348,-2.38757 0.235441,-0.23081 -0.800731,-2.28773 -1.220944,-2.42371 -0.224028,-0.0725 -2.111305,0.92186 -6.921727,3.64689 l -1.425324,0.80743 -0.73111,-1.4545 C 11.851192,109.86867 9.0043451,100.26441 8.1321121,91 7.989712,89.4875 7.8163745,87.659375 7.7469175,86.9375 L 7.6206322,85.625 H 12.372816 17.125 V 83.75 81.875 H 12.372816 7.6206322 L 7.7469175,80.5625 C 7.8163745,79.840625 7.989712,78.0125 8.1321121,76.5 8.6576613,70.917888 10.013536,64.678423 11.872463,59.287652 c 1.299866,-3.769532 4.198653,-10.377755 5.206732,-11.869535 0.174139,-0.257694 0.833019,0.02853 2.947538,1.280473 3.562514,2.109245 5.310341,2.979358 5.611213,2.79341 0.429726,-0.265587 1.285287,-2.168925 1.069809,-2.379972 C 26.59349,49.000112 24.8125,47.930022 22.75,46.734052 c -2.0625,-1.195969 -3.790626,-2.209767 -3.84028,-2.252885 -0.168868,-0.146634 3.126971,-4.970677 5.362699,-7.849257 2.599736,-3.347255 8.230158,-9.063361 11.611741,-11.788451 2.221875,-1.790524 8.15185,-5.968683 8.470645,-5.968272 0.07986,1.03e-4 1.15451,1.700704 2.388115,3.779113 1.233608,2.078409 2.40142,3.839748 2.595142,3.914086 0.415353,0.159386 2.040828,-0.662629 2.216728,-1.121018 0.06706,-0.174755 -0.863235,-2.034403 -2.067323,-4.132552 C 48.28338,19.216667 47.254945,17.419414 47.202058,17.32092 46.99607,16.9373 54.753743,13.437748 59.287652,11.869006 64.54179,10.051063 72.044555,8.4615376 77.308135,8.0512117 c 1.297785,-0.1011698 1.309087,-0.095842 1.428478,0.6734059 0.06619,0.4264603 0.191487,2.4175224 0.278439,4.4245824 0.08696,2.007061 0.241883,3.784768 0.344288,3.950461 0.122423,0.198084 0.734925,0.275416 1.788425,0.2258 L 82.75,17.25 82.714183,12.4375 82.678367,7.625 H 83.75 84.821633 l -0.03582,4.8125 -0.03582,4.8125 1.602235,0.07546 c 1.040635,0.04901 1.66649,-0.0285 1.785553,-0.221151 0.100822,-0.163136 0.259712,-2.109593 0.353084,-4.32546 0.09337,-2.215868 0.22461,-4.2226668 0.291638,-4.4595539 0.131798,-0.465794 -0.05888,-0.4685263 4.46749,0.064017 5.84616,0.6878224 13.395127,2.6709529 18.912027,4.9682299 2.47943,1.032454 7.36323,3.325017 7.91985,3.717757 0.25957,0.183143 -0.0194,0.827535 -1.28047,2.957433 -2.10924,3.562514 -2.97936,5.310341 -2.79341,5.611213 0.26559,0.429726 2.16892,1.285287 2.37997,1.069809 0.11192,-0.114265 1.18201,-1.895255 2.37798,-3.957755 1.19597,-2.0625 2.21704,-3.797899 2.26904,-3.856441 0.16432,-0.184969 5.6023,3.603891 8.46501,5.897908 3.4185,2.739394 8.09292,7.379188 10.9144,10.833533 1.94766,2.384535 6.21087,8.377205 6.21041,8.729805 -1e-4,0.07986 -1.7007,1.15451 -3.77911,2.388115 -2.07841,1.233607 -3.83975,2.40142 -3.91409,2.595142 -0.15938,0.415353 0.66263,2.040828 1.12102,2.216727 0.17476,0.06706 2.0344,-0.863235 4.13255,-2.067323 2.09815,-1.204087 3.89557,-2.232619 3.99426,-2.285629 0.39283,-0.210997 3.71123,7.152724 5.4294,12.048162 1.92605,5.487708 3.1548,11.210215 3.75764,17.500001 0.14496,1.5125 0.32256,3.284374 0.39465,3.9375 l 0.13109,1.1875 h -4.75861 -4.75861 v 1.875 1.875 h 4.75295 4.75296 l -0.1186,0.9375 c -0.0652,0.515625 -0.18418,1.8375 -0.26433,2.9375 -0.40702,5.58542 -2.00589,13.304771 -3.8838,18.750921 -1.54987,4.49477 -5.05448,12.25866 -5.4351,12.04057 -6.08721,-3.48792 -7.87456,-4.44294 -8.13091,-4.34457 -0.45572,0.17488 -1.27502,1.80208 -1.11599,2.21649 0.0746,0.19453 1.69544,1.27999 3.60177,2.41214 1.90633,1.13216 3.63134,2.1627 3.83337,2.2901 0.29953,0.18887 0.0145,0.75333 -1.54388,3.05799 -5.61264,8.30015 -12.59406,15.28333 -20.88367,20.88892 -1.54562,1.04517 -2.85277,1.85242 -2.90478,1.79388 -0.052,-0.0585 -1.07307,-1.79394 -2.26904,-3.85644 -1.19597,-2.0625 -2.27038,-3.84781 -2.38757,-3.96735 -0.23081,-0.23544 -2.28773,0.80073 -2.42371,1.22095 -0.0726,0.22426 0.92021,2.10824 3.65602,6.9379 l 0.81655,1.4415 -3.21362,1.52121 c -9.25315,4.38011 -18.395752,6.90584 -27.463617,7.58711 -1.1,0.0826 -2.478125,0.20967 -3.0625,0.28229 l -1.0625,0.13203 v -4.76532 -4.76532 h -1.869603 -1.8696 l -0.0679,4.6875 -0.0679,4.6875 z"
       id="path2"
       transform="matrix(0.26458333,0,0,0.26458333,-0.09317171,98.332576)" />
    <path
       style="fill:#5841ff;fill-opacity:1;stroke-width:1.33325"
       d="m 82.375,4.1454467 c 0,-1.363754 -0.06829,-2.6575041 -0.151747,-2.8749998 C 82.094165,0.93404927 82.322143,0.875 83.75,0.875 c 1.427857,0 1.655835,0.0590493 1.526747,0.3954469 C 85.193286,1.4879426 85.125,2.7816927 85.125,4.1454467 V 6.625 H 83.75 82.375 Z"
       id="path3"
       transform="matrix(0.26458333,0,0,0.26458333,-0.09317171,98.332576)" />
    <path
       style="fill:#5841ff;fill-opacity:1;stroke-width:1.33325"
       d="M 96.375,7.6125585 C 95.06875,7.3707142 93.619997,7.1620775 93.155548,7.148921 92.323525,7.125352 92.313235,7.111201 92.456445,6.1875 92.536387,5.671875 92.677036,4.3974077 92.768997,3.3553504 L 92.9362,1.4607008 95.3431,1.7909936 c 2.97601,0.4083906 5.0319,0.8229338 5.0319,1.0146168 0,0.8240434 -1.151011,5.3105819 -1.355349,5.2830271 -0.148308,-0.02 -1.338401,-0.234235 -2.644651,-0.476079 z"
       id="path4"
       transform="matrix(0.26458333,0,0,0.26458333,-0.09317171,98.332576)" />
    <path
       style="fill:#5841ff;fill-opacity:1;stroke-width:1.33325"
       d="M 89.0625,6.7026685 C 88.568462,6.573563 88.530817,6.0646252 88.789204,3.0079067 l 0.164204,-1.9425321 1.385487,0.1628368 c 0.762018,0.08956 1.419276,0.1966257 1.460573,0.2379233 0.0413,0.041298 -0.05595,1.2751868 -0.21611,2.741976 L 91.292161,6.875 90.39608,6.8459997 C 89.903236,6.8300495 89.303125,6.7655505 89.0625,6.7026685 Z"
       id="path5"
       transform="matrix(0.26458333,0,0,0.26458333,-0.09317171,98.332576)" />
    <path
       style="fill:#5841ff;fill-opacity:1;stroke-width:1.33325"
       d="m 106.13598,9.84815 c -0.33771,-0.1348362 -1.781,-0.537572 -3.20729,-0.8949683 -2.38167,-0.5967877 -2.58176,-0.6927882 -2.45216,-1.1764965 0.0776,-0.289677 0.32852,-1.4829352 0.55759,-2.6516852 0.22907,-1.16875 0.44328,-2.1594299 0.47603,-2.2015108 0.0776,-0.099675 2.70025,0.5666796 5.28346,1.3423867 l 2.04361,0.613672 -0.87826,2.6227261 c -0.48304,1.4424993 -0.95266,2.615595 -1.04361,2.60688 -0.0909,-0.0087 -0.44166,-0.1261677 -0.77937,-0.261004 z"
       id="path6"
       transform="matrix(0.26458333,0,0,0.26458333,-0.09317171,98.332576)" />
    <path
       style="fill:#5841ff;fill-opacity:1;stroke-width:1.33325"
       d="m 113.15837,12.35522 c -0.6004,-0.266454 -1.9504,-0.783856 -3,-1.149781 -1.0496,-0.365926 -1.93509,-0.682314 -1.96774,-0.703083 -0.0327,-0.02077 0.33837,-1.2255375 0.8245,-2.6772605 l 0.88387,-2.6394962 2.1755,0.8165168 c 3.77431,1.4165889 4.6755,1.8080606 4.6755,2.0310147 0,0.5023997 -2.02141,4.8330892 -2.25,4.8204132 -0.1375,-0.0076 -0.74123,-0.23187 -1.34163,-0.498324 z"
       id="path7"
       transform="matrix(0.26458333,0,0,0.26458333,-0.09317171,98.332576)" />
    <path
       style="fill:#5841ff;fill-opacity:1;stroke-width:1.33325"
       d="m 118.4375,14.803522 c -1.61249,-0.813206 -2.55588,-1.433413 -2.54464,-1.672916 0.01,-0.209333 0.48794,-1.367507 1.0625,-2.57372 L 118,8.3637723 l 2.5,1.2373109 c 3.745,1.8534928 3.57371,1.5020918 2.05003,4.2056168 -0.71502,1.268685 -1.35628,2.302747 -1.42503,2.297916 -0.0687,-0.0048 -1.27813,-0.590323 -2.6875,-1.301094 z"
       id="path8"
       transform="matrix(0.26458333,0,0,0.26458333,-0.09317171,98.332576)" />
    <path
       style="fill:#5841ff;fill-opacity:1;stroke-width:1.33325"
       d="m 126.125,19.239729 c -1.30625,-0.877218 -2.34274,-1.724311 -2.3033,-1.882431 0.0587,-0.235532 2.20985,-4.123993 2.46401,-4.454083 0.0895,-0.116219 3.92564,2.283388 4.90846,3.070358 l 0.69416,0.555839 -1.52167,2.110294 c -0.83691,1.160662 -1.59929,2.129344 -1.69416,2.152629 -0.0949,0.02328 -1.24125,-0.675389 -2.5475,-1.552606 z"
       id="path9"
       transform="matrix(0.26458333,0,0,0.26458333,-0.09317171,98.332576)" />
    <path
       style="fill:#5841ff;fill-opacity:1;stroke-width:1.33325"
       d="m 132.28412,23.764707 c -1.35623,-1.139133 -2.48123,-2.128879 -2.5,-2.199435 -0.0666,-0.250401 2.89482,-4.190272 3.14964,-4.190272 0.1425,0 1.32778,0.871875 2.63395,1.9375 1.30617,1.065625 2.54699,2.075995 2.75738,2.245266 0.33005,0.265549 0.14337,0.572007 -1.36093,2.234051 -0.9589,1.059456 -1.84937,1.952779 -1.97881,1.985163 -0.12944,0.03238 -1.345,-0.873139 -2.70123,-2.012273 z"
       id="path10"
       transform="matrix(0.26458333,0,0,0.26458333,-0.09317171,98.332576)" />
    <path
       style="fill:#5841ff;fill-opacity:1;stroke-width:1.33325"
       d="M 138.29771,29.172178 135.88532,26.75 l 1.80734,-2.045337 1.80734,-2.045336 2.67715,2.655756 2.67715,2.655755 -1.53547,1.389581 c -2.82963,2.560778 -2.26203,2.582057 -5.02112,-0.188241 z"
       id="path11"
       transform="matrix(0.26458333,0,0,0.26458333,-0.09317171,98.332576)" />
    <path
       style="fill:#5841ff;fill-opacity:1;stroke-width:1.33325"
       d="m 144.00588,35.515324 c -1.05409,-1.310569 -2.02101,-2.447423 -2.14871,-2.526342 -0.44352,-0.27411 -0.22117,-0.570922 1.77722,-2.372443 1.71735,-1.548173 2.05343,-1.756764 2.3125,-1.435267 0.16671,0.206891 1.17498,1.444849 2.24061,2.751017 1.06562,1.306168 1.9375,2.493038 1.9375,2.637489 0,0.144451 -0.59063,0.689046 -1.3125,1.210211 -0.72188,0.521166 -1.66746,1.210962 -2.10129,1.53288 l -0.78879,0.585307 z"
       id="path12"
       transform="matrix(0.26458333,0,0,0.26458333,-0.09317171,98.332576)" />
    <path
       style="fill:#5841ff;fill-opacity:1;stroke-width:1.33325"
       d="m 148.26092,41.354509 c -0.91414,-1.395182 -1.62806,-2.563807 -1.58649,-2.596945 0.38088,-0.303656 3.89497,-2.832873 4.12466,-2.968674 0.19428,-0.114858 0.91709,0.758888 2.0625,2.49319 0.96988,1.468509 1.7627,2.737045 1.76183,2.818968 -0.002,0.152115 -0.19673,0.271532 -3.05806,1.871681 l -1.64238,0.918473 z"
       id="path13"
       transform="matrix(0.26458333,0,0,0.26458333,-0.09317171,98.332576)" />
    <path
       style="fill:#5841ff;fill-opacity:1;stroke-width:1.33325"
       d="m 152.68528,49.003608 -1.3037,-2.621392 0.55921,-0.346371 c 2.47071,-1.530342 4.07739,-2.367661 4.23697,-2.208085 0.10415,0.10415 0.81728,1.423011 1.58473,2.930802 l 1.39537,2.741438 -2.20393,1.044643 c -1.21216,0.574554 -2.37516,1.05268 -2.58444,1.0625 -0.24094,0.01131 -0.85867,-0.943606 -1.68421,-2.603535 z"
       id="path14"
       transform="matrix(0.26458333,0,0,0.26458333,-0.09317171,98.332576)" />
    <path
       style="fill:#5841ff;fill-opacity:1;stroke-width:1.33325"
       d="m 156.875,59.13564 c 0,-0.237774 -1.36312,-3.975908 -2.12316,-5.822415 -0.14861,-0.36106 0.19354,-0.608434 1.9738,-1.427026 1.18448,-0.544638 2.33252,-1.02309 2.55122,-1.063225 0.41636,-0.07641 0.63488,0.376453 2.22151,4.603842 l 0.81701,2.176815 -2.40769,0.797395 c -1.32423,0.438568 -2.54832,0.849162 -2.72019,0.912432 -0.17188,0.06327 -0.3125,-0.01675 -0.3125,-0.177818 z"
       id="path15"
       transform="matrix(0.26458333,0,0,0.26458333,-0.09317171,98.332576)" />
    <path
       style="fill:#5841ff;fill-opacity:1;stroke-width:1.33325"
       d="m 158.43608,64.201942 c -0.42887,-1.624952 -0.85058,-3.138987 -0.93713,-3.364521 -0.12824,-0.334184 0.28679,-0.558026 2.2429,-1.209706 1.32014,-0.439805 2.54973,-0.742288 2.73241,-0.672184 0.18269,0.0701 0.67552,1.402538 1.09518,2.960965 1.24006,4.605046 1.38161,4.039477 -1.13965,4.553519 -1.19889,0.244431 -2.41247,0.498864 -2.69687,0.565404 -0.46998,0.109965 -0.58808,-0.148076 -1.29684,-2.833477 z"
       id="path16"
       transform="matrix(0.26458333,0,0,0.26458333,-0.09317171,98.332576)" />
    <path
       style="fill:#5841ff;fill-opacity:1;stroke-width:1.33325"
       d="m 160.05798,72.211875 c -0.23931,-1.629031 -0.4976,-3.190516 -0.57398,-3.469966 -0.12597,-0.460926 0.0656,-0.54978 2.06357,-0.957218 1.21134,-0.24702 2.44557,-0.506193 2.74274,-0.575941 0.47946,-0.112532 0.57116,0.02342 0.81435,1.207218 0.15073,0.733718 0.42271,2.417344 0.60441,3.741392 l 0.33036,2.40736 -1.64472,0.161687 c -0.90459,0.08893 -2.15251,0.225959 -2.77316,0.304515 l -1.12846,0.142827 z"
       id="path17"
       transform="matrix(0.26458333,0,0,0.26458333,-0.09317171,98.332576)" />
    <path
       style="fill:#5841ff;fill-opacity:1;stroke-width:1.33325"
       d="m 160.875,80.536673 c 0,-0.73608 -0.0708,-2.015254 -0.15723,-2.842608 l -0.15723,-1.504281 1.96973,-0.171357 c 1.08335,-0.09425 2.32592,-0.232072 2.76126,-0.30628 l 0.79152,-0.134923 0.13729,1.336388 c 0.0755,0.735013 0.18242,2.152013 0.23759,3.148888 l 0.10031,1.8125 h -2.84162 -2.84162 z"
       id="path18"
       transform="matrix(0.26458333,0,0,0.26458333,-0.09317171,98.332576)" />
    <path
       style="fill:#5841ff;fill-opacity:1;stroke-width:1.33325"
       d="m 162.90576,91.549605 -2.34423,-0.248816 0.15673,-1.499567 c 0.0862,-0.824762 0.15674,-2.101815 0.15674,-2.837895 V 85.625 h 2.84162 2.84162 l -0.10031,1.8125 c -0.20471,3.69907 -0.33756,4.440361 -0.78842,4.399211 -0.23073,-0.02106 -1.47442,-0.150257 -2.76375,-0.287106 z"
       id="path19"
       transform="matrix(0.26458333,0,0,0.26458333,-0.09317171,98.332576)" />
    <path
       style="fill:#5841ff;fill-opacity:1;stroke-width:1.33325"
       d="m 161.79681,99.798115 c -2.23853,-0.4801 -2.44097,-0.570848 -2.31356,-1.037126 0.0768,-0.281044 0.33523,-1.84253 0.57431,-3.46997 l 0.4347,-2.958981 1.25387,0.141808 c 0.68963,0.07799 1.93791,0.212532 2.77395,0.298973 l 1.52008,0.157166 -0.33072,2.410007 c -0.48695,3.54845 -0.83329,5.038158 -1.16466,5.009638 -0.16213,-0.014 -1.39871,-0.26214 -2.74797,-0.551515 z"
       id="path20"
       transform="matrix(0.26458333,0,0,0.26458333,-0.09317171,98.332576)" />
    <path
       style="fill:#5841ff;fill-opacity:1;stroke-width:0.94275"
       d="m 159.98291,107.98463 c -1.36118,-0.44632 -2.50549,-0.8393 -2.5429,-0.87329 -0.0374,-0.034 0.21374,-1.07858 0.55812,-2.32132 0.34438,-1.24275 0.72655,-2.72058 0.84926,-3.28407 0.12272,-0.5635 0.28175,-1.06077 0.35342,-1.10506 0.10461,-0.0647 5.25603,0.95218 5.42517,1.07087 0.16356,0.11477 -1.84969,7.33701 -2.0431,7.32933 -0.0688,-0.003 -1.23879,-0.37013 -2.59997,-0.81646 z"
       id="path21"
       transform="matrix(0.26458333,0,0,0.26458333,-0.09317171,98.332576)" />
    <path
       style="fill:#5841ff;fill-opacity:1;stroke-width:0.94275"
       d="m 157.0219,115.81896 c -1.33687,-0.59889 -2.43068,-1.15372 -2.43068,-1.23296 0,-0.0792 0.42989,-1.23316 0.95532,-2.56426 0.52543,-1.3311 1.05509,-2.75827 1.17703,-3.17149 0.12194,-0.41322 0.24129,-0.7513 0.26522,-0.7513 0.0956,0 5.12373,1.6344 5.23721,1.70235 0.067,0.0401 -0.0217,0.48886 -0.19702,0.99724 -0.64058,1.85734 -2.36781,6.13883 -2.47065,6.12428 -0.0582,-0.008 -1.19956,-0.50496 -2.53643,-1.10386 z"
       id="path22"
       transform="matrix(0.26458333,0,0,0.26458333,-0.09317171,98.332576)" />
    <path
       style="fill:#5841ff;fill-opacity:1;stroke-width:0.94275"
       d="m 153.69071,122.55614 -2.40311,-1.38714 1.34245,-2.69013 c 0.73835,-1.47958 1.36312,-2.72406 1.38837,-2.76552 0.0438,-0.0719 1.35566,0.47472 3.98567,1.66056 l 1.20315,0.5425 -1.22214,2.47169 c -0.67218,1.35944 -1.3727,2.71549 -1.55671,3.01344 l -0.33457,0.54174 z"
       id="path23"
       transform="matrix(0.26458333,0,0,0.26458333,-0.09317171,98.332576)" />
    <path
       style="fill:#5841ff;fill-opacity:1;stroke-width:0.94275"
       d="m 148.74636,130.31487 -2.22094,-1.60797 1.69061,-2.60003 1.69061,-2.60004 0.79549,0.45459 c 0.43753,0.25002 1.52992,0.88385 2.42755,1.40852 l 1.63206,0.95395 -0.46264,0.74283 c -0.89808,1.44202 -3.09852,4.7191 -3.2144,4.78717 -0.0646,0.0379 -1.11682,-0.65463 -2.33834,-1.53902 z"
       id="path24"
       transform="matrix(0.26458333,0,0,0.26458333,-0.09317171,98.332576)" />
    <path
       style="fill:#5841ff;fill-opacity:1;stroke-width:0.94275"
       d="m 144.60334,137.83615 c -0.48614,-0.46064 -1.39183,-1.29167 -2.01265,-1.84671 l -1.12875,-1.00918 1.23584,-1.46403 c 0.67972,-0.80522 1.67127,-2.03142 2.20345,-2.7249 l 0.9676,-1.26085 2.19568,1.57936 c 1.20763,0.86865 2.21613,1.63658 2.24111,1.70651 0.0739,0.20689 -4.48001,5.86964 -4.71349,5.86115 -0.0577,-0.002 -0.50266,-0.3807 -0.98879,-0.84135 z"
       id="path25"
       transform="matrix(0.26458333,0,0,0.26458333,-0.09317171,98.332576)" />
    <path
       style="fill:#5841ff;fill-opacity:1;stroke-width:0.94275"
       d="m 137.63978,142.8111 -1.83703,-2.04515 2.48414,-2.48415 2.48415,-2.48415 2.04873,1.83171 c 1.1268,1.00745 2.04873,1.86906 2.04873,1.91471 0,0.12126 -5.18212,5.32555 -5.29566,5.31831 -0.0528,-0.003 -0.92269,-0.92644 -1.93306,-2.05128 z"
       id="path26"
       transform="matrix(0.26458333,0,0,0.26458333,-0.09317171,98.332576)" />
    <path
       style="fill:#5841ff;fill-opacity:1;stroke-width:0.94275"
       d="m 131.15018,148.09904 -1.60912,-2.23839 1.25557,-0.96351 c 0.69056,-0.52993 1.90171,-1.50888 2.69144,-2.17545 0.78974,-0.66657 1.46945,-1.21195 1.51047,-1.21195 0.041,0 0.90287,0.92642 1.91522,2.0587 l 1.84063,2.05871 -0.61106,0.52546 c -1.21842,1.04775 -5.18907,4.19583 -5.28532,4.1904 -0.0543,-0.003 -0.82282,-1.01285 -1.70783,-2.24397 z"
       id="path27"
       transform="matrix(0.26458333,0,0,0.26458333,-0.09317171,98.332576)" />
    <path
       style="fill:#5841ff;fill-opacity:1;stroke-width:0.94275"
       d="m 124.9274,152.34278 -1.40057,-2.41447 2.5833,-1.70271 2.5833,-1.70272 1.24328,1.69188 c 0.68381,0.93053 1.42065,1.94422 1.63743,2.25265 l 0.39415,0.56076 -1.37226,0.96191 c -0.75475,0.52906 -2.02382,1.3681 -2.82016,1.86454 l -1.4479,0.90262 z"
       id="path28"
       transform="matrix(0.26458333,0,0,0.26458333,-0.09317171,98.332576)" />
    <path
       style="fill:#5841ff;fill-opacity:1;stroke-width:0.94275"
       d="m 116.76989,156.60302 c -0.61678,-1.40205 -1.08987,-2.56747 -1.05129,-2.58984 0.0386,-0.0224 1.28212,-0.64551 2.76343,-1.38474 l 2.6933,-1.34407 1.18403,2.05117 c 0.65122,1.12815 1.29099,2.2196 1.42171,2.42544 0.22857,0.35993 0.13734,0.42558 -2.38114,1.71358 -3.91283,2.00111 -3.31696,2.11327 -4.63004,-0.87154 z"
       id="path29"
       transform="matrix(0.26458333,0,0,0.26458333,-0.09317171,98.332576)" />
    <path
       style="fill:#5841ff;fill-opacity:1;stroke-width:0.94275"
       d="m 109.8047,162.23113 c -0.0417,-0.0698 -0.41042,-1.19424 -0.81932,-2.49877 -0.4089,-1.30453 -0.77892,-2.46431 -0.82227,-2.57728 -0.0457,-0.1191 0.23991,-0.29948 0.67981,-0.42931 0.41725,-0.12315 1.84772,-0.6538 3.17882,-1.17923 1.3311,-0.52543 2.48954,-0.95532 2.57429,-0.95532 0.14565,0 2.41063,4.95155 2.30372,5.03624 -0.45046,0.35683 -7.00116,2.76074 -7.09505,2.60367 z"
       id="path30"
       transform="matrix(0.26458333,0,0,0.26458333,-0.09317171,98.332576)" />
    <path
       style="fill:#5841ff;fill-opacity:1;stroke-width:0.94275"
       d="m 100.93315,162.14229 c -0.28819,-1.38211 -0.52399,-2.62729 -0.52399,-2.76706 0,-0.16189 0.35289,-0.33884 0.97227,-0.48752 0.53475,-0.12836 2.02936,-0.52139 3.32136,-0.87339 1.292,-0.35201 2.37493,-0.60993 2.40653,-0.57315 0.0812,0.0945 1.69674,4.99035 1.69674,5.14192 0,0.17435 -4.20661,1.37707 -6.90063,1.97298 -0.44592,0.0986 -0.45106,0.0859 -0.97228,-2.41378 z"
       id="path31"
       transform="matrix(0.26458333,0,0,0.26458333,-0.09317171,98.332576)" />
    <path
       style="fill:#5841ff;fill-opacity:1;stroke-width:0.94275"
       d="m 92.892705,165.86073 c -0.0019,-0.12153 -0.120426,-1.25511 -0.263399,-2.51906 -0.357143,-3.15733 -0.42854,-2.87165 0.752983,-3.01286 0.559057,-0.0668 2.088081,-0.30686 3.397833,-0.53344 1.309752,-0.22657 2.422656,-0.37066 2.47312,-0.3202 0.120553,0.12055 1.223638,5.26168 1.146698,5.3444 -0.11652,0.12528 -2.352719,0.54168 -4.827137,0.89884 -2.977135,0.42973 -2.675862,0.41374 -2.680098,0.14232 z"
       id="path32"
       transform="matrix(0.26458333,0,0,0.26458333,-0.09317171,98.332576)" />
    <path
       style="fill:#5841ff;fill-opacity:1;stroke-width:0.94275"
       d="m 85.471532,163.81427 v -2.83365 l 0.928078,-0.0944 c 0.510443,-0.0519 1.817546,-0.14114 2.904675,-0.19822 l 1.976597,-0.1038 0.103742,0.76003 c 0.186325,1.36506 0.447936,3.93147 0.449419,4.40883 l 0.0015,0.46681 -1.988738,0.11211 c -1.093805,0.0617 -2.525697,0.15798 -3.18198,0.21404 l -1.193243,0.10193 z"
       id="path33"
       transform="matrix(0.26458333,0,0,0.26458333,-0.09317171,98.332576)" />
    <path
       style="fill:#5841ff;fill-opacity:1;stroke-width:0.94275"
       d="m 78.321159,166.4037 c -1.453412,-0.0861 -2.657337,-0.17386 -2.675389,-0.19506 -0.01805,-0.0212 0.09387,-1.29468 0.248728,-2.82994 l 0.28155,-2.7914 1.951897,0.10223 c 1.073544,0.0562 2.369533,0.14472 2.879976,0.19666 l 0.928077,0.0944 v 2.81571 2.81571 l -0.486136,-0.0259 c -0.267374,-0.0143 -1.675291,-0.0963 -3.128703,-0.18243 z"
       id="path34"
       transform="matrix(0.26458333,0,0,0.26458333,-0.09317171,98.332576)" />
    <path
       style="fill:#5841ff;fill-opacity:1;stroke-width:0.94275"
       d="m 73.627494,165.96743 c -3.381734,-0.50603 -6.303428,-1.01302 -6.412509,-1.11274 -0.100516,-0.0919 0.845493,-5.23538 0.999196,-5.43266 0.01309,-0.0168 1.137007,0.15404 2.497587,0.37967 1.360581,0.22562 2.938795,0.4648 3.507141,0.53152 l 1.033358,0.12129 -0.09874,0.5597 c -0.05431,0.30783 -0.194342,1.57395 -0.311184,2.81359 -0.227595,2.41468 -0.16096,2.29733 -1.214845,2.13963 z"
       id="path35"
       transform="matrix(0.26458333,0,0,0.26458333,-0.09317171,98.332576)" />
    <path
       style="fill:#5841ff;fill-opacity:1;stroke-width:0.94275"
       d="m 64.081552,164.20873 c -0.923658,-0.23426 -2.525922,-0.67219 -3.560587,-0.97317 l -1.881209,-0.54724 0.880148,-2.63434 c 0.553333,-1.65616 0.968614,-2.63433 1.118399,-2.63433 0.131039,0 0.462192,0.0865 0.735896,0.19215 0.273705,0.10569 1.690887,0.49892 3.149295,0.87385 1.796908,0.46195 2.641134,0.75615 2.619026,0.9127 -0.05128,0.36307 -0.952814,4.61517 -1.051583,4.95978 -0.04877,0.17015 -0.142968,0.30198 -0.209336,0.29295 -0.06637,-0.009 -0.876391,-0.20808 -1.800049,-0.44235 z"
       id="path36"
       transform="matrix(0.26458333,0,0,0.26458333,-0.09317171,98.332576)" />
    <path
       style="fill:#5841ff;fill-opacity:1;stroke-width:0.94275"
       d="m 56.745319,162.0622 c -4.365217,-1.68432 -6.099163,-2.39239 -6.101053,-2.49139 -0.0012,-0.065 0.488873,-1.2374 1.089144,-2.60527 l 1.091402,-2.48704 1.783477,0.73263 c 0.980912,0.40294 2.43976,0.96389 3.241885,1.24656 0.802124,0.28267 1.458407,0.58225 1.458407,0.66573 0,0.34408 -1.628578,5.24461 -1.73767,5.2288 -0.06517,-0.009 -0.436683,-0.13996 -0.825592,-0.29002 z"
       id="path37"
       transform="matrix(0.26458333,0,0,0.26458333,-0.09317171,98.332576)" />
    <path
       style="fill:#5841ff;fill-opacity:1;stroke-width:0.94275"
       d="m 46.662133,157.76009 c -1.551832,-0.78291 -2.878925,-1.47983 -2.949095,-1.54871 -0.153754,-0.15093 2.46594,-4.80214 2.704702,-4.80214 0.09203,0 1.357083,0.59587 2.811216,1.32415 l 2.64388,1.32414 -0.32738,0.75298 c -1.170818,2.69291 -1.826001,4.12892 -1.935611,4.2424 -0.06941,0.0719 -1.39588,-0.50991 -2.947712,-1.29282 z"
       id="path38"
       transform="matrix(0.26458333,0,0,0.26458333,-0.09317171,98.332576)" />
    <path
       style="fill:#5841ff;fill-opacity:1;stroke-width:0.94275"
       d="m 39.317942,153.57223 c -2.945999,-1.90511 -3.690879,-2.42002 -3.694262,-2.55368 -0.0017,-0.069 0.713844,-1.11056 1.590202,-2.31448 l 1.593377,-2.18896 2.516681,1.66663 c 1.384174,0.91664 2.545379,1.69517 2.580455,1.73007 0.05549,0.0552 -1.984931,3.70278 -2.542039,4.5443 -0.183958,0.27787 -0.376934,0.19444 -2.044414,-0.88388 z"
       id="path39"
       transform="matrix(0.26458333,0,0,0.26458333,-0.09317171,98.332576)" />
    <path
       style="fill:#5841ff;fill-opacity:1;stroke-width:0.94275"
       d="m 32.673897,148.85789 c -1.053114,-0.81987 -2.351379,-1.88287 -2.885035,-2.36221 l -0.970284,-0.87154 0.823681,-0.95234 c 0.453024,-0.52379 1.296702,-1.46942 1.87484,-2.1014 l 1.051161,-1.14904 0.774821,0.71346 c 0.426152,0.39241 1.570316,1.33956 2.542588,2.10478 0.972272,0.76522 1.837643,1.45272 1.923046,1.52778 0.126417,0.1111 -2.956469,4.5812 -3.159508,4.5812 -0.03331,0 -0.922197,-0.67081 -1.97531,-1.49069 z"
       id="path40"
       transform="matrix(0.26458333,0,0,0.26458333,-0.09317171,98.332576)" />
    <path
       style="fill:#5841ff;fill-opacity:1;stroke-width:0.94275"
       d="m 25.295571,142.29477 c -1.418871,-1.41555 -2.579766,-2.63742 -2.579766,-2.71526 0,-0.11565 1.658226,-1.66949 3.644577,-3.41516 0.372327,-0.32721 0.386695,-0.31643 2.858123,2.14411 l 2.483915,2.47297 -1.851245,2.04354 c -1.018185,1.12394 -1.879279,2.04353 -1.913542,2.04353 -0.03426,0 -1.223191,-1.15818 -2.642062,-2.57373 z"
       id="path41"
       transform="matrix(0.26458333,0,0,0.26458333,-0.09317171,98.332576)" />
    <path
       style="fill:#5841ff;fill-opacity:1;stroke-width:0.94275"
       d="m 20.67939,137.32143 c -1.617847,-1.89183 -3.443662,-4.23951 -3.443662,-4.42795 0,-0.18004 4.129519,-3.22777 4.373461,-3.22777 0.08954,0 0.424808,0.36484 0.745043,0.81076 0.320234,0.44592 1.283468,1.6426 2.140519,2.6593 l 1.558274,1.84855 -1.801192,1.62897 c -0.990656,0.89594 -1.934162,1.73232 -2.096681,1.85864 -0.259268,0.2015 -0.440162,0.0605 -1.475762,-1.1505 z"
       id="path42"
       transform="matrix(0.26458333,0,0,0.26458333,-0.09317171,98.332576)" />
    <path
       style="fill:#5841ff;fill-opacity:1;stroke-width:0.94275"
       d="m 14.602045,129.22533 c -0.994694,-1.50616 -1.765675,-2.80782 -1.71329,-2.89258 0.125962,-0.20381 4.421988,-2.67745 4.64999,-2.67745 0.09738,0 0.479806,0.49718 0.849829,1.10485 0.370023,0.60767 1.107067,1.72748 1.637875,2.48847 0.541853,0.77683 0.897419,1.4492 0.810765,1.53316 -0.20686,0.20042 -4.304186,3.18202 -4.372745,3.18202 -0.02964,0 -0.867729,-1.23231 -1.862424,-2.73847 z"
       id="path43"
       transform="matrix(0.26458333,0,0,0.26458333,-0.09317171,98.332576)" />
    <path
       style="fill:#5841ff;fill-opacity:1;stroke-width:0.94275"
       d="m 9.8309484,121.02118 c -0.7887304,-1.54599 -1.4340554,-2.88411 -1.4340554,-2.9736 0,-0.16872 4.916064,-2.44301 5.026432,-2.32535 0.2198,0.23431 2.716738,5.37182 2.657447,5.46775 -0.112702,0.18236 -4.42633,2.6421 -4.633423,2.6421 -0.10029,0 -0.82767,-1.26491 -1.6164006,-2.8109 z"
       id="path44"
       transform="matrix(0.26458333,0,0,0.26458333,-0.09317171,98.332576)" />
    <path
       style="fill:#5841ff;fill-opacity:1;stroke-width:0.94275"
       d="m 7.5110083,116.09809 c -0.900793,-2.03275 -2.3271455,-6.09307 -2.1857091,-6.22194 0.1679331,-0.153 5.0519248,-1.80034 5.1239828,-1.72828 0.02413,0.0241 0.399181,0.99748 0.833443,2.16299 0.434263,1.16552 0.998591,2.59059 1.254062,3.16684 0.255471,0.57625 0.402987,1.10718 0.327814,1.17984 -0.115133,0.11128 -4.8130543,2.28024 -4.9389634,2.28024 -0.023392,0 -0.2099748,-0.37786 -0.4146293,-0.83969 z"
       id="path45"
       transform="matrix(0.26458333,0,0,0.26458333,-0.09317171,98.332576)" />
    <path
       style="fill:#5841ff;fill-opacity:1;stroke-width:0.94275"
       d="m 4.689296,108.37651 c -0.2718711,-0.71507 -1.5918318,-5.58882 -1.7058246,-6.29849 l -0.1010739,-0.62924 2.3595002,-0.48579 c 1.2977251,-0.26719 2.5303156,-0.52756 2.73909,-0.57861 0.3482778,-0.0852 0.4101977,0.0376 0.7506451,1.48767 0.2040804,0.86927 0.6077201,2.40282 0.8969771,3.40789 0.2892569,1.00507 0.5083131,1.84305 0.4867921,1.86217 -0.02152,0.0191 -1.1064727,0.36916 -2.4110022,0.77787 -1.3045294,0.4087 -2.476779,0.78335 -2.6049992,0.83256 -0.1371458,0.0526 -0.3059914,-0.10219 -0.4101046,-0.37603 z"
       id="path46"
       transform="matrix(0.26458333,0,0,0.26458333,-0.09317171,98.332576)" />
    <path
       style="fill:#5841ff;fill-opacity:1;stroke-width:0.94275"
       d="M 2.245112,98.422381 C 1.7748288,95.855357 1.4104973,93.106109 1.5253739,92.991233 c 0.1413249,-0.141325 5.1321317,-0.652346 5.3930799,-0.55221 0.1325513,0.05086 0.2410024,0.312426 0.2410024,0.581248 0,0.268821 0.2057983,1.751969 0.4573294,3.295884 0.2515313,1.543915 0.390743,2.868905 0.3093592,2.944423 -0.081384,0.07552 -1.1821139,0.348819 -2.4460672,0.607337 -1.2639534,0.258515 -2.4231919,0.506825 -2.5760857,0.551795 -0.2277844,0.067 -0.3467768,-0.29372 -0.6588799,-1.997329 z"
       id="path47"
       transform="matrix(0.26458333,0,0,0.26458333,-0.09317171,98.332576)" />
    <path
       style="fill:#5841ff;fill-opacity:1;stroke-width:0.94275"
       d="M 1.2675309,91.172581 C 1.2106162,90.807979 1.1090504,89.376087 1.0418292,87.9906 L 0.91960883,85.471532 h 2.82270397 2.822704 l 0.177132,2.872621 c 0.097423,1.579942 0.1675606,2.889829 0.1558622,2.910859 -0.033796,0.06076 -4.55028,0.577101 -5.0634564,0.578877 -0.3998042,0.0014 -0.4777713,-0.08955 -0.5670237,-0.661308 z"
       id="path48"
       transform="matrix(0.26458333,0,0,0.26458333,-0.09317171,98.332576)" />
    <path
       style="fill:#5841ff;fill-opacity:1;stroke-width:0.94275"
       d="m 0.9737838,80.831144 c 0.001472,-1.075847 0.3148582,-5.104072 0.4040209,-5.193235 0.024533,-0.02453 1.3025348,0.08531 2.8400038,0.244094 l 2.795398,0.2887 -0.092128,0.46064 C 6.8704081,76.884695 6.77242,78.181886 6.703327,79.513991 L 6.5777037,81.935998 H 3.7749877 0.97227182 Z"
       id="path49"
       transform="matrix(0.26458333,0,0,0.26458333,-0.09317171,98.332576)" />
    <path
       style="fill:#5841ff;fill-opacity:1;stroke-width:0.94275"
       d="M 4.0891632,74.890542 1.4608119,74.619499 1.5789102,73.466791 c 0.1422172,-1.388121 0.9521534,-6.229985 1.0602141,-6.338046 0.042177,-0.04218 1.3007133,0.178489 2.7967471,0.490369 l 2.7200612,0.567055 -0.3194417,1.65997 c -0.1756928,0.912983 -0.419875,2.468767 -0.542627,3.457297 -0.122752,0.988529 -0.3026474,1.811012 -0.3997674,1.827738 -0.09712,0.01673 -1.3593401,-0.09156 -2.8049333,-0.240632 z"
       id="path50"
       transform="matrix(0.26458333,0,0,0.26458333,-0.09317171,98.332576)" />
    <path
       style="fill:#5841ff;fill-opacity:1;stroke-width:0.94275"
       d="M 5.6893423,66.622547 C 4.2488028,66.314031 3.0261808,66.01761 2.9724043,65.963833 2.830329,65.821758 4.4851309,59.268238 4.7944401,58.748016 c 0.038792,-0.06524 1.2681462,0.281508 2.7318991,0.770556 2.10496,0.70328 2.6397948,0.945403 2.5581748,1.158101 -0.085901,0.223854 -1.1331626,4.046064 -1.6363761,5.972312 l -0.1396332,0.534501 z"
       id="path51"
       transform="matrix(0.26458333,0,0,0.26458333,-0.09317171,98.332576)" />
    <path
       style="fill:#5841ff;fill-opacity:1;stroke-width:0.94275"
       d="M 7.6455921,58.488778 C 6.3087183,58.055254 5.2149125,57.618561 5.2149125,57.518349 c 0,-0.237253 1.6154185,-4.54283 2.1968853,-5.85536 0.2476688,-0.559056 0.5190038,-1.016466 0.6029669,-1.016466 0.1450351,0 4.8050513,2.065901 4.9205543,2.181404 0.03023,0.03023 -0.234293,0.764906 -0.587823,1.632621 -0.353529,0.867716 -0.90107,2.29361 -1.216756,3.168655 -0.315687,0.875044 -0.682087,1.603772 -0.814222,1.619396 -0.132136,0.01562 -1.3340522,-0.326296 -2.6709259,-0.759821 z"
       id="path52"
       transform="matrix(0.26458333,0,0,0.26458333,-0.09317171,98.332576)" />
    <path
       style="fill:#5841ff;fill-opacity:1;stroke-width:0.94275"
       d="M 11.048543,50.805573 C 9.7359765,50.221269 8.5926777,49.674218 8.5078795,49.589904 c -0.1359051,-0.13513 2.6551535,-6.014449 2.8552075,-6.014449 0.181992,0 4.811078,2.703201 4.802671,2.804568 -0.0051,0.06174 -0.621629,1.321774 -1.370019,2.800084 l -1.36071,2.687836 z"
       id="path53"
       transform="matrix(0.26458333,0,0,0.26458333,-0.09317171,98.332576)" />
    <path
       style="fill:#5841ff;fill-opacity:1;stroke-width:0.94275"
       d="m 15.202796,42.595928 c -1.340407,-0.771334 -2.288768,-1.426714 -2.275712,-1.572667 0.01231,-0.137628 0.793923,-1.415758 1.736913,-2.840289 1.15187,-1.740075 1.794724,-2.559282 1.958901,-2.496281 0.17926,0.06879 3.7818,2.618775 4.30114,3.044477 0.03541,0.02903 -0.622244,1.088167 -1.461461,2.353642 -0.839216,1.265475 -1.57276,2.423114 -1.630097,2.572531 -0.05734,0.149418 -0.1554,0.269273 -0.217918,0.266345 -0.06252,-0.0029 -1.147813,-0.600418 -2.411766,-1.327758 z"
       id="path54"
       transform="matrix(0.26458333,0,0,0.26458333,-0.09317171,98.332576)" />
    <path
       style="fill:#5841ff;fill-opacity:1;stroke-width:0.94275"
       d="m 19.33335,36.287632 -2.233407,-1.631138 0.807266,-1.064791 c 0.443997,-0.585635 1.520021,-1.919637 2.391166,-2.964449 l 1.583899,-1.899657 0.726594,0.662221 c 0.399627,0.364221 1.336059,1.206456 2.08096,1.871633 l 1.354366,1.209413 -1.686364,2.060956 c -0.9275,1.133526 -1.934923,2.359305 -2.238718,2.723953 l -0.552355,0.662998 z"
       id="path55"
       transform="matrix(0.26458333,0,0,0.26458333,-0.09317171,98.332576)" />
    <path
       style="fill:#5841ff;fill-opacity:1;stroke-width:0.94275"
       d="m 24.748737,29.923968 c -1.069499,-0.977056 -1.972705,-1.850064 -2.007124,-1.940018 -0.07059,-0.18449 4.469335,-4.839232 5.004399,-5.130959 0.291081,-0.158704 0.430566,-0.09071 0.883884,0.430867 0.296042,0.34062 1.11048,1.252618 1.809863,2.026662 l 1.271604,1.407353 -2.509041,2.491279 -2.509041,2.49128 z"
       id="path56"
       transform="matrix(0.26458333,0,0,0.26458333,-0.09317171,98.332576)" />
    <path
       style="fill:#5841ff;fill-opacity:1;stroke-width:0.94275"
       d="m 30.618932,23.945148 -1.87636,-2.078955 1.89217,-1.571335 c 1.040693,-0.864235 2.377339,-1.941268 2.970324,-2.393407 l 1.078153,-0.822073 1.628636,2.24369 1.628635,2.243689 -0.673857,0.55978 c -0.370621,0.30788 -1.595791,1.310783 -2.722599,2.228674 l -2.048742,1.668893 z"
       id="path57"
       transform="matrix(0.26458333,0,0,0.26458333,-0.09317171,98.332576)" />
    <path
       style="fill:#5841ff;fill-opacity:1;stroke-width:0.94275"
       d="m 37.608758,19.319406 c -1.590625,-2.164816 -1.988254,-2.736396 -1.988254,-2.858059 0,-0.115775 4.932041,-3.404726 5.340968,-3.561646 0.200239,-0.07684 0.616046,0.496581 1.618502,2.232004 0.741969,1.284475 1.349035,2.394161 1.349035,2.465968 0,0.07181 -0.118436,0.176007 -0.263192,0.231555 -0.144755,0.05555 -1.198786,0.724567 -2.342291,1.48671 -1.143505,0.762144 -2.175711,1.4441 -2.293791,1.51546 -0.140455,0.08488 -0.631805,-0.437941 -1.420977,-1.511992 z"
       id="path58"
       transform="matrix(0.26458333,0,0,0.26458333,-0.09317171,98.332576)" />
    <path
       style="fill:#5841ff;fill-opacity:1;stroke-width:0.94275"
       d="m 44.923927,13.777263 c -0.761617,-1.318792 -1.354817,-2.427746 -1.318222,-2.464341 0.164796,-0.164796 5.728443,-2.9155256 5.888666,-2.9114225 0.156933,0.00402 2.45353,4.9485995 2.343297,5.0451245 -0.07044,0.06168 -5.42575,2.728444 -5.479174,2.728444 -0.02739,0 -0.672949,-1.079012 -1.434567,-2.397805 z"
       id="path59"
       transform="matrix(0.26458333,0,0,0.26458333,-0.09317171,98.332576)" />
    <path
       style="fill:#5841ff;fill-opacity:1;stroke-width:0.94275"
       d="m 51.737043,10.543527 c -0.599786,-1.3554582 -1.09052,-2.5132839 -1.09052,-2.572946 0,-0.2080211 6.351934,-2.7556685 6.870584,-2.7556685 0.216447,0 1.848024,4.9009545 1.732125,5.2029835 -0.04434,0.115557 -0.426991,0.31354 -0.850327,0.439962 -0.423336,0.126421 -1.764071,0.627569 -2.979411,1.113662 -1.21534,0.486093 -2.295709,0.918156 -2.40082,0.960141 -0.105684,0.04221 -0.678572,-1.025279 -1.281631,-2.388134 z"
       id="path60"
       transform="matrix(0.26458333,0,0,0.26458333,-0.09317171,98.332576)" />
    <path
       style="fill:#5841ff;fill-opacity:1;stroke-width:0.94275"
       d="m 59.587913,7.7142463 c -0.445314,-1.3625523 -0.809662,-2.5879 -0.809662,-2.722995 0,-0.3440158 6.92988,-2.2745491 7.198941,-2.0054885 0.06112,0.061124 0.360428,1.2837458 0.66512,2.716938 l 0.553987,2.6058039 -0.540908,0.1396332 c -1.647789,0.4253704 -5.749286,1.5483346 -5.983806,1.6383281 -0.219267,0.08414 -0.43577,-0.3897956 -1.083672,-2.3722197 z"
       id="path61"
       transform="matrix(0.26458333,0,0,0.26458333,-0.09317171,98.332576)" />
    <path
       style="fill:#5841ff;fill-opacity:1;stroke-width:0.94275"
       d="M 67.62912,5.4298864 C 67.317266,3.931615 67.094359,2.6735101 67.133771,2.6340976 67.238133,2.5297365 72.114042,1.7175034 73.470343,1.5785463 l 1.156259,-0.1184622 0.250548,2.6287153 c 0.137801,1.4457933 0.251087,2.7073573 0.251747,2.8034758 6.59e-4,0.096118 -0.814198,0.2760138 -1.810795,0.3997675 -0.996596,0.1237536 -2.556739,0.3683242 -3.466984,0.5434901 l -1.65499,0.3184834 z"
       id="path62"
       transform="matrix(0.26458333,0,0,0.26458333,-0.09317171,98.332576)" />
    <path
       style="fill:#5841ff;fill-opacity:1;stroke-width:0.94275"
       d="M 75.892161,4.182205 C 75.738594,2.6598097 75.633419,1.3911665 75.658439,1.3629979 c 0.02502,-0.028169 0.718858,-0.098736 1.54186,-0.1568158 l 1.496367,-0.1056002 0.115348,2.7954508 c 0.06344,1.5374978 0.09623,2.810336 0.07287,2.8285291 -0.02336,0.018193 -0.643461,0.076404 -1.377995,0.1293565 l -1.335516,0.096278 z"
       id="path63"
       transform="matrix(0.26458333,0,0,0.26458333,-0.09317171,98.332576)" />
  </g>
</svg>
