<?xml version="1.0" encoding="UTF-8" standalone="no"?>
<!-- Generator: Adobe Illustrator 24.0.3, SVG Export Plug-In . SVG Version: 6.00 Build 0)  -->

<svg
   version="1.1"
   id="Layer_1"
   x="0px"
   y="0px"
   viewBox="0 0 883.6 498.7"
   style="enable-background:new 0 0 883.6 498.7;"
   xml:space="preserve"
   sodipodi:docname="frame-1.svg"
   inkscape:label="Layer_1"
   inkscape:version="1.1.2 (0a00cf5339, 2022-02-04)"
   xmlns:inkscape="http://www.inkscape.org/namespaces/inkscape"
   xmlns:sodipodi="http://sodipodi.sourceforge.net/DTD/sodipodi-0.dtd"
   xmlns="http://www.w3.org/2000/svg"
   xmlns:svg="http://www.w3.org/2000/svg"
   xmlns:ns="&amp;ns_sfw;"><defs
   id="defs1282" /><sodipodi:namedview
   id="namedview1280"
   pagecolor="#ffffff"
   bordercolor="#666666"
   borderopacity="1.0"
   inkscape:pageshadow="2"
   inkscape:pageopacity="0.0"
   inkscape:pagecheckerboard="0"
   showgrid="false"
   inkscape:zoom="3.0556814"
   inkscape:cx="522.30576"
   inkscape:cy="94.087034"
   inkscape:window-width="2560"
   inkscape:window-height="997"
   inkscape:window-x="0"
   inkscape:window-y="0"
   inkscape:window-maximized="1"
   inkscape:current-layer="Layer_1" />
<style
   type="text/css"
   id="style2">
	.st0{fill-rule:evenodd;clip-rule:evenodd;fill:url(#SVGID_1_);}
	.st1{fill-rule:evenodd;clip-rule:evenodd;fill:url(#SVGID_2_);}
	.st2{fill-rule:evenodd;clip-rule:evenodd;fill:#CDA607;}
	.st3{fill-rule:evenodd;clip-rule:evenodd;fill:#FECC00;}
	.st4{fill-rule:evenodd;clip-rule:evenodd;fill:url(#SVGID_3_);}
	.st5{fill-rule:evenodd;clip-rule:evenodd;fill:url(#SVGID_4_);}
	.st6{fill-rule:evenodd;clip-rule:evenodd;fill:url(#SVGID_5_);}
	.st7{fill-rule:evenodd;clip-rule:evenodd;fill:url(#SVGID_6_);}
	.st8{fill-rule:evenodd;clip-rule:evenodd;fill:#898989;}
	.st9{fill-rule:evenodd;clip-rule:evenodd;fill:url(#SVGID_7_);}
	.st10{fill-rule:evenodd;clip-rule:evenodd;fill:url(#SVGID_8_);}
	.st11{fill-rule:evenodd;clip-rule:evenodd;fill:url(#SVGID_9_);}
	.st12{fill-rule:evenodd;clip-rule:evenodd;fill:#DFB408;}
	.st13{fill-rule:evenodd;clip-rule:evenodd;fill:#2B2A29;}
	.st14{fill-rule:evenodd;clip-rule:evenodd;fill:url(#SVGID_10_);}
	.st15{fill-rule:evenodd;clip-rule:evenodd;fill:url(#SVGID_11_);}
	.st16{fill-rule:evenodd;clip-rule:evenodd;fill:url(#SVGID_12_);}
	.st17{fill-rule:evenodd;clip-rule:evenodd;fill:url(#SVGID_13_);}
	.st18{fill-rule:evenodd;clip-rule:evenodd;fill:url(#SVGID_14_);}
	.st19{fill-rule:evenodd;clip-rule:evenodd;fill:url(#SVGID_15_);}
	.st20{fill-rule:evenodd;clip-rule:evenodd;fill:url(#SVGID_16_);}
	.st21{fill-rule:evenodd;clip-rule:evenodd;fill:#009846;}
	.st22{fill-rule:evenodd;clip-rule:evenodd;fill:#217549;}
	.st23{fill-rule:evenodd;clip-rule:evenodd;fill:#0E8544;}
	.st24{fill-rule:evenodd;clip-rule:evenodd;fill:#06803B;}
	.st25{fill-rule:evenodd;clip-rule:evenodd;fill:#09803D;}
	.st26{fill-rule:evenodd;clip-rule:evenodd;fill:url(#SVGID_17_);}
	.st27{fill-rule:evenodd;clip-rule:evenodd;fill:url(#SVGID_18_);}
	.st28{fill-rule:evenodd;clip-rule:evenodd;fill:url(#SVGID_19_);}
	.st29{fill-rule:evenodd;clip-rule:evenodd;fill:url(#SVGID_20_);}
	.st30{fill-rule:evenodd;clip-rule:evenodd;fill:url(#SVGID_21_);}
	.st31{fill-rule:evenodd;clip-rule:evenodd;fill:url(#SVGID_22_);}
	.st32{fill-rule:evenodd;clip-rule:evenodd;fill:url(#SVGID_23_);}
	.st33{fill-rule:evenodd;clip-rule:evenodd;fill:url(#SVGID_24_);}
	.st34{fill-rule:evenodd;clip-rule:evenodd;fill:url(#SVGID_25_);}
	.st35{fill-rule:evenodd;clip-rule:evenodd;fill:url(#SVGID_26_);}
</style>
<metadata
   id="CorelCorpID_0Corel-Layer">
	<ns:sfw>
		<ns:slices />
		<ns:sliceSourceBounds
   bottomLeftOrigin="true"
   height="498.7"
   width="883.6"
   x="0"
   y="0" />
	</ns:sfw>
</metadata>
<g
   id="Ebene_x0020_1">
	<g
   id="_877891136">
		
			<linearGradient
   id="SVGID_1_"
   gradientUnits="userSpaceOnUse"
   x1="23784.2578"
   y1="-14599.1006"
   x2="23784.2578"
   y2="-16929.0996"
   gradientTransform="matrix(2.830532e-02 0 0 -2.830532e-02 -233.2067 -116.0534)">
			<stop
   offset="0"
   style="stop-color:#623620"
   id="stop5" />
			<stop
   offset="0.1216"
   style="stop-color:#CC9E20"
   id="stop7" />
			<stop
   offset="0.2392"
   style="stop-color:#FFFFFF"
   id="stop9" />
			<stop
   offset="0.5216"
   style="stop-color:#CF9A30"
   id="stop11" />
			<stop
   offset="1"
   style="stop-color:#662D29"
   id="stop13" />
		</linearGradient>
		<path
   class="st0"
   d="M862.1,363.1H20.2c-14.3-21.1-14.8-43.1,0-66c280.6,0,561.2,0,841.9,0C871.6,318.8,875.3,340.5,862.1,363.1z"
   id="path16" />
		
			<linearGradient
   id="SVGID_2_"
   gradientUnits="userSpaceOnUse"
   x1="31290.9707"
   y1="-15168.1006"
   x2="37841.9727"
   y2="-15168.1006"
   gradientTransform="matrix(2.830532e-02 0 0 -2.830532e-02 -233.2067 -116.0534)">
			<stop
   offset="0"
   style="stop-color:#623620"
   id="stop18" />
			<stop
   offset="0.1216"
   style="stop-color:#CC9E20"
   id="stop20" />
			<stop
   offset="0.2392"
   style="stop-color:#FFFFFF"
   id="stop22" />
			<stop
   offset="0.5216"
   style="stop-color:#CF9A30"
   id="stop24" />
			<stop
   offset="1"
   style="stop-color:#662D29"
   id="stop26" />
		</linearGradient>
		<path
   class="st1"
   d="M652.5,315.9c0.3,11.4,41.7,20.6,92.7,20.6s92.4-9.2,92.7-20.6h0v-25.8H652.5V315.9z"
   id="path29" />
		<ellipse
   class="st2"
   cx="745.2"
   cy="290.6"
   rx="92.7"
   ry="20.7"
   id="ellipse31" />
		<ellipse
   class="st3"
   cx="745.2"
   cy="290.6"
   rx="84.3"
   ry="18.9"
   id="ellipse33" />
		
			<linearGradient
   id="SVGID_3_"
   gradientUnits="userSpaceOnUse"
   x1="24051.9707"
   y1="-15168.1006"
   x2="30601.9707"
   y2="-15168.1006"
   gradientTransform="matrix(2.830532e-02 0 0 -2.830532e-02 -233.2067 -116.0534)">
			<stop
   offset="0"
   style="stop-color:#623620"
   id="stop35" />
			<stop
   offset="0.1216"
   style="stop-color:#CC9E20"
   id="stop37" />
			<stop
   offset="0.2392"
   style="stop-color:#FFFFFF"
   id="stop39" />
			<stop
   offset="0.5216"
   style="stop-color:#CF9A30"
   id="stop41" />
			<stop
   offset="1"
   style="stop-color:#662D29"
   id="stop43" />
		</linearGradient>
		<path
   class="st4"
   d="M447.6,315.9c0.3,11.4,41.7,20.6,92.7,20.6c51,0,92.4-9.2,92.7-20.6h0v-25.8H447.6V315.9z"
   id="path46" />
		<ellipse
   class="st2"
   cx="540.3"
   cy="290.6"
   rx="92.7"
   ry="20.7"
   id="ellipse48" />
		<ellipse
   class="st3"
   cx="540.3"
   cy="290.6"
   rx="84.3"
   ry="18.9"
   id="ellipse50" />
		
			<linearGradient
   id="SVGID_4_"
   gradientUnits="userSpaceOnUse"
   x1="16811.9707"
   y1="-15168.1006"
   x2="23362.9707"
   y2="-15168.1006"
   gradientTransform="matrix(2.830532e-02 0 0 -2.830532e-02 -233.2067 -116.0534)">
			<stop
   offset="0"
   style="stop-color:#623620"
   id="stop52" />
			<stop
   offset="0.1216"
   style="stop-color:#CC9E20"
   id="stop54" />
			<stop
   offset="0.2392"
   style="stop-color:#FFFFFF"
   id="stop56" />
			<stop
   offset="0.5216"
   style="stop-color:#CF9A30"
   id="stop58" />
			<stop
   offset="1"
   style="stop-color:#662D29"
   id="stop60" />
		</linearGradient>
		<path
   class="st5"
   d="M242.7,315.9c0.3,11.4,41.7,20.6,92.7,20.6c51,0,92.4-9.2,92.7-20.6h0v-25.8H242.7V315.9z"
   id="path63" />
		<ellipse
   class="st2"
   cx="335.4"
   cy="290.6"
   rx="92.7"
   ry="20.7"
   id="ellipse65" />
		<ellipse
   class="st3"
   cx="335.4"
   cy="290.6"
   rx="84.3"
   ry="18.9"
   id="ellipse67" />
		
			<linearGradient
   id="SVGID_5_"
   gradientUnits="userSpaceOnUse"
   x1="9573.9707"
   y1="-15168.1006"
   x2="16123.9707"
   y2="-15168.1006"
   gradientTransform="matrix(2.830532e-02 0 0 -2.830532e-02 -233.2067 -116.0534)">
			<stop
   offset="0"
   style="stop-color:#623620"
   id="stop69" />
			<stop
   offset="0.1216"
   style="stop-color:#CC9E20"
   id="stop71" />
			<stop
   offset="0.2392"
   style="stop-color:#FFFFFF"
   id="stop73" />
			<stop
   offset="0.5216"
   style="stop-color:#CF9A30"
   id="stop75" />
			<stop
   offset="1"
   style="stop-color:#662D29"
   id="stop77" />
		</linearGradient>
		<path
   class="st6"
   d="M37.8,315.9c0.3,11.4,41.7,20.6,92.7,20.6s92.4-9.2,92.7-20.6h0v-25.8H37.8V315.9z"
   id="path80" />
		<ellipse
   class="st2"
   cx="130.5"
   cy="290.6"
   rx="92.7"
   ry="20.7"
   id="ellipse82" />
		<ellipse
   class="st3"
   cx="130.5"
   cy="290.6"
   rx="84.3"
   ry="18.9"
   id="ellipse84" />
		
			<linearGradient
   id="SVGID_6_"
   gradientUnits="userSpaceOnUse"
   x1="32962.9727"
   y1="-9703.0625"
   x2="36167.9727"
   y2="-9703.0625"
   gradientTransform="matrix(2.830532e-02 0 0 -2.830532e-02 -233.2067 -116.0534)">
			<stop
   offset="0"
   style="stop-color:#E73A3F"
   id="stop86" />
			<stop
   offset="0.1804"
   style="stop-color:#E73A3F"
   id="stop88" />
			<stop
   offset="0.3216"
   style="stop-color:#BF4717"
   id="stop90" />
			<stop
   offset="0.749"
   style="stop-color:#91261F"
   id="stop92" />
			<stop
   offset="1"
   style="stop-color:#8E241F"
   id="stop94" />
		</linearGradient>
		<path
   class="st7"
   d="M790.5,44.9l-44.2-28.1l-46.5,28.1v242.5c0,4.2,0.5,4.9,3.7,5.9c29,9,56.8,10.1,84.8-0.6    c2.1-0.8,2.1-3.5,2.1-5.9C790.5,205.6,790.5,126.1,790.5,44.9z"
   id="path97" />
		<path
   class="st8"
   d="M737.2,0.2c0-0.1,10.2-2.1,10.8,8.4c0.2,3.4,0.2,10.3-1.3,9.9c-0.5-0.2-0.8-0.1-1.2,0c-1.3,0.4,0.9-6,0.8-9    C745.6-0.8,737.4,3.5,737.2,0.2z"
   id="path99" />
		
			<linearGradient
   id="SVGID_7_"
   gradientUnits="userSpaceOnUse"
   x1="32962.9727"
   y1="-10199.0625"
   x2="36167.9727"
   y2="-10199.0625"
   gradientTransform="matrix(2.830532e-02 0 0 -2.830532e-02 -233.2067 -116.0534)">
			<stop
   offset="0"
   style="stop-color:#E73A3F"
   id="stop101" />
			<stop
   offset="0.5216"
   style="stop-color:#B32322"
   id="stop103" />
			<stop
   offset="1"
   style="stop-color:#8E241F"
   id="stop105" />
		</linearGradient>
		<path
   class="st9"
   d="M790.5,44.9c-30.2,6.5-60.5,6.5-90.7,0v242.5c0,4.2,0.5,4.9,3.7,5.9c29,9,56.8,10.1,84.8-0.6    c2.1-0.8,2.1-3.5,2.1-5.9C790.5,205.6,790.5,126.1,790.5,44.9z"
   id="path108" />
		
			<linearGradient
   id="SVGID_8_"
   gradientUnits="userSpaceOnUse"
   x1="11245.9707"
   y1="-11835.8955"
   x2="14450.9707"
   y2="-11835.8955"
   gradientTransform="matrix(2.830532e-02 0 0 -2.830532e-02 -233.2067 -116.0534)">
			<stop
   offset="0"
   style="stop-color:#E73A3F"
   id="stop110" />
			<stop
   offset="0.5216"
   style="stop-color:#B32322"
   id="stop112" />
			<stop
   offset="1"
   style="stop-color:#8E241F"
   id="stop114" />
		</linearGradient>
		<path
   class="st10"
   d="M175.8,160.2c-0.4-2.8-4.9-4.6-7.8-5.2c-4.6-0.9-10,1.5-14.5,0.9c-6.1-0.8-11.5-3.5-17.3-3.7    c-8.4-0.3-21.3-0.2-29.1,0.6c-5.4,0.6-9.1,3.3-14.4,4.3c-3.5,0.7-7.6,1.1-7.6,3v125.6h90.7V160.2z"
   id="path117" />
		
			<radialGradient
   id="SVGID_9_"
   cx="-236.8545"
   cy="628.3539"
   r="0.5"
   gradientTransform="matrix(90.7186 0 0 -26.0808 21617.5684 16557.1914)"
   gradientUnits="userSpaceOnUse">
			<stop
   offset="0"
   style="stop-color:#EBECEC"
   id="stop119" />
			<stop
   offset="1"
   style="stop-color:#F5B2B6"
   id="stop121" />
			<stop
   offset="1"
   style="stop-color:#F5B2B6"
   id="stop123" />
		</radialGradient>
		<path
   class="st11"
   d="M175.8,164.2c-0.9-0.2-1.8-0.8-2.5-1.4c-0.1,0-0.1-0.1-0.1-0.1c-1.7-1.4-3.2-3.3-5.1-3.7    c-4.6-0.9-10,1.5-14.5,0.9c-6.1-0.8-11.5-3.5-17.3-3.6c-8.4-0.3-21.3-0.2-29.1,0.6c-5.4,0.6-9.1,3.3-14.4,4.3    c-3.5,0.7-4.2,2.1-7.6,2.9v18h90.7V164.2z"
   id="path126" />
		<path
   class="st3"
   d="m 111.4,142.8 c 4.1,24.7 33.7,22.1 37.2,0 3,-18.9 -14.60434,-26.96692 -20.80434,-44.966919 C 121.59566,115.93308 108.2,124 111.4,142.8 Z"
   id="path128"
   sodipodi:nodetypes="cccc"
   style="fill:#fe9700;fill-opacity:1" />
		<path
   class="st12"
   d="m 115.4,149.8 c 3.2,15.3 26.4,13.8 29.2,0 2.3,-11.8 -9.21231,-19.84892 -17.31231,-28.74892 C 119.18769,130.65108 112.9,138 115.4,149.8 Z"
   id="path130"
   sodipodi:nodetypes="cccc"
   style="fill:#dfa708;fill-opacity:1" />
		<path
   class="st8"
   d="M120.3,147.7c0-0.1,10.2-2.2,10.8,8.4c0.1,3.4-0.5,6.9-1.3,9.9c-0.2,0.8-1.3,1-1.3,0c-0.2-3,1-6,0.8-9    C128.7,146.6,120.5,151,120.3,147.7z"
   id="path132" />
		<path
   class="st13"
   d="M130.9,160.6c-0.2,1.9-0.7,3.7-1,5.3c-0.2,0.8-1.3,1-1.3,0c-0.1-1.8,0.2-3.6,0.5-5.3    C129.6,160.7,130.2,160.7,130.9,160.6z"
   id="path134" />
		
			<linearGradient
   id="SVGID_10_"
   gradientUnits="userSpaceOnUse"
   x1="11245.9707"
   y1="-12234.9326"
   x2="14450.9707"
   y2="-12234.9326"
   gradientTransform="matrix(2.830532e-02 0 0 -2.830532e-02 -233.2067 -116.0534)">
			<stop
   offset="0"
   style="stop-color:#E73A3F"
   id="stop136" />
			<stop
   offset="0.5216"
   style="stop-color:#B32322"
   id="stop138" />
			<stop
   offset="1"
   style="stop-color:#8E241F"
   id="stop140" />
		</linearGradient>
		<path
   class="st14"
   d="M175.8,160.2c-0.8,0.3-1.6,0.7-2.3,1.2c-0.5,0.3,0.1,2.3-0.3,2.6c-0.4,0.3-1.8-1.2-2.2-0.9    c-2.1,1.4-4.1,2.8-6.3,3.5c-2.2,0.7-5.2-0.8-7.4-0.3c-4.7,1.2-8.5,4.7-13.2,5.1c-4.7,0.5-10.2-2.1-14.9-2.2    c-6.2-0.2-12.9,1.1-19.1-0.1c-5-0.9-9.5-4-14.4-5.5c-3.5-1-7.1-2.2-10.6-3.5v127.2c0,4.2,0.5,4.9,3.7,5.9    c29.1,8.9,56.8,10,84.9-0.6c2.1-0.8,2.1-3.5,2.1-5.9C175.7,205.5,175.8,241.4,175.8,160.2z"
   id="path143" />
		
			<linearGradient
   id="SVGID_11_"
   gradientUnits="userSpaceOnUse"
   x1="18485.9707"
   y1="-11079.8955"
   x2="21689.9707"
   y2="-11079.8955"
   gradientTransform="matrix(2.830532e-02 0 0 -2.830532e-02 -233.2067 -116.0534)">
			<stop
   offset="0"
   style="stop-color:#E73A3F"
   id="stop145" />
			<stop
   offset="0.5216"
   style="stop-color:#B32322"
   id="stop147" />
			<stop
   offset="1"
   style="stop-color:#8E241F"
   id="stop149" />
		</linearGradient>
		<path
   class="st15"
   d="M380.7,118.5c-0.4-2.8-4.9-4.6-7.8-5.2c-4.7-0.9-10.1,1.5-14.5,0.9c-6.1-0.8-11.5-3.5-17.4-3.7    c-8.3-0.3-21.3-0.2-29.1,0.6c-5.4,0.6-9.2,3.3-14.4,4.3c-3.5,0.7-7.6,1.1-7.6,3v166.2h90.7V118.5z"
   id="path152" />
		
			<radialGradient
   id="SVGID_12_"
   cx="-236.8536"
   cy="628.3539"
   r="0.5"
   gradientTransform="matrix(90.6903 0 0 -26.0808 21815.7051 16515.5254)"
   gradientUnits="userSpaceOnUse">
			<stop
   offset="0"
   style="stop-color:#EBECEC"
   id="stop154" />
			<stop
   offset="1"
   style="stop-color:#F5B2B6"
   id="stop156" />
			<stop
   offset="1"
   style="stop-color:#F5B2B6"
   id="stop158" />
		</radialGradient>
		<path
   class="st16"
   d="M380.7,122.6c-0.9-0.2-1.8-0.8-2.5-1.4c-0.1,0-0.1-0.1-0.1-0.1c-1.7-1.4-3.2-3.3-5.1-3.7    c-4.7-0.9-10.1,1.5-14.5,0.9c-6.1-0.8-11.5-3.5-17.4-3.6c-8.3-0.3-21.3-0.2-29.1,0.6c-5.4,0.6-9.2,3.3-14.4,4.3    c-3.5,0.7-4.2,2.1-7.6,2.9v18h90.7V122.6z"
   id="path161" />
		<path
   class="st3"
   d="m 316.3,101.2 c 4.1,24.6 33.7,22.1 37.2,0 3,-18.9 -5.81296,-42.929312 -11.91296,-61.029312 C 335.38704,58.270688 313.1,82.3 316.3,101.2 Z"
   id="path163"
   sodipodi:nodetypes="cccc"
   style="fill:#fea000;fill-opacity:1" />
		<path
   class="st12"
   d="M320.3,108.1c3.3,15.3,26.5,13.7,29.2,0c2.3-11.8-6.6-24.9-14.6-33.8C326.8,84,317.8,96.4,320.3,108.1z"
   id="path165"
   style="fill:#dfaf08;fill-opacity:1" />
		<path
   class="st8"
   d="M325.2,106c0-0.1,10.2-2.2,10.7,8.4c0.2,3.4-0.5,6.9-1.3,9.9c-0.2,0.8-1.2,1-1.3,0c-0.1-3,1-6,0.8-9    C333.7,104.9,325.4,109.3,325.2,106z"
   id="path167" />
		<path
   class="st13"
   d="M335.8,118.9c-0.2,1.9-0.7,3.7-1.1,5.3c-0.2,0.8-1.2,1-1.3,0c-0.1-1.8,0.3-3.6,0.5-5.3    C334.5,119,335.1,119,335.8,118.9z"
   id="path169" />
		
			<linearGradient
   id="SVGID_13_"
   gradientUnits="userSpaceOnUse"
   x1="18485.9707"
   y1="-11498.9326"
   x2="21689.9707"
   y2="-11498.9326"
   gradientTransform="matrix(2.830532e-02 0 0 -2.830532e-02 -233.2067 -116.0534)">
			<stop
   offset="0"
   style="stop-color:#E73A3F"
   id="stop171" />
			<stop
   offset="0.5216"
   style="stop-color:#B32322"
   id="stop173" />
			<stop
   offset="1"
   style="stop-color:#8E241F"
   id="stop175" />
		</linearGradient>
		<path
   class="st17"
   d="M380.7,118.5c-0.8,0.3-1.6,0.7-2.3,1.2c-0.5,0.3,0.1,2.3-0.3,2.6c-0.4,0.3-1.8-1.2-2.2-0.9    c-2.1,1.4-4,2.8-6.3,3.5c-2.2,0.7-5.3-0.8-7.4-0.3c-4.7,1.1-8.5,4.7-13.2,5.1c-4.7,0.5-10.2-2.1-14.8-2.2    c-6.2-0.2-12.9,1.1-19.2-0.1c-5-0.9-9.5-4-14.4-5.5c-3.5-1-7-2.2-10.5-3.5v168.9c0,4.2,0.5,4.9,3.7,5.9c29,8.9,56.8,10,84.9-0.6    c2.1-0.8,2.1-3.5,2.1-5.9C380.6,205.5,380.7,199.7,380.7,118.5z"
   id="path178" />
		
			<linearGradient
   id="SVGID_14_"
   gradientUnits="userSpaceOnUse"
   x1="25724.9707"
   y1="-10424.876"
   x2="28929.9707"
   y2="-10424.876"
   gradientTransform="matrix(2.830532e-02 0 0 -2.830532e-02 -233.2067 -116.0534)">
			<stop
   offset="0"
   style="stop-color:#E73A3F"
   id="stop180" />
			<stop
   offset="0.5216"
   style="stop-color:#B32322"
   id="stop182" />
			<stop
   offset="1"
   style="stop-color:#8E241F"
   id="stop184" />
		</linearGradient>
		<path
   class="st18"
   d="M585.7,81.1c-0.4-2.7-5-4.6-7.8-5.2c-4.7-1-10.1,1.5-14.5,0.9c-6.1-0.8-11.5-3.5-17.4-3.7    c-8.4-0.3-21.3-0.2-29.1,0.6c-5.4,0.6-9.1,3.3-14.4,4.4c-3.5,0.7-7.6,1.1-7.6,2.9V285h90.7V81.1z"
   id="path187" />
		
			<radialGradient
   id="SVGID_15_"
   cx="-236.8545"
   cy="628.3502"
   r="0.5"
   gradientTransform="matrix(90.7186 0 0 -26.0619 22027.4004 16466.1621)"
   gradientUnits="userSpaceOnUse">
			<stop
   offset="0"
   style="stop-color:#EBECEC"
   id="stop189" />
			<stop
   offset="1"
   style="stop-color:#F5B2B6"
   id="stop191" />
			<stop
   offset="1"
   style="stop-color:#F5B2B6"
   id="stop193" />
		</radialGradient>
		<path
   class="st19"
   d="M585.7,85.2c-1-0.2-1.8-0.8-2.5-1.4c-0.1,0-0.1,0-0.1-0.1c-1.7-1.4-3.3-3.3-5.1-3.7    c-4.7-0.9-10.1,1.5-14.5,0.9c-6.1-0.8-11.5-3.5-17.4-3.7c-8.4-0.3-21.3-0.2-29.1,0.6c-5.4,0.6-9.1,3.3-14.4,4.4    c-3.5,0.7-4.2,2.1-7.6,2.9v18h90.7V85.2z"
   id="path196" />
		<path
   class="st3"
   d="m 521.2,63.8 c 4.1,24.7 33.7,22.1 37.2,0 C 561.3,44.9 542.93442,35.009855 536.73442,17.009855 530.53442,35.009855 518,44.9 521.2,63.8 Z"
   id="path198"
   sodipodi:nodetypes="cccc"
   style="fill:#fe9500;fill-opacity:1" />
		<path
   class="st12"
   d="m 525.2,70.7 c 3.3,15.3 26.5,13.7 29.2,0 C 556.7,58.9 545.86514,52.692848 537.76514,43.792848 529.66514,53.492848 522.7,59 525.2,70.7 Z"
   id="path200"
   sodipodi:nodetypes="cccc" />
		<path
   class="st8"
   d="M530.1,68.6c0-0.1,10.2-2.2,10.7,8.4c0.2,3.4-0.5,6.9-1.3,9.9c-0.2,0.8-1.2,1-1.3,0c-0.2-3,0.9-5.9,0.8-9    C538.6,67.5,530.3,72,530.1,68.6z"
   id="path202" />
		<path
   class="st13"
   d="M540.6,81.5c-0.2,1.9-0.6,3.7-1,5.3c-0.2,0.8-1.2,1-1.3,0c-0.1-1.8,0.3-3.5,0.5-5.3    C539.4,81.6,540,81.6,540.6,81.5z"
   id="path204" />
		
			<linearGradient
   id="SVGID_16_"
   gradientUnits="userSpaceOnUse"
   x1="25724.9707"
   y1="-10838.4326"
   x2="28929.9707"
   y2="-10838.4326"
   gradientTransform="matrix(2.830532e-02 0 0 -2.830532e-02 -233.2067 -116.0534)">
			<stop
   offset="0"
   style="stop-color:#E73A3F"
   id="stop206" />
			<stop
   offset="0.5216"
   style="stop-color:#B32322"
   id="stop208" />
			<stop
   offset="1"
   style="stop-color:#8E241F"
   id="stop210" />
		</linearGradient>
		<path
   class="st20"
   d="M585.7,81.1c-0.8,0.3-1.6,0.8-2.3,1.2c-0.4,0.3,0.1,2.3-0.3,2.6c-0.4,0.3-1.9-1.2-2.3-1    c-2,1.4-4,2.8-6.3,3.5c-2.2,0.7-5.2-0.8-7.4-0.3c-4.7,1.1-8.5,4.6-13.2,5.1c-4.6,0.5-10.2-2.1-14.8-2.2    c-6.3-0.2-12.9,1.1-19.2-0.1c-4.9-0.9-9.4-4-14.4-5.5c-3.6-1-7.1-2.2-10.6-3.5v206.3c0,4.2,0.5,4.9,3.7,5.9    c29,8.9,56.8,10,84.9-0.6c2.1-0.8,2.1-3.5,2.1-5.9C585.6,205.5,585.7,162.3,585.7,81.1z"
   id="path213" />
		<g
   id="g1275">
			<g
   id="g425">
				<path
   class="st21"
   d="M216.8,420.7c-6.2-7.2-39.4-29.5-48.7-36.3C176.4,396.1,205.9,414.1,216.8,420.7z"
   id="path215" />
				<path
   class="st21"
   d="M42.1,356.3c-3.8,8.7-28.9,39.8-35.8,49.1C10.8,391.8,33.7,365.8,42.1,356.3z"
   id="path217" />
				<path
   class="st21"
   d="M48.3,358.5c-4.2,8.5-30.7,38.5-38,47.4C15.3,392.5,39.4,367.6,48.3,358.5z"
   id="path219" />
				<path
   class="st21"
   d="M52.9,440.8c-5.9-7.4-38-31.2-47-38.5C13.6,414.4,42.3,433.7,52.9,440.8z"
   id="path221" />
				<path
   class="st21"
   d="M59.8,439.5c-6.2-7.2-39.4-29.5-48.7-36.3C19.4,415,48.9,433,59.8,439.5z"
   id="path223" />
				<path
   class="st22"
   d="M196.9,337.1c-3.8,8.7-28.9,39.8-35.8,49.1C165.5,372.5,188.4,346.6,196.9,337.1z"
   id="path225" />
				<path
   class="st23"
   d="M111.2,348.1c-3.8,8.7-28.9,39.8-35.8,49.1C79.8,383.5,102.7,357.6,111.2,348.1z"
   id="path227" />
				<path
   class="st22"
   d="M203.8,338.9c-4.2,8.5-30.7,38.5-38,47.4C170.9,372.9,194.9,348,203.8,338.9z"
   id="path229" />
				<path
   class="st23"
   d="M120,348.9c-4.2,8.5-30.7,38.5-38,47.4C87,382.9,111,358,120,348.9z"
   id="path231" />
				<path
   class="st21"
   d="M141.6,343.3c-3.8,8.7-28.9,39.8-35.8,49.1C110.2,378.8,133.1,352.9,141.6,343.3z"
   id="path233" />
				<path
   class="st21"
   d="M55.2,356.9c-3.8,8.7-28.9,39.8-35.8,49.1C23.8,392.3,46.7,366.4,55.2,356.9z"
   id="path235" />
				<path
   class="st21"
   d="M148.7,343.4c-4.2,8.5-30.7,38.5-38,47.4C115.8,377.4,139.8,352.5,148.7,343.4z"
   id="path237" />
				<path
   class="st21"
   d="M62.4,357c-4.2,8.5-30.7,38.5-38,47.4C29.4,391,53.4,366.1,62.4,357z"
   id="path239" />
				<path
   class="st21"
   d="M155.6,341.2c-3.8,8.7-28.9,39.8-35.8,49.1C124.2,376.6,147.1,350.7,155.6,341.2z"
   id="path241" />
				<path
   class="st23"
   d="M69.2,354.7c-3.8,8.7-28.9,39.8-35.8,49.1C37.8,390.1,60.7,364.2,69.2,354.7z"
   id="path243" />
				<path
   class="st21"
   d="M162.8,341.8c-4.2,8.5-30.7,38.5-38,47.4C129.8,375.8,153.9,351,162.8,341.8z"
   id="path245" />
				<path
   class="st23"
   d="M76.4,355.4c-4.2,8.5-30.7,38.4-37.9,47.4C43.4,389.4,67.5,364.5,76.4,355.4z"
   id="path247" />
				<path
   class="st21"
   d="M169.5,339c-3.8,8.7-28.9,39.8-35.8,49.1C138.2,374.4,161.1,348.5,169.5,339z"
   id="path249" />
				<path
   class="st23"
   d="M83.2,352.5c-3.8,8.7-28.9,39.8-35.8,49.1C51.8,387.9,74.7,362,83.2,352.5z"
   id="path251" />
				<path
   class="st21"
   d="M176.8,340.3c-4.2,8.5-30.7,38.5-37.9,47.4C143.9,374.3,167.9,349.4,176.8,340.3z"
   id="path253" />
				<path
   class="st23"
   d="M91.7,352.8c-4.2,8.5-30.7,38.4-37.9,47.4C58.7,386.8,82.7,361.9,91.7,352.8z"
   id="path255" />
				<path
   class="st21"
   d="M183.5,336.8c-3.8,8.7-28.9,39.8-35.8,49.1C152.2,372.2,175,346.3,183.5,336.8z"
   id="path257" />
				<path
   class="st23"
   d="M97.2,350.3c-3.8,8.7-28.9,39.8-35.8,49.1C65.8,385.7,88.7,359.8,97.2,350.3z"
   id="path259" />
				<path
   class="st22"
   d="M190.9,338.7c-4.2,8.5-30.7,38.5-37.9,47.4C157.9,372.7,182,347.8,190.9,338.7z"
   id="path261" />
				<path
   class="st23"
   d="M105.3,351.2c-4.2,8.5-30.7,38.5-37.9,47.4C72.4,385.2,96.4,360.3,105.3,351.2z"
   id="path263" />
				<path
   class="st21"
   d="M127.6,345.6c-3.8,8.7-28.9,39.8-35.8,49.1C96.2,381,119.1,355,127.6,345.6z"
   id="path265" />
				<path
   class="st21"
   d="M134.6,345c-4.2,8.5-30.7,38.5-37.9,47.4C101.7,379,125.7,354.1,134.6,345z"
   id="path267" />
				<path
   class="st21"
   d="M210.3,425.1c-5.9-7.4-38-31.2-47-38.5C171,398.7,199.7,418,210.3,425.1z"
   id="path269" />
				<path
   class="st21"
   d="M123.3,433.8c-5.9-7.4-38-31.2-47-38.5C84,407.4,112.7,426.7,123.3,433.8z"
   id="path271" />
				<path
   class="st21"
   d="M129.8,429.4c-6.2-7.2-39.4-29.5-48.7-36.3C89.4,404.8,118.9,422.8,129.8,429.4z"
   id="path273" />
				<path
   class="st21"
   d="M153.9,430.7c-5.9-7.4-38-31.2-47-38.5C114.6,404.3,143.3,423.6,153.9,430.7z"
   id="path275" />
				<path
   class="st21"
   d="M68.1,441.4c-5.9-7.4-38-31.2-47-38.5C28.8,415,57.5,434.3,68.1,441.4z"
   id="path277" />
				<path
   class="st24"
   d="M160.8,428.9c-6.2-7.2-39.4-29.5-48.7-36.3C120.4,404.3,149.9,422.3,160.8,428.9z"
   id="path279" />
				<path
   class="st25"
   d="M74.2,439.1c-6.2-7.2-39.4-29.5-48.7-36.3C33.8,414.5,63.3,432.5,74.2,439.1z"
   id="path281" />
				<path
   class="st24"
   d="M168,429.3c-5.9-7.4-38-31.2-47-38.5C128.7,402.9,157.4,422.2,168,429.3z"
   id="path283" />
				<path
   class="st21"
   d="M84.1,442.1c-5.9-7.4-38-31.2-47-38.5C44.8,415.7,73.5,435,84.1,442.1z"
   id="path285" />
				<path
   class="st24"
   d="M174.8,426.8c-6.2-7.2-39.4-29.5-48.7-36.3C134.4,402.2,163.9,420.3,174.8,426.8z"
   id="path287" />
				<path
   class="st21"
   d="M87.8,435.5c-6.2-7.2-39.4-29.5-48.7-36.3C47.4,410.9,76.9,428.9,87.8,435.5z"
   id="path289" />
				<path
   class="st21"
   d="M182.1,427.9c-5.9-7.4-38-31.2-47-38.5C142.8,401.5,171.5,420.8,182.1,427.9z"
   id="path291" />
				<path
   class="st21"
   d="M95.1,436.6c-5.9-7.4-38-31.2-47-38.5C55.8,410.2,84.5,429.5,95.1,436.6z"
   id="path293" />
				<path
   class="st21"
   d="M188.8,424.8c-6.2-7.2-39.4-29.5-48.7-36.3C148.4,400.2,177.9,418.2,188.8,424.8z"
   id="path295" />
				<path
   class="st21"
   d="M101.8,433.4c-6.2-7.2-39.4-29.5-48.7-36.3C61.4,408.8,90.9,426.8,101.8,433.4z"
   id="path297" />
				<path
   class="st21"
   d="M196.2,426.5c-5.9-7.4-38-31.2-47-38.5C156.9,400.1,185.6,419.4,196.2,426.5z"
   id="path299" />
				<path
   class="st21"
   d="M109.2,435.2c-5.9-7.5-38-31.2-47-38.5C69.9,408.8,98.6,428.1,109.2,435.2z"
   id="path301" />
				<path
   class="st21"
   d="M202.8,422.7c-6.2-7.2-39.4-29.5-48.7-36.3C162.4,398.2,191.9,416.2,202.8,422.7z"
   id="path303" />
				<path
   class="st21"
   d="M115.8,431.4c-6.2-7.2-39.4-29.5-48.7-36.3C75.4,406.8,104.9,424.8,115.8,431.4z"
   id="path305" />
				<path
   class="st21"
   d="M139.8,432.1c-5.9-7.4-38-31.2-47-38.5C100.5,405.7,129.2,425,139.8,432.1z"
   id="path307" />
				<path
   class="st21"
   d="M146.8,430.9c-6.2-7.2-39.4-29.5-48.7-36.3C106.3,406.3,135.9,424.3,146.8,430.9z"
   id="path309" />
				
					<linearGradient
   id="SVGID_17_"
   gradientUnits="userSpaceOnUse"
   x1="12245.2607"
   y1="-19808.3555"
   x2="10716.0996"
   y2="-16507.8555"
   gradientTransform="matrix(2.830532e-02 0 0 -2.830532e-02 -233.2067 -116.0534)">
					<stop
   offset="0"
   style="stop-color:#AF9778"
   id="stop311" />
					<stop
   offset="0.5294"
   style="stop-color:#874C20"
   id="stop313" />
					<stop
   offset="1"
   style="stop-color:#6E411D"
   id="stop315" />
				</linearGradient>
				<polygon
   class="st26"
   points="182.6,390 173.6,384.1 121.7,385.7 87.7,391 53.3,393.6 30.2,403 0,398.3 0.7,405.4 31.7,412.2       52.9,400.9 99.9,395.7 128.7,391.2 168.6,389.3     "
   id="polygon318" />
				<path
   class="st21"
   d="M227,295.2c-9-3.1-48.9-5.9-60.3-7.1C179.7,294.1,214.2,294.9,227,295.2z"
   id="path320" />
				<path
   class="st21"
   d="M43.5,326.8c1,9.5-5.2,48.9-6.4,60.4C34.1,373.1,40.9,339.2,43.5,326.8z"
   id="path322" />
				<path
   class="st21"
   d="M49.9,325.6c0.6,9.5-7.3,48.7-9.1,60.1C38.4,371.5,46.8,337.9,49.9,325.6z"
   id="path324" />
				<path
   class="st21"
   d="M95,394.5c-8.8-3.5-48.5-8-59.9-9.8C47.8,391.3,82.3,393.7,95,394.5z"
   id="path326" />
				<path
   class="st21"
   d="M100.4,390c-8.9-3.1-48.8-5.8-60.3-7.1C53.1,388.9,87.7,389.7,100.4,390z"
   id="path328" />
				<path
   class="st22"
   d="M167.9,232.7c1,9.4-5.1,48.9-6.4,60.4C158.4,279.1,165.3,245.2,167.9,232.7z"
   id="path330" />
				<path
   class="st23"
   d="M99.2,285.1c1,9.4-5.2,48.9-6.5,60.4C89.7,331.5,96.6,297.6,99.2,285.1z"
   id="path332" />
				<path
   class="st22"
   d="M174.8,230.8c0.6,9.5-7.3,48.7-9.1,60C163.2,276.7,171.6,243.1,174.8,230.8z"
   id="path334" />
				<path
   class="st23"
   d="M107.2,281.4c0.6,9.5-7.3,48.7-9.1,60C95.6,327.3,104,293.7,107.2,281.4z"
   id="path336" />
				<path
   class="st21"
   d="M123.2,265.8c1,9.4-5.2,48.9-6.5,60.4C113.7,312.2,120.6,278.3,123.2,265.8z"
   id="path338" />
				<path
   class="st21"
   d="M55.1,320.7c1,9.4-5.2,48.9-6.4,60.4C45.7,367.1,52.5,333.2,55.1,320.7z"
   id="path340" />
				<path
   class="st21"
   d="M129.4,262.3c0.6,9.5-7.4,48.7-9.2,60C117.8,308.2,126.2,274.6,129.4,262.3z"
   id="path342" />
				<path
   class="st21"
   d="M61.3,317.2c0.6,9.5-7.3,48.6-9.1,60C49.8,363.1,58.2,329.5,61.3,317.2z"
   id="path344" />
				<path
   class="st21"
   d="M134.2,256.9c1,9.4-5.2,48.9-6.5,60.4C124.7,303.3,131.6,269.4,134.2,256.9z"
   id="path346" />
				<path
   class="st23"
   d="M66.1,311.8c1,9.4-5.2,48.9-6.4,60.4C56.7,358.2,63.5,324.3,66.1,311.8z"
   id="path348" />
				<path
   class="st21"
   d="M140.7,253.9c0.6,9.5-7.3,48.7-9.1,60C129.2,299.8,137.6,266.2,140.7,253.9z"
   id="path350" />
				<path
   class="st23"
   d="M72.7,308.8c0.6,9.5-7.3,48.6-9.1,60C61.2,354.7,69.6,321.2,72.7,308.8z"
   id="path352" />
				<path
   class="st21"
   d="M145.2,248c1,9.5-5.2,48.9-6.5,60.4C135.7,294.4,142.6,260.5,145.2,248z"
   id="path354" />
				<path
   class="st23"
   d="M77.1,302.9c1,9.5-5.1,48.9-6.4,60.4C67.7,349.3,74.6,315.4,77.1,302.9z"
   id="path356" />
				<path
   class="st21"
   d="M152.1,245.5c0.6,9.5-7.4,48.6-9.1,60C140.6,291.4,149,257.9,152.1,245.5z"
   id="path358" />
				<path
   class="st23"
   d="M84.6,298.9c0.6,9.5-7.3,48.6-9.1,60C73.1,344.8,81.5,311.3,84.6,298.9z"
   id="path360" />
				<path
   class="st21"
   d="M156.2,239.1c1,9.4-5.2,48.9-6.5,60.4C146.7,285.5,153.6,251.6,156.2,239.1z"
   id="path362" />
				<path
   class="st23"
   d="M88.2,294c1,9.5-5.2,48.9-6.5,60.4C78.7,340.4,85.6,306.5,88.2,294z"
   id="path364" />
				<path
   class="st22"
   d="M163.5,237.1c0.6,9.5-7.4,48.7-9.1,60.1C152,283,160.4,249.5,163.5,237.1z"
   id="path366" />
				<path
   class="st23"
   d="M95.6,290.7c0.6,9.5-7.3,48.7-9.1,60C84.1,336.6,92.5,303,95.6,290.7z"
   id="path368" />
				<path
   class="st21"
   d="M112.1,274.7c1,9.4-5.2,48.9-6.5,60.4C102.7,321,109.5,287.1,112.1,274.7z"
   id="path370" />
				<path
   class="st21"
   d="M117.9,270.7c0.6,9.5-7.4,48.6-9.2,60C106.4,316.6,114.8,283,117.9,270.7z"
   id="path372" />
				<path
   class="st21"
   d="M223.5,302.2c-8.8-3.5-48.5-8-60-9.8C176.3,299,210.8,301.4,223.5,302.2z"
   id="path374" />
				<path
   class="st21"
   d="M152.5,353.2c-8.8-3.5-48.5-8-59.9-9.8C105.3,350,139.8,352.4,152.5,353.2z"
   id="path376" />
				<path
   class="st21"
   d="M156,346.1c-8.9-3.1-48.8-5.8-60.3-7.1C108.7,345.1,143.3,345.9,156,346.1z"
   id="path378" />
				<path
   class="st21"
   d="M177.5,335.2c-8.8-3.5-48.5-8-59.9-9.8C130.3,332.1,164.8,334.5,177.5,335.2z"
   id="path380" />
				<path
   class="st21"
   d="M108.5,387.4c-8.8-3.5-48.5-8-59.9-9.9C61.3,384.2,95.8,386.6,108.5,387.4z"
   id="path382" />
				<path
   class="st24"
   d="M182.5,330.2c-8.9-3.1-48.8-5.8-60.3-7.1C135.2,329.1,169.8,330,182.5,330.2z"
   id="path384" />
				<path
   class="st25"
   d="M112.7,382.3c-9-3.1-48.9-5.9-60.3-7.1C65.4,381.3,99.9,382.1,112.7,382.3z"
   id="path386" />
				<path
   class="st24"
   d="M189,327c-8.8-3.5-48.5-8-60-9.9C141.8,323.8,176.3,326.2,189,327z"
   id="path388" />
				<path
   class="st21"
   d="M122.7,380c-8.8-3.5-48.5-8-60-9.8C75.5,376.8,110,379.2,122.7,380z"
   id="path390" />
				<path
   class="st24"
   d="M193.6,321.4c-9-3.1-48.9-5.8-60.3-7.1C146.3,320.4,180.9,321.2,193.6,321.4z"
   id="path392" />
				<path
   class="st21"
   d="M122.6,372.4c-9-3.1-48.9-5.8-60.3-7.1C75.3,371.4,109.9,372.2,122.6,372.4z"
   id="path394" />
				<path
   class="st21"
   d="M200.5,318.7c-8.8-3.5-48.5-8-60-9.8C153.3,315.5,187.8,317.9,200.5,318.7z"
   id="path396" />
				<path
   class="st21"
   d="M129.5,369.7c-8.8-3.5-48.5-8-60-9.8C82.3,366.6,116.8,368.9,129.5,369.7z"
   id="path398" />
				<path
   class="st21"
   d="M204.8,312.7c-9-3.1-48.9-5.8-60.3-7.1C157.4,311.6,192,312.5,204.8,312.7z"
   id="path400" />
				<path
   class="st21"
   d="M133.7,363.7c-8.9-3.1-48.9-5.8-60.3-7.1C86.4,362.6,121,363.4,133.7,363.7z"
   id="path402" />
				<path
   class="st21"
   d="M212,310.5c-8.8-3.5-48.5-8-60-9.8C164.8,307.3,199.3,309.7,212,310.5z"
   id="path404" />
				<path
   class="st21"
   d="M141,361.5c-8.8-3.5-48.5-8-59.9-9.9C93.8,358.3,128.3,360.7,141,361.5z"
   id="path406" />
				<path
   class="st21"
   d="M215.9,303.9c-8.9-3.1-48.8-5.8-60.3-7.1C168.6,302.9,203.1,303.7,215.9,303.9z"
   id="path408" />
				<path
   class="st21"
   d="M144.9,354.9c-9-3.1-48.9-5.8-60.3-7.1C97.5,353.8,132.1,354.7,144.9,354.9z"
   id="path410" />
				<path
   class="st21"
   d="M166,343.5c-8.8-3.5-48.5-8-59.9-9.8C118.8,340.3,153.3,342.7,166,343.5z"
   id="path412" />
				<path
   class="st21"
   d="M171.4,339c-9-3.1-48.9-5.8-60.3-7.1C124.1,337.9,158.7,338.8,171.4,339z"
   id="path414" />
				
					<linearGradient
   id="SVGID_18_"
   gradientUnits="userSpaceOnUse"
   x1="14676.8389"
   y1="-17903.6504"
   x2="9257.4453"
   y2="-14088.3506"
   gradientTransform="matrix(2.830532e-02 0 0 -2.830532e-02 -233.2067 -116.0534)">
					<stop
   offset="0"
   style="stop-color:#AF9778"
   id="stop416" />
					<stop
   offset="0.5294"
   style="stop-color:#874C20"
   id="stop418" />
					<stop
   offset="1"
   style="stop-color:#6E411D"
   id="stop420" />
				</linearGradient>
				<polygon
   class="st27"
   points="181.9,285.7 171.2,285.1 127.1,312.4 100.3,334 71.8,353.4 56.5,373.1 28,384.2 32.2,390       62.4,380.3 75.1,360 113.2,331.9 135.9,313.6 169.5,292     "
   id="polygon423" />
			</g>
			<g
   id="g637">
				<path
   class="st21"
   d="M670,420.7c-6.2-7.2-39.4-29.5-48.7-36.3C629.5,396.1,659.1,414.1,670,420.7z"
   id="path427" />
				<path
   class="st21"
   d="M495.3,356.3c-3.8,8.7-28.9,39.8-35.8,49.1C463.9,391.8,486.8,365.8,495.3,356.3z"
   id="path429" />
				<path
   class="st21"
   d="M501.4,358.5c-4.2,8.5-30.7,38.5-37.9,47.4C468.5,392.5,492.5,367.6,501.4,358.5z"
   id="path431" />
				<path
   class="st21"
   d="M506,440.8c-5.9-7.4-38-31.2-47-38.5C466.7,414.4,495.4,433.7,506,440.8z"
   id="path433" />
				<path
   class="st21"
   d="M512.9,439.5c-6.2-7.2-39.4-29.5-48.7-36.3C472.5,415,502,433,512.9,439.5z"
   id="path435" />
				<path
   class="st22"
   d="M650,337.1c-3.8,8.7-28.9,39.8-35.8,49.1C618.6,372.5,641.5,346.6,650,337.1z"
   id="path437" />
				<path
   class="st23"
   d="M564.3,348.1c-3.8,8.7-28.9,39.8-35.8,49.1C532.9,383.5,555.8,357.6,564.3,348.1z"
   id="path439" />
				<path
   class="st22"
   d="M656.9,338.9c-4.2,8.5-30.7,38.5-38,47.4C624,372.9,648.1,348,656.9,338.9z"
   id="path441" />
				<path
   class="st23"
   d="M573.1,348.9c-4.2,8.5-30.7,38.5-38,47.4C540.2,382.9,564.2,358,573.1,348.9z"
   id="path443" />
				<path
   class="st21"
   d="M594.7,343.3c-3.8,8.7-28.9,39.8-35.8,49.1C563.3,378.8,586.2,352.9,594.7,343.3z"
   id="path445" />
				<path
   class="st21"
   d="M508.4,356.9c-3.8,8.7-28.9,39.8-35.8,49.1C477,392.3,499.9,366.4,508.4,356.9z"
   id="path447" />
				<path
   class="st21"
   d="M601.8,343.4c-4.2,8.5-30.7,38.5-37.9,47.4C568.9,377.4,592.9,352.5,601.8,343.4z"
   id="path449" />
				<path
   class="st21"
   d="M515.5,357c-4.2,8.5-30.7,38.5-38,47.4C482.5,391,506.6,366.1,515.5,357z"
   id="path451" />
				<path
   class="st21"
   d="M608.7,341.2c-3.8,8.7-28.9,39.8-35.8,49.1C577.3,376.6,600.2,350.7,608.7,341.2z"
   id="path453" />
				<path
   class="st23"
   d="M522.3,354.7c-3.8,8.7-28.9,39.8-35.8,49.1C491,390.1,513.9,364.2,522.3,354.7z"
   id="path455" />
				<path
   class="st21"
   d="M615.9,341.8c-4.2,8.5-30.7,38.5-38,47.4C583,375.8,607,351,615.9,341.8z"
   id="path457" />
				<path
   class="st23"
   d="M529.5,355.4c-4.2,8.5-30.7,38.4-37.9,47.4C496.6,389.4,520.6,364.5,529.5,355.4z"
   id="path459" />
				<path
   class="st21"
   d="M622.7,339c-3.8,8.7-28.9,39.8-35.8,49.1C591.3,374.4,614.2,348.5,622.7,339z"
   id="path461" />
				<path
   class="st23"
   d="M536.3,352.5c-3.8,8.7-28.9,39.8-35.8,49.1C504.9,387.9,527.8,362,536.3,352.5z"
   id="path463" />
				<path
   class="st21"
   d="M630,340.3c-4.2,8.5-30.7,38.5-37.9,47.4C597,374.3,621.1,349.4,630,340.3z"
   id="path465" />
				<path
   class="st23"
   d="M544.8,352.8c-4.2,8.5-30.7,38.4-37.9,47.4C511.8,386.8,535.9,361.9,544.8,352.8z"
   id="path467" />
				<path
   class="st21"
   d="M636.7,336.8c-3.8,8.7-28.9,39.8-35.8,49.1C605.3,372.2,628.2,346.3,636.7,336.8z"
   id="path469" />
				<path
   class="st23"
   d="M550.3,350.3c-3.8,8.7-28.9,39.8-35.8,49.1C518.9,385.7,541.8,359.8,550.3,350.3z"
   id="path471" />
				<path
   class="st22"
   d="M644,338.7c-4.2,8.5-30.7,38.5-37.9,47.4C611.1,372.7,635.1,347.8,644,338.7z"
   id="path473" />
				<path
   class="st23"
   d="M558.5,351.2c-4.2,8.5-30.7,38.5-37.9,47.4C525.5,385.2,549.6,360.3,558.5,351.2z"
   id="path475" />
				<path
   class="st21"
   d="M580.7,345.6c-3.8,8.7-28.9,39.8-35.8,49.1C549.3,381,572.2,355,580.7,345.6z"
   id="path477" />
				<path
   class="st21"
   d="M587.8,345c-4.2,8.5-30.7,38.5-37.9,47.4C554.8,379,578.9,354.1,587.8,345z"
   id="path479" />
				<path
   class="st21"
   d="M663.4,425.1c-5.9-7.4-38-31.2-47-38.5C624.1,398.7,652.8,418,663.4,425.1z"
   id="path481" />
				<path
   class="st21"
   d="M576.4,433.8c-5.9-7.4-38-31.2-47-38.5C537.1,407.4,565.8,426.7,576.4,433.8z"
   id="path483" />
				<path
   class="st21"
   d="M583,429.4c-6.2-7.2-39.4-29.5-48.7-36.3C542.5,404.8,572.1,422.8,583,429.4z"
   id="path485" />
				<path
   class="st21"
   d="M607.1,430.7c-5.9-7.4-38-31.2-47-38.5C567.8,404.3,596.4,423.6,607.1,430.7z"
   id="path487" />
				<path
   class="st21"
   d="M521.3,441.4c-5.9-7.4-38-31.2-47-38.5C482,415,510.7,434.3,521.3,441.4z"
   id="path489" />
				<path
   class="st24"
   d="M613.9,428.9c-6.2-7.2-39.4-29.5-48.7-36.3C573.5,404.3,603,422.3,613.9,428.9z"
   id="path491" />
				<path
   class="st25"
   d="M527.4,439.1c-6.2-7.2-39.4-29.5-48.7-36.3C486.9,414.5,516.5,432.5,527.4,439.1z"
   id="path493" />
				<path
   class="st24"
   d="M621.2,429.3c-5.9-7.4-38-31.2-47-38.5C581.9,402.9,610.5,422.2,621.2,429.3z"
   id="path495" />
				<path
   class="st21"
   d="M537.2,442.1c-5.9-7.4-38-31.2-47-38.5C497.9,415.7,526.6,435,537.2,442.1z"
   id="path497" />
				<path
   class="st24"
   d="M628,426.8c-6.2-7.2-39.4-29.5-48.7-36.3C587.5,402.2,617,420.3,628,426.8z"
   id="path499" />
				<path
   class="st21"
   d="M541,435.5c-6.2-7.2-39.4-29.5-48.7-36.3C500.5,410.9,530,428.9,541,435.5z"
   id="path501" />
				<path
   class="st21"
   d="M635.2,427.9c-5.9-7.4-38-31.2-47-38.5C595.9,401.5,624.6,420.8,635.2,427.9z"
   id="path503" />
				<path
   class="st21"
   d="M548.2,436.6c-5.9-7.4-38-31.2-47-38.5C509,410.2,537.7,429.5,548.2,436.6z"
   id="path505" />
				<path
   class="st21"
   d="M642,424.8c-6.2-7.2-39.4-29.5-48.7-36.3C601.5,400.2,631,418.2,642,424.8z"
   id="path507" />
				<path
   class="st21"
   d="M555,433.4c-6.2-7.2-39.4-29.5-48.7-36.3C514.5,408.8,544.1,426.8,555,433.4z"
   id="path509" />
				<path
   class="st21"
   d="M649.3,426.5c-5.9-7.4-38-31.2-47-38.5C610,400.1,638.7,419.4,649.3,426.5z"
   id="path511" />
				<path
   class="st21"
   d="M562.3,435.2c-5.9-7.5-38-31.2-47-38.5C523.1,408.8,551.7,428.1,562.3,435.2z"
   id="path513" />
				<path
   class="st21"
   d="M656,422.7c-6.2-7.2-39.4-29.5-48.7-36.3C615.5,398.2,645,416.2,656,422.7z"
   id="path515" />
				<path
   class="st21"
   d="M569,431.4c-6.2-7.2-39.4-29.5-48.7-36.3C528.5,406.8,558.1,424.8,569,431.4z"
   id="path517" />
				<path
   class="st21"
   d="M593,432.1c-5.9-7.4-38-31.2-47-38.5C553.7,405.7,582.4,425,593,432.1z"
   id="path519" />
				<path
   class="st21"
   d="M599.9,430.9c-6.2-7.2-39.4-29.5-48.7-36.3C559.5,406.3,589,424.3,599.9,430.9z"
   id="path521" />
				
					<linearGradient
   id="SVGID_19_"
   gradientUnits="userSpaceOnUse"
   x1="28254.2266"
   y1="-19808.3457"
   x2="26725.125"
   y2="-16507.8457"
   gradientTransform="matrix(2.830532e-02 0 0 -2.830532e-02 -233.2067 -116.0534)">
					<stop
   offset="0"
   style="stop-color:#AF9778"
   id="stop523" />
					<stop
   offset="0.5294"
   style="stop-color:#874C20"
   id="stop525" />
					<stop
   offset="1"
   style="stop-color:#6E411D"
   id="stop527" />
				</linearGradient>
				<polygon
   class="st28"
   points="635.7,390 626.7,384.1 574.9,385.7 540.9,391 506.4,393.6 483.4,403 453.1,398.3 453.9,405.4       484.8,412.2 506,400.9 553.1,395.7 581.9,391.2 621.8,389.3     "
   id="polygon530" />
				<path
   class="st21"
   d="M680.1,295.2c-9-3.1-48.9-5.9-60.3-7.1C632.8,294.1,667.4,294.9,680.1,295.2z"
   id="path532" />
				<path
   class="st21"
   d="M496.7,326.8c1,9.5-5.2,48.9-6.4,60.4C487.2,373.1,494.1,339.2,496.7,326.8z"
   id="path534" />
				<path
   class="st21"
   d="M503,325.6c0.6,9.5-7.3,48.7-9.1,60.1C491.5,371.5,499.9,337.9,503,325.6z"
   id="path536" />
				<path
   class="st21"
   d="M548.1,394.5c-8.8-3.5-48.5-8-59.9-9.8C500.9,391.3,535.4,393.7,548.1,394.5z"
   id="path538" />
				<path
   class="st21"
   d="M553.5,390c-8.9-3.1-48.8-5.8-60.3-7.1C506.2,388.9,540.8,389.7,553.5,390z"
   id="path540" />
				<path
   class="st22"
   d="M621,232.7c1,9.4-5.1,48.9-6.4,60.4C611.6,279.1,618.4,245.2,621,232.7z"
   id="path542" />
				<path
   class="st23"
   d="M552.3,285.1c1,9.4-5.2,48.9-6.5,60.4C542.8,331.5,549.7,297.6,552.3,285.1z"
   id="path544" />
				<path
   class="st22"
   d="M627.9,230.8c0.6,9.5-7.3,48.7-9.1,60C616.4,276.7,624.8,243.1,627.9,230.8z"
   id="path546" />
				<path
   class="st23"
   d="M560.3,281.4c0.6,9.5-7.3,48.7-9.1,60C548.8,327.3,557.2,293.7,560.3,281.4z"
   id="path548" />
				<path
   class="st21"
   d="M576.3,265.8c1,9.4-5.2,48.9-6.5,60.4C566.8,312.2,573.7,278.3,576.3,265.8z"
   id="path550" />
				<path
   class="st21"
   d="M508.3,320.7c1,9.4-5.2,48.9-6.4,60.4C498.8,367.1,505.7,333.2,508.3,320.7z"
   id="path552" />
				<path
   class="st21"
   d="M582.5,262.3c0.6,9.5-7.4,48.7-9.2,60C570.9,308.2,579.3,274.6,582.5,262.3z"
   id="path554" />
				<path
   class="st21"
   d="M514.4,317.2c0.6,9.5-7.3,48.6-9.1,60C502.9,363.1,511.3,329.5,514.4,317.2z"
   id="path556" />
				<path
   class="st21"
   d="M587.3,256.9c1,9.4-5.2,48.9-6.5,60.4C577.8,303.3,584.7,269.4,587.3,256.9z"
   id="path558" />
				<path
   class="st23"
   d="M519.3,311.8c1,9.4-5.2,48.9-6.4,60.4C509.8,358.2,516.7,324.3,519.3,311.8z"
   id="path560" />
				<path
   class="st21"
   d="M593.9,253.9c0.6,9.5-7.3,48.7-9.1,60C582.4,299.8,590.7,266.2,593.9,253.9z"
   id="path562" />
				<path
   class="st23"
   d="M525.9,308.8c0.6,9.5-7.3,48.6-9.1,60C514.3,354.7,522.7,321.2,525.9,308.8z"
   id="path564" />
				<path
   class="st21"
   d="M598.3,248c1,9.5-5.2,48.9-6.5,60.4C588.8,294.4,595.7,260.5,598.3,248z"
   id="path566" />
				<path
   class="st23"
   d="M530.3,302.9c1,9.5-5.1,48.9-6.4,60.4C520.8,349.3,527.7,315.4,530.3,302.9z"
   id="path568" />
				<path
   class="st21"
   d="M605.3,245.5c0.6,9.5-7.4,48.6-9.1,60C593.7,291.4,602.1,257.9,605.3,245.5z"
   id="path570" />
				<path
   class="st23"
   d="M537.7,298.9c0.6,9.5-7.3,48.6-9.1,60C526.2,344.8,534.6,311.3,537.7,298.9z"
   id="path572" />
				<path
   class="st21"
   d="M609.3,239.1c1,9.4-5.2,48.9-6.5,60.4C599.8,285.5,606.7,251.6,609.3,239.1z"
   id="path574" />
				<path
   class="st23"
   d="M541.3,294c1,9.5-5.2,48.9-6.5,60.4C531.8,340.4,538.7,306.5,541.3,294z"
   id="path576" />
				<path
   class="st22"
   d="M616.7,237.1c0.6,9.5-7.4,48.7-9.1,60.1C605.1,283,613.5,249.5,616.7,237.1z"
   id="path578" />
				<path
   class="st23"
   d="M548.8,290.7c0.6,9.5-7.3,48.7-9.1,60C537.3,336.6,545.7,303,548.8,290.7z"
   id="path580" />
				<path
   class="st21"
   d="M565.3,274.7c1,9.4-5.2,48.9-6.5,60.4C555.8,321,562.7,287.1,565.3,274.7z"
   id="path582" />
				<path
   class="st21"
   d="M571.1,270.7c0.6,9.5-7.4,48.6-9.2,60C559.5,316.6,567.9,283,571.1,270.7z"
   id="path584" />
				<path
   class="st21"
   d="M676.6,302.2c-8.8-3.5-48.5-8-60-9.8C629.4,299,663.9,301.4,676.6,302.2z"
   id="path586" />
				<path
   class="st21"
   d="M605.6,353.2c-8.8-3.5-48.5-8-59.9-9.8C558.4,350,592.9,352.4,605.6,353.2z"
   id="path588" />
				<path
   class="st21"
   d="M609.1,346.1c-8.9-3.1-48.8-5.8-60.3-7.1C561.8,345.1,596.4,345.9,609.1,346.1z"
   id="path590" />
				<path
   class="st21"
   d="M630.6,335.2c-8.8-3.5-48.5-8-59.9-9.8C583.4,332.1,617.9,334.5,630.6,335.2z"
   id="path592" />
				<path
   class="st21"
   d="M561.7,387.4c-8.8-3.5-48.5-8-59.9-9.9C514.4,384.2,549,386.6,561.7,387.4z"
   id="path594" />
				<path
   class="st24"
   d="M635.7,330.2c-8.9-3.1-48.8-5.8-60.3-7.1C588.4,329.1,622.9,330,635.7,330.2z"
   id="path596" />
				<path
   class="st25"
   d="M565.8,382.3c-9-3.1-48.9-5.9-60.3-7.1C518.5,381.3,553.1,382.1,565.8,382.3z"
   id="path598" />
				<path
   class="st24"
   d="M642.1,327c-8.8-3.5-48.5-8-59.9-9.9C594.9,323.8,629.4,326.2,642.1,327z"
   id="path600" />
				<path
   class="st21"
   d="M575.8,380c-8.8-3.5-48.5-8-60-9.8C528.6,376.8,563.1,379.2,575.8,380z"
   id="path602" />
				<path
   class="st24"
   d="M646.8,321.4c-9-3.1-48.9-5.8-60.3-7.1C599.5,320.4,634,321.2,646.8,321.4z"
   id="path604" />
				<path
   class="st21"
   d="M575.8,372.4c-8.9-3.1-48.8-5.8-60.3-7.1C528.5,371.4,563,372.2,575.8,372.4z"
   id="path606" />
				<path
   class="st21"
   d="M653.7,318.7c-8.8-3.5-48.5-8-60-9.8C606.4,315.5,640.9,317.9,653.7,318.7z"
   id="path608" />
				<path
   class="st21"
   d="M582.6,369.7c-8.8-3.5-48.5-8-60-9.8C535.4,366.6,569.9,368.9,582.6,369.7z"
   id="path610" />
				<path
   class="st21"
   d="M657.9,312.7c-9-3.1-48.9-5.8-60.3-7.1C610.6,311.6,645.2,312.5,657.9,312.7z"
   id="path612" />
				<path
   class="st21"
   d="M586.9,363.7c-9-3.1-48.9-5.8-60.3-7.1C539.6,362.6,574.1,363.4,586.9,363.7z"
   id="path614" />
				<path
   class="st21"
   d="M665.1,310.5c-8.8-3.5-48.5-8-60-9.8C617.9,307.3,652.4,309.7,665.1,310.5z"
   id="path616" />
				<path
   class="st21"
   d="M594.1,361.5c-8.8-3.5-48.5-8-59.9-9.9C546.9,358.3,581.4,360.7,594.1,361.5z"
   id="path618" />
				<path
   class="st21"
   d="M669,303.9c-9-3.1-48.8-5.8-60.3-7.1C621.7,302.9,656.3,303.7,669,303.9z"
   id="path620" />
				<path
   class="st21"
   d="M598,354.9c-9-3.1-48.9-5.8-60.3-7.1C550.7,353.8,585.3,354.7,598,354.9z"
   id="path622" />
				<path
   class="st21"
   d="M619.2,343.5c-8.8-3.5-48.5-8-59.9-9.8C571.9,340.3,606.4,342.7,619.2,343.5z"
   id="path624" />
				<path
   class="st21"
   d="M624.6,339c-9-3.1-48.9-5.8-60.3-7.1C577.2,337.9,611.8,338.8,624.6,339z"
   id="path626" />
				
					<linearGradient
   id="SVGID_20_"
   gradientUnits="userSpaceOnUse"
   x1="30685.7871"
   y1="-17903.6113"
   x2="25266.3867"
   y2="-14088.3115"
   gradientTransform="matrix(2.830532e-02 0 0 -2.830532e-02 -233.2067 -116.0534)">
					<stop
   offset="0"
   style="stop-color:#AF9778"
   id="stop628" />
					<stop
   offset="0.5294"
   style="stop-color:#874C20"
   id="stop630" />
					<stop
   offset="1"
   style="stop-color:#6E411D"
   id="stop632" />
				</linearGradient>
				<polygon
   class="st29"
   points="635.1,285.7 624.4,285.1 580.3,312.4 553.5,334 524.9,353.4 509.7,373.1 481.1,384.2 485.4,390       515.5,380.3 528.2,360 566.4,331.9 589.1,313.6 622.7,292     "
   id="polygon635" />
			</g>
			<g
   id="g849">
				<path
   class="st21"
   d="M538.2,308.8c-6.7,7.2-42.5,29.5-52.6,36.3C494.5,333.4,526.4,315.4,538.2,308.8z"
   id="path639" />
				<path
   class="st21"
   d="M349.4,373.2c-4.1-8.7-31.2-39.8-38.7-49.1C315.5,337.7,340.3,363.6,349.4,373.2z"
   id="path641" />
				<path
   class="st21"
   d="M356.1,371c-4.6-8.5-33.1-38.5-41-47.4C320.4,337,346.4,361.9,356.1,371z"
   id="path643" />
				<path
   class="st21"
   d="M361,288.7c-6.4,7.4-41.1,31.2-50.8,38.5C318.5,315.1,349.5,295.8,361,288.7z"
   id="path645" />
				<path
   class="st21"
   d="M368.5,290c-6.7,7.2-42.5,29.5-52.6,36.3C324.8,314.6,356.7,296.6,368.5,290z"
   id="path647" />
				<path
   class="st22"
   d="M516.6,392.4c-4.1-8.7-31.2-39.8-38.7-49.1C482.7,357,507.4,382.9,516.6,392.4z"
   id="path649" />
				<path
   class="st23"
   d="M424,381.4c-4.1-8.7-31.2-39.8-38.7-49.1C390.1,345.9,414.8,371.9,424,381.4z"
   id="path651" />
				<path
   class="st22"
   d="M524.1,390.6c-4.6-8.5-33.1-38.5-41-47.4C488.5,356.6,514.5,381.5,524.1,390.6z"
   id="path653" />
				<path
   class="st23"
   d="M433.5,380.7c-4.6-8.5-33.1-38.5-41-47.4C397.9,346.7,423.9,371.5,433.5,380.7z"
   id="path655" />
				<path
   class="st21"
   d="M456.9,386.1c-4.1-8.7-31.2-39.8-38.7-49.1C423,350.7,447.7,376.7,456.9,386.1z"
   id="path657" />
				<path
   class="st21"
   d="M363.6,372.6c-4.1-8.7-31.2-39.8-38.7-49.1C329.6,337.2,354.4,363.1,363.6,372.6z"
   id="path659" />
				<path
   class="st21"
   d="M464.6,386.1c-4.6-8.5-33.1-38.5-41-47.4C429,352.1,455,377,464.6,386.1z"
   id="path661" />
				<path
   class="st21"
   d="M371.3,372.6c-4.6-8.5-33.1-38.5-41-47.4C335.6,338.6,361.6,363.4,371.3,372.6z"
   id="path663" />
				<path
   class="st21"
   d="M472,388.4c-4.1-8.7-31.2-39.8-38.7-49.1C438.1,352.9,462.8,378.8,472,388.4z"
   id="path665" />
				<path
   class="st23"
   d="M378.7,374.8c-4.1-8.7-31.2-39.8-38.7-49.1C344.8,339.4,369.5,365.3,378.7,374.8z"
   id="path667" />
				<path
   class="st21"
   d="M479.8,387.6c-4.6-8.5-33.2-38.4-41-47.4C444.2,353.6,470.2,378.5,479.8,387.6z"
   id="path669" />
				<path
   class="st23"
   d="M386.5,374.1c-4.6-8.5-33.1-38.5-41-47.4C350.8,340.1,376.8,365,386.5,374.1z"
   id="path671" />
				<path
   class="st21"
   d="M487.1,390.5c-4.1-8.7-31.2-39.8-38.6-49.1C453.2,355.1,477.9,381,487.1,390.5z"
   id="path673" />
				<path
   class="st23"
   d="M393.8,377c-4.2-8.7-31.2-39.8-38.7-49.1C359.9,341.6,384.6,367.5,393.8,377z"
   id="path675" />
				<path
   class="st21"
   d="M494.9,389.2c-4.5-8.5-33.1-38.4-41-47.4C459.4,355.2,485.4,380.1,494.9,389.2z"
   id="path677" />
				<path
   class="st23"
   d="M402.9,376.7c-4.6-8.5-33.2-38.5-41-47.4C367.3,342.8,393.3,367.6,402.9,376.7z"
   id="path679" />
				<path
   class="st21"
   d="M502.2,392.7c-4.1-8.7-31.2-39.8-38.6-49.1C468.3,357.3,493,383.2,502.2,392.7z"
   id="path681" />
				<path
   class="st23"
   d="M408.9,379.2c-4.1-8.7-31.2-39.8-38.6-49.1C375,343.8,399.7,369.7,408.9,379.2z"
   id="path683" />
				<path
   class="st22"
   d="M510.2,390.8c-4.6-8.5-33.1-38.5-41-47.4C474.6,356.8,500.6,381.6,510.2,390.8z"
   id="path685" />
				<path
   class="st23"
   d="M417.7,378.3c-4.6-8.5-33.1-38.4-41-47.4C382.1,344.3,408.1,369.2,417.7,378.3z"
   id="path687" />
				<path
   class="st21"
   d="M441.8,384c-4.1-8.7-31.2-39.8-38.7-49.1C407.9,348.6,432.6,374.5,441.8,384z"
   id="path689" />
				<path
   class="st21"
   d="M449.3,384.5c-4.5-8.5-33.1-38.5-41-47.4C413.8,350.5,439.8,375.4,449.3,384.5z"
   id="path691" />
				<path
   class="st21"
   d="M531.1,304.4c-6.4,7.4-41.1,31.2-50.8,38.5C488.6,330.8,519.6,311.5,531.1,304.4z"
   id="path693" />
				<path
   class="st21"
   d="M437.1,295.8c-6.4,7.4-41.1,31.2-50.8,38.5C394.6,322.1,425.7,302.8,437.1,295.8z"
   id="path695" />
				<path
   class="st21"
   d="M444.2,300.1c-6.7,7.2-42.6,29.5-52.6,36.3C400.5,324.7,432.4,306.7,444.2,300.1z"
   id="path697" />
				<path
   class="st21"
   d="M470.2,298.8c-6.4,7.4-41.1,31.2-50.8,38.5C427.8,325.2,458.7,305.8,470.2,298.8z"
   id="path699" />
				<path
   class="st21"
   d="M377.5,288.1c-6.4,7.4-41,31.2-50.8,38.5C335,314.5,366,295.2,377.5,288.1z"
   id="path701" />
				<path
   class="st24"
   d="M477.7,300.7c-6.7,7.2-42.6,29.5-52.6,36.3C433.9,325.2,465.8,307.2,477.7,300.7z"
   id="path703" />
				<path
   class="st25"
   d="M384.1,290.4c-6.7,7.2-42.6,29.5-52.6,36.3C340.4,315,372.3,297,384.1,290.4z"
   id="path705" />
				<path
   class="st24"
   d="M485.4,300.2c-6.4,7.4-41.1,31.2-50.8,38.5C443,326.6,474,307.3,485.4,300.2z"
   id="path707" />
				<path
   class="st21"
   d="M394.7,287.4c-6.4,7.5-41.1,31.2-50.8,38.5C352.3,313.8,383.3,294.5,394.7,287.4z"
   id="path709" />
				<path
   class="st24"
   d="M492.8,302.7c-6.7,7.2-42.5,29.5-52.6,36.3C449.1,327.3,481,309.3,492.8,302.7z"
   id="path711" />
				<path
   class="st21"
   d="M398.8,294c-6.7,7.2-42.6,29.5-52.6,36.3C355.1,318.6,387,300.6,398.8,294z"
   id="path713" />
				<path
   class="st21"
   d="M500.7,301.6c-6.4,7.4-41.1,31.2-50.8,38.5C458.2,328,489.2,308.7,500.7,301.6z"
   id="path715" />
				<path
   class="st21"
   d="M406.7,293c-6.4,7.4-41.1,31.2-50.8,38.5C364.2,319.3,395.2,300,406.7,293z"
   id="path717" />
				<path
   class="st21"
   d="M507.9,304.7c-6.7,7.2-42.6,29.5-52.6,36.3C464.2,329.3,496.1,311.3,507.9,304.7z"
   id="path719" />
				<path
   class="st21"
   d="M413.9,296.1c-6.7,7.2-42.5,29.5-52.6,36.3C370.2,320.6,402.1,302.6,413.9,296.1z"
   id="path721" />
				<path
   class="st21"
   d="M515.9,303c-6.3,7.4-41.1,31.2-50.8,38.5C473.4,329.4,504.4,310.1,515.9,303z"
   id="path723" />
				<path
   class="st21"
   d="M421.9,294.3c-6.4,7.4-41.1,31.2-50.8,38.5C379.4,320.7,410.4,301.4,421.9,294.3z"
   id="path725" />
				<path
   class="st21"
   d="M523.1,306.7c-6.7,7.2-42.6,29.5-52.6,36.3C479.4,331.3,511.3,313.3,523.1,306.7z"
   id="path727" />
				<path
   class="st21"
   d="M429.1,298.1c-6.7,7.2-42.6,29.5-52.6,36.3C385.3,322.7,417.3,304.7,429.1,298.1z"
   id="path729" />
				<path
   class="st21"
   d="M455,297.4c-6.3,7.4-41,31.2-50.8,38.5C412.5,323.8,443.5,304.5,455,297.4z"
   id="path731" />
				<path
   class="st21"
   d="M462.5,298.6c-6.7,7.2-42.6,29.5-52.6,36.3C418.8,323.2,450.7,305.2,462.5,298.6z"
   id="path733" />
				
					<linearGradient
   id="SVGID_21_"
   gradientUnits="userSpaceOnUse"
   x1="23316.4707"
   y1="-14138.6602"
   x2="21637.5703"
   y2="-17492.3613"
   gradientTransform="matrix(2.830532e-02 0 0 -2.830532e-02 -233.2067 -116.0534)">
					<stop
   offset="0"
   style="stop-color:#AF9778"
   id="stop735" />
					<stop
   offset="0.5294"
   style="stop-color:#874C20"
   id="stop737" />
					<stop
   offset="1"
   style="stop-color:#6E411D"
   id="stop739" />
				</linearGradient>
				<polygon
   class="st30"
   points="501.1,339.6 491.5,345.4 435.4,343.8 398.7,338.4 361.5,335.9 336.6,326.5 303.9,331.2       304.7,324.1 338.1,317.3 361,328.6 411.9,333.8 443,338.3 486.1,340.3     "
   id="polygon742" />
				<path
   class="st21"
   d="M549.2,434.3c-9.7,3.1-52.8,5.8-65.2,7.1C498,435.4,535.4,434.6,549.2,434.3z"
   id="path744" />
				<path
   class="st21"
   d="M350.9,402.7c1.1-9.4-5.6-48.9-7-60.4C340.7,356.4,348.1,390.3,350.9,402.7z"
   id="path746" />
				<path
   class="st21"
   d="M357.8,403.9c0.7-9.5-7.9-48.6-9.9-60C345.4,358,354.4,391.6,357.8,403.9z"
   id="path748" />
				<path
   class="st21"
   d="M406.5,335c-9.5,3.5-52.4,8-64.8,9.8C355.5,338.2,392.8,335.8,406.5,335z"
   id="path750" />
				<path
   class="st21"
   d="M412.4,339.5c-9.7,3.1-52.8,5.9-65.2,7.1C361.3,340.6,398.6,339.8,412.4,339.5z"
   id="path752" />
				<path
   class="st22"
   d="M485.3,496.8c1.1-9.4-5.5-48.9-7-60.4C475,450.4,482.5,484.3,485.3,496.8z"
   id="path754" />
				<path
   class="st23"
   d="M411,444.4c1.1-9.4-5.6-48.9-7-60.4C400.8,398,408.2,431.9,411,444.4z"
   id="path756" />
				<path
   class="st22"
   d="M492.7,498.7c0.7-9.5-7.9-48.6-9.9-60C480.3,452.8,489.3,486.3,492.7,498.7z"
   id="path758" />
				<path
   class="st23"
   d="M419.7,448.1c0.7-9.5-7.9-48.7-9.9-60.1C407.2,402.2,416.3,435.8,419.7,448.1z"
   id="path760" />
				<path
   class="st21"
   d="M436.9,463.7c1.1-9.5-5.5-48.9-7-60.4C426.7,417.3,434.1,451.2,436.9,463.7z"
   id="path762" />
				<path
   class="st21"
   d="M363.4,408.8c1.1-9.5-5.5-48.9-6.9-60.4C353.2,362.5,360.6,396.3,363.4,408.8z"
   id="path764" />
				<path
   class="st21"
   d="M443.7,467.2c0.6-9.5-8-48.6-9.9-60C431.2,421.3,440.2,454.9,443.7,467.2z"
   id="path766" />
				<path
   class="st21"
   d="M370.1,412.3c0.7-9.5-7.9-48.6-9.9-60C357.7,366.4,366.7,400,370.1,412.3z"
   id="path768" />
				<path
   class="st21"
   d="M448.9,472.6c1.1-9.4-5.6-48.9-7-60.4C438.6,426.2,446.1,460.1,448.9,472.6z"
   id="path770" />
				<path
   class="st23"
   d="M375.4,417.7c1.1-9.4-5.6-48.9-7-60.4C365.1,371.3,372.6,405.2,375.4,417.7z"
   id="path772" />
				<path
   class="st21"
   d="M455.9,475.6c0.7-9.5-7.9-48.6-9.9-60C443.5,429.7,452.5,463.3,455.9,475.6z"
   id="path774" />
				<path
   class="st23"
   d="M382.5,420.7c0.7-9.5-7.9-48.7-9.9-60C370,374.8,379.1,408.4,382.5,420.7z"
   id="path776" />
				<path
   class="st21"
   d="M460.8,481.5c1.1-9.4-5.6-48.9-7-60.4C450.5,435.1,458,469,460.8,481.5z"
   id="path778" />
				<path
   class="st23"
   d="M387.2,426.6c1.1-9.4-5.6-48.9-7-60.4C377,380.2,384.4,414.1,387.2,426.6z"
   id="path780" />
				<path
   class="st21"
   d="M468.3,484c0.7-9.5-8-48.7-9.9-60.1C455.8,438.1,464.9,471.7,468.3,484z"
   id="path782" />
				<path
   class="st23"
   d="M395.3,430.6c0.7-9.5-7.9-48.6-9.9-60C382.8,384.7,391.9,418.2,395.3,430.6z"
   id="path784" />
				<path
   class="st21"
   d="M472.6,490.4c1.1-9.4-5.5-48.9-7-60.4C462.4,444,469.8,477.9,472.6,490.4z"
   id="path786" />
				<path
   class="st23"
   d="M399.1,435.5c1.1-9.4-5.5-48.9-6.9-60.4C388.9,389.1,396.4,423,399.1,435.5z"
   id="path788" />
				<path
   class="st22"
   d="M480.6,492.4c0.7-9.5-7.9-48.7-9.9-60C468.1,446.5,477.2,480,480.6,492.4z"
   id="path790" />
				<path
   class="st23"
   d="M407.3,438.8c0.7-9.5-7.9-48.6-9.9-60C394.8,392.9,403.9,426.4,407.3,438.8z"
   id="path792" />
				<path
   class="st21"
   d="M425.1,454.8c1.1-9.5-5.6-48.9-7-60.4C414.8,408.5,422.2,442.4,425.1,454.8z"
   id="path794" />
				<path
   class="st21"
   d="M431.3,458.8c0.7-9.5-7.9-48.6-9.9-60C418.9,412.9,427.9,446.5,431.3,458.8z"
   id="path796" />
				<path
   class="st21"
   d="M545.4,427.3c-9.5,3.5-52.4,8-64.8,9.8C494.4,430.5,531.6,428.1,545.4,427.3z"
   id="path798" />
				<path
   class="st21"
   d="M468.7,376.3c-9.5,3.5-52.4,8-64.8,9.9C417.6,379.5,454.9,377.1,468.7,376.3z"
   id="path800" />
				<path
   class="st21"
   d="M472.4,383.3c-9.7,3.1-52.8,5.9-65.2,7.1C421.3,384.4,458.7,383.6,472.4,383.3z"
   id="path802" />
				<path
   class="st21"
   d="M495.7,394.2c-9.5,3.5-52.4,8-64.8,9.8C444.7,397.4,482,395.1,495.7,394.2z"
   id="path804" />
				<path
   class="st21"
   d="M421.2,342.1c-9.5,3.5-52.4,8-64.8,9.8C370.1,345.3,407.4,342.9,421.2,342.1z"
   id="path806" />
				<path
   class="st24"
   d="M501.1,399.3c-9.7,3.1-52.8,5.9-65.2,7.1C450,400.4,487.4,399.5,501.1,399.3z"
   id="path808" />
				<path
   class="st25"
   d="M425.7,347.2c-9.7,3.1-52.8,5.8-65.2,7.1C374.5,348.2,411.9,347.4,425.7,347.2z"
   id="path810" />
				<path
   class="st24"
   d="M508.1,402.5c-9.5,3.5-52.4,8-64.8,9.8C457.1,405.7,494.4,403.3,508.1,402.5z"
   id="path812" />
				<path
   class="st21"
   d="M436.5,349.5c-9.5,3.5-52.4,8-64.8,9.8C385.4,352.7,422.7,350.3,436.5,349.5z"
   id="path814" />
				<path
   class="st24"
   d="M513.1,408.1c-9.7,3.1-52.8,5.9-65.2,7.1C462,409.1,499.4,408.3,513.1,408.1z"
   id="path816" />
				<path
   class="st21"
   d="M436.4,357c-9.7,3.1-52.8,5.9-65.2,7.1C385.3,358.1,422.7,357.3,436.4,357z"
   id="path818" />
				<path
   class="st21"
   d="M520.5,410.7c-9.5,3.5-52.4,8.1-64.8,9.9C469.5,413.9,506.8,411.6,520.5,410.7z"
   id="path820" />
				<path
   class="st21"
   d="M443.8,359.8c-9.5,3.5-52.4,8-64.8,9.8C392.8,363,430.1,360.6,443.8,359.8z"
   id="path822" />
				<path
   class="st21"
   d="M525.1,416.8c-9.7,3.1-52.8,5.9-65.2,7.1C474,417.9,511.4,417.1,525.1,416.8z"
   id="path824" />
				<path
   class="st21"
   d="M448.4,365.8c-9.7,3.1-52.8,5.9-65.2,7.1C397.3,366.9,434.7,366.1,448.4,365.8z"
   id="path826" />
				<path
   class="st21"
   d="M533,419c-9.5,3.5-52.4,8-64.8,9.8C481.9,422.2,519.2,419.8,533,419z"
   id="path828" />
				<path
   class="st21"
   d="M456.2,368c-9.5,3.5-52.4,8-64.8,9.8C405.2,371.2,442.5,368.8,456.2,368z"
   id="path830" />
				<path
   class="st21"
   d="M537.2,425.6c-9.7,3.1-52.8,5.9-65.2,7.1C486,426.6,523.4,425.8,537.2,425.6z"
   id="path832" />
				<path
   class="st21"
   d="M460.4,374.6c-9.7,3.1-52.8,5.9-65.2,7.2C409.3,375.6,446.7,374.8,460.4,374.6z"
   id="path834" />
				<path
   class="st21"
   d="M483.3,386c-9.5,3.5-52.4,8.1-64.8,9.9C432.3,389.2,469.5,386.8,483.3,386z"
   id="path836" />
				<path
   class="st21"
   d="M489.1,390.5c-9.7,3.1-52.8,5.9-65.2,7.1C438,391.6,475.4,390.8,489.1,390.5z"
   id="path838" />
				
					<linearGradient
   id="SVGID_22_"
   gradientUnits="userSpaceOnUse"
   x1="25930.0762"
   y1="-16069.4248"
   x2="20072.0762"
   y2="-19886.125"
   gradientTransform="matrix(2.830532e-02 0 0 -2.830532e-02 -233.2067 -116.0534)">
					<stop
   offset="0"
   style="stop-color:#AF9778"
   id="stop840" />
					<stop
   offset="0.5294"
   style="stop-color:#874C20"
   id="stop842" />
					<stop
   offset="1"
   style="stop-color:#6E411D"
   id="stop844" />
				</linearGradient>
				<polygon
   class="st31"
   points="500.5,443.8 488.9,444.4 441.3,417.1 412.3,395.5 381.4,376.1 364.9,356.4 334.1,345.4       338.7,339.6 371.3,349.1 385,369.6 426.2,397.6 450.8,415.9 487.1,437.5     "
   id="polygon847" />
			</g>
			<g
   id="g1061">
				<path
   class="st21"
   d="M374.3,445.1c-4.7-8.5-34.7-38.7-42.9-47.7C337,410.9,364.2,436,374.3,445.1z"
   id="path851" />
				<path
   class="st21"
   d="M200.9,337.8c-6.8,7.4-43.6,31-53.9,38.2C155.9,363.9,188.8,344.8,200.9,337.8z"
   id="path853" />
				<path
   class="st21"
   d="M207.1,341.4c-7.2,7.1-45.1,29.2-55.8,36C160.7,365.7,194.5,347.9,207.1,341.4z"
   id="path855" />
				<path
   class="st21"
   d="M187.8,422.1c-4.3-8.7-32.7-40-40.4-49.3C152.3,386.4,178.2,412.5,187.8,422.1z"
   id="path857" />
				<path
   class="st21"
   d="M195.8,422.7c-4.7-8.5-34.6-38.7-42.9-47.7C158.6,388.5,185.8,413.5,195.8,422.7z"
   id="path859" />
				<path
   class="st22"
   d="M377,359.2c-6.8,7.4-43.6,30.9-53.9,38.1C332,385.3,364.9,366.2,377,359.2z"
   id="path861" />
				<path
   class="st23"
   d="M279.3,347.7c-6.8,7.4-43.6,30.9-53.9,38.2C234.3,373.8,267.2,354.6,279.3,347.7z"
   id="path863" />
				<path
   class="st22"
   d="M384.1,362.7c-7.2,7.1-45.1,29.2-55.8,36C337.8,387,371.6,369.2,384.1,362.7z"
   id="path865" />
				<path
   class="st23"
   d="M288.8,350.7c-7.2,7.1-45.1,29.2-55.8,36C242.5,375,276.3,357.2,288.8,350.7z"
   id="path867" />
				<path
   class="st21"
   d="M314.3,350.9c-6.8,7.4-43.6,31-53.9,38.2C269.2,377,302.1,357.9,314.3,350.9z"
   id="path869" />
				<path
   class="st21"
   d="M215.2,341.7c-6.8,7.4-43.6,30.9-53.9,38.1C170.2,367.8,203,348.6,215.2,341.7z"
   id="path871" />
				<path
   class="st21"
   d="M322.1,352.9c-7.1,7.1-45.1,29.2-55.8,36C275.8,377.1,309.6,359.3,322.1,352.9z"
   id="path873" />
				<path
   class="st21"
   d="M223,343.6c-7.1,7.1-45.1,29.2-55.8,36C176.7,367.9,210.5,350.1,223,343.6z"
   id="path875" />
				<path
   class="st21"
   d="M330.3,352.4c-6.8,7.4-43.6,31-53.9,38.2C285.3,378.5,318.2,359.4,330.3,352.4z"
   id="path877" />
				<path
   class="st23"
   d="M231.2,343.2c-6.8,7.4-43.6,30.9-53.9,38.1C186.2,369.3,219.1,350.2,231.2,343.2z"
   id="path879" />
				<path
   class="st21"
   d="M338.1,355c-7.2,7.1-45.1,29.2-55.8,36C291.7,379.3,325.5,361.5,338.1,355z"
   id="path881" />
				<path
   class="st23"
   d="M238.9,345.7c-7.1,7.1-45.1,29.2-55.8,36C192.6,370,226.4,352.2,238.9,345.7z"
   id="path883" />
				<path
   class="st21"
   d="M346.4,353.9c-6.8,7.4-43.6,31-53.9,38.2C301.4,380,334.2,360.9,346.4,353.9z"
   id="path885" />
				<path
   class="st23"
   d="M247.3,344.7c-6.8,7.4-43.6,31-53.9,38.2C202.2,370.8,235.1,351.7,247.3,344.7z"
   id="path887" />
				<path
   class="st21"
   d="M354,357.1c-7.1,7.1-45.1,29.2-55.8,36C307.7,381.4,341.5,363.6,354,357.1z"
   id="path889" />
				<path
   class="st23"
   d="M256.5,347.1c-7.2,7.1-45.1,29.2-55.8,36C210.2,371.4,244,353.6,256.5,347.1z"
   id="path891" />
				<path
   class="st21"
   d="M362.4,355.5c-6.8,7.4-43.6,30.9-53.9,38.1C317.4,381.6,350.3,362.4,362.4,355.5z"
   id="path893" />
				<path
   class="st23"
   d="M263.3,346.2c-6.8,7.4-43.6,31-53.9,38.2C218.3,372.3,251.2,353.2,263.3,346.2z"
   id="path895" />
				<path
   class="st22"
   d="M370,359.3c-7.2,7.1-45.1,29.2-55.8,36C323.6,383.5,357.4,365.7,370,359.3z"
   id="path897" />
				<path
   class="st23"
   d="M272,349.1c-7.2,7.1-45.1,29.2-55.8,36C225.7,373.4,259.5,355.6,272,349.1z"
   id="path899" />
				<path
   class="st21"
   d="M298.2,349.4c-6.8,7.4-43.6,31-53.9,38.2C253.2,375.5,286.1,356.4,298.2,349.4z"
   id="path901" />
				<path
   class="st21"
   d="M306.1,350.7c-7.1,7.1-45.1,29.2-55.8,36C259.8,375,293.6,357.2,306.1,350.7z"
   id="path903" />
				<path
   class="st21"
   d="M365.8,447.7c-4.3-8.7-32.6-40-40.4-49.3C330.3,412,356.2,438.1,365.8,447.7z"
   id="path905" />
				<path
   class="st21"
   d="M267.5,433.5c-4.3-8.7-32.7-40-40.4-49.3C231.9,397.9,257.9,424,267.5,433.5z"
   id="path907" />
				<path
   class="st21"
   d="M275.9,431c-4.7-8.5-34.6-38.7-42.9-47.7C238.7,396.8,265.9,421.8,275.9,431z"
   id="path909" />
				<path
   class="st21"
   d="M302.1,438.5c-4.3-8.7-32.6-40-40.4-49.3C266.6,402.9,292.5,428.9,302.1,438.5z"
   id="path911" />
				<path
   class="st21"
   d="M204.4,426.6c-4.3-8.7-32.6-40-40.4-49.3C169,391,194.9,417.1,204.4,426.6z"
   id="path913" />
				<path
   class="st24"
   d="M310.2,438.5c-4.7-8.5-34.6-38.7-42.9-47.7C272.9,404.3,300.1,429.3,310.2,438.5z"
   id="path915" />
				<path
   class="st25"
   d="M211.9,426c-4.8-8.5-34.7-38.7-42.9-47.7C174.6,391.7,201.8,416.8,211.9,426z"
   id="path917" />
				<path
   class="st24"
   d="M318,440.8c-4.3-8.7-32.7-40-40.4-49.3C282.5,405.2,308.4,431.2,318,440.8z"
   id="path919" />
				<path
   class="st21"
   d="M221.8,431.4c-4.3-8.7-32.7-40-40.4-49.3C186.3,395.8,212.2,421.8,221.8,431.4z"
   id="path921" />
				<path
   class="st24"
   d="M326.2,440.1c-4.7-8.5-34.6-38.7-42.9-47.7C289,406,316.1,431,326.2,440.1z"
   id="path923" />
				<path
   class="st21"
   d="M227.9,426c-4.7-8.5-34.7-38.7-42.9-47.7C190.6,391.8,217.8,416.8,227.9,426z"
   id="path925" />
				<path
   class="st21"
   d="M333.9,443.1c-4.3-8.7-32.7-40-40.4-49.3C298.5,407.4,324.4,433.5,333.9,443.1z"
   id="path927" />
				<path
   class="st21"
   d="M235.6,428.9c-4.3-8.7-32.6-40-40.4-49.3C200.1,393.3,226,419.4,235.6,428.9z"
   id="path929" />
				<path
   class="st21"
   d="M342.2,441.8c-4.7-8.5-34.6-38.7-42.9-47.7C305,407.6,332.2,432.6,342.2,441.8z"
   id="path931" />
				<path
   class="st21"
   d="M243.9,427.7c-4.7-8.5-34.7-38.7-42.9-47.7C206.6,393.4,233.8,418.5,243.9,427.7z"
   id="path933" />
				<path
   class="st21"
   d="M349.9,445.4c-4.3-8.7-32.6-40-40.4-49.3C314.4,409.7,340.3,435.8,349.9,445.4z"
   id="path935" />
				<path
   class="st21"
   d="M251.5,431.2c-4.3-8.7-32.7-40-40.4-49.3C216,395.6,241.9,421.7,251.5,431.2z"
   id="path937" />
				<path
   class="st21"
   d="M358.3,443.5c-4.8-8.5-34.7-38.7-42.9-47.7C321,409.3,348.2,434.3,358.3,443.5z"
   id="path939" />
				<path
   class="st21"
   d="M259.9,429.3c-4.7-8.5-34.7-38.7-42.9-47.7C222.6,395.1,249.9,420.2,259.9,429.3z"
   id="path941" />
				<path
   class="st21"
   d="M286.2,436.2c-4.3-8.7-32.6-40-40.4-49.3C250.7,400.6,276.6,426.6,286.2,436.2z"
   id="path943" />
				<path
   class="st21"
   d="M294.2,436.8c-4.7-8.5-34.7-38.7-42.9-47.7C256.9,402.6,284.1,427.7,294.2,436.8z"
   id="path945" />
				
					<linearGradient
   id="SVGID_23_"
   gradientUnits="userSpaceOnUse"
   x1="17186.5273"
   y1="-19683.5527"
   x2="16481.3867"
   y2="-16124.6523"
   gradientTransform="matrix(2.830532e-02 0 0 -2.830532e-02 -233.2067 -116.0534)">
					<stop
   offset="0"
   style="stop-color:#AF9778"
   id="stop947" />
					<stop
   offset="0.5294"
   style="stop-color:#874C20"
   id="stop949" />
					<stop
   offset="1"
   style="stop-color:#6E411D"
   id="stop951" />
				</linearGradient>
				<polygon
   class="st32"
   points="345.6,406.6 337.5,398.6 279.9,386.7 240.9,383.1 202.2,376.6 174,379.7 142.1,367.4 140.8,374.5       172.9,389 199.6,383.5 253,390.7 286,393.8 330.5,402.3     "
   id="polygon954" />
				<path
   class="st21"
   d="M422.5,326.5c-9-5.3-52.1-18.3-64.3-22.5C370.7,313.2,408.6,323,422.5,326.5z"
   id="path956" />
				<path
   class="st21"
   d="M211.2,309.5c-1.6,9.4-20.1,45.9-24.9,56.7C187.1,351.9,204.6,320.9,211.2,309.5z"
   id="path958" />
				<path
   class="st21"
   d="M218.6,310.1c-2.2,9.3-22.4,45.1-27.8,55.6C192.3,351.4,211.4,321.2,218.6,310.1z"
   id="path960" />
				<path
   class="st21"
   d="M247.9,388.3c-8.7-5.7-51.1-20.3-63.1-25C196.8,373,234.1,384.2,247.9,388.3z"
   id="path962" />
				<path
   class="st21"
   d="M255.2,385.3c-8.9-5.3-52.1-18.3-64.3-22.5C203.4,372,241.2,381.8,255.2,385.3z"
   id="path964" />
				<path
   class="st22"
   d="M375.9,250.9c-1.7,9.4-20.1,45.9-24.9,56.7C351.8,293.2,369.3,262.3,375.9,250.9z"
   id="path966" />
				<path
   class="st23"
   d="M284.8,283.7c-1.7,9.4-20.1,45.9-24.9,56.7C260.6,326.1,278.2,295.1,284.8,283.7z"
   id="path968" />
				<path
   class="st22"
   d="M384,250.8c-2.1,9.3-22.4,45.1-27.8,55.6C357.8,292.2,376.9,261.9,384,250.8z"
   id="path970" />
				<path
   class="st23"
   d="M294.7,282.2c-2.1,9.3-22.4,45.1-27.8,55.6C268.4,323.5,287.6,293.3,294.7,282.2z"
   id="path972" />
				<path
   class="st21"
   d="M316.8,271.3c-1.6,9.4-20.1,45.9-24.9,56.7C292.7,313.6,310.3,282.6,316.8,271.3z"
   id="path974" />
				<path
   class="st21"
   d="M225.7,306.7c-1.6,9.4-20.1,45.9-24.9,56.7C201.6,349,219.2,318,225.7,306.7z"
   id="path976" />
				<path
   class="st21"
   d="M324.7,269.5c-2.2,9.3-22.4,45.1-27.8,55.6C298.5,310.8,317.6,280.6,324.7,269.5z"
   id="path978" />
				<path
   class="st21"
   d="M233.6,304.9c-2.1,9.3-22.4,45.1-27.8,55.6C207.3,346.2,226.5,316,233.6,304.9z"
   id="path980" />
				<path
   class="st21"
   d="M331.6,265.5c-1.6,9.4-20.1,45.9-24.9,56.7C307.5,307.8,325.1,276.9,331.6,265.5z"
   id="path982" />
				<path
   class="st23"
   d="M240.5,300.9c-1.6,9.4-20.1,45.9-24.9,56.7C216.4,343.3,233.9,312.3,240.5,300.9z"
   id="path984" />
				<path
   class="st21"
   d="M339.7,264.3c-2.1,9.3-22.4,45.1-27.8,55.6C313.5,305.7,332.6,275.4,339.7,264.3z"
   id="path986" />
				<path
   class="st23"
   d="M248.6,299.8c-2.1,9.3-22.4,45.1-27.8,55.6C222.4,341.1,241.5,310.9,248.6,299.8z"
   id="path988" />
				<path
   class="st21"
   d="M346.4,259.8c-1.7,9.4-20.1,45.9-24.9,56.7C322.3,302.1,339.8,271.1,346.4,259.8z"
   id="path990" />
				<path
   class="st23"
   d="M255.2,295.2c-1.6,9.4-20.1,45.9-24.9,56.7C231.1,337.5,248.7,306.6,255.2,295.2z"
   id="path992" />
				<path
   class="st21"
   d="M354.8,259.2c-2.2,9.3-22.4,45.1-27.8,55.6C328.5,300.5,347.6,270.3,354.8,259.2z"
   id="path994" />
				<path
   class="st23"
   d="M264.7,293.3c-2.2,9.3-22.4,45.1-27.8,55.6C238.4,334.6,257.5,304.4,264.7,293.3z"
   id="path996" />
				<path
   class="st21"
   d="M361.1,254c-1.6,9.4-20.1,45.9-24.9,56.7C337,296.4,354.6,265.4,361.1,254z"
   id="path998" />
				<path
   class="st23"
   d="M270,289.5c-1.7,9.4-20.1,45.9-24.9,56.7C245.9,331.8,263.5,300.9,270,289.5z"
   id="path1000" />
				<path
   class="st22"
   d="M369.8,254c-2.2,9.3-22.4,45.1-27.8,55.6C343.5,295.4,362.7,265.1,369.8,254z"
   id="path1002" />
				<path
   class="st23"
   d="M279.2,288.2c-2.1,9.3-22.4,45.1-27.8,55.6C253,329.5,272.1,299.3,279.2,288.2z"
   id="path1004" />
				<path
   class="st21"
   d="M302.1,277c-1.7,9.4-20.1,45.9-24.9,56.7C278,319.3,295.6,288.3,302.1,277z"
   id="path1006" />
				<path
   class="st21"
   d="M309.7,274.6c-2.2,9.3-22.4,45.1-27.8,55.6C283.4,316,302.6,285.7,309.7,274.6z"
   id="path1008" />
				<path
   class="st21"
   d="M416.6,332.4c-8.7-5.7-51.1-20.3-63.1-25C365.5,317.1,402.8,328.3,416.6,332.4z"
   id="path1010" />
				<path
   class="st21"
   d="M323.4,363.3c-8.7-5.7-51.1-20.3-63.1-25C272.3,348,309.6,359.2,323.4,363.3z"
   id="path1012" />
				<path
   class="st21"
   d="M329.3,357.4c-8.9-5.3-52.1-18.3-64.3-22.5C277.5,344.1,315.3,353.8,329.3,357.4z"
   id="path1014" />
				<path
   class="st21"
   d="M356.2,352.4c-8.7-5.7-51.1-20.3-63.1-25C305.2,337.1,342.5,348.4,356.2,352.4z"
   id="path1016" />
				<path
   class="st21"
   d="M264.9,385c-8.7-5.7-51.1-20.3-63.1-25C213.8,369.6,251.1,380.9,264.9,385z"
   id="path1018" />
				<path
   class="st24"
   d="M363.2,348.9c-9-5.3-52.1-18.3-64.3-22.5C311.4,335.6,349.3,345.3,363.2,348.9z"
   id="path1020" />
				<path
   class="st25"
   d="M270.9,381.1c-9-5.3-52.1-18.3-64.3-22.5C219.2,367.8,257,377.6,270.9,381.1z"
   id="path1022" />
				<path
   class="st24"
   d="M371.3,347.4c-8.7-5.7-51.1-20.3-63.1-25C320.2,332.1,357.6,343.3,371.3,347.4z"
   id="path1024" />
				<path
   class="st21"
   d="M282.7,381.5c-8.7-5.7-51.1-20.3-63.1-25C231.6,366.2,268.9,377.4,282.7,381.5z"
   id="path1026" />
				<path
   class="st24"
   d="M378.1,343.3c-9-5.3-52.1-18.3-64.3-22.5C326.3,330,364.1,339.7,378.1,343.3z"
   id="path1028" />
				<path
   class="st21"
   d="M284.8,374.1c-8.9-5.3-52.1-18.3-64.3-22.5C233,360.9,270.9,370.6,284.8,374.1z"
   id="path1030" />
				<path
   class="st21"
   d="M386.4,342.4c-8.7-5.7-51.1-20.4-63.1-25C335.4,327.1,372.6,338.3,386.4,342.4z"
   id="path1032" />
				<path
   class="st21"
   d="M293.2,373.3c-8.7-5.7-51.1-20.3-63.1-25C242.1,358,279.4,369.2,293.2,373.3z"
   id="path1034" />
				<path
   class="st21"
   d="M392.9,337.7c-9-5.3-52.1-18.3-64.3-22.5C341.1,324.4,378.9,334.1,392.9,337.7z"
   id="path1036" />
				<path
   class="st21"
   d="M299.6,368.5c-8.9-5.3-52.1-18.3-64.3-22.5C247.8,355.3,285.7,365,299.6,368.5z"
   id="path1038" />
				<path
   class="st21"
   d="M401.5,337.4c-8.7-5.7-51.1-20.3-63.1-25C350.4,322.1,387.8,333.4,401.5,337.4z"
   id="path1040" />
				<path
   class="st21"
   d="M308.3,368.3c-8.7-5.7-51.1-20.3-63.1-25C257.2,353,294.5,364.2,308.3,368.3z"
   id="path1042" />
				<path
   class="st21"
   d="M407.7,332.1c-9-5.3-52.1-18.3-64.3-22.5C355.9,318.8,393.8,328.5,407.7,332.1z"
   id="path1044" />
				<path
   class="st21"
   d="M314.5,363c-8.9-5.3-52.1-18.3-64.3-22.5C262.7,349.7,300.5,359.5,314.5,363z"
   id="path1046" />
				<path
   class="st21"
   d="M341.1,357.4c-8.7-5.7-51.1-20.3-63.1-25C290.1,342.1,327.4,353.3,341.1,357.4z"
   id="path1048" />
				<path
   class="st21"
   d="M348.4,354.4c-9-5.3-52.1-18.3-64.3-22.5C296.6,341.2,334.5,350.9,348.4,354.4z"
   id="path1050" />
				
					<linearGradient
   id="SVGID_24_"
   gradientUnits="userSpaceOnUse"
   x1="20416.3691"
   y1="-18473.7812"
   x2="15592.4404"
   y2="-13405.002"
   gradientTransform="matrix(2.830532e-02 0 0 -2.830532e-02 -233.2067 -116.0534)">
					<stop
   offset="0"
   style="stop-color:#AF9778"
   id="stop1052" />
					<stop
   offset="0.5294"
   style="stop-color:#874C20"
   id="stop1054" />
					<stop
   offset="1"
   style="stop-color:#6E411D"
   id="stop1056" />
				</linearGradient>
				<polygon
   class="st33"
   points="375.7,305.7 364.1,302.3 307.5,317.3 271.6,331.3 234.4,342.6 211.8,357.7 177.1,361 180.1,367.7       216.1,366.2 236.2,349.8 286.4,332.6 316.8,320.7 360.2,308.6     "
   id="polygon1059" />
			</g>
			<g
   id="g1273">
				<path
   class="st21"
   d="M835.4,445.1c-4.7-8.5-34.6-38.7-42.9-47.7C798.1,410.9,825.3,436,835.4,445.1z"
   id="path1063" />
				<path
   class="st21"
   d="M662,337.8c-6.8,7.4-43.6,31-53.9,38.2C617,363.9,649.9,344.8,662,337.8z"
   id="path1065" />
				<path
   class="st21"
   d="M668.1,341.4c-7.1,7.1-45.1,29.2-55.8,36C621.8,365.7,655.6,347.9,668.1,341.4z"
   id="path1067" />
				<path
   class="st21"
   d="M648.9,422.1c-4.3-8.7-32.7-40-40.4-49.3C613.4,386.4,639.3,412.5,648.9,422.1z"
   id="path1069" />
				<path
   class="st21"
   d="M656.9,422.7c-4.7-8.5-34.6-38.7-42.9-47.7C619.7,388.5,646.9,413.5,656.9,422.7z"
   id="path1071" />
				<path
   class="st22"
   d="M838.1,359.2c-6.8,7.4-43.6,30.9-53.9,38.1C793.1,385.3,825.9,366.2,838.1,359.2z"
   id="path1073" />
				<path
   class="st23"
   d="M740.4,347.7c-6.8,7.4-43.6,30.9-53.9,38.2C695.4,373.8,728.3,354.6,740.4,347.7z"
   id="path1075" />
				<path
   class="st22"
   d="M845.2,362.7c-7.2,7.1-45.1,29.2-55.8,36C798.9,387,832.7,369.2,845.2,362.7z"
   id="path1077" />
				<path
   class="st23"
   d="M749.9,350.7c-7.2,7.1-45.1,29.2-55.8,36C703.6,375,737.4,357.2,749.9,350.7z"
   id="path1079" />
				<path
   class="st21"
   d="M775.4,350.9c-6.8,7.4-43.6,31-53.9,38.2C730.3,377,763.2,357.9,775.4,350.9z"
   id="path1081" />
				<path
   class="st21"
   d="M676.3,341.7c-6.8,7.4-43.6,30.9-53.9,38.1C631.2,367.8,664.1,348.6,676.3,341.7z"
   id="path1083" />
				<path
   class="st21"
   d="M783.2,352.9c-7.2,7.1-45.1,29.2-55.8,36C736.9,377.1,770.7,359.3,783.2,352.9z"
   id="path1085" />
				<path
   class="st21"
   d="M684.1,343.6c-7.1,7.1-45.1,29.2-55.8,36C637.8,367.9,671.6,350.1,684.1,343.6z"
   id="path1087" />
				<path
   class="st21"
   d="M791.4,352.4c-6.8,7.4-43.6,31-53.9,38.2C746.4,378.5,779.2,359.4,791.4,352.4z"
   id="path1089" />
				<path
   class="st23"
   d="M692.3,343.2c-6.8,7.4-43.6,30.9-53.9,38.1C647.3,369.3,680.2,350.2,692.3,343.2z"
   id="path1091" />
				<path
   class="st21"
   d="M799.1,355c-7.2,7.1-45.1,29.2-55.8,36C752.8,379.3,786.6,361.5,799.1,355z"
   id="path1093" />
				<path
   class="st23"
   d="M700,345.7c-7.1,7.1-45.1,29.2-55.8,36C653.7,370,687.5,352.2,700,345.7z"
   id="path1095" />
				<path
   class="st21"
   d="M807.4,353.9c-6.8,7.4-43.6,31-53.9,38.2C762.5,380,795.3,360.9,807.4,353.9z"
   id="path1097" />
				<path
   class="st23"
   d="M708.4,344.7c-6.8,7.4-43.6,31-53.9,38.2C663.3,370.8,696.2,351.7,708.4,344.7z"
   id="path1099" />
				<path
   class="st21"
   d="M815.1,357.1c-7.1,7.1-45.1,29.2-55.8,36C768.8,381.4,802.6,363.6,815.1,357.1z"
   id="path1101" />
				<path
   class="st23"
   d="M717.6,347.1c-7.2,7.1-45.1,29.2-55.8,36C671.3,371.4,705.1,353.6,717.6,347.1z"
   id="path1103" />
				<path
   class="st21"
   d="M823.5,355.5c-6.8,7.4-43.6,30.9-53.9,38.1C778.5,381.6,811.3,362.4,823.5,355.5z"
   id="path1105" />
				<path
   class="st23"
   d="M724.4,346.2c-6.8,7.4-43.6,31-53.9,38.2C679.4,372.3,712.2,353.2,724.4,346.2z"
   id="path1107" />
				<path
   class="st22"
   d="M831,359.3c-7.2,7.1-45.1,29.2-55.8,36C784.7,383.5,818.5,365.7,831,359.3z"
   id="path1109" />
				<path
   class="st23"
   d="M733.1,349.1c-7.2,7.1-45.1,29.2-55.8,36C686.8,373.4,720.6,355.6,733.1,349.1z"
   id="path1111" />
				<path
   class="st21"
   d="M759.3,349.4c-6.8,7.4-43.6,31-53.9,38.2C714.3,375.5,747.2,356.4,759.3,349.4z"
   id="path1113" />
				<path
   class="st21"
   d="M767.2,350.7c-7.1,7.1-45.1,29.2-55.8,36C720.9,375,754.7,357.2,767.2,350.7z"
   id="path1115" />
				<path
   class="st21"
   d="M826.9,447.7c-4.3-8.7-32.6-40-40.4-49.3C791.4,412,817.3,438.1,826.9,447.7z"
   id="path1117" />
				<path
   class="st21"
   d="M728.5,433.5c-4.3-8.7-32.6-40-40.4-49.3C693,397.9,718.9,424,728.5,433.5z"
   id="path1119" />
				<path
   class="st21"
   d="M737,431c-4.7-8.5-34.7-38.7-42.9-47.7C699.8,396.8,727,421.8,737,431z"
   id="path1121" />
				<path
   class="st21"
   d="M763.2,438.5c-4.3-8.7-32.6-40-40.4-49.3C727.7,402.9,753.6,428.9,763.2,438.5z"
   id="path1123" />
				<path
   class="st21"
   d="M665.5,426.6c-4.3-8.7-32.6-40-40.4-49.3C630,391,655.9,417.1,665.5,426.6z"
   id="path1125" />
				<path
   class="st24"
   d="M771.3,438.5c-4.7-8.5-34.7-38.7-42.9-47.7C734,404.3,761.2,429.3,771.3,438.5z"
   id="path1127" />
				<path
   class="st25"
   d="M673,426c-4.7-8.5-34.6-38.7-42.9-47.7C635.7,391.7,662.9,416.8,673,426z"
   id="path1129" />
				<path
   class="st24"
   d="M779.1,440.8c-4.3-8.7-32.7-40-40.4-49.3C743.6,405.2,769.5,431.2,779.1,440.8z"
   id="path1131" />
				<path
   class="st21"
   d="M682.9,431.4c-4.3-8.7-32.7-40-40.4-49.3C647.4,395.8,673.3,421.8,682.9,431.4z"
   id="path1133" />
				<path
   class="st24"
   d="M787.3,440.1c-4.7-8.5-34.6-38.7-42.9-47.7C750,406,777.2,431,787.3,440.1z"
   id="path1135" />
				<path
   class="st21"
   d="M689,426c-4.8-8.5-34.7-38.7-42.9-47.7C651.7,391.8,678.9,416.8,689,426z"
   id="path1137" />
				<path
   class="st21"
   d="M795,443.1c-4.3-8.7-32.7-40-40.4-49.3C759.5,407.4,785.4,433.5,795,443.1z"
   id="path1139" />
				<path
   class="st21"
   d="M696.7,428.9c-4.3-8.7-32.6-40-40.4-49.3C661.2,393.3,687.1,419.4,696.7,428.9z"
   id="path1141" />
				<path
   class="st21"
   d="M803.3,441.8c-4.7-8.5-34.6-38.7-42.9-47.7C766.1,407.6,793.3,432.6,803.3,441.8z"
   id="path1143" />
				<path
   class="st21"
   d="M705,427.7c-4.7-8.5-34.7-38.7-42.9-47.7C667.7,393.4,694.9,418.5,705,427.7z"
   id="path1145" />
				<path
   class="st21"
   d="M810.9,445.4c-4.3-8.7-32.6-40-40.4-49.3C775.5,409.7,801.4,435.8,810.9,445.4z"
   id="path1147" />
				<path
   class="st21"
   d="M712.6,431.2c-4.3-8.7-32.7-40-40.4-49.3C677.1,395.6,703,421.7,712.6,431.2z"
   id="path1149" />
				<path
   class="st21"
   d="M819.4,443.5c-4.8-8.5-34.7-38.7-42.9-47.7C782.1,409.3,809.3,434.3,819.4,443.5z"
   id="path1151" />
				<path
   class="st21"
   d="M721,429.3c-4.8-8.5-34.7-38.7-42.9-47.7C683.7,395.1,710.9,420.2,721,429.3z"
   id="path1153" />
				<path
   class="st21"
   d="M747.3,436.2c-4.3-8.7-32.6-40-40.4-49.3C711.8,400.6,737.7,426.6,747.3,436.2z"
   id="path1155" />
				<path
   class="st21"
   d="M755.3,436.8c-4.7-8.5-34.7-38.7-42.9-47.7C718,402.6,745.2,427.7,755.3,436.8z"
   id="path1157" />
				
					<linearGradient
   id="SVGID_25_"
   gradientUnits="userSpaceOnUse"
   x1="33476.5039"
   y1="-19683.5332"
   x2="32771.4023"
   y2="-16124.6318"
   gradientTransform="matrix(2.830532e-02 0 0 -2.830532e-02 -233.2067 -116.0534)">
					<stop
   offset="0"
   style="stop-color:#AF9778"
   id="stop1159" />
					<stop
   offset="0.5294"
   style="stop-color:#874C20"
   id="stop1161" />
					<stop
   offset="1"
   style="stop-color:#6E411D"
   id="stop1163" />
				</linearGradient>
				<polygon
   class="st34"
   points="806.7,406.6 798.6,398.6 741,386.7 702,383.1 663.3,376.6 635.1,379.7 603.2,367.4 601.9,374.5       634,389 660.7,383.5 714.1,390.7 747.1,393.8 791.6,402.3     "
   id="polygon1166" />
				<path
   class="st21"
   d="M883.6,326.5c-9-5.3-52.1-18.3-64.3-22.5C831.8,313.2,869.7,323,883.6,326.5z"
   id="path1168" />
				<path
   class="st21"
   d="M672.3,309.5c-1.6,9.4-20.1,45.9-24.9,56.7C648.2,351.9,665.7,320.9,672.3,309.5z"
   id="path1170" />
				<path
   class="st21"
   d="M679.6,310.1c-2.1,9.3-22.4,45.1-27.8,55.6C653.4,351.4,672.5,321.2,679.6,310.1z"
   id="path1172" />
				<path
   class="st21"
   d="M709,388.3c-8.7-5.7-51.1-20.3-63.1-25C657.9,373,695.2,384.2,709,388.3z"
   id="path1174" />
				<path
   class="st21"
   d="M716.3,385.3c-9-5.3-52.1-18.3-64.3-22.5C664.5,372,702.3,381.8,716.3,385.3z"
   id="path1176" />
				<path
   class="st22"
   d="M837,250.9c-1.7,9.4-20.1,45.9-24.9,56.7C812.8,293.2,830.4,262.3,837,250.9z"
   id="path1178" />
				<path
   class="st23"
   d="M745.8,283.7c-1.6,9.4-20.1,45.9-24.9,56.7C721.7,326.1,739.3,295.1,745.8,283.7z"
   id="path1180" />
				<path
   class="st22"
   d="M845.1,250.8c-2.1,9.3-22.4,45.1-27.8,55.6C818.9,292.2,838,261.9,845.1,250.8z"
   id="path1182" />
				<path
   class="st23"
   d="M755.8,282.2c-2.1,9.3-22.4,45.1-27.8,55.6C729.5,323.5,748.6,293.3,755.8,282.2z"
   id="path1184" />
				<path
   class="st21"
   d="M777.9,271.3c-1.6,9.4-20.1,45.9-24.9,56.7C753.8,313.6,771.4,282.6,777.9,271.3z"
   id="path1186" />
				<path
   class="st21"
   d="M686.8,306.7c-1.6,9.4-20.1,45.9-24.9,56.7C662.7,349,680.3,318,686.8,306.7z"
   id="path1188" />
				<path
   class="st21"
   d="M785.8,269.5c-2.2,9.3-22.4,45.1-27.8,55.6C759.5,310.8,778.7,280.6,785.8,269.5z"
   id="path1190" />
				<path
   class="st21"
   d="M694.7,304.9c-2.1,9.3-22.4,45.1-27.8,55.6C668.4,346.2,687.6,316,694.7,304.9z"
   id="path1192" />
				<path
   class="st21"
   d="M792.7,265.5c-1.6,9.4-20.1,45.9-24.9,56.7C768.6,307.8,786.2,276.9,792.7,265.5z"
   id="path1194" />
				<path
   class="st23"
   d="M701.6,300.9c-1.6,9.4-20.1,45.9-24.9,56.7C677.5,343.3,695,312.3,701.6,300.9z"
   id="path1196" />
				<path
   class="st21"
   d="M800.8,264.3c-2.1,9.3-22.4,45.1-27.8,55.6C774.6,305.7,793.7,275.4,800.8,264.3z"
   id="path1198" />
				<path
   class="st23"
   d="M709.7,299.8c-2.1,9.3-22.4,45.1-27.8,55.6C683.5,341.1,702.6,310.9,709.7,299.8z"
   id="path1200" />
				<path
   class="st21"
   d="M807.4,259.8c-1.6,9.4-20.1,45.9-24.9,56.7C783.3,302.1,800.9,271.1,807.4,259.8z"
   id="path1202" />
				<path
   class="st23"
   d="M716.3,295.2c-1.6,9.4-20.1,45.9-24.9,56.7C692.2,337.5,709.8,306.6,716.3,295.2z"
   id="path1204" />
				<path
   class="st21"
   d="M815.8,259.2c-2.1,9.3-22.4,45.1-27.8,55.6C789.6,300.5,808.7,270.3,815.8,259.2z"
   id="path1206" />
				<path
   class="st23"
   d="M725.7,293.3c-2.1,9.3-22.4,45.1-27.8,55.6C699.5,334.6,718.6,304.4,725.7,293.3z"
   id="path1208" />
				<path
   class="st21"
   d="M822.2,254c-1.6,9.4-20.1,45.9-24.9,56.7C798.1,296.4,815.7,265.4,822.2,254z"
   id="path1210" />
				<path
   class="st23"
   d="M731.1,289.5c-1.7,9.4-20.1,45.9-24.9,56.7C707,331.8,724.6,300.9,731.1,289.5z"
   id="path1212" />
				<path
   class="st22"
   d="M830.9,254c-2.2,9.3-22.4,45.1-27.8,55.6C804.6,295.4,823.8,265.1,830.9,254z"
   id="path1214" />
				<path
   class="st23"
   d="M740.3,288.2c-2.1,9.3-22.4,45.1-27.8,55.6C714.1,329.5,733.2,299.3,740.3,288.2z"
   id="path1216" />
				<path
   class="st21"
   d="M763.2,277c-1.7,9.4-20.1,45.9-24.9,56.7C739.1,319.3,756.7,288.3,763.2,277z"
   id="path1218" />
				<path
   class="st21"
   d="M770.8,274.6c-2.1,9.3-22.4,45.1-27.8,55.6C744.5,316,763.6,285.7,770.8,274.6z"
   id="path1220" />
				<path
   class="st21"
   d="M877.7,332.4c-8.7-5.7-51.1-20.3-63.1-25C826.6,317.1,863.9,328.3,877.7,332.4z"
   id="path1222" />
				<path
   class="st21"
   d="M784.5,363.3c-8.7-5.7-51.1-20.3-63.1-25C733.4,348,770.7,359.2,784.5,363.3z"
   id="path1224" />
				<path
   class="st21"
   d="M790.4,357.4c-8.9-5.3-52.1-18.3-64.3-22.5C738.6,344.1,776.4,353.8,790.4,357.4z"
   id="path1226" />
				<path
   class="st21"
   d="M817.3,352.4c-8.7-5.7-51.1-20.3-63.1-25C766.3,337.1,803.6,348.4,817.3,352.4z"
   id="path1228" />
				<path
   class="st21"
   d="M725.9,385c-8.7-5.7-51.1-20.3-63.1-25C674.9,369.6,712.2,380.9,725.9,385z"
   id="path1230" />
				<path
   class="st24"
   d="M824.3,348.9c-9-5.3-52.1-18.3-64.3-22.5C772.5,335.6,810.4,345.3,824.3,348.9z"
   id="path1232" />
				<path
   class="st25"
   d="M732,381.1c-9-5.3-52.1-18.3-64.3-22.5C680.3,367.8,718.1,377.6,732,381.1z"
   id="path1234" />
				<path
   class="st24"
   d="M832.4,347.4c-8.7-5.7-51.1-20.3-63.1-25C781.3,332.1,818.6,343.3,832.4,347.4z"
   id="path1236" />
				<path
   class="st21"
   d="M743.7,381.5c-8.7-5.7-51.1-20.3-63.1-25C692.7,366.2,730,377.4,743.7,381.5z"
   id="path1238" />
				<path
   class="st24"
   d="M839.2,343.3c-9-5.3-52.1-18.3-64.3-22.5C787.4,330,825.2,339.7,839.2,343.3z"
   id="path1240" />
				<path
   class="st21"
   d="M745.9,374.1c-8.9-5.3-52.1-18.3-64.3-22.5C694.1,360.9,732,370.6,745.9,374.1z"
   id="path1242" />
				<path
   class="st21"
   d="M847.5,342.4c-8.7-5.7-51.1-20.4-63.1-25C796.4,327.1,833.7,338.3,847.5,342.4z"
   id="path1244" />
				<path
   class="st21"
   d="M754.3,373.3c-8.7-5.7-51.1-20.3-63.1-25C703.2,358,740.5,369.2,754.3,373.3z"
   id="path1246" />
				<path
   class="st21"
   d="M854,337.7c-9-5.3-52.1-18.3-64.3-22.5C802.2,324.4,840,334.1,854,337.7z"
   id="path1248" />
				<path
   class="st21"
   d="M760.7,368.5c-9-5.3-52.1-18.3-64.3-22.5C708.9,355.3,746.8,365,760.7,368.5z"
   id="path1250" />
				<path
   class="st21"
   d="M862.6,337.4c-8.7-5.7-51.1-20.3-63.1-25C811.5,322.1,848.8,333.4,862.6,337.4z"
   id="path1252" />
				<path
   class="st21"
   d="M769.4,368.3c-8.7-5.7-51.1-20.3-63.1-25C718.3,353,755.6,364.2,769.4,368.3z"
   id="path1254" />
				<path
   class="st21"
   d="M868.8,332.1c-9-5.3-52.1-18.3-64.3-22.5C817,318.8,854.8,328.5,868.8,332.1z"
   id="path1256" />
				<path
   class="st21"
   d="M775.6,363c-9-5.3-52.1-18.3-64.3-22.5C723.8,349.7,761.6,359.5,775.6,363z"
   id="path1258" />
				<path
   class="st21"
   d="M802.2,357.4c-8.7-5.7-51.1-20.3-63.1-25C751.2,342.1,788.5,353.3,802.2,357.4z"
   id="path1260" />
				<path
   class="st21"
   d="M809.5,354.4c-9-5.3-52.1-18.3-64.3-22.5C757.7,341.2,795.5,350.9,809.5,354.4z"
   id="path1262" />
				
					<linearGradient
   id="SVGID_26_"
   gradientUnits="userSpaceOnUse"
   x1="36706.3164"
   y1="-18473.7383"
   x2="31882.4141"
   y2="-13404.96"
   gradientTransform="matrix(2.830532e-02 0 0 -2.830532e-02 -233.2067 -116.0534)">
					<stop
   offset="0"
   style="stop-color:#AF9778"
   id="stop1264" />
					<stop
   offset="0.5294"
   style="stop-color:#874C20"
   id="stop1266" />
					<stop
   offset="1"
   style="stop-color:#6E411D"
   id="stop1268" />
				</linearGradient>
				<polygon
   class="st35"
   points="836.8,305.7 825.2,302.3 768.6,317.3 732.7,331.3 695.5,342.6 672.9,357.7 638.2,361 641.1,367.7       677.2,366.2 697.2,349.8 747.5,332.6 777.9,320.7 821.3,308.6     "
   id="polygon1271" />
			</g>
		</g>
	</g>
</g>
</svg>
