<?xml version="1.0" encoding="UTF-8" standalone="no"?>
<!-- Created with Inkscape (http://www.inkscape.org/) -->

<svg
   width="44.317707mm"
   height="44.317703mm"
   viewBox="0 0 44.317707 44.317703"
   version="1.1"
   id="svg6511"
   inkscape:version="1.2.1 (9c6d41e410, 2022-07-14)"
   sodipodi:docname="clock-face-5-symbolic.svg"
   xmlns:inkscape="http://www.inkscape.org/namespaces/inkscape"
   xmlns:sodipodi="http://sodipodi.sourceforge.net/DTD/sodipodi-0.dtd"
   xmlns="http://www.w3.org/2000/svg"
   xmlns:svg="http://www.w3.org/2000/svg">
  <sodipodi:namedview
     id="namedview6513"
     pagecolor="#ffffff"
     bordercolor="#000000"
     borderopacity="0.25"
     inkscape:showpageshadow="2"
     inkscape:pageopacity="0.0"
     inkscape:pagecheckerboard="0"
     inkscape:deskcolor="#d1d1d1"
     inkscape:document-units="mm"
     showgrid="false"
     inkscape:zoom="4"
     inkscape:cx="90.375001"
     inkscape:cy="131.625"
     inkscape:window-width="1499"
     inkscape:window-height="1236"
     inkscape:window-x="650"
     inkscape:window-y="134"
     inkscape:window-maximized="0"
     inkscape:current-layer="layer1"
     showguides="true" />
  <defs
     id="defs6508">
    <clipPath
       clipPathUnits="userSpaceOnUse"
       id="clipPath2426">
      <path
         d="m 8060.68,5204.7 c -93.72,0 -175.9,82.2 -175.9,175.9 0,93.7 82.18,175.9 175.9,175.9 93.72,0 175.91,-82.2 175.91,-175.9 0,-93.7 -82.19,-175.9 -175.91,-175.9 z"
         id="path2424" />
    </clipPath>
    <linearGradient
       x1="0"
       y1="0"
       x2="1"
       y2="0"
       gradientUnits="userSpaceOnUse"
       gradientTransform="matrix(174.538,-302.309,-302.309,-174.538,7973.41,5531.8)"
       spreadMethod="pad"
       id="linearGradient2434">
      <stop
         style="stop-opacity:1;stop-color:#ededed"
         offset="0"
         id="stop2428" />
      <stop
         style="stop-opacity:1;stop-color:#ededed"
         offset="0.48211215"
         id="stop2430" />
      <stop
         style="stop-opacity:1;stop-color:#d0d0d0"
         offset="1"
         id="stop2432" />
    </linearGradient>
    <clipPath
       clipPathUnits="userSpaceOnUse"
       id="clipPath2444">
      <path
         d="m 8060.68,5224.3 c -83.29,0 -156.36,73 -156.36,156.3 0,83.3 73.07,156.4 156.36,156.4 83.3,0 156.37,-73.1 156.37,-156.4 0,-83.3 -73.07,-156.3 -156.37,-156.3 z"
         id="path2442" />
    </clipPath>
    <linearGradient
       x1="0"
       y1="0"
       x2="1"
       y2="0"
       gradientUnits="userSpaceOnUse"
       gradientTransform="matrix(155.141,-268.712,-268.712,-155.141,7983.11,5515)"
       spreadMethod="pad"
       id="linearGradient2452">
      <stop
         style="stop-opacity:1;stop-color:#d0d0d0"
         offset="0"
         id="stop2446" />
      <stop
         style="stop-opacity:1;stop-color:#ededed"
         offset="0.51788785"
         id="stop2448" />
      <stop
         style="stop-opacity:1;stop-color:#ededed"
         offset="1"
         id="stop2450" />
    </linearGradient>
  </defs>
  <g
     inkscape:label="Layer 1"
     inkscape:groupmode="layer"
     id="layer1"
     transform="translate(0.09317171,-98.332576)">
    <path
       d="m 22.065788,98.553058 c -12.0969972,0 -21.93836807,9.841442 -21.93836807,21.938542 0,12.09675 9.84137087,21.93819 21.93836807,21.93819 12.096714,0 21.938156,-9.84144 21.938156,-21.93819 0,-12.0971 -9.841442,-21.938542 -21.938156,-21.938542 z m 0,44.097222 c -12.2183882,0 -22.15885418,-9.94022 -22.15885418,-22.15868 0,-12.21846 9.94046598,-22.159028 22.15885418,-22.159028 12.218422,0 22.158642,9.940568 22.158642,22.159028 0,12.21846 -9.94022,22.15868 -22.158642,22.15868"
       style="fill:#191a1b;fill-opacity:1;fill-rule:nonzero;stroke:none;stroke-width:0.0352778"
       id="path152" />
    <path
       d="m 10.952159,139.52643 0.190888,0.11007 0.879863,-1.52365 c -0.06396,-0.0367 -0.127741,-0.0727 -0.191135,-0.11007 z m -1.929236,-1.26577 0.178435,0.12947 1.035474,-1.42522 c -0.05966,-0.0427 -0.12058,-0.084 -0.179705,-0.12771 z m 12.933151,2.51284 v 1.76671 h 0.220486 v -1.76671 c -0.03679,3.5e-4 -0.07317,0.003 -0.110243,0.003 -0.03694,0 -0.07331,-0.002 -0.110243,-0.003 z m -6.803496,0.64805 0.209868,0.0681 0.542395,-1.66899 c -0.07027,-0.0226 -0.13917,-0.0476 -0.208915,-0.0706 z m 4.504231,0.98108 0.219111,0.0229 0.183832,-1.74872 c -0.07317,-0.007 -0.145768,-0.0166 -0.218969,-0.0247 z m -2.278168,-0.37254 0.215688,0.0459 0.364737,-1.71626 c -0.07204,-0.0148 -0.142875,-0.0342 -0.214806,-0.0494 z m -4.37582,-1.44603 0.201612,0.0896 0.714658,-1.60514 c -0.06752,-0.0296 -0.134091,-0.0607 -0.201048,-0.091 z m -9.512159,-11.94224 -1.605033,0.71473 0.089606,0.20108 1.6062324,-0.71508 c -0.030445,-0.067 -0.061207,-0.13335 -0.090805,-0.20073 z m -0.7522985,-1.98578 -1.66878,0.54257 0.068192,0.2092 1.6711436,-0.54293 c -0.023001,-0.0699 -0.048225,-0.13829 -0.070556,-0.20884 z m 4.4981987,10.14377 0.1641475,0.14746 1.1784895,-1.30881 c -0.054998,-0.0487 -0.11176,-0.0956 -0.1660525,-0.14534 z m -5.0378429,-12.1987 -1.71538187,0.36442 0.045896,0.2159 1.71912127,-0.36548 c -0.015734,-0.072 -0.03489,-0.14252 -0.049635,-0.21484 z m 2.2478647,5.93654 -1.5238236,0.87983 0.110243,0.19085 1.5235414,-0.87947 c -0.037042,-0.0631 -0.073448,-0.12736 -0.1099608,-0.19121 z m 1.1666713,4.62174 0.1474259,0.16404 1.3062655,-1.17616 c -0.049636,-0.0543 -0.096344,-0.11112 -0.1452739,-0.1658 z m -0.018768,-2.83598 -1.4246225,1.03505 0.1293989,0.17851 1.4231055,-1.03364 c -0.043533,-0.0593 -0.085019,-0.11995 -0.1278819,-0.17992 z m 18.4826627,8.35307 0.184538,1.75507 0.21911,-0.0226 -0.18482,-1.75719 c -0.07288,0.008 -0.145662,0.0173 -0.218828,0.0247 z m 15.500138,-9.95045 1.533525,0.88512 0.11042,-0.19085 -1.533878,-0.88547 c -0.03669,0.0639 -0.07302,0.1277 -0.110067,0.1912 z m 1.746956,-3.86397 1.683808,0.54716 0.06809,-0.20955 -1.681692,-0.5461 c -0.02223,0.0699 -0.04727,0.13864 -0.0702,0.20849 z m -0.772231,1.97802 1.617839,0.72038 0.08961,-0.20109 -1.616781,-0.72037 c -0.02963,0.0677 -0.06068,0.13406 -0.09066,0.20108 z m 1.795639,-8.45961 c 3.53e-4,0.0374 0.0028,0.0737 0.0028,0.11113 0,0.0367 -0.0025,0.0727 -0.0028,0.10936 h 1.774119 v -0.22049 z m -0.121708,2.33927 1.763888,0.18556 0.02293,-0.21942 -1.762125,-0.18521 c -0.0071,0.0734 -0.01658,0.14605 -0.02469,0.21907 z m -0.341842,2.0955 1.732492,0.3683 0.04586,-0.2159 -1.728964,-0.36759 c -0.01482,0.0723 -0.03387,0.14323 -0.04939,0.21519 z m -7.985125,12.1472 1.040695,1.43263 0.178505,-0.12947 -1.039283,-1.43087 c -0.05927,0.0438 -0.120297,0.0847 -0.179917,0.12771 z m 4.512733,-4.46158 1.431925,1.04034 0.129823,-0.1785 -1.434042,-1.04176 c -0.04304,0.0596 -0.08431,0.12065 -0.127706,0.17992 z m -10.180743,7.31873 0.544971,1.6771 0.209903,-0.0684 -0.545818,-1.67957 c -0.06999,0.0233 -0.138888,0.0483 -0.209056,0.0709 z m 3.881544,-1.70851 0.884766,1.53247 0.190853,-0.11042 -0.884414,-1.53176 c -0.0635,0.037 -0.127353,0.0734 -0.191205,0.10971 z m -1.895475,0.95603 0.718255,1.61325 0.201436,-0.0896 -0.718961,-1.61466 c -0.06703,0.0303 -0.13335,0.0614 -0.20073,0.091 z m 6.850591,-4.92231 1.314097,1.18322 0.147461,-0.16369 -1.316566,-1.18568 c -0.04868,0.055 -0.0956,0.11218 -0.144992,0.16615 z m -1.512005,1.4912 1.18498,1.31621 0.163689,-0.14746 -1.182864,-1.31375 c -0.05398,0.0494 -0.111125,0.0963 -0.165805,0.145 z m -33.6741205,-13.13427 -1.74776685,0.18379 0.0230364,0.21908 1.74928385,-0.18415 c -0.00787,-0.073 -0.017251,-0.1457 -0.024553,-0.21872 z m 24.2953815,17.85725 0.366431,1.72403 0.215653,-0.0462 -0.367242,-1.7272 c -0.07193,0.0152 -0.142628,0.0346 -0.214842,0.0494 z m 5.937391,-37.48581 c 0.06385,0.0363 0.127706,0.0727 0.191206,0.10972 l 0.887589,-1.53705 -0.190853,-0.11042 z m 1.785409,1.14794 c 0.05962,0.043 0.12065,0.0843 0.179916,0.12806 l 1.043517,-1.43651 -0.178506,-0.12947 z m -3.680531,-2.10396 c 0.06738,0.0296 0.134056,0.0607 0.201084,0.091 l 0.72143,-1.62066 -0.201436,-0.0896 z m -1.98501,-0.75248 c 0.07027,0.0226 0.139206,0.0476 0.209197,0.0709 l 0.547794,-1.686276 -0.209903,-0.06844 z m 7.322185,4.18324 c 0.05503,0.0487 0.111478,0.0956 0.166158,0.14499 l 1.186745,-1.31797 -0.164042,-0.14747 z M 1.7815949,120.4916 c 0,-0.0374 0.00261,-0.0737 0.00275,-0.11113 H 0.02405604 v 0.22049 H 1.7843465 c -1.411e-4,-0.0367 -0.00275,-0.0727 -0.00275,-0.10936 z M 26.18087,100.62492 c 0.07236,0.0148 0.143051,0.0342 0.214983,0.0497 l 0.368617,-1.734254 -0.215653,-0.04551 z m 12.352549,5.19042 -0.147461,-0.16404 -1.318331,1.1871 c 0.04939,0.0543 0.09596,0.11112 0.144992,0.16615 z m 3.399719,10.5657 1.730728,-0.36795 -0.04586,-0.21555 -1.734256,0.36865 c 0.01552,0.072 0.03457,0.14253 0.04939,0.21485 z m 0.3175,2.09902 1.762125,-0.18521 -0.02293,-0.21907 -1.763888,0.18556 c 0.0078,0.073 0.01729,0.14569 0.02469,0.21872 z m -0.856544,-4.15148 1.683455,-0.54716 -0.06809,-0.20991 -1.685925,0.54787 c 0.02293,0.0698 0.04798,0.13864 0.07056,0.2092 z m -0.752123,-1.98614 1.619603,-0.72108 -0.0896,-0.20179 -1.621014,0.72178 c 0.03034,0.067 0.06138,0.1337 0.09102,0.20109 z m -2.103261,-3.68089 1.437923,-1.04457 -0.12947,-0.17851 -1.436158,1.04352 c 0.04339,0.0589 0.08502,0.11994 0.127705,0.17956 z m 1.147586,1.78576 1.538112,-0.88794 -0.110067,-0.19085 -1.537758,0.88759 c 0.03704,0.0635 0.07338,0.12735 0.109713,0.1912 z M 24.081701,100.30707 c 0.07345,0.007 0.145944,0.0169 0.218969,0.0247 l 0.185632,-1.764242 -0.21911,-0.02328 z m -13.845293,3.71122 -1.0378016,-1.42804 -0.178435,0.12947 1.0364256,1.42663 c 0.05923,-0.0437 0.120156,-0.085 0.179811,-0.12806 z m -5.6788754,6.23429 -1.525905,-0.88089 -0.110243,0.19086 1.526293,0.88124 c 0.036548,-0.0635 0.072637,-0.12771 0.109855,-0.19121 z m -0.9755364,1.88666 -1.6081727,-0.71614 -0.08957,0.20179 1.6070791,0.71508 c 0.029633,-0.0674 0.060501,-0.13371 0.090664,-0.20073 z m 2.0293189,-6.31825 1.3109221,1.18039 c 0.04893,-0.055 0.095779,-0.11148 0.1452387,-0.1658 l -1.3086997,-1.17864 z m 0.1120422,2.65782 -1.4254692,-1.03575 -0.1295047,0.1785 1.427233,1.03682 c 0.042827,-0.0596 0.084173,-0.1203 0.1277409,-0.17957 z m -3.8170555,9.78182 -1.75023632,-0.18415 -0.0230011,0.21908 1.74871932,0.18379 c 0.00716,-0.073 0.016545,-0.14569 0.024518,-0.21872 z m 0.9034639,-4.14407 -1.6733661,-0.54363 -0.068192,0.2099 1.6707202,0.54257 c 0.022331,-0.0699 0.047554,-0.13899 0.070838,-0.20884 z m -0.5610225,2.04822 -1.72017967,-0.36583 -0.045896,0.21555 1.71647547,0.36513 c 0.015028,-0.0723 0.034184,-0.14288 0.0496,-0.21485 z m 11.6693948,-14.24975 -0.716456,-1.60902 -0.201613,0.0896 0.716986,1.61008 c 0.06699,-0.0303 0.133561,-0.061 0.201083,-0.0907 z m 4.038459,-1.29117 -0.365725,-1.720846 -0.215653,0.04586 0.366536,1.724736 c 0.07193,-0.0159 0.142628,-0.0349 0.214842,-0.0497 z m 2.098887,-0.31714 -0.184221,-1.753309 -0.21911,0.02293 0.184361,1.755069 c 0.07306,-0.008 0.145521,-0.0173 0.21897,-0.0247 z m -4.15216,0.85619 -0.54363,-1.672874 -0.209868,0.06809 0.544442,1.675694 c 0.06989,-0.0233 0.138783,-0.0483 0.209056,-0.0709 z m 6.05275,-0.95321 c 0.03694,-3.5e-4 0.07331,-0.003 0.110243,-0.003 0.03708,0 0.07345,0.002 0.110243,0.003 v -1.766003 h -0.220486 z m -14.721452,3.97052 1.1786658,1.30951 c 0.054434,-0.0494 0.1113366,-0.0963 0.1662994,-0.14535 l -1.1809589,-1.31162 z m 4.787583,-1.30951 -0.881945,-1.52788 -0.190853,0.11042 0.881804,1.52752 c 0.06339,-0.0374 0.127352,-0.0734 0.190994,-0.11006"
       style="fill:#191a1b;fill-opacity:1;fill-rule:nonzero;stroke:none;stroke-width:0.0352778"
       id="path154" />
    <path
       d="m 2.8125173,131.22663 0.3307292,0.57291 3.0505752,-1.76142 c -0.1137003,-0.18874 -0.2225675,-0.3803 -0.3294944,-0.57327 z m 18.9230707,7.77733 v 3.53625 h 0.661458 v -3.53625 c -0.110384,0.002 -0.219639,0.008 -0.330729,0.008 -0.110772,0 -0.220204,-0.007 -0.330729,-0.008 z m -10.974423,0.41205 0.572876,0.3309 1.761807,-3.05188 c -0.192934,-0.10653 -0.384739,-0.2159 -0.573405,-0.32949 z m 29.816954,-19.25602 c 0.0021,0.11077 0.0085,0.22013 0.0085,0.33161 0,0.11042 -0.0063,0.21978 -0.0085,0.32985 h 3.543652 v -0.66146 z m -9.538758,16.53363 1.767063,3.06 0.572911,-0.33056 -1.766358,-3.05928 c -0.188383,0.11359 -0.380294,0.2226 -0.573616,0.32984 z m 6.900685,-6.65832 3.0607,1.76671 0.330553,-0.57256 -3.061758,-1.76742 c -0.106892,0.19262 -0.2159,0.38418 -0.329495,0.57327 z m -6.898922,-25.74466 c 0.19297,0.10724 0.384881,0.2159 0.573617,0.32984 l 1.769181,-3.06458 -0.572912,-0.33055 z m -9.305536,-2.31176 c 0.110525,-0.002 0.219957,-0.008 0.330729,-0.008 0.11109,0 0.220345,0.006 0.330729,0.008 v -3.535183 h -0.661458 z m 19.599239,7.77135 -0.330906,-0.57292 -3.064933,1.76954 c 0.113947,0.18873 0.222956,0.38029 0.329847,0.57361 z m -38.5236855,0.004 3.0539972,1.76318 c 0.107068,-0.19297 0.2159352,-0.38488 0.3297766,-0.57362 l -3.0530446,-1.76245 z m 10.2841425,-5.46559 -1.76403,-3.05541 -0.572841,0.33055 1.76336,3.05471 c 0.188772,-0.11395 0.380471,-0.22261 0.573511,-0.32985 z M 3.5454837,120.4916 c 0,-0.11148 0.00649,-0.22084 0.00854,-0.33161 H 0.02405604 v 0.66146 H 3.5539151 c -0.00194,-0.11007 -0.00843,-0.21943 -0.00843,-0.32985"
       style="fill:#191a1b;fill-opacity:1;fill-rule:nonzero;stroke:none;stroke-width:0.0352778"
       id="path156" />
    <path
       d="m 7.9367556,119.74159 c 0,-0.91052 -0.2683228,-1.41887 -0.9034639,-1.41887 -0.5363281,0 -0.8396111,0.40922 -0.8396111,1.11513 0,0.62089 0.2892425,0.98778 0.8043333,0.98778 0.3880556,0 0.6846358,-0.16228 0.9315803,-0.43004 0,-0.0776 0.00716,-0.16227 0.00716,-0.254 z m -1.9408422,2.6603 c 0.9738783,-0.39511 1.6372416,-0.93169 1.8560697,-1.88454 -0.2541059,0.15522 -0.5716059,0.26106 -0.9245247,0.26106 -0.8539692,0 -1.4394745,-0.52917 -1.4394745,-1.3335 0,-0.86784 0.6209242,-1.47497 1.5453078,-1.47497 1.0798527,0 1.6091605,0.65652 1.6091605,1.77165 0,1.57339 -1.0657769,2.51213 -2.5264885,2.92841 l -0.1200503,-0.26811"
       style="fill:#191a1b;fill-opacity:1;fill-rule:nonzero;stroke:none;stroke-width:0.0352778"
       id="path158" />
    <path
       d="m 21.242122,135.86177 c 0,0.91052 0.268182,1.41888 0.903288,1.41888 0.536363,0 0.839787,-0.40958 0.839787,-1.11549 0,-0.62053 -0.289384,-0.98778 -0.80451,-0.98778 -0.395075,0 -0.691479,0.16228 -0.931545,0.43039 -0.007,0.085 -0.007,0.16969 -0.007,0.254 z m 1.940842,-2.66029 c -0.981039,0.40216 -1.637277,0.93168 -1.863125,1.89124 0.261126,-0.16228 0.578626,-0.26811 0.931545,-0.26811 0.853969,0 1.439792,0.52916 1.439792,1.33385 0,0.86783 -0.621242,1.47496 -1.545766,1.47496 -1.079677,0 -1.608985,-0.65652 -1.608985,-1.77165 0,-1.57374 1.065777,-2.51213 2.52663,-2.92876 l 0.119909,0.26847"
       style="fill:#191a1b;fill-opacity:1;fill-rule:nonzero;stroke:none;stroke-width:0.0352778"
       id="path160" />
    <path
       d="m 36.605135,120.02699 c 0.747889,-0.0208 1.185334,-0.33161 1.185334,-0.94544 0,-0.48684 -0.261056,-0.74789 -0.705909,-0.74789 -0.472722,0 -0.712258,0.29633 -0.712258,0.64205 0,0.11289 0.02787,0.20461 0.07726,0.28928 -0.119944,0.0917 -0.246944,0.13406 -0.381,0.13406 -0.218722,0 -0.359833,-0.1905 -0.359833,-0.48684 0,-0.508 0.578556,-0.93168 1.389945,-0.93168 0.832908,0 1.390649,0.45155 1.390649,1.10102 0,0.39511 -0.162277,0.83996 -0.974019,1.10102 0.762,0.18309 1.030464,0.61383 1.030464,1.16451 0,0.73378 -0.585611,1.29117 -1.517297,1.29117 -0.938742,0 -1.503539,-0.39511 -1.503539,-1.03011 0,-0.28257 0.212019,-0.41663 0.437444,-0.41663 0.127353,0 0.261409,0.0494 0.360186,0.12735 -0.04233,0.11289 -0.0635,0.22543 -0.0635,0.32421 0,0.38135 0.296334,0.6424 0.804687,0.6424 0.522111,0 0.818444,-0.36689 0.818444,-0.93839 0,-0.59301 -0.423333,-0.98813 -1.277056,-0.98813 v -0.33196"
       style="fill:#191a1b;fill-opacity:1;fill-rule:nonzero;stroke:none;stroke-width:0.0352778"
       id="path162" />
    <path
       d="m 19.018387,107.32911 c 0.416314,-0.0423 0.769091,-0.11289 1.016177,-0.21872 v -3.36621 h -1.002136 v -0.32455 c 0.578661,-0.0564 1.037414,-0.21872 1.411252,-0.41628 l 0.254106,0.0988 v 4.00826 c 0.218828,0.11289 0.762353,0.19756 0.938742,0.21872 l -0.02826,0.26106 h -2.61112 l 0.02124,-0.26106"
       style="fill:#191a1b;fill-opacity:1;fill-rule:nonzero;stroke:none;stroke-width:0.0352778"
       id="path164" />
    <path
       d="m 22.087272,107.15978 c 1.700636,-1.46085 2.216009,-2.17347 2.216009,-2.94993 0,-0.57856 -0.261126,-0.86783 -0.769197,-0.86783 -0.458611,0 -0.747995,0.3175 -0.747995,0.6985 0,0.14816 0.04918,0.29633 0.155011,0.43779 -0.09165,0.0984 -0.239783,0.16228 -0.387915,0.16228 -0.233009,0 -0.458893,-0.14817 -0.458893,-0.55739 0,-0.56479 0.642161,-1.09396 1.439792,-1.09396 0.910202,0 1.474752,0.48683 1.474752,1.29152 0,0.75494 -0.557389,1.54552 -2.124216,2.75202 h 2.307802 v 0.55739 h -3.10515 v -0.43039"
       style="fill:#191a1b;fill-opacity:1;fill-rule:nonzero;stroke:none;stroke-width:0.0352778"
       id="path166" />
    <path
       d="m 14.131569,108.06642 c -0.473358,0 -0.912954,-0.25365 -1.147904,-0.66146 -0.365019,-0.63183 -0.148131,-1.44216 0.483694,-1.80658 0.20066,-0.11571 0.428731,-0.17709 0.658706,-0.17709 0.472793,0 0.912284,0.25365 1.147904,0.66075 0.176389,0.30586 0.223238,0.66217 0.131762,1.00401 -0.09109,0.34184 -0.310056,0.62688 -0.615456,0.80327 -0.201189,0.11571 -0.428413,0.1771 -0.658706,0.1771"
       style="fill:#191a1b;fill-opacity:1;fill-rule:nonzero;stroke:none;stroke-width:0.0352778"
       id="path168" />
    <path
       d="m 8.3155683,113.87702 c -0.2299758,0 -0.4580466,-0.0614 -0.6587066,-0.17709 -0.3050822,-0.17639 -0.5241925,-0.46179 -0.6159853,-0.80363 -0.091475,-0.34149 -0.044626,-0.6978 0.1317625,-1.00295 0.2354792,-0.40816 0.6750755,-0.66146 1.1479036,-0.66146 0.2308225,0 0.4580467,0.0614 0.65786,0.1771 0.3067403,0.17709 0.5251803,0.46213 0.6168323,0.80327 0.09148,0.34184 0.04547,0.69815 -0.130916,1.0033 -0.2356558,0.40781 -0.6752521,0.66146 -1.1487505,0.66146"
       style="fill:#191a1b;fill-opacity:1;fill-rule:nonzero;stroke:none;stroke-width:0.0352778"
       id="path170" />
    <path
       d="m 8.3205425,129.75201 c -0.4728281,0 -0.9124244,-0.25294 -1.1473744,-0.66145 -0.1769181,-0.30516 -0.223767,-0.66146 -0.1322917,-1.0033 0.091793,-0.34185 0.3100564,-0.62548 0.6154561,-0.80257 0.2017183,-0.11642 0.4297892,-0.17851 0.6606117,-0.17851 0.472828,0 0.9117188,0.25365 1.1465276,0.66146 0.177236,0.30515 0.223238,0.66146 0.132292,1.0033 -0.09162,0.34149 -0.3100566,0.62689 -0.6159855,0.80398 -0.2003425,0.11501 -0.4284133,0.17709 -0.6592358,0.17709"
       style="fill:#191a1b;fill-opacity:1;fill-rule:nonzero;stroke:none;stroke-width:0.0352778"
       id="path172" />
    <path
       d="m 14.126065,135.56226 c -0.229975,0 -0.457517,-0.061 -0.65733,-0.17674 -0.306459,-0.17639 -0.525004,-0.46108 -0.615986,-0.80362 -0.09148,-0.34044 -0.04547,-0.69709 0.130916,-1.00189 0.236361,-0.40923 0.675922,-0.66358 1.14875,-0.66358 0.229447,0 0.456671,0.0621 0.657331,0.1771 0.305929,0.17709 0.524898,0.46178 0.616515,0.80362 0.09179,0.34185 0.04494,0.6978 -0.131445,1.00366 -0.235656,0.40887 -0.675958,0.66145 -1.148751,0.66145"
       style="fill:#191a1b;fill-opacity:1;fill-rule:nonzero;stroke:none;stroke-width:0.0352778"
       id="path174" />
    <path
       d="m 30.007486,135.56226 c -0.472723,0 -0.912989,-0.25258 -1.147939,-0.66145 -0.177271,-0.30657 -0.22412,-0.66323 -0.133174,-1.00577 0.09225,-0.34043 0.310268,-0.62513 0.615421,-0.80151 0.201789,-0.11501 0.42933,-0.1771 0.659342,-0.1771 0.472722,0 0.912283,0.25294 1.147938,0.66146 0.176389,0.30621 0.223309,0.66216 0.132292,1.00401 -0.09102,0.34184 -0.310092,0.62653 -0.614539,0.80362 -0.202141,0.11501 -0.42933,0.17674 -0.659341,0.17674"
       style="fill:#191a1b;fill-opacity:1;fill-rule:nonzero;stroke:none;stroke-width:0.0352778"
       id="path176" />
    <path
       d="m 35.813855,129.7506 c -0.231775,0 -0.458964,-0.0607 -0.659695,-0.17639 -0.307269,-0.17638 -0.525638,-0.46319 -0.617361,-0.80468 -0.09137,-0.34114 -0.0448,-0.69674 0.131234,-1.00189 0.236008,-0.40781 0.675216,-0.66146 1.147586,-0.66146 0.231069,0 0.459669,0.0614 0.659694,0.1778 0.631825,0.36442 0.848783,1.17475 0.48507,1.80517 -0.23495,0.40781 -0.675217,0.66145 -1.146528,0.66145"
       style="fill:#191a1b;fill-opacity:1;fill-rule:nonzero;stroke:none;stroke-width:0.0352778"
       id="path178" />
    <path
       d="m 35.814913,113.87631 c -0.471664,0 -0.910872,-0.25294 -1.146528,-0.66004 -0.176388,-0.30586 -0.222955,-0.66217 -0.131586,-1.0033 0.09172,-0.34184 0.310092,-0.62759 0.616303,-0.80328 0.200378,-0.11641 0.428272,-0.17709 0.658636,-0.17709 0.472722,0 0.912989,0.25259 1.148645,0.66004 0.176389,0.30445 0.22225,0.66146 0.13088,1.0033 -0.09102,0.34149 -0.310091,0.62689 -0.614891,0.80187 -0.201084,0.11712 -0.430389,0.1785 -0.661459,0.1785"
       style="fill:#191a1b;fill-opacity:1;fill-rule:nonzero;stroke:none;stroke-width:0.0352778"
       id="path180" />
    <path
       d="m 29.999724,108.06642 c -0.230011,0 -0.457552,-0.0607 -0.657225,-0.1771 -0.305858,-0.17639 -0.52458,-0.46143 -0.616655,-0.80257 -0.09095,-0.34184 -0.04357,-0.69814 0.131586,-1.0033 0.236361,-0.40851 0.677333,-0.66216 1.14935,-0.66216 0.230011,0 0.457553,0.0607 0.657931,0.17639 0.305152,0.17568 0.523522,0.46178 0.61595,0.80327 0.09102,0.34255 0.0448,0.69815 -0.131587,1.00189 -0.236361,0.40993 -0.675216,0.66358 -1.14935,0.66358"
       style="fill:#191a1b;fill-opacity:1;fill-rule:nonzero;stroke:none;stroke-width:0.0352778"
       id="path182" />
  </g>
</svg>
