<?xml version="1.0" encoding="UTF-8" standalone="no"?>
<!-- Created with Inkscape (http://www.inkscape.org/) -->

<svg
   width="44.317707mm"
   height="44.317703mm"
   viewBox="0 0 44.317707 44.317703"
   version="1.1"
   id="svg6511"
   inkscape:version="1.2.1 (9c6d41e410, 2022-07-14)"
   sodipodi:docname="hour-hand-5-symbolic.svg"
   xmlns:inkscape="http://www.inkscape.org/namespaces/inkscape"
   xmlns:sodipodi="http://sodipodi.sourceforge.net/DTD/sodipodi-0.dtd"
   xmlns="http://www.w3.org/2000/svg"
   xmlns:svg="http://www.w3.org/2000/svg">
  <sodipodi:namedview
     id="namedview6513"
     pagecolor="#ffffff"
     bordercolor="#000000"
     borderopacity="0.25"
     inkscape:showpageshadow="2"
     inkscape:pageopacity="0.0"
     inkscape:pagecheckerboard="0"
     inkscape:deskcolor="#d1d1d1"
     inkscape:document-units="mm"
     showgrid="false"
     inkscape:zoom="5.6568543"
     inkscape:cx="32.792077"
     inkscape:cy="60.98796"
     inkscape:window-width="2560"
     inkscape:window-height="1363"
     inkscape:window-x="0"
     inkscape:window-y="40"
     inkscape:window-maximized="1"
     inkscape:current-layer="layer1"
     showguides="true"
     inkscape:lockguides="false" />
  <defs
     id="defs6508">
    <clipPath
       clipPathUnits="userSpaceOnUse"
       id="clipPath2426">
      <path
         d="m 8060.68,5204.7 c -93.72,0 -175.9,82.2 -175.9,175.9 0,93.7 82.18,175.9 175.9,175.9 93.72,0 175.91,-82.2 175.91,-175.9 0,-93.7 -82.19,-175.9 -175.91,-175.9 z"
         id="path2424" />
    </clipPath>
    <linearGradient
       x1="0"
       y1="0"
       x2="1"
       y2="0"
       gradientUnits="userSpaceOnUse"
       gradientTransform="matrix(174.538,-302.309,-302.309,-174.538,7973.41,5531.8)"
       spreadMethod="pad"
       id="linearGradient2434">
      <stop
         style="stop-opacity:1;stop-color:#ededed"
         offset="0"
         id="stop2428" />
      <stop
         style="stop-opacity:1;stop-color:#ededed"
         offset="0.48211215"
         id="stop2430" />
      <stop
         style="stop-opacity:1;stop-color:#d0d0d0"
         offset="1"
         id="stop2432" />
    </linearGradient>
    <clipPath
       clipPathUnits="userSpaceOnUse"
       id="clipPath2444">
      <path
         d="m 8060.68,5224.3 c -83.29,0 -156.36,73 -156.36,156.3 0,83.3 73.07,156.4 156.36,156.4 83.3,0 156.37,-73.1 156.37,-156.4 0,-83.3 -73.07,-156.3 -156.37,-156.3 z"
         id="path2442" />
    </clipPath>
    <linearGradient
       x1="0"
       y1="0"
       x2="1"
       y2="0"
       gradientUnits="userSpaceOnUse"
       gradientTransform="matrix(155.141,-268.712,-268.712,-155.141,7983.11,5515)"
       spreadMethod="pad"
       id="linearGradient2452">
      <stop
         style="stop-opacity:1;stop-color:#d0d0d0"
         offset="0"
         id="stop2446" />
      <stop
         style="stop-opacity:1;stop-color:#ededed"
         offset="0.51788785"
         id="stop2448" />
      <stop
         style="stop-opacity:1;stop-color:#ededed"
         offset="1"
         id="stop2450" />
    </linearGradient>
  </defs>
  <g
     inkscape:label="Layer 1"
     inkscape:groupmode="layer"
     id="layer1"
     transform="translate(0.09317171,-98.332576)">
    <path
       id="path184-3"
       style="fill:#191a1b;fill-opacity:1;fill-rule:nonzero;stroke:none;stroke-width:0.0352778"
       inkscape:transform-center-x="0.0013479474"
       inkscape:transform-center-y="-5.7320086"
       d="m 22.067012,107.24521 -0.882687,0.88207 -0.0074,10.81949 h 0.0031 c -0.534264,0.31258 -0.901292,0.89413 -0.901332,1.54455 -5.9e-5,0.97024 0.816633,1.78702 1.786861,1.78708 0.970229,6e-5 1.787022,-0.81662 1.787081,-1.78686 4e-5,-0.65455 -0.371729,-1.23915 -0.911477,-1.55035 l 0.0069,-10.81278 z m -0.0011,0.93586 0.220644,0.22015 -0.0068,10.31669 c -0.0703,-0.009 -0.141659,-0.0134 -0.21394,-0.0134 -0.0767,0 -0.15241,0.005 -0.22686,0.015 l 0.0068,-10.31824 z m -1.77e-4,11.29285 c 0.544962,3e-5 1.015413,0.4726 1.015379,1.01757 -3.3e-5,0.54498 -0.470542,1.01541 -1.015504,1.01538 -0.544961,-3e-5 -1.017479,-0.47052 -1.017446,-1.0155 3.4e-5,-0.54497 0.47261,-1.01748 1.017571,-1.01745 z" />
  </g>
</svg>
