<?xml version="1.0" encoding="utf-8"?>
<!-- Generator: Adobe Illustrator 15.1.0, SVG Export Plug-In . SVG Version: 6.00 Build 0)  -->
<!DOCTYPE svg PUBLIC "-//W3C//DTD SVG 1.1//EN" "http://www.w3.org/Graphics/SVG/1.1/DTD/svg11.dtd">
<svg version="1.1" id="Layer_1" xmlns="http://www.w3.org/2000/svg" xmlns:xlink="http://www.w3.org/1999/xlink" x="0px" y="0px"
	 width="512px" height="512px" viewBox="0 0 512 512" enable-background="new 0 0 512 512" xml:space="preserve">

<g>
	<g>
		<path fill="#1D1D1B" d="M256,95c8.833,0,16-7.167,16-16V47c0-8.833-7.167-16-16-16s-16,7.167-16,16v32
			C240,87.833,247.167,95,256,95z M380.438,137.167l22.625-22.625c6.249-6.25,6.249-16.375,0-22.625
			c-6.25-6.25-16.375-6.25-22.625,0l-22.625,22.625c-6.25,6.25-6.25,16.375,0,22.625S374.188,143.417,380.438,137.167z M64,255h32
			c8.833,0,16-7.167,16-16s-7.167-16-16-16H64c-8.833,0-16,7.167-16,16S55.167,255,64,255z M400,239c0,8.833,7.167,16,16,16h32
			c8.833,0,16-7.167,16-16s-7.167-16-16-16h-32C407.167,223,400,230.167,400,239z M131.541,137.167c6.251,6.25,16.376,6.25,22.625,0
			c6.251-6.25,6.251-16.375,0-22.625l-22.625-22.625c-6.25-6.25-16.374-6.25-22.625,0c-6.25,6.25-6.25,16.375,0,22.625
			L131.541,137.167z M145.625,255h32c-1.062-5.167-1.625-10.521-1.625-16c0-44.188,35.812-80,80-80c44.188,0,80,35.812,80,80
			c0,5.479-0.562,10.833-1.625,16h32c0.792-5.271,1.625-10.521,1.625-16c0-61.75-50.25-112-112-112s-112,50.25-112,112
			C144,244.479,144.875,249.729,145.625,255z M448,287H64c-8.833,0-16,7.167-16,16s7.167,16,16,16h384c8.833,0,16-7.167,16-16
			S456.833,287,448,287z M448,351H64c-8.833,0-16,7.167-16,16s7.167,16,16,16h384c8.833,0,16-7.167,16-16S456.833,351,448,351z
			 M448,415H64c-8.833,0-16,7.167-16,16s7.167,16,16,16h384c8.833,0,16-7.167,16-16S456.833,415,448,415z"/>
	</g>
</g>
</svg>
