<?xml version="1.0" encoding="utf-8"?>
<!-- Generator: Adobe Illustrator 15.1.0, SVG Export Plug-In . SVG Version: 6.00 Build 0)  -->
<!DOCTYPE svg PUBLIC "-//W3C//DTD SVG 1.1//EN" "http://www.w3.org/Graphics/SVG/1.1/DTD/svg11.dtd">
<svg version="1.1" id="Layer_1" xmlns="http://www.w3.org/2000/svg" xmlns:xlink="http://www.w3.org/1999/xlink" x="0px" y="0px"
	 width="512px" height="512px" viewBox="0 0 512 512" enable-background="new 0 0 512 512" xml:space="preserve">

<g>
	<g>
		<path fill="#1D1D1B" d="M208,64c8.833,0,16-7.167,16-16V16c0-8.833-7.167-16-16-16s-16,7.167-16,16v32
			C192,56.833,199.167,64,208,64z M332.438,106.167l22.625-22.625c6.249-6.25,6.249-16.375,0-22.625
			c-6.25-6.25-16.375-6.25-22.625,0l-22.625,22.625c-6.25,6.25-6.25,16.375,0,22.625
			C316.062,112.417,326.188,112.417,332.438,106.167z M16,224h32c8.833,0,16-7.167,16-16s-7.167-16-16-16H16
			c-8.833,0-16,7.167-16,16S7.167,224,16,224z M352,208c0,8.833,7.167,16,16,16h32c8.833,0,16-7.167,16-16s-7.167-16-16-16h-32
			C359.167,192,352,199.167,352,208z M83.541,106.167c6.251,6.25,16.376,6.25,22.625,0c6.251-6.25,6.251-16.375,0-22.625
			L83.541,60.917c-6.25-6.25-16.374-6.25-22.625,0c-6.25,6.25-6.25,16.375,0,22.625L83.541,106.167z M400,256
			c-5.312,0-10.562,0.375-15.792,1.125c-16.771-22.875-39.124-40.333-64.458-51.5C318.459,145,268.938,96,208,96
			c-61.75,0-112,50.25-112,112c0,17.438,4.334,33.75,11.5,48.438C47.875,258.875,0,307.812,0,368c0,61.75,50.25,112,112,112
			c13.688,0,27.084-2.5,39.709-7.333C180.666,497.917,217.5,512,256,512c38.542,0,75.333-14.083,104.291-39.333
			C372.916,477.5,386.312,480,400,480c61.75,0,112-50.25,112-112S461.75,256,400,256z M256,192c-45.938,0-88.5,19.812-118.375,53.25
			C131.688,234.083,128,221.542,128,208c0-44.188,35.812-80,80-80c39.812,0,72.562,29.167,78.708,67.25
			C276.688,193.25,266.459,192,256,192z"/>
	</g>
</g>
</svg>
