<?xml version="1.0" encoding="utf-8"?>
<!-- Generator: Adobe Illustrator 15.1.0, SVG Export Plug-In . SVG Version: 6.00 Build 0)  -->
<!DOCTYPE svg PUBLIC "-//W3C//DTD SVG 1.1//EN" "http://www.w3.org/Graphics/SVG/1.1/DTD/svg11.dtd">
<svg version="1.1" id="Layer_1" xmlns="http://www.w3.org/2000/svg" xmlns:xlink="http://www.w3.org/1999/xlink" x="0px" y="0px"
	 width="512px" height="512px" viewBox="0 0 512 512" enable-background="new 0 0 512 512" xml:space="preserve">

<g>
	<g>
		<path fill="#1D1D1B" d="M400,64c-5.312,0-10.562,0.375-15.792,1.125C354.334,24.417,307.188,0,256,0
			s-98.312,24.417-128.208,65.125C122.562,64.375,117.312,64,112,64C50.25,64,0,114.25,0,176s50.25,112,112,112
			c13.688,0,27.084-2.5,39.709-7.333C180.666,305.917,217.5,320,256,320c38.542,0,75.333-14.083,104.291-39.333
			C372.916,285.5,386.312,288,400,288c61.75,0,112-50.25,112-112S461.75,64,400,64z M96,320c-17.688,0-32,14.312-32,32
			s14.312,32,32,32s32-14.312,32-32S113.688,320,96,320z M256,352c-17.688,0-32,14.312-32,32s14.312,32,32,32s32-14.312,32-32
			S273.688,352,256,352z M416,320c-17.688,0-32,14.312-32,32s14.312,32,32,32s32-14.312,32-32S433.688,320,416,320z M352,448
			c-17.688,0-32,14.312-32,32s14.312,32,32,32s32-14.312,32-32S369.688,448,352,448z M160,448c-17.688,0-32,14.312-32,32
			s14.312,32,32,32s32-14.312,32-32S177.688,448,160,448z"/>
	</g>
</g>
</svg>
